M48
;Layer_Color=9474304
;FILE_FORMAT=4:4
METRIC,LZ
;TYPE=PLATED
T01F00S00C0.7112
T02F00S00C1.0000
T03F00S00C1.3000
T04F00S00C3.2000
%
T01
X00640419Y00778044
X0065532Y0078867
X0067183Y0080518
X007112Y0086614
X0064643Y0107823
T02
X0056388Y0072898
X0058928
Y0075438
X0061468
Y0072898
X0064008
Y0075438
X0056388
X0056515Y0092837
X0059055
Y0095377
X0061595
Y0092837
X0064135
Y0095377
X0056515
X0074676Y009525
Y009779
Y010033
Y010287
Y010541
Y010795
Y011049
Y011303
Y011557
Y011811
X0064008Y011684
X0061468
X0058928
Y01143
X0061468
X0064008
X0056388
Y011684
X0074676Y009271
Y009017
Y008763
Y008509
Y008255
X0100076
Y008509
Y008763
Y009017
Y009271
Y009525
Y009779
Y010033
Y010287
Y010541
Y010795
Y011049
Y011303
Y011557
Y011811
X010541Y011049
Y010795
Y010541
Y010287
Y010033
Y009779
Y009525
Y009271
Y009017
Y008763
T03
X0071882Y006858
X0076962
T04
X0113157Y0067818
X005715
X0113157Y0121539
X005715
M30
