G04*
G04 #@! TF.GenerationSoftware,Altium Limited,Altium Designer,25.8.1 (18)*
G04*
G04 Layer_Color=65535*
%FSLAX44Y44*%
%MOMM*%
G71*
G04*
G04 #@! TF.SameCoordinates,58A737EF-1176-4364-AE35-EAC751F74B1D*
G04*
G04*
G04 #@! TF.FilePolarity,Positive*
G04*
G01*
G75*
%ADD10C,0.2540*%
%ADD11C,0.2000*%
D10*
X660384Y645328D02*
Y836040D01*
X538480Y645328D02*
X660384D01*
X538480D02*
Y836040D01*
X660384D01*
X721360Y800100D02*
Y1257300D01*
Y800100D02*
X1026160D01*
Y1257300D01*
X721360D02*
X1026160D01*
X660384Y1059348D02*
Y1250060D01*
X538480Y1059348D02*
X660384D01*
X538480D02*
Y1250060D01*
X660384D01*
X661654Y844718D02*
Y1035430D01*
X539750Y844718D02*
X661654D01*
X539750D02*
Y1035430D01*
X661654D01*
X1028700Y1124222D02*
X1173229D01*
X1173678Y850900D02*
Y1123773D01*
X1130368Y850900D02*
X1173678D01*
X1028700D02*
X1130368D01*
X1028700D02*
Y1124222D01*
X645031Y1217974D02*
X647570Y1220514D01*
Y1225592D01*
X645031Y1228131D01*
X634874D01*
X632335Y1225592D01*
Y1220514D01*
X634874Y1217974D01*
X639952D01*
Y1223053D01*
X632335Y1212896D02*
X647570D01*
X632335Y1202739D01*
X647570D01*
Y1197661D02*
X632335D01*
Y1190043D01*
X634874Y1187504D01*
X645031D01*
X647570Y1190043D01*
Y1197661D01*
X646301Y1003344D02*
X648840Y1005884D01*
Y1010962D01*
X646301Y1013501D01*
X636144D01*
X633605Y1010962D01*
Y1005884D01*
X636144Y1003344D01*
X641222D01*
Y1008423D01*
X633605Y998266D02*
X648840D01*
X633605Y988109D01*
X648840D01*
Y983031D02*
X633605D01*
Y975413D01*
X636144Y972874D01*
X646301D01*
X648840Y975413D01*
Y983031D01*
X919477Y690875D02*
X916937Y693414D01*
X911859D01*
X909320Y690875D01*
Y688336D01*
X911859Y685797D01*
X916937D01*
X919477Y683258D01*
Y680718D01*
X916937Y678179D01*
X911859D01*
X909320Y680718D01*
X924555Y693414D02*
Y678179D01*
Y685797D01*
X927094Y688336D01*
X932173D01*
X934712Y685797D01*
Y678179D01*
X942329D02*
X947408D01*
X949947Y680718D01*
Y685797D01*
X947408Y688336D01*
X942329D01*
X939790Y685797D01*
Y680718D01*
X942329Y678179D01*
X957564Y690875D02*
Y688336D01*
X955025D01*
X960104D01*
X957564D01*
Y680718D01*
X960104Y678179D01*
X967721Y675640D02*
X977878D01*
X982956Y693414D02*
Y678179D01*
X990574D01*
X993113Y680718D01*
Y683258D01*
X990574Y685797D01*
X982956D01*
X990574D01*
X993113Y688336D01*
Y690875D01*
X990574Y693414D01*
X982956D01*
X1000730Y678179D02*
X1005809D01*
X1008348Y680718D01*
Y685797D01*
X1005809Y688336D01*
X1000730D01*
X998191Y685797D01*
Y680718D01*
X1000730Y678179D01*
X1015965Y690875D02*
Y688336D01*
X1013426D01*
X1018505D01*
X1015965D01*
Y680718D01*
X1018505Y678179D01*
X1026122Y675640D02*
X1036279D01*
X1041357Y693414D02*
Y683258D01*
X1046436Y678179D01*
X1051514Y683258D01*
Y693414D01*
X1056592Y678179D02*
X1061671D01*
X1059131D01*
Y693414D01*
X1056592Y690875D01*
X892810Y725163D02*
Y709928D01*
Y715007D01*
X902967Y725163D01*
X895349Y717546D01*
X902967Y709928D01*
X908045Y720085D02*
Y712467D01*
X910584Y709928D01*
X918202D01*
Y707389D01*
X915663Y704850D01*
X913123D01*
X918202Y709928D02*
Y720085D01*
X923280Y709928D02*
X928359D01*
X925819D01*
Y725163D01*
X923280D01*
X943594Y709928D02*
X938515D01*
X935976Y712467D01*
Y717546D01*
X938515Y720085D01*
X943594D01*
X946133Y717546D01*
Y715007D01*
X935976D01*
X966446Y725163D02*
Y715007D01*
X971525Y709928D01*
X976603Y715007D01*
Y725163D01*
X984220Y720085D02*
X989299D01*
X991838Y717546D01*
Y709928D01*
X984220D01*
X981681Y712467D01*
X984220Y715007D01*
X991838D01*
X996916Y709928D02*
Y720085D01*
X1004534D01*
X1007073Y717546D01*
Y709928D01*
X1037543Y722624D02*
X1035004Y725163D01*
X1029926D01*
X1027386Y722624D01*
Y720085D01*
X1029926Y717546D01*
X1035004D01*
X1037543Y715007D01*
Y712467D01*
X1035004Y709928D01*
X1029926D01*
X1027386Y712467D01*
X1045161Y720085D02*
X1050239D01*
X1052778Y717546D01*
Y709928D01*
X1045161D01*
X1042622Y712467D01*
X1045161Y715007D01*
X1052778D01*
X1057857Y709928D02*
Y720085D01*
X1065474D01*
X1068013Y717546D01*
Y709928D01*
X1075631Y722624D02*
Y720085D01*
X1073092D01*
X1078170D01*
X1075631D01*
Y712467D01*
X1078170Y709928D01*
X623665Y827533D02*
X608430D01*
Y817376D01*
X605890Y812298D02*
Y802141D01*
X623665Y797063D02*
Y791984D01*
Y794523D01*
X608430D01*
Y797063D01*
Y791984D01*
X621125Y774210D02*
X623665Y776749D01*
Y781828D01*
X621125Y784367D01*
X618586D01*
X616047Y781828D01*
Y776749D01*
X613508Y774210D01*
X610969D01*
X608430Y776749D01*
Y781828D01*
X610969Y784367D01*
X598265Y827533D02*
X583030D01*
Y817376D01*
X580490Y812298D02*
Y802141D01*
X598265Y786906D02*
Y797063D01*
X583030D01*
Y786906D01*
X590647Y797063D02*
Y791984D01*
X583030Y781828D02*
X598265D01*
X583030Y771671D01*
X598265D01*
X570326Y827533D02*
X555090D01*
Y817376D01*
Y812298D02*
X570326D01*
Y804680D01*
X567786Y802141D01*
X562708D01*
X560169Y804680D01*
Y812298D01*
X570326Y797063D02*
X555090D01*
X560169Y791984D01*
X555090Y786906D01*
X570326D01*
X555090Y781828D02*
X570326D01*
X565247Y776749D01*
X570326Y771671D01*
X555090D01*
X608825Y708927D02*
X624061D01*
Y701309D01*
X621521Y698770D01*
X616443D01*
X613904Y701309D01*
Y708927D01*
Y703848D02*
X608825Y698770D01*
X606286Y693692D02*
Y683535D01*
X624061Y678456D02*
Y673378D01*
Y675917D01*
X608825D01*
Y678456D01*
Y673378D01*
X621521Y655604D02*
X624061Y658143D01*
Y663221D01*
X621521Y665761D01*
X618982D01*
X616443Y663221D01*
Y658143D01*
X613904Y655604D01*
X611365D01*
X608825Y658143D01*
Y663221D01*
X611365Y665761D01*
X646921Y698770D02*
Y708927D01*
X639304D01*
X641843Y703848D01*
Y701309D01*
X639304Y698770D01*
X634225D01*
X631686Y701309D01*
Y706387D01*
X634225Y708927D01*
X646921Y693692D02*
X636765D01*
X631686Y688613D01*
X636765Y683535D01*
X646921D01*
X774700Y817875D02*
Y805179D01*
X777239Y802640D01*
X782318D01*
X784857Y805179D01*
Y817875D01*
X800092Y815336D02*
X797553Y817875D01*
X792474D01*
X789935Y815336D01*
Y812797D01*
X792474Y810257D01*
X797553D01*
X800092Y807718D01*
Y805179D01*
X797553Y802640D01*
X792474D01*
X789935Y805179D01*
X805170Y817875D02*
Y802640D01*
X812788D01*
X815327Y805179D01*
Y807718D01*
X812788Y810257D01*
X805170D01*
X812788D01*
X815327Y812797D01*
Y815336D01*
X812788Y817875D01*
X805170D01*
X835640Y810257D02*
X845797D01*
X850875Y802640D02*
X858493Y810257D01*
X850875Y817875D01*
X623665Y1241553D02*
X608430D01*
Y1231396D01*
X605890Y1226318D02*
Y1216161D01*
X623665Y1211083D02*
Y1206004D01*
Y1208543D01*
X608430D01*
Y1211083D01*
Y1206004D01*
X621125Y1188230D02*
X623665Y1190769D01*
Y1195848D01*
X621125Y1198387D01*
X618586D01*
X616047Y1195848D01*
Y1190769D01*
X613508Y1188230D01*
X610969D01*
X608430Y1190769D01*
Y1195848D01*
X610969Y1198387D01*
X555486Y1122947D02*
X570721D01*
Y1115329D01*
X568182Y1112790D01*
X563104D01*
X560565Y1115329D01*
Y1122947D01*
Y1117868D02*
X555486Y1112790D01*
Y1107712D02*
X570721D01*
Y1100094D01*
X568182Y1097555D01*
X563104D01*
X560565Y1100094D01*
Y1107712D01*
X570721Y1092477D02*
X555486D01*
X560565Y1087398D01*
X555486Y1082320D01*
X570721D01*
X555486Y1077241D02*
X570721D01*
X565643Y1072163D01*
X570721Y1067085D01*
X555486D01*
X583425Y1122947D02*
X598661D01*
Y1115329D01*
X596121Y1112790D01*
X591043D01*
X588504Y1115329D01*
Y1122947D01*
Y1117868D02*
X583425Y1112790D01*
X580886Y1107712D02*
Y1097555D01*
X598661Y1082320D02*
Y1092477D01*
X583425D01*
Y1082320D01*
X591043Y1092477D02*
Y1087398D01*
X583425Y1077241D02*
X598661D01*
X583425Y1067085D01*
X598661D01*
X608825Y1122947D02*
X624061D01*
Y1115329D01*
X621521Y1112790D01*
X616443D01*
X613904Y1115329D01*
Y1122947D01*
Y1117868D02*
X608825Y1112790D01*
X606286Y1107712D02*
Y1097555D01*
X624061Y1092477D02*
Y1087398D01*
Y1089937D01*
X608825D01*
Y1092477D01*
Y1087398D01*
X621521Y1069624D02*
X624061Y1072163D01*
Y1077241D01*
X621521Y1079781D01*
X618982D01*
X616443Y1077241D01*
Y1072163D01*
X613904Y1069624D01*
X611365D01*
X608825Y1072163D01*
Y1077241D01*
X611365Y1079781D01*
X646921Y1112790D02*
Y1122947D01*
X639304D01*
X641843Y1117868D01*
Y1115329D01*
X639304Y1112790D01*
X634225D01*
X631686Y1115329D01*
Y1120407D01*
X634225Y1122947D01*
X646921Y1107712D02*
X636765D01*
X631686Y1102633D01*
X636765Y1097555D01*
X646921D01*
X623564Y1023625D02*
X608329D01*
Y1013468D01*
X605790Y1008390D02*
Y998233D01*
X623564Y993155D02*
Y988076D01*
Y990616D01*
X608329D01*
Y993155D01*
Y988076D01*
X621025Y970302D02*
X623564Y972841D01*
Y977920D01*
X621025Y980459D01*
X618486D01*
X615947Y977920D01*
Y972841D01*
X613408Y970302D01*
X610868D01*
X608329Y972841D01*
Y977920D01*
X610868Y980459D01*
X599535Y1026923D02*
X584300D01*
Y1016766D01*
X581760Y1011688D02*
Y1001531D01*
X599535Y986296D02*
Y996453D01*
X584300D01*
Y986296D01*
X591917Y996453D02*
Y991374D01*
X584300Y981218D02*
X599535D01*
X584300Y971061D01*
X599535D01*
X571595Y1026923D02*
X556360D01*
Y1016766D01*
Y1011688D02*
X571595D01*
Y1004070D01*
X569056Y1001531D01*
X563978D01*
X561439Y1004070D01*
Y1011688D01*
X571595Y996453D02*
X556360D01*
X561439Y991374D01*
X556360Y986296D01*
X571595D01*
X556360Y981218D02*
X571595D01*
X566517Y976139D01*
X571595Y971061D01*
X556360D01*
X556756Y908317D02*
X571991D01*
Y900699D01*
X569452Y898160D01*
X564374D01*
X561835Y900699D01*
Y908317D01*
Y903238D02*
X556756Y898160D01*
Y893082D02*
X571991D01*
Y885464D01*
X569452Y882925D01*
X564374D01*
X561835Y885464D01*
Y893082D01*
X571991Y877847D02*
X556756D01*
X561835Y872768D01*
X556756Y867690D01*
X571991D01*
X556756Y862611D02*
X571991D01*
X566913Y857533D01*
X571991Y852455D01*
X556756D01*
X584695Y908317D02*
X599930D01*
Y900699D01*
X597391Y898160D01*
X592313D01*
X589774Y900699D01*
Y908317D01*
Y903238D02*
X584695Y898160D01*
X582156Y893082D02*
Y882925D01*
X599930Y867690D02*
Y877847D01*
X584695D01*
Y867690D01*
X592313Y877847D02*
Y872768D01*
X584695Y862611D02*
X599930D01*
X584695Y852455D01*
X599930D01*
X610095Y908317D02*
X625331D01*
Y900699D01*
X622791Y898160D01*
X617713D01*
X615174Y900699D01*
Y908317D01*
Y903238D02*
X610095Y898160D01*
X607556Y893082D02*
Y882925D01*
X625331Y877847D02*
Y872768D01*
Y875307D01*
X610095D01*
Y877847D01*
Y872768D01*
X622791Y854994D02*
X625331Y857533D01*
Y862611D01*
X622791Y865151D01*
X620252D01*
X617713Y862611D01*
Y857533D01*
X615174Y854994D01*
X612635D01*
X610095Y857533D01*
Y862611D01*
X612635Y865151D01*
X648191Y898160D02*
Y908317D01*
X640574D01*
X643113Y903238D01*
Y900699D01*
X640574Y898160D01*
X635495D01*
X632956Y900699D01*
Y905778D01*
X635495Y908317D01*
X648191Y893082D02*
X638035D01*
X632956Y888003D01*
X638035Y882925D01*
X648191D01*
X671834Y675637D02*
X669295Y673098D01*
Y668019D01*
X671834Y665480D01*
X681991D01*
X684530Y668019D01*
Y673098D01*
X681991Y675637D01*
X676913D01*
Y670558D01*
X684530Y680715D02*
X669295D01*
X684530Y690872D01*
X669295D01*
Y695950D02*
X684530D01*
Y703568D01*
X681991Y706107D01*
X671834D01*
X669295Y703568D01*
Y695950D01*
X817875Y688343D02*
Y698500D01*
X810257D01*
X812797Y693422D01*
Y690882D01*
X810257Y688343D01*
X805179D01*
X802640Y690882D01*
Y695961D01*
X805179Y698500D01*
X817875Y683265D02*
X807718D01*
X802640Y678187D01*
X807718Y673108D01*
X817875D01*
X1087618Y883132D02*
X1077461D01*
Y875515D01*
X1082539D01*
X1077461D01*
Y867897D01*
X1102853Y880593D02*
X1100313Y883132D01*
X1095235D01*
X1092696Y880593D01*
Y878054D01*
X1095235Y875515D01*
X1100313D01*
X1102853Y872976D01*
Y870436D01*
X1100313Y867897D01*
X1095235D01*
X1092696Y870436D01*
X1107931Y883132D02*
Y880593D01*
X1113009Y875515D01*
X1118088Y880593D01*
Y883132D01*
X1113009Y875515D02*
Y867897D01*
X1123166D02*
Y883132D01*
X1133323Y867897D01*
Y883132D01*
X1148558Y880593D02*
X1146019Y883132D01*
X1140940D01*
X1138401Y880593D01*
Y870436D01*
X1140940Y867897D01*
X1146019D01*
X1148558Y870436D01*
X1077461Y1108364D02*
X1080000Y1110903D01*
X1085078D01*
X1087618Y1108364D01*
Y1105825D01*
X1085078Y1103286D01*
X1082539D01*
X1085078D01*
X1087618Y1100747D01*
Y1098207D01*
X1085078Y1095668D01*
X1080000D01*
X1077461Y1098207D01*
X1092696Y1095668D02*
Y1098207D01*
X1095235D01*
Y1095668D01*
X1092696D01*
X1105392Y1108364D02*
X1107931Y1110903D01*
X1113009D01*
X1115549Y1108364D01*
Y1105825D01*
X1113009Y1103286D01*
X1110470D01*
X1113009D01*
X1115549Y1100747D01*
Y1098207D01*
X1113009Y1095668D01*
X1107931D01*
X1105392Y1098207D01*
X1120627Y1110903D02*
Y1100747D01*
X1125705Y1095668D01*
X1130784Y1100747D01*
Y1110903D01*
X1087618Y1083223D02*
X1085078Y1085763D01*
X1080000D01*
X1077461Y1083223D01*
Y1073067D01*
X1080000Y1070527D01*
X1085078D01*
X1087618Y1073067D01*
Y1078145D01*
X1082539D01*
X1092696Y1070527D02*
Y1085763D01*
X1102853Y1070527D01*
Y1085763D01*
X1107931D02*
Y1070527D01*
X1115549D01*
X1118088Y1073067D01*
Y1083223D01*
X1115549Y1085763D01*
X1107931D01*
X1087618Y1057823D02*
X1085078Y1060363D01*
X1080000D01*
X1077461Y1057823D01*
Y1055284D01*
X1080000Y1052745D01*
X1085078D01*
X1087618Y1050206D01*
Y1047667D01*
X1085078Y1045127D01*
X1080000D01*
X1077461Y1047667D01*
X1102853Y1057823D02*
X1100313Y1060363D01*
X1095235D01*
X1092696Y1057823D01*
Y1047667D01*
X1095235Y1045127D01*
X1100313D01*
X1102853Y1047667D01*
X1107931Y1060363D02*
Y1045127D01*
X1118088D01*
X1087618Y1032423D02*
X1085078Y1034963D01*
X1080000D01*
X1077461Y1032423D01*
Y1029884D01*
X1080000Y1027345D01*
X1085078D01*
X1087618Y1024806D01*
Y1022267D01*
X1085078Y1019727D01*
X1080000D01*
X1077461Y1022267D01*
X1092696Y1034963D02*
Y1019727D01*
X1100313D01*
X1102853Y1022267D01*
Y1032423D01*
X1100313Y1034963D01*
X1092696D01*
X1107931Y1019727D02*
Y1029884D01*
X1113009Y1034963D01*
X1118088Y1029884D01*
Y1019727D01*
Y1027345D01*
X1107931D01*
X1087618Y1009563D02*
X1077461D01*
Y994327D01*
X1087618D01*
X1077461Y1001945D02*
X1082539D01*
X1092696Y1009563D02*
Y994327D01*
X1100313D01*
X1102853Y996867D01*
Y1007023D01*
X1100313Y1009563D01*
X1092696D01*
X1107931Y994327D02*
Y1004484D01*
X1113009Y1009563D01*
X1118088Y1004484D01*
Y994327D01*
Y1001945D01*
X1107931D01*
X1087618Y984163D02*
X1077461D01*
Y968928D01*
X1087618D01*
X1077461Y976545D02*
X1082539D01*
X1102853Y981623D02*
X1100313Y984163D01*
X1095235D01*
X1092696Y981623D01*
Y971467D01*
X1095235Y968928D01*
X1100313D01*
X1102853Y971467D01*
X1107931Y984163D02*
Y968928D01*
X1118088D01*
X1077461Y943528D02*
Y953684D01*
X1082539Y958763D01*
X1087618Y953684D01*
Y943528D01*
Y951145D01*
X1077461D01*
X1092696Y958763D02*
Y943528D01*
X1100313D01*
X1102853Y946067D01*
Y956223D01*
X1100313Y958763D01*
X1092696D01*
X1115549D02*
X1110470D01*
X1107931Y956223D01*
Y946067D01*
X1110470Y943528D01*
X1115549D01*
X1118088Y946067D01*
Y956223D01*
X1115549Y958763D01*
X1077461Y933363D02*
X1082539D01*
X1080000D01*
Y918128D01*
X1077461D01*
X1082539D01*
X1090157D02*
Y933363D01*
X1100313Y918128D01*
Y933363D01*
X1105392D02*
X1115549D01*
X1110470D01*
Y918128D01*
X1077461Y892728D02*
Y907963D01*
X1087618Y892728D01*
Y907963D01*
X1102853Y905423D02*
X1100313Y907963D01*
X1095235D01*
X1092696Y905423D01*
Y895267D01*
X1095235Y892728D01*
X1100313D01*
X1102853Y895267D01*
X1118088Y905423D02*
X1115549Y907963D01*
X1110470D01*
X1107931Y905423D01*
Y902884D01*
X1110470Y900345D01*
X1115549D01*
X1118088Y897806D01*
Y895267D01*
X1115549Y892728D01*
X1110470D01*
X1107931Y895267D01*
X1029970Y1148329D02*
X1035048D01*
X1032509D01*
Y1133094D01*
X1029970D01*
X1035048D01*
X1042666D02*
Y1148329D01*
X1047744Y1143251D01*
X1052823Y1148329D01*
Y1133094D01*
X1057901Y1148329D02*
Y1135633D01*
X1060440Y1133094D01*
X1065518D01*
X1068058Y1135633D01*
Y1148329D01*
X852195Y792477D02*
X842038D01*
Y777243D01*
X852195D01*
X842038Y784860D02*
X847117D01*
X867430Y789938D02*
X864891Y792477D01*
X859813D01*
X857273Y789938D01*
Y787399D01*
X859813Y784860D01*
X864891D01*
X867430Y782321D01*
Y779782D01*
X864891Y777243D01*
X859813D01*
X857273Y779782D01*
X872508Y777243D02*
Y792477D01*
X880126D01*
X882665Y789938D01*
Y784860D01*
X880126Y782321D01*
X872508D01*
X887744Y789938D02*
X890283Y792477D01*
X895361D01*
X897900Y789938D01*
Y787399D01*
X895361Y784860D01*
X892822D01*
X895361D01*
X897900Y782321D01*
Y779782D01*
X895361Y777243D01*
X890283D01*
X887744Y779782D01*
X913135Y777243D02*
X902979D01*
X913135Y787399D01*
Y789938D01*
X910596Y792477D01*
X905518D01*
X902979Y789938D01*
X933449Y792477D02*
Y777243D01*
X941066D01*
X943605Y779782D01*
Y789938D01*
X941066Y792477D01*
X933449D01*
X958841D02*
X948684D01*
Y777243D01*
X958841D01*
X948684Y784860D02*
X953762D01*
X963919Y792477D02*
Y782321D01*
X968997Y777243D01*
X974076Y782321D01*
Y792477D01*
X979154D02*
Y777243D01*
Y782321D01*
X989311Y792477D01*
X981693Y784860D01*
X989311Y777243D01*
X994389Y792477D02*
X999467D01*
X996928D01*
Y777243D01*
X994389D01*
X999467D01*
X1007085Y792477D02*
X1017242D01*
X1012163D01*
Y777243D01*
X668024Y1230632D02*
Y1245867D01*
X673102Y1240789D01*
X678181Y1245867D01*
Y1230632D01*
X683259Y1243328D02*
X685798Y1245867D01*
X690877D01*
X693416Y1243328D01*
Y1240789D01*
X690877Y1238250D01*
X688337D01*
X690877D01*
X693416Y1235711D01*
Y1233172D01*
X690877Y1230632D01*
X685798D01*
X683259Y1233172D01*
X680724Y772162D02*
Y787398D01*
X685803Y782319D01*
X690881Y787398D01*
Y772162D01*
X706116D02*
X695959D01*
X706116Y782319D01*
Y784858D01*
X703577Y787398D01*
X698498D01*
X695959Y784858D01*
X668023Y947422D02*
Y962657D01*
X673102Y957579D01*
X678180Y962657D01*
Y947422D01*
X683258D02*
X688337D01*
X685798D01*
Y962657D01*
X683258Y960118D01*
X699259Y750311D02*
X694180D01*
X696720D01*
Y737615D01*
X694180Y735076D01*
X691641D01*
X689102Y737615D01*
X704337Y735076D02*
X709415D01*
X706876D01*
Y750311D01*
X704337Y747772D01*
D11*
X795019Y645299D02*
Y726298D01*
X693419Y645299D02*
Y726299D01*
Y645299D02*
X795019D01*
X693420Y726298D02*
X795019D01*
M02*
