G04*
G04 #@! TF.GenerationSoftware,Altium Limited,Altium Designer,25.8.1 (18)*
G04*
G04 Layer_Physical_Order=1*
G04 Layer_Color=255*
%FSLAX44Y44*%
%MOMM*%
G71*
G04*
G04 #@! TF.SameCoordinates,58A737EF-1176-4364-AE35-EAC751F74B1D*
G04*
G04*
G04 #@! TF.FilePolarity,Positive*
G04*
G01*
G75*
%ADD10C,0.2540*%
%ADD17C,0.7620*%
%ADD18C,2.0000*%
%ADD19C,1.8000*%
%ADD20R,1.8000X1.8000*%
%ADD21C,1.2700*%
D10*
X619423Y819487D02*
X624503D01*
X655320Y788670D01*
X590550Y848360D02*
X619423Y819487D01*
X612944Y778044D02*
X640419D01*
X589280Y754380D02*
X612944Y778044D01*
X1000760Y927100D02*
X1054100D01*
X589280Y728980D02*
Y754380D01*
X590550Y928370D02*
Y953770D01*
Y848360D02*
Y928370D01*
X1000760Y1028700D02*
X1054100D01*
X1000760Y1054100D02*
X1054100D01*
X967740Y1148080D02*
X1000760Y1181100D01*
X967740Y1003300D02*
Y1148080D01*
X738922Y774482D02*
X967740Y1003300D01*
X736818Y774482D02*
X738922D01*
X687070Y824230D02*
Y1188502D01*
Y824230D02*
X736818Y774482D01*
X685582Y1189990D02*
X687070Y1188502D01*
X589280Y1168400D02*
X610870Y1189990D01*
X685582D01*
X593090Y1145540D02*
Y1170940D01*
X711200Y1043940D02*
X746760Y1079500D01*
X711200Y866140D02*
Y1043940D01*
X615950Y1047750D02*
X646430Y1078230D01*
X615950Y953770D02*
Y1047750D01*
X643890Y934720D02*
X646270Y932340D01*
D17*
X671830Y805180D02*
Y918210D01*
X726525Y728895D02*
X769620Y685800D01*
X640165Y728895D02*
X726525D01*
X671830Y783590D02*
X726525Y728895D01*
X643890Y1145540D02*
X662940D01*
X671830Y1136650D01*
Y918210D02*
Y1136650D01*
X646270Y932340D02*
X657700D01*
X671830Y918210D01*
Y783590D02*
Y805180D01*
D18*
X589280Y754380D02*
D03*
Y728980D02*
D03*
X614680Y754380D02*
D03*
Y728980D02*
D03*
X640080D02*
D03*
Y754380D02*
D03*
X563880Y728980D02*
D03*
Y754380D02*
D03*
X746760Y1181100D02*
D03*
Y1155700D02*
D03*
Y1130300D02*
D03*
Y1104900D02*
D03*
Y1079500D02*
D03*
Y1054100D02*
D03*
Y1028700D02*
D03*
Y1003300D02*
D03*
Y977900D02*
D03*
Y952500D02*
D03*
Y927100D02*
D03*
Y901700D02*
D03*
Y876300D02*
D03*
Y850900D02*
D03*
Y825500D02*
D03*
X1000760Y1181100D02*
D03*
Y1155700D02*
D03*
Y1130300D02*
D03*
Y1104900D02*
D03*
Y1079500D02*
D03*
Y1054100D02*
D03*
Y1028700D02*
D03*
Y1003300D02*
D03*
Y977900D02*
D03*
Y952500D02*
D03*
Y927100D02*
D03*
Y901700D02*
D03*
Y876300D02*
D03*
Y850900D02*
D03*
Y825500D02*
D03*
X589280Y1168400D02*
D03*
Y1143000D02*
D03*
X614680Y1168400D02*
D03*
Y1143000D02*
D03*
X640080D02*
D03*
Y1168400D02*
D03*
X563880Y1143000D02*
D03*
Y1168400D02*
D03*
X590550Y953770D02*
D03*
Y928370D02*
D03*
X615950Y953770D02*
D03*
Y928370D02*
D03*
X641350D02*
D03*
Y953770D02*
D03*
X565150Y928370D02*
D03*
Y953770D02*
D03*
X1054100Y1104900D02*
D03*
Y952500D02*
D03*
Y901700D02*
D03*
Y927100D02*
D03*
Y1028700D02*
D03*
Y1054100D02*
D03*
Y1079500D02*
D03*
Y1003300D02*
D03*
Y977900D02*
D03*
Y876300D02*
D03*
D19*
X769620Y685800D02*
D03*
D20*
X718820D02*
D03*
D21*
X655320Y788670D02*
D03*
X640419Y778044D02*
D03*
X711200Y866140D02*
D03*
X646430Y1078230D02*
D03*
X671830Y805180D02*
D03*
M02*
