ISO-10303-21;
HEADER;
/* Generated by software containing ST-Developer
 * from STEP Tools, Inc. (www.steptools.com) 
 */

FILE_DESCRIPTION(
/* description */ (''),
/* implementation_level */ '2;1');

FILE_NAME(
/* name */ 'Bearing_sprocket_V2.step',
/* time_stamp */ '2026-08-27T11:18:14-05:00',
/* author */ (''),
/* organization */ (''),
/* preprocessor_version */ 'ST-DEVELOPER v20.1',
/* originating_system */ 'Autodesk Translation Framework v15.8.0.0',
/* authorisation */ '');

FILE_SCHEMA (('AUTOMOTIVE_DESIGN { 1 0 10303 214 3 1 1 }'));
ENDSEC;

DATA;
#10=MECHANICAL_DESIGN_GEOMETRIC_PRESENTATION_REPRESENTATION('',(#13),#2038);
#11=SHAPE_REPRESENTATION_RELATIONSHIP('SRR','None',#2045,#12);
#12=ADVANCED_BREP_SHAPE_REPRESENTATION('',(#14),#2037);
#13=STYLED_ITEM('',(#2054),#14);
#14=MANIFOLD_SOLID_BREP('Body1',#1186);
#15=FACE_BOUND('',#118,.T.);
#16=FACE_BOUND('',#122,.T.);
#17=FACE_BOUND('',#124,.T.);
#18=FACE_BOUND('',#127,.T.);
#19=FACE_BOUND('',#129,.T.);
#20=FACE_BOUND('',#132,.T.);
#21=PLANE('',#1203);
#22=PLANE('',#1210);
#23=PLANE('',#1211);
#24=PLANE('',#1241);
#25=PLANE('',#1242);
#26=PLANE('',#1272);
#27=PLANE('',#1273);
#28=PLANE('',#1275);
#29=PLANE('',#1277);
#30=PLANE('',#1279);
#31=PLANE('',#1281);
#32=PLANE('',#1283);
#33=PLANE('',#1285);
#34=PLANE('',#1287);
#35=PLANE('',#1289);
#36=PLANE('',#1291);
#37=PLANE('',#1293);
#38=PLANE('',#1295);
#39=PLANE('',#1297);
#40=PLANE('',#1299);
#41=PLANE('',#1301);
#42=PLANE('',#1303);
#43=PLANE('',#1305);
#44=PLANE('',#1307);
#45=PLANE('',#1309);
#46=PLANE('',#1311);
#47=PLANE('',#1313);
#48=PLANE('',#1315);
#49=PLANE('',#1317);
#50=PLANE('',#1319);
#51=PLANE('',#1321);
#52=PLANE('',#1323);
#53=FACE_OUTER_BOUND('',#116,.T.);
#54=FACE_OUTER_BOUND('',#117,.T.);
#55=FACE_OUTER_BOUND('',#119,.T.);
#56=FACE_OUTER_BOUND('',#120,.T.);
#57=FACE_OUTER_BOUND('',#121,.T.);
#58=FACE_OUTER_BOUND('',#123,.T.);
#59=FACE_OUTER_BOUND('',#125,.T.);
#60=FACE_OUTER_BOUND('',#126,.T.);
#61=FACE_OUTER_BOUND('',#128,.T.);
#62=FACE_OUTER_BOUND('',#130,.T.);
#63=FACE_OUTER_BOUND('',#131,.T.);
#64=FACE_OUTER_BOUND('',#133,.T.);
#65=FACE_OUTER_BOUND('',#134,.T.);
#66=FACE_OUTER_BOUND('',#135,.T.);
#67=FACE_OUTER_BOUND('',#136,.T.);
#68=FACE_OUTER_BOUND('',#137,.T.);
#69=FACE_OUTER_BOUND('',#138,.T.);
#70=FACE_OUTER_BOUND('',#139,.T.);
#71=FACE_OUTER_BOUND('',#140,.T.);
#72=FACE_OUTER_BOUND('',#141,.T.);
#73=FACE_OUTER_BOUND('',#142,.T.);
#74=FACE_OUTER_BOUND('',#143,.T.);
#75=FACE_OUTER_BOUND('',#144,.T.);
#76=FACE_OUTER_BOUND('',#145,.T.);
#77=FACE_OUTER_BOUND('',#146,.T.);
#78=FACE_OUTER_BOUND('',#147,.T.);
#79=FACE_OUTER_BOUND('',#148,.T.);
#80=FACE_OUTER_BOUND('',#149,.T.);
#81=FACE_OUTER_BOUND('',#150,.T.);
#82=FACE_OUTER_BOUND('',#151,.T.);
#83=FACE_OUTER_BOUND('',#152,.T.);
#84=FACE_OUTER_BOUND('',#153,.T.);
#85=FACE_OUTER_BOUND('',#154,.T.);
#86=FACE_OUTER_BOUND('',#155,.T.);
#87=FACE_OUTER_BOUND('',#156,.T.);
#88=FACE_OUTER_BOUND('',#157,.T.);
#89=FACE_OUTER_BOUND('',#158,.T.);
#90=FACE_OUTER_BOUND('',#159,.T.);
#91=FACE_OUTER_BOUND('',#160,.T.);
#92=FACE_OUTER_BOUND('',#161,.T.);
#93=FACE_OUTER_BOUND('',#162,.T.);
#94=FACE_OUTER_BOUND('',#163,.T.);
#95=FACE_OUTER_BOUND('',#164,.T.);
#96=FACE_OUTER_BOUND('',#165,.T.);
#97=FACE_OUTER_BOUND('',#166,.T.);
#98=FACE_OUTER_BOUND('',#167,.T.);
#99=FACE_OUTER_BOUND('',#168,.T.);
#100=FACE_OUTER_BOUND('',#169,.T.);
#101=FACE_OUTER_BOUND('',#170,.T.);
#102=FACE_OUTER_BOUND('',#171,.T.);
#103=FACE_OUTER_BOUND('',#172,.T.);
#104=FACE_OUTER_BOUND('',#173,.T.);
#105=FACE_OUTER_BOUND('',#174,.T.);
#106=FACE_OUTER_BOUND('',#175,.T.);
#107=FACE_OUTER_BOUND('',#176,.T.);
#108=FACE_OUTER_BOUND('',#177,.T.);
#109=FACE_OUTER_BOUND('',#178,.T.);
#110=FACE_OUTER_BOUND('',#179,.T.);
#111=FACE_OUTER_BOUND('',#180,.T.);
#112=FACE_OUTER_BOUND('',#181,.T.);
#113=FACE_OUTER_BOUND('',#182,.T.);
#114=FACE_OUTER_BOUND('',#183,.T.);
#115=FACE_OUTER_BOUND('',#184,.T.);
#116=EDGE_LOOP('',(#750,#751,#752,#753));
#117=EDGE_LOOP('',(#754));
#118=EDGE_LOOP('',(#755));
#119=EDGE_LOOP('',(#756,#757,#758,#759));
#120=EDGE_LOOP('',(#760,#761,#762,#763));
#121=EDGE_LOOP('',(#764));
#122=EDGE_LOOP('',(#765));
#123=EDGE_LOOP('',(#766));
#124=EDGE_LOOP('',(#767,#768,#769,#770,#771,#772,#773,#774,#775,#776,#777,
#778,#779,#780,#781,#782,#783,#784,#785,#786,#787,#788,#789,#790,#791,#792,
#793,#794,#795,#796,#797,#798,#799,#800,#801,#802,#803,#804,#805,#806,#807,
#808,#809,#810,#811,#812,#813,#814,#815,#816,#817,#818));
#125=EDGE_LOOP('',(#819,#820,#821,#822));
#126=EDGE_LOOP('',(#823));
#127=EDGE_LOOP('',(#824));
#128=EDGE_LOOP('',(#825));
#129=EDGE_LOOP('',(#826,#827,#828,#829,#830,#831,#832,#833,#834,#835,#836,
#837,#838,#839,#840,#841,#842,#843,#844,#845,#846,#847,#848,#849,#850,#851,
#852,#853,#854,#855,#856,#857,#858,#859,#860,#861,#862,#863,#864,#865,#866,
#867,#868,#869,#870,#871,#872,#873,#874,#875,#876,#877));
#130=EDGE_LOOP('',(#878,#879,#880,#881));
#131=EDGE_LOOP('',(#882));
#132=EDGE_LOOP('',(#883));
#133=EDGE_LOOP('',(#884,#885,#886,#887));
#134=EDGE_LOOP('',(#888,#889,#890,#891));
#135=EDGE_LOOP('',(#892,#893,#894,#895));
#136=EDGE_LOOP('',(#896,#897,#898,#899));
#137=EDGE_LOOP('',(#900,#901,#902,#903));
#138=EDGE_LOOP('',(#904,#905,#906,#907));
#139=EDGE_LOOP('',(#908,#909,#910,#911));
#140=EDGE_LOOP('',(#912,#913,#914,#915));
#141=EDGE_LOOP('',(#916,#917,#918,#919));
#142=EDGE_LOOP('',(#920,#921,#922,#923));
#143=EDGE_LOOP('',(#924,#925,#926,#927));
#144=EDGE_LOOP('',(#928,#929,#930,#931));
#145=EDGE_LOOP('',(#932,#933,#934,#935));
#146=EDGE_LOOP('',(#936,#937,#938,#939));
#147=EDGE_LOOP('',(#940,#941,#942,#943));
#148=EDGE_LOOP('',(#944,#945,#946,#947));
#149=EDGE_LOOP('',(#948,#949,#950,#951));
#150=EDGE_LOOP('',(#952,#953,#954,#955));
#151=EDGE_LOOP('',(#956,#957,#958,#959));
#152=EDGE_LOOP('',(#960,#961,#962,#963));
#153=EDGE_LOOP('',(#964,#965,#966,#967));
#154=EDGE_LOOP('',(#968,#969,#970,#971));
#155=EDGE_LOOP('',(#972,#973,#974,#975));
#156=EDGE_LOOP('',(#976,#977,#978,#979));
#157=EDGE_LOOP('',(#980,#981,#982,#983));
#158=EDGE_LOOP('',(#984,#985,#986,#987));
#159=EDGE_LOOP('',(#988,#989,#990,#991));
#160=EDGE_LOOP('',(#992,#993,#994,#995));
#161=EDGE_LOOP('',(#996,#997,#998,#999));
#162=EDGE_LOOP('',(#1000,#1001,#1002,#1003));
#163=EDGE_LOOP('',(#1004,#1005,#1006,#1007));
#164=EDGE_LOOP('',(#1008,#1009,#1010,#1011));
#165=EDGE_LOOP('',(#1012,#1013,#1014,#1015));
#166=EDGE_LOOP('',(#1016,#1017,#1018,#1019));
#167=EDGE_LOOP('',(#1020,#1021,#1022,#1023));
#168=EDGE_LOOP('',(#1024,#1025,#1026,#1027));
#169=EDGE_LOOP('',(#1028,#1029,#1030,#1031));
#170=EDGE_LOOP('',(#1032,#1033,#1034,#1035));
#171=EDGE_LOOP('',(#1036,#1037,#1038,#1039));
#172=EDGE_LOOP('',(#1040,#1041,#1042,#1043));
#173=EDGE_LOOP('',(#1044,#1045,#1046,#1047));
#174=EDGE_LOOP('',(#1048,#1049,#1050,#1051));
#175=EDGE_LOOP('',(#1052,#1053,#1054,#1055));
#176=EDGE_LOOP('',(#1056,#1057,#1058,#1059));
#177=EDGE_LOOP('',(#1060,#1061,#1062,#1063));
#178=EDGE_LOOP('',(#1064,#1065,#1066,#1067));
#179=EDGE_LOOP('',(#1068,#1069,#1070,#1071));
#180=EDGE_LOOP('',(#1072,#1073,#1074,#1075));
#181=EDGE_LOOP('',(#1076,#1077,#1078,#1079));
#182=EDGE_LOOP('',(#1080,#1081,#1082,#1083));
#183=EDGE_LOOP('',(#1084,#1085,#1086,#1087));
#184=EDGE_LOOP('',(#1088,#1089,#1090,#1091));
#185=LINE('',#1691,#294);
#186=LINE('',#1699,#295);
#187=LINE('',#1704,#296);
#188=LINE('',#1712,#297);
#189=LINE('',#1716,#298);
#190=LINE('',#1720,#299);
#191=LINE('',#1724,#300);
#192=LINE('',#1728,#301);
#193=LINE('',#1732,#302);
#194=LINE('',#1736,#303);
#195=LINE('',#1740,#304);
#196=LINE('',#1744,#305);
#197=LINE('',#1748,#306);
#198=LINE('',#1752,#307);
#199=LINE('',#1756,#308);
#200=LINE('',#1760,#309);
#201=LINE('',#1764,#310);
#202=LINE('',#1768,#311);
#203=LINE('',#1772,#312);
#204=LINE('',#1776,#313);
#205=LINE('',#1780,#314);
#206=LINE('',#1784,#315);
#207=LINE('',#1788,#316);
#208=LINE('',#1792,#317);
#209=LINE('',#1796,#318);
#210=LINE('',#1800,#319);
#211=LINE('',#1804,#320);
#212=LINE('',#1808,#321);
#213=LINE('',#1812,#322);
#214=LINE('',#1817,#323);
#215=LINE('',#1824,#324);
#216=LINE('',#1828,#325);
#217=LINE('',#1832,#326);
#218=LINE('',#1836,#327);
#219=LINE('',#1840,#328);
#220=LINE('',#1844,#329);
#221=LINE('',#1848,#330);
#222=LINE('',#1852,#331);
#223=LINE('',#1856,#332);
#224=LINE('',#1860,#333);
#225=LINE('',#1864,#334);
#226=LINE('',#1868,#335);
#227=LINE('',#1872,#336);
#228=LINE('',#1876,#337);
#229=LINE('',#1880,#338);
#230=LINE('',#1884,#339);
#231=LINE('',#1888,#340);
#232=LINE('',#1892,#341);
#233=LINE('',#1896,#342);
#234=LINE('',#1900,#343);
#235=LINE('',#1904,#344);
#236=LINE('',#1908,#345);
#237=LINE('',#1912,#346);
#238=LINE('',#1916,#347);
#239=LINE('',#1920,#348);
#240=LINE('',#1924,#349);
#241=LINE('',#1929,#350);
#242=LINE('',#1932,#351);
#243=LINE('',#1933,#352);
#244=LINE('',#1935,#353);
#245=LINE('',#1937,#354);
#246=LINE('',#1939,#355);
#247=LINE('',#1941,#356);
#248=LINE('',#1943,#357);
#249=LINE('',#1945,#358);
#250=LINE('',#1947,#359);
#251=LINE('',#1949,#360);
#252=LINE('',#1951,#361);
#253=LINE('',#1953,#362);
#254=LINE('',#1955,#363);
#255=LINE('',#1957,#364);
#256=LINE('',#1959,#365);
#257=LINE('',#1961,#366);
#258=LINE('',#1963,#367);
#259=LINE('',#1965,#368);
#260=LINE('',#1967,#369);
#261=LINE('',#1969,#370);
#262=LINE('',#1971,#371);
#263=LINE('',#1973,#372);
#264=LINE('',#1975,#373);
#265=LINE('',#1977,#374);
#266=LINE('',#1979,#375);
#267=LINE('',#1981,#376);
#268=LINE('',#1983,#377);
#269=LINE('',#1985,#378);
#270=LINE('',#1987,#379);
#271=LINE('',#1989,#380);
#272=LINE('',#1991,#381);
#273=LINE('',#1993,#382);
#274=LINE('',#1995,#383);
#275=LINE('',#1997,#384);
#276=LINE('',#1999,#385);
#277=LINE('',#2001,#386);
#278=LINE('',#2003,#387);
#279=LINE('',#2005,#388);
#280=LINE('',#2007,#389);
#281=LINE('',#2009,#390);
#282=LINE('',#2011,#391);
#283=LINE('',#2013,#392);
#284=LINE('',#2015,#393);
#285=LINE('',#2017,#394);
#286=LINE('',#2019,#395);
#287=LINE('',#2021,#396);
#288=LINE('',#2023,#397);
#289=LINE('',#2025,#398);
#290=LINE('',#2027,#399);
#291=LINE('',#2029,#400);
#292=LINE('',#2031,#401);
#293=LINE('',#2033,#402);
#294=VECTOR('',#1331,11.25);
#295=VECTOR('',#1342,4.2);
#296=VECTOR('',#1347,11.25);
#297=VECTOR('',#1356,10.);
#298=VECTOR('',#1359,10.);
#299=VECTOR('',#1362,10.);
#300=VECTOR('',#1365,10.);
#301=VECTOR('',#1368,10.);
#302=VECTOR('',#1371,10.);
#303=VECTOR('',#1374,10.);
#304=VECTOR('',#1377,10.);
#305=VECTOR('',#1380,10.);
#306=VECTOR('',#1383,10.);
#307=VECTOR('',#1386,10.);
#308=VECTOR('',#1389,10.);
#309=VECTOR('',#1392,10.);
#310=VECTOR('',#1395,10.);
#311=VECTOR('',#1398,10.);
#312=VECTOR('',#1401,10.);
#313=VECTOR('',#1404,10.);
#314=VECTOR('',#1407,10.);
#315=VECTOR('',#1410,10.);
#316=VECTOR('',#1413,10.);
#317=VECTOR('',#1416,10.);
#318=VECTOR('',#1419,10.);
#319=VECTOR('',#1422,10.);
#320=VECTOR('',#1425,10.);
#321=VECTOR('',#1428,10.);
#322=VECTOR('',#1431,10.);
#323=VECTOR('',#1438,47.5);
#324=VECTOR('',#1445,10.);
#325=VECTOR('',#1448,10.);
#326=VECTOR('',#1451,10.);
#327=VECTOR('',#1454,10.);
#328=VECTOR('',#1457,10.);
#329=VECTOR('',#1460,10.);
#330=VECTOR('',#1463,10.);
#331=VECTOR('',#1466,10.);
#332=VECTOR('',#1469,10.);
#333=VECTOR('',#1472,10.);
#334=VECTOR('',#1475,10.);
#335=VECTOR('',#1478,10.);
#336=VECTOR('',#1481,10.);
#337=VECTOR('',#1484,10.);
#338=VECTOR('',#1487,10.);
#339=VECTOR('',#1490,10.);
#340=VECTOR('',#1493,10.);
#341=VECTOR('',#1496,10.);
#342=VECTOR('',#1499,10.);
#343=VECTOR('',#1502,10.);
#344=VECTOR('',#1505,10.);
#345=VECTOR('',#1508,10.);
#346=VECTOR('',#1511,10.);
#347=VECTOR('',#1514,10.);
#348=VECTOR('',#1517,10.);
#349=VECTOR('',#1520,10.);
#350=VECTOR('',#1527,47.5);
#351=VECTOR('',#1532,10.);
#352=VECTOR('',#1533,10.);
#353=VECTOR('',#1536,10.);
#354=VECTOR('',#1539,10.);
#355=VECTOR('',#1542,10.);
#356=VECTOR('',#1545,10.);
#357=VECTOR('',#1548,10.);
#358=VECTOR('',#1551,10.);
#359=VECTOR('',#1554,10.);
#360=VECTOR('',#1557,10.);
#361=VECTOR('',#1560,10.);
#362=VECTOR('',#1563,10.);
#363=VECTOR('',#1566,10.);
#364=VECTOR('',#1569,10.);
#365=VECTOR('',#1572,10.);
#366=VECTOR('',#1575,10.);
#367=VECTOR('',#1578,10.);
#368=VECTOR('',#1581,10.);
#369=VECTOR('',#1584,10.);
#370=VECTOR('',#1587,10.);
#371=VECTOR('',#1590,10.);
#372=VECTOR('',#1593,10.);
#373=VECTOR('',#1596,10.);
#374=VECTOR('',#1599,10.);
#375=VECTOR('',#1602,10.);
#376=VECTOR('',#1605,10.);
#377=VECTOR('',#1608,10.);
#378=VECTOR('',#1611,10.);
#379=VECTOR('',#1614,10.);
#380=VECTOR('',#1617,10.);
#381=VECTOR('',#1620,10.);
#382=VECTOR('',#1623,10.);
#383=VECTOR('',#1626,10.);
#384=VECTOR('',#1629,10.);
#385=VECTOR('',#1632,10.);
#386=VECTOR('',#1635,10.);
#387=VECTOR('',#1638,10.);
#388=VECTOR('',#1641,10.);
#389=VECTOR('',#1644,10.);
#390=VECTOR('',#1647,10.);
#391=VECTOR('',#1650,10.);
#392=VECTOR('',#1653,10.);
#393=VECTOR('',#1656,10.);
#394=VECTOR('',#1659,10.);
#395=VECTOR('',#1662,10.);
#396=VECTOR('',#1665,10.);
#397=VECTOR('',#1668,10.);
#398=VECTOR('',#1671,10.);
#399=VECTOR('',#1674,10.);
#400=VECTOR('',#1677,10.);
#401=VECTOR('',#1680,10.);
#402=VECTOR('',#1683,10.);
#403=CIRCLE('',#1201,11.25);
#404=CIRCLE('',#1202,11.25);
#405=CIRCLE('',#1204,4.2);
#406=CIRCLE('',#1206,4.2);
#407=CIRCLE('',#1208,11.25);
#408=CIRCLE('',#1209,11.25);
#409=CIRCLE('',#1212,47.5);
#410=CIRCLE('',#1213,33.);
#411=CIRCLE('',#1214,42.5);
#412=CIRCLE('',#1215,33.);
#413=CIRCLE('',#1216,42.5);
#414=CIRCLE('',#1217,33.);
#415=CIRCLE('',#1218,42.5);
#416=CIRCLE('',#1219,33.);
#417=CIRCLE('',#1220,42.5);
#418=CIRCLE('',#1221,33.);
#419=CIRCLE('',#1222,42.5);
#420=CIRCLE('',#1223,33.);
#421=CIRCLE('',#1224,42.5);
#422=CIRCLE('',#1225,33.);
#423=CIRCLE('',#1226,42.5);
#424=CIRCLE('',#1227,33.);
#425=CIRCLE('',#1228,42.5);
#426=CIRCLE('',#1229,33.);
#427=CIRCLE('',#1230,42.5);
#428=CIRCLE('',#1231,33.);
#429=CIRCLE('',#1232,42.5);
#430=CIRCLE('',#1233,33.);
#431=CIRCLE('',#1234,42.5);
#432=CIRCLE('',#1235,33.);
#433=CIRCLE('',#1236,42.5);
#434=CIRCLE('',#1237,33.);
#435=CIRCLE('',#1238,42.5);
#436=CIRCLE('',#1240,47.5);
#437=CIRCLE('',#1243,47.5);
#438=CIRCLE('',#1244,42.5);
#439=CIRCLE('',#1245,33.);
#440=CIRCLE('',#1246,42.5);
#441=CIRCLE('',#1247,33.);
#442=CIRCLE('',#1248,42.5);
#443=CIRCLE('',#1249,33.);
#444=CIRCLE('',#1250,42.5);
#445=CIRCLE('',#1251,33.);
#446=CIRCLE('',#1252,42.5);
#447=CIRCLE('',#1253,33.);
#448=CIRCLE('',#1254,42.5);
#449=CIRCLE('',#1255,33.);
#450=CIRCLE('',#1256,42.5);
#451=CIRCLE('',#1257,33.);
#452=CIRCLE('',#1258,42.5);
#453=CIRCLE('',#1259,33.);
#454=CIRCLE('',#1260,42.5);
#455=CIRCLE('',#1261,33.);
#456=CIRCLE('',#1262,42.5);
#457=CIRCLE('',#1263,33.);
#458=CIRCLE('',#1264,42.5);
#459=CIRCLE('',#1265,33.);
#460=CIRCLE('',#1266,42.5);
#461=CIRCLE('',#1267,33.);
#462=CIRCLE('',#1268,42.5);
#463=CIRCLE('',#1269,33.);
#464=CIRCLE('',#1271,47.5);
#465=VERTEX_POINT('',#1688);
#466=VERTEX_POINT('',#1690);
#467=VERTEX_POINT('',#1694);
#468=VERTEX_POINT('',#1697);
#469=VERTEX_POINT('',#1701);
#470=VERTEX_POINT('',#1703);
#471=VERTEX_POINT('',#1708);
#472=VERTEX_POINT('',#1710);
#473=VERTEX_POINT('',#1711);
#474=VERTEX_POINT('',#1713);
#475=VERTEX_POINT('',#1715);
#476=VERTEX_POINT('',#1717);
#477=VERTEX_POINT('',#1719);
#478=VERTEX_POINT('',#1721);
#479=VERTEX_POINT('',#1723);
#480=VERTEX_POINT('',#1725);
#481=VERTEX_POINT('',#1727);
#482=VERTEX_POINT('',#1729);
#483=VERTEX_POINT('',#1731);
#484=VERTEX_POINT('',#1733);
#485=VERTEX_POINT('',#1735);
#486=VERTEX_POINT('',#1737);
#487=VERTEX_POINT('',#1739);
#488=VERTEX_POINT('',#1741);
#489=VERTEX_POINT('',#1743);
#490=VERTEX_POINT('',#1745);
#491=VERTEX_POINT('',#1747);
#492=VERTEX_POINT('',#1749);
#493=VERTEX_POINT('',#1751);
#494=VERTEX_POINT('',#1753);
#495=VERTEX_POINT('',#1755);
#496=VERTEX_POINT('',#1757);
#497=VERTEX_POINT('',#1759);
#498=VERTEX_POINT('',#1761);
#499=VERTEX_POINT('',#1763);
#500=VERTEX_POINT('',#1765);
#501=VERTEX_POINT('',#1767);
#502=VERTEX_POINT('',#1769);
#503=VERTEX_POINT('',#1771);
#504=VERTEX_POINT('',#1773);
#505=VERTEX_POINT('',#1775);
#506=VERTEX_POINT('',#1777);
#507=VERTEX_POINT('',#1779);
#508=VERTEX_POINT('',#1781);
#509=VERTEX_POINT('',#1783);
#510=VERTEX_POINT('',#1785);
#511=VERTEX_POINT('',#1787);
#512=VERTEX_POINT('',#1789);
#513=VERTEX_POINT('',#1791);
#514=VERTEX_POINT('',#1793);
#515=VERTEX_POINT('',#1795);
#516=VERTEX_POINT('',#1797);
#517=VERTEX_POINT('',#1799);
#518=VERTEX_POINT('',#1801);
#519=VERTEX_POINT('',#1803);
#520=VERTEX_POINT('',#1805);
#521=VERTEX_POINT('',#1807);
#522=VERTEX_POINT('',#1809);
#523=VERTEX_POINT('',#1811);
#524=VERTEX_POINT('',#1815);
#525=VERTEX_POINT('',#1820);
#526=VERTEX_POINT('',#1822);
#527=VERTEX_POINT('',#1823);
#528=VERTEX_POINT('',#1825);
#529=VERTEX_POINT('',#1827);
#530=VERTEX_POINT('',#1829);
#531=VERTEX_POINT('',#1831);
#532=VERTEX_POINT('',#1833);
#533=VERTEX_POINT('',#1835);
#534=VERTEX_POINT('',#1837);
#535=VERTEX_POINT('',#1839);
#536=VERTEX_POINT('',#1841);
#537=VERTEX_POINT('',#1843);
#538=VERTEX_POINT('',#1845);
#539=VERTEX_POINT('',#1847);
#540=VERTEX_POINT('',#1849);
#541=VERTEX_POINT('',#1851);
#542=VERTEX_POINT('',#1853);
#543=VERTEX_POINT('',#1855);
#544=VERTEX_POINT('',#1857);
#545=VERTEX_POINT('',#1859);
#546=VERTEX_POINT('',#1861);
#547=VERTEX_POINT('',#1863);
#548=VERTEX_POINT('',#1865);
#549=VERTEX_POINT('',#1867);
#550=VERTEX_POINT('',#1869);
#551=VERTEX_POINT('',#1871);
#552=VERTEX_POINT('',#1873);
#553=VERTEX_POINT('',#1875);
#554=VERTEX_POINT('',#1877);
#555=VERTEX_POINT('',#1879);
#556=VERTEX_POINT('',#1881);
#557=VERTEX_POINT('',#1883);
#558=VERTEX_POINT('',#1885);
#559=VERTEX_POINT('',#1887);
#560=VERTEX_POINT('',#1889);
#561=VERTEX_POINT('',#1891);
#562=VERTEX_POINT('',#1893);
#563=VERTEX_POINT('',#1895);
#564=VERTEX_POINT('',#1897);
#565=VERTEX_POINT('',#1899);
#566=VERTEX_POINT('',#1901);
#567=VERTEX_POINT('',#1903);
#568=VERTEX_POINT('',#1905);
#569=VERTEX_POINT('',#1907);
#570=VERTEX_POINT('',#1909);
#571=VERTEX_POINT('',#1911);
#572=VERTEX_POINT('',#1913);
#573=VERTEX_POINT('',#1915);
#574=VERTEX_POINT('',#1917);
#575=VERTEX_POINT('',#1919);
#576=VERTEX_POINT('',#1921);
#577=VERTEX_POINT('',#1923);
#578=VERTEX_POINT('',#1927);
#579=EDGE_CURVE('',#465,#465,#403,.T.);
#580=EDGE_CURVE('',#465,#466,#185,.T.);
#581=EDGE_CURVE('',#466,#466,#404,.T.);
#582=EDGE_CURVE('',#467,#467,#405,.T.);
#583=EDGE_CURVE('',#468,#468,#406,.T.);
#584=EDGE_CURVE('',#468,#467,#186,.T.);
#585=EDGE_CURVE('',#469,#469,#407,.T.);
#586=EDGE_CURVE('',#469,#470,#187,.T.);
#587=EDGE_CURVE('',#470,#470,#408,.T.);
#588=EDGE_CURVE('',#471,#471,#409,.T.);
#589=EDGE_CURVE('',#472,#473,#188,.T.);
#590=EDGE_CURVE('',#473,#474,#410,.T.);
#591=EDGE_CURVE('',#474,#475,#189,.T.);
#592=EDGE_CURVE('',#475,#476,#411,.T.);
#593=EDGE_CURVE('',#476,#477,#190,.T.);
#594=EDGE_CURVE('',#477,#478,#412,.T.);
#595=EDGE_CURVE('',#478,#479,#191,.T.);
#596=EDGE_CURVE('',#479,#480,#413,.T.);
#597=EDGE_CURVE('',#480,#481,#192,.T.);
#598=EDGE_CURVE('',#481,#482,#414,.T.);
#599=EDGE_CURVE('',#482,#483,#193,.T.);
#600=EDGE_CURVE('',#483,#484,#415,.T.);
#601=EDGE_CURVE('',#484,#485,#194,.T.);
#602=EDGE_CURVE('',#485,#486,#416,.T.);
#603=EDGE_CURVE('',#486,#487,#195,.T.);
#604=EDGE_CURVE('',#487,#488,#417,.T.);
#605=EDGE_CURVE('',#488,#489,#196,.T.);
#606=EDGE_CURVE('',#489,#490,#418,.T.);
#607=EDGE_CURVE('',#490,#491,#197,.T.);
#608=EDGE_CURVE('',#491,#492,#419,.T.);
#609=EDGE_CURVE('',#492,#493,#198,.T.);
#610=EDGE_CURVE('',#493,#494,#420,.T.);
#611=EDGE_CURVE('',#494,#495,#199,.T.);
#612=EDGE_CURVE('',#495,#496,#421,.T.);
#613=EDGE_CURVE('',#496,#497,#200,.T.);
#614=EDGE_CURVE('',#497,#498,#422,.T.);
#615=EDGE_CURVE('',#498,#499,#201,.T.);
#616=EDGE_CURVE('',#499,#500,#423,.T.);
#617=EDGE_CURVE('',#500,#501,#202,.T.);
#618=EDGE_CURVE('',#501,#502,#424,.T.);
#619=EDGE_CURVE('',#502,#503,#203,.T.);
#620=EDGE_CURVE('',#503,#504,#425,.T.);
#621=EDGE_CURVE('',#504,#505,#204,.T.);
#622=EDGE_CURVE('',#505,#506,#426,.T.);
#623=EDGE_CURVE('',#506,#507,#205,.T.);
#624=EDGE_CURVE('',#507,#508,#427,.T.);
#625=EDGE_CURVE('',#508,#509,#206,.T.);
#626=EDGE_CURVE('',#509,#510,#428,.T.);
#627=EDGE_CURVE('',#510,#511,#207,.T.);
#628=EDGE_CURVE('',#511,#512,#429,.T.);
#629=EDGE_CURVE('',#512,#513,#208,.T.);
#630=EDGE_CURVE('',#513,#514,#430,.T.);
#631=EDGE_CURVE('',#514,#515,#209,.T.);
#632=EDGE_CURVE('',#515,#516,#431,.T.);
#633=EDGE_CURVE('',#516,#517,#210,.T.);
#634=EDGE_CURVE('',#517,#518,#432,.T.);
#635=EDGE_CURVE('',#518,#519,#211,.T.);
#636=EDGE_CURVE('',#519,#520,#433,.T.);
#637=EDGE_CURVE('',#520,#521,#212,.T.);
#638=EDGE_CURVE('',#521,#522,#434,.T.);
#639=EDGE_CURVE('',#522,#523,#213,.T.);
#640=EDGE_CURVE('',#523,#472,#435,.T.);
#641=EDGE_CURVE('',#524,#524,#436,.T.);
#642=EDGE_CURVE('',#524,#471,#214,.T.);
#643=EDGE_CURVE('',#525,#525,#437,.T.);
#644=EDGE_CURVE('',#526,#527,#215,.T.);
#645=EDGE_CURVE('',#527,#528,#438,.T.);
#646=EDGE_CURVE('',#529,#528,#216,.T.);
#647=EDGE_CURVE('',#529,#530,#439,.T.);
#648=EDGE_CURVE('',#530,#531,#217,.T.);
#649=EDGE_CURVE('',#531,#532,#440,.T.);
#650=EDGE_CURVE('',#533,#532,#218,.T.);
#651=EDGE_CURVE('',#533,#534,#441,.T.);
#652=EDGE_CURVE('',#534,#535,#219,.T.);
#653=EDGE_CURVE('',#535,#536,#442,.T.);
#654=EDGE_CURVE('',#537,#536,#220,.T.);
#655=EDGE_CURVE('',#537,#538,#443,.T.);
#656=EDGE_CURVE('',#538,#539,#221,.T.);
#657=EDGE_CURVE('',#539,#540,#444,.T.);
#658=EDGE_CURVE('',#541,#540,#222,.T.);
#659=EDGE_CURVE('',#541,#542,#445,.T.);
#660=EDGE_CURVE('',#542,#543,#223,.T.);
#661=EDGE_CURVE('',#543,#544,#446,.T.);
#662=EDGE_CURVE('',#545,#544,#224,.T.);
#663=EDGE_CURVE('',#545,#546,#447,.T.);
#664=EDGE_CURVE('',#546,#547,#225,.T.);
#665=EDGE_CURVE('',#547,#548,#448,.T.);
#666=EDGE_CURVE('',#549,#548,#226,.T.);
#667=EDGE_CURVE('',#549,#550,#449,.T.);
#668=EDGE_CURVE('',#550,#551,#227,.T.);
#669=EDGE_CURVE('',#551,#552,#450,.T.);
#670=EDGE_CURVE('',#553,#552,#228,.T.);
#671=EDGE_CURVE('',#553,#554,#451,.T.);
#672=EDGE_CURVE('',#554,#555,#229,.T.);
#673=EDGE_CURVE('',#555,#556,#452,.T.);
#674=EDGE_CURVE('',#557,#556,#230,.T.);
#675=EDGE_CURVE('',#557,#558,#453,.T.);
#676=EDGE_CURVE('',#558,#559,#231,.T.);
#677=EDGE_CURVE('',#559,#560,#454,.T.);
#678=EDGE_CURVE('',#561,#560,#232,.T.);
#679=EDGE_CURVE('',#561,#562,#455,.T.);
#680=EDGE_CURVE('',#562,#563,#233,.T.);
#681=EDGE_CURVE('',#563,#564,#456,.T.);
#682=EDGE_CURVE('',#565,#564,#234,.T.);
#683=EDGE_CURVE('',#565,#566,#457,.T.);
#684=EDGE_CURVE('',#566,#567,#235,.T.);
#685=EDGE_CURVE('',#567,#568,#458,.T.);
#686=EDGE_CURVE('',#569,#568,#236,.T.);
#687=EDGE_CURVE('',#569,#570,#459,.T.);
#688=EDGE_CURVE('',#570,#571,#237,.T.);
#689=EDGE_CURVE('',#571,#572,#460,.T.);
#690=EDGE_CURVE('',#573,#572,#238,.T.);
#691=EDGE_CURVE('',#573,#574,#461,.T.);
#692=EDGE_CURVE('',#574,#575,#239,.T.);
#693=EDGE_CURVE('',#575,#576,#462,.T.);
#694=EDGE_CURVE('',#577,#576,#240,.T.);
#695=EDGE_CURVE('',#577,#526,#463,.T.);
#696=EDGE_CURVE('',#578,#578,#464,.T.);
#697=EDGE_CURVE('',#578,#525,#241,.T.);
#698=EDGE_CURVE('',#526,#473,#242,.T.);
#699=EDGE_CURVE('',#527,#472,#243,.T.);
#700=EDGE_CURVE('',#528,#523,#244,.T.);
#701=EDGE_CURVE('',#529,#522,#245,.T.);
#702=EDGE_CURVE('',#530,#521,#246,.T.);
#703=EDGE_CURVE('',#531,#520,#247,.T.);
#704=EDGE_CURVE('',#532,#519,#248,.T.);
#705=EDGE_CURVE('',#533,#518,#249,.T.);
#706=EDGE_CURVE('',#534,#517,#250,.T.);
#707=EDGE_CURVE('',#535,#516,#251,.T.);
#708=EDGE_CURVE('',#536,#515,#252,.T.);
#709=EDGE_CURVE('',#537,#514,#253,.T.);
#710=EDGE_CURVE('',#538,#513,#254,.T.);
#711=EDGE_CURVE('',#539,#512,#255,.T.);
#712=EDGE_CURVE('',#540,#511,#256,.T.);
#713=EDGE_CURVE('',#541,#510,#257,.T.);
#714=EDGE_CURVE('',#542,#509,#258,.T.);
#715=EDGE_CURVE('',#543,#508,#259,.T.);
#716=EDGE_CURVE('',#544,#507,#260,.T.);
#717=EDGE_CURVE('',#545,#506,#261,.T.);
#718=EDGE_CURVE('',#546,#505,#262,.T.);
#719=EDGE_CURVE('',#547,#504,#263,.T.);
#720=EDGE_CURVE('',#548,#503,#264,.T.);
#721=EDGE_CURVE('',#549,#502,#265,.T.);
#722=EDGE_CURVE('',#550,#501,#266,.T.);
#723=EDGE_CURVE('',#551,#500,#267,.T.);
#724=EDGE_CURVE('',#552,#499,#268,.T.);
#725=EDGE_CURVE('',#553,#498,#269,.T.);
#726=EDGE_CURVE('',#554,#497,#270,.T.);
#727=EDGE_CURVE('',#555,#496,#271,.T.);
#728=EDGE_CURVE('',#556,#495,#272,.T.);
#729=EDGE_CURVE('',#557,#494,#273,.T.);
#730=EDGE_CURVE('',#558,#493,#274,.T.);
#731=EDGE_CURVE('',#559,#492,#275,.T.);
#732=EDGE_CURVE('',#560,#491,#276,.T.);
#733=EDGE_CURVE('',#561,#490,#277,.T.);
#734=EDGE_CURVE('',#562,#489,#278,.T.);
#735=EDGE_CURVE('',#563,#488,#279,.T.);
#736=EDGE_CURVE('',#564,#487,#280,.T.);
#737=EDGE_CURVE('',#565,#486,#281,.T.);
#738=EDGE_CURVE('',#566,#485,#282,.T.);
#739=EDGE_CURVE('',#567,#484,#283,.T.);
#740=EDGE_CURVE('',#568,#483,#284,.T.);
#741=EDGE_CURVE('',#569,#482,#285,.T.);
#742=EDGE_CURVE('',#570,#481,#286,.T.);
#743=EDGE_CURVE('',#571,#480,#287,.T.);
#744=EDGE_CURVE('',#572,#479,#288,.T.);
#745=EDGE_CURVE('',#573,#478,#289,.T.);
#746=EDGE_CURVE('',#574,#477,#290,.T.);
#747=EDGE_CURVE('',#575,#476,#291,.T.);
#748=EDGE_CURVE('',#576,#475,#292,.T.);
#749=EDGE_CURVE('',#577,#474,#293,.T.);
#750=ORIENTED_EDGE('',*,*,#579,.F.);
#751=ORIENTED_EDGE('',*,*,#580,.T.);
#752=ORIENTED_EDGE('',*,*,#581,.F.);
#753=ORIENTED_EDGE('',*,*,#580,.F.);
#754=ORIENTED_EDGE('',*,*,#581,.T.);
#755=ORIENTED_EDGE('',*,*,#582,.F.);
#756=ORIENTED_EDGE('',*,*,#583,.F.);
#757=ORIENTED_EDGE('',*,*,#584,.T.);
#758=ORIENTED_EDGE('',*,*,#582,.T.);
#759=ORIENTED_EDGE('',*,*,#584,.F.);
#760=ORIENTED_EDGE('',*,*,#585,.F.);
#761=ORIENTED_EDGE('',*,*,#586,.T.);
#762=ORIENTED_EDGE('',*,*,#587,.T.);
#763=ORIENTED_EDGE('',*,*,#586,.F.);
#764=ORIENTED_EDGE('',*,*,#587,.F.);
#765=ORIENTED_EDGE('',*,*,#583,.T.);
#766=ORIENTED_EDGE('',*,*,#588,.F.);
#767=ORIENTED_EDGE('',*,*,#589,.T.);
#768=ORIENTED_EDGE('',*,*,#590,.T.);
#769=ORIENTED_EDGE('',*,*,#591,.T.);
#770=ORIENTED_EDGE('',*,*,#592,.T.);
#771=ORIENTED_EDGE('',*,*,#593,.T.);
#772=ORIENTED_EDGE('',*,*,#594,.T.);
#773=ORIENTED_EDGE('',*,*,#595,.T.);
#774=ORIENTED_EDGE('',*,*,#596,.T.);
#775=ORIENTED_EDGE('',*,*,#597,.T.);
#776=ORIENTED_EDGE('',*,*,#598,.T.);
#777=ORIENTED_EDGE('',*,*,#599,.T.);
#778=ORIENTED_EDGE('',*,*,#600,.T.);
#779=ORIENTED_EDGE('',*,*,#601,.T.);
#780=ORIENTED_EDGE('',*,*,#602,.T.);
#781=ORIENTED_EDGE('',*,*,#603,.T.);
#782=ORIENTED_EDGE('',*,*,#604,.T.);
#783=ORIENTED_EDGE('',*,*,#605,.T.);
#784=ORIENTED_EDGE('',*,*,#606,.T.);
#785=ORIENTED_EDGE('',*,*,#607,.T.);
#786=ORIENTED_EDGE('',*,*,#608,.T.);
#787=ORIENTED_EDGE('',*,*,#609,.T.);
#788=ORIENTED_EDGE('',*,*,#610,.T.);
#789=ORIENTED_EDGE('',*,*,#611,.T.);
#790=ORIENTED_EDGE('',*,*,#612,.T.);
#791=ORIENTED_EDGE('',*,*,#613,.T.);
#792=ORIENTED_EDGE('',*,*,#614,.T.);
#793=ORIENTED_EDGE('',*,*,#615,.T.);
#794=ORIENTED_EDGE('',*,*,#616,.T.);
#795=ORIENTED_EDGE('',*,*,#617,.T.);
#796=ORIENTED_EDGE('',*,*,#618,.T.);
#797=ORIENTED_EDGE('',*,*,#619,.T.);
#798=ORIENTED_EDGE('',*,*,#620,.T.);
#799=ORIENTED_EDGE('',*,*,#621,.T.);
#800=ORIENTED_EDGE('',*,*,#622,.T.);
#801=ORIENTED_EDGE('',*,*,#623,.T.);
#802=ORIENTED_EDGE('',*,*,#624,.T.);
#803=ORIENTED_EDGE('',*,*,#625,.T.);
#804=ORIENTED_EDGE('',*,*,#626,.T.);
#805=ORIENTED_EDGE('',*,*,#627,.T.);
#806=ORIENTED_EDGE('',*,*,#628,.T.);
#807=ORIENTED_EDGE('',*,*,#629,.T.);
#808=ORIENTED_EDGE('',*,*,#630,.T.);
#809=ORIENTED_EDGE('',*,*,#631,.T.);
#810=ORIENTED_EDGE('',*,*,#632,.T.);
#811=ORIENTED_EDGE('',*,*,#633,.T.);
#812=ORIENTED_EDGE('',*,*,#634,.T.);
#813=ORIENTED_EDGE('',*,*,#635,.T.);
#814=ORIENTED_EDGE('',*,*,#636,.T.);
#815=ORIENTED_EDGE('',*,*,#637,.T.);
#816=ORIENTED_EDGE('',*,*,#638,.T.);
#817=ORIENTED_EDGE('',*,*,#639,.T.);
#818=ORIENTED_EDGE('',*,*,#640,.T.);
#819=ORIENTED_EDGE('',*,*,#641,.F.);
#820=ORIENTED_EDGE('',*,*,#642,.T.);
#821=ORIENTED_EDGE('',*,*,#588,.T.);
#822=ORIENTED_EDGE('',*,*,#642,.F.);
#823=ORIENTED_EDGE('',*,*,#641,.T.);
#824=ORIENTED_EDGE('',*,*,#579,.T.);
#825=ORIENTED_EDGE('',*,*,#643,.F.);
#826=ORIENTED_EDGE('',*,*,#644,.T.);
#827=ORIENTED_EDGE('',*,*,#645,.T.);
#828=ORIENTED_EDGE('',*,*,#646,.F.);
#829=ORIENTED_EDGE('',*,*,#647,.T.);
#830=ORIENTED_EDGE('',*,*,#648,.T.);
#831=ORIENTED_EDGE('',*,*,#649,.T.);
#832=ORIENTED_EDGE('',*,*,#650,.F.);
#833=ORIENTED_EDGE('',*,*,#651,.T.);
#834=ORIENTED_EDGE('',*,*,#652,.T.);
#835=ORIENTED_EDGE('',*,*,#653,.T.);
#836=ORIENTED_EDGE('',*,*,#654,.F.);
#837=ORIENTED_EDGE('',*,*,#655,.T.);
#838=ORIENTED_EDGE('',*,*,#656,.T.);
#839=ORIENTED_EDGE('',*,*,#657,.T.);
#840=ORIENTED_EDGE('',*,*,#658,.F.);
#841=ORIENTED_EDGE('',*,*,#659,.T.);
#842=ORIENTED_EDGE('',*,*,#660,.T.);
#843=ORIENTED_EDGE('',*,*,#661,.T.);
#844=ORIENTED_EDGE('',*,*,#662,.F.);
#845=ORIENTED_EDGE('',*,*,#663,.T.);
#846=ORIENTED_EDGE('',*,*,#664,.T.);
#847=ORIENTED_EDGE('',*,*,#665,.T.);
#848=ORIENTED_EDGE('',*,*,#666,.F.);
#849=ORIENTED_EDGE('',*,*,#667,.T.);
#850=ORIENTED_EDGE('',*,*,#668,.T.);
#851=ORIENTED_EDGE('',*,*,#669,.T.);
#852=ORIENTED_EDGE('',*,*,#670,.F.);
#853=ORIENTED_EDGE('',*,*,#671,.T.);
#854=ORIENTED_EDGE('',*,*,#672,.T.);
#855=ORIENTED_EDGE('',*,*,#673,.T.);
#856=ORIENTED_EDGE('',*,*,#674,.F.);
#857=ORIENTED_EDGE('',*,*,#675,.T.);
#858=ORIENTED_EDGE('',*,*,#676,.T.);
#859=ORIENTED_EDGE('',*,*,#677,.T.);
#860=ORIENTED_EDGE('',*,*,#678,.F.);
#861=ORIENTED_EDGE('',*,*,#679,.T.);
#862=ORIENTED_EDGE('',*,*,#680,.T.);
#863=ORIENTED_EDGE('',*,*,#681,.T.);
#864=ORIENTED_EDGE('',*,*,#682,.F.);
#865=ORIENTED_EDGE('',*,*,#683,.T.);
#866=ORIENTED_EDGE('',*,*,#684,.T.);
#867=ORIENTED_EDGE('',*,*,#685,.T.);
#868=ORIENTED_EDGE('',*,*,#686,.F.);
#869=ORIENTED_EDGE('',*,*,#687,.T.);
#870=ORIENTED_EDGE('',*,*,#688,.T.);
#871=ORIENTED_EDGE('',*,*,#689,.T.);
#872=ORIENTED_EDGE('',*,*,#690,.F.);
#873=ORIENTED_EDGE('',*,*,#691,.T.);
#874=ORIENTED_EDGE('',*,*,#692,.T.);
#875=ORIENTED_EDGE('',*,*,#693,.T.);
#876=ORIENTED_EDGE('',*,*,#694,.F.);
#877=ORIENTED_EDGE('',*,*,#695,.T.);
#878=ORIENTED_EDGE('',*,*,#696,.F.);
#879=ORIENTED_EDGE('',*,*,#697,.T.);
#880=ORIENTED_EDGE('',*,*,#643,.T.);
#881=ORIENTED_EDGE('',*,*,#697,.F.);
#882=ORIENTED_EDGE('',*,*,#696,.T.);
#883=ORIENTED_EDGE('',*,*,#585,.T.);
#884=ORIENTED_EDGE('',*,*,#644,.F.);
#885=ORIENTED_EDGE('',*,*,#698,.T.);
#886=ORIENTED_EDGE('',*,*,#589,.F.);
#887=ORIENTED_EDGE('',*,*,#699,.F.);
#888=ORIENTED_EDGE('',*,*,#645,.F.);
#889=ORIENTED_EDGE('',*,*,#699,.T.);
#890=ORIENTED_EDGE('',*,*,#640,.F.);
#891=ORIENTED_EDGE('',*,*,#700,.F.);
#892=ORIENTED_EDGE('',*,*,#646,.T.);
#893=ORIENTED_EDGE('',*,*,#700,.T.);
#894=ORIENTED_EDGE('',*,*,#639,.F.);
#895=ORIENTED_EDGE('',*,*,#701,.F.);
#896=ORIENTED_EDGE('',*,*,#647,.F.);
#897=ORIENTED_EDGE('',*,*,#701,.T.);
#898=ORIENTED_EDGE('',*,*,#638,.F.);
#899=ORIENTED_EDGE('',*,*,#702,.F.);
#900=ORIENTED_EDGE('',*,*,#648,.F.);
#901=ORIENTED_EDGE('',*,*,#702,.T.);
#902=ORIENTED_EDGE('',*,*,#637,.F.);
#903=ORIENTED_EDGE('',*,*,#703,.F.);
#904=ORIENTED_EDGE('',*,*,#649,.F.);
#905=ORIENTED_EDGE('',*,*,#703,.T.);
#906=ORIENTED_EDGE('',*,*,#636,.F.);
#907=ORIENTED_EDGE('',*,*,#704,.F.);
#908=ORIENTED_EDGE('',*,*,#650,.T.);
#909=ORIENTED_EDGE('',*,*,#704,.T.);
#910=ORIENTED_EDGE('',*,*,#635,.F.);
#911=ORIENTED_EDGE('',*,*,#705,.F.);
#912=ORIENTED_EDGE('',*,*,#651,.F.);
#913=ORIENTED_EDGE('',*,*,#705,.T.);
#914=ORIENTED_EDGE('',*,*,#634,.F.);
#915=ORIENTED_EDGE('',*,*,#706,.F.);
#916=ORIENTED_EDGE('',*,*,#652,.F.);
#917=ORIENTED_EDGE('',*,*,#706,.T.);
#918=ORIENTED_EDGE('',*,*,#633,.F.);
#919=ORIENTED_EDGE('',*,*,#707,.F.);
#920=ORIENTED_EDGE('',*,*,#653,.F.);
#921=ORIENTED_EDGE('',*,*,#707,.T.);
#922=ORIENTED_EDGE('',*,*,#632,.F.);
#923=ORIENTED_EDGE('',*,*,#708,.F.);
#924=ORIENTED_EDGE('',*,*,#654,.T.);
#925=ORIENTED_EDGE('',*,*,#708,.T.);
#926=ORIENTED_EDGE('',*,*,#631,.F.);
#927=ORIENTED_EDGE('',*,*,#709,.F.);
#928=ORIENTED_EDGE('',*,*,#655,.F.);
#929=ORIENTED_EDGE('',*,*,#709,.T.);
#930=ORIENTED_EDGE('',*,*,#630,.F.);
#931=ORIENTED_EDGE('',*,*,#710,.F.);
#932=ORIENTED_EDGE('',*,*,#656,.F.);
#933=ORIENTED_EDGE('',*,*,#710,.T.);
#934=ORIENTED_EDGE('',*,*,#629,.F.);
#935=ORIENTED_EDGE('',*,*,#711,.F.);
#936=ORIENTED_EDGE('',*,*,#657,.F.);
#937=ORIENTED_EDGE('',*,*,#711,.T.);
#938=ORIENTED_EDGE('',*,*,#628,.F.);
#939=ORIENTED_EDGE('',*,*,#712,.F.);
#940=ORIENTED_EDGE('',*,*,#658,.T.);
#941=ORIENTED_EDGE('',*,*,#712,.T.);
#942=ORIENTED_EDGE('',*,*,#627,.F.);
#943=ORIENTED_EDGE('',*,*,#713,.F.);
#944=ORIENTED_EDGE('',*,*,#659,.F.);
#945=ORIENTED_EDGE('',*,*,#713,.T.);
#946=ORIENTED_EDGE('',*,*,#626,.F.);
#947=ORIENTED_EDGE('',*,*,#714,.F.);
#948=ORIENTED_EDGE('',*,*,#660,.F.);
#949=ORIENTED_EDGE('',*,*,#714,.T.);
#950=ORIENTED_EDGE('',*,*,#625,.F.);
#951=ORIENTED_EDGE('',*,*,#715,.F.);
#952=ORIENTED_EDGE('',*,*,#661,.F.);
#953=ORIENTED_EDGE('',*,*,#715,.T.);
#954=ORIENTED_EDGE('',*,*,#624,.F.);
#955=ORIENTED_EDGE('',*,*,#716,.F.);
#956=ORIENTED_EDGE('',*,*,#662,.T.);
#957=ORIENTED_EDGE('',*,*,#716,.T.);
#958=ORIENTED_EDGE('',*,*,#623,.F.);
#959=ORIENTED_EDGE('',*,*,#717,.F.);
#960=ORIENTED_EDGE('',*,*,#663,.F.);
#961=ORIENTED_EDGE('',*,*,#717,.T.);
#962=ORIENTED_EDGE('',*,*,#622,.F.);
#963=ORIENTED_EDGE('',*,*,#718,.F.);
#964=ORIENTED_EDGE('',*,*,#664,.F.);
#965=ORIENTED_EDGE('',*,*,#718,.T.);
#966=ORIENTED_EDGE('',*,*,#621,.F.);
#967=ORIENTED_EDGE('',*,*,#719,.F.);
#968=ORIENTED_EDGE('',*,*,#665,.F.);
#969=ORIENTED_EDGE('',*,*,#719,.T.);
#970=ORIENTED_EDGE('',*,*,#620,.F.);
#971=ORIENTED_EDGE('',*,*,#720,.F.);
#972=ORIENTED_EDGE('',*,*,#666,.T.);
#973=ORIENTED_EDGE('',*,*,#720,.T.);
#974=ORIENTED_EDGE('',*,*,#619,.F.);
#975=ORIENTED_EDGE('',*,*,#721,.F.);
#976=ORIENTED_EDGE('',*,*,#667,.F.);
#977=ORIENTED_EDGE('',*,*,#721,.T.);
#978=ORIENTED_EDGE('',*,*,#618,.F.);
#979=ORIENTED_EDGE('',*,*,#722,.F.);
#980=ORIENTED_EDGE('',*,*,#668,.F.);
#981=ORIENTED_EDGE('',*,*,#722,.T.);
#982=ORIENTED_EDGE('',*,*,#617,.F.);
#983=ORIENTED_EDGE('',*,*,#723,.F.);
#984=ORIENTED_EDGE('',*,*,#669,.F.);
#985=ORIENTED_EDGE('',*,*,#723,.T.);
#986=ORIENTED_EDGE('',*,*,#616,.F.);
#987=ORIENTED_EDGE('',*,*,#724,.F.);
#988=ORIENTED_EDGE('',*,*,#670,.T.);
#989=ORIENTED_EDGE('',*,*,#724,.T.);
#990=ORIENTED_EDGE('',*,*,#615,.F.);
#991=ORIENTED_EDGE('',*,*,#725,.F.);
#992=ORIENTED_EDGE('',*,*,#671,.F.);
#993=ORIENTED_EDGE('',*,*,#725,.T.);
#994=ORIENTED_EDGE('',*,*,#614,.F.);
#995=ORIENTED_EDGE('',*,*,#726,.F.);
#996=ORIENTED_EDGE('',*,*,#672,.F.);
#997=ORIENTED_EDGE('',*,*,#726,.T.);
#998=ORIENTED_EDGE('',*,*,#613,.F.);
#999=ORIENTED_EDGE('',*,*,#727,.F.);
#1000=ORIENTED_EDGE('',*,*,#673,.F.);
#1001=ORIENTED_EDGE('',*,*,#727,.T.);
#1002=ORIENTED_EDGE('',*,*,#612,.F.);
#1003=ORIENTED_EDGE('',*,*,#728,.F.);
#1004=ORIENTED_EDGE('',*,*,#674,.T.);
#1005=ORIENTED_EDGE('',*,*,#728,.T.);
#1006=ORIENTED_EDGE('',*,*,#611,.F.);
#1007=ORIENTED_EDGE('',*,*,#729,.F.);
#1008=ORIENTED_EDGE('',*,*,#675,.F.);
#1009=ORIENTED_EDGE('',*,*,#729,.T.);
#1010=ORIENTED_EDGE('',*,*,#610,.F.);
#1011=ORIENTED_EDGE('',*,*,#730,.F.);
#1012=ORIENTED_EDGE('',*,*,#676,.F.);
#1013=ORIENTED_EDGE('',*,*,#730,.T.);
#1014=ORIENTED_EDGE('',*,*,#609,.F.);
#1015=ORIENTED_EDGE('',*,*,#731,.F.);
#1016=ORIENTED_EDGE('',*,*,#677,.F.);
#1017=ORIENTED_EDGE('',*,*,#731,.T.);
#1018=ORIENTED_EDGE('',*,*,#608,.F.);
#1019=ORIENTED_EDGE('',*,*,#732,.F.);
#1020=ORIENTED_EDGE('',*,*,#678,.T.);
#1021=ORIENTED_EDGE('',*,*,#732,.T.);
#1022=ORIENTED_EDGE('',*,*,#607,.F.);
#1023=ORIENTED_EDGE('',*,*,#733,.F.);
#1024=ORIENTED_EDGE('',*,*,#679,.F.);
#1025=ORIENTED_EDGE('',*,*,#733,.T.);
#1026=ORIENTED_EDGE('',*,*,#606,.F.);
#1027=ORIENTED_EDGE('',*,*,#734,.F.);
#1028=ORIENTED_EDGE('',*,*,#680,.F.);
#1029=ORIENTED_EDGE('',*,*,#734,.T.);
#1030=ORIENTED_EDGE('',*,*,#605,.F.);
#1031=ORIENTED_EDGE('',*,*,#735,.F.);
#1032=ORIENTED_EDGE('',*,*,#681,.F.);
#1033=ORIENTED_EDGE('',*,*,#735,.T.);
#1034=ORIENTED_EDGE('',*,*,#604,.F.);
#1035=ORIENTED_EDGE('',*,*,#736,.F.);
#1036=ORIENTED_EDGE('',*,*,#682,.T.);
#1037=ORIENTED_EDGE('',*,*,#736,.T.);
#1038=ORIENTED_EDGE('',*,*,#603,.F.);
#1039=ORIENTED_EDGE('',*,*,#737,.F.);
#1040=ORIENTED_EDGE('',*,*,#683,.F.);
#1041=ORIENTED_EDGE('',*,*,#737,.T.);
#1042=ORIENTED_EDGE('',*,*,#602,.F.);
#1043=ORIENTED_EDGE('',*,*,#738,.F.);
#1044=ORIENTED_EDGE('',*,*,#684,.F.);
#1045=ORIENTED_EDGE('',*,*,#738,.T.);
#1046=ORIENTED_EDGE('',*,*,#601,.F.);
#1047=ORIENTED_EDGE('',*,*,#739,.F.);
#1048=ORIENTED_EDGE('',*,*,#685,.F.);
#1049=ORIENTED_EDGE('',*,*,#739,.T.);
#1050=ORIENTED_EDGE('',*,*,#600,.F.);
#1051=ORIENTED_EDGE('',*,*,#740,.F.);
#1052=ORIENTED_EDGE('',*,*,#686,.T.);
#1053=ORIENTED_EDGE('',*,*,#740,.T.);
#1054=ORIENTED_EDGE('',*,*,#599,.F.);
#1055=ORIENTED_EDGE('',*,*,#741,.F.);
#1056=ORIENTED_EDGE('',*,*,#687,.F.);
#1057=ORIENTED_EDGE('',*,*,#741,.T.);
#1058=ORIENTED_EDGE('',*,*,#598,.F.);
#1059=ORIENTED_EDGE('',*,*,#742,.F.);
#1060=ORIENTED_EDGE('',*,*,#688,.F.);
#1061=ORIENTED_EDGE('',*,*,#742,.T.);
#1062=ORIENTED_EDGE('',*,*,#597,.F.);
#1063=ORIENTED_EDGE('',*,*,#743,.F.);
#1064=ORIENTED_EDGE('',*,*,#689,.F.);
#1065=ORIENTED_EDGE('',*,*,#743,.T.);
#1066=ORIENTED_EDGE('',*,*,#596,.F.);
#1067=ORIENTED_EDGE('',*,*,#744,.F.);
#1068=ORIENTED_EDGE('',*,*,#690,.T.);
#1069=ORIENTED_EDGE('',*,*,#744,.T.);
#1070=ORIENTED_EDGE('',*,*,#595,.F.);
#1071=ORIENTED_EDGE('',*,*,#745,.F.);
#1072=ORIENTED_EDGE('',*,*,#691,.F.);
#1073=ORIENTED_EDGE('',*,*,#745,.T.);
#1074=ORIENTED_EDGE('',*,*,#594,.F.);
#1075=ORIENTED_EDGE('',*,*,#746,.F.);
#1076=ORIENTED_EDGE('',*,*,#692,.F.);
#1077=ORIENTED_EDGE('',*,*,#746,.T.);
#1078=ORIENTED_EDGE('',*,*,#593,.F.);
#1079=ORIENTED_EDGE('',*,*,#747,.F.);
#1080=ORIENTED_EDGE('',*,*,#693,.F.);
#1081=ORIENTED_EDGE('',*,*,#747,.T.);
#1082=ORIENTED_EDGE('',*,*,#592,.F.);
#1083=ORIENTED_EDGE('',*,*,#748,.F.);
#1084=ORIENTED_EDGE('',*,*,#694,.T.);
#1085=ORIENTED_EDGE('',*,*,#748,.T.);
#1086=ORIENTED_EDGE('',*,*,#591,.F.);
#1087=ORIENTED_EDGE('',*,*,#749,.F.);
#1088=ORIENTED_EDGE('',*,*,#695,.F.);
#1089=ORIENTED_EDGE('',*,*,#749,.T.);
#1090=ORIENTED_EDGE('',*,*,#590,.F.);
#1091=ORIENTED_EDGE('',*,*,#698,.F.);
#1092=CYLINDRICAL_SURFACE('',#1200,11.25);
#1093=CYLINDRICAL_SURFACE('',#1205,4.2);
#1094=CYLINDRICAL_SURFACE('',#1207,11.25);
#1095=CYLINDRICAL_SURFACE('',#1239,47.5);
#1096=CYLINDRICAL_SURFACE('',#1270,47.5);
#1097=CYLINDRICAL_SURFACE('',#1274,42.5);
#1098=CYLINDRICAL_SURFACE('',#1276,33.);
#1099=CYLINDRICAL_SURFACE('',#1278,42.5);
#1100=CYLINDRICAL_SURFACE('',#1280,33.);
#1101=CYLINDRICAL_SURFACE('',#1282,42.5);
#1102=CYLINDRICAL_SURFACE('',#1284,33.);
#1103=CYLINDRICAL_SURFACE('',#1286,42.5);
#1104=CYLINDRICAL_SURFACE('',#1288,33.);
#1105=CYLINDRICAL_SURFACE('',#1290,42.5);
#1106=CYLINDRICAL_SURFACE('',#1292,33.);
#1107=CYLINDRICAL_SURFACE('',#1294,42.5);
#1108=CYLINDRICAL_SURFACE('',#1296,33.);
#1109=CYLINDRICAL_SURFACE('',#1298,42.5);
#1110=CYLINDRICAL_SURFACE('',#1300,33.);
#1111=CYLINDRICAL_SURFACE('',#1302,42.5);
#1112=CYLINDRICAL_SURFACE('',#1304,33.);
#1113=CYLINDRICAL_SURFACE('',#1306,42.5);
#1114=CYLINDRICAL_SURFACE('',#1308,33.);
#1115=CYLINDRICAL_SURFACE('',#1310,42.5);
#1116=CYLINDRICAL_SURFACE('',#1312,33.);
#1117=CYLINDRICAL_SURFACE('',#1314,42.5);
#1118=CYLINDRICAL_SURFACE('',#1316,33.);
#1119=CYLINDRICAL_SURFACE('',#1318,42.5);
#1120=CYLINDRICAL_SURFACE('',#1320,33.);
#1121=CYLINDRICAL_SURFACE('',#1322,42.5);
#1122=CYLINDRICAL_SURFACE('',#1324,33.);
#1123=ADVANCED_FACE('',(#53),#1092,.F.);
#1124=ADVANCED_FACE('',(#54,#15),#21,.F.);
#1125=ADVANCED_FACE('',(#55),#1093,.F.);
#1126=ADVANCED_FACE('',(#56),#1094,.F.);
#1127=ADVANCED_FACE('',(#57,#16),#22,.T.);
#1128=ADVANCED_FACE('',(#58,#17),#23,.F.);
#1129=ADVANCED_FACE('',(#59),#1095,.T.);
#1130=ADVANCED_FACE('',(#60,#18),#24,.T.);
#1131=ADVANCED_FACE('',(#61,#19),#25,.F.);
#1132=ADVANCED_FACE('',(#62),#1096,.T.);
#1133=ADVANCED_FACE('',(#63,#20),#26,.T.);
#1134=ADVANCED_FACE('',(#64),#27,.T.);
#1135=ADVANCED_FACE('',(#65),#1097,.T.);
#1136=ADVANCED_FACE('',(#66),#28,.T.);
#1137=ADVANCED_FACE('',(#67),#1098,.T.);
#1138=ADVANCED_FACE('',(#68),#29,.T.);
#1139=ADVANCED_FACE('',(#69),#1099,.T.);
#1140=ADVANCED_FACE('',(#70),#30,.T.);
#1141=ADVANCED_FACE('',(#71),#1100,.T.);
#1142=ADVANCED_FACE('',(#72),#31,.T.);
#1143=ADVANCED_FACE('',(#73),#1101,.T.);
#1144=ADVANCED_FACE('',(#74),#32,.T.);
#1145=ADVANCED_FACE('',(#75),#1102,.T.);
#1146=ADVANCED_FACE('',(#76),#33,.T.);
#1147=ADVANCED_FACE('',(#77),#1103,.T.);
#1148=ADVANCED_FACE('',(#78),#34,.T.);
#1149=ADVANCED_FACE('',(#79),#1104,.T.);
#1150=ADVANCED_FACE('',(#80),#35,.T.);
#1151=ADVANCED_FACE('',(#81),#1105,.T.);
#1152=ADVANCED_FACE('',(#82),#36,.T.);
#1153=ADVANCED_FACE('',(#83),#1106,.T.);
#1154=ADVANCED_FACE('',(#84),#37,.T.);
#1155=ADVANCED_FACE('',(#85),#1107,.T.);
#1156=ADVANCED_FACE('',(#86),#38,.T.);
#1157=ADVANCED_FACE('',(#87),#1108,.T.);
#1158=ADVANCED_FACE('',(#88),#39,.T.);
#1159=ADVANCED_FACE('',(#89),#1109,.T.);
#1160=ADVANCED_FACE('',(#90),#40,.T.);
#1161=ADVANCED_FACE('',(#91),#1110,.T.);
#1162=ADVANCED_FACE('',(#92),#41,.T.);
#1163=ADVANCED_FACE('',(#93),#1111,.T.);
#1164=ADVANCED_FACE('',(#94),#42,.T.);
#1165=ADVANCED_FACE('',(#95),#1112,.T.);
#1166=ADVANCED_FACE('',(#96),#43,.T.);
#1167=ADVANCED_FACE('',(#97),#1113,.T.);
#1168=ADVANCED_FACE('',(#98),#44,.T.);
#1169=ADVANCED_FACE('',(#99),#1114,.T.);
#1170=ADVANCED_FACE('',(#100),#45,.T.);
#1171=ADVANCED_FACE('',(#101),#1115,.T.);
#1172=ADVANCED_FACE('',(#102),#46,.T.);
#1173=ADVANCED_FACE('',(#103),#1116,.T.);
#1174=ADVANCED_FACE('',(#104),#47,.T.);
#1175=ADVANCED_FACE('',(#105),#1117,.T.);
#1176=ADVANCED_FACE('',(#106),#48,.T.);
#1177=ADVANCED_FACE('',(#107),#1118,.T.);
#1178=ADVANCED_FACE('',(#108),#49,.T.);
#1179=ADVANCED_FACE('',(#109),#1119,.T.);
#1180=ADVANCED_FACE('',(#110),#50,.T.);
#1181=ADVANCED_FACE('',(#111),#1120,.T.);
#1182=ADVANCED_FACE('',(#112),#51,.T.);
#1183=ADVANCED_FACE('',(#113),#1121,.T.);
#1184=ADVANCED_FACE('',(#114),#52,.T.);
#1185=ADVANCED_FACE('',(#115),#1122,.T.);
#1186=CLOSED_SHELL('',(#1123,#1124,#1125,#1126,#1127,#1128,#1129,#1130,
#1131,#1132,#1133,#1134,#1135,#1136,#1137,#1138,#1139,#1140,#1141,#1142,
#1143,#1144,#1145,#1146,#1147,#1148,#1149,#1150,#1151,#1152,#1153,#1154,
#1155,#1156,#1157,#1158,#1159,#1160,#1161,#1162,#1163,#1164,#1165,#1166,
#1167,#1168,#1169,#1170,#1171,#1172,#1173,#1174,#1175,#1176,#1177,#1178,
#1179,#1180,#1181,#1182,#1183,#1184,#1185));
#1187=DERIVED_UNIT_ELEMENT(#1189,1.);
#1188=DERIVED_UNIT_ELEMENT(#2040,-3.);
#1189=(
MASS_UNIT()
NAMED_UNIT(*)
SI_UNIT(.KILO.,.GRAM.)
);
#1190=DERIVED_UNIT((#1187,#1188));
#1191=MEASURE_REPRESENTATION_ITEM('density measure',
POSITIVE_RATIO_MEASURE(7850.),#1190);
#1192=PROPERTY_DEFINITION_REPRESENTATION(#1197,#1194);
#1193=PROPERTY_DEFINITION_REPRESENTATION(#1198,#1195);
#1194=REPRESENTATION('material name',(#1196),#2037);
#1195=REPRESENTATION('density',(#1191),#2037);
#1196=DESCRIPTIVE_REPRESENTATION_ITEM('Steel','Steel');
#1197=PROPERTY_DEFINITION('material property','material name',#2047);
#1198=PROPERTY_DEFINITION('material property','density of part',#2047);
#1199=AXIS2_PLACEMENT_3D('',#1686,#1325,#1326);
#1200=AXIS2_PLACEMENT_3D('',#1687,#1327,#1328);
#1201=AXIS2_PLACEMENT_3D('',#1689,#1329,#1330);
#1202=AXIS2_PLACEMENT_3D('',#1692,#1332,#1333);
#1203=AXIS2_PLACEMENT_3D('',#1693,#1334,#1335);
#1204=AXIS2_PLACEMENT_3D('',#1695,#1336,#1337);
#1205=AXIS2_PLACEMENT_3D('',#1696,#1338,#1339);
#1206=AXIS2_PLACEMENT_3D('',#1698,#1340,#1341);
#1207=AXIS2_PLACEMENT_3D('',#1700,#1343,#1344);
#1208=AXIS2_PLACEMENT_3D('',#1702,#1345,#1346);
#1209=AXIS2_PLACEMENT_3D('',#1705,#1348,#1349);
#1210=AXIS2_PLACEMENT_3D('',#1706,#1350,#1351);
#1211=AXIS2_PLACEMENT_3D('',#1707,#1352,#1353);
#1212=AXIS2_PLACEMENT_3D('',#1709,#1354,#1355);
#1213=AXIS2_PLACEMENT_3D('',#1714,#1357,#1358);
#1214=AXIS2_PLACEMENT_3D('',#1718,#1360,#1361);
#1215=AXIS2_PLACEMENT_3D('',#1722,#1363,#1364);
#1216=AXIS2_PLACEMENT_3D('',#1726,#1366,#1367);
#1217=AXIS2_PLACEMENT_3D('',#1730,#1369,#1370);
#1218=AXIS2_PLACEMENT_3D('',#1734,#1372,#1373);
#1219=AXIS2_PLACEMENT_3D('',#1738,#1375,#1376);
#1220=AXIS2_PLACEMENT_3D('',#1742,#1378,#1379);
#1221=AXIS2_PLACEMENT_3D('',#1746,#1381,#1382);
#1222=AXIS2_PLACEMENT_3D('',#1750,#1384,#1385);
#1223=AXIS2_PLACEMENT_3D('',#1754,#1387,#1388);
#1224=AXIS2_PLACEMENT_3D('',#1758,#1390,#1391);
#1225=AXIS2_PLACEMENT_3D('',#1762,#1393,#1394);
#1226=AXIS2_PLACEMENT_3D('',#1766,#1396,#1397);
#1227=AXIS2_PLACEMENT_3D('',#1770,#1399,#1400);
#1228=AXIS2_PLACEMENT_3D('',#1774,#1402,#1403);
#1229=AXIS2_PLACEMENT_3D('',#1778,#1405,#1406);
#1230=AXIS2_PLACEMENT_3D('',#1782,#1408,#1409);
#1231=AXIS2_PLACEMENT_3D('',#1786,#1411,#1412);
#1232=AXIS2_PLACEMENT_3D('',#1790,#1414,#1415);
#1233=AXIS2_PLACEMENT_3D('',#1794,#1417,#1418);
#1234=AXIS2_PLACEMENT_3D('',#1798,#1420,#1421);
#1235=AXIS2_PLACEMENT_3D('',#1802,#1423,#1424);
#1236=AXIS2_PLACEMENT_3D('',#1806,#1426,#1427);
#1237=AXIS2_PLACEMENT_3D('',#1810,#1429,#1430);
#1238=AXIS2_PLACEMENT_3D('',#1813,#1432,#1433);
#1239=AXIS2_PLACEMENT_3D('',#1814,#1434,#1435);
#1240=AXIS2_PLACEMENT_3D('',#1816,#1436,#1437);
#1241=AXIS2_PLACEMENT_3D('',#1818,#1439,#1440);
#1242=AXIS2_PLACEMENT_3D('',#1819,#1441,#1442);
#1243=AXIS2_PLACEMENT_3D('',#1821,#1443,#1444);
#1244=AXIS2_PLACEMENT_3D('',#1826,#1446,#1447);
#1245=AXIS2_PLACEMENT_3D('',#1830,#1449,#1450);
#1246=AXIS2_PLACEMENT_3D('',#1834,#1452,#1453);
#1247=AXIS2_PLACEMENT_3D('',#1838,#1455,#1456);
#1248=AXIS2_PLACEMENT_3D('',#1842,#1458,#1459);
#1249=AXIS2_PLACEMENT_3D('',#1846,#1461,#1462);
#1250=AXIS2_PLACEMENT_3D('',#1850,#1464,#1465);
#1251=AXIS2_PLACEMENT_3D('',#1854,#1467,#1468);
#1252=AXIS2_PLACEMENT_3D('',#1858,#1470,#1471);
#1253=AXIS2_PLACEMENT_3D('',#1862,#1473,#1474);
#1254=AXIS2_PLACEMENT_3D('',#1866,#1476,#1477);
#1255=AXIS2_PLACEMENT_3D('',#1870,#1479,#1480);
#1256=AXIS2_PLACEMENT_3D('',#1874,#1482,#1483);
#1257=AXIS2_PLACEMENT_3D('',#1878,#1485,#1486);
#1258=AXIS2_PLACEMENT_3D('',#1882,#1488,#1489);
#1259=AXIS2_PLACEMENT_3D('',#1886,#1491,#1492);
#1260=AXIS2_PLACEMENT_3D('',#1890,#1494,#1495);
#1261=AXIS2_PLACEMENT_3D('',#1894,#1497,#1498);
#1262=AXIS2_PLACEMENT_3D('',#1898,#1500,#1501);
#1263=AXIS2_PLACEMENT_3D('',#1902,#1503,#1504);
#1264=AXIS2_PLACEMENT_3D('',#1906,#1506,#1507);
#1265=AXIS2_PLACEMENT_3D('',#1910,#1509,#1510);
#1266=AXIS2_PLACEMENT_3D('',#1914,#1512,#1513);
#1267=AXIS2_PLACEMENT_3D('',#1918,#1515,#1516);
#1268=AXIS2_PLACEMENT_3D('',#1922,#1518,#1519);
#1269=AXIS2_PLACEMENT_3D('',#1925,#1521,#1522);
#1270=AXIS2_PLACEMENT_3D('',#1926,#1523,#1524);
#1271=AXIS2_PLACEMENT_3D('',#1928,#1525,#1526);
#1272=AXIS2_PLACEMENT_3D('',#1930,#1528,#1529);
#1273=AXIS2_PLACEMENT_3D('',#1931,#1530,#1531);
#1274=AXIS2_PLACEMENT_3D('',#1934,#1534,#1535);
#1275=AXIS2_PLACEMENT_3D('',#1936,#1537,#1538);
#1276=AXIS2_PLACEMENT_3D('',#1938,#1540,#1541);
#1277=AXIS2_PLACEMENT_3D('',#1940,#1543,#1544);
#1278=AXIS2_PLACEMENT_3D('',#1942,#1546,#1547);
#1279=AXIS2_PLACEMENT_3D('',#1944,#1549,#1550);
#1280=AXIS2_PLACEMENT_3D('',#1946,#1552,#1553);
#1281=AXIS2_PLACEMENT_3D('',#1948,#1555,#1556);
#1282=AXIS2_PLACEMENT_3D('',#1950,#1558,#1559);
#1283=AXIS2_PLACEMENT_3D('',#1952,#1561,#1562);
#1284=AXIS2_PLACEMENT_3D('',#1954,#1564,#1565);
#1285=AXIS2_PLACEMENT_3D('',#1956,#1567,#1568);
#1286=AXIS2_PLACEMENT_3D('',#1958,#1570,#1571);
#1287=AXIS2_PLACEMENT_3D('',#1960,#1573,#1574);
#1288=AXIS2_PLACEMENT_3D('',#1962,#1576,#1577);
#1289=AXIS2_PLACEMENT_3D('',#1964,#1579,#1580);
#1290=AXIS2_PLACEMENT_3D('',#1966,#1582,#1583);
#1291=AXIS2_PLACEMENT_3D('',#1968,#1585,#1586);
#1292=AXIS2_PLACEMENT_3D('',#1970,#1588,#1589);
#1293=AXIS2_PLACEMENT_3D('',#1972,#1591,#1592);
#1294=AXIS2_PLACEMENT_3D('',#1974,#1594,#1595);
#1295=AXIS2_PLACEMENT_3D('',#1976,#1597,#1598);
#1296=AXIS2_PLACEMENT_3D('',#1978,#1600,#1601);
#1297=AXIS2_PLACEMENT_3D('',#1980,#1603,#1604);
#1298=AXIS2_PLACEMENT_3D('',#1982,#1606,#1607);
#1299=AXIS2_PLACEMENT_3D('',#1984,#1609,#1610);
#1300=AXIS2_PLACEMENT_3D('',#1986,#1612,#1613);
#1301=AXIS2_PLACEMENT_3D('',#1988,#1615,#1616);
#1302=AXIS2_PLACEMENT_3D('',#1990,#1618,#1619);
#1303=AXIS2_PLACEMENT_3D('',#1992,#1621,#1622);
#1304=AXIS2_PLACEMENT_3D('',#1994,#1624,#1625);
#1305=AXIS2_PLACEMENT_3D('',#1996,#1627,#1628);
#1306=AXIS2_PLACEMENT_3D('',#1998,#1630,#1631);
#1307=AXIS2_PLACEMENT_3D('',#2000,#1633,#1634);
#1308=AXIS2_PLACEMENT_3D('',#2002,#1636,#1637);
#1309=AXIS2_PLACEMENT_3D('',#2004,#1639,#1640);
#1310=AXIS2_PLACEMENT_3D('',#2006,#1642,#1643);
#1311=AXIS2_PLACEMENT_3D('',#2008,#1645,#1646);
#1312=AXIS2_PLACEMENT_3D('',#2010,#1648,#1649);
#1313=AXIS2_PLACEMENT_3D('',#2012,#1651,#1652);
#1314=AXIS2_PLACEMENT_3D('',#2014,#1654,#1655);
#1315=AXIS2_PLACEMENT_3D('',#2016,#1657,#1658);
#1316=AXIS2_PLACEMENT_3D('',#2018,#1660,#1661);
#1317=AXIS2_PLACEMENT_3D('',#2020,#1663,#1664);
#1318=AXIS2_PLACEMENT_3D('',#2022,#1666,#1667);
#1319=AXIS2_PLACEMENT_3D('',#2024,#1669,#1670);
#1320=AXIS2_PLACEMENT_3D('',#2026,#1672,#1673);
#1321=AXIS2_PLACEMENT_3D('',#2028,#1675,#1676);
#1322=AXIS2_PLACEMENT_3D('',#2030,#1678,#1679);
#1323=AXIS2_PLACEMENT_3D('',#2032,#1681,#1682);
#1324=AXIS2_PLACEMENT_3D('',#2034,#1684,#1685);
#1325=DIRECTION('axis',(0.,0.,1.));
#1326=DIRECTION('refdir',(1.,0.,0.));
#1327=DIRECTION('center_axis',(0.,-1.,0.));
#1328=DIRECTION('ref_axis',(-1.,0.,0.));
#1329=DIRECTION('center_axis',(0.,1.,0.));
#1330=DIRECTION('ref_axis',(-1.,0.,0.));
#1331=DIRECTION('',(0.,1.,0.));
#1332=DIRECTION('center_axis',(0.,-1.,0.));
#1333=DIRECTION('ref_axis',(-1.,0.,0.));
#1334=DIRECTION('center_axis',(0.,1.,0.));
#1335=DIRECTION('ref_axis',(-1.,0.,0.));
#1336=DIRECTION('center_axis',(0.,-1.,0.));
#1337=DIRECTION('ref_axis',(-1.,0.,0.));
#1338=DIRECTION('center_axis',(0.,-1.,0.));
#1339=DIRECTION('ref_axis',(-1.,0.,0.));
#1340=DIRECTION('center_axis',(0.,-1.,0.));
#1341=DIRECTION('ref_axis',(-1.,0.,0.));
#1342=DIRECTION('',(0.,-1.,0.));
#1343=DIRECTION('center_axis',(0.,-1.,0.));
#1344=DIRECTION('ref_axis',(-1.,0.,0.));
#1345=DIRECTION('center_axis',(0.,-1.,0.));
#1346=DIRECTION('ref_axis',(-1.,0.,0.));
#1347=DIRECTION('',(0.,-1.,0.));
#1348=DIRECTION('center_axis',(0.,-1.,0.));
#1349=DIRECTION('ref_axis',(-1.,0.,0.));
#1350=DIRECTION('center_axis',(0.,1.,0.));
#1351=DIRECTION('ref_axis',(-1.,0.,0.));
#1352=DIRECTION('center_axis',(0.,-1.,0.));
#1353=DIRECTION('ref_axis',(1.,0.,0.));
#1354=DIRECTION('center_axis',(0.,-1.,0.));
#1355=DIRECTION('ref_axis',(1.,0.,0.));
#1356=DIRECTION('',(0.851586206835983,0.,-0.52421458614455));
#1357=DIRECTION('center_axis',(0.,-1.,0.));
#1358=DIRECTION('ref_axis',(0.0523359562429435,0.,0.998629534754574));
#1359=DIRECTION('',(-0.985039998663764,0.,0.172325857121011));
#1360=DIRECTION('center_axis',(0.,-1.,0.));
#1361=DIRECTION('ref_axis',(-0.997656803510789,0.,0.0684171207274556));
#1362=DIRECTION('',(0.997656803510789,0.,-0.0684171207274556));
#1363=DIRECTION('center_axis',(0.,-1.,0.));
#1364=DIRECTION('ref_axis',(0.0523359562429435,0.,0.998629534754574));
#1365=DIRECTION('',(-0.952293421272697,0.,-0.305183944205361));
#1366=DIRECTION('center_axis',(0.,-1.,0.));
#1367=DIRECTION('ref_axis',(-0.915176249569113,0.,-0.403053882532611));
#1368=DIRECTION('',(0.915176249569113,0.,0.403053882532611));
#1369=DIRECTION('center_axis',(0.,-1.,0.));
#1370=DIRECTION('ref_axis',(0.0523359562429435,0.,0.998629534754574));
#1371=DIRECTION('',(-0.701387897447877,0.,-0.71277978177951));
#1372=DIRECTION('center_axis',(0.,-1.,0.));
#1373=DIRECTION('ref_axis',(-0.623039845920566,0.,-0.7821900986303));
#1374=DIRECTION('',(0.623039845920566,0.,0.7821900986303));
#1375=DIRECTION('center_axis',(0.,-1.,0.));
#1376=DIRECTION('ref_axis',(0.0523359562429435,0.,0.998629534754574));
#1377=DIRECTION('',(-0.289802858958219,0.,-0.957086361275534));
#1378=DIRECTION('center_axis',(0.,-1.,0.));
#1379=DIRECTION('ref_axis',(-0.188172522015711,0.,-0.982135989544343));
#1380=DIRECTION('',(0.188172522015711,0.,0.982135989544343));
#1381=DIRECTION('center_axis',(0.,-1.,0.));
#1382=DIRECTION('ref_axis',(0.0523359562429435,0.,0.998629534754574));
#1383=DIRECTION('',(0.188172522015712,0.,-0.982135989544343));
#1384=DIRECTION('center_axis',(0.,-1.,0.));
#1385=DIRECTION('ref_axis',(0.28980285895822,0.,-0.957086361275534));
#1386=DIRECTION('',(-0.28980285895822,0.,0.957086361275534));
#1387=DIRECTION('center_axis',(0.,-1.,0.));
#1388=DIRECTION('ref_axis',(0.0523359562429435,0.,0.998629534754574));
#1389=DIRECTION('',(0.623039845920566,0.,-0.782190098630299));
#1390=DIRECTION('center_axis',(0.,-1.,0.));
#1391=DIRECTION('ref_axis',(0.701387897447878,0.,-0.71277978177951));
#1392=DIRECTION('',(-0.701387897447878,0.,0.71277978177951));
#1393=DIRECTION('center_axis',(0.,-1.,0.));
#1394=DIRECTION('ref_axis',(0.0523359562429435,0.,0.998629534754574));
#1395=DIRECTION('',(0.915176249569113,0.,-0.403053882532611));
#1396=DIRECTION('center_axis',(0.,-1.,0.));
#1397=DIRECTION('ref_axis',(0.952293421272698,0.,-0.30518394420536));
#1398=DIRECTION('',(-0.952293421272698,0.,0.30518394420536));
#1399=DIRECTION('center_axis',(0.,-1.,0.));
#1400=DIRECTION('ref_axis',(0.0523359562429435,0.,0.998629534754574));
#1401=DIRECTION('',(0.997656803510789,0.,0.0684171207274569));
#1402=DIRECTION('center_axis',(0.,-1.,0.));
#1403=DIRECTION('ref_axis',(0.985039998663764,0.,0.172325857121012));
#1404=DIRECTION('',(-0.985039998663764,0.,-0.172325857121012));
#1405=DIRECTION('center_axis',(0.,-1.,0.));
#1406=DIRECTION('ref_axis',(0.0523359562429435,0.,0.998629534754574));
#1407=DIRECTION('',(0.851586206835983,0.,0.52421458614455));
#1408=DIRECTION('center_axis',(0.,-1.,0.));
#1409=DIRECTION('ref_axis',(0.792125783379822,0.,0.610357881332668));
#1410=DIRECTION('',(-0.792125783379822,0.,-0.610357881332668));
#1411=DIRECTION('center_axis',(0.,-1.,0.));
#1412=DIRECTION('ref_axis',(0.0523359562429435,0.,0.998629534754574));
#1413=DIRECTION('',(0.510427472901375,0.,0.859920807346535));
#1414=DIRECTION('center_axis',(0.,-1.,0.));
#1415=DIRECTION('ref_axis',(0.417745097274101,0.,0.908564270540864));
#1416=DIRECTION('',(-0.417745097274101,0.,-0.908564270540864));
#1417=DIRECTION('center_axis',(0.,-1.,0.));
#1418=DIRECTION('ref_axis',(0.0523359562429435,0.,0.998629534754574));
#1419=DIRECTION('',(0.0523359562429436,0.,0.998629534754574));
#1420=DIRECTION('center_axis',(0.,-1.,0.));
#1421=DIRECTION('ref_axis',(-0.0523359562429436,0.,0.998629534754574));
#1422=DIRECTION('',(0.0523359562429436,0.,-0.998629534754574));
#1423=DIRECTION('center_axis',(0.,-1.,0.));
#1424=DIRECTION('ref_axis',(0.0523359562429435,0.,0.998629534754574));
#1425=DIRECTION('',(-0.417745097274102,0.,0.908564270540863));
#1426=DIRECTION('center_axis',(0.,-1.,0.));
#1427=DIRECTION('ref_axis',(-0.510427472901376,0.,0.859920807346534));
#1428=DIRECTION('',(0.510427472901376,0.,-0.859920807346534));
#1429=DIRECTION('center_axis',(0.,-1.,0.));
#1430=DIRECTION('ref_axis',(0.0523359562429435,0.,0.998629534754574));
#1431=DIRECTION('',(-0.792125783379822,0.,0.610357881332668));
#1432=DIRECTION('center_axis',(0.,-1.,0.));
#1433=DIRECTION('ref_axis',(-0.851586206835984,0.,0.52421458614455));
#1434=DIRECTION('center_axis',(0.,-1.,0.));
#1435=DIRECTION('ref_axis',(1.,0.,0.));
#1436=DIRECTION('center_axis',(0.,-1.,0.));
#1437=DIRECTION('ref_axis',(1.,0.,0.));
#1438=DIRECTION('',(0.,1.,0.));
#1439=DIRECTION('center_axis',(0.,-1.,0.));
#1440=DIRECTION('ref_axis',(1.,0.,0.));
#1441=DIRECTION('center_axis',(0.,1.,0.));
#1442=DIRECTION('ref_axis',(-1.,0.,0.));
#1443=DIRECTION('center_axis',(0.,1.,0.));
#1444=DIRECTION('ref_axis',(-1.,0.,0.));
#1445=DIRECTION('',(-0.851586206835983,0.,0.52421458614455));
#1446=DIRECTION('center_axis',(0.,1.,0.));
#1447=DIRECTION('ref_axis',(-0.851586206835984,0.,0.52421458614455));
#1448=DIRECTION('',(-0.792125783379822,0.,0.610357881332668));
#1449=DIRECTION('center_axis',(0.,1.,0.));
#1450=DIRECTION('ref_axis',(0.0523359562429435,0.,0.998629534754574));
#1451=DIRECTION('',(-0.510427472901376,0.,0.859920807346534));
#1452=DIRECTION('center_axis',(0.,1.,0.));
#1453=DIRECTION('ref_axis',(-0.510427472901376,0.,0.859920807346534));
#1454=DIRECTION('',(-0.417745097274102,0.,0.908564270540863));
#1455=DIRECTION('center_axis',(0.,1.,0.));
#1456=DIRECTION('ref_axis',(0.0523359562429435,0.,0.998629534754574));
#1457=DIRECTION('',(-0.0523359562429436,0.,0.998629534754574));
#1458=DIRECTION('center_axis',(0.,1.,0.));
#1459=DIRECTION('ref_axis',(-0.0523359562429436,0.,0.998629534754574));
#1460=DIRECTION('',(0.0523359562429436,0.,0.998629534754574));
#1461=DIRECTION('center_axis',(0.,1.,0.));
#1462=DIRECTION('ref_axis',(0.0523359562429435,0.,0.998629534754574));
#1463=DIRECTION('',(0.417745097274101,0.,0.908564270540864));
#1464=DIRECTION('center_axis',(0.,1.,0.));
#1465=DIRECTION('ref_axis',(0.417745097274101,0.,0.908564270540864));
#1466=DIRECTION('',(0.510427472901375,0.,0.859920807346535));
#1467=DIRECTION('center_axis',(0.,1.,0.));
#1468=DIRECTION('ref_axis',(0.0523359562429435,0.,0.998629534754574));
#1469=DIRECTION('',(0.792125783379822,0.,0.610357881332668));
#1470=DIRECTION('center_axis',(0.,1.,0.));
#1471=DIRECTION('ref_axis',(0.792125783379822,0.,0.610357881332668));
#1472=DIRECTION('',(0.851586206835983,0.,0.52421458614455));
#1473=DIRECTION('center_axis',(0.,1.,0.));
#1474=DIRECTION('ref_axis',(0.0523359562429435,0.,0.998629534754574));
#1475=DIRECTION('',(0.985039998663764,0.,0.172325857121012));
#1476=DIRECTION('center_axis',(0.,1.,0.));
#1477=DIRECTION('ref_axis',(0.985039998663764,0.,0.172325857121012));
#1478=DIRECTION('',(0.997656803510789,0.,0.0684171207274569));
#1479=DIRECTION('center_axis',(0.,1.,0.));
#1480=DIRECTION('ref_axis',(0.0523359562429435,0.,0.998629534754574));
#1481=DIRECTION('',(0.952293421272698,0.,-0.30518394420536));
#1482=DIRECTION('center_axis',(0.,1.,0.));
#1483=DIRECTION('ref_axis',(0.952293421272698,0.,-0.30518394420536));
#1484=DIRECTION('',(0.915176249569114,0.,-0.403053882532611));
#1485=DIRECTION('center_axis',(0.,1.,0.));
#1486=DIRECTION('ref_axis',(0.0523359562429435,0.,0.998629534754574));
#1487=DIRECTION('',(0.701387897447878,0.,-0.71277978177951));
#1488=DIRECTION('center_axis',(0.,1.,0.));
#1489=DIRECTION('ref_axis',(0.701387897447878,0.,-0.71277978177951));
#1490=DIRECTION('',(0.623039845920566,0.,-0.782190098630299));
#1491=DIRECTION('center_axis',(0.,1.,0.));
#1492=DIRECTION('ref_axis',(0.0523359562429435,0.,0.998629534754574));
#1493=DIRECTION('',(0.28980285895822,0.,-0.957086361275534));
#1494=DIRECTION('center_axis',(0.,1.,0.));
#1495=DIRECTION('ref_axis',(0.28980285895822,0.,-0.957086361275534));
#1496=DIRECTION('',(0.188172522015712,0.,-0.982135989544343));
#1497=DIRECTION('center_axis',(0.,1.,0.));
#1498=DIRECTION('ref_axis',(0.0523359562429435,0.,0.998629534754574));
#1499=DIRECTION('',(-0.188172522015711,0.,-0.982135989544343));
#1500=DIRECTION('center_axis',(0.,1.,0.));
#1501=DIRECTION('ref_axis',(-0.188172522015711,0.,-0.982135989544343));
#1502=DIRECTION('',(-0.289802858958219,0.,-0.957086361275534));
#1503=DIRECTION('center_axis',(0.,1.,0.));
#1504=DIRECTION('ref_axis',(0.0523359562429435,0.,0.998629534754574));
#1505=DIRECTION('',(-0.623039845920566,0.,-0.7821900986303));
#1506=DIRECTION('center_axis',(0.,1.,0.));
#1507=DIRECTION('ref_axis',(-0.623039845920566,0.,-0.7821900986303));
#1508=DIRECTION('',(-0.701387897447877,0.,-0.71277978177951));
#1509=DIRECTION('center_axis',(0.,1.,0.));
#1510=DIRECTION('ref_axis',(0.0523359562429435,0.,0.998629534754574));
#1511=DIRECTION('',(-0.915176249569113,0.,-0.403053882532611));
#1512=DIRECTION('center_axis',(0.,1.,0.));
#1513=DIRECTION('ref_axis',(-0.915176249569113,0.,-0.403053882532611));
#1514=DIRECTION('',(-0.952293421272697,0.,-0.305183944205361));
#1515=DIRECTION('center_axis',(0.,1.,0.));
#1516=DIRECTION('ref_axis',(0.0523359562429435,0.,0.998629534754574));
#1517=DIRECTION('',(-0.997656803510789,0.,0.0684171207274556));
#1518=DIRECTION('center_axis',(0.,1.,0.));
#1519=DIRECTION('ref_axis',(-0.997656803510789,0.,0.0684171207274556));
#1520=DIRECTION('',(-0.985039998663764,0.,0.172325857121011));
#1521=DIRECTION('center_axis',(0.,1.,0.));
#1522=DIRECTION('ref_axis',(0.0523359562429435,0.,0.998629534754574));
#1523=DIRECTION('center_axis',(0.,1.,0.));
#1524=DIRECTION('ref_axis',(-1.,0.,0.));
#1525=DIRECTION('center_axis',(0.,1.,0.));
#1526=DIRECTION('ref_axis',(-1.,0.,0.));
#1527=DIRECTION('',(0.,-1.,0.));
#1528=DIRECTION('center_axis',(0.,1.,0.));
#1529=DIRECTION('ref_axis',(-1.,0.,0.));
#1530=DIRECTION('center_axis',(-0.52421458614455,0.,-0.851586206835984));
#1531=DIRECTION('ref_axis',(0.851586206835983,0.,-0.52421458614455));
#1532=DIRECTION('',(0.,-1.,0.));
#1533=DIRECTION('',(0.,-1.,0.));
#1534=DIRECTION('center_axis',(0.,-1.,0.));
#1535=DIRECTION('ref_axis',(-0.851586206835984,0.,0.52421458614455));
#1536=DIRECTION('',(0.,-1.,0.));
#1537=DIRECTION('center_axis',(0.610357881332668,0.,0.792125783379822));
#1538=DIRECTION('ref_axis',(-0.792125783379822,0.,0.610357881332668));
#1539=DIRECTION('',(0.,-1.,0.));
#1540=DIRECTION('center_axis',(0.,-1.,0.));
#1541=DIRECTION('ref_axis',(0.0523359562429435,0.,0.998629534754574));
#1542=DIRECTION('',(0.,-1.,0.));
#1543=DIRECTION('center_axis',(-0.859920807346534,0.,-0.510427472901376));
#1544=DIRECTION('ref_axis',(0.510427472901376,0.,-0.859920807346534));
#1545=DIRECTION('',(0.,-1.,0.));
#1546=DIRECTION('center_axis',(0.,-1.,0.));
#1547=DIRECTION('ref_axis',(-0.510427472901376,0.,0.859920807346534));
#1548=DIRECTION('',(0.,-1.,0.));
#1549=DIRECTION('center_axis',(0.908564270540863,0.,0.417745097274102));
#1550=DIRECTION('ref_axis',(-0.417745097274102,0.,0.908564270540863));
#1551=DIRECTION('',(0.,-1.,0.));
#1552=DIRECTION('center_axis',(0.,-1.,0.));
#1553=DIRECTION('ref_axis',(0.0523359562429435,0.,0.998629534754574));
#1554=DIRECTION('',(0.,-1.,0.));
#1555=DIRECTION('center_axis',(-0.998629534754574,0.,-0.0523359562429436));
#1556=DIRECTION('ref_axis',(0.0523359562429436,0.,-0.998629534754574));
#1557=DIRECTION('',(0.,-1.,0.));
#1558=DIRECTION('center_axis',(0.,-1.,0.));
#1559=DIRECTION('ref_axis',(-0.0523359562429436,0.,0.998629534754574));
#1560=DIRECTION('',(0.,-1.,0.));
#1561=DIRECTION('center_axis',(0.998629534754574,0.,-0.0523359562429436));
#1562=DIRECTION('ref_axis',(0.0523359562429436,0.,0.998629534754574));
#1563=DIRECTION('',(0.,-1.,0.));
#1564=DIRECTION('center_axis',(0.,-1.,0.));
#1565=DIRECTION('ref_axis',(0.0523359562429435,0.,0.998629534754574));
#1566=DIRECTION('',(0.,-1.,0.));
#1567=DIRECTION('center_axis',(-0.908564270540864,0.,0.417745097274101));
#1568=DIRECTION('ref_axis',(-0.417745097274101,0.,-0.908564270540864));
#1569=DIRECTION('',(0.,-1.,0.));
#1570=DIRECTION('center_axis',(0.,-1.,0.));
#1571=DIRECTION('ref_axis',(0.417745097274101,0.,0.908564270540864));
#1572=DIRECTION('',(0.,-1.,0.));
#1573=DIRECTION('center_axis',(0.859920807346534,0.,-0.510427472901375));
#1574=DIRECTION('ref_axis',(0.510427472901375,0.,0.859920807346535));
#1575=DIRECTION('',(0.,-1.,0.));
#1576=DIRECTION('center_axis',(0.,-1.,0.));
#1577=DIRECTION('ref_axis',(0.0523359562429435,0.,0.998629534754574));
#1578=DIRECTION('',(0.,-1.,0.));
#1579=DIRECTION('center_axis',(-0.610357881332668,0.,0.792125783379822));
#1580=DIRECTION('ref_axis',(-0.792125783379822,0.,-0.610357881332668));
#1581=DIRECTION('',(0.,-1.,0.));
#1582=DIRECTION('center_axis',(0.,-1.,0.));
#1583=DIRECTION('ref_axis',(0.792125783379822,0.,0.610357881332668));
#1584=DIRECTION('',(0.,-1.,0.));
#1585=DIRECTION('center_axis',(0.52421458614455,0.,-0.851586206835983));
#1586=DIRECTION('ref_axis',(0.851586206835983,0.,0.52421458614455));
#1587=DIRECTION('',(0.,-1.,0.));
#1588=DIRECTION('center_axis',(0.,-1.,0.));
#1589=DIRECTION('ref_axis',(0.0523359562429435,0.,0.998629534754574));
#1590=DIRECTION('',(0.,-1.,0.));
#1591=DIRECTION('center_axis',(-0.172325857121012,0.,0.985039998663764));
#1592=DIRECTION('ref_axis',(-0.985039998663764,0.,-0.172325857121012));
#1593=DIRECTION('',(0.,-1.,0.));
#1594=DIRECTION('center_axis',(0.,-1.,0.));
#1595=DIRECTION('ref_axis',(0.985039998663764,0.,0.172325857121012));
#1596=DIRECTION('',(0.,-1.,0.));
#1597=DIRECTION('center_axis',(0.0684171207274569,0.,-0.997656803510789));
#1598=DIRECTION('ref_axis',(0.997656803510789,0.,0.0684171207274569));
#1599=DIRECTION('',(0.,-1.,0.));
#1600=DIRECTION('center_axis',(0.,-1.,0.));
#1601=DIRECTION('ref_axis',(0.0523359562429435,0.,0.998629534754574));
#1602=DIRECTION('',(0.,-1.,0.));
#1603=DIRECTION('center_axis',(0.30518394420536,0.,0.952293421272698));
#1604=DIRECTION('ref_axis',(-0.952293421272698,0.,0.30518394420536));
#1605=DIRECTION('',(0.,-1.,0.));
#1606=DIRECTION('center_axis',(0.,-1.,0.));
#1607=DIRECTION('ref_axis',(0.952293421272698,0.,-0.30518394420536));
#1608=DIRECTION('',(0.,-1.,0.));
#1609=DIRECTION('center_axis',(-0.403053882532611,0.,-0.915176249569113));
#1610=DIRECTION('ref_axis',(0.915176249569113,0.,-0.403053882532611));
#1611=DIRECTION('',(0.,-1.,0.));
#1612=DIRECTION('center_axis',(0.,-1.,0.));
#1613=DIRECTION('ref_axis',(0.0523359562429435,0.,0.998629534754574));
#1614=DIRECTION('',(0.,-1.,0.));
#1615=DIRECTION('center_axis',(0.71277978177951,0.,0.701387897447878));
#1616=DIRECTION('ref_axis',(-0.701387897447878,0.,0.71277978177951));
#1617=DIRECTION('',(0.,-1.,0.));
#1618=DIRECTION('center_axis',(0.,-1.,0.));
#1619=DIRECTION('ref_axis',(0.701387897447878,0.,-0.71277978177951));
#1620=DIRECTION('',(0.,-1.,0.));
#1621=DIRECTION('center_axis',(-0.782190098630299,0.,-0.623039845920566));
#1622=DIRECTION('ref_axis',(0.623039845920566,0.,-0.782190098630299));
#1623=DIRECTION('',(0.,-1.,0.));
#1624=DIRECTION('center_axis',(0.,-1.,0.));
#1625=DIRECTION('ref_axis',(0.0523359562429435,0.,0.998629534754574));
#1626=DIRECTION('',(0.,-1.,0.));
#1627=DIRECTION('center_axis',(0.957086361275534,0.,0.28980285895822));
#1628=DIRECTION('ref_axis',(-0.28980285895822,0.,0.957086361275534));
#1629=DIRECTION('',(0.,-1.,0.));
#1630=DIRECTION('center_axis',(0.,-1.,0.));
#1631=DIRECTION('ref_axis',(0.28980285895822,0.,-0.957086361275534));
#1632=DIRECTION('',(0.,-1.,0.));
#1633=DIRECTION('center_axis',(-0.982135989544343,0.,-0.188172522015712));
#1634=DIRECTION('ref_axis',(0.188172522015712,0.,-0.982135989544343));
#1635=DIRECTION('',(0.,-1.,0.));
#1636=DIRECTION('center_axis',(0.,-1.,0.));
#1637=DIRECTION('ref_axis',(5.38289951333409E-16,0.,-1.));
#1638=DIRECTION('',(0.,-1.,0.));
#1639=DIRECTION('center_axis',(0.982135989544343,0.,-0.188172522015711));
#1640=DIRECTION('ref_axis',(0.188172522015711,0.,0.982135989544343));
#1641=DIRECTION('',(0.,-1.,0.));
#1642=DIRECTION('center_axis',(0.,-1.,0.));
#1643=DIRECTION('ref_axis',(-0.188172522015711,0.,-0.982135989544343));
#1644=DIRECTION('',(0.,-1.,0.));
#1645=DIRECTION('center_axis',(-0.957086361275534,0.,0.289802858958219));
#1646=DIRECTION('ref_axis',(-0.289802858958219,0.,-0.957086361275534));
#1647=DIRECTION('',(0.,-1.,0.));
#1648=DIRECTION('center_axis',(0.,-1.,0.));
#1649=DIRECTION('ref_axis',(0.0523359562429435,0.,0.998629534754574));
#1650=DIRECTION('',(0.,-1.,0.));
#1651=DIRECTION('center_axis',(0.7821900986303,0.,-0.623039845920566));
#1652=DIRECTION('ref_axis',(0.623039845920566,0.,0.7821900986303));
#1653=DIRECTION('',(0.,-1.,0.));
#1654=DIRECTION('center_axis',(0.,-1.,0.));
#1655=DIRECTION('ref_axis',(-0.623039845920566,0.,-0.7821900986303));
#1656=DIRECTION('',(0.,-1.,0.));
#1657=DIRECTION('center_axis',(-0.71277978177951,0.,0.701387897447877));
#1658=DIRECTION('ref_axis',(-0.701387897447877,0.,-0.71277978177951));
#1659=DIRECTION('',(0.,-1.,0.));
#1660=DIRECTION('center_axis',(0.,-1.,0.));
#1661=DIRECTION('ref_axis',(0.0523359562429435,0.,0.998629534754574));
#1662=DIRECTION('',(0.,-1.,0.));
#1663=DIRECTION('center_axis',(0.403053882532611,0.,-0.915176249569113));
#1664=DIRECTION('ref_axis',(0.915176249569113,0.,0.403053882532611));
#1665=DIRECTION('',(0.,-1.,0.));
#1666=DIRECTION('center_axis',(0.,-1.,0.));
#1667=DIRECTION('ref_axis',(-0.915176249569113,0.,-0.403053882532611));
#1668=DIRECTION('',(0.,-1.,0.));
#1669=DIRECTION('center_axis',(-0.305183944205361,0.,0.952293421272698));
#1670=DIRECTION('ref_axis',(-0.952293421272697,0.,-0.305183944205361));
#1671=DIRECTION('',(0.,-1.,0.));
#1672=DIRECTION('center_axis',(0.,-1.,0.));
#1673=DIRECTION('ref_axis',(0.0523359562429435,0.,0.998629534754574));
#1674=DIRECTION('',(0.,-1.,0.));
#1675=DIRECTION('center_axis',(-0.0684171207274556,0.,-0.997656803510789));
#1676=DIRECTION('ref_axis',(0.997656803510789,0.,-0.0684171207274556));
#1677=DIRECTION('',(0.,-1.,0.));
#1678=DIRECTION('center_axis',(0.,-1.,0.));
#1679=DIRECTION('ref_axis',(-0.997656803510789,0.,0.0684171207274556));
#1680=DIRECTION('',(0.,-1.,0.));
#1681=DIRECTION('center_axis',(0.172325857121011,0.,0.985039998663764));
#1682=DIRECTION('ref_axis',(-0.985039998663764,0.,0.172325857121011));
#1683=DIRECTION('',(0.,-1.,0.));
#1684=DIRECTION('center_axis',(0.,-1.,0.));
#1685=DIRECTION('ref_axis',(0.0523359562429435,0.,0.998629534754574));
#1686=CARTESIAN_POINT('',(0.,0.,0.));
#1687=CARTESIAN_POINT('Origin',(-90.,-39.,0.));
#1688=CARTESIAN_POINT('',(-78.75,-39.,-1.37772764904077E-15));
#1689=CARTESIAN_POINT('Origin',(-90.,-39.,0.));
#1690=CARTESIAN_POINT('',(-78.75,-32.,-1.37772764904077E-15));
#1691=CARTESIAN_POINT('',(-78.75,-39.,1.37772764904077E-15));
#1692=CARTESIAN_POINT('Origin',(-90.,-32.,0.));
#1693=CARTESIAN_POINT('Origin',(-90.,-32.,0.));
#1694=CARTESIAN_POINT('',(-85.8,-32.,5.14351655641888E-16));
#1695=CARTESIAN_POINT('Origin',(-90.,-32.,0.));
#1696=CARTESIAN_POINT('Origin',(-90.,-5.,0.));
#1697=CARTESIAN_POINT('',(-85.8,-5.,-5.14351655641888E-16));
#1698=CARTESIAN_POINT('Origin',(-90.,-5.,0.));
#1699=CARTESIAN_POINT('',(-85.8,-5.,5.14351655641888E-16));
#1700=CARTESIAN_POINT('Origin',(-90.,2.,0.));
#1701=CARTESIAN_POINT('',(-78.75,2.,-1.37772764904077E-15));
#1702=CARTESIAN_POINT('Origin',(-90.,2.,0.));
#1703=CARTESIAN_POINT('',(-78.75,-5.,-1.37772764904077E-15));
#1704=CARTESIAN_POINT('',(-78.75,2.,1.37772764904077E-15));
#1705=CARTESIAN_POINT('Origin',(-90.,-5.,0.));
#1706=CARTESIAN_POINT('Origin',(-90.,-5.,0.));
#1707=CARTESIAN_POINT('Origin',(-90.,-37.,0.));
#1708=CARTESIAN_POINT('',(-137.5,-37.,-5.81707229594993E-15));
#1709=CARTESIAN_POINT('Origin',(-90.,-37.,0.));
#1710=CARTESIAN_POINT('',(-126.192413790529,-37.,22.2791199111434));
#1711=CARTESIAN_POINT('',(-118.102344825587,-37.,17.2990813427701));
#1712=CARTESIAN_POINT('',(-90.,-37.,0.));
#1713=CARTESIAN_POINT('',(-122.506319955904,-37.,5.68675328499336));
#1714=CARTESIAN_POINT('Origin',(-90.,-37.,0.));
#1715=CARTESIAN_POINT('',(-131.86419994321,-37.,7.32384892764295));
#1716=CARTESIAN_POINT('',(-90.,-37.,0.));
#1717=CARTESIAN_POINT('',(-132.400414149209,-37.,2.90772763091686));
#1718=CARTESIAN_POINT('Origin',(-90.,-37.,0.));
#1719=CARTESIAN_POINT('',(-122.922674515856,-37.,2.25776498400604));
#1720=CARTESIAN_POINT('',(-90.,-37.,0.));
#1721=CARTESIAN_POINT('',(-121.425682901999,-37.,-10.0710701587769));
#1722=CARTESIAN_POINT('Origin',(-90.,-37.,0.));
#1723=CARTESIAN_POINT('',(-130.47247040409,-37.,-12.9703176287278));
#1724=CARTESIAN_POINT('',(-90.,-37.,0.));
#1725=CARTESIAN_POINT('',(-128.894990606687,-37.,-17.129790007636));
#1726=CARTESIAN_POINT('Origin',(-90.,-37.,0.));
#1727=CARTESIAN_POINT('',(-120.200816235781,-37.,-13.3007781235762));
#1728=CARTESIAN_POINT('',(-90.,-37.,0.));
#1729=CARTESIAN_POINT('',(-113.14580061578,-37.,-23.5217327987238));
#1730=CARTESIAN_POINT('Origin',(-90.,-37.,0.));
#1731=CARTESIAN_POINT('',(-119.808985641535,-37.,-30.2931407256292));
#1732=CARTESIAN_POINT('',(-90.,-37.,0.));
#1733=CARTESIAN_POINT('',(-116.479193451624,-37.,-33.2430791917877));
#1734=CARTESIAN_POINT('Origin',(-90.,-37.,0.));
#1735=CARTESIAN_POINT('',(-110.560314915379,-37.,-25.8122732547999));
#1736=CARTESIAN_POINT('',(-90.,-37.,0.));
#1737=CARTESIAN_POINT('',(-99.5634943456212,-37.,-31.5838499220926));
#1738=CARTESIAN_POINT('Origin',(-90.,-37.,0.));
#1739=CARTESIAN_POINT('',(-102.316621505724,-37.,-40.6761703542102));
#1740=CARTESIAN_POINT('',(-90.,-37.,0.));
#1741=CARTESIAN_POINT('',(-97.9973321856677,-37.,-41.7407795556346));
#1742=CARTESIAN_POINT('Origin',(-90.,-37.,0.));
#1743=CARTESIAN_POINT('',(-96.2096932265185,-37.,-32.4104876549633));
#1744=CARTESIAN_POINT('',(-90.,-37.,0.));
#1745=CARTESIAN_POINT('',(-83.7903067734815,-37.,-32.4104876549633));
#1746=CARTESIAN_POINT('Origin',(-90.,-37.,0.));
#1747=CARTESIAN_POINT('',(-82.0026678143323,-37.,-41.7407795556346));
#1748=CARTESIAN_POINT('',(-90.,-37.,0.));
#1749=CARTESIAN_POINT('',(-77.6833784942757,-37.,-40.6761703542102));
#1750=CARTESIAN_POINT('Origin',(-90.,-37.,0.));
#1751=CARTESIAN_POINT('',(-80.4365056543787,-37.,-31.5838499220926));
#1752=CARTESIAN_POINT('',(-90.,-37.,0.));
#1753=CARTESIAN_POINT('',(-69.4396850846213,-37.,-25.8122732547999));
#1754=CARTESIAN_POINT('Origin',(-90.,-37.,0.));
#1755=CARTESIAN_POINT('',(-63.5208065483759,-37.,-33.2430791917877));
#1756=CARTESIAN_POINT('',(-90.,-37.,0.));
#1757=CARTESIAN_POINT('',(-60.1910143584652,-37.,-30.2931407256292));
#1758=CARTESIAN_POINT('Origin',(-90.,-37.,0.));
#1759=CARTESIAN_POINT('',(-66.85419938422,-37.,-23.5217327987238));
#1760=CARTESIAN_POINT('',(-90.,-37.,0.));
#1761=CARTESIAN_POINT('',(-59.7991837642193,-37.,-13.3007781235762));
#1762=CARTESIAN_POINT('Origin',(-90.,-37.,0.));
#1763=CARTESIAN_POINT('',(-51.1050093933127,-37.,-17.129790007636));
#1764=CARTESIAN_POINT('',(-90.,-37.,0.));
#1765=CARTESIAN_POINT('',(-49.5275295959104,-37.,-12.9703176287278));
#1766=CARTESIAN_POINT('Origin',(-90.,-37.,0.));
#1767=CARTESIAN_POINT('',(-58.574317098001,-37.,-10.0710701587769));
#1768=CARTESIAN_POINT('',(-90.,-37.,0.));
#1769=CARTESIAN_POINT('',(-57.077325484144,-37.,2.25776498400608));
#1770=CARTESIAN_POINT('Origin',(-90.,-37.,0.));
#1771=CARTESIAN_POINT('',(-47.5995858507915,-37.,2.90772763091693));
#1772=CARTESIAN_POINT('',(-90.,-37.,0.));
#1773=CARTESIAN_POINT('',(-48.13580005679,-37.,7.32384892764301));
#1774=CARTESIAN_POINT('Origin',(-90.,-37.,0.));
#1775=CARTESIAN_POINT('',(-57.4936800440958,-37.,5.6867532849934));
#1776=CARTESIAN_POINT('',(-90.,-37.,0.));
#1777=CARTESIAN_POINT('',(-61.8976551744126,-37.,17.2990813427702));
#1778=CARTESIAN_POINT('Origin',(-90.,-37.,0.));
#1779=CARTESIAN_POINT('',(-53.8075862094707,-37.,22.2791199111433));
#1780=CARTESIAN_POINT('',(-90.,-37.,0.));
#1781=CARTESIAN_POINT('',(-56.3346542063576,-37.,25.9402099566384));
#1782=CARTESIAN_POINT('Origin',(-90.,-37.,0.));
#1783=CARTESIAN_POINT('',(-63.8598491484659,-37.,20.1418100839781));
#1784=CARTESIAN_POINT('',(-90.,-37.,0.));
#1785=CARTESIAN_POINT('',(-73.1558933942546,-37.,28.3773866424356));
#1786=CARTESIAN_POINT('Origin',(-90.,-37.,0.));
#1787=CARTESIAN_POINT('',(-68.3068324016916,-37.,36.5466343122277));
#1788=CARTESIAN_POINT('',(-90.,-37.,0.));
#1789=CARTESIAN_POINT('',(-72.2458333658507,-37.,38.6139814979867));
#1790=CARTESIAN_POINT('Origin',(-90.,-37.,0.));
#1791=CARTESIAN_POINT('',(-76.2144117899547,-37.,29.9826209278485));
#1792=CARTESIAN_POINT('',(-90.,-37.,0.));
#1793=CARTESIAN_POINT('',(-88.2729134439829,-37.,32.9547746469009));
#1794=CARTESIAN_POINT('Origin',(-90.,-37.,0.));
#1795=CARTESIAN_POINT('',(-87.7757218596749,-37.,42.4417552270694));
#1796=CARTESIAN_POINT('',(-90.,-37.,0.));
#1797=CARTESIAN_POINT('',(-92.2242781403251,-37.,42.4417552270694));
#1798=CARTESIAN_POINT('Origin',(-90.,-37.,0.));
#1799=CARTESIAN_POINT('',(-91.7270865560172,-37.,32.9547746469009));
#1800=CARTESIAN_POINT('',(-90.,-37.,0.));
#1801=CARTESIAN_POINT('',(-103.785588210045,-37.,29.9826209278485));
#1802=CARTESIAN_POINT('Origin',(-90.,-37.,0.));
#1803=CARTESIAN_POINT('',(-107.754166634149,-37.,38.6139814979867));
#1804=CARTESIAN_POINT('',(-90.,-37.,0.));
#1805=CARTESIAN_POINT('',(-111.693167598308,-37.,36.5466343122277));
#1806=CARTESIAN_POINT('Origin',(-90.,-37.,0.));
#1807=CARTESIAN_POINT('',(-106.844106605745,-37.,28.3773866424356));
#1808=CARTESIAN_POINT('',(-90.,-37.,0.));
#1809=CARTESIAN_POINT('',(-116.140150851534,-37.,20.141810083978));
#1810=CARTESIAN_POINT('Origin',(-90.,-37.,0.));
#1811=CARTESIAN_POINT('',(-123.665345793642,-37.,25.9402099566385));
#1812=CARTESIAN_POINT('',(-90.,-37.,0.));
#1813=CARTESIAN_POINT('Origin',(-90.,-37.,0.));
#1814=CARTESIAN_POINT('Origin',(-90.,-37.,0.));
#1815=CARTESIAN_POINT('',(-137.5,-39.,-5.81707229594993E-15));
#1816=CARTESIAN_POINT('Origin',(-90.,-39.,0.));
#1817=CARTESIAN_POINT('',(-137.5,-37.,-5.81707229594993E-15));
#1818=CARTESIAN_POINT('Origin',(-90.,-39.,0.));
#1819=CARTESIAN_POINT('Origin',(-90.,0.,0.));
#1820=CARTESIAN_POINT('',(-42.5,0.,-5.81707229594993E-15));
#1821=CARTESIAN_POINT('Origin',(-90.,0.,0.));
#1822=CARTESIAN_POINT('',(-118.102344825587,0.,17.2990813427701));
#1823=CARTESIAN_POINT('',(-126.192413790529,0.,22.2791199111434));
#1824=CARTESIAN_POINT('',(-90.,0.,0.));
#1825=CARTESIAN_POINT('',(-123.665345793642,0.,25.9402099566385));
#1826=CARTESIAN_POINT('Origin',(-90.,0.,0.));
#1827=CARTESIAN_POINT('',(-116.140150851534,0.,20.141810083978));
#1828=CARTESIAN_POINT('',(-90.,0.,0.));
#1829=CARTESIAN_POINT('',(-106.844106605745,0.,28.3773866424356));
#1830=CARTESIAN_POINT('Origin',(-90.,0.,0.));
#1831=CARTESIAN_POINT('',(-111.693167598308,0.,36.5466343122277));
#1832=CARTESIAN_POINT('',(-90.,0.,0.));
#1833=CARTESIAN_POINT('',(-107.754166634149,0.,38.6139814979867));
#1834=CARTESIAN_POINT('Origin',(-90.,0.,0.));
#1835=CARTESIAN_POINT('',(-103.785588210045,0.,29.9826209278485));
#1836=CARTESIAN_POINT('',(-90.,0.,0.));
#1837=CARTESIAN_POINT('',(-91.7270865560172,0.,32.9547746469009));
#1838=CARTESIAN_POINT('Origin',(-90.,0.,0.));
#1839=CARTESIAN_POINT('',(-92.2242781403251,0.,42.4417552270694));
#1840=CARTESIAN_POINT('',(-90.,0.,0.));
#1841=CARTESIAN_POINT('',(-87.7757218596749,0.,42.4417552270694));
#1842=CARTESIAN_POINT('Origin',(-90.,0.,0.));
#1843=CARTESIAN_POINT('',(-88.2729134439829,0.,32.9547746469009));
#1844=CARTESIAN_POINT('',(-90.,0.,0.));
#1845=CARTESIAN_POINT('',(-76.2144117899547,0.,29.9826209278485));
#1846=CARTESIAN_POINT('Origin',(-90.,0.,0.));
#1847=CARTESIAN_POINT('',(-72.2458333658507,0.,38.6139814979867));
#1848=CARTESIAN_POINT('',(-90.,0.,0.));
#1849=CARTESIAN_POINT('',(-68.3068324016916,0.,36.5466343122277));
#1850=CARTESIAN_POINT('Origin',(-90.,0.,0.));
#1851=CARTESIAN_POINT('',(-73.1558933942546,0.,28.3773866424356));
#1852=CARTESIAN_POINT('',(-90.,0.,0.));
#1853=CARTESIAN_POINT('',(-63.8598491484659,0.,20.1418100839781));
#1854=CARTESIAN_POINT('Origin',(-90.,0.,0.));
#1855=CARTESIAN_POINT('',(-56.3346542063576,0.,25.9402099566384));
#1856=CARTESIAN_POINT('',(-90.,0.,0.));
#1857=CARTESIAN_POINT('',(-53.8075862094707,0.,22.2791199111433));
#1858=CARTESIAN_POINT('Origin',(-90.,0.,0.));
#1859=CARTESIAN_POINT('',(-61.8976551744126,0.,17.2990813427702));
#1860=CARTESIAN_POINT('',(-90.,0.,0.));
#1861=CARTESIAN_POINT('',(-57.4936800440958,0.,5.6867532849934));
#1862=CARTESIAN_POINT('Origin',(-90.,0.,0.));
#1863=CARTESIAN_POINT('',(-48.13580005679,0.,7.32384892764301));
#1864=CARTESIAN_POINT('',(-90.,0.,0.));
#1865=CARTESIAN_POINT('',(-47.5995858507915,0.,2.90772763091693));
#1866=CARTESIAN_POINT('Origin',(-90.,0.,0.));
#1867=CARTESIAN_POINT('',(-57.077325484144,0.,2.25776498400608));
#1868=CARTESIAN_POINT('',(-90.,0.,0.));
#1869=CARTESIAN_POINT('',(-58.574317098001,0.,-10.0710701587769));
#1870=CARTESIAN_POINT('Origin',(-90.,0.,0.));
#1871=CARTESIAN_POINT('',(-49.5275295959104,0.,-12.9703176287278));
#1872=CARTESIAN_POINT('',(-90.,0.,0.));
#1873=CARTESIAN_POINT('',(-51.1050093933127,0.,-17.129790007636));
#1874=CARTESIAN_POINT('Origin',(-90.,0.,0.));
#1875=CARTESIAN_POINT('',(-59.7991837642193,0.,-13.3007781235762));
#1876=CARTESIAN_POINT('',(-90.,0.,0.));
#1877=CARTESIAN_POINT('',(-66.85419938422,0.,-23.5217327987238));
#1878=CARTESIAN_POINT('Origin',(-90.,0.,0.));
#1879=CARTESIAN_POINT('',(-60.1910143584652,0.,-30.2931407256292));
#1880=CARTESIAN_POINT('',(-90.,0.,0.));
#1881=CARTESIAN_POINT('',(-63.5208065483759,0.,-33.2430791917877));
#1882=CARTESIAN_POINT('Origin',(-90.,0.,0.));
#1883=CARTESIAN_POINT('',(-69.4396850846213,0.,-25.8122732547999));
#1884=CARTESIAN_POINT('',(-90.,0.,0.));
#1885=CARTESIAN_POINT('',(-80.4365056543787,0.,-31.5838499220926));
#1886=CARTESIAN_POINT('Origin',(-90.,0.,0.));
#1887=CARTESIAN_POINT('',(-77.6833784942757,0.,-40.6761703542102));
#1888=CARTESIAN_POINT('',(-90.,0.,0.));
#1889=CARTESIAN_POINT('',(-82.0026678143323,0.,-41.7407795556346));
#1890=CARTESIAN_POINT('Origin',(-90.,0.,0.));
#1891=CARTESIAN_POINT('',(-83.7903067734815,0.,-32.4104876549633));
#1892=CARTESIAN_POINT('',(-90.,0.,0.));
#1893=CARTESIAN_POINT('',(-96.2096932265185,0.,-32.4104876549633));
#1894=CARTESIAN_POINT('Origin',(-90.,0.,0.));
#1895=CARTESIAN_POINT('',(-97.9973321856677,0.,-41.7407795556346));
#1896=CARTESIAN_POINT('',(-90.,0.,0.));
#1897=CARTESIAN_POINT('',(-102.316621505724,0.,-40.6761703542102));
#1898=CARTESIAN_POINT('Origin',(-90.,0.,0.));
#1899=CARTESIAN_POINT('',(-99.5634943456212,0.,-31.5838499220926));
#1900=CARTESIAN_POINT('',(-90.,0.,0.));
#1901=CARTESIAN_POINT('',(-110.560314915379,0.,-25.8122732547999));
#1902=CARTESIAN_POINT('Origin',(-90.,0.,0.));
#1903=CARTESIAN_POINT('',(-116.479193451624,0.,-33.2430791917877));
#1904=CARTESIAN_POINT('',(-90.,0.,0.));
#1905=CARTESIAN_POINT('',(-119.808985641535,0.,-30.2931407256292));
#1906=CARTESIAN_POINT('Origin',(-90.,0.,0.));
#1907=CARTESIAN_POINT('',(-113.14580061578,0.,-23.5217327987238));
#1908=CARTESIAN_POINT('',(-90.,0.,0.));
#1909=CARTESIAN_POINT('',(-120.200816235781,0.,-13.3007781235762));
#1910=CARTESIAN_POINT('Origin',(-90.,0.,0.));
#1911=CARTESIAN_POINT('',(-128.894990606687,0.,-17.129790007636));
#1912=CARTESIAN_POINT('',(-90.,0.,0.));
#1913=CARTESIAN_POINT('',(-130.47247040409,0.,-12.9703176287278));
#1914=CARTESIAN_POINT('Origin',(-90.,0.,0.));
#1915=CARTESIAN_POINT('',(-121.425682901999,0.,-10.0710701587769));
#1916=CARTESIAN_POINT('',(-90.,0.,0.));
#1917=CARTESIAN_POINT('',(-122.922674515856,0.,2.25776498400604));
#1918=CARTESIAN_POINT('Origin',(-90.,0.,0.));
#1919=CARTESIAN_POINT('',(-132.400414149209,0.,2.90772763091686));
#1920=CARTESIAN_POINT('',(-90.,0.,0.));
#1921=CARTESIAN_POINT('',(-131.86419994321,0.,7.32384892764295));
#1922=CARTESIAN_POINT('Origin',(-90.,0.,0.));
#1923=CARTESIAN_POINT('',(-122.506319955904,0.,5.68675328499336));
#1924=CARTESIAN_POINT('',(-90.,0.,0.));
#1925=CARTESIAN_POINT('Origin',(-90.,0.,0.));
#1926=CARTESIAN_POINT('Origin',(-90.,0.,0.));
#1927=CARTESIAN_POINT('',(-42.5,2.,-5.81707229594993E-15));
#1928=CARTESIAN_POINT('Origin',(-90.,2.,0.));
#1929=CARTESIAN_POINT('',(-42.5,0.,-5.81707229594993E-15));
#1930=CARTESIAN_POINT('Origin',(-90.,2.,0.));
#1931=CARTESIAN_POINT('Origin',(-126.192413790529,0.,22.2791199111434));
#1932=CARTESIAN_POINT('',(-118.102344825587,0.,17.2990813427701));
#1933=CARTESIAN_POINT('',(-126.192413790529,0.,22.2791199111434));
#1934=CARTESIAN_POINT('Origin',(-90.,0.,0.));
#1935=CARTESIAN_POINT('',(-123.665345793642,0.,25.9402099566385));
#1936=CARTESIAN_POINT('Origin',(-116.140150851534,0.,20.141810083978));
#1937=CARTESIAN_POINT('',(-116.140150851534,0.,20.141810083978));
#1938=CARTESIAN_POINT('Origin',(-90.,0.,0.));
#1939=CARTESIAN_POINT('',(-106.844106605745,0.,28.3773866424356));
#1940=CARTESIAN_POINT('Origin',(-111.693167598308,0.,36.5466343122277));
#1941=CARTESIAN_POINT('',(-111.693167598308,0.,36.5466343122277));
#1942=CARTESIAN_POINT('Origin',(-90.,0.,0.));
#1943=CARTESIAN_POINT('',(-107.754166634149,0.,38.6139814979867));
#1944=CARTESIAN_POINT('Origin',(-103.785588210045,0.,29.9826209278485));
#1945=CARTESIAN_POINT('',(-103.785588210045,0.,29.9826209278485));
#1946=CARTESIAN_POINT('Origin',(-90.,0.,0.));
#1947=CARTESIAN_POINT('',(-91.7270865560172,0.,32.9547746469009));
#1948=CARTESIAN_POINT('Origin',(-92.2242781403251,0.,42.4417552270694));
#1949=CARTESIAN_POINT('',(-92.2242781403251,0.,42.4417552270694));
#1950=CARTESIAN_POINT('Origin',(-90.,0.,0.));
#1951=CARTESIAN_POINT('',(-87.7757218596749,0.,42.4417552270694));
#1952=CARTESIAN_POINT('Origin',(-88.2729134439829,0.,32.9547746469009));
#1953=CARTESIAN_POINT('',(-88.2729134439829,0.,32.9547746469009));
#1954=CARTESIAN_POINT('Origin',(-90.,0.,0.));
#1955=CARTESIAN_POINT('',(-76.2144117899547,0.,29.9826209278485));
#1956=CARTESIAN_POINT('Origin',(-72.2458333658507,0.,38.6139814979867));
#1957=CARTESIAN_POINT('',(-72.2458333658507,0.,38.6139814979867));
#1958=CARTESIAN_POINT('Origin',(-90.,0.,0.));
#1959=CARTESIAN_POINT('',(-68.3068324016916,0.,36.5466343122277));
#1960=CARTESIAN_POINT('Origin',(-73.1558933942546,0.,28.3773866424356));
#1961=CARTESIAN_POINT('',(-73.1558933942546,0.,28.3773866424356));
#1962=CARTESIAN_POINT('Origin',(-90.,0.,0.));
#1963=CARTESIAN_POINT('',(-63.8598491484659,0.,20.1418100839781));
#1964=CARTESIAN_POINT('Origin',(-56.3346542063576,0.,25.9402099566384));
#1965=CARTESIAN_POINT('',(-56.3346542063576,0.,25.9402099566384));
#1966=CARTESIAN_POINT('Origin',(-90.,0.,0.));
#1967=CARTESIAN_POINT('',(-53.8075862094707,0.,22.2791199111433));
#1968=CARTESIAN_POINT('Origin',(-61.8976551744126,0.,17.2990813427702));
#1969=CARTESIAN_POINT('',(-61.8976551744126,0.,17.2990813427702));
#1970=CARTESIAN_POINT('Origin',(-90.,0.,0.));
#1971=CARTESIAN_POINT('',(-57.4936800440958,0.,5.6867532849934));
#1972=CARTESIAN_POINT('Origin',(-48.13580005679,0.,7.32384892764301));
#1973=CARTESIAN_POINT('',(-48.13580005679,0.,7.32384892764301));
#1974=CARTESIAN_POINT('Origin',(-90.,0.,0.));
#1975=CARTESIAN_POINT('',(-47.5995858507915,0.,2.90772763091693));
#1976=CARTESIAN_POINT('Origin',(-57.077325484144,0.,2.25776498400608));
#1977=CARTESIAN_POINT('',(-57.077325484144,0.,2.25776498400608));
#1978=CARTESIAN_POINT('Origin',(-90.,0.,0.));
#1979=CARTESIAN_POINT('',(-58.574317098001,0.,-10.0710701587769));
#1980=CARTESIAN_POINT('Origin',(-49.5275295959104,0.,-12.9703176287278));
#1981=CARTESIAN_POINT('',(-49.5275295959104,0.,-12.9703176287278));
#1982=CARTESIAN_POINT('Origin',(-90.,0.,0.));
#1983=CARTESIAN_POINT('',(-51.1050093933127,0.,-17.129790007636));
#1984=CARTESIAN_POINT('Origin',(-59.7991837642193,0.,-13.3007781235762));
#1985=CARTESIAN_POINT('',(-59.7991837642193,0.,-13.3007781235762));
#1986=CARTESIAN_POINT('Origin',(-90.,0.,0.));
#1987=CARTESIAN_POINT('',(-66.85419938422,0.,-23.5217327987238));
#1988=CARTESIAN_POINT('Origin',(-60.1910143584652,0.,-30.2931407256292));
#1989=CARTESIAN_POINT('',(-60.1910143584652,0.,-30.2931407256292));
#1990=CARTESIAN_POINT('Origin',(-90.,0.,0.));
#1991=CARTESIAN_POINT('',(-63.5208065483759,0.,-33.2430791917877));
#1992=CARTESIAN_POINT('Origin',(-69.4396850846213,0.,-25.8122732547999));
#1993=CARTESIAN_POINT('',(-69.4396850846213,0.,-25.8122732547999));
#1994=CARTESIAN_POINT('Origin',(-90.,0.,0.));
#1995=CARTESIAN_POINT('',(-80.4365056543787,0.,-31.5838499220926));
#1996=CARTESIAN_POINT('Origin',(-77.6833784942757,0.,-40.6761703542102));
#1997=CARTESIAN_POINT('',(-77.6833784942757,0.,-40.6761703542102));
#1998=CARTESIAN_POINT('Origin',(-90.,0.,0.));
#1999=CARTESIAN_POINT('',(-82.0026678143323,0.,-41.7407795556346));
#2000=CARTESIAN_POINT('Origin',(-83.7903067734815,0.,-32.4104876549633));
#2001=CARTESIAN_POINT('',(-83.7903067734815,0.,-32.4104876549633));
#2002=CARTESIAN_POINT('Origin',(-90.,0.,0.));
#2003=CARTESIAN_POINT('',(-96.2096932265185,0.,-32.4104876549633));
#2004=CARTESIAN_POINT('Origin',(-97.9973321856677,0.,-41.7407795556346));
#2005=CARTESIAN_POINT('',(-97.9973321856677,0.,-41.7407795556346));
#2006=CARTESIAN_POINT('Origin',(-90.,0.,0.));
#2007=CARTESIAN_POINT('',(-102.316621505724,0.,-40.6761703542102));
#2008=CARTESIAN_POINT('Origin',(-99.5634943456212,0.,-31.5838499220926));
#2009=CARTESIAN_POINT('',(-99.5634943456212,0.,-31.5838499220926));
#2010=CARTESIAN_POINT('Origin',(-90.,0.,0.));
#2011=CARTESIAN_POINT('',(-110.560314915379,0.,-25.8122732547999));
#2012=CARTESIAN_POINT('Origin',(-116.479193451624,0.,-33.2430791917877));
#2013=CARTESIAN_POINT('',(-116.479193451624,0.,-33.2430791917877));
#2014=CARTESIAN_POINT('Origin',(-90.,0.,0.));
#2015=CARTESIAN_POINT('',(-119.808985641535,0.,-30.2931407256292));
#2016=CARTESIAN_POINT('Origin',(-113.14580061578,0.,-23.5217327987238));
#2017=CARTESIAN_POINT('',(-113.14580061578,0.,-23.5217327987238));
#2018=CARTESIAN_POINT('Origin',(-90.,0.,0.));
#2019=CARTESIAN_POINT('',(-120.200816235781,0.,-13.3007781235762));
#2020=CARTESIAN_POINT('Origin',(-128.894990606687,0.,-17.129790007636));
#2021=CARTESIAN_POINT('',(-128.894990606687,0.,-17.129790007636));
#2022=CARTESIAN_POINT('Origin',(-90.,0.,0.));
#2023=CARTESIAN_POINT('',(-130.47247040409,0.,-12.9703176287278));
#2024=CARTESIAN_POINT('Origin',(-121.425682901999,0.,-10.0710701587769));
#2025=CARTESIAN_POINT('',(-121.425682901999,0.,-10.0710701587769));
#2026=CARTESIAN_POINT('Origin',(-90.,0.,0.));
#2027=CARTESIAN_POINT('',(-122.922674515856,0.,2.25776498400604));
#2028=CARTESIAN_POINT('Origin',(-132.400414149209,0.,2.90772763091686));
#2029=CARTESIAN_POINT('',(-132.400414149209,0.,2.90772763091686));
#2030=CARTESIAN_POINT('Origin',(-90.,0.,0.));
#2031=CARTESIAN_POINT('',(-131.86419994321,0.,7.32384892764295));
#2032=CARTESIAN_POINT('Origin',(-122.506319955904,0.,5.68675328499336));
#2033=CARTESIAN_POINT('',(-122.506319955904,0.,5.68675328499336));
#2034=CARTESIAN_POINT('Origin',(-90.,0.,0.));
#2035=UNCERTAINTY_MEASURE_WITH_UNIT(LENGTH_MEASURE(0.01),#2039,
'DISTANCE_ACCURACY_VALUE',
'Maximum model space distance between geometric entities at asserted c
onnectivities');
#2036=UNCERTAINTY_MEASURE_WITH_UNIT(LENGTH_MEASURE(0.01),#2039,
'DISTANCE_ACCURACY_VALUE',
'Maximum model space distance between geometric entities at asserted c
onnectivities');
#2037=(
GEOMETRIC_REPRESENTATION_CONTEXT(3)
GLOBAL_UNCERTAINTY_ASSIGNED_CONTEXT((#2035))
GLOBAL_UNIT_ASSIGNED_CONTEXT((#2039,#2041,#2042))
REPRESENTATION_CONTEXT('','3D')
);
#2038=(
GEOMETRIC_REPRESENTATION_CONTEXT(3)
GLOBAL_UNCERTAINTY_ASSIGNED_CONTEXT((#2036))
GLOBAL_UNIT_ASSIGNED_CONTEXT((#2039,#2041,#2042))
REPRESENTATION_CONTEXT('','3D')
);
#2039=(
LENGTH_UNIT()
NAMED_UNIT(*)
SI_UNIT(.MILLI.,.METRE.)
);
#2040=(
LENGTH_UNIT()
NAMED_UNIT(*)
SI_UNIT($,.METRE.)
);
#2041=(
NAMED_UNIT(*)
PLANE_ANGLE_UNIT()
SI_UNIT($,.RADIAN.)
);
#2042=(
NAMED_UNIT(*)
SI_UNIT($,.STERADIAN.)
SOLID_ANGLE_UNIT()
);
#2043=SHAPE_DEFINITION_REPRESENTATION(#2044,#2045);
#2044=PRODUCT_DEFINITION_SHAPE('',$,#2047);
#2045=SHAPE_REPRESENTATION('',(#1199),#2037);
#2046=PRODUCT_DEFINITION_CONTEXT('part definition',#2051,'design');
#2047=PRODUCT_DEFINITION('2025-12-04-19-24-42-015',
'Bearing_sprocket_V2',#2048,#2046);
#2048=PRODUCT_DEFINITION_FORMATION('',$,#2053);
#2049=PRODUCT_RELATED_PRODUCT_CATEGORY('Bearing_sprocket_V2',
'Bearing_sprocket_V2',(#2053));
#2050=APPLICATION_PROTOCOL_DEFINITION('international standard',
'automotive_design',2009,#2051);
#2051=APPLICATION_CONTEXT(
'Core Data for Automotive Mechanical Design Process');
#2052=PRODUCT_CONTEXT('part definition',#2051,'mechanical');
#2053=PRODUCT('2025-12-04-19-24-42-015','Bearing_sprocket_V2',$,(#2052));
#2054=PRESENTATION_STYLE_ASSIGNMENT((#2055));
#2055=SURFACE_STYLE_USAGE(.BOTH.,#2056);
#2056=SURFACE_SIDE_STYLE('',(#2057));
#2057=SURFACE_STYLE_FILL_AREA(#2058);
#2058=FILL_AREA_STYLE('Plate',(#2059));
#2059=FILL_AREA_STYLE_COLOUR('Plate',#2060);
#2060=COLOUR_RGB('Plate',0.6,0.6,0.6);
ENDSEC;
END-ISO-10303-21;
