ISO-10303-21;
HEADER;
/* Generated by software containing ST-Developer
 * from STEP Tools, Inc. (www.steptools.com) 
 */

FILE_DESCRIPTION(
/* description */ (''),
/* implementation_level */ '2;1');

FILE_NAME(
/* name */ 'Drive Motor Holder.step',
/* time_stamp */ '2026-08-27T11:18:01-05:00',
/* author */ (''),
/* organization */ (''),
/* preprocessor_version */ 'ST-DEVELOPER v20.1',
/* originating_system */ 'Autodesk Translation Framework v15.8.0.0',
/* authorisation */ '');

FILE_SCHEMA (('AUTOMOTIVE_DESIGN { 1 0 10303 214 3 1 1 }'));
ENDSEC;

DATA;
#10=MECHANICAL_DESIGN_GEOMETRIC_PRESENTATION_REPRESENTATION('',(#13),#1640);
#11=SHAPE_REPRESENTATION_RELATIONSHIP('SRR','None',#1647,#12);
#12=ADVANCED_BREP_SHAPE_REPRESENTATION('',(#14),#1639);
#13=STYLED_ITEM('',(#1656),#14);
#14=MANIFOLD_SOLID_BREP('Body1',#921);
#15=B_SPLINE_CURVE_WITH_KNOTS('',3,(#1535,#1536,#1537,#1538,#1539,#1540),
 .UNSPECIFIED.,.F.,.F.,(4,2,4),(1.25611157054616,1.57780910897002,1.89950664739388),
 .UNSPECIFIED.);
#16=B_SPLINE_CURVE_WITH_KNOTS('',3,(#1557,#1558,#1559,#1560,#1561,#1562),
 .UNSPECIFIED.,.F.,.F.,(4,2,4),(0.,0.32169760597438,0.64339521194876),
 .UNSPECIFIED.);
#17=SPHERICAL_SURFACE('',#971,1.);
#18=SPHERICAL_SURFACE('',#976,1.);
#19=SPHERICAL_SURFACE('',#998,1.);
#20=SPHERICAL_SURFACE('',#1000,1.);
#21=FACE_BOUND('',#124,.T.);
#22=FACE_BOUND('',#128,.T.);
#23=FACE_BOUND('',#138,.T.);
#24=FACE_BOUND('',#139,.T.);
#25=FACE_BOUND('',#148,.T.);
#26=FACE_BOUND('',#149,.T.);
#27=FACE_BOUND('',#173,.T.);
#28=FACE_BOUND('',#174,.T.);
#29=FACE_BOUND('',#175,.T.);
#30=FACE_BOUND('',#176,.T.);
#31=FACE_BOUND('',#177,.T.);
#32=FACE_BOUND('',#183,.T.);
#33=FACE_BOUND('',#184,.T.);
#34=FACE_BOUND('',#185,.T.);
#35=FACE_BOUND('',#186,.T.);
#36=FACE_BOUND('',#187,.T.);
#37=FACE_BOUND('',#189,.T.);
#38=FACE_BOUND('',#190,.T.);
#39=FACE_BOUND('',#191,.T.);
#40=FACE_BOUND('',#192,.T.);
#41=PLANE('',#951);
#42=PLANE('',#960);
#43=PLANE('',#978);
#44=PLANE('',#984);
#45=PLANE('',#1004);
#46=PLANE('',#1013);
#47=PLANE('',#1016);
#48=PLANE('',#1021);
#49=PLANE('',#1024);
#50=PLANE('',#1048);
#51=PLANE('',#1051);
#52=PLANE('',#1054);
#53=PLANE('',#1057);
#54=PLANE('',#1058);
#55=TOROIDAL_SURFACE('',#947,17.2,1.);
#56=TOROIDAL_SURFACE('',#955,20.2,1.);
#57=TOROIDAL_SURFACE('',#1011,9.,1.);
#58=TOROIDAL_SURFACE('',#1019,9.,1.);
#59=TOROIDAL_SURFACE('',#1025,9.,1.);
#60=TOROIDAL_SURFACE('',#1029,21.5,1.);
#61=TOROIDAL_SURFACE('',#1034,9.,1.);
#62=TOROIDAL_SURFACE('',#1043,20.5,2.);
#63=FACE_OUTER_BOUND('',#118,.T.);
#64=FACE_OUTER_BOUND('',#119,.T.);
#65=FACE_OUTER_BOUND('',#120,.T.);
#66=FACE_OUTER_BOUND('',#121,.T.);
#67=FACE_OUTER_BOUND('',#122,.T.);
#68=FACE_OUTER_BOUND('',#123,.T.);
#69=FACE_OUTER_BOUND('',#125,.T.);
#70=FACE_OUTER_BOUND('',#126,.T.);
#71=FACE_OUTER_BOUND('',#127,.T.);
#72=FACE_OUTER_BOUND('',#129,.T.);
#73=FACE_OUTER_BOUND('',#130,.T.);
#74=FACE_OUTER_BOUND('',#131,.T.);
#75=FACE_OUTER_BOUND('',#132,.T.);
#76=FACE_OUTER_BOUND('',#133,.T.);
#77=FACE_OUTER_BOUND('',#134,.T.);
#78=FACE_OUTER_BOUND('',#135,.T.);
#79=FACE_OUTER_BOUND('',#136,.T.);
#80=FACE_OUTER_BOUND('',#137,.T.);
#81=FACE_OUTER_BOUND('',#140,.T.);
#82=FACE_OUTER_BOUND('',#141,.T.);
#83=FACE_OUTER_BOUND('',#142,.T.);
#84=FACE_OUTER_BOUND('',#143,.T.);
#85=FACE_OUTER_BOUND('',#144,.T.);
#86=FACE_OUTER_BOUND('',#145,.T.);
#87=FACE_OUTER_BOUND('',#146,.T.);
#88=FACE_OUTER_BOUND('',#147,.T.);
#89=FACE_OUTER_BOUND('',#150,.T.);
#90=FACE_OUTER_BOUND('',#151,.T.);
#91=FACE_OUTER_BOUND('',#152,.T.);
#92=FACE_OUTER_BOUND('',#153,.T.);
#93=FACE_OUTER_BOUND('',#154,.T.);
#94=FACE_OUTER_BOUND('',#155,.T.);
#95=FACE_OUTER_BOUND('',#156,.T.);
#96=FACE_OUTER_BOUND('',#157,.T.);
#97=FACE_OUTER_BOUND('',#158,.T.);
#98=FACE_OUTER_BOUND('',#159,.T.);
#99=FACE_OUTER_BOUND('',#160,.T.);
#100=FACE_OUTER_BOUND('',#161,.T.);
#101=FACE_OUTER_BOUND('',#162,.T.);
#102=FACE_OUTER_BOUND('',#163,.T.);
#103=FACE_OUTER_BOUND('',#164,.T.);
#104=FACE_OUTER_BOUND('',#165,.T.);
#105=FACE_OUTER_BOUND('',#166,.T.);
#106=FACE_OUTER_BOUND('',#167,.T.);
#107=FACE_OUTER_BOUND('',#168,.T.);
#108=FACE_OUTER_BOUND('',#169,.T.);
#109=FACE_OUTER_BOUND('',#170,.T.);
#110=FACE_OUTER_BOUND('',#171,.T.);
#111=FACE_OUTER_BOUND('',#172,.T.);
#112=FACE_OUTER_BOUND('',#178,.T.);
#113=FACE_OUTER_BOUND('',#179,.T.);
#114=FACE_OUTER_BOUND('',#180,.T.);
#115=FACE_OUTER_BOUND('',#181,.T.);
#116=FACE_OUTER_BOUND('',#182,.T.);
#117=FACE_OUTER_BOUND('',#188,.T.);
#118=EDGE_LOOP('',(#581,#582,#583,#584));
#119=EDGE_LOOP('',(#585,#586,#587,#588));
#120=EDGE_LOOP('',(#589,#590,#591,#592));
#121=EDGE_LOOP('',(#593,#594,#595,#596));
#122=EDGE_LOOP('',(#597,#598,#599,#600));
#123=EDGE_LOOP('',(#601));
#124=EDGE_LOOP('',(#602));
#125=EDGE_LOOP('',(#603,#604,#605,#606));
#126=EDGE_LOOP('',(#607,#608,#609,#610,#611));
#127=EDGE_LOOP('',(#612,#613,#614,#615,#616,#617,#618,#619,#620,#621));
#128=EDGE_LOOP('',(#622));
#129=EDGE_LOOP('',(#623,#624,#625,#626,#627));
#130=EDGE_LOOP('',(#628,#629,#630,#631));
#131=EDGE_LOOP('',(#632,#633,#634,#635));
#132=EDGE_LOOP('',(#636,#637,#638));
#133=EDGE_LOOP('',(#639,#640,#641,#642));
#134=EDGE_LOOP('',(#643,#644,#645));
#135=EDGE_LOOP('',(#646,#647,#648,#649,#650,#651,#652,#653,#654,#655));
#136=EDGE_LOOP('',(#656,#657,#658,#659));
#137=EDGE_LOOP('',(#660,#661,#662,#663));
#138=EDGE_LOOP('',(#664));
#139=EDGE_LOOP('',(#665));
#140=EDGE_LOOP('',(#666,#667,#668,#669));
#141=EDGE_LOOP('',(#670,#671,#672,#673));
#142=EDGE_LOOP('',(#674,#675,#676,#677));
#143=EDGE_LOOP('',(#678,#679,#680,#681));
#144=EDGE_LOOP('',(#682,#683,#684));
#145=EDGE_LOOP('',(#685,#686,#687));
#146=EDGE_LOOP('',(#688,#689,#690,#691));
#147=EDGE_LOOP('',(#692,#693,#694,#695));
#148=EDGE_LOOP('',(#696));
#149=EDGE_LOOP('',(#697));
#150=EDGE_LOOP('',(#698,#699,#700,#701));
#151=EDGE_LOOP('',(#702,#703,#704,#705));
#152=EDGE_LOOP('',(#706,#707,#708,#709));
#153=EDGE_LOOP('',(#710,#711,#712,#713));
#154=EDGE_LOOP('',(#714,#715,#716,#717));
#155=EDGE_LOOP('',(#718,#719,#720,#721));
#156=EDGE_LOOP('',(#722,#723,#724,#725));
#157=EDGE_LOOP('',(#726,#727,#728,#729));
#158=EDGE_LOOP('',(#730,#731,#732,#733));
#159=EDGE_LOOP('',(#734,#735,#736,#737));
#160=EDGE_LOOP('',(#738,#739,#740,#741));
#161=EDGE_LOOP('',(#742,#743,#744,#745));
#162=EDGE_LOOP('',(#746,#747,#748,#749));
#163=EDGE_LOOP('',(#750,#751,#752,#753));
#164=EDGE_LOOP('',(#754,#755,#756,#757));
#165=EDGE_LOOP('',(#758,#759,#760,#761));
#166=EDGE_LOOP('',(#762,#763,#764,#765));
#167=EDGE_LOOP('',(#766,#767,#768,#769));
#168=EDGE_LOOP('',(#770,#771,#772,#773));
#169=EDGE_LOOP('',(#774,#775,#776,#777));
#170=EDGE_LOOP('',(#778,#779,#780,#781));
#171=EDGE_LOOP('',(#782,#783,#784,#785,#786,#787,#788,#789,#790));
#172=EDGE_LOOP('',(#791));
#173=EDGE_LOOP('',(#792));
#174=EDGE_LOOP('',(#793));
#175=EDGE_LOOP('',(#794));
#176=EDGE_LOOP('',(#795));
#177=EDGE_LOOP('',(#796,#797,#798,#799));
#178=EDGE_LOOP('',(#800,#801,#802,#803));
#179=EDGE_LOOP('',(#804,#805,#806,#807));
#180=EDGE_LOOP('',(#808,#809,#810,#811));
#181=EDGE_LOOP('',(#812,#813,#814,#815));
#182=EDGE_LOOP('',(#816));
#183=EDGE_LOOP('',(#817));
#184=EDGE_LOOP('',(#818));
#185=EDGE_LOOP('',(#819));
#186=EDGE_LOOP('',(#820));
#187=EDGE_LOOP('',(#821,#822,#823,#824));
#188=EDGE_LOOP('',(#825,#826,#827,#828,#829,#830,#831,#832));
#189=EDGE_LOOP('',(#833));
#190=EDGE_LOOP('',(#834));
#191=EDGE_LOOP('',(#835));
#192=EDGE_LOOP('',(#836));
#193=LINE('',#1371,#250);
#194=LINE('',#1377,#251);
#195=LINE('',#1383,#252);
#196=LINE('',#1389,#253);
#197=LINE('',#1402,#254);
#198=LINE('',#1415,#255);
#199=LINE('',#1417,#256);
#200=LINE('',#1419,#257);
#201=LINE('',#1421,#258);
#202=LINE('',#1425,#259);
#203=LINE('',#1429,#260);
#204=LINE('',#1432,#261);
#205=LINE('',#1434,#262);
#206=LINE('',#1440,#263);
#207=LINE('',#1443,#264);
#208=LINE('',#1448,#265);
#209=LINE('',#1451,#266);
#210=LINE('',#1458,#267);
#211=LINE('',#1463,#268);
#212=LINE('',#1467,#269);
#213=LINE('',#1471,#270);
#214=LINE('',#1475,#271);
#215=LINE('',#1477,#272);
#216=LINE('',#1478,#273);
#217=LINE('',#1481,#274);
#218=LINE('',#1485,#275);
#219=LINE('',#1486,#276);
#220=LINE('',#1497,#277);
#221=LINE('',#1504,#278);
#222=LINE('',#1506,#279);
#223=LINE('',#1511,#280);
#224=LINE('',#1518,#281);
#225=LINE('',#1522,#282);
#226=LINE('',#1523,#283);
#227=LINE('',#1534,#284);
#228=LINE('',#1545,#285);
#229=LINE('',#1547,#286);
#230=LINE('',#1548,#287);
#231=LINE('',#1552,#288);
#232=LINE('',#1563,#289);
#233=LINE('',#1567,#290);
#234=LINE('',#1570,#291);
#235=LINE('',#1574,#292);
#236=LINE('',#1575,#293);
#237=LINE('',#1588,#294);
#238=LINE('',#1592,#295);
#239=LINE('',#1596,#296);
#240=LINE('',#1600,#297);
#241=LINE('',#1609,#298);
#242=LINE('',#1615,#299);
#243=LINE('',#1618,#300);
#244=LINE('',#1622,#301);
#245=LINE('',#1623,#302);
#246=LINE('',#1624,#303);
#247=LINE('',#1628,#304);
#248=LINE('',#1631,#305);
#249=LINE('',#1632,#306);
#250=VECTOR('',#1065,1.7);
#251=VECTOR('',#1072,1.7);
#252=VECTOR('',#1079,1.7);
#253=VECTOR('',#1086,1.7);
#254=VECTOR('',#1103,16.2);
#255=VECTOR('',#1118,10.);
#256=VECTOR('',#1119,10.);
#257=VECTOR('',#1120,10.);
#258=VECTOR('',#1121,10.);
#259=VECTOR('',#1124,10.);
#260=VECTOR('',#1127,10.);
#261=VECTOR('',#1130,10.);
#262=VECTOR('',#1133,19.2);
#263=VECTOR('',#1138,10.);
#264=VECTOR('',#1141,10.);
#265=VECTOR('',#1146,10.);
#266=VECTOR('',#1149,10.);
#267=VECTOR('',#1160,10.);
#268=VECTOR('',#1167,10.);
#269=VECTOR('',#1170,10.);
#270=VECTOR('',#1173,10.);
#271=VECTOR('',#1176,10.);
#272=VECTOR('',#1177,10.);
#273=VECTOR('',#1178,10.);
#274=VECTOR('',#1181,10.);
#275=VECTOR('',#1186,10.);
#276=VECTOR('',#1187,10.);
#277=VECTOR('',#1200,10.);
#278=VECTOR('',#1207,10.);
#279=VECTOR('',#1210,10.);
#280=VECTOR('',#1217,10.);
#281=VECTOR('',#1228,10.);
#282=VECTOR('',#1233,10.);
#283=VECTOR('',#1234,10.);
#284=VECTOR('',#1247,10.);
#285=VECTOR('',#1254,10.);
#286=VECTOR('',#1255,10.);
#287=VECTOR('',#1256,10.);
#288=VECTOR('',#1263,10.);
#289=VECTOR('',#1268,10.);
#290=VECTOR('',#1275,10.);
#291=VECTOR('',#1278,10.);
#292=VECTOR('',#1283,10.);
#293=VECTOR('',#1284,10.);
#294=VECTOR('',#1307,1.7);
#295=VECTOR('',#1312,1.7);
#296=VECTOR('',#1317,1.7);
#297=VECTOR('',#1322,1.7);
#298=VECTOR('',#1335,22.5);
#299=VECTOR('',#1340,10.);
#300=VECTOR('',#1343,10.);
#301=VECTOR('',#1346,10.);
#302=VECTOR('',#1347,10.);
#303=VECTOR('',#1348,10.);
#304=VECTOR('',#1353,10.);
#305=VECTOR('',#1356,10.);
#306=VECTOR('',#1357,10.);
#307=CIRCLE('',#936,1.7);
#308=CIRCLE('',#937,1.7);
#309=CIRCLE('',#939,1.7);
#310=CIRCLE('',#940,1.7);
#311=CIRCLE('',#942,1.7);
#312=CIRCLE('',#943,1.7);
#313=CIRCLE('',#945,1.7);
#314=CIRCLE('',#946,1.7);
#315=CIRCLE('',#948,17.2);
#316=CIRCLE('',#949,1.);
#317=CIRCLE('',#950,16.2);
#318=CIRCLE('',#952,19.2);
#319=CIRCLE('',#954,16.2);
#320=CIRCLE('',#956,20.2);
#321=CIRCLE('',#957,1.);
#322=CIRCLE('',#958,19.2);
#323=CIRCLE('',#959,19.2);
#324=CIRCLE('',#961,9.);
#325=CIRCLE('',#962,21.5);
#326=CIRCLE('',#963,9.);
#327=CIRCLE('',#966,1.);
#328=CIRCLE('',#967,1.);
#329=CIRCLE('',#969,1.);
#330=CIRCLE('',#970,1.);
#331=CIRCLE('',#972,1.);
#332=CIRCLE('',#974,1.);
#333=CIRCLE('',#975,0.999999999999996);
#334=CIRCLE('',#977,1.);
#335=CIRCLE('',#979,9.);
#336=CIRCLE('',#980,22.5);
#337=CIRCLE('',#981,9.);
#338=CIRCLE('',#983,0.999999999999996);
#339=CIRCLE('',#985,1.7);
#340=CIRCLE('',#986,1.7);
#341=CIRCLE('',#988,0.999999999999999);
#342=CIRCLE('',#990,1.);
#343=CIRCLE('',#991,0.999999999999996);
#344=CIRCLE('',#993,1.00000000000001);
#345=CIRCLE('',#994,1.);
#346=CIRCLE('',#996,1.);
#347=CIRCLE('',#997,0.999999999999996);
#348=CIRCLE('',#999,1.);
#349=CIRCLE('',#1001,1.);
#350=CIRCLE('',#1003,1.);
#351=CIRCLE('',#1005,1.7);
#352=CIRCLE('',#1006,1.7);
#353=CIRCLE('',#1008,1.);
#354=CIRCLE('',#1010,0.999999999999996);
#355=CIRCLE('',#1012,8.);
#356=CIRCLE('',#1015,8.);
#357=CIRCLE('',#1018,0.999999999999988);
#358=CIRCLE('',#1020,8.);
#359=CIRCLE('',#1023,8.);
#360=CIRCLE('',#1026,0.999999999999996);
#361=CIRCLE('',#1028,0.999999999999623);
#362=CIRCLE('',#1030,1.00000022351259);
#363=CIRCLE('',#1031,22.5);
#364=CIRCLE('',#1033,0.999999999999999);
#365=CIRCLE('',#1036,1.7);
#366=CIRCLE('',#1038,1.7);
#367=CIRCLE('',#1040,1.7);
#368=CIRCLE('',#1042,1.7);
#369=CIRCLE('',#1044,20.5);
#370=CIRCLE('',#1045,2.);
#371=CIRCLE('',#1046,22.5);
#372=CIRCLE('',#1049,10.4);
#373=CIRCLE('',#1050,10.4);
#374=CIRCLE('',#1053,10.4);
#375=CIRCLE('',#1056,10.4);
#376=VERTEX_POINT('',#1368);
#377=VERTEX_POINT('',#1370);
#378=VERTEX_POINT('',#1374);
#379=VERTEX_POINT('',#1376);
#380=VERTEX_POINT('',#1380);
#381=VERTEX_POINT('',#1382);
#382=VERTEX_POINT('',#1386);
#383=VERTEX_POINT('',#1388);
#384=VERTEX_POINT('',#1392);
#385=VERTEX_POINT('',#1394);
#386=VERTEX_POINT('',#1398);
#387=VERTEX_POINT('',#1401);
#388=VERTEX_POINT('',#1405);
#389=VERTEX_POINT('',#1407);
#390=VERTEX_POINT('',#1409);
#391=VERTEX_POINT('',#1413);
#392=VERTEX_POINT('',#1414);
#393=VERTEX_POINT('',#1416);
#394=VERTEX_POINT('',#1418);
#395=VERTEX_POINT('',#1420);
#396=VERTEX_POINT('',#1422);
#397=VERTEX_POINT('',#1424);
#398=VERTEX_POINT('',#1426);
#399=VERTEX_POINT('',#1428);
#400=VERTEX_POINT('',#1430);
#401=VERTEX_POINT('',#1436);
#402=VERTEX_POINT('',#1437);
#403=VERTEX_POINT('',#1439);
#404=VERTEX_POINT('',#1441);
#405=VERTEX_POINT('',#1445);
#406=VERTEX_POINT('',#1447);
#407=VERTEX_POINT('',#1449);
#408=VERTEX_POINT('',#1455);
#409=VERTEX_POINT('',#1462);
#410=VERTEX_POINT('',#1464);
#411=VERTEX_POINT('',#1466);
#412=VERTEX_POINT('',#1468);
#413=VERTEX_POINT('',#1470);
#414=VERTEX_POINT('',#1472);
#415=VERTEX_POINT('',#1474);
#416=VERTEX_POINT('',#1476);
#417=VERTEX_POINT('',#1480);
#418=VERTEX_POINT('',#1484);
#419=VERTEX_POINT('',#1487);
#420=VERTEX_POINT('',#1489);
#421=VERTEX_POINT('',#1494);
#422=VERTEX_POINT('',#1496);
#423=VERTEX_POINT('',#1500);
#424=VERTEX_POINT('',#1501);
#425=VERTEX_POINT('',#1503);
#426=VERTEX_POINT('',#1508);
#427=VERTEX_POINT('',#1517);
#428=VERTEX_POINT('',#1521);
#429=VERTEX_POINT('',#1524);
#430=VERTEX_POINT('',#1526);
#431=VERTEX_POINT('',#1531);
#432=VERTEX_POINT('',#1533);
#433=VERTEX_POINT('',#1544);
#434=VERTEX_POINT('',#1546);
#435=VERTEX_POINT('',#1554);
#436=VERTEX_POINT('',#1556);
#437=VERTEX_POINT('',#1569);
#438=VERTEX_POINT('',#1573);
#439=VERTEX_POINT('',#1587);
#440=VERTEX_POINT('',#1591);
#441=VERTEX_POINT('',#1595);
#442=VERTEX_POINT('',#1599);
#443=VERTEX_POINT('',#1603);
#444=VERTEX_POINT('',#1605);
#445=VERTEX_POINT('',#1611);
#446=VERTEX_POINT('',#1612);
#447=VERTEX_POINT('',#1614);
#448=VERTEX_POINT('',#1616);
#449=VERTEX_POINT('',#1620);
#450=VERTEX_POINT('',#1621);
#451=VERTEX_POINT('',#1626);
#452=VERTEX_POINT('',#1630);
#453=EDGE_CURVE('',#376,#376,#307,.T.);
#454=EDGE_CURVE('',#376,#377,#193,.T.);
#455=EDGE_CURVE('',#377,#377,#308,.T.);
#456=EDGE_CURVE('',#378,#378,#309,.T.);
#457=EDGE_CURVE('',#378,#379,#194,.T.);
#458=EDGE_CURVE('',#379,#379,#310,.T.);
#459=EDGE_CURVE('',#380,#380,#311,.T.);
#460=EDGE_CURVE('',#380,#381,#195,.T.);
#461=EDGE_CURVE('',#381,#381,#312,.T.);
#462=EDGE_CURVE('',#382,#382,#313,.T.);
#463=EDGE_CURVE('',#382,#383,#196,.T.);
#464=EDGE_CURVE('',#383,#383,#314,.T.);
#465=EDGE_CURVE('',#384,#384,#315,.T.);
#466=EDGE_CURVE('',#384,#385,#316,.T.);
#467=EDGE_CURVE('',#385,#385,#317,.T.);
#468=EDGE_CURVE('',#386,#386,#318,.T.);
#469=EDGE_CURVE('',#385,#387,#197,.T.);
#470=EDGE_CURVE('',#387,#387,#319,.T.);
#471=EDGE_CURVE('',#388,#388,#320,.T.);
#472=EDGE_CURVE('',#388,#389,#321,.T.);
#473=EDGE_CURVE('',#389,#390,#322,.T.);
#474=EDGE_CURVE('',#390,#389,#323,.T.);
#475=EDGE_CURVE('',#391,#392,#198,.T.);
#476=EDGE_CURVE('',#391,#393,#199,.T.);
#477=EDGE_CURVE('',#394,#393,#200,.T.);
#478=EDGE_CURVE('',#395,#394,#201,.T.);
#479=EDGE_CURVE('',#396,#395,#324,.T.);
#480=EDGE_CURVE('',#397,#396,#202,.T.);
#481=EDGE_CURVE('',#398,#397,#325,.T.);
#482=EDGE_CURVE('',#399,#398,#203,.T.);
#483=EDGE_CURVE('',#400,#399,#326,.T.);
#484=EDGE_CURVE('',#392,#400,#204,.T.);
#485=EDGE_CURVE('',#390,#386,#205,.T.);
#486=EDGE_CURVE('',#401,#402,#327,.T.);
#487=EDGE_CURVE('',#402,#403,#206,.T.);
#488=EDGE_CURVE('',#403,#404,#328,.T.);
#489=EDGE_CURVE('',#404,#401,#207,.T.);
#490=EDGE_CURVE('',#405,#403,#329,.T.);
#491=EDGE_CURVE('',#403,#406,#208,.T.);
#492=EDGE_CURVE('',#406,#407,#330,.T.);
#493=EDGE_CURVE('',#407,#405,#209,.T.);
#494=EDGE_CURVE('',#405,#404,#331,.T.);
#495=EDGE_CURVE('',#408,#391,#332,.T.);
#496=EDGE_CURVE('',#392,#406,#333,.T.);
#497=EDGE_CURVE('',#406,#408,#210,.T.);
#498=EDGE_CURVE('',#392,#407,#334,.T.);
#499=EDGE_CURVE('',#409,#404,#211,.T.);
#500=EDGE_CURVE('',#410,#409,#335,.T.);
#501=EDGE_CURVE('',#411,#410,#212,.T.);
#502=EDGE_CURVE('',#412,#411,#336,.T.);
#503=EDGE_CURVE('',#413,#412,#213,.T.);
#504=EDGE_CURVE('',#414,#413,#337,.T.);
#505=EDGE_CURVE('',#415,#414,#214,.T.);
#506=EDGE_CURVE('',#416,#415,#215,.T.);
#507=EDGE_CURVE('',#416,#401,#216,.T.);
#508=EDGE_CURVE('',#405,#417,#217,.T.);
#509=EDGE_CURVE('',#409,#417,#338,.T.);
#510=EDGE_CURVE('',#418,#407,#218,.T.);
#511=EDGE_CURVE('',#417,#418,#219,.T.);
#512=EDGE_CURVE('',#419,#419,#339,.T.);
#513=EDGE_CURVE('',#420,#420,#340,.T.);
#514=EDGE_CURVE('',#418,#400,#341,.T.);
#515=EDGE_CURVE('',#393,#421,#342,.T.);
#516=EDGE_CURVE('',#421,#422,#220,.T.);
#517=EDGE_CURVE('',#422,#394,#343,.T.);
#518=EDGE_CURVE('',#423,#424,#344,.T.);
#519=EDGE_CURVE('',#424,#425,#221,.T.);
#520=EDGE_CURVE('',#425,#422,#345,.T.);
#521=EDGE_CURVE('',#422,#423,#222,.T.);
#522=EDGE_CURVE('',#426,#416,#346,.T.);
#523=EDGE_CURVE('',#415,#423,#347,.T.);
#524=EDGE_CURVE('',#423,#426,#223,.T.);
#525=EDGE_CURVE('',#415,#424,#348,.T.);
#526=EDGE_CURVE('',#425,#394,#349,.T.);
#527=EDGE_CURVE('',#425,#427,#224,.T.);
#528=EDGE_CURVE('',#427,#395,#350,.T.);
#529=EDGE_CURVE('',#428,#424,#225,.T.);
#530=EDGE_CURVE('',#427,#428,#226,.T.);
#531=EDGE_CURVE('',#429,#429,#351,.T.);
#532=EDGE_CURVE('',#430,#430,#352,.T.);
#533=EDGE_CURVE('',#428,#414,#353,.T.);
#534=EDGE_CURVE('',#410,#431,#354,.T.);
#535=EDGE_CURVE('',#431,#432,#227,.T.);
#536=EDGE_CURVE('',#432,#411,#15,.F.);
#537=EDGE_CURVE('',#417,#431,#355,.T.);
#538=EDGE_CURVE('',#433,#431,#228,.T.);
#539=EDGE_CURVE('',#434,#433,#229,.T.);
#540=EDGE_CURVE('',#434,#432,#230,.T.);
#541=EDGE_CURVE('',#433,#418,#356,.T.);
#542=EDGE_CURVE('',#408,#402,#231,.T.);
#543=EDGE_CURVE('',#435,#413,#357,.T.);
#544=EDGE_CURVE('',#412,#436,#16,.F.);
#545=EDGE_CURVE('',#436,#435,#232,.T.);
#546=EDGE_CURVE('',#435,#428,#358,.T.);
#547=EDGE_CURVE('',#421,#426,#233,.T.);
#548=EDGE_CURVE('',#435,#437,#234,.T.);
#549=EDGE_CURVE('',#427,#437,#359,.T.);
#550=EDGE_CURVE('',#438,#436,#235,.T.);
#551=EDGE_CURVE('',#437,#438,#236,.T.);
#552=EDGE_CURVE('',#437,#396,#360,.T.);
#553=EDGE_CURVE('',#438,#397,#361,.T.);
#554=EDGE_CURVE('',#434,#398,#362,.T.);
#555=EDGE_CURVE('',#438,#434,#363,.T.);
#556=EDGE_CURVE('',#433,#399,#364,.T.);
#557=EDGE_CURVE('',#429,#439,#237,.T.);
#558=EDGE_CURVE('',#439,#439,#365,.T.);
#559=EDGE_CURVE('',#430,#440,#238,.T.);
#560=EDGE_CURVE('',#440,#440,#366,.T.);
#561=EDGE_CURVE('',#419,#441,#239,.T.);
#562=EDGE_CURVE('',#441,#441,#367,.T.);
#563=EDGE_CURVE('',#420,#442,#240,.T.);
#564=EDGE_CURVE('',#442,#442,#368,.T.);
#565=EDGE_CURVE('',#443,#443,#369,.T.);
#566=EDGE_CURVE('',#443,#444,#370,.T.);
#567=EDGE_CURVE('',#444,#444,#371,.T.);
#568=EDGE_CURVE('',#444,#436,#241,.T.);
#569=EDGE_CURVE('',#445,#446,#372,.T.);
#570=EDGE_CURVE('',#446,#447,#242,.T.);
#571=EDGE_CURVE('',#447,#448,#373,.T.);
#572=EDGE_CURVE('',#448,#445,#243,.T.);
#573=EDGE_CURVE('',#449,#450,#244,.T.);
#574=EDGE_CURVE('',#450,#445,#245,.T.);
#575=EDGE_CURVE('',#449,#448,#246,.T.);
#576=EDGE_CURVE('',#451,#449,#374,.T.);
#577=EDGE_CURVE('',#451,#447,#247,.T.);
#578=EDGE_CURVE('',#452,#451,#248,.T.);
#579=EDGE_CURVE('',#452,#446,#249,.T.);
#580=EDGE_CURVE('',#450,#452,#375,.T.);
#581=ORIENTED_EDGE('',*,*,#453,.F.);
#582=ORIENTED_EDGE('',*,*,#454,.T.);
#583=ORIENTED_EDGE('',*,*,#455,.F.);
#584=ORIENTED_EDGE('',*,*,#454,.F.);
#585=ORIENTED_EDGE('',*,*,#456,.F.);
#586=ORIENTED_EDGE('',*,*,#457,.T.);
#587=ORIENTED_EDGE('',*,*,#458,.F.);
#588=ORIENTED_EDGE('',*,*,#457,.F.);
#589=ORIENTED_EDGE('',*,*,#459,.F.);
#590=ORIENTED_EDGE('',*,*,#460,.T.);
#591=ORIENTED_EDGE('',*,*,#461,.F.);
#592=ORIENTED_EDGE('',*,*,#460,.F.);
#593=ORIENTED_EDGE('',*,*,#462,.F.);
#594=ORIENTED_EDGE('',*,*,#463,.T.);
#595=ORIENTED_EDGE('',*,*,#464,.F.);
#596=ORIENTED_EDGE('',*,*,#463,.F.);
#597=ORIENTED_EDGE('',*,*,#465,.T.);
#598=ORIENTED_EDGE('',*,*,#466,.T.);
#599=ORIENTED_EDGE('',*,*,#467,.T.);
#600=ORIENTED_EDGE('',*,*,#466,.F.);
#601=ORIENTED_EDGE('',*,*,#468,.F.);
#602=ORIENTED_EDGE('',*,*,#465,.F.);
#603=ORIENTED_EDGE('',*,*,#467,.F.);
#604=ORIENTED_EDGE('',*,*,#469,.T.);
#605=ORIENTED_EDGE('',*,*,#470,.F.);
#606=ORIENTED_EDGE('',*,*,#469,.F.);
#607=ORIENTED_EDGE('',*,*,#471,.T.);
#608=ORIENTED_EDGE('',*,*,#472,.T.);
#609=ORIENTED_EDGE('',*,*,#473,.T.);
#610=ORIENTED_EDGE('',*,*,#474,.T.);
#611=ORIENTED_EDGE('',*,*,#472,.F.);
#612=ORIENTED_EDGE('',*,*,#475,.F.);
#613=ORIENTED_EDGE('',*,*,#476,.T.);
#614=ORIENTED_EDGE('',*,*,#477,.F.);
#615=ORIENTED_EDGE('',*,*,#478,.F.);
#616=ORIENTED_EDGE('',*,*,#479,.F.);
#617=ORIENTED_EDGE('',*,*,#480,.F.);
#618=ORIENTED_EDGE('',*,*,#481,.F.);
#619=ORIENTED_EDGE('',*,*,#482,.F.);
#620=ORIENTED_EDGE('',*,*,#483,.F.);
#621=ORIENTED_EDGE('',*,*,#484,.F.);
#622=ORIENTED_EDGE('',*,*,#471,.F.);
#623=ORIENTED_EDGE('',*,*,#474,.F.);
#624=ORIENTED_EDGE('',*,*,#485,.T.);
#625=ORIENTED_EDGE('',*,*,#468,.T.);
#626=ORIENTED_EDGE('',*,*,#485,.F.);
#627=ORIENTED_EDGE('',*,*,#473,.F.);
#628=ORIENTED_EDGE('',*,*,#486,.T.);
#629=ORIENTED_EDGE('',*,*,#487,.T.);
#630=ORIENTED_EDGE('',*,*,#488,.T.);
#631=ORIENTED_EDGE('',*,*,#489,.T.);
#632=ORIENTED_EDGE('',*,*,#490,.T.);
#633=ORIENTED_EDGE('',*,*,#491,.T.);
#634=ORIENTED_EDGE('',*,*,#492,.T.);
#635=ORIENTED_EDGE('',*,*,#493,.T.);
#636=ORIENTED_EDGE('',*,*,#490,.F.);
#637=ORIENTED_EDGE('',*,*,#494,.T.);
#638=ORIENTED_EDGE('',*,*,#488,.F.);
#639=ORIENTED_EDGE('',*,*,#495,.T.);
#640=ORIENTED_EDGE('',*,*,#475,.T.);
#641=ORIENTED_EDGE('',*,*,#496,.T.);
#642=ORIENTED_EDGE('',*,*,#497,.T.);
#643=ORIENTED_EDGE('',*,*,#496,.F.);
#644=ORIENTED_EDGE('',*,*,#498,.T.);
#645=ORIENTED_EDGE('',*,*,#492,.F.);
#646=ORIENTED_EDGE('',*,*,#489,.F.);
#647=ORIENTED_EDGE('',*,*,#499,.F.);
#648=ORIENTED_EDGE('',*,*,#500,.F.);
#649=ORIENTED_EDGE('',*,*,#501,.F.);
#650=ORIENTED_EDGE('',*,*,#502,.F.);
#651=ORIENTED_EDGE('',*,*,#503,.F.);
#652=ORIENTED_EDGE('',*,*,#504,.F.);
#653=ORIENTED_EDGE('',*,*,#505,.F.);
#654=ORIENTED_EDGE('',*,*,#506,.F.);
#655=ORIENTED_EDGE('',*,*,#507,.T.);
#656=ORIENTED_EDGE('',*,*,#494,.F.);
#657=ORIENTED_EDGE('',*,*,#508,.T.);
#658=ORIENTED_EDGE('',*,*,#509,.F.);
#659=ORIENTED_EDGE('',*,*,#499,.T.);
#660=ORIENTED_EDGE('',*,*,#493,.F.);
#661=ORIENTED_EDGE('',*,*,#510,.F.);
#662=ORIENTED_EDGE('',*,*,#511,.F.);
#663=ORIENTED_EDGE('',*,*,#508,.F.);
#664=ORIENTED_EDGE('',*,*,#512,.T.);
#665=ORIENTED_EDGE('',*,*,#513,.T.);
#666=ORIENTED_EDGE('',*,*,#498,.F.);
#667=ORIENTED_EDGE('',*,*,#484,.T.);
#668=ORIENTED_EDGE('',*,*,#514,.F.);
#669=ORIENTED_EDGE('',*,*,#510,.T.);
#670=ORIENTED_EDGE('',*,*,#515,.T.);
#671=ORIENTED_EDGE('',*,*,#516,.T.);
#672=ORIENTED_EDGE('',*,*,#517,.T.);
#673=ORIENTED_EDGE('',*,*,#477,.T.);
#674=ORIENTED_EDGE('',*,*,#518,.T.);
#675=ORIENTED_EDGE('',*,*,#519,.T.);
#676=ORIENTED_EDGE('',*,*,#520,.T.);
#677=ORIENTED_EDGE('',*,*,#521,.T.);
#678=ORIENTED_EDGE('',*,*,#522,.T.);
#679=ORIENTED_EDGE('',*,*,#506,.T.);
#680=ORIENTED_EDGE('',*,*,#523,.T.);
#681=ORIENTED_EDGE('',*,*,#524,.T.);
#682=ORIENTED_EDGE('',*,*,#523,.F.);
#683=ORIENTED_EDGE('',*,*,#525,.T.);
#684=ORIENTED_EDGE('',*,*,#518,.F.);
#685=ORIENTED_EDGE('',*,*,#520,.F.);
#686=ORIENTED_EDGE('',*,*,#526,.T.);
#687=ORIENTED_EDGE('',*,*,#517,.F.);
#688=ORIENTED_EDGE('',*,*,#526,.F.);
#689=ORIENTED_EDGE('',*,*,#527,.T.);
#690=ORIENTED_EDGE('',*,*,#528,.T.);
#691=ORIENTED_EDGE('',*,*,#478,.T.);
#692=ORIENTED_EDGE('',*,*,#519,.F.);
#693=ORIENTED_EDGE('',*,*,#529,.F.);
#694=ORIENTED_EDGE('',*,*,#530,.F.);
#695=ORIENTED_EDGE('',*,*,#527,.F.);
#696=ORIENTED_EDGE('',*,*,#531,.T.);
#697=ORIENTED_EDGE('',*,*,#532,.T.);
#698=ORIENTED_EDGE('',*,*,#525,.F.);
#699=ORIENTED_EDGE('',*,*,#505,.T.);
#700=ORIENTED_EDGE('',*,*,#533,.F.);
#701=ORIENTED_EDGE('',*,*,#529,.T.);
#702=ORIENTED_EDGE('',*,*,#534,.T.);
#703=ORIENTED_EDGE('',*,*,#535,.T.);
#704=ORIENTED_EDGE('',*,*,#536,.T.);
#705=ORIENTED_EDGE('',*,*,#501,.T.);
#706=ORIENTED_EDGE('',*,*,#509,.T.);
#707=ORIENTED_EDGE('',*,*,#537,.T.);
#708=ORIENTED_EDGE('',*,*,#534,.F.);
#709=ORIENTED_EDGE('',*,*,#500,.T.);
#710=ORIENTED_EDGE('',*,*,#535,.F.);
#711=ORIENTED_EDGE('',*,*,#538,.F.);
#712=ORIENTED_EDGE('',*,*,#539,.F.);
#713=ORIENTED_EDGE('',*,*,#540,.T.);
#714=ORIENTED_EDGE('',*,*,#537,.F.);
#715=ORIENTED_EDGE('',*,*,#511,.T.);
#716=ORIENTED_EDGE('',*,*,#541,.F.);
#717=ORIENTED_EDGE('',*,*,#538,.T.);
#718=ORIENTED_EDGE('',*,*,#487,.F.);
#719=ORIENTED_EDGE('',*,*,#542,.F.);
#720=ORIENTED_EDGE('',*,*,#497,.F.);
#721=ORIENTED_EDGE('',*,*,#491,.F.);
#722=ORIENTED_EDGE('',*,*,#543,.T.);
#723=ORIENTED_EDGE('',*,*,#503,.T.);
#724=ORIENTED_EDGE('',*,*,#544,.T.);
#725=ORIENTED_EDGE('',*,*,#545,.T.);
#726=ORIENTED_EDGE('',*,*,#533,.T.);
#727=ORIENTED_EDGE('',*,*,#504,.T.);
#728=ORIENTED_EDGE('',*,*,#543,.F.);
#729=ORIENTED_EDGE('',*,*,#546,.T.);
#730=ORIENTED_EDGE('',*,*,#516,.F.);
#731=ORIENTED_EDGE('',*,*,#547,.T.);
#732=ORIENTED_EDGE('',*,*,#524,.F.);
#733=ORIENTED_EDGE('',*,*,#521,.F.);
#734=ORIENTED_EDGE('',*,*,#546,.F.);
#735=ORIENTED_EDGE('',*,*,#548,.T.);
#736=ORIENTED_EDGE('',*,*,#549,.F.);
#737=ORIENTED_EDGE('',*,*,#530,.T.);
#738=ORIENTED_EDGE('',*,*,#545,.F.);
#739=ORIENTED_EDGE('',*,*,#550,.F.);
#740=ORIENTED_EDGE('',*,*,#551,.F.);
#741=ORIENTED_EDGE('',*,*,#548,.F.);
#742=ORIENTED_EDGE('',*,*,#552,.T.);
#743=ORIENTED_EDGE('',*,*,#479,.T.);
#744=ORIENTED_EDGE('',*,*,#528,.F.);
#745=ORIENTED_EDGE('',*,*,#549,.T.);
#746=ORIENTED_EDGE('',*,*,#553,.T.);
#747=ORIENTED_EDGE('',*,*,#480,.T.);
#748=ORIENTED_EDGE('',*,*,#552,.F.);
#749=ORIENTED_EDGE('',*,*,#551,.T.);
#750=ORIENTED_EDGE('',*,*,#554,.T.);
#751=ORIENTED_EDGE('',*,*,#481,.T.);
#752=ORIENTED_EDGE('',*,*,#553,.F.);
#753=ORIENTED_EDGE('',*,*,#555,.T.);
#754=ORIENTED_EDGE('',*,*,#556,.T.);
#755=ORIENTED_EDGE('',*,*,#482,.T.);
#756=ORIENTED_EDGE('',*,*,#554,.F.);
#757=ORIENTED_EDGE('',*,*,#539,.T.);
#758=ORIENTED_EDGE('',*,*,#514,.T.);
#759=ORIENTED_EDGE('',*,*,#483,.T.);
#760=ORIENTED_EDGE('',*,*,#556,.F.);
#761=ORIENTED_EDGE('',*,*,#541,.T.);
#762=ORIENTED_EDGE('',*,*,#531,.F.);
#763=ORIENTED_EDGE('',*,*,#557,.T.);
#764=ORIENTED_EDGE('',*,*,#558,.F.);
#765=ORIENTED_EDGE('',*,*,#557,.F.);
#766=ORIENTED_EDGE('',*,*,#532,.F.);
#767=ORIENTED_EDGE('',*,*,#559,.T.);
#768=ORIENTED_EDGE('',*,*,#560,.F.);
#769=ORIENTED_EDGE('',*,*,#559,.F.);
#770=ORIENTED_EDGE('',*,*,#512,.F.);
#771=ORIENTED_EDGE('',*,*,#561,.T.);
#772=ORIENTED_EDGE('',*,*,#562,.F.);
#773=ORIENTED_EDGE('',*,*,#561,.F.);
#774=ORIENTED_EDGE('',*,*,#513,.F.);
#775=ORIENTED_EDGE('',*,*,#563,.T.);
#776=ORIENTED_EDGE('',*,*,#564,.F.);
#777=ORIENTED_EDGE('',*,*,#563,.F.);
#778=ORIENTED_EDGE('',*,*,#565,.T.);
#779=ORIENTED_EDGE('',*,*,#566,.T.);
#780=ORIENTED_EDGE('',*,*,#567,.T.);
#781=ORIENTED_EDGE('',*,*,#566,.F.);
#782=ORIENTED_EDGE('',*,*,#567,.F.);
#783=ORIENTED_EDGE('',*,*,#568,.T.);
#784=ORIENTED_EDGE('',*,*,#544,.F.);
#785=ORIENTED_EDGE('',*,*,#502,.T.);
#786=ORIENTED_EDGE('',*,*,#536,.F.);
#787=ORIENTED_EDGE('',*,*,#540,.F.);
#788=ORIENTED_EDGE('',*,*,#555,.F.);
#789=ORIENTED_EDGE('',*,*,#550,.T.);
#790=ORIENTED_EDGE('',*,*,#568,.F.);
#791=ORIENTED_EDGE('',*,*,#565,.F.);
#792=ORIENTED_EDGE('',*,*,#453,.T.);
#793=ORIENTED_EDGE('',*,*,#456,.T.);
#794=ORIENTED_EDGE('',*,*,#459,.T.);
#795=ORIENTED_EDGE('',*,*,#462,.T.);
#796=ORIENTED_EDGE('',*,*,#569,.T.);
#797=ORIENTED_EDGE('',*,*,#570,.T.);
#798=ORIENTED_EDGE('',*,*,#571,.T.);
#799=ORIENTED_EDGE('',*,*,#572,.T.);
#800=ORIENTED_EDGE('',*,*,#573,.T.);
#801=ORIENTED_EDGE('',*,*,#574,.T.);
#802=ORIENTED_EDGE('',*,*,#572,.F.);
#803=ORIENTED_EDGE('',*,*,#575,.F.);
#804=ORIENTED_EDGE('',*,*,#576,.T.);
#805=ORIENTED_EDGE('',*,*,#575,.T.);
#806=ORIENTED_EDGE('',*,*,#571,.F.);
#807=ORIENTED_EDGE('',*,*,#577,.F.);
#808=ORIENTED_EDGE('',*,*,#578,.T.);
#809=ORIENTED_EDGE('',*,*,#577,.T.);
#810=ORIENTED_EDGE('',*,*,#570,.F.);
#811=ORIENTED_EDGE('',*,*,#579,.F.);
#812=ORIENTED_EDGE('',*,*,#580,.T.);
#813=ORIENTED_EDGE('',*,*,#579,.T.);
#814=ORIENTED_EDGE('',*,*,#569,.F.);
#815=ORIENTED_EDGE('',*,*,#574,.F.);
#816=ORIENTED_EDGE('',*,*,#470,.T.);
#817=ORIENTED_EDGE('',*,*,#455,.T.);
#818=ORIENTED_EDGE('',*,*,#458,.T.);
#819=ORIENTED_EDGE('',*,*,#461,.T.);
#820=ORIENTED_EDGE('',*,*,#464,.T.);
#821=ORIENTED_EDGE('',*,*,#580,.F.);
#822=ORIENTED_EDGE('',*,*,#573,.F.);
#823=ORIENTED_EDGE('',*,*,#576,.F.);
#824=ORIENTED_EDGE('',*,*,#578,.F.);
#825=ORIENTED_EDGE('',*,*,#486,.F.);
#826=ORIENTED_EDGE('',*,*,#507,.F.);
#827=ORIENTED_EDGE('',*,*,#522,.F.);
#828=ORIENTED_EDGE('',*,*,#547,.F.);
#829=ORIENTED_EDGE('',*,*,#515,.F.);
#830=ORIENTED_EDGE('',*,*,#476,.F.);
#831=ORIENTED_EDGE('',*,*,#495,.F.);
#832=ORIENTED_EDGE('',*,*,#542,.T.);
#833=ORIENTED_EDGE('',*,*,#558,.T.);
#834=ORIENTED_EDGE('',*,*,#560,.T.);
#835=ORIENTED_EDGE('',*,*,#562,.T.);
#836=ORIENTED_EDGE('',*,*,#564,.T.);
#837=CYLINDRICAL_SURFACE('',#935,1.7);
#838=CYLINDRICAL_SURFACE('',#938,1.7);
#839=CYLINDRICAL_SURFACE('',#941,1.7);
#840=CYLINDRICAL_SURFACE('',#944,1.7);
#841=CYLINDRICAL_SURFACE('',#953,16.2);
#842=CYLINDRICAL_SURFACE('',#964,19.2);
#843=CYLINDRICAL_SURFACE('',#965,1.);
#844=CYLINDRICAL_SURFACE('',#968,1.);
#845=CYLINDRICAL_SURFACE('',#973,1.);
#846=CYLINDRICAL_SURFACE('',#982,1.);
#847=CYLINDRICAL_SURFACE('',#987,1.);
#848=CYLINDRICAL_SURFACE('',#989,1.);
#849=CYLINDRICAL_SURFACE('',#992,1.);
#850=CYLINDRICAL_SURFACE('',#995,1.);
#851=CYLINDRICAL_SURFACE('',#1002,1.);
#852=CYLINDRICAL_SURFACE('',#1007,1.);
#853=CYLINDRICAL_SURFACE('',#1009,1.);
#854=CYLINDRICAL_SURFACE('',#1014,8.);
#855=CYLINDRICAL_SURFACE('',#1017,1.);
#856=CYLINDRICAL_SURFACE('',#1022,8.);
#857=CYLINDRICAL_SURFACE('',#1027,1.);
#858=CYLINDRICAL_SURFACE('',#1032,1.);
#859=CYLINDRICAL_SURFACE('',#1035,1.7);
#860=CYLINDRICAL_SURFACE('',#1037,1.7);
#861=CYLINDRICAL_SURFACE('',#1039,1.7);
#862=CYLINDRICAL_SURFACE('',#1041,1.7);
#863=CYLINDRICAL_SURFACE('',#1047,22.5);
#864=CYLINDRICAL_SURFACE('',#1052,10.4);
#865=CYLINDRICAL_SURFACE('',#1055,10.4);
#866=ADVANCED_FACE('',(#63),#837,.F.);
#867=ADVANCED_FACE('',(#64),#838,.F.);
#868=ADVANCED_FACE('',(#65),#839,.F.);
#869=ADVANCED_FACE('',(#66),#840,.F.);
#870=ADVANCED_FACE('',(#67),#55,.T.);
#871=ADVANCED_FACE('',(#68,#21),#41,.T.);
#872=ADVANCED_FACE('',(#69),#841,.F.);
#873=ADVANCED_FACE('',(#70),#56,.T.);
#874=ADVANCED_FACE('',(#71,#22),#42,.F.);
#875=ADVANCED_FACE('',(#72),#842,.F.);
#876=ADVANCED_FACE('',(#73),#843,.T.);
#877=ADVANCED_FACE('',(#74),#844,.T.);
#878=ADVANCED_FACE('',(#75),#17,.T.);
#879=ADVANCED_FACE('',(#76),#845,.T.);
#880=ADVANCED_FACE('',(#77),#18,.T.);
#881=ADVANCED_FACE('',(#78),#43,.F.);
#882=ADVANCED_FACE('',(#79),#846,.T.);
#883=ADVANCED_FACE('',(#80,#23,#24),#44,.T.);
#884=ADVANCED_FACE('',(#81),#847,.T.);
#885=ADVANCED_FACE('',(#82),#848,.T.);
#886=ADVANCED_FACE('',(#83),#849,.T.);
#887=ADVANCED_FACE('',(#84),#850,.T.);
#888=ADVANCED_FACE('',(#85),#19,.T.);
#889=ADVANCED_FACE('',(#86),#20,.T.);
#890=ADVANCED_FACE('',(#87),#851,.T.);
#891=ADVANCED_FACE('',(#88,#25,#26),#45,.F.);
#892=ADVANCED_FACE('',(#89),#852,.T.);
#893=ADVANCED_FACE('',(#90),#853,.T.);
#894=ADVANCED_FACE('',(#91),#57,.T.);
#895=ADVANCED_FACE('',(#92),#46,.T.);
#896=ADVANCED_FACE('',(#93),#854,.F.);
#897=ADVANCED_FACE('',(#94),#47,.T.);
#898=ADVANCED_FACE('',(#95),#855,.T.);
#899=ADVANCED_FACE('',(#96),#58,.T.);
#900=ADVANCED_FACE('',(#97),#48,.F.);
#901=ADVANCED_FACE('',(#98),#856,.F.);
#902=ADVANCED_FACE('',(#99),#49,.T.);
#903=ADVANCED_FACE('',(#100),#59,.T.);
#904=ADVANCED_FACE('',(#101),#857,.T.);
#905=ADVANCED_FACE('',(#102),#60,.T.);
#906=ADVANCED_FACE('',(#103),#858,.T.);
#907=ADVANCED_FACE('',(#104),#61,.T.);
#908=ADVANCED_FACE('',(#105),#859,.F.);
#909=ADVANCED_FACE('',(#106),#860,.F.);
#910=ADVANCED_FACE('',(#107),#861,.F.);
#911=ADVANCED_FACE('',(#108),#862,.F.);
#912=ADVANCED_FACE('',(#109),#62,.T.);
#913=ADVANCED_FACE('',(#110),#863,.T.);
#914=ADVANCED_FACE('',(#111,#27,#28,#29,#30,#31),#50,.T.);
#915=ADVANCED_FACE('',(#112),#51,.T.);
#916=ADVANCED_FACE('',(#113),#864,.F.);
#917=ADVANCED_FACE('',(#114),#52,.T.);
#918=ADVANCED_FACE('',(#115),#865,.F.);
#919=ADVANCED_FACE('',(#116,#32,#33,#34,#35,#36),#53,.F.);
#920=ADVANCED_FACE('',(#117,#37,#38,#39,#40),#54,.T.);
#921=CLOSED_SHELL('',(#866,#867,#868,#869,#870,#871,#872,#873,#874,#875,
#876,#877,#878,#879,#880,#881,#882,#883,#884,#885,#886,#887,#888,#889,#890,
#891,#892,#893,#894,#895,#896,#897,#898,#899,#900,#901,#902,#903,#904,#905,
#906,#907,#908,#909,#910,#911,#912,#913,#914,#915,#916,#917,#918,#919,#920));
#922=DERIVED_UNIT_ELEMENT(#924,1.);
#923=DERIVED_UNIT_ELEMENT(#1642,-3.);
#924=(
MASS_UNIT()
NAMED_UNIT(*)
SI_UNIT(.KILO.,.GRAM.)
);
#925=DERIVED_UNIT((#922,#923));
#926=MEASURE_REPRESENTATION_ITEM('density measure',
POSITIVE_RATIO_MEASURE(7850.),#925);
#927=PROPERTY_DEFINITION_REPRESENTATION(#932,#929);
#928=PROPERTY_DEFINITION_REPRESENTATION(#933,#930);
#929=REPRESENTATION('material name',(#931),#1639);
#930=REPRESENTATION('density',(#926),#1639);
#931=DESCRIPTIVE_REPRESENTATION_ITEM('Steel','Steel');
#932=PROPERTY_DEFINITION('material property','material name',#1649);
#933=PROPERTY_DEFINITION('material property','density of part',#1649);
#934=AXIS2_PLACEMENT_3D('',#1366,#1059,#1060);
#935=AXIS2_PLACEMENT_3D('',#1367,#1061,#1062);
#936=AXIS2_PLACEMENT_3D('',#1369,#1063,#1064);
#937=AXIS2_PLACEMENT_3D('',#1372,#1066,#1067);
#938=AXIS2_PLACEMENT_3D('',#1373,#1068,#1069);
#939=AXIS2_PLACEMENT_3D('',#1375,#1070,#1071);
#940=AXIS2_PLACEMENT_3D('',#1378,#1073,#1074);
#941=AXIS2_PLACEMENT_3D('',#1379,#1075,#1076);
#942=AXIS2_PLACEMENT_3D('',#1381,#1077,#1078);
#943=AXIS2_PLACEMENT_3D('',#1384,#1080,#1081);
#944=AXIS2_PLACEMENT_3D('',#1385,#1082,#1083);
#945=AXIS2_PLACEMENT_3D('',#1387,#1084,#1085);
#946=AXIS2_PLACEMENT_3D('',#1390,#1087,#1088);
#947=AXIS2_PLACEMENT_3D('',#1391,#1089,#1090);
#948=AXIS2_PLACEMENT_3D('',#1393,#1091,#1092);
#949=AXIS2_PLACEMENT_3D('',#1395,#1093,#1094);
#950=AXIS2_PLACEMENT_3D('',#1396,#1095,#1096);
#951=AXIS2_PLACEMENT_3D('',#1397,#1097,#1098);
#952=AXIS2_PLACEMENT_3D('',#1399,#1099,#1100);
#953=AXIS2_PLACEMENT_3D('',#1400,#1101,#1102);
#954=AXIS2_PLACEMENT_3D('',#1403,#1104,#1105);
#955=AXIS2_PLACEMENT_3D('',#1404,#1106,#1107);
#956=AXIS2_PLACEMENT_3D('',#1406,#1108,#1109);
#957=AXIS2_PLACEMENT_3D('',#1408,#1110,#1111);
#958=AXIS2_PLACEMENT_3D('',#1410,#1112,#1113);
#959=AXIS2_PLACEMENT_3D('',#1411,#1114,#1115);
#960=AXIS2_PLACEMENT_3D('',#1412,#1116,#1117);
#961=AXIS2_PLACEMENT_3D('',#1423,#1122,#1123);
#962=AXIS2_PLACEMENT_3D('',#1427,#1125,#1126);
#963=AXIS2_PLACEMENT_3D('',#1431,#1128,#1129);
#964=AXIS2_PLACEMENT_3D('',#1433,#1131,#1132);
#965=AXIS2_PLACEMENT_3D('',#1435,#1134,#1135);
#966=AXIS2_PLACEMENT_3D('',#1438,#1136,#1137);
#967=AXIS2_PLACEMENT_3D('',#1442,#1139,#1140);
#968=AXIS2_PLACEMENT_3D('',#1444,#1142,#1143);
#969=AXIS2_PLACEMENT_3D('',#1446,#1144,#1145);
#970=AXIS2_PLACEMENT_3D('',#1450,#1147,#1148);
#971=AXIS2_PLACEMENT_3D('',#1452,#1150,#1151);
#972=AXIS2_PLACEMENT_3D('',#1453,#1152,#1153);
#973=AXIS2_PLACEMENT_3D('',#1454,#1154,#1155);
#974=AXIS2_PLACEMENT_3D('',#1456,#1156,#1157);
#975=AXIS2_PLACEMENT_3D('',#1457,#1158,#1159);
#976=AXIS2_PLACEMENT_3D('',#1459,#1161,#1162);
#977=AXIS2_PLACEMENT_3D('',#1460,#1163,#1164);
#978=AXIS2_PLACEMENT_3D('',#1461,#1165,#1166);
#979=AXIS2_PLACEMENT_3D('',#1465,#1168,#1169);
#980=AXIS2_PLACEMENT_3D('',#1469,#1171,#1172);
#981=AXIS2_PLACEMENT_3D('',#1473,#1174,#1175);
#982=AXIS2_PLACEMENT_3D('',#1479,#1179,#1180);
#983=AXIS2_PLACEMENT_3D('',#1482,#1182,#1183);
#984=AXIS2_PLACEMENT_3D('',#1483,#1184,#1185);
#985=AXIS2_PLACEMENT_3D('',#1488,#1188,#1189);
#986=AXIS2_PLACEMENT_3D('',#1490,#1190,#1191);
#987=AXIS2_PLACEMENT_3D('',#1491,#1192,#1193);
#988=AXIS2_PLACEMENT_3D('',#1492,#1194,#1195);
#989=AXIS2_PLACEMENT_3D('',#1493,#1196,#1197);
#990=AXIS2_PLACEMENT_3D('',#1495,#1198,#1199);
#991=AXIS2_PLACEMENT_3D('',#1498,#1201,#1202);
#992=AXIS2_PLACEMENT_3D('',#1499,#1203,#1204);
#993=AXIS2_PLACEMENT_3D('',#1502,#1205,#1206);
#994=AXIS2_PLACEMENT_3D('',#1505,#1208,#1209);
#995=AXIS2_PLACEMENT_3D('',#1507,#1211,#1212);
#996=AXIS2_PLACEMENT_3D('',#1509,#1213,#1214);
#997=AXIS2_PLACEMENT_3D('',#1510,#1215,#1216);
#998=AXIS2_PLACEMENT_3D('',#1512,#1218,#1219);
#999=AXIS2_PLACEMENT_3D('',#1513,#1220,#1221);
#1000=AXIS2_PLACEMENT_3D('',#1514,#1222,#1223);
#1001=AXIS2_PLACEMENT_3D('',#1515,#1224,#1225);
#1002=AXIS2_PLACEMENT_3D('',#1516,#1226,#1227);
#1003=AXIS2_PLACEMENT_3D('',#1519,#1229,#1230);
#1004=AXIS2_PLACEMENT_3D('',#1520,#1231,#1232);
#1005=AXIS2_PLACEMENT_3D('',#1525,#1235,#1236);
#1006=AXIS2_PLACEMENT_3D('',#1527,#1237,#1238);
#1007=AXIS2_PLACEMENT_3D('',#1528,#1239,#1240);
#1008=AXIS2_PLACEMENT_3D('',#1529,#1241,#1242);
#1009=AXIS2_PLACEMENT_3D('',#1530,#1243,#1244);
#1010=AXIS2_PLACEMENT_3D('',#1532,#1245,#1246);
#1011=AXIS2_PLACEMENT_3D('',#1541,#1248,#1249);
#1012=AXIS2_PLACEMENT_3D('',#1542,#1250,#1251);
#1013=AXIS2_PLACEMENT_3D('',#1543,#1252,#1253);
#1014=AXIS2_PLACEMENT_3D('',#1549,#1257,#1258);
#1015=AXIS2_PLACEMENT_3D('',#1550,#1259,#1260);
#1016=AXIS2_PLACEMENT_3D('',#1551,#1261,#1262);
#1017=AXIS2_PLACEMENT_3D('',#1553,#1264,#1265);
#1018=AXIS2_PLACEMENT_3D('',#1555,#1266,#1267);
#1019=AXIS2_PLACEMENT_3D('',#1564,#1269,#1270);
#1020=AXIS2_PLACEMENT_3D('',#1565,#1271,#1272);
#1021=AXIS2_PLACEMENT_3D('',#1566,#1273,#1274);
#1022=AXIS2_PLACEMENT_3D('',#1568,#1276,#1277);
#1023=AXIS2_PLACEMENT_3D('',#1571,#1279,#1280);
#1024=AXIS2_PLACEMENT_3D('',#1572,#1281,#1282);
#1025=AXIS2_PLACEMENT_3D('',#1576,#1285,#1286);
#1026=AXIS2_PLACEMENT_3D('',#1577,#1287,#1288);
#1027=AXIS2_PLACEMENT_3D('',#1578,#1289,#1290);
#1028=AXIS2_PLACEMENT_3D('',#1579,#1291,#1292);
#1029=AXIS2_PLACEMENT_3D('',#1580,#1293,#1294);
#1030=AXIS2_PLACEMENT_3D('',#1581,#1295,#1296);
#1031=AXIS2_PLACEMENT_3D('',#1582,#1297,#1298);
#1032=AXIS2_PLACEMENT_3D('',#1583,#1299,#1300);
#1033=AXIS2_PLACEMENT_3D('',#1584,#1301,#1302);
#1034=AXIS2_PLACEMENT_3D('',#1585,#1303,#1304);
#1035=AXIS2_PLACEMENT_3D('',#1586,#1305,#1306);
#1036=AXIS2_PLACEMENT_3D('',#1589,#1308,#1309);
#1037=AXIS2_PLACEMENT_3D('',#1590,#1310,#1311);
#1038=AXIS2_PLACEMENT_3D('',#1593,#1313,#1314);
#1039=AXIS2_PLACEMENT_3D('',#1594,#1315,#1316);
#1040=AXIS2_PLACEMENT_3D('',#1597,#1318,#1319);
#1041=AXIS2_PLACEMENT_3D('',#1598,#1320,#1321);
#1042=AXIS2_PLACEMENT_3D('',#1601,#1323,#1324);
#1043=AXIS2_PLACEMENT_3D('',#1602,#1325,#1326);
#1044=AXIS2_PLACEMENT_3D('',#1604,#1327,#1328);
#1045=AXIS2_PLACEMENT_3D('',#1606,#1329,#1330);
#1046=AXIS2_PLACEMENT_3D('',#1607,#1331,#1332);
#1047=AXIS2_PLACEMENT_3D('',#1608,#1333,#1334);
#1048=AXIS2_PLACEMENT_3D('',#1610,#1336,#1337);
#1049=AXIS2_PLACEMENT_3D('',#1613,#1338,#1339);
#1050=AXIS2_PLACEMENT_3D('',#1617,#1341,#1342);
#1051=AXIS2_PLACEMENT_3D('',#1619,#1344,#1345);
#1052=AXIS2_PLACEMENT_3D('',#1625,#1349,#1350);
#1053=AXIS2_PLACEMENT_3D('',#1627,#1351,#1352);
#1054=AXIS2_PLACEMENT_3D('',#1629,#1354,#1355);
#1055=AXIS2_PLACEMENT_3D('',#1633,#1358,#1359);
#1056=AXIS2_PLACEMENT_3D('',#1634,#1360,#1361);
#1057=AXIS2_PLACEMENT_3D('',#1635,#1362,#1363);
#1058=AXIS2_PLACEMENT_3D('',#1636,#1364,#1365);
#1059=DIRECTION('axis',(0.,0.,1.));
#1060=DIRECTION('refdir',(1.,0.,0.));
#1061=DIRECTION('center_axis',(0.,0.,1.));
#1062=DIRECTION('ref_axis',(-1.,0.,0.));
#1063=DIRECTION('center_axis',(-4.56579218877094E-15,9.58254892536353E-17,
1.));
#1064=DIRECTION('ref_axis',(-1.,0.,0.));
#1065=DIRECTION('',(0.,0.,1.));
#1066=DIRECTION('center_axis',(4.56579218877094E-15,-9.58254892536353E-17,
-1.));
#1067=DIRECTION('ref_axis',(-1.,0.,0.));
#1068=DIRECTION('center_axis',(0.,0.,1.));
#1069=DIRECTION('ref_axis',(-1.,0.,0.));
#1070=DIRECTION('center_axis',(-4.56579218877094E-15,9.58254892536353E-17,
1.));
#1071=DIRECTION('ref_axis',(-1.,0.,0.));
#1072=DIRECTION('',(0.,0.,1.));
#1073=DIRECTION('center_axis',(4.56579218877094E-15,-9.58254892536353E-17,
-1.));
#1074=DIRECTION('ref_axis',(-1.,0.,0.));
#1075=DIRECTION('center_axis',(0.,0.,1.));
#1076=DIRECTION('ref_axis',(-1.,0.,0.));
#1077=DIRECTION('center_axis',(-4.56579218877094E-15,9.58254892536353E-17,
1.));
#1078=DIRECTION('ref_axis',(-1.,0.,0.));
#1079=DIRECTION('',(0.,0.,1.));
#1080=DIRECTION('center_axis',(4.56579218877094E-15,-9.58254892536353E-17,
-1.));
#1081=DIRECTION('ref_axis',(-1.,0.,0.));
#1082=DIRECTION('center_axis',(0.,0.,1.));
#1083=DIRECTION('ref_axis',(-1.,0.,0.));
#1084=DIRECTION('center_axis',(-4.56579218877094E-15,9.58254892536353E-17,
1.));
#1085=DIRECTION('ref_axis',(-1.,0.,0.));
#1086=DIRECTION('',(0.,0.,1.));
#1087=DIRECTION('center_axis',(4.56579218877094E-15,-9.58254892536353E-17,
-1.));
#1088=DIRECTION('ref_axis',(-1.,0.,0.));
#1089=DIRECTION('center_axis',(0.,0.,-1.));
#1090=DIRECTION('ref_axis',(-1.,0.,0.));
#1091=DIRECTION('center_axis',(0.,0.,1.));
#1092=DIRECTION('ref_axis',(1.,-2.74129141882752E-16,0.));
#1093=DIRECTION('center_axis',(-2.44005060357177E-16,-1.,0.));
#1094=DIRECTION('ref_axis',(1.,-2.44005060357177E-16,0.));
#1095=DIRECTION('center_axis',(0.,0.,-1.));
#1096=DIRECTION('ref_axis',(1.,-2.74129141882752E-16,0.));
#1097=DIRECTION('center_axis',(0.,0.,1.));
#1098=DIRECTION('ref_axis',(1.,0.,0.));
#1099=DIRECTION('center_axis',(0.,0.,-1.));
#1100=DIRECTION('ref_axis',(1.,0.,0.));
#1101=DIRECTION('center_axis',(-4.6205813741625E-15,1.28349482615625E-16,
1.));
#1102=DIRECTION('ref_axis',(-1.,-7.03216359793845E-33,-4.6205813741625E-15));
#1103=DIRECTION('',(4.6205813741625E-15,-1.28349482615625E-16,-1.));
#1104=DIRECTION('center_axis',(-4.56579218877094E-15,9.58254892536353E-17,
1.));
#1105=DIRECTION('ref_axis',(-1.,-7.03216359793845E-33,-4.6205813741625E-15));
#1106=DIRECTION('center_axis',(0.,0.,-1.));
#1107=DIRECTION('ref_axis',(-1.,0.,0.));
#1108=DIRECTION('center_axis',(0.,0.,1.));
#1109=DIRECTION('ref_axis',(1.,0.,0.));
#1110=DIRECTION('center_axis',(-2.09476042382105E-16,-1.,0.));
#1111=DIRECTION('ref_axis',(1.,-2.09476042382105E-16,0.));
#1112=DIRECTION('center_axis',(0.,0.,-1.));
#1113=DIRECTION('ref_axis',(1.,0.,0.));
#1114=DIRECTION('center_axis',(0.,0.,-1.));
#1115=DIRECTION('ref_axis',(1.,0.,0.));
#1116=DIRECTION('center_axis',(0.,0.,-1.));
#1117=DIRECTION('ref_axis',(-1.,0.,0.));
#1118=DIRECTION('',(0.,1.,0.));
#1119=DIRECTION('',(1.,0.,0.));
#1120=DIRECTION('',(0.,-1.,0.));
#1121=DIRECTION('',(1.,0.,0.));
#1122=DIRECTION('center_axis',(0.,0.,1.));
#1123=DIRECTION('ref_axis',(-0.707106781186548,-0.707106781186547,0.));
#1124=DIRECTION('',(0.,-1.,0.));
#1125=DIRECTION('center_axis',(0.,0.,-1.));
#1126=DIRECTION('ref_axis',(-1.97372982155583E-16,1.,0.));
#1127=DIRECTION('',(0.,1.,0.));
#1128=DIRECTION('center_axis',(0.,0.,1.));
#1129=DIRECTION('ref_axis',(0.707106781186547,-0.707106781186547,0.));
#1130=DIRECTION('',(1.,0.,0.));
#1131=DIRECTION('center_axis',(0.,0.,-1.));
#1132=DIRECTION('ref_axis',(1.,0.,0.));
#1133=DIRECTION('',(0.,0.,-1.));
#1134=DIRECTION('center_axis',(0.,1.,0.));
#1135=DIRECTION('ref_axis',(-0.707106781186543,0.,-0.707106781186552));
#1136=DIRECTION('center_axis',(0.,1.,1.84889274661175E-31));
#1137=DIRECTION('ref_axis',(-0.707106781186543,0.,-0.707106781186552));
#1138=DIRECTION('',(0.,1.,0.));
#1139=DIRECTION('center_axis',(0.,-1.,0.));
#1140=DIRECTION('ref_axis',(-1.,0.,0.));
#1141=DIRECTION('',(0.,-1.,0.));
#1142=DIRECTION('center_axis',(0.,0.,1.));
#1143=DIRECTION('ref_axis',(-0.707106781186547,0.707106781186548,0.));
#1144=DIRECTION('center_axis',(0.,0.,1.));
#1145=DIRECTION('ref_axis',(1.11022302462516E-15,1.,0.));
#1146=DIRECTION('',(0.,0.,1.));
#1147=DIRECTION('center_axis',(0.,0.,-1.));
#1148=DIRECTION('ref_axis',(-1.,0.,0.));
#1149=DIRECTION('',(0.,0.,-1.));
#1150=DIRECTION('center_axis',(0.408248290463857,-0.408248290463856,-0.816496580927732));
#1151=DIRECTION('ref_axis',(-0.577350269189629,0.577350269189628,-0.577350269189621));
#1152=DIRECTION('center_axis',(-1.,0.,0.));
#1153=DIRECTION('ref_axis',(0.,0.707106781186552,-0.707106781186543));
#1154=DIRECTION('center_axis',(0.,1.,0.));
#1155=DIRECTION('ref_axis',(-0.707106781186554,0.,0.707106781186541));
#1156=DIRECTION('center_axis',(0.,1.,1.84889274661175E-31));
#1157=DIRECTION('ref_axis',(-0.707106781186554,0.,0.707106781186541));
#1158=DIRECTION('center_axis',(0.,-1.,0.));
#1159=DIRECTION('ref_axis',(0.,0.,1.));
#1160=DIRECTION('',(0.,-1.,0.));
#1161=DIRECTION('center_axis',(-0.40824829046386,0.408248290463858,-0.81649658092773));
#1162=DIRECTION('ref_axis',(-0.577350269189629,0.577350269189626,0.577350269189623));
#1163=DIRECTION('center_axis',(-1.,0.,0.));
#1164=DIRECTION('ref_axis',(0.,0.707106781186552,0.707106781186543));
#1165=DIRECTION('center_axis',(0.,0.,1.));
#1166=DIRECTION('ref_axis',(1.,0.,0.));
#1167=DIRECTION('',(-1.,0.,0.));
#1168=DIRECTION('center_axis',(0.,0.,-1.));
#1169=DIRECTION('ref_axis',(0.707106781186547,-0.707106781186547,0.));
#1170=DIRECTION('',(0.,-1.,0.));
#1171=DIRECTION('center_axis',(0.,0.,-1.));
#1172=DIRECTION('ref_axis',(-1.,0.,-5.9211894646675E-15));
#1173=DIRECTION('',(0.,1.,0.));
#1174=DIRECTION('center_axis',(0.,0.,-1.));
#1175=DIRECTION('ref_axis',(-0.707106781186548,-0.707106781186547,0.));
#1176=DIRECTION('',(-1.,0.,0.));
#1177=DIRECTION('',(0.,1.,0.));
#1178=DIRECTION('',(-1.,0.,0.));
#1179=DIRECTION('center_axis',(-1.,0.,0.));
#1180=DIRECTION('ref_axis',(0.,0.707106781186555,-0.70710678118654));
#1181=DIRECTION('',(1.,0.,0.));
#1182=DIRECTION('center_axis',(1.,-5.55111512312579E-16,0.));
#1183=DIRECTION('ref_axis',(0.,0.,-1.));
#1184=DIRECTION('center_axis',(0.,1.,0.));
#1185=DIRECTION('ref_axis',(0.,0.,1.));
#1186=DIRECTION('',(-1.,0.,0.));
#1187=DIRECTION('',(0.,0.,1.));
#1188=DIRECTION('center_axis',(0.,-1.,0.));
#1189=DIRECTION('ref_axis',(0.,0.,1.));
#1190=DIRECTION('center_axis',(0.,-1.,0.));
#1191=DIRECTION('ref_axis',(0.,0.,1.));
#1192=DIRECTION('center_axis',(1.,0.,0.));
#1193=DIRECTION('ref_axis',(0.,0.707106781186555,0.70710678118654));
#1194=DIRECTION('center_axis',(1.,-5.55111512312579E-16,0.));
#1195=DIRECTION('ref_axis',(5.55111512312579E-16,1.,0.));
#1196=DIRECTION('center_axis',(0.,1.,0.));
#1197=DIRECTION('ref_axis',(0.707106781186554,0.,0.707106781186541));
#1198=DIRECTION('center_axis',(0.,1.,1.84889274661175E-31));
#1199=DIRECTION('ref_axis',(0.707106781186554,0.,0.707106781186541));
#1200=DIRECTION('',(0.,1.,0.));
#1201=DIRECTION('center_axis',(0.,-1.,0.));
#1202=DIRECTION('ref_axis',(1.,0.,0.));
#1203=DIRECTION('center_axis',(0.,0.,1.));
#1204=DIRECTION('ref_axis',(0.707106781186553,0.707106781186543,0.));
#1205=DIRECTION('center_axis',(0.,0.,1.));
#1206=DIRECTION('ref_axis',(1.,0.,0.));
#1207=DIRECTION('',(0.,0.,1.));
#1208=DIRECTION('center_axis',(0.,0.,-1.));
#1209=DIRECTION('ref_axis',(0.,1.,0.));
#1210=DIRECTION('',(0.,0.,-1.));
#1211=DIRECTION('center_axis',(0.,1.,0.));
#1212=DIRECTION('ref_axis',(0.707106781186548,0.,-0.707106781186548));
#1213=DIRECTION('center_axis',(0.,1.,1.84889274661175E-31));
#1214=DIRECTION('ref_axis',(0.707106781186548,0.,-0.707106781186548));
#1215=DIRECTION('center_axis',(0.,-1.,0.));
#1216=DIRECTION('ref_axis',(0.,0.,-1.));
#1217=DIRECTION('',(0.,-1.,0.));
#1218=DIRECTION('center_axis',(-0.816496580927732,0.408248290463855,-0.408248290463859));
#1219=DIRECTION('ref_axis',(0.577350269189608,0.577350269189632,-0.577350269189637));
#1220=DIRECTION('center_axis',(1.,0.,0.));
#1221=DIRECTION('ref_axis',(0.,0.707106781186552,-0.707106781186543));
#1222=DIRECTION('center_axis',(0.408248290463859,-0.81649658092773,0.408248290463859));
#1223=DIRECTION('ref_axis',(0.577350269189627,0.577350269189624,0.577350269189627));
#1224=DIRECTION('center_axis',(1.,0.,0.));
#1225=DIRECTION('ref_axis',(0.,0.707106781186552,0.707106781186543));
#1226=DIRECTION('center_axis',(-1.,0.,0.));
#1227=DIRECTION('ref_axis',(0.,0.707106781186555,0.70710678118654));
#1228=DIRECTION('',(-1.,0.,0.));
#1229=DIRECTION('center_axis',(1.,0.,0.));
#1230=DIRECTION('ref_axis',(0.,1.,0.));
#1231=DIRECTION('center_axis',(0.,-1.,0.));
#1232=DIRECTION('ref_axis',(0.,0.,1.));
#1233=DIRECTION('',(1.,0.,0.));
#1234=DIRECTION('',(0.,0.,-1.));
#1235=DIRECTION('center_axis',(0.,-1.,0.));
#1236=DIRECTION('ref_axis',(0.,0.,1.));
#1237=DIRECTION('center_axis',(0.,-1.,0.));
#1238=DIRECTION('ref_axis',(0.,0.,1.));
#1239=DIRECTION('center_axis',(1.,0.,0.));
#1240=DIRECTION('ref_axis',(0.,0.707106781186555,-0.70710678118654));
#1241=DIRECTION('center_axis',(-1.,0.,0.));
#1242=DIRECTION('ref_axis',(0.,1.,0.));
#1243=DIRECTION('center_axis',(0.,-1.,0.));
#1244=DIRECTION('ref_axis',(-0.707106781186555,0.,-0.70710678118654));
#1245=DIRECTION('center_axis',(0.,1.,0.));
#1246=DIRECTION('ref_axis',(0.,0.,-1.));
#1247=DIRECTION('',(0.,1.,0.));
#1248=DIRECTION('center_axis',(0.,0.,-1.));
#1249=DIRECTION('ref_axis',(-1.,0.,0.));
#1250=DIRECTION('center_axis',(0.,0.,1.));
#1251=DIRECTION('ref_axis',(0.707106781186548,-0.707106781186548,0.));
#1252=DIRECTION('center_axis',(-1.,0.,0.));
#1253=DIRECTION('ref_axis',(0.,0.,1.));
#1254=DIRECTION('',(0.,0.,-1.));
#1255=DIRECTION('',(0.,-1.,0.));
#1256=DIRECTION('',(5.9211894646675E-15,0.,-1.));
#1257=DIRECTION('center_axis',(0.,0.,-1.));
#1258=DIRECTION('ref_axis',(0.707106781186548,-0.707106781186548,0.));
#1259=DIRECTION('center_axis',(0.,0.,-1.));
#1260=DIRECTION('ref_axis',(0.707106781186548,-0.707106781186548,0.));
#1261=DIRECTION('center_axis',(-1.,0.,0.));
#1262=DIRECTION('ref_axis',(0.,-1.84889274661175E-31,1.));
#1263=DIRECTION('',(0.,1.84889274661175E-31,-1.));
#1264=DIRECTION('center_axis',(0.,1.,0.));
#1265=DIRECTION('ref_axis',(0.707106781186548,0.,-0.707106781186548));
#1266=DIRECTION('center_axis',(0.,1.,0.));
#1267=DIRECTION('ref_axis',(1.,0.,0.));
#1268=DIRECTION('',(0.,-1.,0.));
#1269=DIRECTION('center_axis',(0.,0.,-1.));
#1270=DIRECTION('ref_axis',(-1.,0.,0.));
#1271=DIRECTION('center_axis',(0.,0.,1.));
#1272=DIRECTION('ref_axis',(-0.707106781186548,-0.707106781186547,0.));
#1273=DIRECTION('center_axis',(-1.,0.,0.));
#1274=DIRECTION('ref_axis',(0.,-1.84889274661175E-31,1.));
#1275=DIRECTION('',(0.,1.84889274661175E-31,-1.));
#1276=DIRECTION('center_axis',(0.,0.,-1.));
#1277=DIRECTION('ref_axis',(-0.707106781186548,-0.707106781186547,0.));
#1278=DIRECTION('',(0.,0.,1.));
#1279=DIRECTION('center_axis',(0.,0.,-1.));
#1280=DIRECTION('ref_axis',(-0.707106781186548,-0.707106781186547,0.));
#1281=DIRECTION('center_axis',(1.,0.,0.));
#1282=DIRECTION('ref_axis',(0.,0.,-1.));
#1283=DIRECTION('',(5.9211894646675E-15,0.,-1.));
#1284=DIRECTION('',(0.,1.,0.));
#1285=DIRECTION('center_axis',(0.,0.,1.));
#1286=DIRECTION('ref_axis',(1.,0.,0.));
#1287=DIRECTION('center_axis',(0.,-1.,0.));
#1288=DIRECTION('ref_axis',(1.,0.,0.));
#1289=DIRECTION('center_axis',(0.,1.,0.));
#1290=DIRECTION('ref_axis',(0.707106781186541,0.,0.707106781186554));
#1291=DIRECTION('center_axis',(0.,-1.,0.));
#1292=DIRECTION('ref_axis',(1.,0.,0.));
#1293=DIRECTION('center_axis',(0.,0.,1.));
#1294=DIRECTION('ref_axis',(1.,0.,0.));
#1295=DIRECTION('center_axis',(0.,1.,0.));
#1296=DIRECTION('ref_axis',(-1.,0.,0.));
#1297=DIRECTION('center_axis',(0.,0.,1.));
#1298=DIRECTION('ref_axis',(-1.97372982155583E-16,1.,0.));
#1299=DIRECTION('center_axis',(0.,1.,0.));
#1300=DIRECTION('ref_axis',(-0.707106781186555,0.,0.70710678118654));
#1301=DIRECTION('center_axis',(0.,1.,0.));
#1302=DIRECTION('ref_axis',(-1.,0.,0.));
#1303=DIRECTION('center_axis',(0.,0.,1.));
#1304=DIRECTION('ref_axis',(1.,0.,0.));
#1305=DIRECTION('center_axis',(0.,1.,0.));
#1306=DIRECTION('ref_axis',(0.,0.,1.));
#1307=DIRECTION('',(0.,-1.,0.));
#1308=DIRECTION('center_axis',(0.,1.,1.84889274661175E-31));
#1309=DIRECTION('ref_axis',(0.,0.,1.));
#1310=DIRECTION('center_axis',(0.,1.,0.));
#1311=DIRECTION('ref_axis',(0.,0.,1.));
#1312=DIRECTION('',(0.,-1.,0.));
#1313=DIRECTION('center_axis',(0.,1.,1.84889274661175E-31));
#1314=DIRECTION('ref_axis',(0.,0.,1.));
#1315=DIRECTION('center_axis',(0.,-1.,0.));
#1316=DIRECTION('ref_axis',(0.,0.,1.));
#1317=DIRECTION('',(0.,-1.,0.));
#1318=DIRECTION('center_axis',(0.,1.,1.84889274661175E-31));
#1319=DIRECTION('ref_axis',(0.,0.,1.));
#1320=DIRECTION('center_axis',(0.,-1.,0.));
#1321=DIRECTION('ref_axis',(0.,0.,1.));
#1322=DIRECTION('',(0.,-1.,0.));
#1323=DIRECTION('center_axis',(0.,1.,1.84889274661175E-31));
#1324=DIRECTION('ref_axis',(0.,0.,1.));
#1325=DIRECTION('center_axis',(4.56579218877094E-15,-9.58254892536353E-17,
-1.));
#1326=DIRECTION('ref_axis',(-1.,0.,-4.42115480028507E-15));
#1327=DIRECTION('center_axis',(-4.56579218877094E-15,9.58254892536353E-17,
1.));
#1328=DIRECTION('ref_axis',(-1.,8.51782126698983E-18,-4.56579218877094E-15));
#1329=DIRECTION('center_axis',(-1.97372982155584E-16,-1.,9.58254892536344E-17));
#1330=DIRECTION('ref_axis',(1.,-1.97372982155583E-16,4.736951571734E-15));
#1331=DIRECTION('center_axis',(4.56579218877094E-15,-9.58254892536353E-17,
-1.));
#1332=DIRECTION('ref_axis',(-1.,8.51782126698983E-18,-4.56425021234787E-15));
#1333=DIRECTION('center_axis',(5.9211894646675E-15,0.,-1.));
#1334=DIRECTION('ref_axis',(-1.,0.,-5.9211894646675E-15));
#1335=DIRECTION('',(-5.9211894646675E-15,0.,1.));
#1336=DIRECTION('center_axis',(4.56579218877094E-15,-9.58254892536353E-17,
-1.));
#1337=DIRECTION('ref_axis',(-1.,0.,-4.56579218877094E-15));
#1338=DIRECTION('center_axis',(-4.56579218877094E-15,9.58254892536347E-17,
1.));
#1339=DIRECTION('ref_axis',(-0.902271159700242,0.431169055444822,-4.16089959880169E-15));
#1340=DIRECTION('',(-3.96140539524139E-15,-1.,9.58254892536172E-17));
#1341=DIRECTION('center_axis',(-4.56579218877094E-15,9.58254892536347E-17,
1.));
#1342=DIRECTION('ref_axis',(0.902271159700242,-0.431169055444821,4.16089959880169E-15));
#1343=DIRECTION('',(3.96140539524141E-15,1.,-9.58254892536173E-17));
#1344=DIRECTION('center_axis',(-1.,3.96140539524141E-15,-5.9211894646675E-15));
#1345=DIRECTION('ref_axis',(3.96140539524141E-15,1.,-9.58254892536173E-17));
#1346=DIRECTION('',(3.96140539524141E-15,1.,-9.58254892536173E-17));
#1347=DIRECTION('',(5.9211894646675E-15,0.,-1.));
#1348=DIRECTION('',(5.9211894646675E-15,0.,-1.));
#1349=DIRECTION('center_axis',(5.9211894646675E-15,0.,-1.));
#1350=DIRECTION('ref_axis',(0.902271159700242,-0.431169055444821,5.34251848509041E-15));
#1351=DIRECTION('center_axis',(-4.56579218877094E-15,9.58254892536347E-17,
1.));
#1352=DIRECTION('ref_axis',(0.902271159700242,-0.431169055444821,4.16089959880169E-15));
#1353=DIRECTION('',(5.9211894646675E-15,0.,-1.));
#1354=DIRECTION('center_axis',(1.,-3.96140539524139E-15,5.9211894646675E-15));
#1355=DIRECTION('ref_axis',(-3.96140539524139E-15,-1.,9.58254892536173E-17));
#1356=DIRECTION('',(-3.96140539524139E-15,-1.,9.58254892536172E-17));
#1357=DIRECTION('',(5.9211894646675E-15,0.,-1.));
#1358=DIRECTION('center_axis',(5.9211894646675E-15,0.,-1.));
#1359=DIRECTION('ref_axis',(-0.902271159700242,0.431169055444822,-5.34251848509041E-15));
#1360=DIRECTION('center_axis',(-4.56579218877094E-15,9.58254892536347E-17,
1.));
#1361=DIRECTION('ref_axis',(-0.902271159700242,0.431169055444822,-4.16089959880169E-15));
#1362=DIRECTION('center_axis',(4.56579218877094E-15,-9.58254892536353E-17,
-1.));
#1363=DIRECTION('ref_axis',(-1.,0.,-4.56579218877094E-15));
#1364=DIRECTION('center_axis',(0.,-1.,-1.84889274661175E-31));
#1365=DIRECTION('ref_axis',(1.,0.,0.));
#1366=CARTESIAN_POINT('',(0.,0.,0.));
#1367=CARTESIAN_POINT('Origin',(41.1923882923979,34.1923882924024,61.2435369137148));
#1368=CARTESIAN_POINT('',(42.8923882923979,34.1923882924024,61.2435369137148));
#1369=CARTESIAN_POINT('Origin',(41.1923882923979,34.1923882924024,61.2435369137148));
#1370=CARTESIAN_POINT('',(42.8923882923979,34.1923882924024,64.2435369137148));
#1371=CARTESIAN_POINT('',(42.8923882923979,34.1923882924024,61.2435369137148));
#1372=CARTESIAN_POINT('Origin',(41.1923882923979,34.1923882924024,64.2435369137148));
#1373=CARTESIAN_POINT('Origin',(22.8073882923979,34.1923882924024,61.2435369137148));
#1374=CARTESIAN_POINT('',(24.5073882923979,34.1923882924024,61.2435369137148));
#1375=CARTESIAN_POINT('Origin',(22.8073882923979,34.1923882924024,61.2435369137148));
#1376=CARTESIAN_POINT('',(24.5073882923979,34.1923882924024,64.2435369137148));
#1377=CARTESIAN_POINT('',(24.5073882923979,34.1923882924024,61.2435369137148));
#1378=CARTESIAN_POINT('Origin',(22.8073882923979,34.1923882924024,64.2435369137148));
#1379=CARTESIAN_POINT('Origin',(41.1923882923979,15.8073882924024,61.2435369137148));
#1380=CARTESIAN_POINT('',(42.8923882923979,15.8073882924024,61.2435369137148));
#1381=CARTESIAN_POINT('Origin',(41.1923882923979,15.8073882924024,61.2435369137148));
#1382=CARTESIAN_POINT('',(42.8923882923979,15.8073882924024,64.2435369137148));
#1383=CARTESIAN_POINT('',(42.8923882923979,15.8073882924024,61.2435369137148));
#1384=CARTESIAN_POINT('Origin',(41.1923882923979,15.8073882924024,64.2435369137148));
#1385=CARTESIAN_POINT('Origin',(22.8073882923979,15.8073882924024,61.2435369137148));
#1386=CARTESIAN_POINT('',(24.5073882923979,15.8073882924024,61.2435369137148));
#1387=CARTESIAN_POINT('Origin',(22.8073882923979,15.8073882924024,61.2435369137148));
#1388=CARTESIAN_POINT('',(24.5073882923979,15.8073882924024,64.2435369137148));
#1389=CARTESIAN_POINT('',(24.5073882923979,15.8073882924024,61.2435369137148));
#1390=CARTESIAN_POINT('Origin',(22.8073882923979,15.8073882924024,64.2435369137148));
#1391=CARTESIAN_POINT('Origin',(31.999999999995,25.0000000000001,97.7440011324882));
#1392=CARTESIAN_POINT('',(49.199999999995,25.0000000000001,98.7440011324882));
#1393=CARTESIAN_POINT('Origin',(31.999999999995,25.0000000000001,98.7440011324882));
#1394=CARTESIAN_POINT('',(48.199999999995,25.0000000000001,97.7440011324882));
#1395=CARTESIAN_POINT('Origin',(49.199999999995,25.0000000000001,97.7440011324882));
#1396=CARTESIAN_POINT('Origin',(31.999999999995,25.0000000000001,97.7440011324882));
#1397=CARTESIAN_POINT('Origin',(31.9999999999952,25.0000000000001,98.7440011324882));
#1398=CARTESIAN_POINT('',(12.7999999999952,25.0000000000001,98.7440011324882));
#1399=CARTESIAN_POINT('Origin',(31.9999999999948,25.0000000000001,98.7440011324882));
#1400=CARTESIAN_POINT('Origin',(31.9999999999952,25.0000000000001,64.2435369137148));
#1401=CARTESIAN_POINT('',(48.1999999999952,25.0000000000001,64.2435369137149));
#1402=CARTESIAN_POINT('',(48.1999999999952,25.0000000000001,64.2435369137149));
#1403=CARTESIAN_POINT('Origin',(31.9999999999952,25.0000000000001,64.2435369137148));
#1404=CARTESIAN_POINT('Origin',(31.9999999999948,25.0000000000001,127.844001132488));
#1405=CARTESIAN_POINT('',(52.1999999999948,25.0000000000001,128.844001132488));
#1406=CARTESIAN_POINT('Origin',(31.9999999999948,25.0000000000001,128.844001132488));
#1407=CARTESIAN_POINT('',(51.1999999999948,25.0000000000001,127.844001132488));
#1408=CARTESIAN_POINT('Origin',(52.1999999999948,25.0000000000001,127.844001132488));
#1409=CARTESIAN_POINT('',(12.7999999999948,25.0000000000001,127.844001132488));
#1410=CARTESIAN_POINT('Origin',(31.9999999999948,25.0000000000001,127.844001132488));
#1411=CARTESIAN_POINT('Origin',(31.9999999999948,25.0000000000001,127.844001132488));
#1412=CARTESIAN_POINT('Origin',(68.9999997764828,-0.10173970460832,128.844001132488));
#1413=CARTESIAN_POINT('',(-4.00000022351763,-0.10173970460832,128.844001132488));
#1414=CARTESIAN_POINT('',(-4.00000022351763,0.89826029539168,128.844001132488));
#1415=CARTESIAN_POINT('',(-4.00000022351763,-0.10173970460832,128.844001132488));
#1416=CARTESIAN_POINT('',(67.9999997764828,-0.10173970460832,128.844001132488));
#1417=CARTESIAN_POINT('',(54.4999997764828,-0.10173970460832,128.844001132488));
#1418=CARTESIAN_POINT('',(67.9999997764828,0.89826029539168,128.844001132488));
#1419=CARTESIAN_POINT('',(67.9999997764828,-0.10173970460832,128.844001132488));
#1420=CARTESIAN_POINT('',(62.4999997764826,0.89826029539168,128.844001132488));
#1421=CARTESIAN_POINT('',(65.3749997764828,0.89826029539168,128.844001132488));
#1422=CARTESIAN_POINT('',(53.4999997764826,9.89826029539168,128.844001132488));
#1423=CARTESIAN_POINT('Origin',(62.4999997764826,9.89826029539168,128.844001132488));
#1424=CARTESIAN_POINT('',(53.4999997764826,25.0000000000001,128.844001132488));
#1425=CARTESIAN_POINT('',(53.4999997764826,2.39826029539168,128.844001132488));
#1426=CARTESIAN_POINT('',(10.4999999999948,25.0000000000001,128.844001132488));
#1427=CARTESIAN_POINT('Origin',(31.9999999999948,25.0000000000001,128.844001132488));
#1428=CARTESIAN_POINT('',(10.4999997764826,9.89826029539168,128.844001132488));
#1429=CARTESIAN_POINT('',(10.4999997764826,2.39826029539168,128.844001132488));
#1430=CARTESIAN_POINT('',(1.49999977648258,0.898260295391681,128.844001132488));
#1431=CARTESIAN_POINT('Origin',(1.49999977648258,9.89826029539168,128.844001132488));
#1432=CARTESIAN_POINT('',(35.6249997764826,0.89826029539168,128.844001132488));
#1433=CARTESIAN_POINT('Origin',(31.9999999999948,25.0000000000001,128.844001132488));
#1434=CARTESIAN_POINT('',(12.7999999999948,25.0000000000001,128.844001132488));
#1435=CARTESIAN_POINT('Origin',(-4.00000022351763,-0.10173970460832,87.0000011324883));
#1436=CARTESIAN_POINT('',(-4.00000022351763,-0.10173970460832,86.0000011324883));
#1437=CARTESIAN_POINT('',(-5.00000022351763,-0.10173970460832,87.0000011324883));
#1438=CARTESIAN_POINT('Origin',(-4.00000022351763,-0.10173970460832,87.0000011324883));
#1439=CARTESIAN_POINT('',(-5.00000022351763,0.89826029539168,87.0000011324883));
#1440=CARTESIAN_POINT('',(-5.00000022351763,-0.10173970460832,87.0000011324883));
#1441=CARTESIAN_POINT('',(-4.00000022351763,0.89826029539168,86.0000011324883));
#1442=CARTESIAN_POINT('Origin',(-4.00000022351763,0.89826029539168,87.0000011324883));
#1443=CARTESIAN_POINT('',(-4.00000022351763,-0.10173970460832,86.0000011324883));
#1444=CARTESIAN_POINT('Origin',(-4.00000022351763,0.89826029539168,96.7110011324883));
#1445=CARTESIAN_POINT('',(-4.00000022351763,1.89826029539168,87.0000011324883));
#1446=CARTESIAN_POINT('Origin',(-4.00000022351763,0.89826029539168,87.0000011324883));
#1447=CARTESIAN_POINT('',(-5.00000022351763,0.89826029539168,127.844001132488));
#1448=CARTESIAN_POINT('',(-5.00000022351763,0.89826029539168,96.7110011324883));
#1449=CARTESIAN_POINT('',(-4.00000022351763,1.89826029539168,127.844001132488));
#1450=CARTESIAN_POINT('Origin',(-4.00000022351763,0.89826029539168,127.844001132488));
#1451=CARTESIAN_POINT('',(-4.00000022351763,1.89826029539168,96.7110011324883));
#1452=CARTESIAN_POINT('Origin',(-4.00000022351763,0.89826029539168,87.0000011324883));
#1453=CARTESIAN_POINT('Origin',(-4.00000022351763,0.89826029539168,87.0000011324883));
#1454=CARTESIAN_POINT('Origin',(-4.00000022351763,-0.10173970460832,127.844001132488));
#1455=CARTESIAN_POINT('',(-5.00000022351763,-0.10173970460832,127.844001132488));
#1456=CARTESIAN_POINT('Origin',(-4.00000022351763,-0.10173970460832,127.844001132488));
#1457=CARTESIAN_POINT('Origin',(-4.00000022351763,0.89826029539168,127.844001132488));
#1458=CARTESIAN_POINT('',(-5.00000022351763,-0.10173970460832,127.844001132488));
#1459=CARTESIAN_POINT('Origin',(-4.00000022351763,0.89826029539168,127.844001132488));
#1460=CARTESIAN_POINT('Origin',(-4.00000022351763,0.89826029539168,127.844001132488));
#1461=CARTESIAN_POINT('Origin',(54.4999997764828,-0.10173970460832,86.0000011324883));
#1462=CARTESIAN_POINT('',(1.49999977648258,0.898260295391681,86.0000011324883));
#1463=CARTESIAN_POINT('',(28.3749997764826,0.89826029539168,86.0000011324883));
#1464=CARTESIAN_POINT('',(10.4999997764826,9.89826029539168,86.0000011324883));
#1465=CARTESIAN_POINT('Origin',(1.49999977648258,9.89826029539168,86.0000011324883));
#1466=CARTESIAN_POINT('',(10.4999997764826,18.3667511437484,86.0000011324881));
#1467=CARTESIAN_POINT('',(10.4999997764826,2.39826029539168,86.0000011324883));
#1468=CARTESIAN_POINT('',(53.4999997764826,18.3667496948303,86.0000011324881));
#1469=CARTESIAN_POINT('Origin',(31.999999999995,25.0000000000001,86.0000011324881));
#1470=CARTESIAN_POINT('',(53.4999997764826,9.89826029539168,86.0000011324883));
#1471=CARTESIAN_POINT('',(53.4999997764826,2.39826029539168,86.0000011324883));
#1472=CARTESIAN_POINT('',(62.4999997764826,0.89826029539168,86.0000011324883));
#1473=CARTESIAN_POINT('Origin',(62.4999997764826,9.89826029539168,86.0000011324883));
#1474=CARTESIAN_POINT('',(67.9999997764828,0.89826029539168,86.0000011324883));
#1475=CARTESIAN_POINT('',(58.1249997764828,0.89826029539168,86.0000011324883));
#1476=CARTESIAN_POINT('',(67.9999997764828,-0.10173970460832,86.0000011324883));
#1477=CARTESIAN_POINT('',(67.9999997764828,-0.10173970460832,86.0000011324883));
#1478=CARTESIAN_POINT('',(68.9999997764828,-0.10173970460832,86.0000011324883));
#1479=CARTESIAN_POINT('Origin',(28.3749997764826,0.89826029539168,87.0000011324883));
#1480=CARTESIAN_POINT('',(1.49999977648258,1.89826029539168,87.0000011324883));
#1481=CARTESIAN_POINT('',(28.3749997764826,1.89826029539168,87.0000011324883));
#1482=CARTESIAN_POINT('Origin',(1.49999977648258,0.898260295391681,87.0000011324883));
#1483=CARTESIAN_POINT('Origin',(2.24999977648237,1.89826029539168,107.422001132488));
#1484=CARTESIAN_POINT('',(1.49999977648258,1.89826029539168,127.844001132488));
#1485=CARTESIAN_POINT('',(35.6249997764826,1.89826029539168,127.844001132488));
#1486=CARTESIAN_POINT('',(1.49999977648258,1.89826029539168,96.7110011324883));
#1487=CARTESIAN_POINT('',(-1.75000022351763,1.89826029539168,92.8688011324883));
#1488=CARTESIAN_POINT('Origin',(-1.75000022351763,1.89826029539168,94.5688011324883));
#1489=CARTESIAN_POINT('',(-1.75000022351752,1.89826029539168,118.569001132488));
#1490=CARTESIAN_POINT('Origin',(-1.75000022351752,1.89826029539168,120.269001132488));
#1491=CARTESIAN_POINT('Origin',(35.6249997764826,0.89826029539168,127.844001132488));
#1492=CARTESIAN_POINT('Origin',(1.49999977648258,0.898260295391681,127.844001132488));
#1493=CARTESIAN_POINT('Origin',(67.9999997764828,-0.10173970460832,127.844001132488));
#1494=CARTESIAN_POINT('',(68.9999997764828,-0.10173970460832,127.844001132488));
#1495=CARTESIAN_POINT('Origin',(67.9999997764828,-0.10173970460832,127.844001132488));
#1496=CARTESIAN_POINT('',(68.9999997764828,0.89826029539168,127.844001132488));
#1497=CARTESIAN_POINT('',(68.9999997764828,-0.10173970460832,127.844001132488));
#1498=CARTESIAN_POINT('Origin',(67.9999997764828,0.89826029539168,127.844001132488));
#1499=CARTESIAN_POINT('Origin',(67.9999997764828,0.89826029539168,96.7110011324883));
#1500=CARTESIAN_POINT('',(68.9999997764828,0.89826029539168,87.0000011324883));
#1501=CARTESIAN_POINT('',(67.9999997764828,1.89826029539168,87.0000011324883));
#1502=CARTESIAN_POINT('Origin',(67.9999997764828,0.89826029539168,87.0000011324883));
#1503=CARTESIAN_POINT('',(67.9999997764828,1.89826029539168,127.844001132488));
#1504=CARTESIAN_POINT('',(67.9999997764828,1.89826029539168,96.7110011324883));
#1505=CARTESIAN_POINT('Origin',(67.9999997764828,0.89826029539168,127.844001132488));
#1506=CARTESIAN_POINT('',(68.9999997764828,0.89826029539168,96.7110011324883));
#1507=CARTESIAN_POINT('Origin',(67.9999997764828,-0.10173970460832,87.0000011324883));
#1508=CARTESIAN_POINT('',(68.9999997764828,-0.10173970460832,87.0000011324883));
#1509=CARTESIAN_POINT('Origin',(67.9999997764828,-0.10173970460832,87.0000011324883));
#1510=CARTESIAN_POINT('Origin',(67.9999997764828,0.89826029539168,87.0000011324883));
#1511=CARTESIAN_POINT('',(68.9999997764828,-0.10173970460832,87.0000011324883));
#1512=CARTESIAN_POINT('Origin',(67.9999997764828,0.89826029539168,87.0000011324883));
#1513=CARTESIAN_POINT('Origin',(67.9999997764828,0.89826029539168,87.0000011324883));
#1514=CARTESIAN_POINT('Origin',(67.9999997764828,0.89826029539168,127.844001132488));
#1515=CARTESIAN_POINT('Origin',(67.9999997764828,0.89826029539168,127.844001132488));
#1516=CARTESIAN_POINT('Origin',(65.3749997764828,0.89826029539168,127.844001132488));
#1517=CARTESIAN_POINT('',(62.4999997764826,1.89826029539168,127.844001132488));
#1518=CARTESIAN_POINT('',(65.3749997764828,1.89826029539168,127.844001132488));
#1519=CARTESIAN_POINT('Origin',(62.4999997764826,0.89826029539168,127.844001132488));
#1520=CARTESIAN_POINT('Origin',(61.7499997764828,1.89826029539168,107.422001132488));
#1521=CARTESIAN_POINT('',(62.4999997764826,1.89826029539168,87.0000011324883));
#1522=CARTESIAN_POINT('',(58.1249997764828,1.89826029539168,87.0000011324883));
#1523=CARTESIAN_POINT('',(62.4999997764826,1.89826029539168,118.133001132488));
#1524=CARTESIAN_POINT('',(65.7499997764828,1.89826029539168,92.8688011324883));
#1525=CARTESIAN_POINT('Origin',(65.7499997764828,1.89826029539168,94.5688011324883));
#1526=CARTESIAN_POINT('',(65.7499997764827,1.89826029539168,118.569001132488));
#1527=CARTESIAN_POINT('Origin',(65.7499997764827,1.89826029539168,120.269001132488));
#1528=CARTESIAN_POINT('Origin',(58.1249997764828,0.89826029539168,87.0000011324883));
#1529=CARTESIAN_POINT('Origin',(62.4999997764826,0.89826029539168,87.0000011324883));
#1530=CARTESIAN_POINT('Origin',(10.4999997764826,2.39826029539168,87.0000011324883));
#1531=CARTESIAN_POINT('',(9.49999977648258,9.89826029539168,87.0000011324883));
#1532=CARTESIAN_POINT('Origin',(10.4999997764826,9.89826029539168,87.0000011324883));
#1533=CARTESIAN_POINT('',(9.49999977648245,25.0000000000001,87.0000011324883));
#1534=CARTESIAN_POINT('',(9.49999977648258,2.39826029539168,87.0000011324883));
#1535=CARTESIAN_POINT('Ctrl Pts',(10.4999997764826,18.3667511437484,86.0000011324883));
#1536=CARTESIAN_POINT('Ctrl Pts',(10.1838664685109,19.391417387899,86.0000011324883));
#1537=CARTESIAN_POINT('Ctrl Pts',(9.9199973891675,20.5220457826405,86.1452492241305));
#1538=CARTESIAN_POINT('Ctrl Pts',(9.57799487660427,22.8017795922055,86.5341569077634));
#1539=CARTESIAN_POINT('Ctrl Pts',(9.49999977648258,23.9507383230479,86.7787973495405));
#1540=CARTESIAN_POINT('Ctrl Pts',(9.49999977648258,25.0000000000001,87.0000011324883));
#1541=CARTESIAN_POINT('Origin',(1.49999977648258,9.89826029539168,87.0000011324883));
#1542=CARTESIAN_POINT('Origin',(1.49999977648258,9.89826029539168,87.0000011324883));
#1543=CARTESIAN_POINT('Origin',(9.49999977648258,4.89826029539168,86.0000011324883));
#1544=CARTESIAN_POINT('',(9.49999977648258,9.89826029539168,127.844001132488));
#1545=CARTESIAN_POINT('',(9.49999977648258,9.89826029539168,96.7110011324883));
#1546=CARTESIAN_POINT('',(9.49999977648221,25.0000000000001,127.844001132488));
#1547=CARTESIAN_POINT('',(9.49999977648258,2.39826029539168,127.844001132488));
#1548=CARTESIAN_POINT('',(9.49999977648258,25.0000000000001,64.2435369137147));
#1549=CARTESIAN_POINT('Origin',(1.49999977648258,9.89826029539168,96.7110011324883));
#1550=CARTESIAN_POINT('Origin',(1.49999977648258,9.89826029539168,127.844001132488));
#1551=CARTESIAN_POINT('Origin',(-5.00000022351763,-0.10173970460832,86.0000011324883));
#1552=CARTESIAN_POINT('',(-5.00000022351763,-0.10173970460832,128.844001132488));
#1553=CARTESIAN_POINT('Origin',(53.4999997764826,2.39826029539168,87.0000011324883));
#1554=CARTESIAN_POINT('',(54.4999997764826,9.89826029539168,87.0000011324883));
#1555=CARTESIAN_POINT('Origin',(53.4999997764826,9.89826029539168,87.0000011324883));
#1556=CARTESIAN_POINT('',(54.4999997764825,25.0000000000001,87.0000011324883));
#1557=CARTESIAN_POINT('Ctrl Pts',(54.4999997764826,25.0000000000001,87.0000011324883));
#1558=CARTESIAN_POINT('Ctrl Pts',(54.4999997764826,23.950738103166,86.7787973009879));
#1559=CARTESIAN_POINT('Ctrl Pts',(54.4220050700447,22.8017789424051,86.5341575432563));
#1560=CARTESIAN_POINT('Ctrl Pts',(54.0800024108736,20.522044744061,86.1452493174173));
#1561=CARTESIAN_POINT('Ctrl Pts',(53.8161332198903,19.391416132837,86.0000011324882));
#1562=CARTESIAN_POINT('Ctrl Pts',(53.4999997764826,18.3667496948303,86.0000011324882));
#1563=CARTESIAN_POINT('',(54.4999997764826,2.39826029539168,87.0000011324883));
#1564=CARTESIAN_POINT('Origin',(62.4999997764826,9.89826029539168,87.0000011324883));
#1565=CARTESIAN_POINT('Origin',(62.4999997764826,9.89826029539168,87.0000011324883));
#1566=CARTESIAN_POINT('Origin',(68.9999997764828,-0.10173970460832,86.0000011324883));
#1567=CARTESIAN_POINT('',(68.9999997764828,-0.10173970460832,128.844001132488));
#1568=CARTESIAN_POINT('Origin',(62.4999997764826,9.89826029539168,118.133001132488));
#1569=CARTESIAN_POINT('',(54.4999997764826,9.89826029539168,127.844001132488));
#1570=CARTESIAN_POINT('',(54.4999997764826,9.89826029539168,118.133001132488));
#1571=CARTESIAN_POINT('Origin',(62.4999997764826,9.89826029539168,127.844001132488));
#1572=CARTESIAN_POINT('Origin',(54.4999997764826,4.89826029539168,128.844001132488));
#1573=CARTESIAN_POINT('',(54.4999997764822,25.0000000000001,127.844001132488));
#1574=CARTESIAN_POINT('',(54.4999997764826,25.0000000000001,64.243536913715));
#1575=CARTESIAN_POINT('',(54.4999997764826,2.39826029539168,127.844001132488));
#1576=CARTESIAN_POINT('Origin',(62.4999997764826,9.89826029539168,127.844001132488));
#1577=CARTESIAN_POINT('Origin',(53.4999997764826,9.89826029539168,127.844001132488));
#1578=CARTESIAN_POINT('Origin',(53.4999997764826,2.39826029539168,127.844001132488));
#1579=CARTESIAN_POINT('Origin',(53.4999997764826,25.0000000000001,127.844001132488));
#1580=CARTESIAN_POINT('Origin',(31.9999999999948,25.0000000000001,127.844001132488));
#1581=CARTESIAN_POINT('Origin',(10.4999999999948,25.0000000000001,127.844001132488));
#1582=CARTESIAN_POINT('Origin',(31.9999999999948,25.0000000000001,127.844001132488));
#1583=CARTESIAN_POINT('Origin',(10.4999997764826,2.39826029539168,127.844001132488));
#1584=CARTESIAN_POINT('Origin',(10.4999997764826,9.89826029539168,127.844001132488));
#1585=CARTESIAN_POINT('Origin',(1.49999977648258,9.89826029539168,127.844001132488));
#1586=CARTESIAN_POINT('Origin',(65.7499997764828,-0.85173970460832,94.5688011324883));
#1587=CARTESIAN_POINT('',(65.7499997764828,-0.10173970460832,92.8688011324883));
#1588=CARTESIAN_POINT('',(65.7499997764828,-0.85173970460832,92.8688011324883));
#1589=CARTESIAN_POINT('Origin',(65.7499997764828,-0.10173970460832,94.5688011324883));
#1590=CARTESIAN_POINT('Origin',(65.7499997764827,-0.85173970460832,120.269001132488));
#1591=CARTESIAN_POINT('',(65.7499997764827,-0.10173970460832,118.569001132488));
#1592=CARTESIAN_POINT('',(65.7499997764827,-0.85173970460832,118.569001132488));
#1593=CARTESIAN_POINT('Origin',(65.7499997764827,-0.10173970460832,120.269001132488));
#1594=CARTESIAN_POINT('Origin',(-1.75000022351763,-0.85173970460832,94.5688011324883));
#1595=CARTESIAN_POINT('',(-1.75000022351763,-0.10173970460832,92.8688011324883));
#1596=CARTESIAN_POINT('',(-1.75000022351763,-0.85173970460832,92.8688011324883));
#1597=CARTESIAN_POINT('Origin',(-1.75000022351763,-0.10173970460832,94.5688011324883));
#1598=CARTESIAN_POINT('Origin',(-1.75000022351752,-0.85173970460832,120.269001132488));
#1599=CARTESIAN_POINT('',(-1.75000022351753,-0.10173970460832,118.569001132488));
#1600=CARTESIAN_POINT('',(-1.75000022351752,-0.85173970460832,118.569001132488));
#1601=CARTESIAN_POINT('Origin',(-1.75000022351752,-0.10173970460832,120.269001132488));
#1602=CARTESIAN_POINT('Origin',(31.9999999999952,25.0000000000001,63.2435369137148));
#1603=CARTESIAN_POINT('',(52.4999999999952,25.0000000000001,61.2435369137149));
#1604=CARTESIAN_POINT('Origin',(31.9999999999952,25.0000000000001,61.2435369137148));
#1605=CARTESIAN_POINT('',(54.4999999999952,25.0000000000001,63.2435369137149));
#1606=CARTESIAN_POINT('Origin',(52.4999999999952,25.0000000000001,63.2435369137149));
#1607=CARTESIAN_POINT('Origin',(31.9999999999952,25.0000000000001,63.2435369137148));
#1608=CARTESIAN_POINT('Origin',(31.9999999999952,25.0000000000001,64.2435369137148));
#1609=CARTESIAN_POINT('',(54.4999999999952,25.0000000000001,64.243536913715));
#1610=CARTESIAN_POINT('Origin',(31.9999999999952,25.0000000000001,61.2435369137148));
#1611=CARTESIAN_POINT('',(41.3836200608778,29.4841581766261,61.2435369137149));
#1612=CARTESIAN_POINT('',(22.6163799391127,29.4841581766262,61.2435369137148));
#1613=CARTESIAN_POINT('Origin',(31.9999999999952,25.0000000000001,61.2435369137148));
#1614=CARTESIAN_POINT('',(22.6163799391126,20.515841823374,61.2435369137148));
#1615=CARTESIAN_POINT('',(22.6163799391127,29.4841581766262,61.2435369137148));
#1616=CARTESIAN_POINT('',(41.3836200608777,20.5158418233739,61.2435369137149));
#1617=CARTESIAN_POINT('Origin',(31.9999999999952,25.0000000000001,61.2435369137148));
#1618=CARTESIAN_POINT('',(41.3836200608777,20.5158418233739,61.2435369137149));
#1619=CARTESIAN_POINT('Origin',(41.3836200608777,20.5158418233739,64.2435369137149));
#1620=CARTESIAN_POINT('',(41.3836200608777,20.5158418233739,64.2435369137149));
#1621=CARTESIAN_POINT('',(41.3836200608777,29.4841581766261,64.2435369137149));
#1622=CARTESIAN_POINT('',(41.3836200608777,20.5158418233739,64.2435369137149));
#1623=CARTESIAN_POINT('',(41.3836200608777,29.4841581766261,64.2435369137149));
#1624=CARTESIAN_POINT('',(41.3836200608777,20.5158418233739,64.2435369137149));
#1625=CARTESIAN_POINT('Origin',(31.9999999999952,25.0000000000001,64.2435369137148));
#1626=CARTESIAN_POINT('',(22.6163799391126,20.515841823374,64.2435369137148));
#1627=CARTESIAN_POINT('Origin',(31.9999999999952,25.0000000000001,64.2435369137148));
#1628=CARTESIAN_POINT('',(22.6163799391126,20.515841823374,64.2435369137148));
#1629=CARTESIAN_POINT('Origin',(22.6163799391126,29.4841581766262,64.2435369137148));
#1630=CARTESIAN_POINT('',(22.6163799391126,29.4841581766262,64.2435369137148));
#1631=CARTESIAN_POINT('',(22.6163799391126,29.4841581766262,64.2435369137148));
#1632=CARTESIAN_POINT('',(22.6163799391126,29.4841581766262,64.2435369137148));
#1633=CARTESIAN_POINT('Origin',(31.9999999999952,25.0000000000001,64.2435369137148));
#1634=CARTESIAN_POINT('Origin',(31.9999999999952,25.0000000000001,64.2435369137148));
#1635=CARTESIAN_POINT('Origin',(31.9999999999952,25.0000000000001,64.2435369137148));
#1636=CARTESIAN_POINT('Origin',(61.7499997764828,-0.10173970460832,107.422001132488));
#1637=UNCERTAINTY_MEASURE_WITH_UNIT(LENGTH_MEASURE(0.01),#1641,
'DISTANCE_ACCURACY_VALUE',
'Maximum model space distance between geometric entities at asserted c
onnectivities');
#1638=UNCERTAINTY_MEASURE_WITH_UNIT(LENGTH_MEASURE(0.01),#1641,
'DISTANCE_ACCURACY_VALUE',
'Maximum model space distance between geometric entities at asserted c
onnectivities');
#1639=(
GEOMETRIC_REPRESENTATION_CONTEXT(3)
GLOBAL_UNCERTAINTY_ASSIGNED_CONTEXT((#1637))
GLOBAL_UNIT_ASSIGNED_CONTEXT((#1641,#1643,#1644))
REPRESENTATION_CONTEXT('','3D')
);
#1640=(
GEOMETRIC_REPRESENTATION_CONTEXT(3)
GLOBAL_UNCERTAINTY_ASSIGNED_CONTEXT((#1638))
GLOBAL_UNIT_ASSIGNED_CONTEXT((#1641,#1643,#1644))
REPRESENTATION_CONTEXT('','3D')
);
#1641=(
LENGTH_UNIT()
NAMED_UNIT(*)
SI_UNIT(.MILLI.,.METRE.)
);
#1642=(
LENGTH_UNIT()
NAMED_UNIT(*)
SI_UNIT($,.METRE.)
);
#1643=(
NAMED_UNIT(*)
PLANE_ANGLE_UNIT()
SI_UNIT($,.RADIAN.)
);
#1644=(
NAMED_UNIT(*)
SI_UNIT($,.STERADIAN.)
SOLID_ANGLE_UNIT()
);
#1645=SHAPE_DEFINITION_REPRESENTATION(#1646,#1647);
#1646=PRODUCT_DEFINITION_SHAPE('',$,#1649);
#1647=SHAPE_REPRESENTATION('',(#934),#1639);
#1648=PRODUCT_DEFINITION_CONTEXT('part definition',#1653,'design');
#1649=PRODUCT_DEFINITION('2025-11-19-23-14-44-113','Drive Motor Holder',
#1650,#1648);
#1650=PRODUCT_DEFINITION_FORMATION('',$,#1655);
#1651=PRODUCT_RELATED_PRODUCT_CATEGORY('Drive Motor Holder',
'Drive Motor Holder',(#1655));
#1652=APPLICATION_PROTOCOL_DEFINITION('international standard',
'automotive_design',2009,#1653);
#1653=APPLICATION_CONTEXT(
'Core Data for Automotive Mechanical Design Process');
#1654=PRODUCT_CONTEXT('part definition',#1653,'mechanical');
#1655=PRODUCT('2025-11-19-23-14-44-113','Drive Motor Holder',$,(#1654));
#1656=PRESENTATION_STYLE_ASSIGNMENT((#1657));
#1657=SURFACE_STYLE_USAGE(.BOTH.,#1658);
#1658=SURFACE_SIDE_STYLE('',(#1659));
#1659=SURFACE_STYLE_FILL_AREA(#1660);
#1660=FILL_AREA_STYLE('Steel - Satin',(#1661));
#1661=FILL_AREA_STYLE_COLOUR('Steel - Satin',#1662);
#1662=COLOUR_RGB('Steel - Satin',0.627450980392157,0.627450980392157,0.627450980392157);
ENDSEC;
END-ISO-10303-21;
