ISO-10303-21;
HEADER;
/* Generated by software containing ST-Developer
 * from STEP Tools, Inc. (www.steptools.com) 
 */

FILE_DESCRIPTION(
/* description */ (''),
/* implementation_level */ '2;1');

FILE_NAME(
/* name */ 'Flipper arm pt 2.step',
/* time_stamp */ '2026-08-27T11:18:52-05:00',
/* author */ (''),
/* organization */ (''),
/* preprocessor_version */ 'ST-DEVELOPER v20.1',
/* originating_system */ 'Autodesk Translation Framework v15.8.0.0',
/* authorisation */ '');

FILE_SCHEMA (('AUTOMOTIVE_DESIGN { 1 0 10303 214 3 1 1 }'));
ENDSEC;

DATA;
#10=MECHANICAL_DESIGN_GEOMETRIC_PRESENTATION_REPRESENTATION('',(#13),#1168);
#11=SHAPE_REPRESENTATION_RELATIONSHIP('SRR','None',#1175,#12);
#12=ADVANCED_BREP_SHAPE_REPRESENTATION('',(#14),#1167);
#13=STYLED_ITEM('',(#1184),#14);
#14=MANIFOLD_SOLID_BREP('Body1',#640);
#15=CYLINDRICAL_SURFACE('',#661,1.70000000000002);
#16=CYLINDRICAL_SURFACE('',#664,1.70000000000002);
#17=CYLINDRICAL_SURFACE('',#667,1.70000000000002);
#18=CYLINDRICAL_SURFACE('',#670,1.70000000000002);
#19=CYLINDRICAL_SURFACE('',#673,1.70000000000002);
#20=CYLINDRICAL_SURFACE('',#676,1.70000000000002);
#21=CYLINDRICAL_SURFACE('',#689,35.);
#22=CYLINDRICAL_SURFACE('',#692,4.175);
#23=CYLINDRICAL_SURFACE('',#696,3.);
#24=CYLINDRICAL_SURFACE('',#700,3.);
#25=CYLINDRICAL_SURFACE('',#704,1.7);
#26=CYLINDRICAL_SURFACE('',#705,1.7);
#27=CYLINDRICAL_SURFACE('',#708,4.175);
#28=CYLINDRICAL_SURFACE('',#711,12.5);
#29=FACE_BOUND('',#207,.T.);
#30=FACE_BOUND('',#220,.T.);
#31=FACE_BOUND('',#221,.T.);
#32=FACE_BOUND('',#222,.T.);
#33=FACE_BOUND('',#223,.T.);
#34=FACE_BOUND('',#224,.T.);
#35=FACE_BOUND('',#225,.T.);
#36=FACE_BOUND('',#228,.T.);
#37=FACE_BOUND('',#229,.T.);
#38=FACE_BOUND('',#230,.T.);
#39=FACE_BOUND('',#231,.T.);
#40=FACE_BOUND('',#232,.T.);
#41=FACE_BOUND('',#233,.T.);
#42=FACE_BOUND('',#237,.T.);
#43=FACE_BOUND('',#243,.T.);
#44=FACE_BOUND('',#246,.T.);
#45=FACE_BOUND('',#252,.T.);
#46=FACE_BOUND('',#254,.T.);
#47=FACE_BOUND('',#255,.T.);
#48=LINE('',#920,#101);
#49=LINE('',#922,#102);
#50=LINE('',#925,#103);
#51=LINE('',#927,#104);
#52=LINE('',#929,#105);
#53=LINE('',#933,#106);
#54=LINE('',#935,#107);
#55=LINE('',#937,#108);
#56=LINE('',#943,#109);
#57=LINE('',#949,#110);
#58=LINE('',#955,#111);
#59=LINE('',#961,#112);
#60=LINE('',#967,#113);
#61=LINE('',#973,#114);
#62=LINE('',#977,#115);
#63=LINE('',#979,#116);
#64=LINE('',#980,#117);
#65=LINE('',#983,#118);
#66=LINE('',#985,#119);
#67=LINE('',#987,#120);
#68=LINE('',#988,#121);
#69=LINE('',#991,#122);
#70=LINE('',#993,#123);
#71=LINE('',#994,#124);
#72=LINE('',#997,#125);
#73=LINE('',#999,#126);
#74=LINE('',#1000,#127);
#75=LINE('',#1004,#128);
#76=LINE('',#1006,#129);
#77=LINE('',#1008,#130);
#78=LINE('',#1009,#131);
#79=LINE('',#1011,#132);
#80=LINE('',#1012,#133);
#81=LINE('',#1014,#134);
#82=LINE('',#1017,#135);
#83=LINE('',#1020,#136);
#84=LINE('',#1024,#137);
#85=LINE('',#1026,#138);
#86=LINE('',#1027,#139);
#87=LINE('',#1032,#140);
#88=LINE('',#1036,#141);
#89=LINE('',#1037,#142);
#90=LINE('',#1040,#143);
#91=LINE('',#1041,#144);
#92=LINE('',#1046,#145);
#93=LINE('',#1095,#146);
#94=LINE('',#1145,#147);
#95=LINE('',#1148,#148);
#96=LINE('',#1152,#149);
#97=LINE('',#1153,#150);
#98=LINE('',#1156,#151);
#99=LINE('',#1160,#152);
#100=LINE('',#1161,#153);
#101=VECTOR('',#724,10.);
#102=VECTOR('',#725,10.);
#103=VECTOR('',#728,10.);
#104=VECTOR('',#729,10.);
#105=VECTOR('',#730,10.);
#106=VECTOR('',#733,10.);
#107=VECTOR('',#734,10.);
#108=VECTOR('',#735,10.);
#109=VECTOR('',#742,1.70000000000002);
#110=VECTOR('',#749,1.70000000000002);
#111=VECTOR('',#756,1.70000000000002);
#112=VECTOR('',#763,1.70000000000002);
#113=VECTOR('',#770,1.70000000000002);
#114=VECTOR('',#777,1.70000000000002);
#115=VECTOR('',#782,10.);
#116=VECTOR('',#783,10.);
#117=VECTOR('',#784,10.);
#118=VECTOR('',#787,10.);
#119=VECTOR('',#788,10.);
#120=VECTOR('',#789,10.);
#121=VECTOR('',#790,10.);
#122=VECTOR('',#793,10.);
#123=VECTOR('',#794,10.);
#124=VECTOR('',#795,10.);
#125=VECTOR('',#798,10.);
#126=VECTOR('',#799,10.);
#127=VECTOR('',#800,10.);
#128=VECTOR('',#803,10.);
#129=VECTOR('',#804,10.);
#130=VECTOR('',#805,10.);
#131=VECTOR('',#806,10.);
#132=VECTOR('',#809,10.);
#133=VECTOR('',#810,10.);
#134=VECTOR('',#813,10.);
#135=VECTOR('',#816,10.);
#136=VECTOR('',#821,10.);
#137=VECTOR('',#826,10.);
#138=VECTOR('',#827,10.);
#139=VECTOR('',#828,10.);
#140=VECTOR('',#833,10.);
#141=VECTOR('',#838,10.);
#142=VECTOR('',#839,10.);
#143=VECTOR('',#842,10.);
#144=VECTOR('',#843,10.);
#145=VECTOR('',#848,3.);
#146=VECTOR('',#857,3.);
#147=VECTOR('',#864,1.7);
#148=VECTOR('',#867,1.7);
#149=VECTOR('',#872,10.);
#150=VECTOR('',#873,10.);
#151=VECTOR('',#876,10.);
#152=VECTOR('',#881,10.);
#153=VECTOR('',#882,10.);
#154=PLANE('',#657);
#155=PLANE('',#679);
#156=PLANE('',#680);
#157=PLANE('',#681);
#158=PLANE('',#682);
#159=PLANE('',#683);
#160=PLANE('',#684);
#161=PLANE('',#685);
#162=PLANE('',#686);
#163=PLANE('',#688);
#164=PLANE('',#690);
#165=PLANE('',#694);
#166=PLANE('',#695);
#167=PLANE('',#698);
#168=PLANE('',#702);
#169=PLANE('',#707);
#170=PLANE('',#710);
#171=PLANE('',#713);
#172=FACE_OUTER_BOUND('',#205,.T.);
#173=FACE_OUTER_BOUND('',#206,.T.);
#174=FACE_OUTER_BOUND('',#208,.T.);
#175=FACE_OUTER_BOUND('',#209,.T.);
#176=FACE_OUTER_BOUND('',#210,.T.);
#177=FACE_OUTER_BOUND('',#211,.T.);
#178=FACE_OUTER_BOUND('',#212,.T.);
#179=FACE_OUTER_BOUND('',#213,.T.);
#180=FACE_OUTER_BOUND('',#214,.T.);
#181=FACE_OUTER_BOUND('',#215,.T.);
#182=FACE_OUTER_BOUND('',#216,.T.);
#183=FACE_OUTER_BOUND('',#217,.T.);
#184=FACE_OUTER_BOUND('',#218,.T.);
#185=FACE_OUTER_BOUND('',#219,.T.);
#186=FACE_OUTER_BOUND('',#226,.T.);
#187=FACE_OUTER_BOUND('',#227,.T.);
#188=FACE_OUTER_BOUND('',#234,.T.);
#189=FACE_OUTER_BOUND('',#235,.T.);
#190=FACE_OUTER_BOUND('',#236,.T.);
#191=FACE_OUTER_BOUND('',#238,.T.);
#192=FACE_OUTER_BOUND('',#239,.T.);
#193=FACE_OUTER_BOUND('',#240,.T.);
#194=FACE_OUTER_BOUND('',#241,.T.);
#195=FACE_OUTER_BOUND('',#242,.T.);
#196=FACE_OUTER_BOUND('',#244,.T.);
#197=FACE_OUTER_BOUND('',#245,.T.);
#198=FACE_OUTER_BOUND('',#247,.T.);
#199=FACE_OUTER_BOUND('',#248,.T.);
#200=FACE_OUTER_BOUND('',#249,.T.);
#201=FACE_OUTER_BOUND('',#250,.T.);
#202=FACE_OUTER_BOUND('',#251,.T.);
#203=FACE_OUTER_BOUND('',#253,.T.);
#204=FACE_OUTER_BOUND('',#256,.T.);
#205=EDGE_LOOP('',(#434,#435,#436,#437));
#206=EDGE_LOOP('',(#438,#439,#440,#441));
#207=EDGE_LOOP('',(#442,#443,#444,#445,#446,#447,#448,#449));
#208=EDGE_LOOP('',(#450,#451,#452,#453));
#209=EDGE_LOOP('',(#454,#455,#456,#457));
#210=EDGE_LOOP('',(#458,#459,#460,#461));
#211=EDGE_LOOP('',(#462,#463,#464,#465));
#212=EDGE_LOOP('',(#466,#467,#468,#469));
#213=EDGE_LOOP('',(#470,#471,#472,#473));
#214=EDGE_LOOP('',(#474,#475,#476,#477));
#215=EDGE_LOOP('',(#478,#479,#480,#481,#482,#483));
#216=EDGE_LOOP('',(#484,#485,#486,#487));
#217=EDGE_LOOP('',(#488,#489,#490,#491));
#218=EDGE_LOOP('',(#492,#493,#494,#495));
#219=EDGE_LOOP('',(#496,#497,#498,#499,#500,#501,#502));
#220=EDGE_LOOP('',(#503));
#221=EDGE_LOOP('',(#504));
#222=EDGE_LOOP('',(#505));
#223=EDGE_LOOP('',(#506));
#224=EDGE_LOOP('',(#507));
#225=EDGE_LOOP('',(#508));
#226=EDGE_LOOP('',(#509,#510,#511,#512));
#227=EDGE_LOOP('',(#513,#514,#515,#516,#517,#518,#519));
#228=EDGE_LOOP('',(#520));
#229=EDGE_LOOP('',(#521));
#230=EDGE_LOOP('',(#522));
#231=EDGE_LOOP('',(#523));
#232=EDGE_LOOP('',(#524));
#233=EDGE_LOOP('',(#525));
#234=EDGE_LOOP('',(#526,#527,#528,#529,#530,#531));
#235=EDGE_LOOP('',(#532,#533,#534,#535));
#236=EDGE_LOOP('',(#536,#537,#538,#539,#540));
#237=EDGE_LOOP('',(#541));
#238=EDGE_LOOP('',(#542,#543,#544,#545));
#239=EDGE_LOOP('',(#546,#547,#548,#549));
#240=EDGE_LOOP('',(#550,#551,#552,#553));
#241=EDGE_LOOP('',(#554,#555,#556,#557,#558));
#242=EDGE_LOOP('',(#559));
#243=EDGE_LOOP('',(#560));
#244=EDGE_LOOP('',(#561,#562,#563,#564,#565));
#245=EDGE_LOOP('',(#566));
#246=EDGE_LOOP('',(#567));
#247=EDGE_LOOP('',(#568,#569,#570,#571));
#248=EDGE_LOOP('',(#572,#573,#574,#575));
#249=EDGE_LOOP('',(#576,#577,#578,#579));
#250=EDGE_LOOP('',(#580,#581,#582,#583));
#251=EDGE_LOOP('',(#584,#585,#586,#587,#588));
#252=EDGE_LOOP('',(#589));
#253=EDGE_LOOP('',(#590,#591,#592,#593));
#254=EDGE_LOOP('',(#594,#595));
#255=EDGE_LOOP('',(#596,#597));
#256=EDGE_LOOP('',(#598,#599,#600,#601,#602,#603,#604,#605));
#257=CIRCLE('',#655,15.5);
#258=CIRCLE('',#656,12.5);
#259=CIRCLE('',#658,35.);
#260=CIRCLE('',#659,4.175);
#261=CIRCLE('',#660,4.175);
#262=CIRCLE('',#662,1.70000000000002);
#263=CIRCLE('',#663,1.70000000000002);
#264=CIRCLE('',#665,1.70000000000002);
#265=CIRCLE('',#666,1.70000000000002);
#266=CIRCLE('',#668,1.70000000000002);
#267=CIRCLE('',#669,1.70000000000002);
#268=CIRCLE('',#671,1.70000000000002);
#269=CIRCLE('',#672,1.70000000000002);
#270=CIRCLE('',#674,1.70000000000002);
#271=CIRCLE('',#675,1.70000000000002);
#272=CIRCLE('',#677,1.70000000000002);
#273=CIRCLE('',#678,1.70000000000002);
#274=CIRCLE('',#687,35.);
#275=CIRCLE('',#691,1.7);
#276=CIRCLE('',#693,4.175);
#277=CIRCLE('',#697,3.);
#278=CIRCLE('',#699,1.7);
#279=CIRCLE('',#701,3.);
#280=CIRCLE('',#703,1.7);
#281=CIRCLE('',#706,1.7);
#282=CIRCLE('',#709,4.175);
#283=CIRCLE('',#712,12.5);
#284=B_SPLINE_CURVE_WITH_KNOTS('',3,(#893,#894,#895,#896,#897,#898,#899,
#900,#901,#902),.UNSPECIFIED.,.F.,.F.,(4,2,2,2,4),(0.888815634752921,0.999862724932049,
1.11095467237992,1.22208889274965,1.33324307084561),.UNSPECIFIED.);
#285=B_SPLINE_CURVE_WITH_KNOTS('',3,(#906,#907,#908,#909,#910,#911,#912,
#913,#914,#915),.UNSPECIFIED.,.F.,.F.,(4,2,2,2,4),(0.444388198660236,0.555542376756188,
0.666676597125919,0.777768544573793,0.88881563475292),.UNSPECIFIED.);
#286=B_SPLINE_CURVE_WITH_KNOTS('',3,(#1048,#1049,#1050,#1051,#1052,#1053,
#1054,#1055,#1056,#1057,#1058,#1059,#1060,#1061,#1062,#1063,#1064,#1065,
#1066,#1067),.UNSPECIFIED.,.F.,.F.,(4,2,2,2,2,2,2,2,2,4),(0.,0.0631668334945581,
0.126333666989116,0.252667333978233,0.440236417057453,0.627805500136674,
0.770286048047495,0.912766595958316,1.02354184693597,1.13431709791363),
 .UNSPECIFIED.);
#287=B_SPLINE_CURVE_WITH_KNOTS('',3,(#1068,#1069,#1070,#1071,#1072,#1073,
#1074,#1075,#1076,#1077,#1078,#1079,#1080,#1081,#1082,#1083,#1084,#1085,
#1086,#1087),.UNSPECIFIED.,.F.,.F.,(4,2,2,2,2,2,2,2,2,4),(1.13431709791363,
1.24509234889129,1.35586759986895,1.49834814777977,1.64082869569059,1.82839777876981,
2.01596686184903,2.14230052883815,2.20546736233271,2.26863419582727),
 .UNSPECIFIED.);
#288=B_SPLINE_CURVE_WITH_KNOTS('',3,(#1097,#1098,#1099,#1100,#1101,#1102,
#1103,#1104,#1105,#1106,#1107,#1108,#1109,#1110,#1111,#1112,#1113,#1114,
#1115,#1116,#1117,#1118),.UNSPECIFIED.,.F.,.F.,(4,2,2,2,2,2,2,2,2,2,4),
(0.,0.0495231721647626,0.0990463443295252,0.240957357072298,0.38286836981507,
0.529608269744622,0.676348169674174,0.798551739242206,0.920755308810237,
1.02017607969625,1.11959685058225),.UNSPECIFIED.);
#289=B_SPLINE_CURVE_WITH_KNOTS('',3,(#1119,#1120,#1121,#1122,#1123,#1124,
#1125,#1126,#1127,#1128,#1129,#1130,#1131,#1132,#1133,#1134,#1135,#1136,
#1137,#1138,#1139,#1140),.UNSPECIFIED.,.F.,.F.,(4,2,2,2,2,2,2,2,2,2,4),
(1.11959685058225,1.21901762146826,1.31843839235427,1.4406419619223,1.56284553149033,
1.70958543141988,1.85632533134944,1.99823634409221,2.14014735683498,2.18967052899974,
2.23919370116451),.UNSPECIFIED.);
#290=VERTEX_POINT('',#891);
#291=VERTEX_POINT('',#892);
#292=VERTEX_POINT('',#903);
#293=VERTEX_POINT('',#905);
#294=VERTEX_POINT('',#918);
#295=VERTEX_POINT('',#919);
#296=VERTEX_POINT('',#921);
#297=VERTEX_POINT('',#923);
#298=VERTEX_POINT('',#926);
#299=VERTEX_POINT('',#928);
#300=VERTEX_POINT('',#930);
#301=VERTEX_POINT('',#932);
#302=VERTEX_POINT('',#934);
#303=VERTEX_POINT('',#936);
#304=VERTEX_POINT('',#940);
#305=VERTEX_POINT('',#942);
#306=VERTEX_POINT('',#946);
#307=VERTEX_POINT('',#948);
#308=VERTEX_POINT('',#952);
#309=VERTEX_POINT('',#954);
#310=VERTEX_POINT('',#958);
#311=VERTEX_POINT('',#960);
#312=VERTEX_POINT('',#964);
#313=VERTEX_POINT('',#966);
#314=VERTEX_POINT('',#970);
#315=VERTEX_POINT('',#972);
#316=VERTEX_POINT('',#976);
#317=VERTEX_POINT('',#978);
#318=VERTEX_POINT('',#982);
#319=VERTEX_POINT('',#984);
#320=VERTEX_POINT('',#986);
#321=VERTEX_POINT('',#990);
#322=VERTEX_POINT('',#992);
#323=VERTEX_POINT('',#996);
#324=VERTEX_POINT('',#998);
#325=VERTEX_POINT('',#1002);
#326=VERTEX_POINT('',#1003);
#327=VERTEX_POINT('',#1005);
#328=VERTEX_POINT('',#1007);
#329=VERTEX_POINT('',#1016);
#330=VERTEX_POINT('',#1023);
#331=VERTEX_POINT('',#1025);
#332=VERTEX_POINT('',#1028);
#333=VERTEX_POINT('',#1031);
#334=VERTEX_POINT('',#1035);
#335=VERTEX_POINT('',#1039);
#336=VERTEX_POINT('',#1043);
#337=VERTEX_POINT('',#1045);
#338=VERTEX_POINT('',#1047);
#339=VERTEX_POINT('',#1089);
#340=VERTEX_POINT('',#1092);
#341=VERTEX_POINT('',#1094);
#342=VERTEX_POINT('',#1096);
#343=VERTEX_POINT('',#1142);
#344=VERTEX_POINT('',#1147);
#345=VERTEX_POINT('',#1151);
#346=VERTEX_POINT('',#1155);
#347=VERTEX_POINT('',#1159);
#348=EDGE_CURVE('',#290,#291,#284,.T.);
#349=EDGE_CURVE('',#291,#292,#257,.T.);
#350=EDGE_CURVE('',#292,#293,#285,.T.);
#351=EDGE_CURVE('',#293,#290,#258,.T.);
#352=EDGE_CURVE('',#294,#295,#48,.T.);
#353=EDGE_CURVE('',#296,#295,#49,.T.);
#354=EDGE_CURVE('',#297,#296,#259,.T.);
#355=EDGE_CURVE('',#297,#294,#50,.T.);
#356=EDGE_CURVE('',#292,#298,#51,.T.);
#357=EDGE_CURVE('',#299,#291,#52,.T.);
#358=EDGE_CURVE('',#300,#299,#260,.T.);
#359=EDGE_CURVE('',#301,#300,#53,.T.);
#360=EDGE_CURVE('',#302,#301,#54,.T.);
#361=EDGE_CURVE('',#303,#302,#55,.T.);
#362=EDGE_CURVE('',#298,#303,#261,.T.);
#363=EDGE_CURVE('',#304,#304,#262,.T.);
#364=EDGE_CURVE('',#304,#305,#56,.T.);
#365=EDGE_CURVE('',#305,#305,#263,.T.);
#366=EDGE_CURVE('',#306,#306,#264,.T.);
#367=EDGE_CURVE('',#306,#307,#57,.T.);
#368=EDGE_CURVE('',#307,#307,#265,.T.);
#369=EDGE_CURVE('',#308,#308,#266,.T.);
#370=EDGE_CURVE('',#308,#309,#58,.T.);
#371=EDGE_CURVE('',#309,#309,#267,.T.);
#372=EDGE_CURVE('',#310,#310,#268,.T.);
#373=EDGE_CURVE('',#310,#311,#59,.T.);
#374=EDGE_CURVE('',#311,#311,#269,.T.);
#375=EDGE_CURVE('',#312,#312,#270,.T.);
#376=EDGE_CURVE('',#312,#313,#60,.T.);
#377=EDGE_CURVE('',#313,#313,#271,.T.);
#378=EDGE_CURVE('',#314,#314,#272,.T.);
#379=EDGE_CURVE('',#314,#315,#61,.T.);
#380=EDGE_CURVE('',#315,#315,#273,.T.);
#381=EDGE_CURVE('',#316,#294,#62,.T.);
#382=EDGE_CURVE('',#317,#316,#63,.T.);
#383=EDGE_CURVE('',#295,#317,#64,.T.);
#384=EDGE_CURVE('',#317,#318,#65,.T.);
#385=EDGE_CURVE('',#318,#319,#66,.T.);
#386=EDGE_CURVE('',#320,#319,#67,.T.);
#387=EDGE_CURVE('',#296,#320,#68,.T.);
#388=EDGE_CURVE('',#321,#318,#69,.T.);
#389=EDGE_CURVE('',#322,#321,#70,.T.);
#390=EDGE_CURVE('',#319,#322,#71,.T.);
#391=EDGE_CURVE('',#321,#323,#72,.T.);
#392=EDGE_CURVE('',#324,#323,#73,.T.);
#393=EDGE_CURVE('',#322,#324,#74,.T.);
#394=EDGE_CURVE('',#325,#326,#75,.T.);
#395=EDGE_CURVE('',#325,#327,#76,.T.);
#396=EDGE_CURVE('',#328,#327,#77,.T.);
#397=EDGE_CURVE('',#326,#328,#78,.T.);
#398=EDGE_CURVE('',#323,#328,#79,.T.);
#399=EDGE_CURVE('',#326,#316,#80,.T.);
#400=EDGE_CURVE('',#327,#324,#81,.T.);
#401=EDGE_CURVE('',#325,#329,#82,.T.);
#402=EDGE_CURVE('',#329,#320,#274,.T.);
#403=EDGE_CURVE('',#297,#329,#83,.T.);
#404=EDGE_CURVE('',#298,#330,#84,.T.);
#405=EDGE_CURVE('',#331,#330,#85,.T.);
#406=EDGE_CURVE('',#293,#331,#86,.T.);
#407=EDGE_CURVE('',#332,#332,#275,.T.);
#408=EDGE_CURVE('',#303,#333,#87,.T.);
#409=EDGE_CURVE('',#330,#333,#276,.T.);
#410=EDGE_CURVE('',#302,#334,#88,.T.);
#411=EDGE_CURVE('',#333,#334,#89,.T.);
#412=EDGE_CURVE('',#301,#335,#90,.T.);
#413=EDGE_CURVE('',#334,#335,#91,.T.);
#414=EDGE_CURVE('',#336,#336,#277,.T.);
#415=EDGE_CURVE('',#336,#337,#92,.T.);
#416=EDGE_CURVE('',#338,#337,#286,.T.);
#417=EDGE_CURVE('',#337,#338,#287,.T.);
#418=EDGE_CURVE('',#339,#339,#278,.T.);
#419=EDGE_CURVE('',#340,#340,#279,.T.);
#420=EDGE_CURVE('',#340,#341,#93,.T.);
#421=EDGE_CURVE('',#342,#341,#288,.T.);
#422=EDGE_CURVE('',#341,#342,#289,.T.);
#423=EDGE_CURVE('',#343,#343,#280,.T.);
#424=EDGE_CURVE('',#332,#343,#94,.T.);
#425=EDGE_CURVE('',#339,#344,#95,.T.);
#426=EDGE_CURVE('',#344,#344,#281,.T.);
#427=EDGE_CURVE('',#300,#345,#96,.T.);
#428=EDGE_CURVE('',#335,#345,#97,.T.);
#429=EDGE_CURVE('',#299,#346,#98,.T.);
#430=EDGE_CURVE('',#345,#346,#282,.T.);
#431=EDGE_CURVE('',#290,#347,#99,.T.);
#432=EDGE_CURVE('',#346,#347,#100,.T.);
#433=EDGE_CURVE('',#347,#331,#283,.T.);
#434=ORIENTED_EDGE('',*,*,#348,.T.);
#435=ORIENTED_EDGE('',*,*,#349,.T.);
#436=ORIENTED_EDGE('',*,*,#350,.T.);
#437=ORIENTED_EDGE('',*,*,#351,.T.);
#438=ORIENTED_EDGE('',*,*,#352,.T.);
#439=ORIENTED_EDGE('',*,*,#353,.F.);
#440=ORIENTED_EDGE('',*,*,#354,.F.);
#441=ORIENTED_EDGE('',*,*,#355,.T.);
#442=ORIENTED_EDGE('',*,*,#356,.F.);
#443=ORIENTED_EDGE('',*,*,#349,.F.);
#444=ORIENTED_EDGE('',*,*,#357,.F.);
#445=ORIENTED_EDGE('',*,*,#358,.F.);
#446=ORIENTED_EDGE('',*,*,#359,.F.);
#447=ORIENTED_EDGE('',*,*,#360,.F.);
#448=ORIENTED_EDGE('',*,*,#361,.F.);
#449=ORIENTED_EDGE('',*,*,#362,.F.);
#450=ORIENTED_EDGE('',*,*,#363,.F.);
#451=ORIENTED_EDGE('',*,*,#364,.T.);
#452=ORIENTED_EDGE('',*,*,#365,.F.);
#453=ORIENTED_EDGE('',*,*,#364,.F.);
#454=ORIENTED_EDGE('',*,*,#366,.F.);
#455=ORIENTED_EDGE('',*,*,#367,.T.);
#456=ORIENTED_EDGE('',*,*,#368,.F.);
#457=ORIENTED_EDGE('',*,*,#367,.F.);
#458=ORIENTED_EDGE('',*,*,#369,.F.);
#459=ORIENTED_EDGE('',*,*,#370,.T.);
#460=ORIENTED_EDGE('',*,*,#371,.F.);
#461=ORIENTED_EDGE('',*,*,#370,.F.);
#462=ORIENTED_EDGE('',*,*,#372,.F.);
#463=ORIENTED_EDGE('',*,*,#373,.T.);
#464=ORIENTED_EDGE('',*,*,#374,.F.);
#465=ORIENTED_EDGE('',*,*,#373,.F.);
#466=ORIENTED_EDGE('',*,*,#375,.F.);
#467=ORIENTED_EDGE('',*,*,#376,.T.);
#468=ORIENTED_EDGE('',*,*,#377,.F.);
#469=ORIENTED_EDGE('',*,*,#376,.F.);
#470=ORIENTED_EDGE('',*,*,#378,.F.);
#471=ORIENTED_EDGE('',*,*,#379,.T.);
#472=ORIENTED_EDGE('',*,*,#380,.F.);
#473=ORIENTED_EDGE('',*,*,#379,.F.);
#474=ORIENTED_EDGE('',*,*,#381,.F.);
#475=ORIENTED_EDGE('',*,*,#382,.F.);
#476=ORIENTED_EDGE('',*,*,#383,.F.);
#477=ORIENTED_EDGE('',*,*,#352,.F.);
#478=ORIENTED_EDGE('',*,*,#383,.T.);
#479=ORIENTED_EDGE('',*,*,#384,.T.);
#480=ORIENTED_EDGE('',*,*,#385,.T.);
#481=ORIENTED_EDGE('',*,*,#386,.F.);
#482=ORIENTED_EDGE('',*,*,#387,.F.);
#483=ORIENTED_EDGE('',*,*,#353,.T.);
#484=ORIENTED_EDGE('',*,*,#385,.F.);
#485=ORIENTED_EDGE('',*,*,#388,.F.);
#486=ORIENTED_EDGE('',*,*,#389,.F.);
#487=ORIENTED_EDGE('',*,*,#390,.F.);
#488=ORIENTED_EDGE('',*,*,#389,.T.);
#489=ORIENTED_EDGE('',*,*,#391,.T.);
#490=ORIENTED_EDGE('',*,*,#392,.F.);
#491=ORIENTED_EDGE('',*,*,#393,.F.);
#492=ORIENTED_EDGE('',*,*,#394,.F.);
#493=ORIENTED_EDGE('',*,*,#395,.T.);
#494=ORIENTED_EDGE('',*,*,#396,.F.);
#495=ORIENTED_EDGE('',*,*,#397,.F.);
#496=ORIENTED_EDGE('',*,*,#397,.T.);
#497=ORIENTED_EDGE('',*,*,#398,.F.);
#498=ORIENTED_EDGE('',*,*,#391,.F.);
#499=ORIENTED_EDGE('',*,*,#388,.T.);
#500=ORIENTED_EDGE('',*,*,#384,.F.);
#501=ORIENTED_EDGE('',*,*,#382,.T.);
#502=ORIENTED_EDGE('',*,*,#399,.F.);
#503=ORIENTED_EDGE('',*,*,#365,.T.);
#504=ORIENTED_EDGE('',*,*,#368,.T.);
#505=ORIENTED_EDGE('',*,*,#371,.T.);
#506=ORIENTED_EDGE('',*,*,#374,.T.);
#507=ORIENTED_EDGE('',*,*,#377,.T.);
#508=ORIENTED_EDGE('',*,*,#380,.T.);
#509=ORIENTED_EDGE('',*,*,#398,.T.);
#510=ORIENTED_EDGE('',*,*,#396,.T.);
#511=ORIENTED_EDGE('',*,*,#400,.T.);
#512=ORIENTED_EDGE('',*,*,#392,.T.);
#513=ORIENTED_EDGE('',*,*,#401,.T.);
#514=ORIENTED_EDGE('',*,*,#402,.T.);
#515=ORIENTED_EDGE('',*,*,#386,.T.);
#516=ORIENTED_EDGE('',*,*,#390,.T.);
#517=ORIENTED_EDGE('',*,*,#393,.T.);
#518=ORIENTED_EDGE('',*,*,#400,.F.);
#519=ORIENTED_EDGE('',*,*,#395,.F.);
#520=ORIENTED_EDGE('',*,*,#363,.T.);
#521=ORIENTED_EDGE('',*,*,#366,.T.);
#522=ORIENTED_EDGE('',*,*,#369,.T.);
#523=ORIENTED_EDGE('',*,*,#372,.T.);
#524=ORIENTED_EDGE('',*,*,#375,.T.);
#525=ORIENTED_EDGE('',*,*,#378,.T.);
#526=ORIENTED_EDGE('',*,*,#381,.T.);
#527=ORIENTED_EDGE('',*,*,#355,.F.);
#528=ORIENTED_EDGE('',*,*,#403,.T.);
#529=ORIENTED_EDGE('',*,*,#401,.F.);
#530=ORIENTED_EDGE('',*,*,#394,.T.);
#531=ORIENTED_EDGE('',*,*,#399,.T.);
#532=ORIENTED_EDGE('',*,*,#354,.T.);
#533=ORIENTED_EDGE('',*,*,#387,.T.);
#534=ORIENTED_EDGE('',*,*,#402,.F.);
#535=ORIENTED_EDGE('',*,*,#403,.F.);
#536=ORIENTED_EDGE('',*,*,#356,.T.);
#537=ORIENTED_EDGE('',*,*,#404,.T.);
#538=ORIENTED_EDGE('',*,*,#405,.F.);
#539=ORIENTED_EDGE('',*,*,#406,.F.);
#540=ORIENTED_EDGE('',*,*,#350,.F.);
#541=ORIENTED_EDGE('',*,*,#407,.T.);
#542=ORIENTED_EDGE('',*,*,#362,.T.);
#543=ORIENTED_EDGE('',*,*,#408,.T.);
#544=ORIENTED_EDGE('',*,*,#409,.F.);
#545=ORIENTED_EDGE('',*,*,#404,.F.);
#546=ORIENTED_EDGE('',*,*,#361,.T.);
#547=ORIENTED_EDGE('',*,*,#410,.T.);
#548=ORIENTED_EDGE('',*,*,#411,.F.);
#549=ORIENTED_EDGE('',*,*,#408,.F.);
#550=ORIENTED_EDGE('',*,*,#360,.T.);
#551=ORIENTED_EDGE('',*,*,#412,.T.);
#552=ORIENTED_EDGE('',*,*,#413,.F.);
#553=ORIENTED_EDGE('',*,*,#410,.F.);
#554=ORIENTED_EDGE('',*,*,#414,.F.);
#555=ORIENTED_EDGE('',*,*,#415,.T.);
#556=ORIENTED_EDGE('',*,*,#416,.F.);
#557=ORIENTED_EDGE('',*,*,#417,.F.);
#558=ORIENTED_EDGE('',*,*,#415,.F.);
#559=ORIENTED_EDGE('',*,*,#414,.T.);
#560=ORIENTED_EDGE('',*,*,#418,.F.);
#561=ORIENTED_EDGE('',*,*,#419,.T.);
#562=ORIENTED_EDGE('',*,*,#420,.T.);
#563=ORIENTED_EDGE('',*,*,#421,.F.);
#564=ORIENTED_EDGE('',*,*,#422,.F.);
#565=ORIENTED_EDGE('',*,*,#420,.F.);
#566=ORIENTED_EDGE('',*,*,#419,.F.);
#567=ORIENTED_EDGE('',*,*,#423,.F.);
#568=ORIENTED_EDGE('',*,*,#407,.F.);
#569=ORIENTED_EDGE('',*,*,#424,.T.);
#570=ORIENTED_EDGE('',*,*,#423,.T.);
#571=ORIENTED_EDGE('',*,*,#424,.F.);
#572=ORIENTED_EDGE('',*,*,#418,.T.);
#573=ORIENTED_EDGE('',*,*,#425,.T.);
#574=ORIENTED_EDGE('',*,*,#426,.F.);
#575=ORIENTED_EDGE('',*,*,#425,.F.);
#576=ORIENTED_EDGE('',*,*,#359,.T.);
#577=ORIENTED_EDGE('',*,*,#427,.T.);
#578=ORIENTED_EDGE('',*,*,#428,.F.);
#579=ORIENTED_EDGE('',*,*,#412,.F.);
#580=ORIENTED_EDGE('',*,*,#358,.T.);
#581=ORIENTED_EDGE('',*,*,#429,.T.);
#582=ORIENTED_EDGE('',*,*,#430,.F.);
#583=ORIENTED_EDGE('',*,*,#427,.F.);
#584=ORIENTED_EDGE('',*,*,#357,.T.);
#585=ORIENTED_EDGE('',*,*,#348,.F.);
#586=ORIENTED_EDGE('',*,*,#431,.T.);
#587=ORIENTED_EDGE('',*,*,#432,.F.);
#588=ORIENTED_EDGE('',*,*,#429,.F.);
#589=ORIENTED_EDGE('',*,*,#426,.T.);
#590=ORIENTED_EDGE('',*,*,#351,.F.);
#591=ORIENTED_EDGE('',*,*,#406,.T.);
#592=ORIENTED_EDGE('',*,*,#433,.F.);
#593=ORIENTED_EDGE('',*,*,#431,.F.);
#594=ORIENTED_EDGE('',*,*,#416,.T.);
#595=ORIENTED_EDGE('',*,*,#417,.T.);
#596=ORIENTED_EDGE('',*,*,#421,.T.);
#597=ORIENTED_EDGE('',*,*,#422,.T.);
#598=ORIENTED_EDGE('',*,*,#405,.T.);
#599=ORIENTED_EDGE('',*,*,#409,.T.);
#600=ORIENTED_EDGE('',*,*,#411,.T.);
#601=ORIENTED_EDGE('',*,*,#413,.T.);
#602=ORIENTED_EDGE('',*,*,#428,.T.);
#603=ORIENTED_EDGE('',*,*,#430,.T.);
#604=ORIENTED_EDGE('',*,*,#432,.T.);
#605=ORIENTED_EDGE('',*,*,#433,.T.);
#606=TOROIDAL_SURFACE('',#654,15.5,3.);
#607=ADVANCED_FACE('',(#172),#606,.F.);
#608=ADVANCED_FACE('',(#173,#29),#154,.T.);
#609=ADVANCED_FACE('',(#174),#15,.F.);
#610=ADVANCED_FACE('',(#175),#16,.F.);
#611=ADVANCED_FACE('',(#176),#17,.F.);
#612=ADVANCED_FACE('',(#177),#18,.F.);
#613=ADVANCED_FACE('',(#178),#19,.F.);
#614=ADVANCED_FACE('',(#179),#20,.F.);
#615=ADVANCED_FACE('',(#180),#155,.F.);
#616=ADVANCED_FACE('',(#181),#156,.T.);
#617=ADVANCED_FACE('',(#182),#157,.T.);
#618=ADVANCED_FACE('',(#183),#158,.T.);
#619=ADVANCED_FACE('',(#184),#159,.T.);
#620=ADVANCED_FACE('',(#185,#30,#31,#32,#33,#34,#35),#160,.T.);
#621=ADVANCED_FACE('',(#186),#161,.T.);
#622=ADVANCED_FACE('',(#187,#36,#37,#38,#39,#40,#41),#162,.T.);
#623=ADVANCED_FACE('',(#188),#163,.T.);
#624=ADVANCED_FACE('',(#189),#21,.T.);
#625=ADVANCED_FACE('',(#190,#42),#164,.T.);
#626=ADVANCED_FACE('',(#191),#22,.F.);
#627=ADVANCED_FACE('',(#192),#165,.T.);
#628=ADVANCED_FACE('',(#193),#166,.T.);
#629=ADVANCED_FACE('',(#194),#23,.F.);
#630=ADVANCED_FACE('',(#195,#43),#167,.T.);
#631=ADVANCED_FACE('',(#196),#24,.F.);
#632=ADVANCED_FACE('',(#197,#44),#168,.F.);
#633=ADVANCED_FACE('',(#198),#25,.F.);
#634=ADVANCED_FACE('',(#199),#26,.F.);
#635=ADVANCED_FACE('',(#200),#169,.T.);
#636=ADVANCED_FACE('',(#201),#27,.F.);
#637=ADVANCED_FACE('',(#202,#45),#170,.T.);
#638=ADVANCED_FACE('',(#203,#46,#47),#28,.T.);
#639=ADVANCED_FACE('',(#204),#171,.F.);
#640=CLOSED_SHELL('',(#607,#608,#609,#610,#611,#612,#613,#614,#615,#616,
#617,#618,#619,#620,#621,#622,#623,#624,#625,#626,#627,#628,#629,#630,#631,
#632,#633,#634,#635,#636,#637,#638,#639));
#641=DERIVED_UNIT_ELEMENT(#643,1.);
#642=DERIVED_UNIT_ELEMENT(#1170,-3.);
#643=(
MASS_UNIT()
NAMED_UNIT(*)
SI_UNIT(.KILO.,.GRAM.)
);
#644=DERIVED_UNIT((#641,#642));
#645=MEASURE_REPRESENTATION_ITEM('density measure',
POSITIVE_RATIO_MEASURE(7850.),#644);
#646=PROPERTY_DEFINITION_REPRESENTATION(#651,#648);
#647=PROPERTY_DEFINITION_REPRESENTATION(#652,#649);
#648=REPRESENTATION('material name',(#650),#1167);
#649=REPRESENTATION('density',(#645),#1167);
#650=DESCRIPTIVE_REPRESENTATION_ITEM('Steel','Steel');
#651=PROPERTY_DEFINITION('material property','material name',#1177);
#652=PROPERTY_DEFINITION('material property','density of part',#1177);
#653=AXIS2_PLACEMENT_3D('',#889,#714,#715);
#654=AXIS2_PLACEMENT_3D('',#890,#716,#717);
#655=AXIS2_PLACEMENT_3D('',#904,#718,#719);
#656=AXIS2_PLACEMENT_3D('',#916,#720,#721);
#657=AXIS2_PLACEMENT_3D('',#917,#722,#723);
#658=AXIS2_PLACEMENT_3D('',#924,#726,#727);
#659=AXIS2_PLACEMENT_3D('',#931,#731,#732);
#660=AXIS2_PLACEMENT_3D('',#938,#736,#737);
#661=AXIS2_PLACEMENT_3D('',#939,#738,#739);
#662=AXIS2_PLACEMENT_3D('',#941,#740,#741);
#663=AXIS2_PLACEMENT_3D('',#944,#743,#744);
#664=AXIS2_PLACEMENT_3D('',#945,#745,#746);
#665=AXIS2_PLACEMENT_3D('',#947,#747,#748);
#666=AXIS2_PLACEMENT_3D('',#950,#750,#751);
#667=AXIS2_PLACEMENT_3D('',#951,#752,#753);
#668=AXIS2_PLACEMENT_3D('',#953,#754,#755);
#669=AXIS2_PLACEMENT_3D('',#956,#757,#758);
#670=AXIS2_PLACEMENT_3D('',#957,#759,#760);
#671=AXIS2_PLACEMENT_3D('',#959,#761,#762);
#672=AXIS2_PLACEMENT_3D('',#962,#764,#765);
#673=AXIS2_PLACEMENT_3D('',#963,#766,#767);
#674=AXIS2_PLACEMENT_3D('',#965,#768,#769);
#675=AXIS2_PLACEMENT_3D('',#968,#771,#772);
#676=AXIS2_PLACEMENT_3D('',#969,#773,#774);
#677=AXIS2_PLACEMENT_3D('',#971,#775,#776);
#678=AXIS2_PLACEMENT_3D('',#974,#778,#779);
#679=AXIS2_PLACEMENT_3D('',#975,#780,#781);
#680=AXIS2_PLACEMENT_3D('',#981,#785,#786);
#681=AXIS2_PLACEMENT_3D('',#989,#791,#792);
#682=AXIS2_PLACEMENT_3D('',#995,#796,#797);
#683=AXIS2_PLACEMENT_3D('',#1001,#801,#802);
#684=AXIS2_PLACEMENT_3D('',#1010,#807,#808);
#685=AXIS2_PLACEMENT_3D('',#1013,#811,#812);
#686=AXIS2_PLACEMENT_3D('',#1015,#814,#815);
#687=AXIS2_PLACEMENT_3D('',#1018,#817,#818);
#688=AXIS2_PLACEMENT_3D('',#1019,#819,#820);
#689=AXIS2_PLACEMENT_3D('',#1021,#822,#823);
#690=AXIS2_PLACEMENT_3D('',#1022,#824,#825);
#691=AXIS2_PLACEMENT_3D('',#1029,#829,#830);
#692=AXIS2_PLACEMENT_3D('',#1030,#831,#832);
#693=AXIS2_PLACEMENT_3D('',#1033,#834,#835);
#694=AXIS2_PLACEMENT_3D('',#1034,#836,#837);
#695=AXIS2_PLACEMENT_3D('',#1038,#840,#841);
#696=AXIS2_PLACEMENT_3D('',#1042,#844,#845);
#697=AXIS2_PLACEMENT_3D('',#1044,#846,#847);
#698=AXIS2_PLACEMENT_3D('',#1088,#849,#850);
#699=AXIS2_PLACEMENT_3D('',#1090,#851,#852);
#700=AXIS2_PLACEMENT_3D('',#1091,#853,#854);
#701=AXIS2_PLACEMENT_3D('',#1093,#855,#856);
#702=AXIS2_PLACEMENT_3D('',#1141,#858,#859);
#703=AXIS2_PLACEMENT_3D('',#1143,#860,#861);
#704=AXIS2_PLACEMENT_3D('',#1144,#862,#863);
#705=AXIS2_PLACEMENT_3D('',#1146,#865,#866);
#706=AXIS2_PLACEMENT_3D('',#1149,#868,#869);
#707=AXIS2_PLACEMENT_3D('',#1150,#870,#871);
#708=AXIS2_PLACEMENT_3D('',#1154,#874,#875);
#709=AXIS2_PLACEMENT_3D('',#1157,#877,#878);
#710=AXIS2_PLACEMENT_3D('',#1158,#879,#880);
#711=AXIS2_PLACEMENT_3D('',#1162,#883,#884);
#712=AXIS2_PLACEMENT_3D('',#1163,#885,#886);
#713=AXIS2_PLACEMENT_3D('',#1164,#887,#888);
#714=DIRECTION('axis',(0.,0.,1.));
#715=DIRECTION('refdir',(1.,0.,0.));
#716=DIRECTION('center_axis',(0.,-1.,0.));
#717=DIRECTION('ref_axis',(0.,0.,-1.));
#718=DIRECTION('center_axis',(0.,-1.,0.));
#719=DIRECTION('ref_axis',(0.,0.,-1.));
#720=DIRECTION('center_axis',(0.,1.,0.));
#721=DIRECTION('ref_axis',(0.,0.,-1.));
#722=DIRECTION('center_axis',(0.,-1.,0.));
#723=DIRECTION('ref_axis',(1.,0.,0.));
#724=DIRECTION('',(0.,0.,-1.));
#725=DIRECTION('',(-0.999999999918935,0.,-1.27330254643551E-5));
#726=DIRECTION('center_axis',(0.,1.,0.));
#727=DIRECTION('ref_axis',(-0.00713648536083866,0.,0.999974534964113));
#728=DIRECTION('',(-0.999999999994925,0.,3.18597220061881E-6));
#729=DIRECTION('',(0.,0.,-1.));
#730=DIRECTION('',(0.,0.,1.));
#731=DIRECTION('center_axis',(0.,1.,0.));
#732=DIRECTION('ref_axis',(-1.,0.,0.));
#733=DIRECTION('',(0.,0.,1.));
#734=DIRECTION('',(-1.,0.,0.));
#735=DIRECTION('',(0.,0.,-1.));
#736=DIRECTION('center_axis',(0.,1.,0.));
#737=DIRECTION('ref_axis',(-1.,0.,0.));
#738=DIRECTION('center_axis',(0.,-1.,0.));
#739=DIRECTION('ref_axis',(-1.,0.,0.));
#740=DIRECTION('center_axis',(0.,-1.,0.));
#741=DIRECTION('ref_axis',(-1.,0.,0.));
#742=DIRECTION('',(0.,-1.,0.));
#743=DIRECTION('center_axis',(0.,1.,0.));
#744=DIRECTION('ref_axis',(-1.,0.,0.));
#745=DIRECTION('center_axis',(0.,-1.,0.));
#746=DIRECTION('ref_axis',(-1.,0.,0.));
#747=DIRECTION('center_axis',(0.,-1.,0.));
#748=DIRECTION('ref_axis',(-1.,0.,0.));
#749=DIRECTION('',(0.,-1.,0.));
#750=DIRECTION('center_axis',(0.,1.,0.));
#751=DIRECTION('ref_axis',(-1.,0.,0.));
#752=DIRECTION('center_axis',(0.,-1.,0.));
#753=DIRECTION('ref_axis',(-1.,0.,0.));
#754=DIRECTION('center_axis',(0.,-1.,0.));
#755=DIRECTION('ref_axis',(-1.,0.,0.));
#756=DIRECTION('',(0.,-1.,0.));
#757=DIRECTION('center_axis',(0.,1.,0.));
#758=DIRECTION('ref_axis',(-1.,0.,0.));
#759=DIRECTION('center_axis',(0.,-1.,0.));
#760=DIRECTION('ref_axis',(-1.,0.,0.));
#761=DIRECTION('center_axis',(0.,-1.,0.));
#762=DIRECTION('ref_axis',(-1.,0.,0.));
#763=DIRECTION('',(0.,-1.,0.));
#764=DIRECTION('center_axis',(0.,1.,0.));
#765=DIRECTION('ref_axis',(-1.,0.,0.));
#766=DIRECTION('center_axis',(0.,-1.,0.));
#767=DIRECTION('ref_axis',(-1.,0.,0.));
#768=DIRECTION('center_axis',(0.,-1.,0.));
#769=DIRECTION('ref_axis',(-1.,0.,0.));
#770=DIRECTION('',(0.,-1.,0.));
#771=DIRECTION('center_axis',(0.,1.,0.));
#772=DIRECTION('ref_axis',(-1.,0.,0.));
#773=DIRECTION('center_axis',(0.,-1.,0.));
#774=DIRECTION('ref_axis',(-1.,0.,0.));
#775=DIRECTION('center_axis',(0.,-1.,0.));
#776=DIRECTION('ref_axis',(-1.,0.,0.));
#777=DIRECTION('',(0.,-1.,0.));
#778=DIRECTION('center_axis',(0.,1.,0.));
#779=DIRECTION('ref_axis',(-1.,0.,0.));
#780=DIRECTION('center_axis',(1.,0.,0.));
#781=DIRECTION('ref_axis',(0.,0.,-1.));
#782=DIRECTION('',(0.,-1.,0.));
#783=DIRECTION('',(-6.12323399573677E-17,0.,1.));
#784=DIRECTION('',(0.,1.,0.));
#785=DIRECTION('center_axis',(1.27330254643551E-5,0.,-0.999999999918935));
#786=DIRECTION('ref_axis',(-0.999999999918935,0.,-1.27330254643551E-5));
#787=DIRECTION('',(-0.999999999918935,0.,-1.27330254643551E-5));
#788=DIRECTION('',(0.,1.,0.));
#789=DIRECTION('',(-0.999999999918935,0.,-1.27330254643551E-5));
#790=DIRECTION('',(0.,1.,0.));
#791=DIRECTION('center_axis',(1.,0.,0.));
#792=DIRECTION('ref_axis',(0.,0.,-1.));
#793=DIRECTION('',(0.,0.,1.));
#794=DIRECTION('',(0.,-1.,0.));
#795=DIRECTION('',(0.,0.,-1.));
#796=DIRECTION('center_axis',(0.,0.,-1.));
#797=DIRECTION('ref_axis',(0.,-1.,0.));
#798=DIRECTION('',(-1.,0.,0.));
#799=DIRECTION('',(0.,-1.,0.));
#800=DIRECTION('',(-1.,0.,0.));
#801=DIRECTION('center_axis',(0.,0.,1.));
#802=DIRECTION('ref_axis',(0.,1.,0.));
#803=DIRECTION('',(0.,-1.,0.));
#804=DIRECTION('',(-1.,0.,0.));
#805=DIRECTION('',(0.,1.,0.));
#806=DIRECTION('',(-1.,0.,0.));
#807=DIRECTION('center_axis',(0.,-1.,0.));
#808=DIRECTION('ref_axis',(0.,0.,1.));
#809=DIRECTION('',(0.,0.,1.));
#810=DIRECTION('',(0.999999999994925,0.,-3.18597220061881E-6));
#811=DIRECTION('center_axis',(-1.,0.,0.));
#812=DIRECTION('ref_axis',(0.,0.,1.));
#813=DIRECTION('',(0.,0.,-1.));
#814=DIRECTION('center_axis',(0.,1.,0.));
#815=DIRECTION('ref_axis',(-1.,0.,0.));
#816=DIRECTION('',(0.999999999994925,0.,-3.18597220061881E-6));
#817=DIRECTION('center_axis',(0.,1.,0.));
#818=DIRECTION('ref_axis',(-0.00713648536083866,0.,0.999974534964113));
#819=DIRECTION('center_axis',(3.18597220061881E-6,0.,0.999999999994925));
#820=DIRECTION('ref_axis',(0.999999999994925,0.,-3.18597220061881E-6));
#821=DIRECTION('',(0.,1.,0.));
#822=DIRECTION('center_axis',(0.,1.,0.));
#823=DIRECTION('ref_axis',(-0.00713648536083866,0.,0.999974534964113));
#824=DIRECTION('center_axis',(-1.,0.,0.));
#825=DIRECTION('ref_axis',(0.,0.,-1.));
#826=DIRECTION('',(0.,-1.,0.));
#827=DIRECTION('',(0.,0.,-1.));
#828=DIRECTION('',(0.,-1.,0.));
#829=DIRECTION('center_axis',(1.,0.,0.));
#830=DIRECTION('ref_axis',(0.,0.,-1.));
#831=DIRECTION('center_axis',(0.,-1.,0.));
#832=DIRECTION('ref_axis',(1.,0.,-1.22464679914735E-16));
#833=DIRECTION('',(0.,-1.,0.));
#834=DIRECTION('center_axis',(0.,1.,0.));
#835=DIRECTION('ref_axis',(-1.,0.,0.));
#836=DIRECTION('center_axis',(-1.,0.,0.));
#837=DIRECTION('ref_axis',(0.,0.,-1.));
#838=DIRECTION('',(0.,-1.,0.));
#839=DIRECTION('',(0.,0.,-1.));
#840=DIRECTION('center_axis',(0.,0.,1.));
#841=DIRECTION('ref_axis',(-1.,0.,0.));
#842=DIRECTION('',(0.,-1.,0.));
#843=DIRECTION('',(-1.,0.,0.));
#844=DIRECTION('center_axis',(1.,0.,0.));
#845=DIRECTION('ref_axis',(0.,0.,1.));
#846=DIRECTION('center_axis',(-1.,0.,0.));
#847=DIRECTION('ref_axis',(0.,0.,1.));
#848=DIRECTION('',(-1.,0.,0.));
#849=DIRECTION('center_axis',(-1.,0.,0.));
#850=DIRECTION('ref_axis',(0.,0.,1.));
#851=DIRECTION('center_axis',(-1.,0.,0.));
#852=DIRECTION('ref_axis',(0.,0.,-1.));
#853=DIRECTION('center_axis',(1.,0.,0.));
#854=DIRECTION('ref_axis',(0.,0.,1.));
#855=DIRECTION('center_axis',(-1.,0.,0.));
#856=DIRECTION('ref_axis',(0.,0.,1.));
#857=DIRECTION('',(1.,0.,0.));
#858=DIRECTION('center_axis',(-1.,0.,0.));
#859=DIRECTION('ref_axis',(0.,0.,1.));
#860=DIRECTION('center_axis',(1.,0.,0.));
#861=DIRECTION('ref_axis',(0.,0.,-1.));
#862=DIRECTION('center_axis',(1.,0.,0.));
#863=DIRECTION('ref_axis',(0.,0.,-1.));
#864=DIRECTION('',(1.,0.,0.));
#865=DIRECTION('center_axis',(1.,0.,0.));
#866=DIRECTION('ref_axis',(0.,0.,-1.));
#867=DIRECTION('',(1.,0.,0.));
#868=DIRECTION('center_axis',(-1.,0.,0.));
#869=DIRECTION('ref_axis',(0.,0.,-1.));
#870=DIRECTION('center_axis',(1.,0.,0.));
#871=DIRECTION('ref_axis',(0.,0.,1.));
#872=DIRECTION('',(0.,-1.,0.));
#873=DIRECTION('',(0.,0.,1.));
#874=DIRECTION('center_axis',(0.,-1.,0.));
#875=DIRECTION('ref_axis',(-1.,0.,0.));
#876=DIRECTION('',(0.,-1.,0.));
#877=DIRECTION('center_axis',(0.,1.,0.));
#878=DIRECTION('ref_axis',(-1.,0.,0.));
#879=DIRECTION('center_axis',(1.,0.,0.));
#880=DIRECTION('ref_axis',(0.,0.,1.));
#881=DIRECTION('',(0.,-1.,0.));
#882=DIRECTION('',(0.,0.,1.));
#883=DIRECTION('center_axis',(0.,-1.,0.));
#884=DIRECTION('ref_axis',(3.82856869892695E-16,0.,-1.));
#885=DIRECTION('center_axis',(0.,-1.,0.));
#886=DIRECTION('ref_axis',(-1.,0.,0.));
#887=DIRECTION('center_axis',(0.,1.,0.));
#888=DIRECTION('ref_axis',(-1.,0.,0.));
#889=CARTESIAN_POINT('',(0.,0.,0.));
#890=CARTESIAN_POINT('Origin',(-90.,-42.,0.));
#891=CARTESIAN_POINT('',(-90.5,-42.,12.4899959967968));
#892=CARTESIAN_POINT('',(-90.5,-39.,15.4919333848297));
#893=CARTESIAN_POINT('Ctrl Pts',(-90.5,-42.,12.4899959967968));
#894=CARTESIAN_POINT('Ctrl Pts',(-90.5,-41.6298430327362,12.4899959967968));
#895=CARTESIAN_POINT('Ctrl Pts',(-90.5,-41.194200055849,12.5767052609202));
#896=CARTESIAN_POINT('Ctrl Pts',(-90.5,-40.5101483801729,12.8601826652377));
#897=CARTESIAN_POINT('Ctrl Pts',(-90.5,-40.1407364904599,13.1071595636369));
#898=CARTESIAN_POINT('Ctrl Pts',(-90.5,-39.617061041073,13.6310682897497));
#899=CARTESIAN_POINT('Ctrl Pts',(-90.5,-39.370173694482,14.0007433864066));
#900=CARTESIAN_POINT('Ctrl Pts',(-90.5,-39.0867111449309,14.6853401092428));
#901=CARTESIAN_POINT('Ctrl Pts',(-90.5,-39.,15.1214194578432));
#902=CARTESIAN_POINT('Ctrl Pts',(-90.5,-39.,15.4919333848297));
#903=CARTESIAN_POINT('',(-89.5,-39.,15.4919333848297));
#904=CARTESIAN_POINT('Origin',(-90.,-39.,0.));
#905=CARTESIAN_POINT('',(-89.5,-42.,12.4899959967968));
#906=CARTESIAN_POINT('Ctrl Pts',(-89.5,-39.,15.4919333848297));
#907=CARTESIAN_POINT('Ctrl Pts',(-89.5,-39.,15.1214194578432));
#908=CARTESIAN_POINT('Ctrl Pts',(-89.5,-39.0867111449309,14.6853401092428));
#909=CARTESIAN_POINT('Ctrl Pts',(-89.5,-39.370173694482,14.0007433864066));
#910=CARTESIAN_POINT('Ctrl Pts',(-89.5,-39.617061041073,13.6310682897497));
#911=CARTESIAN_POINT('Ctrl Pts',(-89.5,-40.1407364904599,13.1071595636369));
#912=CARTESIAN_POINT('Ctrl Pts',(-89.5,-40.5101483801729,12.8601826652377));
#913=CARTESIAN_POINT('Ctrl Pts',(-89.5,-41.194200055849,12.5767052609202));
#914=CARTESIAN_POINT('Ctrl Pts',(-89.5,-41.6298430327362,12.4899959967968));
#915=CARTESIAN_POINT('Ctrl Pts',(-89.5,-42.,12.4899959967968));
#916=CARTESIAN_POINT('Origin',(-90.,-42.,0.));
#917=CARTESIAN_POINT('Origin',(-90.,-39.,0.));
#918=CARTESIAN_POINT('',(-220.,-39.,34.9995221043475));
#919=CARTESIAN_POINT('',(-220.,-39.,-34.9980900490175));
#920=CARTESIAN_POINT('',(-220.,-39.,-1.77635683940025E-14));
#921=CARTESIAN_POINT('',(-89.5,-39.,-34.9964283891942));
#922=CARTESIAN_POINT('',(-89.5,-39.,-34.9964283891942));
#923=CARTESIAN_POINT('',(-89.75,-39.,34.9991071314684));
#924=CARTESIAN_POINT('Origin',(-90.,-39.,0.));
#925=CARTESIAN_POINT('',(-89.75,-39.,34.9991071314684));
#926=CARTESIAN_POINT('',(-89.5,-39.,4.14495174881446));
#927=CARTESIAN_POINT('',(-89.5,-39.,6.24499799839839));
#928=CARTESIAN_POINT('',(-90.5,-39.,4.14495174881446));
#929=CARTESIAN_POINT('',(-90.5,-39.,2.07247587440723));
#930=CARTESIAN_POINT('',(-90.5,-39.,-4.14495174881446));
#931=CARTESIAN_POINT('Origin',(-90.,-39.,0.));
#932=CARTESIAN_POINT('',(-90.5,-39.,-10.5));
#933=CARTESIAN_POINT('',(-90.5,-39.,-5.25));
#934=CARTESIAN_POINT('',(-89.5,-39.,-10.5));
#935=CARTESIAN_POINT('',(-89.75,-39.,-10.5));
#936=CARTESIAN_POINT('',(-89.5,-39.,-4.14495174881446));
#937=CARTESIAN_POINT('',(-89.5,-39.,-2.07247587440723));
#938=CARTESIAN_POINT('Origin',(-90.,-39.,0.));
#939=CARTESIAN_POINT('Origin',(-235.,-29.,5.21540628461992E-7));
#940=CARTESIAN_POINT('',(-233.3,-29.,5.21540628253802E-7));
#941=CARTESIAN_POINT('Origin',(-235.,-29.,5.21540628461992E-7));
#942=CARTESIAN_POINT('',(-233.3,-34.0000004321337,5.21540628253802E-7));
#943=CARTESIAN_POINT('',(-233.3,-29.,5.21540628670182E-7));
#944=CARTESIAN_POINT('Origin',(-235.,-34.0000004321337,5.21540628461992E-7));
#945=CARTESIAN_POINT('Origin',(-235.,-29.,-29.9999994784594));
#946=CARTESIAN_POINT('',(-233.3,-29.,-29.9999994784594));
#947=CARTESIAN_POINT('Origin',(-235.,-29.,-29.9999994784594));
#948=CARTESIAN_POINT('',(-233.3,-34.0000004321337,-29.9999994784594));
#949=CARTESIAN_POINT('',(-233.3,-29.,-29.9999994784594));
#950=CARTESIAN_POINT('Origin',(-235.,-34.0000004321337,-29.9999994784594));
#951=CARTESIAN_POINT('Origin',(-235.,-29.,30.0000005215406));
#952=CARTESIAN_POINT('',(-233.3,-29.,30.0000005215406));
#953=CARTESIAN_POINT('Origin',(-235.,-29.,30.0000005215406));
#954=CARTESIAN_POINT('',(-233.3,-34.0000004321337,30.0000005215406));
#955=CARTESIAN_POINT('',(-233.3,-29.,30.0000005215406));
#956=CARTESIAN_POINT('Origin',(-235.,-34.0000004321337,30.0000005215406));
#957=CARTESIAN_POINT('Origin',(-225.,-29.,5.21540628461992E-7));
#958=CARTESIAN_POINT('',(-223.3,-29.,5.21540628253802E-7));
#959=CARTESIAN_POINT('Origin',(-225.,-29.,5.21540628461992E-7));
#960=CARTESIAN_POINT('',(-223.3,-34.0000004321337,5.21540628253802E-7));
#961=CARTESIAN_POINT('',(-223.3,-29.,5.21540628670182E-7));
#962=CARTESIAN_POINT('Origin',(-225.,-34.0000004321337,5.21540628461992E-7));
#963=CARTESIAN_POINT('Origin',(-225.,-29.,-29.9999994784594));
#964=CARTESIAN_POINT('',(-223.3,-29.,-29.9999994784594));
#965=CARTESIAN_POINT('Origin',(-225.,-29.,-29.9999994784594));
#966=CARTESIAN_POINT('',(-223.3,-34.0000004321337,-29.9999994784594));
#967=CARTESIAN_POINT('',(-223.3,-29.,-29.9999994784594));
#968=CARTESIAN_POINT('Origin',(-225.,-34.0000004321337,-29.9999994784594));
#969=CARTESIAN_POINT('Origin',(-225.,-29.,30.0000005215406));
#970=CARTESIAN_POINT('',(-223.3,-29.,30.0000005215406));
#971=CARTESIAN_POINT('Origin',(-225.,-29.,30.0000005215406));
#972=CARTESIAN_POINT('',(-223.3,-34.0000004321337,30.0000005215406));
#973=CARTESIAN_POINT('',(-223.3,-29.,30.0000005215406));
#974=CARTESIAN_POINT('Origin',(-225.,-34.0000004321337,30.0000005215406));
#975=CARTESIAN_POINT('Origin',(-220.,-25.5,-1.77635683940025E-14));
#976=CARTESIAN_POINT('',(-220.,-34.0000004321337,34.9995221043475));
#977=CARTESIAN_POINT('',(-220.,-32.25,34.9995221043475));
#978=CARTESIAN_POINT('',(-220.,-34.0000004321337,-34.9980900490175));
#979=CARTESIAN_POINT('',(-220.,-34.0000004321337,-17.4999997392297));
#980=CARTESIAN_POINT('',(-220.,-32.25,-34.9980900490175));
#981=CARTESIAN_POINT('Origin',(-89.5,-39.,-34.9964283891942));
#982=CARTESIAN_POINT('',(-230.,-34.0000004321337,-34.9982173792721));
#983=CARTESIAN_POINT('',(-159.75,-34.0000004321337,-34.9973228842332));
#984=CARTESIAN_POINT('',(-230.,-29.,-34.9982173792721));
#985=CARTESIAN_POINT('',(-230.,-32.25,-34.9982173792721));
#986=CARTESIAN_POINT('',(-89.5,-29.,-34.9964283891942));
#987=CARTESIAN_POINT('',(-89.5,-29.,-34.9964283891942));
#988=CARTESIAN_POINT('',(-89.5,-39.,-34.9964283891942));
#989=CARTESIAN_POINT('Origin',(-230.,-31.5000004321337,5.2154062770123E-7));
#990=CARTESIAN_POINT('',(-230.,-34.0000004321337,-34.9999994784594));
#991=CARTESIAN_POINT('',(-230.,-34.0000004321337,-34.9999994784594));
#992=CARTESIAN_POINT('',(-230.,-29.0000004321337,-34.9999994784594));
#993=CARTESIAN_POINT('',(-230.,-29.0000004321337,-34.9999994784594));
#994=CARTESIAN_POINT('',(-230.,-29.0000004321337,35.0000005215406));
#995=CARTESIAN_POINT('Origin',(-230.,-29.0000004321337,-34.9999994784594));
#996=CARTESIAN_POINT('',(-240.,-34.0000004321337,-34.9999994784594));
#997=CARTESIAN_POINT('',(-230.,-34.0000004321337,-34.9999994784594));
#998=CARTESIAN_POINT('',(-240.,-29.0000004321337,-34.9999994784594));
#999=CARTESIAN_POINT('',(-240.,-29.0000004321337,-34.9999994784594));
#1000=CARTESIAN_POINT('',(-230.,-29.0000004321337,-34.9999994784594));
#1001=CARTESIAN_POINT('Origin',(-230.,-34.0000004321337,35.0000005215406));
#1002=CARTESIAN_POINT('',(-230.,-29.0000000000001,34.9995539641741));
#1003=CARTESIAN_POINT('',(-230.,-34.0000004321337,34.9995539640695));
#1004=CARTESIAN_POINT('',(-230.,-32.25,34.9995539640695));
#1005=CARTESIAN_POINT('',(-240.,-29.0000004321337,35.0000005215406));
#1006=CARTESIAN_POINT('',(-230.,-29.0000004321337,35.0000005215406));
#1007=CARTESIAN_POINT('',(-240.,-34.0000004321337,35.0000005215406));
#1008=CARTESIAN_POINT('',(-240.,-34.0000004321337,35.0000005215406));
#1009=CARTESIAN_POINT('',(-230.,-34.0000004321337,35.0000005215406));
#1010=CARTESIAN_POINT('Origin',(-230.,-34.0000004321337,-34.9999994784594));
#1011=CARTESIAN_POINT('',(-240.,-34.0000004321337,-34.9999994784594));
#1012=CARTESIAN_POINT('',(-299.99983274001,-34.0000004321337,34.9997769815907));
#1013=CARTESIAN_POINT('Origin',(-240.,-31.5000004321337,5.21540628461992E-7));
#1014=CARTESIAN_POINT('',(-240.,-29.0000004321337,35.0000005215406));
#1015=CARTESIAN_POINT('Origin',(-230.,-29.,-1.77635683940025E-14));
#1016=CARTESIAN_POINT('',(-89.75,-29.,34.9991071314684));
#1017=CARTESIAN_POINT('',(-89.75,-29.,34.9991071314684));
#1018=CARTESIAN_POINT('Origin',(-90.,-29.,0.));
#1019=CARTESIAN_POINT('Origin',(-369.999888490973,-39.,34.9999999998223));
#1020=CARTESIAN_POINT('',(-89.75,-39.,34.9991071314684));
#1021=CARTESIAN_POINT('Origin',(-90.,-39.,0.));
#1022=CARTESIAN_POINT('Origin',(-89.5,-29.,12.4899959967968));
#1023=CARTESIAN_POINT('',(-89.5,-69.,4.14495174881446));
#1024=CARTESIAN_POINT('',(-89.5,-29.,4.14495174881446));
#1025=CARTESIAN_POINT('',(-89.5,-69.,12.4899959967968));
#1026=CARTESIAN_POINT('',(-89.5,-69.,0.));
#1027=CARTESIAN_POINT('',(-89.5,-29.,12.4899959967968));
#1028=CARTESIAN_POINT('',(-89.5,-65.0000010281801,10.2000001862645));
#1029=CARTESIAN_POINT('Origin',(-89.5,-65.0000010281801,8.50000018626451));
#1030=CARTESIAN_POINT('Origin',(-90.,-29.,0.));
#1031=CARTESIAN_POINT('',(-89.5,-69.,-4.14495174881446));
#1032=CARTESIAN_POINT('',(-89.5,-29.,-4.14495174881446));
#1033=CARTESIAN_POINT('Origin',(-90.,-69.,0.));
#1034=CARTESIAN_POINT('Origin',(-89.5,-29.,-4.14495174881446));
#1035=CARTESIAN_POINT('',(-89.5,-69.,-10.5));
#1036=CARTESIAN_POINT('',(-89.5,-29.,-10.5));
#1037=CARTESIAN_POINT('',(-89.5,-69.,0.));
#1038=CARTESIAN_POINT('Origin',(-89.5,-29.,-10.5));
#1039=CARTESIAN_POINT('',(-90.5,-69.,-10.5));
#1040=CARTESIAN_POINT('',(-90.5,-29.,-10.5));
#1041=CARTESIAN_POINT('',(-89.5,-69.,-10.5));
#1042=CARTESIAN_POINT('Origin',(-93.5,-65.0000010281801,8.50000018626451));
#1043=CARTESIAN_POINT('',(-93.5,-65.0000010281801,5.50000018626452));
#1044=CARTESIAN_POINT('Origin',(-93.5,-65.0000010281801,8.50000018626451));
#1045=CARTESIAN_POINT('',(-101.224972069056,-65.0000010281801,5.50000018626452));
#1046=CARTESIAN_POINT('',(-93.5,-65.0000010281801,5.50000018626452));
#1047=CARTESIAN_POINT('',(-94.8989790483239,-65.0000010281801,11.5000001862645));
#1048=CARTESIAN_POINT('Ctrl Pts',(-94.8989790483239,-65.0000010281801,11.5000001862645));
#1049=CARTESIAN_POINT('Ctrl Pts',(-94.8989790483239,-65.2105571398286,11.5000001862645));
#1050=CARTESIAN_POINT('Ctrl Pts',(-94.9499736805008,-65.4031145974796,11.4784876266685));
#1051=CARTESIAN_POINT('Ctrl Pts',(-95.1128825309676,-65.7642528655864,11.4068553873069));
#1052=CARTESIAN_POINT('Ctrl Pts',(-95.2252022110376,-65.9325852808251,11.3564066920239));
#1053=CARTESIAN_POINT('Ctrl Pts',(-95.6153479372777,-66.4066146824302,11.1714248563098));
#1054=CARTESIAN_POINT('Ctrl Pts',(-95.9442007202991,-66.6793691531807,11.0020680742358));
#1055=CARTESIAN_POINT('Ctrl Pts',(-96.7169200739059,-67.2255051348701,10.5554441632677));
#1056=CARTESIAN_POINT('Ctrl Pts',(-97.2372492943017,-67.503126418804,10.2121097117879));
#1057=CARTESIAN_POINT('Ctrl Pts',(-98.2486680471818,-67.8916191729396,9.41405558081972));
#1058=CARTESIAN_POINT('Ctrl Pts',(-98.7399946195356,-68.0000010281801,8.95842658895413));
#1059=CARTESIAN_POINT('Ctrl Pts',(-99.4881071328401,-68.0000010281801,8.15177198170259));
#1060=CARTESIAN_POINT('Ctrl Pts',(-99.8158910178381,-67.9356984299428,7.75419919296601));
#1061=CARTESIAN_POINT('Ctrl Pts',(-100.380374905871,-67.6202311812874,6.9804824370805));
#1062=CARTESIAN_POINT('Ctrl Pts',(-100.617848166722,-67.3676085740752,6.60549838592509));
#1063=CARTESIAN_POINT('Ctrl Pts',(-100.93010195413,-66.7936879569357,6.0709306223888));
#1064=CARTESIAN_POINT('Ctrl Pts',(-101.043327986358,-66.472789930206,5.85838697863052));
#1065=CARTESIAN_POINT('Ctrl Pts',(-101.190188638794,-65.7605247790892,5.57274325766373));
#1066=CARTESIAN_POINT('Ctrl Pts',(-101.224972069056,-65.3692518647723,5.50000018626452));
#1067=CARTESIAN_POINT('Ctrl Pts',(-101.224972069056,-65.0000010281801,5.50000018626452));
#1068=CARTESIAN_POINT('Ctrl Pts',(-101.224972069056,-65.0000010281801,5.50000018626452));
#1069=CARTESIAN_POINT('Ctrl Pts',(-101.224972069056,-64.6307501915879,5.50000018626452));
#1070=CARTESIAN_POINT('Ctrl Pts',(-101.190188638794,-64.239477277271,5.57274325766373));
#1071=CARTESIAN_POINT('Ctrl Pts',(-101.043327986358,-63.5272121261543,5.85838697863052));
#1072=CARTESIAN_POINT('Ctrl Pts',(-100.93010195413,-63.2063140994246,6.0709306223888));
#1073=CARTESIAN_POINT('Ctrl Pts',(-100.617848166722,-62.6323934822851,6.60549838592509));
#1074=CARTESIAN_POINT('Ctrl Pts',(-100.380374905871,-62.3797708750729,6.98048243708048));
#1075=CARTESIAN_POINT('Ctrl Pts',(-99.8158910178381,-62.0643036264175,7.754199192966));
#1076=CARTESIAN_POINT('Ctrl Pts',(-99.4881071328401,-62.0000010281801,8.15177198170259));
#1077=CARTESIAN_POINT('Ctrl Pts',(-98.7399946195356,-62.0000010281801,8.95842658895413));
#1078=CARTESIAN_POINT('Ctrl Pts',(-98.2486680471818,-62.1083828834207,9.41405558081971));
#1079=CARTESIAN_POINT('Ctrl Pts',(-97.2372492943017,-62.4968756375562,10.2121097117879));
#1080=CARTESIAN_POINT('Ctrl Pts',(-96.7169200739059,-62.7744969214901,10.5554441632677));
#1081=CARTESIAN_POINT('Ctrl Pts',(-95.9442007202991,-63.3206329031796,11.0020680742358));
#1082=CARTESIAN_POINT('Ctrl Pts',(-95.6153479372777,-63.5933873739301,11.1714248563098));
#1083=CARTESIAN_POINT('Ctrl Pts',(-95.2252022110376,-64.0674167755351,11.3564066920239));
#1084=CARTESIAN_POINT('Ctrl Pts',(-95.1128825309676,-64.2357491907739,11.4068553873069));
#1085=CARTESIAN_POINT('Ctrl Pts',(-94.9499736805008,-64.5968874588806,11.4784876266685));
#1086=CARTESIAN_POINT('Ctrl Pts',(-94.8989790483239,-64.7894449165316,11.5000001862645));
#1087=CARTESIAN_POINT('Ctrl Pts',(-94.8989790483239,-65.0000010281801,11.5000001862645));
#1088=CARTESIAN_POINT('Origin',(-93.5,-65.0000010281801,8.50000018626451));
#1089=CARTESIAN_POINT('',(-93.5,-65.0000010281801,10.2000001862645));
#1090=CARTESIAN_POINT('Origin',(-93.5,-65.0000010281801,8.50000018626451));
#1091=CARTESIAN_POINT('Origin',(-86.5,-65.0000010281801,8.50000018626451));
#1092=CARTESIAN_POINT('',(-86.5,-65.0000010281801,5.50000018626452));
#1093=CARTESIAN_POINT('Origin',(-86.5,-65.0000010281801,8.50000018626451));
#1094=CARTESIAN_POINT('',(-78.7750279309439,-65.0000010281801,5.50000018626452));
#1095=CARTESIAN_POINT('',(-86.5,-65.0000010281801,5.50000018626452));
#1096=CARTESIAN_POINT('',(-85.1010209516761,-65.0000010281801,11.5000001862645));
#1097=CARTESIAN_POINT('Ctrl Pts',(-85.1010209516761,-65.0000010281801,11.5000001862645));
#1098=CARTESIAN_POINT('Ctrl Pts',(-85.1010209516761,-64.8349237876309,11.5000001862645));
#1099=CARTESIAN_POINT('Ctrl Pts',(-85.0662663057485,-64.6609310271784,11.4853400815274));
#1100=CARTESIAN_POINT('Ctrl Pts',(-84.9397218029349,-64.3355915765444,11.4301508867287));
#1101=CARTESIAN_POINT('Ctrl Pts',(-84.8494233646213,-64.1836030303445,11.3899984065938));
#1102=CARTESIAN_POINT('Ctrl Pts',(-84.4898008638878,-63.6833599897355,11.2238118545511));
#1103=CARTESIAN_POINT('Ctrl Pts',(-84.1292963246186,-63.3735176699273,11.0441478846663));
#1104=CARTESIAN_POINT('Ctrl Pts',(-83.3774260184754,-62.8402600165121,10.6103669653035));
#1105=CARTESIAN_POINT('Ctrl Pts',(-82.983574650935,-62.6217502102426,10.354546909753));
#1106=CARTESIAN_POINT('Ctrl Pts',(-82.2548838103676,-62.2881613607149,9.8221009621831));
#1107=CARTESIAN_POINT('Ctrl Pts',(-81.8539372469967,-62.146501899659,9.49555877848184));
#1108=CARTESIAN_POINT('Ctrl Pts',(-81.0886102084754,-61.990936693142,8.78129304810958));
#1109=CARTESIAN_POINT('Ctrl Pts',(-80.7242780506067,-61.9782735141062,8.39324767981652));
#1110=CARTESIAN_POINT('Ctrl Pts',(-80.153406302665,-62.088649410666,7.71090185202946));
#1111=CARTESIAN_POINT('Ctrl Pts',(-79.8932320790371,-62.1975388688939,7.36608468292217));
#1112=CARTESIAN_POINT('Ctrl Pts',(-79.4484121302766,-62.5612151637276,6.71341587730462));
#1113=CARTESIAN_POINT('Ctrl Pts',(-79.2630695506432,-62.8170867499285,6.40664469677619));
#1114=CARTESIAN_POINT('Ctrl Pts',(-79.0152127059448,-63.3586069731528,5.96952783984166));
#1115=CARTESIAN_POINT('Ctrl Pts',(-78.9229092771463,-63.6597455844548,5.79356893703707));
#1116=CARTESIAN_POINT('Ctrl Pts',(-78.8031834156714,-64.314755632661,5.55865786086781));
#1117=CARTESIAN_POINT('Ctrl Pts',(-78.7750279309439,-64.6685984585601,5.50000018626452));
#1118=CARTESIAN_POINT('Ctrl Pts',(-78.7750279309439,-65.0000010281801,5.50000018626452));
#1119=CARTESIAN_POINT('Ctrl Pts',(-78.7750279309439,-65.0000010281801,5.50000018626452));
#1120=CARTESIAN_POINT('Ctrl Pts',(-78.7750279309439,-65.3314035978002,5.50000018626452));
#1121=CARTESIAN_POINT('Ctrl Pts',(-78.8031834156714,-65.6852464236993,5.55865786086781));
#1122=CARTESIAN_POINT('Ctrl Pts',(-78.9229092771463,-66.3402564719054,5.79356893703707));
#1123=CARTESIAN_POINT('Ctrl Pts',(-79.0152127059448,-66.6413950832075,5.96952783984166));
#1124=CARTESIAN_POINT('Ctrl Pts',(-79.2630695506432,-67.1829153064317,6.40664469677619));
#1125=CARTESIAN_POINT('Ctrl Pts',(-79.4484121302766,-67.4387868926327,6.71341587730462));
#1126=CARTESIAN_POINT('Ctrl Pts',(-79.8932320790371,-67.8024631874664,7.36608468292217));
#1127=CARTESIAN_POINT('Ctrl Pts',(-80.153406302665,-67.9113526456942,7.71090185202945));
#1128=CARTESIAN_POINT('Ctrl Pts',(-80.7242780506067,-68.021728542254,8.39324767981652));
#1129=CARTESIAN_POINT('Ctrl Pts',(-81.0886102084754,-68.0090653632182,8.78129304810958));
#1130=CARTESIAN_POINT('Ctrl Pts',(-81.8539372469967,-67.8535001567012,9.49555877848184));
#1131=CARTESIAN_POINT('Ctrl Pts',(-82.2548838103676,-67.7118406956453,9.82210096218309));
#1132=CARTESIAN_POINT('Ctrl Pts',(-82.983574650935,-67.3782518461176,10.354546909753));
#1133=CARTESIAN_POINT('Ctrl Pts',(-83.3774260184754,-67.1597420398482,10.6103669653035));
#1134=CARTESIAN_POINT('Ctrl Pts',(-84.1292963246186,-66.6264843864329,11.0441478846663));
#1135=CARTESIAN_POINT('Ctrl Pts',(-84.4898008638878,-66.3166420666247,11.2238118545511));
#1136=CARTESIAN_POINT('Ctrl Pts',(-84.8494233646213,-65.8163990260158,11.3899984065938));
#1137=CARTESIAN_POINT('Ctrl Pts',(-84.9397218029349,-65.6644104798159,11.4301508867287));
#1138=CARTESIAN_POINT('Ctrl Pts',(-85.0662663057485,-65.3390710291819,11.4853400815274));
#1139=CARTESIAN_POINT('Ctrl Pts',(-85.1010209516761,-65.1650782687293,11.5000001862645));
#1140=CARTESIAN_POINT('Ctrl Pts',(-85.1010209516761,-65.0000010281801,11.5000001862645));
#1141=CARTESIAN_POINT('Origin',(-86.5,-65.0000010281801,8.50000018626451));
#1142=CARTESIAN_POINT('',(-86.5,-65.0000010281801,10.2000001862645));
#1143=CARTESIAN_POINT('Origin',(-86.5,-65.0000010281801,8.50000018626451));
#1144=CARTESIAN_POINT('Origin',(-90.,-65.0000010281801,8.50000018626451));
#1145=CARTESIAN_POINT('',(-90.,-65.0000010281801,10.2000001862645));
#1146=CARTESIAN_POINT('Origin',(-90.,-65.0000010281801,8.50000018626451));
#1147=CARTESIAN_POINT('',(-90.5,-65.0000010281801,10.2000001862645));
#1148=CARTESIAN_POINT('',(-90.,-65.0000010281801,10.2000001862645));
#1149=CARTESIAN_POINT('Origin',(-90.5,-65.0000010281801,8.50000018626451));
#1150=CARTESIAN_POINT('Origin',(-90.5,-29.,-10.5));
#1151=CARTESIAN_POINT('',(-90.5,-69.,-4.14495174881446));
#1152=CARTESIAN_POINT('',(-90.5,-29.,-4.14495174881446));
#1153=CARTESIAN_POINT('',(-90.5,-69.,-10.5));
#1154=CARTESIAN_POINT('Origin',(-90.,-29.,0.));
#1155=CARTESIAN_POINT('',(-90.5,-69.,4.14495174881446));
#1156=CARTESIAN_POINT('',(-90.5,-29.,4.14495174881446));
#1157=CARTESIAN_POINT('Origin',(-90.,-69.,0.));
#1158=CARTESIAN_POINT('Origin',(-90.5,-29.,4.14495174881446));
#1159=CARTESIAN_POINT('',(-90.5,-69.,12.4899959967968));
#1160=CARTESIAN_POINT('',(-90.5,-29.,12.4899959967968));
#1161=CARTESIAN_POINT('',(-90.5,-69.,12.4899959967968));
#1162=CARTESIAN_POINT('Origin',(-90.,-29.,0.));
#1163=CARTESIAN_POINT('Origin',(-90.,-69.,0.));
#1164=CARTESIAN_POINT('Origin',(-90.,-69.,-0.00500200160160169));
#1165=UNCERTAINTY_MEASURE_WITH_UNIT(LENGTH_MEASURE(0.01),#1169,
'DISTANCE_ACCURACY_VALUE',
'Maximum model space distance between geometric entities at asserted c
onnectivities');
#1166=UNCERTAINTY_MEASURE_WITH_UNIT(LENGTH_MEASURE(0.01),#1169,
'DISTANCE_ACCURACY_VALUE',
'Maximum model space distance between geometric entities at asserted c
onnectivities');
#1167=(
GEOMETRIC_REPRESENTATION_CONTEXT(3)
GLOBAL_UNCERTAINTY_ASSIGNED_CONTEXT((#1165))
GLOBAL_UNIT_ASSIGNED_CONTEXT((#1169,#1171,#1172))
REPRESENTATION_CONTEXT('','3D')
);
#1168=(
GEOMETRIC_REPRESENTATION_CONTEXT(3)
GLOBAL_UNCERTAINTY_ASSIGNED_CONTEXT((#1166))
GLOBAL_UNIT_ASSIGNED_CONTEXT((#1169,#1171,#1172))
REPRESENTATION_CONTEXT('','3D')
);
#1169=(
LENGTH_UNIT()
NAMED_UNIT(*)
SI_UNIT(.MILLI.,.METRE.)
);
#1170=(
LENGTH_UNIT()
NAMED_UNIT(*)
SI_UNIT($,.METRE.)
);
#1171=(
NAMED_UNIT(*)
PLANE_ANGLE_UNIT()
SI_UNIT($,.RADIAN.)
);
#1172=(
NAMED_UNIT(*)
SI_UNIT($,.STERADIAN.)
SOLID_ANGLE_UNIT()
);
#1173=SHAPE_DEFINITION_REPRESENTATION(#1174,#1175);
#1174=PRODUCT_DEFINITION_SHAPE('',$,#1177);
#1175=SHAPE_REPRESENTATION('',(#653),#1167);
#1176=PRODUCT_DEFINITION_CONTEXT('part definition',#1181,'design');
#1177=PRODUCT_DEFINITION('2025-12-05-15-25-19-081','Flipper arm pt 2',#1178,
#1176);
#1178=PRODUCT_DEFINITION_FORMATION('',$,#1183);
#1179=PRODUCT_RELATED_PRODUCT_CATEGORY('Flipper arm pt 2',
'Flipper arm pt 2',(#1183));
#1180=APPLICATION_PROTOCOL_DEFINITION('international standard',
'automotive_design',2009,#1181);
#1181=APPLICATION_CONTEXT(
'Core Data for Automotive Mechanical Design Process');
#1182=PRODUCT_CONTEXT('part definition',#1181,'mechanical');
#1183=PRODUCT('2025-12-05-15-25-19-081','Flipper arm pt 2',$,(#1182));
#1184=PRESENTATION_STYLE_ASSIGNMENT((#1185));
#1185=SURFACE_STYLE_USAGE(.BOTH.,#1186);
#1186=SURFACE_SIDE_STYLE('',(#1187));
#1187=SURFACE_STYLE_FILL_AREA(#1188);
#1188=FILL_AREA_STYLE('Plate',(#1189));
#1189=FILL_AREA_STYLE_COLOUR('Plate',#1190);
#1190=COLOUR_RGB('Plate',0.6,0.6,0.6);
ENDSEC;
END-ISO-10303-21;
