ISO-10303-21;
HEADER;
/* Generated by software containing ST-Developer
 * from STEP Tools, Inc. (www.steptools.com) 
 */

FILE_DESCRIPTION(
/* description */ (''),
/* implementation_level */ '2;1');

FILE_NAME(
/* name */ 'Flipper Motor Bracket Copy.step',
/* time_stamp */ '2026-08-27T11:17:09-05:00',
/* author */ (''),
/* organization */ (''),
/* preprocessor_version */ 'ST-DEVELOPER v20.1',
/* originating_system */ 'Autodesk Translation Framework v15.8.0.0',
/* authorisation */ '');

FILE_SCHEMA (('AUTOMOTIVE_DESIGN { 1 0 10303 214 3 1 1 }'));
ENDSEC;

DATA;
#10=MECHANICAL_DESIGN_GEOMETRIC_PRESENTATION_REPRESENTATION('',(#21),#1217);
#11=ITEM_DEFINED_TRANSFORMATION($,$,#709,#794);
#12=ITEM_DEFINED_TRANSFORMATION($,$,#793,#795);
#13=(
REPRESENTATION_RELATIONSHIP($,$,#1231,#1230)
REPRESENTATION_RELATIONSHIP_WITH_TRANSFORMATION(#11)
SHAPE_REPRESENTATION_RELATIONSHIP()
);
#14=(
REPRESENTATION_RELATIONSHIP($,$,#1232,#1230)
REPRESENTATION_RELATIONSHIP_WITH_TRANSFORMATION(#12)
SHAPE_REPRESENTATION_RELATIONSHIP()
);
#15=CONTEXT_DEPENDENT_SHAPE_REPRESENTATION(#13,#1228);
#16=CONTEXT_DEPENDENT_SHAPE_REPRESENTATION(#14,#1229);
#17=NEXT_ASSEMBLY_USAGE_OCCURRENCE('Left Flipper Bracket:1',
'Left Flipper Bracket:1','Left Flipper Bracket:1',#1234,#1235,
'Left Flipper Bracket:1');
#18=NEXT_ASSEMBLY_USAGE_OCCURRENCE('Component7:1','Component7:1',
'Component7:1',#1234,#1236,'Component7:1');
#19=SHAPE_REPRESENTATION_RELATIONSHIP('SRR','None',#1231,#20);
#20=ADVANCED_BREP_SHAPE_REPRESENTATION('',(#22),#1215);
#21=STYLED_ITEM('',(#1249),#22);
#22=MANIFOLD_SOLID_BREP('Body1',#684);
#23=FACE_BOUND('',#198,.T.);
#24=FACE_BOUND('',#201,.T.);
#25=FACE_BOUND('',#204,.T.);
#26=FACE_BOUND('',#207,.T.);
#27=FACE_BOUND('',#214,.T.);
#28=FACE_BOUND('',#215,.T.);
#29=FACE_BOUND('',#216,.T.);
#30=FACE_BOUND('',#217,.T.);
#31=FACE_BOUND('',#221,.T.);
#32=FACE_BOUND('',#222,.T.);
#33=FACE_BOUND('',#223,.T.);
#34=FACE_BOUND('',#224,.T.);
#35=FACE_BOUND('',#233,.T.);
#36=FACE_BOUND('',#234,.T.);
#37=FACE_BOUND('',#235,.T.);
#38=FACE_BOUND('',#236,.T.);
#39=FACE_BOUND('',#237,.T.);
#40=FACE_BOUND('',#247,.T.);
#41=FACE_BOUND('',#248,.T.);
#42=FACE_BOUND('',#249,.T.);
#43=FACE_BOUND('',#250,.T.);
#44=FACE_BOUND('',#251,.T.);
#45=LINE('',#1029,#90);
#46=LINE('',#1039,#91);
#47=LINE('',#1048,#92);
#48=LINE('',#1057,#93);
#49=LINE('',#1066,#94);
#50=LINE('',#1074,#95);
#51=LINE('',#1078,#96);
#52=LINE('',#1082,#97);
#53=LINE('',#1086,#98);
#54=LINE('',#1092,#99);
#55=LINE('',#1095,#100);
#56=LINE('',#1098,#101);
#57=LINE('',#1102,#102);
#58=LINE('',#1105,#103);
#59=LINE('',#1116,#104);
#60=LINE('',#1118,#105);
#61=LINE('',#1119,#106);
#62=LINE('',#1122,#107);
#63=LINE('',#1124,#108);
#64=LINE('',#1125,#109);
#65=LINE('',#1130,#110);
#66=LINE('',#1133,#111);
#67=LINE('',#1135,#112);
#68=LINE('',#1137,#113);
#69=LINE('',#1139,#114);
#70=LINE('',#1140,#115);
#71=LINE('',#1150,#116);
#72=LINE('',#1152,#117);
#73=LINE('',#1154,#118);
#74=LINE('',#1156,#119);
#75=LINE('',#1158,#120);
#76=LINE('',#1160,#121);
#77=LINE('',#1166,#122);
#78=LINE('',#1170,#123);
#79=LINE('',#1174,#124);
#80=LINE('',#1178,#125);
#81=LINE('',#1183,#126);
#82=LINE('',#1184,#127);
#83=LINE('',#1185,#128);
#84=LINE('',#1189,#129);
#85=LINE('',#1192,#130);
#86=LINE('',#1193,#131);
#87=LINE('',#1197,#132);
#88=LINE('',#1200,#133);
#89=LINE('',#1201,#134);
#90=VECTOR('',#812,8.40007742275006);
#91=VECTOR('',#825,4.40044484282922);
#92=VECTOR('',#836,4.40044484282922);
#93=VECTOR('',#847,4.40044484282922);
#94=VECTOR('',#858,4.40044484282922);
#95=VECTOR('',#869,2.00007027553326);
#96=VECTOR('',#874,2.00007027553326);
#97=VECTOR('',#879,2.00007027553326);
#98=VECTOR('',#884,2.00007027553326);
#99=VECTOR('',#889,10.);
#100=VECTOR('',#892,10.);
#101=VECTOR('',#895,10.);
#102=VECTOR('',#898,10.);
#103=VECTOR('',#901,10.);
#104=VECTOR('',#912,10.);
#105=VECTOR('',#913,10.);
#106=VECTOR('',#914,10.);
#107=VECTOR('',#917,10.);
#108=VECTOR('',#918,10.);
#109=VECTOR('',#919,10.);
#110=VECTOR('',#924,10.);
#111=VECTOR('',#927,10.);
#112=VECTOR('',#928,10.);
#113=VECTOR('',#929,10.);
#114=VECTOR('',#930,10.);
#115=VECTOR('',#931,10.);
#116=VECTOR('',#942,1.7);
#117=VECTOR('',#945,1.7);
#118=VECTOR('',#948,1.7);
#119=VECTOR('',#951,1.7);
#120=VECTOR('',#954,10.);
#121=VECTOR('',#957,10.);
#122=VECTOR('',#964,10.);
#123=VECTOR('',#967,10.);
#124=VECTOR('',#970,10.);
#125=VECTOR('',#975,8.10000000000002);
#126=VECTOR('',#980,10.);
#127=VECTOR('',#981,10.);
#128=VECTOR('',#982,10.);
#129=VECTOR('',#987,10.);
#130=VECTOR('',#990,10.);
#131=VECTOR('',#991,10.);
#132=VECTOR('',#996,10.);
#133=VECTOR('',#999,10.);
#134=VECTOR('',#1000,10.);
#135=CYLINDRICAL_SURFACE('',#714,8.40007742275006);
#136=CYLINDRICAL_SURFACE('',#720,4.40044484282922);
#137=CYLINDRICAL_SURFACE('',#725,4.40044484282922);
#138=CYLINDRICAL_SURFACE('',#730,4.40044484282922);
#139=CYLINDRICAL_SURFACE('',#735,4.40044484282922);
#140=CYLINDRICAL_SURFACE('',#740,2.00007027553326);
#141=CYLINDRICAL_SURFACE('',#742,2.00007027553326);
#142=CYLINDRICAL_SURFACE('',#744,2.00007027553326);
#143=CYLINDRICAL_SURFACE('',#746,2.00007027553326);
#144=CYLINDRICAL_SURFACE('',#748,2.);
#145=CYLINDRICAL_SURFACE('',#767,1.7);
#146=CYLINDRICAL_SURFACE('',#768,1.7);
#147=CYLINDRICAL_SURFACE('',#769,1.7);
#148=CYLINDRICAL_SURFACE('',#770,1.7);
#149=CYLINDRICAL_SURFACE('',#771,2.);
#150=CYLINDRICAL_SURFACE('',#773,2.);
#151=CYLINDRICAL_SURFACE('',#779,8.10000000000002);
#152=CYLINDRICAL_SURFACE('',#782,1.4999999999999);
#153=CYLINDRICAL_SURFACE('',#785,1.49999999999999);
#154=CYLINDRICAL_SURFACE('',#788,1.50000000000004);
#155=CYLINDRICAL_SURFACE('',#790,1.50000000000006);
#156=FACE_OUTER_BOUND('',#193,.T.);
#157=FACE_OUTER_BOUND('',#194,.T.);
#158=FACE_OUTER_BOUND('',#195,.T.);
#159=FACE_OUTER_BOUND('',#196,.T.);
#160=FACE_OUTER_BOUND('',#197,.T.);
#161=FACE_OUTER_BOUND('',#199,.T.);
#162=FACE_OUTER_BOUND('',#200,.T.);
#163=FACE_OUTER_BOUND('',#202,.T.);
#164=FACE_OUTER_BOUND('',#203,.T.);
#165=FACE_OUTER_BOUND('',#205,.T.);
#166=FACE_OUTER_BOUND('',#206,.T.);
#167=FACE_OUTER_BOUND('',#208,.T.);
#168=FACE_OUTER_BOUND('',#209,.T.);
#169=FACE_OUTER_BOUND('',#210,.T.);
#170=FACE_OUTER_BOUND('',#211,.T.);
#171=FACE_OUTER_BOUND('',#212,.T.);
#172=FACE_OUTER_BOUND('',#213,.T.);
#173=FACE_OUTER_BOUND('',#218,.T.);
#174=FACE_OUTER_BOUND('',#219,.T.);
#175=FACE_OUTER_BOUND('',#220,.T.);
#176=FACE_OUTER_BOUND('',#225,.T.);
#177=FACE_OUTER_BOUND('',#226,.T.);
#178=FACE_OUTER_BOUND('',#227,.T.);
#179=FACE_OUTER_BOUND('',#228,.T.);
#180=FACE_OUTER_BOUND('',#229,.T.);
#181=FACE_OUTER_BOUND('',#230,.T.);
#182=FACE_OUTER_BOUND('',#231,.T.);
#183=FACE_OUTER_BOUND('',#232,.T.);
#184=FACE_OUTER_BOUND('',#238,.T.);
#185=FACE_OUTER_BOUND('',#239,.T.);
#186=FACE_OUTER_BOUND('',#240,.T.);
#187=FACE_OUTER_BOUND('',#241,.T.);
#188=FACE_OUTER_BOUND('',#242,.T.);
#189=FACE_OUTER_BOUND('',#243,.T.);
#190=FACE_OUTER_BOUND('',#244,.T.);
#191=FACE_OUTER_BOUND('',#245,.T.);
#192=FACE_OUTER_BOUND('',#246,.T.);
#193=EDGE_LOOP('',(#449,#450,#451));
#194=EDGE_LOOP('',(#452,#453,#454,#455,#456,#457));
#195=EDGE_LOOP('',(#458,#459,#460));
#196=EDGE_LOOP('',(#461,#462,#463,#464));
#197=EDGE_LOOP('',(#465));
#198=EDGE_LOOP('',(#466));
#199=EDGE_LOOP('',(#467,#468,#469,#470));
#200=EDGE_LOOP('',(#471));
#201=EDGE_LOOP('',(#472));
#202=EDGE_LOOP('',(#473,#474,#475,#476));
#203=EDGE_LOOP('',(#477));
#204=EDGE_LOOP('',(#478));
#205=EDGE_LOOP('',(#479,#480,#481,#482));
#206=EDGE_LOOP('',(#483));
#207=EDGE_LOOP('',(#484));
#208=EDGE_LOOP('',(#485,#486,#487,#488));
#209=EDGE_LOOP('',(#489,#490,#491,#492));
#210=EDGE_LOOP('',(#493,#494,#495,#496));
#211=EDGE_LOOP('',(#497,#498,#499,#500));
#212=EDGE_LOOP('',(#501,#502,#503,#504));
#213=EDGE_LOOP('',(#505,#506,#507,#508,#509,#510));
#214=EDGE_LOOP('',(#511));
#215=EDGE_LOOP('',(#512));
#216=EDGE_LOOP('',(#513));
#217=EDGE_LOOP('',(#514));
#218=EDGE_LOOP('',(#515,#516,#517,#518,#519));
#219=EDGE_LOOP('',(#520,#521,#522,#523,#524));
#220=EDGE_LOOP('',(#525,#526,#527,#528,#529,#530,#531,#532,#533,#534));
#221=EDGE_LOOP('',(#535));
#222=EDGE_LOOP('',(#536));
#223=EDGE_LOOP('',(#537));
#224=EDGE_LOOP('',(#538));
#225=EDGE_LOOP('',(#539,#540,#541,#542));
#226=EDGE_LOOP('',(#543,#544,#545,#546));
#227=EDGE_LOOP('',(#547,#548,#549,#550));
#228=EDGE_LOOP('',(#551,#552,#553,#554));
#229=EDGE_LOOP('',(#555,#556,#557,#558));
#230=EDGE_LOOP('',(#559,#560,#561,#562));
#231=EDGE_LOOP('',(#563,#564,#565,#566));
#232=EDGE_LOOP('',(#567,#568,#569,#570,#571,#572,#573,#574,#575,#576,#577,
#578));
#233=EDGE_LOOP('',(#579));
#234=EDGE_LOOP('',(#580));
#235=EDGE_LOOP('',(#581));
#236=EDGE_LOOP('',(#582));
#237=EDGE_LOOP('',(#583));
#238=EDGE_LOOP('',(#584,#585,#586,#587,#588,#589));
#239=EDGE_LOOP('',(#590,#591,#592,#593));
#240=EDGE_LOOP('',(#594,#595,#596,#597));
#241=EDGE_LOOP('',(#598,#599,#600,#601));
#242=EDGE_LOOP('',(#602,#603,#604,#605));
#243=EDGE_LOOP('',(#606,#607,#608,#609));
#244=EDGE_LOOP('',(#610,#611,#612,#613));
#245=EDGE_LOOP('',(#614,#615,#616,#617));
#246=EDGE_LOOP('',(#618,#619,#620,#621,#622,#623,#624,#625));
#247=EDGE_LOOP('',(#626));
#248=EDGE_LOOP('',(#627));
#249=EDGE_LOOP('',(#628));
#250=EDGE_LOOP('',(#629));
#251=EDGE_LOOP('',(#630));
#252=CIRCLE('',#711,8.10000000000002);
#253=CIRCLE('',#712,8.40007742275006);
#254=CIRCLE('',#713,8.40007742275006);
#255=CIRCLE('',#715,8.40007742275006);
#256=CIRCLE('',#716,8.40007742275006);
#257=CIRCLE('',#718,8.10000000000002);
#258=CIRCLE('',#719,8.10000000000002);
#259=CIRCLE('',#721,4.40044484282922);
#260=CIRCLE('',#722,4.40044484282922);
#261=CIRCLE('',#724,2.00007027553326);
#262=CIRCLE('',#726,4.40044484282922);
#263=CIRCLE('',#727,4.40044484282922);
#264=CIRCLE('',#729,2.00007027553326);
#265=CIRCLE('',#731,4.40044484282922);
#266=CIRCLE('',#732,4.40044484282922);
#267=CIRCLE('',#734,2.00007027553326);
#268=CIRCLE('',#736,4.40044484282922);
#269=CIRCLE('',#737,4.40044484282922);
#270=CIRCLE('',#739,2.00007027553326);
#271=CIRCLE('',#741,2.00007027553326);
#272=CIRCLE('',#743,2.00007027553326);
#273=CIRCLE('',#745,2.00007027553326);
#274=CIRCLE('',#747,2.00007027553326);
#275=CIRCLE('',#749,2.);
#276=CIRCLE('',#750,2.);
#277=CIRCLE('',#752,2.);
#278=CIRCLE('',#753,2.);
#279=CIRCLE('',#754,1.7);
#280=CIRCLE('',#755,1.7);
#281=CIRCLE('',#756,1.7);
#282=CIRCLE('',#757,1.7);
#283=CIRCLE('',#761,2.);
#284=CIRCLE('',#762,2.);
#285=CIRCLE('',#763,1.7);
#286=CIRCLE('',#764,1.7);
#287=CIRCLE('',#765,1.7);
#288=CIRCLE('',#766,1.7);
#289=CIRCLE('',#775,1.50000000000004);
#290=CIRCLE('',#776,1.49999999999999);
#291=CIRCLE('',#777,1.4999999999999);
#292=CIRCLE('',#778,1.50000000000006);
#293=CIRCLE('',#780,8.10000000000002);
#294=CIRCLE('',#783,1.4999999999999);
#295=CIRCLE('',#786,1.49999999999999);
#296=CIRCLE('',#789,1.50000000000004);
#297=CIRCLE('',#791,1.50000000000006);
#298=VERTEX_POINT('',#1020);
#299=VERTEX_POINT('',#1021);
#300=VERTEX_POINT('',#1023);
#301=VERTEX_POINT('',#1027);
#302=VERTEX_POINT('',#1032);
#303=VERTEX_POINT('',#1036);
#304=VERTEX_POINT('',#1038);
#305=VERTEX_POINT('',#1042);
#306=VERTEX_POINT('',#1045);
#307=VERTEX_POINT('',#1047);
#308=VERTEX_POINT('',#1051);
#309=VERTEX_POINT('',#1054);
#310=VERTEX_POINT('',#1056);
#311=VERTEX_POINT('',#1060);
#312=VERTEX_POINT('',#1063);
#313=VERTEX_POINT('',#1065);
#314=VERTEX_POINT('',#1069);
#315=VERTEX_POINT('',#1072);
#316=VERTEX_POINT('',#1076);
#317=VERTEX_POINT('',#1080);
#318=VERTEX_POINT('',#1084);
#319=VERTEX_POINT('',#1088);
#320=VERTEX_POINT('',#1089);
#321=VERTEX_POINT('',#1091);
#322=VERTEX_POINT('',#1093);
#323=VERTEX_POINT('',#1097);
#324=VERTEX_POINT('',#1099);
#325=VERTEX_POINT('',#1101);
#326=VERTEX_POINT('',#1103);
#327=VERTEX_POINT('',#1106);
#328=VERTEX_POINT('',#1108);
#329=VERTEX_POINT('',#1110);
#330=VERTEX_POINT('',#1112);
#331=VERTEX_POINT('',#1115);
#332=VERTEX_POINT('',#1117);
#333=VERTEX_POINT('',#1121);
#334=VERTEX_POINT('',#1123);
#335=VERTEX_POINT('',#1127);
#336=VERTEX_POINT('',#1129);
#337=VERTEX_POINT('',#1132);
#338=VERTEX_POINT('',#1134);
#339=VERTEX_POINT('',#1136);
#340=VERTEX_POINT('',#1138);
#341=VERTEX_POINT('',#1141);
#342=VERTEX_POINT('',#1143);
#343=VERTEX_POINT('',#1145);
#344=VERTEX_POINT('',#1147);
#345=VERTEX_POINT('',#1163);
#346=VERTEX_POINT('',#1165);
#347=VERTEX_POINT('',#1167);
#348=VERTEX_POINT('',#1169);
#349=VERTEX_POINT('',#1171);
#350=VERTEX_POINT('',#1173);
#351=VERTEX_POINT('',#1177);
#352=VERTEX_POINT('',#1181);
#353=VERTEX_POINT('',#1182);
#354=VERTEX_POINT('',#1187);
#355=VERTEX_POINT('',#1191);
#356=VERTEX_POINT('',#1195);
#357=VERTEX_POINT('',#1199);
#358=EDGE_CURVE('',#298,#299,#252,.T.);
#359=EDGE_CURVE('',#300,#298,#253,.T.);
#360=EDGE_CURVE('',#299,#300,#254,.T.);
#361=EDGE_CURVE('',#301,#301,#255,.T.);
#362=EDGE_CURVE('',#301,#300,#45,.T.);
#363=EDGE_CURVE('',#299,#298,#256,.T.);
#364=EDGE_CURVE('',#302,#298,#257,.T.);
#365=EDGE_CURVE('',#299,#302,#258,.T.);
#366=EDGE_CURVE('',#303,#303,#259,.T.);
#367=EDGE_CURVE('',#303,#304,#46,.T.);
#368=EDGE_CURVE('',#304,#304,#260,.T.);
#369=EDGE_CURVE('',#305,#305,#261,.T.);
#370=EDGE_CURVE('',#306,#306,#262,.T.);
#371=EDGE_CURVE('',#306,#307,#47,.T.);
#372=EDGE_CURVE('',#307,#307,#263,.T.);
#373=EDGE_CURVE('',#308,#308,#264,.T.);
#374=EDGE_CURVE('',#309,#309,#265,.T.);
#375=EDGE_CURVE('',#309,#310,#48,.T.);
#376=EDGE_CURVE('',#310,#310,#266,.T.);
#377=EDGE_CURVE('',#311,#311,#267,.T.);
#378=EDGE_CURVE('',#312,#312,#268,.T.);
#379=EDGE_CURVE('',#312,#313,#49,.T.);
#380=EDGE_CURVE('',#313,#313,#269,.T.);
#381=EDGE_CURVE('',#314,#314,#270,.T.);
#382=EDGE_CURVE('',#315,#315,#271,.T.);
#383=EDGE_CURVE('',#315,#314,#50,.T.);
#384=EDGE_CURVE('',#316,#316,#272,.T.);
#385=EDGE_CURVE('',#316,#308,#51,.T.);
#386=EDGE_CURVE('',#317,#317,#273,.T.);
#387=EDGE_CURVE('',#317,#311,#52,.T.);
#388=EDGE_CURVE('',#318,#318,#274,.T.);
#389=EDGE_CURVE('',#318,#305,#53,.T.);
#390=EDGE_CURVE('',#319,#320,#275,.T.);
#391=EDGE_CURVE('',#320,#321,#54,.T.);
#392=EDGE_CURVE('',#321,#322,#276,.T.);
#393=EDGE_CURVE('',#322,#319,#55,.T.);
#394=EDGE_CURVE('',#320,#323,#56,.T.);
#395=EDGE_CURVE('',#324,#323,#277,.F.);
#396=EDGE_CURVE('',#325,#324,#57,.F.);
#397=EDGE_CURVE('',#326,#325,#278,.F.);
#398=EDGE_CURVE('',#321,#326,#58,.F.);
#399=EDGE_CURVE('',#327,#327,#279,.F.);
#400=EDGE_CURVE('',#328,#328,#280,.F.);
#401=EDGE_CURVE('',#329,#329,#281,.F.);
#402=EDGE_CURVE('',#330,#330,#282,.F.);
#403=EDGE_CURVE('',#331,#326,#59,.T.);
#404=EDGE_CURVE('',#332,#331,#60,.T.);
#405=EDGE_CURVE('',#322,#332,#61,.T.);
#406=EDGE_CURVE('',#333,#319,#62,.T.);
#407=EDGE_CURVE('',#333,#334,#63,.T.);
#408=EDGE_CURVE('',#323,#334,#64,.T.);
#409=EDGE_CURVE('',#335,#331,#283,.T.);
#410=EDGE_CURVE('',#336,#335,#65,.T.);
#411=EDGE_CURVE('',#334,#336,#284,.T.);
#412=EDGE_CURVE('',#337,#333,#66,.T.);
#413=EDGE_CURVE('',#338,#337,#67,.T.);
#414=EDGE_CURVE('',#338,#339,#68,.T.);
#415=EDGE_CURVE('',#339,#340,#69,.T.);
#416=EDGE_CURVE('',#332,#340,#70,.T.);
#417=EDGE_CURVE('',#341,#341,#285,.T.);
#418=EDGE_CURVE('',#342,#342,#286,.T.);
#419=EDGE_CURVE('',#343,#343,#287,.T.);
#420=EDGE_CURVE('',#344,#344,#288,.T.);
#421=EDGE_CURVE('',#327,#344,#71,.T.);
#422=EDGE_CURVE('',#328,#343,#72,.T.);
#423=EDGE_CURVE('',#329,#342,#73,.T.);
#424=EDGE_CURVE('',#330,#341,#74,.T.);
#425=EDGE_CURVE('',#336,#324,#75,.T.);
#426=EDGE_CURVE('',#325,#335,#76,.T.);
#427=EDGE_CURVE('',#340,#345,#289,.T.);
#428=EDGE_CURVE('',#345,#346,#77,.T.);
#429=EDGE_CURVE('',#346,#347,#290,.T.);
#430=EDGE_CURVE('',#347,#348,#78,.T.);
#431=EDGE_CURVE('',#348,#349,#291,.T.);
#432=EDGE_CURVE('',#349,#350,#79,.T.);
#433=EDGE_CURVE('',#350,#337,#292,.T.);
#434=EDGE_CURVE('',#302,#351,#80,.T.);
#435=EDGE_CURVE('',#351,#351,#293,.T.);
#436=EDGE_CURVE('',#352,#353,#81,.T.);
#437=EDGE_CURVE('',#353,#350,#82,.T.);
#438=EDGE_CURVE('',#352,#349,#83,.T.);
#439=EDGE_CURVE('',#354,#352,#294,.T.);
#440=EDGE_CURVE('',#354,#348,#84,.T.);
#441=EDGE_CURVE('',#355,#354,#85,.T.);
#442=EDGE_CURVE('',#355,#347,#86,.T.);
#443=EDGE_CURVE('',#356,#355,#295,.T.);
#444=EDGE_CURVE('',#356,#346,#87,.T.);
#445=EDGE_CURVE('',#357,#356,#88,.T.);
#446=EDGE_CURVE('',#357,#345,#89,.T.);
#447=EDGE_CURVE('',#339,#357,#296,.T.);
#448=EDGE_CURVE('',#353,#338,#297,.T.);
#449=ORIENTED_EDGE('',*,*,#358,.F.);
#450=ORIENTED_EDGE('',*,*,#359,.F.);
#451=ORIENTED_EDGE('',*,*,#360,.F.);
#452=ORIENTED_EDGE('',*,*,#361,.F.);
#453=ORIENTED_EDGE('',*,*,#362,.T.);
#454=ORIENTED_EDGE('',*,*,#359,.T.);
#455=ORIENTED_EDGE('',*,*,#363,.F.);
#456=ORIENTED_EDGE('',*,*,#360,.T.);
#457=ORIENTED_EDGE('',*,*,#362,.F.);
#458=ORIENTED_EDGE('',*,*,#363,.T.);
#459=ORIENTED_EDGE('',*,*,#364,.F.);
#460=ORIENTED_EDGE('',*,*,#365,.F.);
#461=ORIENTED_EDGE('',*,*,#366,.T.);
#462=ORIENTED_EDGE('',*,*,#367,.T.);
#463=ORIENTED_EDGE('',*,*,#368,.F.);
#464=ORIENTED_EDGE('',*,*,#367,.F.);
#465=ORIENTED_EDGE('',*,*,#366,.F.);
#466=ORIENTED_EDGE('',*,*,#369,.F.);
#467=ORIENTED_EDGE('',*,*,#370,.T.);
#468=ORIENTED_EDGE('',*,*,#371,.T.);
#469=ORIENTED_EDGE('',*,*,#372,.F.);
#470=ORIENTED_EDGE('',*,*,#371,.F.);
#471=ORIENTED_EDGE('',*,*,#370,.F.);
#472=ORIENTED_EDGE('',*,*,#373,.F.);
#473=ORIENTED_EDGE('',*,*,#374,.T.);
#474=ORIENTED_EDGE('',*,*,#375,.T.);
#475=ORIENTED_EDGE('',*,*,#376,.F.);
#476=ORIENTED_EDGE('',*,*,#375,.F.);
#477=ORIENTED_EDGE('',*,*,#374,.F.);
#478=ORIENTED_EDGE('',*,*,#377,.F.);
#479=ORIENTED_EDGE('',*,*,#378,.T.);
#480=ORIENTED_EDGE('',*,*,#379,.T.);
#481=ORIENTED_EDGE('',*,*,#380,.F.);
#482=ORIENTED_EDGE('',*,*,#379,.F.);
#483=ORIENTED_EDGE('',*,*,#378,.F.);
#484=ORIENTED_EDGE('',*,*,#381,.F.);
#485=ORIENTED_EDGE('',*,*,#382,.F.);
#486=ORIENTED_EDGE('',*,*,#383,.T.);
#487=ORIENTED_EDGE('',*,*,#381,.T.);
#488=ORIENTED_EDGE('',*,*,#383,.F.);
#489=ORIENTED_EDGE('',*,*,#384,.F.);
#490=ORIENTED_EDGE('',*,*,#385,.T.);
#491=ORIENTED_EDGE('',*,*,#373,.T.);
#492=ORIENTED_EDGE('',*,*,#385,.F.);
#493=ORIENTED_EDGE('',*,*,#386,.F.);
#494=ORIENTED_EDGE('',*,*,#387,.T.);
#495=ORIENTED_EDGE('',*,*,#377,.T.);
#496=ORIENTED_EDGE('',*,*,#387,.F.);
#497=ORIENTED_EDGE('',*,*,#388,.F.);
#498=ORIENTED_EDGE('',*,*,#389,.T.);
#499=ORIENTED_EDGE('',*,*,#369,.T.);
#500=ORIENTED_EDGE('',*,*,#389,.F.);
#501=ORIENTED_EDGE('',*,*,#390,.T.);
#502=ORIENTED_EDGE('',*,*,#391,.T.);
#503=ORIENTED_EDGE('',*,*,#392,.T.);
#504=ORIENTED_EDGE('',*,*,#393,.T.);
#505=ORIENTED_EDGE('',*,*,#391,.F.);
#506=ORIENTED_EDGE('',*,*,#394,.T.);
#507=ORIENTED_EDGE('',*,*,#395,.F.);
#508=ORIENTED_EDGE('',*,*,#396,.F.);
#509=ORIENTED_EDGE('',*,*,#397,.F.);
#510=ORIENTED_EDGE('',*,*,#398,.F.);
#511=ORIENTED_EDGE('',*,*,#399,.T.);
#512=ORIENTED_EDGE('',*,*,#400,.T.);
#513=ORIENTED_EDGE('',*,*,#401,.T.);
#514=ORIENTED_EDGE('',*,*,#402,.T.);
#515=ORIENTED_EDGE('',*,*,#398,.T.);
#516=ORIENTED_EDGE('',*,*,#403,.F.);
#517=ORIENTED_EDGE('',*,*,#404,.F.);
#518=ORIENTED_EDGE('',*,*,#405,.F.);
#519=ORIENTED_EDGE('',*,*,#392,.F.);
#520=ORIENTED_EDGE('',*,*,#406,.F.);
#521=ORIENTED_EDGE('',*,*,#407,.T.);
#522=ORIENTED_EDGE('',*,*,#408,.F.);
#523=ORIENTED_EDGE('',*,*,#394,.F.);
#524=ORIENTED_EDGE('',*,*,#390,.F.);
#525=ORIENTED_EDGE('',*,*,#404,.T.);
#526=ORIENTED_EDGE('',*,*,#409,.F.);
#527=ORIENTED_EDGE('',*,*,#410,.F.);
#528=ORIENTED_EDGE('',*,*,#411,.F.);
#529=ORIENTED_EDGE('',*,*,#407,.F.);
#530=ORIENTED_EDGE('',*,*,#412,.F.);
#531=ORIENTED_EDGE('',*,*,#413,.F.);
#532=ORIENTED_EDGE('',*,*,#414,.T.);
#533=ORIENTED_EDGE('',*,*,#415,.T.);
#534=ORIENTED_EDGE('',*,*,#416,.F.);
#535=ORIENTED_EDGE('',*,*,#417,.F.);
#536=ORIENTED_EDGE('',*,*,#418,.F.);
#537=ORIENTED_EDGE('',*,*,#419,.F.);
#538=ORIENTED_EDGE('',*,*,#420,.F.);
#539=ORIENTED_EDGE('',*,*,#399,.F.);
#540=ORIENTED_EDGE('',*,*,#421,.T.);
#541=ORIENTED_EDGE('',*,*,#420,.T.);
#542=ORIENTED_EDGE('',*,*,#421,.F.);
#543=ORIENTED_EDGE('',*,*,#400,.F.);
#544=ORIENTED_EDGE('',*,*,#422,.T.);
#545=ORIENTED_EDGE('',*,*,#419,.T.);
#546=ORIENTED_EDGE('',*,*,#422,.F.);
#547=ORIENTED_EDGE('',*,*,#401,.F.);
#548=ORIENTED_EDGE('',*,*,#423,.T.);
#549=ORIENTED_EDGE('',*,*,#418,.T.);
#550=ORIENTED_EDGE('',*,*,#423,.F.);
#551=ORIENTED_EDGE('',*,*,#402,.F.);
#552=ORIENTED_EDGE('',*,*,#424,.T.);
#553=ORIENTED_EDGE('',*,*,#417,.T.);
#554=ORIENTED_EDGE('',*,*,#424,.F.);
#555=ORIENTED_EDGE('',*,*,#411,.T.);
#556=ORIENTED_EDGE('',*,*,#425,.T.);
#557=ORIENTED_EDGE('',*,*,#395,.T.);
#558=ORIENTED_EDGE('',*,*,#408,.T.);
#559=ORIENTED_EDGE('',*,*,#425,.F.);
#560=ORIENTED_EDGE('',*,*,#410,.T.);
#561=ORIENTED_EDGE('',*,*,#426,.F.);
#562=ORIENTED_EDGE('',*,*,#396,.T.);
#563=ORIENTED_EDGE('',*,*,#397,.T.);
#564=ORIENTED_EDGE('',*,*,#426,.T.);
#565=ORIENTED_EDGE('',*,*,#409,.T.);
#566=ORIENTED_EDGE('',*,*,#403,.T.);
#567=ORIENTED_EDGE('',*,*,#405,.T.);
#568=ORIENTED_EDGE('',*,*,#416,.T.);
#569=ORIENTED_EDGE('',*,*,#427,.T.);
#570=ORIENTED_EDGE('',*,*,#428,.T.);
#571=ORIENTED_EDGE('',*,*,#429,.T.);
#572=ORIENTED_EDGE('',*,*,#430,.T.);
#573=ORIENTED_EDGE('',*,*,#431,.T.);
#574=ORIENTED_EDGE('',*,*,#432,.T.);
#575=ORIENTED_EDGE('',*,*,#433,.T.);
#576=ORIENTED_EDGE('',*,*,#412,.T.);
#577=ORIENTED_EDGE('',*,*,#406,.T.);
#578=ORIENTED_EDGE('',*,*,#393,.F.);
#579=ORIENTED_EDGE('',*,*,#361,.T.);
#580=ORIENTED_EDGE('',*,*,#382,.T.);
#581=ORIENTED_EDGE('',*,*,#384,.T.);
#582=ORIENTED_EDGE('',*,*,#386,.T.);
#583=ORIENTED_EDGE('',*,*,#388,.T.);
#584=ORIENTED_EDGE('',*,*,#358,.T.);
#585=ORIENTED_EDGE('',*,*,#365,.T.);
#586=ORIENTED_EDGE('',*,*,#434,.T.);
#587=ORIENTED_EDGE('',*,*,#435,.T.);
#588=ORIENTED_EDGE('',*,*,#434,.F.);
#589=ORIENTED_EDGE('',*,*,#364,.T.);
#590=ORIENTED_EDGE('',*,*,#436,.T.);
#591=ORIENTED_EDGE('',*,*,#437,.T.);
#592=ORIENTED_EDGE('',*,*,#432,.F.);
#593=ORIENTED_EDGE('',*,*,#438,.F.);
#594=ORIENTED_EDGE('',*,*,#439,.T.);
#595=ORIENTED_EDGE('',*,*,#438,.T.);
#596=ORIENTED_EDGE('',*,*,#431,.F.);
#597=ORIENTED_EDGE('',*,*,#440,.F.);
#598=ORIENTED_EDGE('',*,*,#441,.T.);
#599=ORIENTED_EDGE('',*,*,#440,.T.);
#600=ORIENTED_EDGE('',*,*,#430,.F.);
#601=ORIENTED_EDGE('',*,*,#442,.F.);
#602=ORIENTED_EDGE('',*,*,#443,.T.);
#603=ORIENTED_EDGE('',*,*,#442,.T.);
#604=ORIENTED_EDGE('',*,*,#429,.F.);
#605=ORIENTED_EDGE('',*,*,#444,.F.);
#606=ORIENTED_EDGE('',*,*,#445,.T.);
#607=ORIENTED_EDGE('',*,*,#444,.T.);
#608=ORIENTED_EDGE('',*,*,#428,.F.);
#609=ORIENTED_EDGE('',*,*,#446,.F.);
#610=ORIENTED_EDGE('',*,*,#447,.T.);
#611=ORIENTED_EDGE('',*,*,#446,.T.);
#612=ORIENTED_EDGE('',*,*,#427,.F.);
#613=ORIENTED_EDGE('',*,*,#415,.F.);
#614=ORIENTED_EDGE('',*,*,#448,.T.);
#615=ORIENTED_EDGE('',*,*,#413,.T.);
#616=ORIENTED_EDGE('',*,*,#433,.F.);
#617=ORIENTED_EDGE('',*,*,#437,.F.);
#618=ORIENTED_EDGE('',*,*,#448,.F.);
#619=ORIENTED_EDGE('',*,*,#436,.F.);
#620=ORIENTED_EDGE('',*,*,#439,.F.);
#621=ORIENTED_EDGE('',*,*,#441,.F.);
#622=ORIENTED_EDGE('',*,*,#443,.F.);
#623=ORIENTED_EDGE('',*,*,#445,.F.);
#624=ORIENTED_EDGE('',*,*,#447,.F.);
#625=ORIENTED_EDGE('',*,*,#414,.F.);
#626=ORIENTED_EDGE('',*,*,#368,.T.);
#627=ORIENTED_EDGE('',*,*,#372,.T.);
#628=ORIENTED_EDGE('',*,*,#376,.T.);
#629=ORIENTED_EDGE('',*,*,#380,.T.);
#630=ORIENTED_EDGE('',*,*,#435,.F.);
#631=PLANE('',#710);
#632=PLANE('',#717);
#633=PLANE('',#723);
#634=PLANE('',#728);
#635=PLANE('',#733);
#636=PLANE('',#738);
#637=PLANE('',#751);
#638=PLANE('',#758);
#639=PLANE('',#759);
#640=PLANE('',#760);
#641=PLANE('',#772);
#642=PLANE('',#774);
#643=PLANE('',#781);
#644=PLANE('',#784);
#645=PLANE('',#787);
#646=PLANE('',#792);
#647=ADVANCED_FACE('',(#156),#631,.T.);
#648=ADVANCED_FACE('',(#157),#135,.F.);
#649=ADVANCED_FACE('',(#158),#632,.F.);
#650=ADVANCED_FACE('',(#159),#136,.F.);
#651=ADVANCED_FACE('',(#160,#23),#633,.F.);
#652=ADVANCED_FACE('',(#161),#137,.F.);
#653=ADVANCED_FACE('',(#162,#24),#634,.F.);
#654=ADVANCED_FACE('',(#163),#138,.F.);
#655=ADVANCED_FACE('',(#164,#25),#635,.F.);
#656=ADVANCED_FACE('',(#165),#139,.F.);
#657=ADVANCED_FACE('',(#166,#26),#636,.F.);
#658=ADVANCED_FACE('',(#167),#140,.F.);
#659=ADVANCED_FACE('',(#168),#141,.F.);
#660=ADVANCED_FACE('',(#169),#142,.F.);
#661=ADVANCED_FACE('',(#170),#143,.F.);
#662=ADVANCED_FACE('',(#171),#144,.F.);
#663=ADVANCED_FACE('',(#172,#27,#28,#29,#30),#637,.T.);
#664=ADVANCED_FACE('',(#173),#638,.T.);
#665=ADVANCED_FACE('',(#174),#639,.T.);
#666=ADVANCED_FACE('',(#175,#31,#32,#33,#34),#640,.F.);
#667=ADVANCED_FACE('',(#176),#145,.F.);
#668=ADVANCED_FACE('',(#177),#146,.F.);
#669=ADVANCED_FACE('',(#178),#147,.F.);
#670=ADVANCED_FACE('',(#179),#148,.F.);
#671=ADVANCED_FACE('',(#180),#149,.T.);
#672=ADVANCED_FACE('',(#181),#641,.T.);
#673=ADVANCED_FACE('',(#182),#150,.T.);
#674=ADVANCED_FACE('',(#183,#35,#36,#37,#38,#39),#642,.T.);
#675=ADVANCED_FACE('',(#184),#151,.F.);
#676=ADVANCED_FACE('',(#185),#643,.T.);
#677=ADVANCED_FACE('',(#186),#152,.T.);
#678=ADVANCED_FACE('',(#187),#644,.T.);
#679=ADVANCED_FACE('',(#188),#153,.T.);
#680=ADVANCED_FACE('',(#189),#645,.T.);
#681=ADVANCED_FACE('',(#190),#154,.T.);
#682=ADVANCED_FACE('',(#191),#155,.T.);
#683=ADVANCED_FACE('',(#192,#40,#41,#42,#43,#44),#646,.F.);
#684=CLOSED_SHELL('',(#647,#648,#649,#650,#651,#652,#653,#654,#655,#656,
#657,#658,#659,#660,#661,#662,#663,#664,#665,#666,#667,#668,#669,#670,#671,
#672,#673,#674,#675,#676,#677,#678,#679,#680,#681,#682,#683));
#685=DERIVED_UNIT_ELEMENT(#689,1.);
#686=DERIVED_UNIT_ELEMENT(#1219,-3.);
#687=DERIVED_UNIT_ELEMENT(#689,1.);
#688=DERIVED_UNIT_ELEMENT(#1219,-3.);
#689=(
MASS_UNIT()
NAMED_UNIT(*)
SI_UNIT(.KILO.,.GRAM.)
);
#690=DERIVED_UNIT((#685,#686));
#691=DERIVED_UNIT((#687,#688));
#692=MEASURE_REPRESENTATION_ITEM('density measure',
POSITIVE_RATIO_MEASURE(7850.),#690);
#693=MEASURE_REPRESENTATION_ITEM('density measure',
POSITIVE_RATIO_MEASURE(7850.),#691);
#694=PROPERTY_DEFINITION_REPRESENTATION(#704,#698);
#695=PROPERTY_DEFINITION_REPRESENTATION(#705,#699);
#696=PROPERTY_DEFINITION_REPRESENTATION(#706,#700);
#697=PROPERTY_DEFINITION_REPRESENTATION(#707,#701);
#698=REPRESENTATION('material name',(#702),#1215);
#699=REPRESENTATION('density',(#692),#1215);
#700=REPRESENTATION('material name',(#703),#1216);
#701=REPRESENTATION('density',(#693),#1216);
#702=DESCRIPTIVE_REPRESENTATION_ITEM('Steel','Steel');
#703=DESCRIPTIVE_REPRESENTATION_ITEM('Steel','Steel');
#704=PROPERTY_DEFINITION('material property','material name',#1235);
#705=PROPERTY_DEFINITION('material property','density of part',#1235);
#706=PROPERTY_DEFINITION('material property','material name',#1236);
#707=PROPERTY_DEFINITION('material property','density of part',#1236);
#708=AXIS2_PLACEMENT_3D('',#1017,#796,#797);
#709=AXIS2_PLACEMENT_3D('',#1018,#798,#799);
#710=AXIS2_PLACEMENT_3D('',#1019,#800,#801);
#711=AXIS2_PLACEMENT_3D('',#1022,#802,#803);
#712=AXIS2_PLACEMENT_3D('',#1024,#804,#805);
#713=AXIS2_PLACEMENT_3D('',#1025,#806,#807);
#714=AXIS2_PLACEMENT_3D('',#1026,#808,#809);
#715=AXIS2_PLACEMENT_3D('',#1028,#810,#811);
#716=AXIS2_PLACEMENT_3D('',#1030,#813,#814);
#717=AXIS2_PLACEMENT_3D('',#1031,#815,#816);
#718=AXIS2_PLACEMENT_3D('',#1033,#817,#818);
#719=AXIS2_PLACEMENT_3D('',#1034,#819,#820);
#720=AXIS2_PLACEMENT_3D('',#1035,#821,#822);
#721=AXIS2_PLACEMENT_3D('',#1037,#823,#824);
#722=AXIS2_PLACEMENT_3D('',#1040,#826,#827);
#723=AXIS2_PLACEMENT_3D('',#1041,#828,#829);
#724=AXIS2_PLACEMENT_3D('',#1043,#830,#831);
#725=AXIS2_PLACEMENT_3D('',#1044,#832,#833);
#726=AXIS2_PLACEMENT_3D('',#1046,#834,#835);
#727=AXIS2_PLACEMENT_3D('',#1049,#837,#838);
#728=AXIS2_PLACEMENT_3D('',#1050,#839,#840);
#729=AXIS2_PLACEMENT_3D('',#1052,#841,#842);
#730=AXIS2_PLACEMENT_3D('',#1053,#843,#844);
#731=AXIS2_PLACEMENT_3D('',#1055,#845,#846);
#732=AXIS2_PLACEMENT_3D('',#1058,#848,#849);
#733=AXIS2_PLACEMENT_3D('',#1059,#850,#851);
#734=AXIS2_PLACEMENT_3D('',#1061,#852,#853);
#735=AXIS2_PLACEMENT_3D('',#1062,#854,#855);
#736=AXIS2_PLACEMENT_3D('',#1064,#856,#857);
#737=AXIS2_PLACEMENT_3D('',#1067,#859,#860);
#738=AXIS2_PLACEMENT_3D('',#1068,#861,#862);
#739=AXIS2_PLACEMENT_3D('',#1070,#863,#864);
#740=AXIS2_PLACEMENT_3D('',#1071,#865,#866);
#741=AXIS2_PLACEMENT_3D('',#1073,#867,#868);
#742=AXIS2_PLACEMENT_3D('',#1075,#870,#871);
#743=AXIS2_PLACEMENT_3D('',#1077,#872,#873);
#744=AXIS2_PLACEMENT_3D('',#1079,#875,#876);
#745=AXIS2_PLACEMENT_3D('',#1081,#877,#878);
#746=AXIS2_PLACEMENT_3D('',#1083,#880,#881);
#747=AXIS2_PLACEMENT_3D('',#1085,#882,#883);
#748=AXIS2_PLACEMENT_3D('',#1087,#885,#886);
#749=AXIS2_PLACEMENT_3D('',#1090,#887,#888);
#750=AXIS2_PLACEMENT_3D('',#1094,#890,#891);
#751=AXIS2_PLACEMENT_3D('',#1096,#893,#894);
#752=AXIS2_PLACEMENT_3D('',#1100,#896,#897);
#753=AXIS2_PLACEMENT_3D('',#1104,#899,#900);
#754=AXIS2_PLACEMENT_3D('',#1107,#902,#903);
#755=AXIS2_PLACEMENT_3D('',#1109,#904,#905);
#756=AXIS2_PLACEMENT_3D('',#1111,#906,#907);
#757=AXIS2_PLACEMENT_3D('',#1113,#908,#909);
#758=AXIS2_PLACEMENT_3D('',#1114,#910,#911);
#759=AXIS2_PLACEMENT_3D('',#1120,#915,#916);
#760=AXIS2_PLACEMENT_3D('',#1126,#920,#921);
#761=AXIS2_PLACEMENT_3D('',#1128,#922,#923);
#762=AXIS2_PLACEMENT_3D('',#1131,#925,#926);
#763=AXIS2_PLACEMENT_3D('',#1142,#932,#933);
#764=AXIS2_PLACEMENT_3D('',#1144,#934,#935);
#765=AXIS2_PLACEMENT_3D('',#1146,#936,#937);
#766=AXIS2_PLACEMENT_3D('',#1148,#938,#939);
#767=AXIS2_PLACEMENT_3D('',#1149,#940,#941);
#768=AXIS2_PLACEMENT_3D('',#1151,#943,#944);
#769=AXIS2_PLACEMENT_3D('',#1153,#946,#947);
#770=AXIS2_PLACEMENT_3D('',#1155,#949,#950);
#771=AXIS2_PLACEMENT_3D('',#1157,#952,#953);
#772=AXIS2_PLACEMENT_3D('',#1159,#955,#956);
#773=AXIS2_PLACEMENT_3D('',#1161,#958,#959);
#774=AXIS2_PLACEMENT_3D('',#1162,#960,#961);
#775=AXIS2_PLACEMENT_3D('',#1164,#962,#963);
#776=AXIS2_PLACEMENT_3D('',#1168,#965,#966);
#777=AXIS2_PLACEMENT_3D('',#1172,#968,#969);
#778=AXIS2_PLACEMENT_3D('',#1175,#971,#972);
#779=AXIS2_PLACEMENT_3D('',#1176,#973,#974);
#780=AXIS2_PLACEMENT_3D('',#1179,#976,#977);
#781=AXIS2_PLACEMENT_3D('',#1180,#978,#979);
#782=AXIS2_PLACEMENT_3D('',#1186,#983,#984);
#783=AXIS2_PLACEMENT_3D('',#1188,#985,#986);
#784=AXIS2_PLACEMENT_3D('',#1190,#988,#989);
#785=AXIS2_PLACEMENT_3D('',#1194,#992,#993);
#786=AXIS2_PLACEMENT_3D('',#1196,#994,#995);
#787=AXIS2_PLACEMENT_3D('',#1198,#997,#998);
#788=AXIS2_PLACEMENT_3D('',#1202,#1001,#1002);
#789=AXIS2_PLACEMENT_3D('',#1203,#1003,#1004);
#790=AXIS2_PLACEMENT_3D('',#1204,#1005,#1006);
#791=AXIS2_PLACEMENT_3D('',#1205,#1007,#1008);
#792=AXIS2_PLACEMENT_3D('',#1206,#1009,#1010);
#793=AXIS2_PLACEMENT_3D('',#1207,#1011,#1012);
#794=AXIS2_PLACEMENT_3D('',#1208,#1013,#1014);
#795=AXIS2_PLACEMENT_3D('',#1209,#1015,#1016);
#796=DIRECTION('axis',(0.,0.,1.));
#797=DIRECTION('refdir',(1.,0.,0.));
#798=DIRECTION('axis',(0.,0.,1.));
#799=DIRECTION('refdir',(1.,0.,0.));
#800=DIRECTION('center_axis',(-4.73316543132858E-30,-1.,7.88860905221012E-31));
#801=DIRECTION('ref_axis',(1.,-4.73316543132858E-30,-7.15236626017516E-44));
#802=DIRECTION('center_axis',(0.,-1.,7.88860905221012E-31));
#803=DIRECTION('ref_axis',(-1.,-1.4210854715202E-13,-3.6624831973428E-29));
#804=DIRECTION('center_axis',(4.73316543132858E-30,1.,-7.88860905221012E-31));
#805=DIRECTION('ref_axis',(1.,-4.73316543132858E-30,-7.15236626017516E-44));
#806=DIRECTION('center_axis',(4.73316543132858E-30,1.,-7.88860905221012E-31));
#807=DIRECTION('ref_axis',(1.,-4.73316543132858E-30,-7.15236626017516E-44));
#808=DIRECTION('center_axis',(0.,1.,0.));
#809=DIRECTION('ref_axis',(1.,0.,-7.15236626017516E-44));
#810=DIRECTION('center_axis',(-1.35856549534491E-13,1.,5.63726582780109E-15));
#811=DIRECTION('ref_axis',(1.,0.,-7.15236626017516E-44));
#812=DIRECTION('',(0.,1.,0.));
#813=DIRECTION('center_axis',(0.,-1.,7.88860905221012E-31));
#814=DIRECTION('ref_axis',(1.,0.,-7.15236626017516E-44));
#815=DIRECTION('center_axis',(0.,-1.,7.88860905221012E-31));
#816=DIRECTION('ref_axis',(1.,0.,-7.15236626017516E-44));
#817=DIRECTION('center_axis',(0.,-1.,7.88860905221012E-31));
#818=DIRECTION('ref_axis',(-1.,-1.4210854715202E-13,-3.6624831973428E-29));
#819=DIRECTION('center_axis',(0.,-1.,7.88860905221012E-31));
#820=DIRECTION('ref_axis',(-1.,-1.4210854715202E-13,-3.6624831973428E-29));
#821=DIRECTION('center_axis',(0.,1.,-1.57772181044202E-30));
#822=DIRECTION('ref_axis',(1.,0.,0.));
#823=DIRECTION('center_axis',(0.,-1.,1.57772181044202E-30));
#824=DIRECTION('ref_axis',(1.,0.,0.));
#825=DIRECTION('',(0.,1.,-1.57772181044202E-30));
#826=DIRECTION('center_axis',(1.35856549534491E-13,-1.,-5.63726582780109E-15));
#827=DIRECTION('ref_axis',(1.,0.,0.));
#828=DIRECTION('center_axis',(0.,-1.,1.57772181044202E-30));
#829=DIRECTION('ref_axis',(1.,0.,0.));
#830=DIRECTION('center_axis',(0.,1.,-1.57772181044202E-30));
#831=DIRECTION('ref_axis',(1.,0.,0.));
#832=DIRECTION('center_axis',(0.,1.,-1.57772181044202E-30));
#833=DIRECTION('ref_axis',(1.,0.,0.));
#834=DIRECTION('center_axis',(0.,-1.,1.57772181044202E-30));
#835=DIRECTION('ref_axis',(1.,0.,0.));
#836=DIRECTION('',(0.,1.,-1.57772181044202E-30));
#837=DIRECTION('center_axis',(1.35856549534491E-13,-1.,-5.63726582780109E-15));
#838=DIRECTION('ref_axis',(1.,0.,0.));
#839=DIRECTION('center_axis',(0.,-1.,1.57772181044202E-30));
#840=DIRECTION('ref_axis',(1.,0.,0.));
#841=DIRECTION('center_axis',(0.,1.,-1.57772181044202E-30));
#842=DIRECTION('ref_axis',(1.,0.,0.));
#843=DIRECTION('center_axis',(0.,1.,-1.57772181044202E-30));
#844=DIRECTION('ref_axis',(1.,0.,0.));
#845=DIRECTION('center_axis',(0.,-1.,1.57772181044202E-30));
#846=DIRECTION('ref_axis',(1.,0.,0.));
#847=DIRECTION('',(0.,1.,-1.57772181044202E-30));
#848=DIRECTION('center_axis',(1.35856549534491E-13,-1.,-5.63726582780109E-15));
#849=DIRECTION('ref_axis',(1.,0.,0.));
#850=DIRECTION('center_axis',(0.,-1.,1.57772181044202E-30));
#851=DIRECTION('ref_axis',(1.,0.,0.));
#852=DIRECTION('center_axis',(0.,1.,-1.57772181044202E-30));
#853=DIRECTION('ref_axis',(1.,0.,0.));
#854=DIRECTION('center_axis',(0.,1.,-1.57772181044202E-30));
#855=DIRECTION('ref_axis',(1.,0.,0.));
#856=DIRECTION('center_axis',(0.,-1.,1.57772181044202E-30));
#857=DIRECTION('ref_axis',(1.,0.,0.));
#858=DIRECTION('',(0.,1.,-1.57772181044202E-30));
#859=DIRECTION('center_axis',(1.35856549534491E-13,-1.,-5.63726582780109E-15));
#860=DIRECTION('ref_axis',(1.,0.,0.));
#861=DIRECTION('center_axis',(0.,-1.,1.57772181044202E-30));
#862=DIRECTION('ref_axis',(1.,0.,0.));
#863=DIRECTION('center_axis',(0.,1.,-1.57772181044202E-30));
#864=DIRECTION('ref_axis',(1.,0.,0.));
#865=DIRECTION('center_axis',(0.,1.,-1.57772181044202E-30));
#866=DIRECTION('ref_axis',(1.,0.,0.));
#867=DIRECTION('center_axis',(-1.35856549534491E-13,1.,5.63726582780109E-15));
#868=DIRECTION('ref_axis',(1.,0.,0.));
#869=DIRECTION('',(0.,1.,-1.57772181044202E-30));
#870=DIRECTION('center_axis',(0.,1.,-1.57772181044202E-30));
#871=DIRECTION('ref_axis',(1.,0.,0.));
#872=DIRECTION('center_axis',(-1.35856549534491E-13,1.,5.63726582780109E-15));
#873=DIRECTION('ref_axis',(1.,0.,0.));
#874=DIRECTION('',(0.,1.,-1.57772181044202E-30));
#875=DIRECTION('center_axis',(0.,1.,-1.57772181044202E-30));
#876=DIRECTION('ref_axis',(1.,0.,0.));
#877=DIRECTION('center_axis',(-1.35856549534491E-13,1.,5.63726582780109E-15));
#878=DIRECTION('ref_axis',(1.,0.,0.));
#879=DIRECTION('',(0.,1.,-1.57772181044202E-30));
#880=DIRECTION('center_axis',(0.,1.,-1.57772181044202E-30));
#881=DIRECTION('ref_axis',(1.,0.,0.));
#882=DIRECTION('center_axis',(-1.35856549534491E-13,1.,5.63726582780109E-15));
#883=DIRECTION('ref_axis',(1.,0.,0.));
#884=DIRECTION('',(0.,1.,-1.57772181044202E-30));
#885=DIRECTION('center_axis',(1.,1.35856549534491E-13,-6.78009161734277E-43));
#886=DIRECTION('ref_axis',(-1.00485917355762E-13,0.707106781186548,-0.707106781186547));
#887=DIRECTION('center_axis',(-1.,-6.59639619453282E-58,-1.79366203433577E-43));
#888=DIRECTION('ref_axis',(-1.00485917355762E-13,0.707106781186548,-0.707106781186547));
#889=DIRECTION('',(1.,1.35856549534491E-13,-6.78009161734277E-43));
#890=DIRECTION('center_axis',(1.,6.59639619453282E-58,1.79366203433577E-43));
#891=DIRECTION('ref_axis',(-1.00485917355762E-13,0.707106781186548,-0.707106781186547));
#892=DIRECTION('',(-1.,-1.35856549534491E-13,6.78009161734277E-43));
#893=DIRECTION('center_axis',(-1.79366203433577E-43,6.31088724176809E-30,
1.));
#894=DIRECTION('ref_axis',(-1.,-6.59639619453282E-58,-1.79366203433577E-43));
#895=DIRECTION('',(6.59639619453281E-58,-1.,6.31088724176809E-30));
#896=DIRECTION('center_axis',(-1.79366203433577E-43,6.31088724176809E-30,
1.));
#897=DIRECTION('ref_axis',(-0.707106781186554,-0.707106781186541,4.46247116395772E-30));
#898=DIRECTION('',(1.,6.59639619453282E-58,1.79366203433577E-43));
#899=DIRECTION('center_axis',(-1.79366203433577E-43,6.31088724176809E-30,
1.));
#900=DIRECTION('ref_axis',(0.707106781186554,-0.707106781186541,4.46247116395797E-30));
#901=DIRECTION('',(-6.59639619453281E-58,1.,-6.31088724176809E-30));
#902=DIRECTION('center_axis',(-1.79366203433577E-43,6.31088724176809E-30,
1.));
#903=DIRECTION('ref_axis',(1.,6.59639619453282E-58,1.79366203433577E-43));
#904=DIRECTION('center_axis',(-1.79366203433577E-43,6.31088724176809E-30,
1.));
#905=DIRECTION('ref_axis',(1.,6.59639619453282E-58,1.79366203433577E-43));
#906=DIRECTION('center_axis',(-1.79366203433577E-43,6.31088724176809E-30,
1.));
#907=DIRECTION('ref_axis',(1.,6.59639619453282E-58,1.79366203433577E-43));
#908=DIRECTION('center_axis',(-1.79366203433577E-43,6.31088724176809E-30,
1.));
#909=DIRECTION('ref_axis',(1.,6.59639619453282E-58,1.79366203433577E-43));
#910=DIRECTION('center_axis',(1.,6.59639619453282E-58,1.79366203433577E-43));
#911=DIRECTION('ref_axis',(-1.79366203433577E-43,6.31088724176809E-30,1.));
#912=DIRECTION('',(-1.79366203433577E-43,6.31088724176809E-30,1.));
#913=DIRECTION('',(6.59639619453281E-58,-1.,6.31088724176809E-30));
#914=DIRECTION('',(1.79366203433577E-43,5.63726582780109E-15,-1.));
#915=DIRECTION('center_axis',(-1.,-6.59639619453282E-58,-1.79366203433577E-43));
#916=DIRECTION('ref_axis',(1.79366203433577E-43,-6.31088724176809E-30,-1.));
#917=DIRECTION('',(-1.79366203433577E-43,-5.63726582780109E-15,1.));
#918=DIRECTION('',(6.59639619453281E-58,-1.,6.31088724176809E-30));
#919=DIRECTION('',(1.79366203433577E-43,-6.31088724176809E-30,-1.));
#920=DIRECTION('center_axis',(-1.79366203433577E-43,6.31088724176809E-30,
1.));
#921=DIRECTION('ref_axis',(1.,6.59639619453282E-58,1.79366203433577E-43));
#922=DIRECTION('center_axis',(-3.21595968387652E-15,-5.92118946466794E-15,
1.));
#923=DIRECTION('ref_axis',(0.707106781186554,-0.707106781186541,4.46247116395797E-30));
#924=DIRECTION('',(1.,6.59639619453282E-58,1.79366203433577E-43));
#925=DIRECTION('center_axis',(-3.21595968387652E-15,-5.92118946466794E-15,
1.));
#926=DIRECTION('ref_axis',(-0.707106781186554,-0.707106781186541,4.46247116395772E-30));
#927=DIRECTION('',(1.,1.36012562426404E-13,3.21595968387732E-15));
#928=DIRECTION('',(1.4210854715202E-13,-1.,-5.92118946466748E-15));
#929=DIRECTION('',(1.,1.36012562426404E-13,3.21595968387732E-15));
#930=DIRECTION('',(1.4210854715202E-13,-1.,-5.92118946466748E-15));
#931=DIRECTION('',(1.,1.36012562426404E-13,3.21595968387732E-15));
#932=DIRECTION('center_axis',(1.79366203433577E-43,-6.31088724176809E-30,
-1.));
#933=DIRECTION('ref_axis',(1.,6.59639619453282E-58,1.79366203433577E-43));
#934=DIRECTION('center_axis',(1.79366203433577E-43,-6.31088724176809E-30,
-1.));
#935=DIRECTION('ref_axis',(1.,6.59639619453282E-58,1.79366203433577E-43));
#936=DIRECTION('center_axis',(1.79366203433577E-43,-6.31088724176809E-30,
-1.));
#937=DIRECTION('ref_axis',(1.,6.59639619453282E-58,1.79366203433577E-43));
#938=DIRECTION('center_axis',(1.79366203433577E-43,-6.31088724176809E-30,
-1.));
#939=DIRECTION('ref_axis',(1.,6.59639619453282E-58,1.79366203433577E-43));
#940=DIRECTION('center_axis',(1.79366203433577E-43,-6.31088724176809E-30,
-1.));
#941=DIRECTION('ref_axis',(1.,6.59639619453282E-58,1.79366203433577E-43));
#942=DIRECTION('',(1.79366203433577E-43,-6.31088724176809E-30,-1.));
#943=DIRECTION('center_axis',(1.79366203433577E-43,-6.31088724176809E-30,
-1.));
#944=DIRECTION('ref_axis',(1.,6.59639619453282E-58,1.79366203433577E-43));
#945=DIRECTION('',(1.79366203433577E-43,-6.31088724176809E-30,-1.));
#946=DIRECTION('center_axis',(1.79366203433577E-43,-6.31088724176809E-30,
-1.));
#947=DIRECTION('ref_axis',(1.,6.59639619453282E-58,1.79366203433577E-43));
#948=DIRECTION('',(1.79366203433577E-43,-6.31088724176809E-30,-1.));
#949=DIRECTION('center_axis',(1.79366203433577E-43,-6.31088724176809E-30,
-1.));
#950=DIRECTION('ref_axis',(1.,6.59639619453282E-58,1.79366203433577E-43));
#951=DIRECTION('',(1.79366203433577E-43,-6.31088724176809E-30,-1.));
#952=DIRECTION('center_axis',(1.79366203433577E-43,-6.31088724176809E-30,
-1.));
#953=DIRECTION('ref_axis',(-0.707106781186554,-0.707106781186541,4.46247116395772E-30));
#954=DIRECTION('',(-1.79366203433577E-43,6.31088724176809E-30,1.));
#955=DIRECTION('center_axis',(6.59639619453281E-58,-1.,6.31088724176809E-30));
#956=DIRECTION('ref_axis',(1.79366203433577E-43,-6.31088724176809E-30,-1.));
#957=DIRECTION('',(1.79366203433577E-43,-6.31088724176809E-30,-1.));
#958=DIRECTION('center_axis',(-1.79366203433577E-43,6.31088724176809E-30,
1.));
#959=DIRECTION('ref_axis',(0.707106781186554,-0.707106781186541,4.46247116395797E-30));
#960=DIRECTION('center_axis',(1.35856549534491E-13,-1.,-5.63726582780109E-15));
#961=DIRECTION('ref_axis',(1.,1.35856549534491E-13,-3.94430452611184E-31));
#962=DIRECTION('center_axis',(1.35856549534491E-13,-1.,-5.63726582780109E-15));
#963=DIRECTION('ref_axis',(4.7369515717338E-14,5.63726582780752E-15,-1.));
#964=DIRECTION('',(-1.97372982155583E-15,6.31088724176887E-30,1.));
#965=DIRECTION('center_axis',(1.35856549534489E-13,-1.,3.51030669360488E-28));
#966=DIRECTION('ref_axis',(1.,1.35856549534489E-13,-3.94430452611184E-31));
#967=DIRECTION('',(-1.,-1.36012562426404E-13,-2.29418779996344E-15));
#968=DIRECTION('center_axis',(1.3585654953449E-13,-1.,-5.63726582780163E-15));
#969=DIRECTION('ref_axis',(9.47390314346873E-14,-5.63726582778876E-15,1.));
#970=DIRECTION('',(3.94745964311166E-15,-6.31088724176691E-30,-1.));
#971=DIRECTION('center_axis',(1.35856549534495E-13,-1.,3.51030669360619E-28));
#972=DIRECTION('ref_axis',(-1.,-1.35856549534495E-13,-2.84957242987113E-14));
#973=DIRECTION('center_axis',(1.4210854715202E-13,-1.,-5.92118946466748E-15));
#974=DIRECTION('ref_axis',(-1.,-1.4210854715202E-13,-3.6624831973428E-29));
#975=DIRECTION('',(-1.4210854715202E-13,1.,5.92118946466748E-15));
#976=DIRECTION('center_axis',(-1.35856549534491E-13,1.,-3.51030669360488E-28));
#977=DIRECTION('ref_axis',(-1.,-1.35856549534491E-13,3.94430452611184E-31));
#978=DIRECTION('center_axis',(-1.,-1.4210854715202E-13,-3.94745964311166E-15));
#979=DIRECTION('ref_axis',(3.94745964311166E-15,-6.31088724176691E-30,-1.));
#980=DIRECTION('',(3.94745964311166E-15,-6.31088724176691E-30,-1.));
#981=DIRECTION('',(1.4210854715202E-13,-1.,-5.92118946466748E-15));
#982=DIRECTION('',(1.4210854715202E-13,-1.,-5.92118946466748E-15));
#983=DIRECTION('center_axis',(1.4210854715202E-13,-1.,-5.92118946466748E-15));
#984=DIRECTION('ref_axis',(9.47390314346873E-14,-5.92118946465402E-15,1.));
#985=DIRECTION('center_axis',(1.3585654953449E-13,-1.,-5.63726582780163E-15));
#986=DIRECTION('ref_axis',(9.47390314346873E-14,-5.63726582778876E-15,1.));
#987=DIRECTION('',(1.4210854715202E-13,-1.,-5.92118946466748E-15));
#988=DIRECTION('center_axis',(-2.29418779996263E-15,-5.92118946466781E-15,
1.));
#989=DIRECTION('ref_axis',(-1.,-1.36012562426404E-13,-2.29418779996344E-15));
#990=DIRECTION('',(-1.,-1.36012562426404E-13,-2.29418779996344E-15));
#991=DIRECTION('',(1.4210854715202E-13,-1.,-5.92118946466748E-15));
#992=DIRECTION('center_axis',(1.4210854715202E-13,-1.,-5.92118946466748E-15));
#993=DIRECTION('ref_axis',(1.,1.4210854715202E-13,3.66248319734388E-29));
#994=DIRECTION('center_axis',(1.35856549534489E-13,-1.,3.51030669360488E-28));
#995=DIRECTION('ref_axis',(1.,1.35856549534489E-13,-3.94430452611184E-31));
#996=DIRECTION('',(1.4210854715202E-13,-1.,-5.92118946466748E-15));
#997=DIRECTION('center_axis',(1.,1.4210854715202E-13,1.97372982155583E-15));
#998=DIRECTION('ref_axis',(-1.97372982155583E-15,6.31088724176887E-30,1.));
#999=DIRECTION('',(-1.97372982155583E-15,6.31088724176887E-30,1.));
#1000=DIRECTION('',(1.4210854715202E-13,-1.,-5.92118946466748E-15));
#1001=DIRECTION('center_axis',(1.4210854715202E-13,-1.,-5.92118946466748E-15));
#1002=DIRECTION('ref_axis',(4.73695157173379E-14,5.92118946467421E-15,-1.));
#1003=DIRECTION('center_axis',(1.35856549534491E-13,-1.,-5.63726582780109E-15));
#1004=DIRECTION('ref_axis',(4.7369515717338E-14,5.63726582780752E-15,-1.));
#1005=DIRECTION('center_axis',(1.4210854715202E-13,-1.,-5.92118946466748E-15));
#1006=DIRECTION('ref_axis',(-1.,-1.4210854715202E-13,-2.84957242987113E-14));
#1007=DIRECTION('center_axis',(1.35856549534495E-13,-1.,3.51030669360619E-28));
#1008=DIRECTION('ref_axis',(-1.,-1.35856549534495E-13,-2.84957242987113E-14));
#1009=DIRECTION('center_axis',(1.35856549534491E-13,-1.,-5.63726582780109E-15));
#1010=DIRECTION('ref_axis',(1.,1.35856549534491E-13,-3.94430452611184E-31));
#1011=DIRECTION('axis',(0.,0.,1.));
#1012=DIRECTION('refdir',(1.,0.,0.));
#1013=DIRECTION('',(0.,0.,1.));
#1014=DIRECTION('',(1.,0.,0.));
#1015=DIRECTION('',(0.,0.,1.));
#1016=DIRECTION('',(1.,0.,0.));
#1017=CARTESIAN_POINT('',(0.,0.,0.));
#1018=CARTESIAN_POINT('',(0.,0.,0.));
#1019=CARTESIAN_POINT('Origin',(397.265004993533,134.827994458705,23.5000005748588));
#1020=CARTESIAN_POINT('',(405.376016402601,134.827994458705,25.6846732345842));
#1021=CARTESIAN_POINT('',(394.563923420947,134.827994458705,15.5460418720219));
#1022=CARTESIAN_POINT('Origin',(397.733861626394,134.827994458705,22.9999999999999));
#1023=CARTESIAN_POINT('',(388.864927570783,134.827994458705,23.5000005748588));
#1024=CARTESIAN_POINT('Origin',(397.265004993533,134.827994458705,23.5000005748588));
#1025=CARTESIAN_POINT('Origin',(397.265004993533,134.827994458705,23.5000005748588));
#1026=CARTESIAN_POINT('Origin',(397.265004993533,132.827994458705,23.5000005748588));
#1027=CARTESIAN_POINT('',(388.864927570783,132.827994458705,23.5000005748588));
#1028=CARTESIAN_POINT('Origin',(397.265004993533,132.827994458758,23.5000005748588));
#1029=CARTESIAN_POINT('',(388.864927570783,132.827994458705,23.5000005748588));
#1030=CARTESIAN_POINT('Origin',(397.265004993533,134.827994458705,23.5000005748588));
#1031=CARTESIAN_POINT('Origin',(397.733861626395,134.827994458705,22.9999999999999));
#1032=CARTESIAN_POINT('',(405.833861626394,134.827994458706,22.9999999999999));
#1033=CARTESIAN_POINT('Origin',(397.733861626394,134.827994458705,22.9999999999999));
#1034=CARTESIAN_POINT('Origin',(397.733861626394,134.827994458705,22.9999999999999));
#1035=CARTESIAN_POINT('Origin',(408.232195801883,133.82798805297,37.508101411656));
#1036=CARTESIAN_POINT('',(403.831750959053,133.82798805297,37.508101411656));
#1037=CARTESIAN_POINT('Origin',(408.232195801883,133.82798805297,37.508101411656));
#1038=CARTESIAN_POINT('',(403.831750959053,135.82798805297,37.508101411656));
#1039=CARTESIAN_POINT('',(403.831750959053,133.82798805297,37.508101411656));
#1040=CARTESIAN_POINT('Origin',(408.232195801883,135.827994458758,37.508101411656));
#1041=CARTESIAN_POINT('Origin',(408.232195801883,133.82798805297,37.508101411656));
#1042=CARTESIAN_POINT('',(406.233796462423,133.82798805297,37.5130042976752));
#1043=CARTESIAN_POINT('Origin',(408.233866737957,133.82798805297,37.5130042976752));
#1044=CARTESIAN_POINT('Origin',(408.232195801883,133.82798805297,9.50810141165599));
#1045=CARTESIAN_POINT('',(403.831750959053,133.82798805297,9.50810141165599));
#1046=CARTESIAN_POINT('Origin',(408.232195801883,133.82798805297,9.50810141165599));
#1047=CARTESIAN_POINT('',(403.831750959053,135.82798805297,9.50810141165599));
#1048=CARTESIAN_POINT('',(403.831750959053,133.82798805297,9.50810141165599));
#1049=CARTESIAN_POINT('Origin',(408.232195801883,135.827994458758,9.50810141165599));
#1050=CARTESIAN_POINT('Origin',(408.232195801883,133.82798805297,9.50810141165599));
#1051=CARTESIAN_POINT('',(406.233796462423,133.82798805297,9.51300429767515));
#1052=CARTESIAN_POINT('Origin',(408.233866737957,133.82798805297,9.51300429767515));
#1053=CARTESIAN_POINT('Origin',(368.232195801883,133.82798805297,37.508101411656));
#1054=CARTESIAN_POINT('',(363.831750959053,133.82798805297,37.508101411656));
#1055=CARTESIAN_POINT('Origin',(368.232195801883,133.82798805297,37.508101411656));
#1056=CARTESIAN_POINT('',(363.831750959053,135.82798805297,37.508101411656));
#1057=CARTESIAN_POINT('',(363.831750959053,133.82798805297,37.508101411656));
#1058=CARTESIAN_POINT('Origin',(368.232195801883,135.827994458758,37.508101411656));
#1059=CARTESIAN_POINT('Origin',(368.232195801883,133.82798805297,37.508101411656));
#1060=CARTESIAN_POINT('',(366.233796462423,133.82798805297,37.5130042976752));
#1061=CARTESIAN_POINT('Origin',(368.233866737957,133.82798805297,37.5130042976752));
#1062=CARTESIAN_POINT('Origin',(368.232195801883,133.82798805297,9.50810141165599));
#1063=CARTESIAN_POINT('',(363.831750959053,133.82798805297,9.50810141165599));
#1064=CARTESIAN_POINT('Origin',(368.232195801883,133.82798805297,9.50810141165599));
#1065=CARTESIAN_POINT('',(363.831750959053,135.82798805297,9.50810141165599));
#1066=CARTESIAN_POINT('',(363.831750959053,133.82798805297,9.50810141165599));
#1067=CARTESIAN_POINT('Origin',(368.232195801883,135.827994458758,9.50810141165599));
#1068=CARTESIAN_POINT('Origin',(368.232195801883,133.82798805297,9.50810141165599));
#1069=CARTESIAN_POINT('',(366.233796462423,133.82798805297,9.51300429767515));
#1070=CARTESIAN_POINT('Origin',(368.233866737957,133.82798805297,9.51300429767515));
#1071=CARTESIAN_POINT('Origin',(368.233866737957,130.82798805297,9.51300429767515));
#1072=CARTESIAN_POINT('',(366.233796462423,132.827994458758,9.51300429767515));
#1073=CARTESIAN_POINT('Origin',(368.233866737957,132.827994458758,9.51300429767515));
#1074=CARTESIAN_POINT('',(366.233796462423,130.82798805297,9.51300429767515));
#1075=CARTESIAN_POINT('Origin',(408.233866737957,130.82798805297,9.51300429767515));
#1076=CARTESIAN_POINT('',(406.233796462423,132.827994458758,9.51300429767515));
#1077=CARTESIAN_POINT('Origin',(408.233866737957,132.827994458758,9.51300429767515));
#1078=CARTESIAN_POINT('',(406.233796462423,130.82798805297,9.51300429767515));
#1079=CARTESIAN_POINT('Origin',(368.233866737957,130.82798805297,37.5130042976752));
#1080=CARTESIAN_POINT('',(366.233796462423,132.827994458758,37.5130042976752));
#1081=CARTESIAN_POINT('Origin',(368.233866737957,132.827994458758,37.5130042976752));
#1082=CARTESIAN_POINT('',(366.233796462423,130.82798805297,37.5130042976752));
#1083=CARTESIAN_POINT('Origin',(408.233866737957,130.82798805297,37.5130042976752));
#1084=CARTESIAN_POINT('',(406.233796462423,132.827994458758,37.5130042976752));
#1085=CARTESIAN_POINT('Origin',(408.233866737957,132.827994458758,37.5130042976752));
#1086=CARTESIAN_POINT('',(406.233796462423,130.82798805297,37.5130042976752));
#1087=CARTESIAN_POINT('Origin',(395.907021319295,130.827994458759,7.49999999999988));
#1088=CARTESIAN_POINT('',(373.180181012195,132.827994458756,7.49999999999989));
#1089=CARTESIAN_POINT('',(373.180181012195,130.827994458756,5.49999999999988));
#1090=CARTESIAN_POINT('Origin',(373.180181012195,130.827994458756,7.49999999999988));
#1091=CARTESIAN_POINT('',(403.180181012195,130.82799445876,5.49999999999988));
#1092=CARTESIAN_POINT('',(395.907021319295,130.827994458759,5.49999999999988));
#1093=CARTESIAN_POINT('',(403.180181012195,132.82799445876,7.49999999999989));
#1094=CARTESIAN_POINT('Origin',(403.180181012195,130.82799445876,7.49999999999988));
#1095=CARTESIAN_POINT('',(395.907021319295,132.827994458759,7.49999999999989));
#1096=CARTESIAN_POINT('Origin',(403.180181012195,132.827994458705,5.49999999999988));
#1097=CARTESIAN_POINT('',(373.180181012195,114.827994458705,5.49999999999988));
#1098=CARTESIAN_POINT('',(373.180181012195,132.827994458705,5.49999999999988));
#1099=CARTESIAN_POINT('',(375.180181012195,112.827994458705,5.49999999999988));
#1100=CARTESIAN_POINT('Origin',(375.180181012195,114.827994458705,5.49999999999988));
#1101=CARTESIAN_POINT('',(401.180181012195,112.827994458705,5.49999999999988));
#1102=CARTESIAN_POINT('',(395.680181012195,112.827994458705,5.49999999999988));
#1103=CARTESIAN_POINT('',(403.180181012195,114.827994458705,5.49999999999988));
#1104=CARTESIAN_POINT('Origin',(401.180181012195,114.827994458705,5.49999999999988));
#1105=CARTESIAN_POINT('',(403.180181012195,132.827994458705,5.49999999999988));
#1106=CARTESIAN_POINT('',(375.300005558132,129.000013629265,5.49999999999988));
#1107=CARTESIAN_POINT('Origin',(377.000005558132,129.000013629265,5.49999999999988));
#1108=CARTESIAN_POINT('',(397.300005558132,117.000013629265,5.49999999999988));
#1109=CARTESIAN_POINT('Origin',(399.000005558132,117.000013629265,5.49999999999988));
#1110=CARTESIAN_POINT('',(397.300005558132,129.000013629265,5.49999999999988));
#1111=CARTESIAN_POINT('Origin',(399.000005558132,129.000013629265,5.49999999999988));
#1112=CARTESIAN_POINT('',(375.300005558132,117.000013629265,5.49999999999988));
#1113=CARTESIAN_POINT('Origin',(377.000005558132,117.000013629265,5.49999999999988));
#1114=CARTESIAN_POINT('Origin',(403.180181012195,132.827994458705,3.49999999999988));
#1115=CARTESIAN_POINT('',(403.180181012195,114.827994458705,3.49999999999988));
#1116=CARTESIAN_POINT('',(403.180181012195,114.827994458705,4.24999999999988));
#1117=CARTESIAN_POINT('',(403.180181012195,132.827994458705,3.49999999999988));
#1118=CARTESIAN_POINT('',(403.180181012195,132.827994458705,3.49999999999988));
#1119=CARTESIAN_POINT('',(403.180181012195,132.82799445876,13.2499999999999));
#1120=CARTESIAN_POINT('Origin',(373.180181012195,132.827994458705,6.49999999999988));
#1121=CARTESIAN_POINT('',(373.180181012195,132.827994458705,3.49999999999988));
#1122=CARTESIAN_POINT('',(373.180181012195,132.827994458756,14.7499999999999));
#1123=CARTESIAN_POINT('',(373.180181012195,114.827994458705,3.49999999999988));
#1124=CARTESIAN_POINT('',(373.180181012195,132.827994458705,3.49999999999988));
#1125=CARTESIAN_POINT('',(373.180181012195,114.827994458705,5.74999999999988));
#1126=CARTESIAN_POINT('Origin',(388.633861626392,96.3279880056678,3.49999999999941));
#1127=CARTESIAN_POINT('',(401.180181012195,112.827994458705,3.49999999999988));
#1128=CARTESIAN_POINT('Origin',(401.180181012195,114.827994458705,3.49999999999975));
#1129=CARTESIAN_POINT('',(375.180181012195,112.827994458705,3.49999999999988));
#1130=CARTESIAN_POINT('',(388.633861626395,112.827994458705,3.49999999999988));
#1131=CARTESIAN_POINT('Origin',(375.180181012195,114.827994458705,3.49999999999975));
#1132=CARTESIAN_POINT('',(361.533861626395,132.827994458754,3.49999999999973));
#1133=CARTESIAN_POINT('',(361.533861626395,132.827994458754,3.49999999999973));
#1134=CARTESIAN_POINT('',(361.533861626394,135.827994458754,3.49999999999975));
#1135=CARTESIAN_POINT('',(361.533861626394,135.827994458754,3.49999999999975));
#1136=CARTESIAN_POINT('',(415.733861626394,135.827994458762,3.49999999999992));
#1137=CARTESIAN_POINT('',(361.533861626394,135.827994458754,3.49999999999975));
#1138=CARTESIAN_POINT('',(415.733861626395,132.827994458762,3.4999999999999));
#1139=CARTESIAN_POINT('',(415.733861626394,135.827994458762,3.49999999999992));
#1140=CARTESIAN_POINT('',(361.533861626395,132.827994458754,3.49999999999973));
#1141=CARTESIAN_POINT('',(375.300005558132,117.000013629265,3.49999999999941));
#1142=CARTESIAN_POINT('Origin',(377.000005558132,117.000013629265,3.49999999999941));
#1143=CARTESIAN_POINT('',(397.300005558132,129.000013629265,3.49999999999941));
#1144=CARTESIAN_POINT('Origin',(399.000005558132,129.000013629265,3.49999999999941));
#1145=CARTESIAN_POINT('',(397.300005558132,117.000013629265,3.49999999999941));
#1146=CARTESIAN_POINT('Origin',(399.000005558132,117.000013629265,3.49999999999941));
#1147=CARTESIAN_POINT('',(375.300005558132,129.000013629265,3.49999999999941));
#1148=CARTESIAN_POINT('Origin',(377.000005558132,129.000013629265,3.49999999999941));
#1149=CARTESIAN_POINT('Origin',(377.000005558132,129.000013629265,3.49999999999988));
#1150=CARTESIAN_POINT('',(375.300005558132,129.000013629265,3.49999999999988));
#1151=CARTESIAN_POINT('Origin',(399.000005558132,117.000013629265,3.49999999999988));
#1152=CARTESIAN_POINT('',(397.300005558132,117.000013629265,3.49999999999988));
#1153=CARTESIAN_POINT('Origin',(399.000005558132,129.000013629265,3.49999999999988));
#1154=CARTESIAN_POINT('',(397.300005558132,129.000013629265,3.49999999999988));
#1155=CARTESIAN_POINT('Origin',(377.000005558132,117.000013629265,3.49999999999988));
#1156=CARTESIAN_POINT('',(375.300005558132,117.000013629265,3.49999999999988));
#1157=CARTESIAN_POINT('Origin',(375.180181012195,114.827994458705,5.74999999999988));
#1158=CARTESIAN_POINT('',(375.180181012195,112.827994458705,5.74999999999988));
#1159=CARTESIAN_POINT('Origin',(388.180181012195,112.827994458705,4.99999999999988));
#1160=CARTESIAN_POINT('',(401.180181012195,112.827994458705,4.24999999999988));
#1161=CARTESIAN_POINT('Origin',(401.180181012195,114.827994458705,4.24999999999988));
#1162=CARTESIAN_POINT('Origin',(388.633861626395,132.827994458758,22.9999999999998));
#1163=CARTESIAN_POINT('',(417.233861626395,132.827994458762,4.99999999999991));
#1164=CARTESIAN_POINT('Origin',(415.733861626394,132.827994458762,4.99999999999994));
#1165=CARTESIAN_POINT('',(417.233861626394,132.827994458762,40.9999999999999));
#1166=CARTESIAN_POINT('',(417.233861626395,132.827994458762,4.99999999999991));
#1167=CARTESIAN_POINT('',(415.733861626394,132.827994458762,42.4999999999999));
#1168=CARTESIAN_POINT('Origin',(415.733861626394,132.827994458762,40.9999999999999));
#1169=CARTESIAN_POINT('',(361.533861626395,132.827994458754,42.4999999999998));
#1170=CARTESIAN_POINT('',(415.733861626394,132.827994458762,42.4999999999999));
#1171=CARTESIAN_POINT('',(360.033861626395,132.827994458754,40.9999999999998));
#1172=CARTESIAN_POINT('Origin',(361.533861626395,132.827994458754,40.9999999999999));
#1173=CARTESIAN_POINT('',(360.033861626395,132.827994458754,4.99999999999974));
#1174=CARTESIAN_POINT('',(360.033861626395,132.827994458754,40.9999999999998));
#1175=CARTESIAN_POINT('Origin',(361.533861626395,132.827994458754,4.99999999999979));
#1176=CARTESIAN_POINT('Origin',(397.733861626394,135.827994458759,22.9999999999999));
#1177=CARTESIAN_POINT('',(405.833861626394,135.82799445876,22.9999999999999));
#1178=CARTESIAN_POINT('',(405.833861626394,135.82799445876,22.9999999999999));
#1179=CARTESIAN_POINT('Origin',(397.733861626394,135.827994458759,22.9999999999999));
#1180=CARTESIAN_POINT('Origin',(360.033861626394,135.827994458754,40.9999999999998));
#1181=CARTESIAN_POINT('',(360.033861626394,135.827994458754,40.9999999999998));
#1182=CARTESIAN_POINT('',(360.033861626395,135.827994458754,4.99999999999976));
#1183=CARTESIAN_POINT('',(360.033861626394,135.827994458754,40.9999999999998));
#1184=CARTESIAN_POINT('',(360.033861626395,135.827994458754,4.99999999999976));
#1185=CARTESIAN_POINT('',(360.033861626394,135.827994458754,40.9999999999998));
#1186=CARTESIAN_POINT('Origin',(361.533861626394,135.827994458754,40.9999999999999));
#1187=CARTESIAN_POINT('',(361.533861626394,135.827994458754,42.4999999999998));
#1188=CARTESIAN_POINT('Origin',(361.533861626394,135.827994458754,40.9999999999999));
#1189=CARTESIAN_POINT('',(361.533861626394,135.827994458754,42.4999999999998));
#1190=CARTESIAN_POINT('Origin',(415.733861626394,135.827994458762,42.4999999999999));
#1191=CARTESIAN_POINT('',(415.733861626394,135.827994458762,42.4999999999999));
#1192=CARTESIAN_POINT('',(415.733861626394,135.827994458762,42.4999999999999));
#1193=CARTESIAN_POINT('',(415.733861626394,135.827994458762,42.4999999999999));
#1194=CARTESIAN_POINT('Origin',(415.733861626394,135.827994458762,41.));
#1195=CARTESIAN_POINT('',(417.233861626394,135.827994458762,41.));
#1196=CARTESIAN_POINT('Origin',(415.733861626394,135.827994458762,41.));
#1197=CARTESIAN_POINT('',(417.233861626394,135.827994458762,41.));
#1198=CARTESIAN_POINT('Origin',(417.233861626394,135.827994458762,4.99999999999993));
#1199=CARTESIAN_POINT('',(417.233861626394,135.827994458762,4.99999999999993));
#1200=CARTESIAN_POINT('',(417.233861626394,135.827994458762,4.99999999999993));
#1201=CARTESIAN_POINT('',(417.233861626394,135.827994458762,4.99999999999993));
#1202=CARTESIAN_POINT('Origin',(415.733861626394,135.827994458762,4.99999999999996));
#1203=CARTESIAN_POINT('Origin',(415.733861626394,135.827994458762,4.99999999999996));
#1204=CARTESIAN_POINT('Origin',(361.533861626395,135.827994458754,4.9999999999998));
#1205=CARTESIAN_POINT('Origin',(361.533861626395,135.827994458754,4.9999999999998));
#1206=CARTESIAN_POINT('Origin',(388.633861626394,135.827994458758,22.9999999999998));
#1207=CARTESIAN_POINT('',(0.,0.,0.));
#1208=CARTESIAN_POINT('',(4.9737991503207E-13,-4.00000664415362,7.105427357601E-14));
#1209=CARTESIAN_POINT('',(0.,0.,0.));
#1210=UNCERTAINTY_MEASURE_WITH_UNIT(LENGTH_MEASURE(0.01),#1218,
'DISTANCE_ACCURACY_VALUE',
'Maximum model space distance between geometric entities at asserted c
onnectivities');
#1211=UNCERTAINTY_MEASURE_WITH_UNIT(LENGTH_MEASURE(0.01),#1218,
'DISTANCE_ACCURACY_VALUE',
'Maximum model space distance between geometric entities at asserted c
onnectivities');
#1212=UNCERTAINTY_MEASURE_WITH_UNIT(LENGTH_MEASURE(0.01),#1218,
'DISTANCE_ACCURACY_VALUE',
'Maximum model space distance between geometric entities at asserted c
onnectivities');
#1213=UNCERTAINTY_MEASURE_WITH_UNIT(LENGTH_MEASURE(0.01),#1218,
'DISTANCE_ACCURACY_VALUE',
'Maximum model space distance between geometric entities at asserted c
onnectivities');
#1214=(
GEOMETRIC_REPRESENTATION_CONTEXT(3)
GLOBAL_UNCERTAINTY_ASSIGNED_CONTEXT((#1210))
GLOBAL_UNIT_ASSIGNED_CONTEXT((#1218,#1220,#1221))
REPRESENTATION_CONTEXT('','3D')
);
#1215=(
GEOMETRIC_REPRESENTATION_CONTEXT(3)
GLOBAL_UNCERTAINTY_ASSIGNED_CONTEXT((#1211))
GLOBAL_UNIT_ASSIGNED_CONTEXT((#1218,#1220,#1221))
REPRESENTATION_CONTEXT('','3D')
);
#1216=(
GEOMETRIC_REPRESENTATION_CONTEXT(3)
GLOBAL_UNCERTAINTY_ASSIGNED_CONTEXT((#1212))
GLOBAL_UNIT_ASSIGNED_CONTEXT((#1218,#1220,#1221))
REPRESENTATION_CONTEXT('','3D')
);
#1217=(
GEOMETRIC_REPRESENTATION_CONTEXT(3)
GLOBAL_UNCERTAINTY_ASSIGNED_CONTEXT((#1213))
GLOBAL_UNIT_ASSIGNED_CONTEXT((#1218,#1220,#1221))
REPRESENTATION_CONTEXT('','3D')
);
#1218=(
LENGTH_UNIT()
NAMED_UNIT(*)
SI_UNIT(.MILLI.,.METRE.)
);
#1219=(
LENGTH_UNIT()
NAMED_UNIT(*)
SI_UNIT($,.METRE.)
);
#1220=(
NAMED_UNIT(*)
PLANE_ANGLE_UNIT()
SI_UNIT($,.RADIAN.)
);
#1221=(
NAMED_UNIT(*)
SI_UNIT($,.STERADIAN.)
SOLID_ANGLE_UNIT()
);
#1222=SHAPE_DEFINITION_REPRESENTATION(#1225,#1230);
#1223=SHAPE_DEFINITION_REPRESENTATION(#1226,#1231);
#1224=SHAPE_DEFINITION_REPRESENTATION(#1227,#1232);
#1225=PRODUCT_DEFINITION_SHAPE('',$,#1234);
#1226=PRODUCT_DEFINITION_SHAPE('',$,#1235);
#1227=PRODUCT_DEFINITION_SHAPE('',$,#1236);
#1228=PRODUCT_DEFINITION_SHAPE($,$,#17);
#1229=PRODUCT_DEFINITION_SHAPE($,$,#18);
#1230=SHAPE_REPRESENTATION('',(#708,#794,#795),#1214);
#1231=SHAPE_REPRESENTATION('',(#709),#1215);
#1232=SHAPE_REPRESENTATION('',(#793),#1216);
#1233=PRODUCT_DEFINITION_CONTEXT('part definition',#1244,'design');
#1234=PRODUCT_DEFINITION('Flipper Motor Bracket Copy',
'Flipper Motor Bracket Copy',#1237,#1233);
#1235=PRODUCT_DEFINITION('Left Flipper Bracket','Left Flipper Bracket',
#1238,#1233);
#1236=PRODUCT_DEFINITION('2025-11-19-14-50-56-100','Component7',#1239,#1233);
#1237=PRODUCT_DEFINITION_FORMATION('',$,#1246);
#1238=PRODUCT_DEFINITION_FORMATION('',$,#1247);
#1239=PRODUCT_DEFINITION_FORMATION('',$,#1248);
#1240=PRODUCT_RELATED_PRODUCT_CATEGORY('Flipper Motor Bracket Copy',
'Flipper Motor Bracket Copy',(#1246));
#1241=PRODUCT_RELATED_PRODUCT_CATEGORY('Left Flipper Bracket',
'Left Flipper Bracket',(#1247));
#1242=PRODUCT_RELATED_PRODUCT_CATEGORY('Component7','Component7',(#1248));
#1243=APPLICATION_PROTOCOL_DEFINITION('international standard',
'automotive_design',2009,#1244);
#1244=APPLICATION_CONTEXT(
'Core Data for Automotive Mechanical Design Process');
#1245=PRODUCT_CONTEXT('part definition',#1244,'mechanical');
#1246=PRODUCT('Flipper Motor Bracket Copy','Flipper Motor Bracket Copy',
$,(#1245));
#1247=PRODUCT('Left Flipper Bracket','Left Flipper Bracket',$,(#1245));
#1248=PRODUCT('2025-11-19-14-50-56-100','Component7',$,(#1245));
#1249=PRESENTATION_STYLE_ASSIGNMENT((#1250));
#1250=SURFACE_STYLE_USAGE(.BOTH.,#1251);
#1251=SURFACE_SIDE_STYLE('',(#1252));
#1252=SURFACE_STYLE_FILL_AREA(#1253);
#1253=FILL_AREA_STYLE('Steel - Satin',(#1254));
#1254=FILL_AREA_STYLE_COLOUR('Steel - Satin',#1255);
#1255=COLOUR_RGB('Steel - Satin',0.627450980392157,0.627450980392157,0.627450980392157);
ENDSEC;
END-ISO-10303-21;
