ISO-10303-21;
HEADER;
/* Generated by software containing ST-Developer
 * from STEP Tools, Inc. (www.steptools.com) 
 */

FILE_DESCRIPTION(
/* description */ (''),
/* implementation_level */ '2;1');

FILE_NAME(
/* name */ 'Flipper+arm+pt+1.step',
/* time_stamp */ '2026-08-27T11:17:54-05:00',
/* author */ (''),
/* organization */ (''),
/* preprocessor_version */ 'ST-DEVELOPER v20.1',
/* originating_system */ 'Autodesk Translation Framework v15.8.0.0',
/* authorisation */ '');

FILE_SCHEMA (('AUTOMOTIVE_DESIGN { 1 0 10303 214 3 1 1 }'));
ENDSEC;

DATA;
#10=MECHANICAL_DESIGN_GEOMETRIC_PRESENTATION_REPRESENTATION('',(#13),#632);
#11=SHAPE_REPRESENTATION_RELATIONSHIP('SRR','None',#639,#12);
#12=ADVANCED_BREP_SHAPE_REPRESENTATION('',(#14),#631);
#13=STYLED_ITEM('',(#649),#14);
#14=MANIFOLD_SOLID_BREP('Body1',#370);
#15=CYLINDRICAL_SURFACE('',#393,3.99999999999999);
#16=CYLINDRICAL_SURFACE('',#394,1.70000000000002);
#17=CYLINDRICAL_SURFACE('',#397,1.70000000000002);
#18=CYLINDRICAL_SURFACE('',#400,1.70000000000002);
#19=CYLINDRICAL_SURFACE('',#403,1.70000000000002);
#20=CYLINDRICAL_SURFACE('',#406,1.70000000000002);
#21=CYLINDRICAL_SURFACE('',#409,1.70000000000002);
#22=CYLINDRICAL_SURFACE('',#418,35.);
#23=FACE_BOUND('',#117,.T.);
#24=FACE_BOUND('',#130,.T.);
#25=FACE_BOUND('',#131,.T.);
#26=FACE_BOUND('',#132,.T.);
#27=FACE_BOUND('',#133,.T.);
#28=FACE_BOUND('',#134,.T.);
#29=FACE_BOUND('',#135,.T.);
#30=FACE_BOUND('',#140,.T.);
#31=FACE_BOUND('',#141,.T.);
#32=FACE_BOUND('',#142,.T.);
#33=FACE_BOUND('',#143,.T.);
#34=FACE_BOUND('',#144,.T.);
#35=FACE_BOUND('',#145,.T.);
#36=LINE('',#544,#65);
#37=LINE('',#546,#66);
#38=LINE('',#549,#67);
#39=LINE('',#551,#68);
#40=LINE('',#556,#69);
#41=LINE('',#562,#70);
#42=LINE('',#568,#71);
#43=LINE('',#574,#72);
#44=LINE('',#580,#73);
#45=LINE('',#586,#74);
#46=LINE('',#591,#75);
#47=LINE('',#593,#76);
#48=LINE('',#595,#77);
#49=LINE('',#596,#78);
#50=LINE('',#600,#79);
#51=LINE('',#602,#80);
#52=LINE('',#604,#81);
#53=LINE('',#605,#82);
#54=LINE('',#607,#83);
#55=LINE('',#608,#84);
#56=LINE('',#611,#85);
#57=LINE('',#613,#86);
#58=LINE('',#614,#87);
#59=LINE('',#616,#88);
#60=LINE('',#617,#89);
#61=LINE('',#620,#90);
#62=LINE('',#621,#91);
#63=LINE('',#625,#92);
#64=LINE('',#627,#93);
#65=VECTOR('',#440,10.);
#66=VECTOR('',#441,10.);
#67=VECTOR('',#444,10.);
#68=VECTOR('',#447,3.99999999999999);
#69=VECTOR('',#452,1.70000000000002);
#70=VECTOR('',#459,1.70000000000002);
#71=VECTOR('',#466,1.70000000000002);
#72=VECTOR('',#473,1.70000000000002);
#73=VECTOR('',#480,1.70000000000002);
#74=VECTOR('',#487,1.70000000000002);
#75=VECTOR('',#492,10.);
#76=VECTOR('',#493,10.);
#77=VECTOR('',#494,10.);
#78=VECTOR('',#495,10.);
#79=VECTOR('',#498,10.);
#80=VECTOR('',#499,10.);
#81=VECTOR('',#500,10.);
#82=VECTOR('',#501,10.);
#83=VECTOR('',#504,10.);
#84=VECTOR('',#505,10.);
#85=VECTOR('',#508,10.);
#86=VECTOR('',#509,10.);
#87=VECTOR('',#510,10.);
#88=VECTOR('',#513,10.);
#89=VECTOR('',#514,10.);
#90=VECTOR('',#517,10.);
#91=VECTOR('',#518,10.);
#92=VECTOR('',#523,10.);
#93=VECTOR('',#526,10.);
#94=TOROIDAL_SURFACE('',#386,5.99999999999999,2.);
#95=FACE_OUTER_BOUND('',#114,.T.);
#96=FACE_OUTER_BOUND('',#115,.T.);
#97=FACE_OUTER_BOUND('',#116,.T.);
#98=FACE_OUTER_BOUND('',#118,.T.);
#99=FACE_OUTER_BOUND('',#119,.T.);
#100=FACE_OUTER_BOUND('',#120,.T.);
#101=FACE_OUTER_BOUND('',#121,.T.);
#102=FACE_OUTER_BOUND('',#122,.T.);
#103=FACE_OUTER_BOUND('',#123,.T.);
#104=FACE_OUTER_BOUND('',#124,.T.);
#105=FACE_OUTER_BOUND('',#125,.T.);
#106=FACE_OUTER_BOUND('',#126,.T.);
#107=FACE_OUTER_BOUND('',#127,.T.);
#108=FACE_OUTER_BOUND('',#128,.T.);
#109=FACE_OUTER_BOUND('',#129,.T.);
#110=FACE_OUTER_BOUND('',#136,.T.);
#111=FACE_OUTER_BOUND('',#137,.T.);
#112=FACE_OUTER_BOUND('',#138,.T.);
#113=FACE_OUTER_BOUND('',#139,.T.);
#114=EDGE_LOOP('',(#245));
#115=EDGE_LOOP('',(#246,#247,#248,#249,#250));
#116=EDGE_LOOP('',(#251,#252,#253,#254));
#117=EDGE_LOOP('',(#255));
#118=EDGE_LOOP('',(#256,#257,#258,#259,#260));
#119=EDGE_LOOP('',(#261,#262,#263,#264));
#120=EDGE_LOOP('',(#265,#266,#267,#268));
#121=EDGE_LOOP('',(#269,#270,#271,#272));
#122=EDGE_LOOP('',(#273,#274,#275,#276));
#123=EDGE_LOOP('',(#277,#278,#279,#280));
#124=EDGE_LOOP('',(#281,#282,#283,#284));
#125=EDGE_LOOP('',(#285,#286,#287,#288));
#126=EDGE_LOOP('',(#289,#290,#291,#292));
#127=EDGE_LOOP('',(#293,#294,#295,#296));
#128=EDGE_LOOP('',(#297,#298,#299,#300));
#129=EDGE_LOOP('',(#301,#302,#303,#304,#305,#306));
#130=EDGE_LOOP('',(#307));
#131=EDGE_LOOP('',(#308));
#132=EDGE_LOOP('',(#309));
#133=EDGE_LOOP('',(#310));
#134=EDGE_LOOP('',(#311));
#135=EDGE_LOOP('',(#312));
#136=EDGE_LOOP('',(#313,#314,#315,#316,#317,#318));
#137=EDGE_LOOP('',(#319,#320,#321,#322));
#138=EDGE_LOOP('',(#323,#324,#325,#326,#327,#328));
#139=EDGE_LOOP('',(#329,#330,#331,#332,#333,#334));
#140=EDGE_LOOP('',(#335));
#141=EDGE_LOOP('',(#336));
#142=EDGE_LOOP('',(#337));
#143=EDGE_LOOP('',(#338));
#144=EDGE_LOOP('',(#339));
#145=EDGE_LOOP('',(#340));
#146=CIRCLE('',#385,3.99999999999999);
#147=CIRCLE('',#387,5.99999999999999);
#148=CIRCLE('',#388,2.);
#149=CIRCLE('',#389,3.99999999999999);
#150=CIRCLE('',#390,3.99999999999999);
#151=CIRCLE('',#392,35.);
#152=CIRCLE('',#395,1.70000000000002);
#153=CIRCLE('',#396,1.70000000000002);
#154=CIRCLE('',#398,1.70000000000002);
#155=CIRCLE('',#399,1.70000000000002);
#156=CIRCLE('',#401,1.70000000000002);
#157=CIRCLE('',#402,1.70000000000002);
#158=CIRCLE('',#404,1.70000000000002);
#159=CIRCLE('',#405,1.70000000000002);
#160=CIRCLE('',#407,1.70000000000002);
#161=CIRCLE('',#408,1.70000000000002);
#162=CIRCLE('',#410,1.70000000000002);
#163=CIRCLE('',#411,1.70000000000002);
#164=CIRCLE('',#419,35.);
#165=VERTEX_POINT('',#531);
#166=VERTEX_POINT('',#534);
#167=VERTEX_POINT('',#536);
#168=VERTEX_POINT('',#538);
#169=VERTEX_POINT('',#542);
#170=VERTEX_POINT('',#543);
#171=VERTEX_POINT('',#545);
#172=VERTEX_POINT('',#547);
#173=VERTEX_POINT('',#553);
#174=VERTEX_POINT('',#555);
#175=VERTEX_POINT('',#559);
#176=VERTEX_POINT('',#561);
#177=VERTEX_POINT('',#565);
#178=VERTEX_POINT('',#567);
#179=VERTEX_POINT('',#571);
#180=VERTEX_POINT('',#573);
#181=VERTEX_POINT('',#577);
#182=VERTEX_POINT('',#579);
#183=VERTEX_POINT('',#583);
#184=VERTEX_POINT('',#585);
#185=VERTEX_POINT('',#589);
#186=VERTEX_POINT('',#590);
#187=VERTEX_POINT('',#592);
#188=VERTEX_POINT('',#594);
#189=VERTEX_POINT('',#598);
#190=VERTEX_POINT('',#599);
#191=VERTEX_POINT('',#601);
#192=VERTEX_POINT('',#603);
#193=VERTEX_POINT('',#610);
#194=VERTEX_POINT('',#612);
#195=VERTEX_POINT('',#619);
#196=VERTEX_POINT('',#623);
#197=EDGE_CURVE('',#165,#165,#146,.T.);
#198=EDGE_CURVE('',#166,#166,#147,.T.);
#199=EDGE_CURVE('',#166,#167,#148,.T.);
#200=EDGE_CURVE('',#167,#168,#149,.T.);
#201=EDGE_CURVE('',#168,#167,#150,.T.);
#202=EDGE_CURVE('',#169,#170,#36,.T.);
#203=EDGE_CURVE('',#170,#171,#37,.T.);
#204=EDGE_CURVE('',#171,#172,#151,.T.);
#205=EDGE_CURVE('',#172,#169,#38,.T.);
#206=EDGE_CURVE('',#165,#168,#39,.T.);
#207=EDGE_CURVE('',#173,#173,#152,.T.);
#208=EDGE_CURVE('',#173,#174,#40,.T.);
#209=EDGE_CURVE('',#174,#174,#153,.T.);
#210=EDGE_CURVE('',#175,#175,#154,.T.);
#211=EDGE_CURVE('',#175,#176,#41,.T.);
#212=EDGE_CURVE('',#176,#176,#155,.T.);
#213=EDGE_CURVE('',#177,#177,#156,.T.);
#214=EDGE_CURVE('',#177,#178,#42,.T.);
#215=EDGE_CURVE('',#178,#178,#157,.T.);
#216=EDGE_CURVE('',#179,#179,#158,.T.);
#217=EDGE_CURVE('',#179,#180,#43,.T.);
#218=EDGE_CURVE('',#180,#180,#159,.T.);
#219=EDGE_CURVE('',#181,#181,#160,.T.);
#220=EDGE_CURVE('',#181,#182,#44,.T.);
#221=EDGE_CURVE('',#182,#182,#161,.T.);
#222=EDGE_CURVE('',#183,#183,#162,.T.);
#223=EDGE_CURVE('',#183,#184,#45,.T.);
#224=EDGE_CURVE('',#184,#184,#163,.T.);
#225=EDGE_CURVE('',#185,#186,#46,.T.);
#226=EDGE_CURVE('',#186,#187,#47,.T.);
#227=EDGE_CURVE('',#188,#187,#48,.T.);
#228=EDGE_CURVE('',#185,#188,#49,.T.);
#229=EDGE_CURVE('',#189,#190,#50,.T.);
#230=EDGE_CURVE('',#190,#191,#51,.T.);
#231=EDGE_CURVE('',#192,#191,#52,.T.);
#232=EDGE_CURVE('',#189,#192,#53,.T.);
#233=EDGE_CURVE('',#187,#192,#54,.T.);
#234=EDGE_CURVE('',#191,#188,#55,.T.);
#235=EDGE_CURVE('',#193,#169,#56,.T.);
#236=EDGE_CURVE('',#194,#193,#57,.T.);
#237=EDGE_CURVE('',#170,#194,#58,.T.);
#238=EDGE_CURVE('',#189,#193,#59,.T.);
#239=EDGE_CURVE('',#194,#186,#60,.T.);
#240=EDGE_CURVE('',#185,#195,#61,.T.);
#241=EDGE_CURVE('',#195,#171,#62,.T.);
#242=EDGE_CURVE('',#195,#196,#164,.T.);
#243=EDGE_CURVE('',#196,#172,#63,.T.);
#244=EDGE_CURVE('',#190,#196,#64,.T.);
#245=ORIENTED_EDGE('',*,*,#197,.F.);
#246=ORIENTED_EDGE('',*,*,#198,.T.);
#247=ORIENTED_EDGE('',*,*,#199,.T.);
#248=ORIENTED_EDGE('',*,*,#200,.T.);
#249=ORIENTED_EDGE('',*,*,#201,.T.);
#250=ORIENTED_EDGE('',*,*,#199,.F.);
#251=ORIENTED_EDGE('',*,*,#202,.T.);
#252=ORIENTED_EDGE('',*,*,#203,.T.);
#253=ORIENTED_EDGE('',*,*,#204,.T.);
#254=ORIENTED_EDGE('',*,*,#205,.T.);
#255=ORIENTED_EDGE('',*,*,#198,.F.);
#256=ORIENTED_EDGE('',*,*,#197,.T.);
#257=ORIENTED_EDGE('',*,*,#206,.T.);
#258=ORIENTED_EDGE('',*,*,#200,.F.);
#259=ORIENTED_EDGE('',*,*,#201,.F.);
#260=ORIENTED_EDGE('',*,*,#206,.F.);
#261=ORIENTED_EDGE('',*,*,#207,.F.);
#262=ORIENTED_EDGE('',*,*,#208,.T.);
#263=ORIENTED_EDGE('',*,*,#209,.F.);
#264=ORIENTED_EDGE('',*,*,#208,.F.);
#265=ORIENTED_EDGE('',*,*,#210,.F.);
#266=ORIENTED_EDGE('',*,*,#211,.T.);
#267=ORIENTED_EDGE('',*,*,#212,.F.);
#268=ORIENTED_EDGE('',*,*,#211,.F.);
#269=ORIENTED_EDGE('',*,*,#213,.F.);
#270=ORIENTED_EDGE('',*,*,#214,.T.);
#271=ORIENTED_EDGE('',*,*,#215,.F.);
#272=ORIENTED_EDGE('',*,*,#214,.F.);
#273=ORIENTED_EDGE('',*,*,#216,.F.);
#274=ORIENTED_EDGE('',*,*,#217,.T.);
#275=ORIENTED_EDGE('',*,*,#218,.F.);
#276=ORIENTED_EDGE('',*,*,#217,.F.);
#277=ORIENTED_EDGE('',*,*,#219,.F.);
#278=ORIENTED_EDGE('',*,*,#220,.T.);
#279=ORIENTED_EDGE('',*,*,#221,.F.);
#280=ORIENTED_EDGE('',*,*,#220,.F.);
#281=ORIENTED_EDGE('',*,*,#222,.F.);
#282=ORIENTED_EDGE('',*,*,#223,.T.);
#283=ORIENTED_EDGE('',*,*,#224,.F.);
#284=ORIENTED_EDGE('',*,*,#223,.F.);
#285=ORIENTED_EDGE('',*,*,#225,.T.);
#286=ORIENTED_EDGE('',*,*,#226,.T.);
#287=ORIENTED_EDGE('',*,*,#227,.F.);
#288=ORIENTED_EDGE('',*,*,#228,.F.);
#289=ORIENTED_EDGE('',*,*,#229,.T.);
#290=ORIENTED_EDGE('',*,*,#230,.T.);
#291=ORIENTED_EDGE('',*,*,#231,.F.);
#292=ORIENTED_EDGE('',*,*,#232,.F.);
#293=ORIENTED_EDGE('',*,*,#233,.T.);
#294=ORIENTED_EDGE('',*,*,#231,.T.);
#295=ORIENTED_EDGE('',*,*,#234,.T.);
#296=ORIENTED_EDGE('',*,*,#227,.T.);
#297=ORIENTED_EDGE('',*,*,#235,.F.);
#298=ORIENTED_EDGE('',*,*,#236,.F.);
#299=ORIENTED_EDGE('',*,*,#237,.F.);
#300=ORIENTED_EDGE('',*,*,#202,.F.);
#301=ORIENTED_EDGE('',*,*,#238,.F.);
#302=ORIENTED_EDGE('',*,*,#232,.T.);
#303=ORIENTED_EDGE('',*,*,#233,.F.);
#304=ORIENTED_EDGE('',*,*,#226,.F.);
#305=ORIENTED_EDGE('',*,*,#239,.F.);
#306=ORIENTED_EDGE('',*,*,#236,.T.);
#307=ORIENTED_EDGE('',*,*,#207,.T.);
#308=ORIENTED_EDGE('',*,*,#210,.T.);
#309=ORIENTED_EDGE('',*,*,#213,.T.);
#310=ORIENTED_EDGE('',*,*,#216,.T.);
#311=ORIENTED_EDGE('',*,*,#219,.T.);
#312=ORIENTED_EDGE('',*,*,#222,.T.);
#313=ORIENTED_EDGE('',*,*,#237,.T.);
#314=ORIENTED_EDGE('',*,*,#239,.T.);
#315=ORIENTED_EDGE('',*,*,#225,.F.);
#316=ORIENTED_EDGE('',*,*,#240,.T.);
#317=ORIENTED_EDGE('',*,*,#241,.T.);
#318=ORIENTED_EDGE('',*,*,#203,.F.);
#319=ORIENTED_EDGE('',*,*,#242,.T.);
#320=ORIENTED_EDGE('',*,*,#243,.T.);
#321=ORIENTED_EDGE('',*,*,#204,.F.);
#322=ORIENTED_EDGE('',*,*,#241,.F.);
#323=ORIENTED_EDGE('',*,*,#235,.T.);
#324=ORIENTED_EDGE('',*,*,#205,.F.);
#325=ORIENTED_EDGE('',*,*,#243,.F.);
#326=ORIENTED_EDGE('',*,*,#244,.F.);
#327=ORIENTED_EDGE('',*,*,#229,.F.);
#328=ORIENTED_EDGE('',*,*,#238,.T.);
#329=ORIENTED_EDGE('',*,*,#244,.T.);
#330=ORIENTED_EDGE('',*,*,#242,.F.);
#331=ORIENTED_EDGE('',*,*,#240,.F.);
#332=ORIENTED_EDGE('',*,*,#228,.T.);
#333=ORIENTED_EDGE('',*,*,#234,.F.);
#334=ORIENTED_EDGE('',*,*,#230,.F.);
#335=ORIENTED_EDGE('',*,*,#209,.T.);
#336=ORIENTED_EDGE('',*,*,#212,.T.);
#337=ORIENTED_EDGE('',*,*,#215,.T.);
#338=ORIENTED_EDGE('',*,*,#218,.T.);
#339=ORIENTED_EDGE('',*,*,#221,.T.);
#340=ORIENTED_EDGE('',*,*,#224,.T.);
#341=PLANE('',#384);
#342=PLANE('',#391);
#343=PLANE('',#412);
#344=PLANE('',#413);
#345=PLANE('',#414);
#346=PLANE('',#415);
#347=PLANE('',#416);
#348=PLANE('',#417);
#349=PLANE('',#420);
#350=PLANE('',#421);
#351=ADVANCED_FACE('',(#95),#341,.T.);
#352=ADVANCED_FACE('',(#96),#94,.F.);
#353=ADVANCED_FACE('',(#97,#23),#342,.T.);
#354=ADVANCED_FACE('',(#98),#15,.T.);
#355=ADVANCED_FACE('',(#99),#16,.F.);
#356=ADVANCED_FACE('',(#100),#17,.F.);
#357=ADVANCED_FACE('',(#101),#18,.F.);
#358=ADVANCED_FACE('',(#102),#19,.F.);
#359=ADVANCED_FACE('',(#103),#20,.F.);
#360=ADVANCED_FACE('',(#104),#21,.F.);
#361=ADVANCED_FACE('',(#105),#343,.T.);
#362=ADVANCED_FACE('',(#106),#344,.T.);
#363=ADVANCED_FACE('',(#107),#345,.T.);
#364=ADVANCED_FACE('',(#108),#346,.F.);
#365=ADVANCED_FACE('',(#109,#24,#25,#26,#27,#28,#29),#347,.F.);
#366=ADVANCED_FACE('',(#110),#348,.T.);
#367=ADVANCED_FACE('',(#111),#22,.T.);
#368=ADVANCED_FACE('',(#112),#349,.T.);
#369=ADVANCED_FACE('',(#113,#30,#31,#32,#33,#34,#35),#350,.T.);
#370=CLOSED_SHELL('',(#351,#352,#353,#354,#355,#356,#357,#358,#359,#360,
#361,#362,#363,#364,#365,#366,#367,#368,#369));
#371=DERIVED_UNIT_ELEMENT(#373,1.);
#372=DERIVED_UNIT_ELEMENT(#634,-3.);
#373=(
MASS_UNIT()
NAMED_UNIT(*)
SI_UNIT(.KILO.,.GRAM.)
);
#374=DERIVED_UNIT((#371,#372));
#375=MEASURE_REPRESENTATION_ITEM('density measure',
POSITIVE_RATIO_MEASURE(7850.),#374);
#376=PROPERTY_DEFINITION_REPRESENTATION(#381,#378);
#377=PROPERTY_DEFINITION_REPRESENTATION(#382,#379);
#378=REPRESENTATION('material name',(#380),#631);
#379=REPRESENTATION('density',(#375),#631);
#380=DESCRIPTIVE_REPRESENTATION_ITEM('Steel','Steel');
#381=PROPERTY_DEFINITION('material property','material name',#641);
#382=PROPERTY_DEFINITION('material property','density of part',#641);
#383=AXIS2_PLACEMENT_3D('',#529,#422,#423);
#384=AXIS2_PLACEMENT_3D('',#530,#424,#425);
#385=AXIS2_PLACEMENT_3D('',#532,#426,#427);
#386=AXIS2_PLACEMENT_3D('',#533,#428,#429);
#387=AXIS2_PLACEMENT_3D('',#535,#430,#431);
#388=AXIS2_PLACEMENT_3D('',#537,#432,#433);
#389=AXIS2_PLACEMENT_3D('',#539,#434,#435);
#390=AXIS2_PLACEMENT_3D('',#540,#436,#437);
#391=AXIS2_PLACEMENT_3D('',#541,#438,#439);
#392=AXIS2_PLACEMENT_3D('',#548,#442,#443);
#393=AXIS2_PLACEMENT_3D('',#550,#445,#446);
#394=AXIS2_PLACEMENT_3D('',#552,#448,#449);
#395=AXIS2_PLACEMENT_3D('',#554,#450,#451);
#396=AXIS2_PLACEMENT_3D('',#557,#453,#454);
#397=AXIS2_PLACEMENT_3D('',#558,#455,#456);
#398=AXIS2_PLACEMENT_3D('',#560,#457,#458);
#399=AXIS2_PLACEMENT_3D('',#563,#460,#461);
#400=AXIS2_PLACEMENT_3D('',#564,#462,#463);
#401=AXIS2_PLACEMENT_3D('',#566,#464,#465);
#402=AXIS2_PLACEMENT_3D('',#569,#467,#468);
#403=AXIS2_PLACEMENT_3D('',#570,#469,#470);
#404=AXIS2_PLACEMENT_3D('',#572,#471,#472);
#405=AXIS2_PLACEMENT_3D('',#575,#474,#475);
#406=AXIS2_PLACEMENT_3D('',#576,#476,#477);
#407=AXIS2_PLACEMENT_3D('',#578,#478,#479);
#408=AXIS2_PLACEMENT_3D('',#581,#481,#482);
#409=AXIS2_PLACEMENT_3D('',#582,#483,#484);
#410=AXIS2_PLACEMENT_3D('',#584,#485,#486);
#411=AXIS2_PLACEMENT_3D('',#587,#488,#489);
#412=AXIS2_PLACEMENT_3D('',#588,#490,#491);
#413=AXIS2_PLACEMENT_3D('',#597,#496,#497);
#414=AXIS2_PLACEMENT_3D('',#606,#502,#503);
#415=AXIS2_PLACEMENT_3D('',#609,#506,#507);
#416=AXIS2_PLACEMENT_3D('',#615,#511,#512);
#417=AXIS2_PLACEMENT_3D('',#618,#515,#516);
#418=AXIS2_PLACEMENT_3D('',#622,#519,#520);
#419=AXIS2_PLACEMENT_3D('',#624,#521,#522);
#420=AXIS2_PLACEMENT_3D('',#626,#524,#525);
#421=AXIS2_PLACEMENT_3D('',#628,#527,#528);
#422=DIRECTION('axis',(0.,0.,1.));
#423=DIRECTION('refdir',(1.,0.,0.));
#424=DIRECTION('center_axis',(0.,1.,0.));
#425=DIRECTION('ref_axis',(-1.,0.,0.));
#426=DIRECTION('center_axis',(0.,-1.,0.));
#427=DIRECTION('ref_axis',(-1.,0.,0.));
#428=DIRECTION('center_axis',(0.,-1.,0.));
#429=DIRECTION('ref_axis',(0.,0.,-1.));
#430=DIRECTION('center_axis',(0.,1.,0.));
#431=DIRECTION('ref_axis',(-1.,0.,0.));
#432=DIRECTION('center_axis',(1.,0.,0.));
#433=DIRECTION('ref_axis',(0.,0.,1.));
#434=DIRECTION('center_axis',(0.,-1.,0.));
#435=DIRECTION('ref_axis',(-1.,0.,0.));
#436=DIRECTION('center_axis',(0.,-1.,0.));
#437=DIRECTION('ref_axis',(-1.,0.,0.));
#438=DIRECTION('center_axis',(0.,1.,0.));
#439=DIRECTION('ref_axis',(-1.,0.,0.));
#440=DIRECTION('',(0.,0.,-1.));
#441=DIRECTION('',(-0.999999999918935,0.,-1.27330254643551E-5));
#442=DIRECTION('center_axis',(0.,1.,0.));
#443=DIRECTION('ref_axis',(1.27330254632138E-5,0.,-0.999999999918935));
#444=DIRECTION('',(0.999999999994925,0.,-3.18597220061881E-6));
#445=DIRECTION('center_axis',(0.,1.,0.));
#446=DIRECTION('ref_axis',(-1.,0.,0.));
#447=DIRECTION('',(0.,-1.,0.));
#448=DIRECTION('center_axis',(0.,-1.,0.));
#449=DIRECTION('ref_axis',(-1.,0.,0.));
#450=DIRECTION('center_axis',(0.,-1.,0.));
#451=DIRECTION('ref_axis',(-1.,0.,0.));
#452=DIRECTION('',(0.,-1.,0.));
#453=DIRECTION('center_axis',(0.,1.,0.));
#454=DIRECTION('ref_axis',(-1.,0.,0.));
#455=DIRECTION('center_axis',(0.,-1.,0.));
#456=DIRECTION('ref_axis',(-1.,0.,0.));
#457=DIRECTION('center_axis',(0.,-1.,0.));
#458=DIRECTION('ref_axis',(-1.,0.,0.));
#459=DIRECTION('',(0.,-1.,0.));
#460=DIRECTION('center_axis',(0.,1.,0.));
#461=DIRECTION('ref_axis',(-1.,0.,0.));
#462=DIRECTION('center_axis',(0.,-1.,0.));
#463=DIRECTION('ref_axis',(-1.,0.,0.));
#464=DIRECTION('center_axis',(0.,-1.,0.));
#465=DIRECTION('ref_axis',(-1.,0.,0.));
#466=DIRECTION('',(0.,-1.,0.));
#467=DIRECTION('center_axis',(0.,1.,0.));
#468=DIRECTION('ref_axis',(-1.,0.,0.));
#469=DIRECTION('center_axis',(0.,-1.,0.));
#470=DIRECTION('ref_axis',(-1.,0.,0.));
#471=DIRECTION('center_axis',(0.,-1.,0.));
#472=DIRECTION('ref_axis',(-1.,0.,0.));
#473=DIRECTION('',(0.,-1.,0.));
#474=DIRECTION('center_axis',(0.,1.,0.));
#475=DIRECTION('ref_axis',(-1.,0.,0.));
#476=DIRECTION('center_axis',(0.,-1.,0.));
#477=DIRECTION('ref_axis',(-1.,0.,0.));
#478=DIRECTION('center_axis',(0.,-1.,0.));
#479=DIRECTION('ref_axis',(-1.,0.,0.));
#480=DIRECTION('',(0.,-1.,0.));
#481=DIRECTION('center_axis',(0.,1.,0.));
#482=DIRECTION('ref_axis',(-1.,0.,0.));
#483=DIRECTION('center_axis',(0.,-1.,0.));
#484=DIRECTION('ref_axis',(-1.,0.,0.));
#485=DIRECTION('center_axis',(0.,-1.,0.));
#486=DIRECTION('ref_axis',(-1.,0.,0.));
#487=DIRECTION('',(0.,-1.,0.));
#488=DIRECTION('center_axis',(0.,1.,0.));
#489=DIRECTION('ref_axis',(-1.,0.,0.));
#490=DIRECTION('center_axis',(0.,0.,-1.));
#491=DIRECTION('ref_axis',(0.,1.,0.));
#492=DIRECTION('',(0.,1.,0.));
#493=DIRECTION('',(1.,0.,0.));
#494=DIRECTION('',(0.,1.,0.));
#495=DIRECTION('',(1.,0.,0.));
#496=DIRECTION('center_axis',(0.,0.,1.));
#497=DIRECTION('ref_axis',(0.,-1.,0.));
#498=DIRECTION('',(0.,-1.,0.));
#499=DIRECTION('',(1.,0.,0.));
#500=DIRECTION('',(0.,-1.,0.));
#501=DIRECTION('',(1.,0.,0.));
#502=DIRECTION('center_axis',(1.,0.,0.));
#503=DIRECTION('ref_axis',(0.,0.,-1.));
#504=DIRECTION('',(-6.12323399573677E-17,0.,1.));
#505=DIRECTION('',(6.12323399573677E-17,0.,-1.));
#506=DIRECTION('center_axis',(-1.,0.,0.));
#507=DIRECTION('ref_axis',(0.,0.,1.));
#508=DIRECTION('',(0.,1.,0.));
#509=DIRECTION('',(0.,0.,1.));
#510=DIRECTION('',(0.,-1.,0.));
#511=DIRECTION('center_axis',(0.,-1.,0.));
#512=DIRECTION('ref_axis',(0.,0.,1.));
#513=DIRECTION('',(-0.999999999994925,0.,3.18597220061881E-6));
#514=DIRECTION('',(0.999999999918935,0.,1.27330254643551E-5));
#515=DIRECTION('center_axis',(1.27330254643551E-5,0.,-0.999999999918935));
#516=DIRECTION('ref_axis',(-0.999999999918935,0.,-1.27330254643551E-5));
#517=DIRECTION('',(-0.999999999918935,0.,-1.27330254643551E-5));
#518=DIRECTION('',(0.,1.,0.));
#519=DIRECTION('center_axis',(0.,1.,0.));
#520=DIRECTION('ref_axis',(-0.999999999988607,0.,-4.7735279827093E-6));
#521=DIRECTION('center_axis',(0.,1.,0.));
#522=DIRECTION('ref_axis',(1.27330254632138E-5,0.,-0.999999999918935));
#523=DIRECTION('',(0.,1.,0.));
#524=DIRECTION('center_axis',(3.18597220061881E-6,0.,0.999999999994925));
#525=DIRECTION('ref_axis',(0.999999999994925,0.,-3.18597220061881E-6));
#526=DIRECTION('',(-0.999999999994925,0.,3.18597220061881E-6));
#527=DIRECTION('center_axis',(0.,-1.,0.));
#528=DIRECTION('ref_axis',(0.,0.,-1.));
#529=CARTESIAN_POINT('',(0.,0.,0.));
#530=CARTESIAN_POINT('Origin',(-370.,6.,-1.72084568816899E-14));
#531=CARTESIAN_POINT('',(-366.,6.,-1.76349139077219E-14));
#532=CARTESIAN_POINT('Origin',(-370.,6.,-1.71450551880629E-14));
#533=CARTESIAN_POINT('Origin',(-370.,-27.,-1.71450551880629E-14));
#534=CARTESIAN_POINT('',(-370.,-29.,5.99999999999997));
#535=CARTESIAN_POINT('Origin',(-370.,-29.,-1.71450551880629E-14));
#536=CARTESIAN_POINT('',(-370.,-27.,3.99999999999997));
#537=CARTESIAN_POINT('Origin',(-370.,-27.,5.99999999999997));
#538=CARTESIAN_POINT('',(-366.,-27.,-1.6655196468404E-14));
#539=CARTESIAN_POINT('Origin',(-370.,-27.,-1.71450551880629E-14));
#540=CARTESIAN_POINT('Origin',(-370.,-27.,-1.71450551880629E-14));
#541=CARTESIAN_POINT('Origin',(-230.,-29.,-1.77635683940025E-14));
#542=CARTESIAN_POINT('',(-240.,-29.0000000004934,34.9995858237915));
#543=CARTESIAN_POINT('',(-240.,-29.0000000004934,-34.9983447095268));
#544=CARTESIAN_POINT('',(-240.,-29.,2.60770305349212E-7));
#545=CARTESIAN_POINT('',(-369.999554344109,-29.,-34.9999999971627));
#546=CARTESIAN_POINT('',(-89.5,-29.,-34.9964283891942));
#547=CARTESIAN_POINT('',(-369.999888491068,-29.,34.9999999998223));
#548=CARTESIAN_POINT('Origin',(-370.,-29.,-1.71450551880629E-14));
#549=CARTESIAN_POINT('',(-89.75,-29.,34.9991071314684));
#550=CARTESIAN_POINT('Origin',(-370.,-29.,-1.71450551880629E-14));
#551=CARTESIAN_POINT('',(-366.,-29.,-1.76349139077218E-14));
#552=CARTESIAN_POINT('Origin',(-235.,-29.,5.21540628461992E-7));
#553=CARTESIAN_POINT('',(-233.3,-34.0000004321337,5.21540628670182E-7));
#554=CARTESIAN_POINT('Origin',(-235.,-34.0000004321337,5.21540628461992E-7));
#555=CARTESIAN_POINT('',(-233.3,-39.,5.21540628253802E-7));
#556=CARTESIAN_POINT('',(-233.3,-29.,5.21540628670182E-7));
#557=CARTESIAN_POINT('Origin',(-235.,-39.,5.21540628461992E-7));
#558=CARTESIAN_POINT('Origin',(-235.,-29.,-29.9999994784594));
#559=CARTESIAN_POINT('',(-233.3,-34.0000004321337,-29.9999994784594));
#560=CARTESIAN_POINT('Origin',(-235.,-34.0000004321337,-29.9999994784594));
#561=CARTESIAN_POINT('',(-233.3,-39.,-29.9999994784594));
#562=CARTESIAN_POINT('',(-233.3,-29.,-29.9999994784594));
#563=CARTESIAN_POINT('Origin',(-235.,-39.,-29.9999994784594));
#564=CARTESIAN_POINT('Origin',(-235.,-29.,30.0000005215406));
#565=CARTESIAN_POINT('',(-233.3,-34.0000004321337,30.0000005215406));
#566=CARTESIAN_POINT('Origin',(-235.,-34.0000004321337,30.0000005215406));
#567=CARTESIAN_POINT('',(-233.3,-39.,30.0000005215406));
#568=CARTESIAN_POINT('',(-233.3,-29.,30.0000005215406));
#569=CARTESIAN_POINT('Origin',(-235.,-39.,30.0000005215406));
#570=CARTESIAN_POINT('Origin',(-225.,-29.,5.21540628461992E-7));
#571=CARTESIAN_POINT('',(-223.3,-34.0000004321337,5.21540628670182E-7));
#572=CARTESIAN_POINT('Origin',(-225.,-34.0000004321337,5.21540628461992E-7));
#573=CARTESIAN_POINT('',(-223.3,-39.,5.21540628253802E-7));
#574=CARTESIAN_POINT('',(-223.3,-29.,5.21540628670182E-7));
#575=CARTESIAN_POINT('Origin',(-225.,-39.,5.21540628461992E-7));
#576=CARTESIAN_POINT('Origin',(-225.,-29.,-29.9999994784594));
#577=CARTESIAN_POINT('',(-223.3,-34.0000004321337,-29.9999994784594));
#578=CARTESIAN_POINT('Origin',(-225.,-34.0000004321337,-29.9999994784594));
#579=CARTESIAN_POINT('',(-223.3,-39.,-29.9999994784594));
#580=CARTESIAN_POINT('',(-223.3,-29.,-29.9999994784594));
#581=CARTESIAN_POINT('Origin',(-225.,-39.,-29.9999994784594));
#582=CARTESIAN_POINT('Origin',(-225.,-29.,30.0000005215406));
#583=CARTESIAN_POINT('',(-223.3,-34.0000004321337,30.0000005215406));
#584=CARTESIAN_POINT('Origin',(-225.,-34.0000004321337,30.0000005215406));
#585=CARTESIAN_POINT('',(-223.3,-39.,30.0000005215406));
#586=CARTESIAN_POINT('',(-223.3,-29.,30.0000005215406));
#587=CARTESIAN_POINT('Origin',(-225.,-39.,30.0000005215406));
#588=CARTESIAN_POINT('Origin',(-230.,-39.,-34.9982173792721));
#589=CARTESIAN_POINT('',(-230.,-39.,-34.9982173792721));
#590=CARTESIAN_POINT('',(-230.,-34.0000004321337,-34.9982173792721));
#591=CARTESIAN_POINT('',(-230.,-32.25,-34.9982173792721));
#592=CARTESIAN_POINT('',(-220.,-34.0000004321337,-34.9982173792721));
#593=CARTESIAN_POINT('',(-230.,-34.0000004321337,-34.9982173792721));
#594=CARTESIAN_POINT('',(-220.,-39.,-34.9982173792721));
#595=CARTESIAN_POINT('',(-220.,-32.25,-34.9982173792721));
#596=CARTESIAN_POINT('',(-230.,-39.,-34.9982173792721));
#597=CARTESIAN_POINT('Origin',(-230.,-34.0000004321337,34.9995539640695));
#598=CARTESIAN_POINT('',(-230.,-34.0000004321337,34.9995539640695));
#599=CARTESIAN_POINT('',(-230.,-39.,34.9995539640695));
#600=CARTESIAN_POINT('',(-230.,-32.25,34.9995539640695));
#601=CARTESIAN_POINT('',(-220.,-39.,34.9995539640695));
#602=CARTESIAN_POINT('',(-230.,-39.,34.9995539640695));
#603=CARTESIAN_POINT('',(-220.,-34.0000004321337,34.9995539640695));
#604=CARTESIAN_POINT('',(-220.,-32.25,34.9995539640695));
#605=CARTESIAN_POINT('',(-230.,-34.0000004321337,34.9995539640695));
#606=CARTESIAN_POINT('Origin',(-220.,-25.5,-1.77635683940025E-14));
#607=CARTESIAN_POINT('',(-220.,-34.0000004321337,-17.4999997392297));
#608=CARTESIAN_POINT('',(-220.,-39.,-1.77635683940025E-14));
#609=CARTESIAN_POINT('Origin',(-240.,-31.5000004321337,5.21540628461992E-7));
#610=CARTESIAN_POINT('',(-240.,-34.0000004321337,34.9995858237915));
#611=CARTESIAN_POINT('',(-240.,-35.2500002160668,34.9995858237915));
#612=CARTESIAN_POINT('',(-240.,-34.0000004321337,-34.9983447095268));
#613=CARTESIAN_POINT('',(-240.,-34.0000004321337,-34.9999994784594));
#614=CARTESIAN_POINT('',(-240.,-35.2500002160668,-34.9983447095268));
#615=CARTESIAN_POINT('Origin',(-230.,-34.0000004321337,-34.9999994784594));
#616=CARTESIAN_POINT('',(-299.999832737171,-34.0000004321337,34.9997769815907));
#617=CARTESIAN_POINT('',(-159.750000011346,-34.0000004321337,-34.9973228842333));
#618=CARTESIAN_POINT('Origin',(-89.5,-39.,-34.9964283891942));
#619=CARTESIAN_POINT('',(-369.999554344109,-39.,-34.9999999971627));
#620=CARTESIAN_POINT('',(-89.5,-39.,-34.9964283891942));
#621=CARTESIAN_POINT('',(-369.999554344109,-39.,-34.9999999971627));
#622=CARTESIAN_POINT('Origin',(-370.,-39.,-1.71450551880629E-14));
#623=CARTESIAN_POINT('',(-369.999888491068,-39.,34.9999999998223));
#624=CARTESIAN_POINT('Origin',(-370.,-39.,-1.71450551880629E-14));
#625=CARTESIAN_POINT('',(-369.999888491068,-39.,34.9999999998223));
#626=CARTESIAN_POINT('Origin',(-369.999888490973,-39.,34.9999999998223));
#627=CARTESIAN_POINT('',(-89.75,-39.,34.9991071314684));
#628=CARTESIAN_POINT('Origin',(-230.,-39.,-1.77635683940025E-14));
#629=UNCERTAINTY_MEASURE_WITH_UNIT(LENGTH_MEASURE(0.01),#633,
'DISTANCE_ACCURACY_VALUE',
'Maximum model space distance between geometric entities at asserted c
onnectivities');
#630=UNCERTAINTY_MEASURE_WITH_UNIT(LENGTH_MEASURE(0.01),#633,
'DISTANCE_ACCURACY_VALUE',
'Maximum model space distance between geometric entities at asserted c
onnectivities');
#631=(
GEOMETRIC_REPRESENTATION_CONTEXT(3)
GLOBAL_UNCERTAINTY_ASSIGNED_CONTEXT((#629))
GLOBAL_UNIT_ASSIGNED_CONTEXT((#633,#635,#636))
REPRESENTATION_CONTEXT('','3D')
);
#632=(
GEOMETRIC_REPRESENTATION_CONTEXT(3)
GLOBAL_UNCERTAINTY_ASSIGNED_CONTEXT((#630))
GLOBAL_UNIT_ASSIGNED_CONTEXT((#633,#635,#636))
REPRESENTATION_CONTEXT('','3D')
);
#633=(
LENGTH_UNIT()
NAMED_UNIT(*)
SI_UNIT(.MILLI.,.METRE.)
);
#634=(
LENGTH_UNIT()
NAMED_UNIT(*)
SI_UNIT($,.METRE.)
);
#635=(
NAMED_UNIT(*)
PLANE_ANGLE_UNIT()
SI_UNIT($,.RADIAN.)
);
#636=(
NAMED_UNIT(*)
SI_UNIT($,.STERADIAN.)
SOLID_ANGLE_UNIT()
);
#637=SHAPE_DEFINITION_REPRESENTATION(#638,#639);
#638=PRODUCT_DEFINITION_SHAPE('',$,#641);
#639=SHAPE_REPRESENTATION('',(#383),#631);
#640=PRODUCT_DEFINITION_CONTEXT('part definition',#645,'design');
#641=PRODUCT_DEFINITION('2026-08-27-15-00-17-341','Flipper+arm+pt+1',#642,
#640);
#642=PRODUCT_DEFINITION_FORMATION('',$,#647);
#643=PRODUCT_RELATED_PRODUCT_CATEGORY('Flipper+arm+pt+1',
'Flipper+arm+pt+1',(#647));
#644=APPLICATION_PROTOCOL_DEFINITION('international standard',
'automotive_design',2009,#645);
#645=APPLICATION_CONTEXT(
'Core Data for Automotive Mechanical Design Process');
#646=PRODUCT_CONTEXT('part definition',#645,'mechanical');
#647=PRODUCT('2026-08-27-15-00-17-341','Flipper+arm+pt+1',$,(#646));
#648=PRESENTATION_STYLE_ASSIGNMENT((#650));
#649=PRESENTATION_STYLE_ASSIGNMENT((#651));
#650=SURFACE_STYLE_USAGE(.BOTH.,#652);
#651=SURFACE_STYLE_USAGE(.BOTH.,#653);
#652=SURFACE_SIDE_STYLE('',(#654));
#653=SURFACE_SIDE_STYLE('',(#655));
#654=SURFACE_STYLE_FILL_AREA(#656);
#655=SURFACE_STYLE_FILL_AREA(#657);
#656=FILL_AREA_STYLE('Plate',(#658));
#657=FILL_AREA_STYLE('Opaque(153,153,153)',(#659));
#658=FILL_AREA_STYLE_COLOUR('Plate',#660);
#659=FILL_AREA_STYLE_COLOUR('Opaque(153,153,153)',#661);
#660=COLOUR_RGB('Plate',0.6,0.6,0.6);
#661=COLOUR_RGB('Opaque(153,153,153)',0.6,0.6,0.6);
ENDSEC;
END-ISO-10303-21;
