ISO-10303-21;
HEADER;
/* Generated by software containing ST-Developer
 * from STEP Tools, Inc. (www.steptools.com) 
 */

FILE_DESCRIPTION(
/* description */ (''),
/* implementation_level */ '2;1');

FILE_NAME(
/* name */ 'Flipper arm V2.step',
/* time_stamp */ '2026-08-27T11:18:59-05:00',
/* author */ (''),
/* organization */ (''),
/* preprocessor_version */ 'ST-DEVELOPER v20.1',
/* originating_system */ 'Autodesk Translation Framework v15.8.0.0',
/* authorisation */ '');

FILE_SCHEMA (('AUTOMOTIVE_DESIGN { 1 0 10303 214 3 1 1 }'));
ENDSEC;

DATA;
#10=MECHANICAL_DESIGN_GEOMETRIC_PRESENTATION_REPRESENTATION('',(#33,#34),
#1823);
#11=ITEM_DEFINED_TRANSFORMATION($,$,#1038,#1138);
#12=ITEM_DEFINED_TRANSFORMATION($,$,#1077,#1139);
#13=ITEM_DEFINED_TRANSFORMATION($,$,#1037,#1140);
#14=(
REPRESENTATION_RELATIONSHIP($,$,#1841,#1840)
REPRESENTATION_RELATIONSHIP_WITH_TRANSFORMATION(#11)
SHAPE_REPRESENTATION_RELATIONSHIP()
);
#15=(
REPRESENTATION_RELATIONSHIP($,$,#1842,#1840)
REPRESENTATION_RELATIONSHIP_WITH_TRANSFORMATION(#12)
SHAPE_REPRESENTATION_RELATIONSHIP()
);
#16=(
REPRESENTATION_RELATIONSHIP($,$,#1840,#1839)
REPRESENTATION_RELATIONSHIP_WITH_TRANSFORMATION(#13)
SHAPE_REPRESENTATION_RELATIONSHIP()
);
#17=CONTEXT_DEPENDENT_SHAPE_REPRESENTATION(#14,#1836);
#18=CONTEXT_DEPENDENT_SHAPE_REPRESENTATION(#15,#1837);
#19=CONTEXT_DEPENDENT_SHAPE_REPRESENTATION(#16,#1838);
#20=NEXT_ASSEMBLY_USAGE_OCCURRENCE('Flipper arm pt 1:1',
'Flipper arm pt 1:1','Flipper arm pt 1:1',#1845,#1846,
'Flipper arm pt 1:1');
#21=NEXT_ASSEMBLY_USAGE_OCCURRENCE('Flipper arm pt 2:1',
'Flipper arm pt 2:1','Flipper arm pt 2:1',#1845,#1847,
'Flipper arm pt 2:1');
#22=NEXT_ASSEMBLY_USAGE_OCCURRENCE('Component2:1','Component2:1',
'Component2:1',#1844,#1845,'Component2:1');
#23=B_SPLINE_CURVE_WITH_KNOTS('',3,(#1539,#1540,#1541,#1542,#1543,#1544,
#1545,#1546,#1547,#1548),.UNSPECIFIED.,.F.,.F.,(4,2,2,2,4),(0.888815634752921,
0.999862724932049,1.11095467237992,1.22208889274965,1.33324307084561),
 .UNSPECIFIED.);
#24=B_SPLINE_CURVE_WITH_KNOTS('',3,(#1552,#1553,#1554,#1555,#1556,#1557,
#1558,#1559,#1560,#1561),.UNSPECIFIED.,.F.,.F.,(4,2,2,2,4),(0.444388198660236,
0.555542376756188,0.666676597125919,0.777768544573793,0.88881563475292),
 .UNSPECIFIED.);
#25=B_SPLINE_CURVE_WITH_KNOTS('',3,(#1694,#1695,#1696,#1697,#1698,#1699,
#1700,#1701,#1702,#1703,#1704,#1705,#1706,#1707,#1708,#1709,#1710,#1711,
#1712,#1713),.UNSPECIFIED.,.F.,.F.,(4,2,2,2,2,2,2,2,2,4),(0.,0.0631668334945581,
0.126333666989116,0.252667333978233,0.440236417057453,0.627805500136674,
0.770286048047495,0.912766595958316,1.02354184693597,1.13431709791363),
 .UNSPECIFIED.);
#26=B_SPLINE_CURVE_WITH_KNOTS('',3,(#1714,#1715,#1716,#1717,#1718,#1719,
#1720,#1721,#1722,#1723,#1724,#1725,#1726,#1727,#1728,#1729,#1730,#1731,
#1732,#1733),.UNSPECIFIED.,.F.,.F.,(4,2,2,2,2,2,2,2,2,4),(1.13431709791363,
1.24509234889129,1.35586759986895,1.49834814777977,1.64082869569059,1.82839777876981,
2.01596686184903,2.14230052883815,2.20546736233271,2.26863419582727),
 .UNSPECIFIED.);
#27=B_SPLINE_CURVE_WITH_KNOTS('',3,(#1743,#1744,#1745,#1746,#1747,#1748,
#1749,#1750,#1751,#1752,#1753,#1754,#1755,#1756,#1757,#1758,#1759,#1760,
#1761,#1762,#1763,#1764),.UNSPECIFIED.,.F.,.F.,(4,2,2,2,2,2,2,2,2,2,4),
(0.,0.0495231721647626,0.0990463443295252,0.240957357072298,0.38286836981507,
0.529608269744622,0.676348169674174,0.798551739242206,0.920755308810237,
1.02017607969625,1.11959685058225),.UNSPECIFIED.);
#28=B_SPLINE_CURVE_WITH_KNOTS('',3,(#1765,#1766,#1767,#1768,#1769,#1770,
#1771,#1772,#1773,#1774,#1775,#1776,#1777,#1778,#1779,#1780,#1781,#1782,
#1783,#1784,#1785,#1786),.UNSPECIFIED.,.F.,.F.,(4,2,2,2,2,2,2,2,2,2,4),
(1.11959685058225,1.21901762146826,1.31843839235427,1.4406419619223,1.56284553149033,
1.70958543141988,1.85632533134944,1.99823634409221,2.14014735683498,2.18967052899974,
2.23919370116451),.UNSPECIFIED.);
#29=SHAPE_REPRESENTATION_RELATIONSHIP('SRR','None',#1841,#31);
#30=SHAPE_REPRESENTATION_RELATIONSHIP('SRR','None',#1842,#32);
#31=ADVANCED_BREP_SHAPE_REPRESENTATION('',(#35),#1821);
#32=ADVANCED_BREP_SHAPE_REPRESENTATION('',(#36),#1822);
#33=STYLED_ITEM('',(#1863),#35);
#34=STYLED_ITEM('',(#1863),#36);
#35=MANIFOLD_SOLID_BREP('Body1',#1011);
#36=MANIFOLD_SOLID_BREP('Body1',#1012);
#37=CYLINDRICAL_SURFACE('',#1046,3.99999999999999);
#38=CYLINDRICAL_SURFACE('',#1049,1.70000000000002);
#39=CYLINDRICAL_SURFACE('',#1052,1.70000000000002);
#40=CYLINDRICAL_SURFACE('',#1055,1.70000000000002);
#41=CYLINDRICAL_SURFACE('',#1058,1.70000000000002);
#42=CYLINDRICAL_SURFACE('',#1061,1.70000000000002);
#43=CYLINDRICAL_SURFACE('',#1064,1.70000000000002);
#44=CYLINDRICAL_SURFACE('',#1073,35.);
#45=CYLINDRICAL_SURFACE('',#1085,1.70000000000002);
#46=CYLINDRICAL_SURFACE('',#1088,1.70000000000002);
#47=CYLINDRICAL_SURFACE('',#1091,1.70000000000002);
#48=CYLINDRICAL_SURFACE('',#1094,1.70000000000002);
#49=CYLINDRICAL_SURFACE('',#1097,1.70000000000002);
#50=CYLINDRICAL_SURFACE('',#1100,1.70000000000002);
#51=CYLINDRICAL_SURFACE('',#1113,35.);
#52=CYLINDRICAL_SURFACE('',#1116,4.175);
#53=CYLINDRICAL_SURFACE('',#1120,3.);
#54=CYLINDRICAL_SURFACE('',#1124,3.);
#55=CYLINDRICAL_SURFACE('',#1128,1.7);
#56=CYLINDRICAL_SURFACE('',#1129,1.7);
#57=CYLINDRICAL_SURFACE('',#1132,4.175);
#58=CYLINDRICAL_SURFACE('',#1135,12.5);
#59=FACE_BOUND('',#337,.T.);
#60=FACE_BOUND('',#351,.T.);
#61=FACE_BOUND('',#352,.T.);
#62=FACE_BOUND('',#353,.T.);
#63=FACE_BOUND('',#354,.T.);
#64=FACE_BOUND('',#355,.T.);
#65=FACE_BOUND('',#356,.T.);
#66=FACE_BOUND('',#361,.T.);
#67=FACE_BOUND('',#362,.T.);
#68=FACE_BOUND('',#363,.T.);
#69=FACE_BOUND('',#364,.T.);
#70=FACE_BOUND('',#365,.T.);
#71=FACE_BOUND('',#366,.T.);
#72=FACE_BOUND('',#369,.T.);
#73=FACE_BOUND('',#382,.T.);
#74=FACE_BOUND('',#383,.T.);
#75=FACE_BOUND('',#384,.T.);
#76=FACE_BOUND('',#385,.T.);
#77=FACE_BOUND('',#386,.T.);
#78=FACE_BOUND('',#387,.T.);
#79=FACE_BOUND('',#390,.T.);
#80=FACE_BOUND('',#391,.T.);
#81=FACE_BOUND('',#392,.T.);
#82=FACE_BOUND('',#393,.T.);
#83=FACE_BOUND('',#394,.T.);
#84=FACE_BOUND('',#395,.T.);
#85=FACE_BOUND('',#399,.T.);
#86=FACE_BOUND('',#405,.T.);
#87=FACE_BOUND('',#408,.T.);
#88=FACE_BOUND('',#414,.T.);
#89=FACE_BOUND('',#416,.T.);
#90=FACE_BOUND('',#417,.T.);
#91=LINE('',#1447,#173);
#92=LINE('',#1449,#174);
#93=LINE('',#1452,#175);
#94=LINE('',#1456,#176);
#95=LINE('',#1462,#177);
#96=LINE('',#1468,#178);
#97=LINE('',#1474,#179);
#98=LINE('',#1480,#180);
#99=LINE('',#1486,#181);
#100=LINE('',#1492,#182);
#101=LINE('',#1497,#183);
#102=LINE('',#1499,#184);
#103=LINE('',#1501,#185);
#104=LINE('',#1502,#186);
#105=LINE('',#1506,#187);
#106=LINE('',#1508,#188);
#107=LINE('',#1510,#189);
#108=LINE('',#1511,#190);
#109=LINE('',#1513,#191);
#110=LINE('',#1514,#192);
#111=LINE('',#1517,#193);
#112=LINE('',#1519,#194);
#113=LINE('',#1520,#195);
#114=LINE('',#1522,#196);
#115=LINE('',#1523,#197);
#116=LINE('',#1526,#198);
#117=LINE('',#1527,#199);
#118=LINE('',#1531,#200);
#119=LINE('',#1533,#201);
#120=LINE('',#1566,#202);
#121=LINE('',#1568,#203);
#122=LINE('',#1571,#204);
#123=LINE('',#1573,#205);
#124=LINE('',#1575,#206);
#125=LINE('',#1579,#207);
#126=LINE('',#1581,#208);
#127=LINE('',#1583,#209);
#128=LINE('',#1589,#210);
#129=LINE('',#1595,#211);
#130=LINE('',#1601,#212);
#131=LINE('',#1607,#213);
#132=LINE('',#1613,#214);
#133=LINE('',#1619,#215);
#134=LINE('',#1623,#216);
#135=LINE('',#1625,#217);
#136=LINE('',#1626,#218);
#137=LINE('',#1629,#219);
#138=LINE('',#1631,#220);
#139=LINE('',#1633,#221);
#140=LINE('',#1634,#222);
#141=LINE('',#1637,#223);
#142=LINE('',#1639,#224);
#143=LINE('',#1640,#225);
#144=LINE('',#1643,#226);
#145=LINE('',#1645,#227);
#146=LINE('',#1646,#228);
#147=LINE('',#1650,#229);
#148=LINE('',#1652,#230);
#149=LINE('',#1654,#231);
#150=LINE('',#1655,#232);
#151=LINE('',#1657,#233);
#152=LINE('',#1658,#234);
#153=LINE('',#1660,#235);
#154=LINE('',#1663,#236);
#155=LINE('',#1666,#237);
#156=LINE('',#1670,#238);
#157=LINE('',#1672,#239);
#158=LINE('',#1673,#240);
#159=LINE('',#1678,#241);
#160=LINE('',#1682,#242);
#161=LINE('',#1683,#243);
#162=LINE('',#1686,#244);
#163=LINE('',#1687,#245);
#164=LINE('',#1692,#246);
#165=LINE('',#1741,#247);
#166=LINE('',#1791,#248);
#167=LINE('',#1794,#249);
#168=LINE('',#1798,#250);
#169=LINE('',#1799,#251);
#170=LINE('',#1802,#252);
#171=LINE('',#1806,#253);
#172=LINE('',#1807,#254);
#173=VECTOR('',#1159,10.);
#174=VECTOR('',#1160,10.);
#175=VECTOR('',#1163,10.);
#176=VECTOR('',#1168,3.99999999999999);
#177=VECTOR('',#1175,1.70000000000002);
#178=VECTOR('',#1182,1.70000000000002);
#179=VECTOR('',#1189,1.70000000000002);
#180=VECTOR('',#1196,1.70000000000002);
#181=VECTOR('',#1203,1.70000000000002);
#182=VECTOR('',#1210,1.70000000000002);
#183=VECTOR('',#1215,10.);
#184=VECTOR('',#1216,10.);
#185=VECTOR('',#1217,10.);
#186=VECTOR('',#1218,10.);
#187=VECTOR('',#1221,10.);
#188=VECTOR('',#1222,10.);
#189=VECTOR('',#1223,10.);
#190=VECTOR('',#1224,10.);
#191=VECTOR('',#1227,10.);
#192=VECTOR('',#1228,10.);
#193=VECTOR('',#1231,10.);
#194=VECTOR('',#1232,10.);
#195=VECTOR('',#1233,10.);
#196=VECTOR('',#1236,10.);
#197=VECTOR('',#1237,10.);
#198=VECTOR('',#1240,10.);
#199=VECTOR('',#1241,10.);
#200=VECTOR('',#1246,10.);
#201=VECTOR('',#1249,10.);
#202=VECTOR('',#1262,10.);
#203=VECTOR('',#1263,10.);
#204=VECTOR('',#1266,10.);
#205=VECTOR('',#1267,10.);
#206=VECTOR('',#1268,10.);
#207=VECTOR('',#1271,10.);
#208=VECTOR('',#1272,10.);
#209=VECTOR('',#1273,10.);
#210=VECTOR('',#1280,1.70000000000002);
#211=VECTOR('',#1287,1.70000000000002);
#212=VECTOR('',#1294,1.70000000000002);
#213=VECTOR('',#1301,1.70000000000002);
#214=VECTOR('',#1308,1.70000000000002);
#215=VECTOR('',#1315,1.70000000000002);
#216=VECTOR('',#1320,10.);
#217=VECTOR('',#1321,10.);
#218=VECTOR('',#1322,10.);
#219=VECTOR('',#1325,10.);
#220=VECTOR('',#1326,10.);
#221=VECTOR('',#1327,10.);
#222=VECTOR('',#1328,10.);
#223=VECTOR('',#1331,10.);
#224=VECTOR('',#1332,10.);
#225=VECTOR('',#1333,10.);
#226=VECTOR('',#1336,10.);
#227=VECTOR('',#1337,10.);
#228=VECTOR('',#1338,10.);
#229=VECTOR('',#1341,10.);
#230=VECTOR('',#1342,10.);
#231=VECTOR('',#1343,10.);
#232=VECTOR('',#1344,10.);
#233=VECTOR('',#1347,10.);
#234=VECTOR('',#1348,10.);
#235=VECTOR('',#1351,10.);
#236=VECTOR('',#1354,10.);
#237=VECTOR('',#1359,10.);
#238=VECTOR('',#1364,10.);
#239=VECTOR('',#1365,10.);
#240=VECTOR('',#1366,10.);
#241=VECTOR('',#1371,10.);
#242=VECTOR('',#1376,10.);
#243=VECTOR('',#1377,10.);
#244=VECTOR('',#1380,10.);
#245=VECTOR('',#1381,10.);
#246=VECTOR('',#1386,3.);
#247=VECTOR('',#1395,3.);
#248=VECTOR('',#1402,1.7);
#249=VECTOR('',#1405,1.7);
#250=VECTOR('',#1410,10.);
#251=VECTOR('',#1411,10.);
#252=VECTOR('',#1414,10.);
#253=VECTOR('',#1419,10.);
#254=VECTOR('',#1420,10.);
#255=PLANE('',#1044);
#256=PLANE('',#1048);
#257=PLANE('',#1067);
#258=PLANE('',#1068);
#259=PLANE('',#1069);
#260=PLANE('',#1070);
#261=PLANE('',#1071);
#262=PLANE('',#1072);
#263=PLANE('',#1075);
#264=PLANE('',#1076);
#265=PLANE('',#1081);
#266=PLANE('',#1103);
#267=PLANE('',#1104);
#268=PLANE('',#1105);
#269=PLANE('',#1106);
#270=PLANE('',#1107);
#271=PLANE('',#1108);
#272=PLANE('',#1109);
#273=PLANE('',#1110);
#274=PLANE('',#1112);
#275=PLANE('',#1114);
#276=PLANE('',#1118);
#277=PLANE('',#1119);
#278=PLANE('',#1122);
#279=PLANE('',#1126);
#280=PLANE('',#1131);
#281=PLANE('',#1134);
#282=PLANE('',#1137);
#283=FACE_OUTER_BOUND('',#335,.T.);
#284=FACE_OUTER_BOUND('',#336,.T.);
#285=FACE_OUTER_BOUND('',#338,.T.);
#286=FACE_OUTER_BOUND('',#339,.T.);
#287=FACE_OUTER_BOUND('',#340,.T.);
#288=FACE_OUTER_BOUND('',#341,.T.);
#289=FACE_OUTER_BOUND('',#342,.T.);
#290=FACE_OUTER_BOUND('',#343,.T.);
#291=FACE_OUTER_BOUND('',#344,.T.);
#292=FACE_OUTER_BOUND('',#345,.T.);
#293=FACE_OUTER_BOUND('',#346,.T.);
#294=FACE_OUTER_BOUND('',#347,.T.);
#295=FACE_OUTER_BOUND('',#348,.T.);
#296=FACE_OUTER_BOUND('',#349,.T.);
#297=FACE_OUTER_BOUND('',#350,.T.);
#298=FACE_OUTER_BOUND('',#357,.T.);
#299=FACE_OUTER_BOUND('',#358,.T.);
#300=FACE_OUTER_BOUND('',#359,.T.);
#301=FACE_OUTER_BOUND('',#360,.T.);
#302=FACE_OUTER_BOUND('',#367,.T.);
#303=FACE_OUTER_BOUND('',#368,.T.);
#304=FACE_OUTER_BOUND('',#370,.T.);
#305=FACE_OUTER_BOUND('',#371,.T.);
#306=FACE_OUTER_BOUND('',#372,.T.);
#307=FACE_OUTER_BOUND('',#373,.T.);
#308=FACE_OUTER_BOUND('',#374,.T.);
#309=FACE_OUTER_BOUND('',#375,.T.);
#310=FACE_OUTER_BOUND('',#376,.T.);
#311=FACE_OUTER_BOUND('',#377,.T.);
#312=FACE_OUTER_BOUND('',#378,.T.);
#313=FACE_OUTER_BOUND('',#379,.T.);
#314=FACE_OUTER_BOUND('',#380,.T.);
#315=FACE_OUTER_BOUND('',#381,.T.);
#316=FACE_OUTER_BOUND('',#388,.T.);
#317=FACE_OUTER_BOUND('',#389,.T.);
#318=FACE_OUTER_BOUND('',#396,.T.);
#319=FACE_OUTER_BOUND('',#397,.T.);
#320=FACE_OUTER_BOUND('',#398,.T.);
#321=FACE_OUTER_BOUND('',#400,.T.);
#322=FACE_OUTER_BOUND('',#401,.T.);
#323=FACE_OUTER_BOUND('',#402,.T.);
#324=FACE_OUTER_BOUND('',#403,.T.);
#325=FACE_OUTER_BOUND('',#404,.T.);
#326=FACE_OUTER_BOUND('',#406,.T.);
#327=FACE_OUTER_BOUND('',#407,.T.);
#328=FACE_OUTER_BOUND('',#409,.T.);
#329=FACE_OUTER_BOUND('',#410,.T.);
#330=FACE_OUTER_BOUND('',#411,.T.);
#331=FACE_OUTER_BOUND('',#412,.T.);
#332=FACE_OUTER_BOUND('',#413,.T.);
#333=FACE_OUTER_BOUND('',#415,.T.);
#334=FACE_OUTER_BOUND('',#418,.T.);
#335=EDGE_LOOP('',(#689,#690,#691,#692,#693));
#336=EDGE_LOOP('',(#694,#695,#696,#697));
#337=EDGE_LOOP('',(#698));
#338=EDGE_LOOP('',(#699,#700,#701,#702,#703));
#339=EDGE_LOOP('',(#704));
#340=EDGE_LOOP('',(#705,#706,#707,#708));
#341=EDGE_LOOP('',(#709,#710,#711,#712));
#342=EDGE_LOOP('',(#713,#714,#715,#716));
#343=EDGE_LOOP('',(#717,#718,#719,#720));
#344=EDGE_LOOP('',(#721,#722,#723,#724));
#345=EDGE_LOOP('',(#725,#726,#727,#728));
#346=EDGE_LOOP('',(#729,#730,#731,#732));
#347=EDGE_LOOP('',(#733,#734,#735,#736));
#348=EDGE_LOOP('',(#737,#738,#739,#740));
#349=EDGE_LOOP('',(#741,#742,#743,#744));
#350=EDGE_LOOP('',(#745,#746,#747,#748,#749,#750));
#351=EDGE_LOOP('',(#751));
#352=EDGE_LOOP('',(#752));
#353=EDGE_LOOP('',(#753));
#354=EDGE_LOOP('',(#754));
#355=EDGE_LOOP('',(#755));
#356=EDGE_LOOP('',(#756));
#357=EDGE_LOOP('',(#757,#758,#759,#760,#761,#762));
#358=EDGE_LOOP('',(#763,#764,#765,#766));
#359=EDGE_LOOP('',(#767,#768,#769,#770,#771,#772));
#360=EDGE_LOOP('',(#773,#774,#775,#776,#777,#778));
#361=EDGE_LOOP('',(#779));
#362=EDGE_LOOP('',(#780));
#363=EDGE_LOOP('',(#781));
#364=EDGE_LOOP('',(#782));
#365=EDGE_LOOP('',(#783));
#366=EDGE_LOOP('',(#784));
#367=EDGE_LOOP('',(#785,#786,#787,#788));
#368=EDGE_LOOP('',(#789,#790,#791,#792));
#369=EDGE_LOOP('',(#793,#794,#795,#796,#797,#798,#799,#800));
#370=EDGE_LOOP('',(#801,#802,#803,#804));
#371=EDGE_LOOP('',(#805,#806,#807,#808));
#372=EDGE_LOOP('',(#809,#810,#811,#812));
#373=EDGE_LOOP('',(#813,#814,#815,#816));
#374=EDGE_LOOP('',(#817,#818,#819,#820));
#375=EDGE_LOOP('',(#821,#822,#823,#824));
#376=EDGE_LOOP('',(#825,#826,#827,#828));
#377=EDGE_LOOP('',(#829,#830,#831,#832,#833,#834));
#378=EDGE_LOOP('',(#835,#836,#837,#838));
#379=EDGE_LOOP('',(#839,#840,#841,#842));
#380=EDGE_LOOP('',(#843,#844,#845,#846));
#381=EDGE_LOOP('',(#847,#848,#849,#850,#851,#852,#853));
#382=EDGE_LOOP('',(#854));
#383=EDGE_LOOP('',(#855));
#384=EDGE_LOOP('',(#856));
#385=EDGE_LOOP('',(#857));
#386=EDGE_LOOP('',(#858));
#387=EDGE_LOOP('',(#859));
#388=EDGE_LOOP('',(#860,#861,#862,#863));
#389=EDGE_LOOP('',(#864,#865,#866,#867,#868,#869,#870));
#390=EDGE_LOOP('',(#871));
#391=EDGE_LOOP('',(#872));
#392=EDGE_LOOP('',(#873));
#393=EDGE_LOOP('',(#874));
#394=EDGE_LOOP('',(#875));
#395=EDGE_LOOP('',(#876));
#396=EDGE_LOOP('',(#877,#878,#879,#880,#881,#882));
#397=EDGE_LOOP('',(#883,#884,#885,#886));
#398=EDGE_LOOP('',(#887,#888,#889,#890,#891));
#399=EDGE_LOOP('',(#892));
#400=EDGE_LOOP('',(#893,#894,#895,#896));
#401=EDGE_LOOP('',(#897,#898,#899,#900));
#402=EDGE_LOOP('',(#901,#902,#903,#904));
#403=EDGE_LOOP('',(#905,#906,#907,#908,#909));
#404=EDGE_LOOP('',(#910));
#405=EDGE_LOOP('',(#911));
#406=EDGE_LOOP('',(#912,#913,#914,#915,#916));
#407=EDGE_LOOP('',(#917));
#408=EDGE_LOOP('',(#918));
#409=EDGE_LOOP('',(#919,#920,#921,#922));
#410=EDGE_LOOP('',(#923,#924,#925,#926));
#411=EDGE_LOOP('',(#927,#928,#929,#930));
#412=EDGE_LOOP('',(#931,#932,#933,#934));
#413=EDGE_LOOP('',(#935,#936,#937,#938,#939));
#414=EDGE_LOOP('',(#940));
#415=EDGE_LOOP('',(#941,#942,#943,#944));
#416=EDGE_LOOP('',(#945,#946));
#417=EDGE_LOOP('',(#947,#948));
#418=EDGE_LOOP('',(#949,#950,#951,#952,#953,#954,#955,#956));
#419=CIRCLE('',#1040,3.99999999999999);
#420=CIRCLE('',#1041,2.);
#421=CIRCLE('',#1042,5.99999999999999);
#422=CIRCLE('',#1043,3.99999999999999);
#423=CIRCLE('',#1045,35.);
#424=CIRCLE('',#1047,3.99999999999999);
#425=CIRCLE('',#1050,1.70000000000002);
#426=CIRCLE('',#1051,1.70000000000002);
#427=CIRCLE('',#1053,1.70000000000002);
#428=CIRCLE('',#1054,1.70000000000002);
#429=CIRCLE('',#1056,1.70000000000002);
#430=CIRCLE('',#1057,1.70000000000002);
#431=CIRCLE('',#1059,1.70000000000002);
#432=CIRCLE('',#1060,1.70000000000002);
#433=CIRCLE('',#1062,1.70000000000002);
#434=CIRCLE('',#1063,1.70000000000002);
#435=CIRCLE('',#1065,1.70000000000002);
#436=CIRCLE('',#1066,1.70000000000002);
#437=CIRCLE('',#1074,35.);
#438=CIRCLE('',#1079,15.5);
#439=CIRCLE('',#1080,12.5);
#440=CIRCLE('',#1082,35.);
#441=CIRCLE('',#1083,4.175);
#442=CIRCLE('',#1084,4.175);
#443=CIRCLE('',#1086,1.70000000000002);
#444=CIRCLE('',#1087,1.70000000000002);
#445=CIRCLE('',#1089,1.70000000000002);
#446=CIRCLE('',#1090,1.70000000000002);
#447=CIRCLE('',#1092,1.70000000000002);
#448=CIRCLE('',#1093,1.70000000000002);
#449=CIRCLE('',#1095,1.70000000000002);
#450=CIRCLE('',#1096,1.70000000000002);
#451=CIRCLE('',#1098,1.70000000000002);
#452=CIRCLE('',#1099,1.70000000000002);
#453=CIRCLE('',#1101,1.70000000000002);
#454=CIRCLE('',#1102,1.70000000000002);
#455=CIRCLE('',#1111,35.);
#456=CIRCLE('',#1115,1.7);
#457=CIRCLE('',#1117,4.175);
#458=CIRCLE('',#1121,3.);
#459=CIRCLE('',#1123,1.7);
#460=CIRCLE('',#1125,3.);
#461=CIRCLE('',#1127,1.7);
#462=CIRCLE('',#1130,1.7);
#463=CIRCLE('',#1133,4.175);
#464=CIRCLE('',#1136,12.5);
#465=VERTEX_POINT('',#1437);
#466=VERTEX_POINT('',#1438);
#467=VERTEX_POINT('',#1440);
#468=VERTEX_POINT('',#1445);
#469=VERTEX_POINT('',#1446);
#470=VERTEX_POINT('',#1448);
#471=VERTEX_POINT('',#1450);
#472=VERTEX_POINT('',#1454);
#473=VERTEX_POINT('',#1459);
#474=VERTEX_POINT('',#1461);
#475=VERTEX_POINT('',#1465);
#476=VERTEX_POINT('',#1467);
#477=VERTEX_POINT('',#1471);
#478=VERTEX_POINT('',#1473);
#479=VERTEX_POINT('',#1477);
#480=VERTEX_POINT('',#1479);
#481=VERTEX_POINT('',#1483);
#482=VERTEX_POINT('',#1485);
#483=VERTEX_POINT('',#1489);
#484=VERTEX_POINT('',#1491);
#485=VERTEX_POINT('',#1495);
#486=VERTEX_POINT('',#1496);
#487=VERTEX_POINT('',#1498);
#488=VERTEX_POINT('',#1500);
#489=VERTEX_POINT('',#1504);
#490=VERTEX_POINT('',#1505);
#491=VERTEX_POINT('',#1507);
#492=VERTEX_POINT('',#1509);
#493=VERTEX_POINT('',#1516);
#494=VERTEX_POINT('',#1518);
#495=VERTEX_POINT('',#1525);
#496=VERTEX_POINT('',#1529);
#497=VERTEX_POINT('',#1537);
#498=VERTEX_POINT('',#1538);
#499=VERTEX_POINT('',#1549);
#500=VERTEX_POINT('',#1551);
#501=VERTEX_POINT('',#1564);
#502=VERTEX_POINT('',#1565);
#503=VERTEX_POINT('',#1567);
#504=VERTEX_POINT('',#1569);
#505=VERTEX_POINT('',#1572);
#506=VERTEX_POINT('',#1574);
#507=VERTEX_POINT('',#1576);
#508=VERTEX_POINT('',#1578);
#509=VERTEX_POINT('',#1580);
#510=VERTEX_POINT('',#1582);
#511=VERTEX_POINT('',#1586);
#512=VERTEX_POINT('',#1588);
#513=VERTEX_POINT('',#1592);
#514=VERTEX_POINT('',#1594);
#515=VERTEX_POINT('',#1598);
#516=VERTEX_POINT('',#1600);
#517=VERTEX_POINT('',#1604);
#518=VERTEX_POINT('',#1606);
#519=VERTEX_POINT('',#1610);
#520=VERTEX_POINT('',#1612);
#521=VERTEX_POINT('',#1616);
#522=VERTEX_POINT('',#1618);
#523=VERTEX_POINT('',#1622);
#524=VERTEX_POINT('',#1624);
#525=VERTEX_POINT('',#1628);
#526=VERTEX_POINT('',#1630);
#527=VERTEX_POINT('',#1632);
#528=VERTEX_POINT('',#1636);
#529=VERTEX_POINT('',#1638);
#530=VERTEX_POINT('',#1642);
#531=VERTEX_POINT('',#1644);
#532=VERTEX_POINT('',#1648);
#533=VERTEX_POINT('',#1649);
#534=VERTEX_POINT('',#1651);
#535=VERTEX_POINT('',#1653);
#536=VERTEX_POINT('',#1662);
#537=VERTEX_POINT('',#1669);
#538=VERTEX_POINT('',#1671);
#539=VERTEX_POINT('',#1674);
#540=VERTEX_POINT('',#1677);
#541=VERTEX_POINT('',#1681);
#542=VERTEX_POINT('',#1685);
#543=VERTEX_POINT('',#1689);
#544=VERTEX_POINT('',#1691);
#545=VERTEX_POINT('',#1693);
#546=VERTEX_POINT('',#1735);
#547=VERTEX_POINT('',#1738);
#548=VERTEX_POINT('',#1740);
#549=VERTEX_POINT('',#1742);
#550=VERTEX_POINT('',#1788);
#551=VERTEX_POINT('',#1793);
#552=VERTEX_POINT('',#1797);
#553=VERTEX_POINT('',#1801);
#554=VERTEX_POINT('',#1805);
#555=EDGE_CURVE('',#465,#466,#419,.T.);
#556=EDGE_CURVE('',#466,#467,#420,.T.);
#557=EDGE_CURVE('',#467,#467,#421,.T.);
#558=EDGE_CURVE('',#466,#465,#422,.T.);
#559=EDGE_CURVE('',#468,#469,#91,.T.);
#560=EDGE_CURVE('',#469,#470,#92,.T.);
#561=EDGE_CURVE('',#470,#471,#423,.T.);
#562=EDGE_CURVE('',#471,#468,#93,.T.);
#563=EDGE_CURVE('',#472,#472,#424,.T.);
#564=EDGE_CURVE('',#472,#465,#94,.T.);
#565=EDGE_CURVE('',#473,#473,#425,.T.);
#566=EDGE_CURVE('',#473,#474,#95,.T.);
#567=EDGE_CURVE('',#474,#474,#426,.T.);
#568=EDGE_CURVE('',#475,#475,#427,.T.);
#569=EDGE_CURVE('',#475,#476,#96,.T.);
#570=EDGE_CURVE('',#476,#476,#428,.T.);
#571=EDGE_CURVE('',#477,#477,#429,.T.);
#572=EDGE_CURVE('',#477,#478,#97,.T.);
#573=EDGE_CURVE('',#478,#478,#430,.T.);
#574=EDGE_CURVE('',#479,#479,#431,.T.);
#575=EDGE_CURVE('',#479,#480,#98,.T.);
#576=EDGE_CURVE('',#480,#480,#432,.T.);
#577=EDGE_CURVE('',#481,#481,#433,.T.);
#578=EDGE_CURVE('',#481,#482,#99,.T.);
#579=EDGE_CURVE('',#482,#482,#434,.T.);
#580=EDGE_CURVE('',#483,#483,#435,.T.);
#581=EDGE_CURVE('',#483,#484,#100,.T.);
#582=EDGE_CURVE('',#484,#484,#436,.T.);
#583=EDGE_CURVE('',#485,#486,#101,.T.);
#584=EDGE_CURVE('',#486,#487,#102,.T.);
#585=EDGE_CURVE('',#488,#487,#103,.T.);
#586=EDGE_CURVE('',#485,#488,#104,.T.);
#587=EDGE_CURVE('',#489,#490,#105,.T.);
#588=EDGE_CURVE('',#490,#491,#106,.T.);
#589=EDGE_CURVE('',#492,#491,#107,.T.);
#590=EDGE_CURVE('',#489,#492,#108,.T.);
#591=EDGE_CURVE('',#487,#492,#109,.T.);
#592=EDGE_CURVE('',#491,#488,#110,.T.);
#593=EDGE_CURVE('',#493,#468,#111,.T.);
#594=EDGE_CURVE('',#494,#493,#112,.T.);
#595=EDGE_CURVE('',#469,#494,#113,.T.);
#596=EDGE_CURVE('',#489,#493,#114,.T.);
#597=EDGE_CURVE('',#494,#486,#115,.T.);
#598=EDGE_CURVE('',#485,#495,#116,.T.);
#599=EDGE_CURVE('',#495,#470,#117,.T.);
#600=EDGE_CURVE('',#495,#496,#437,.T.);
#601=EDGE_CURVE('',#496,#471,#118,.T.);
#602=EDGE_CURVE('',#490,#496,#119,.T.);
#603=EDGE_CURVE('',#497,#498,#23,.T.);
#604=EDGE_CURVE('',#498,#499,#438,.T.);
#605=EDGE_CURVE('',#499,#500,#24,.T.);
#606=EDGE_CURVE('',#500,#497,#439,.T.);
#607=EDGE_CURVE('',#501,#502,#120,.T.);
#608=EDGE_CURVE('',#503,#502,#121,.T.);
#609=EDGE_CURVE('',#504,#503,#440,.T.);
#610=EDGE_CURVE('',#504,#501,#122,.T.);
#611=EDGE_CURVE('',#499,#505,#123,.T.);
#612=EDGE_CURVE('',#506,#498,#124,.T.);
#613=EDGE_CURVE('',#507,#506,#441,.T.);
#614=EDGE_CURVE('',#508,#507,#125,.T.);
#615=EDGE_CURVE('',#509,#508,#126,.T.);
#616=EDGE_CURVE('',#510,#509,#127,.T.);
#617=EDGE_CURVE('',#505,#510,#442,.T.);
#618=EDGE_CURVE('',#511,#511,#443,.T.);
#619=EDGE_CURVE('',#511,#512,#128,.T.);
#620=EDGE_CURVE('',#512,#512,#444,.T.);
#621=EDGE_CURVE('',#513,#513,#445,.T.);
#622=EDGE_CURVE('',#513,#514,#129,.T.);
#623=EDGE_CURVE('',#514,#514,#446,.T.);
#624=EDGE_CURVE('',#515,#515,#447,.T.);
#625=EDGE_CURVE('',#515,#516,#130,.T.);
#626=EDGE_CURVE('',#516,#516,#448,.T.);
#627=EDGE_CURVE('',#517,#517,#449,.T.);
#628=EDGE_CURVE('',#517,#518,#131,.T.);
#629=EDGE_CURVE('',#518,#518,#450,.T.);
#630=EDGE_CURVE('',#519,#519,#451,.T.);
#631=EDGE_CURVE('',#519,#520,#132,.T.);
#632=EDGE_CURVE('',#520,#520,#452,.T.);
#633=EDGE_CURVE('',#521,#521,#453,.T.);
#634=EDGE_CURVE('',#521,#522,#133,.T.);
#635=EDGE_CURVE('',#522,#522,#454,.T.);
#636=EDGE_CURVE('',#523,#501,#134,.T.);
#637=EDGE_CURVE('',#524,#523,#135,.T.);
#638=EDGE_CURVE('',#502,#524,#136,.T.);
#639=EDGE_CURVE('',#524,#525,#137,.T.);
#640=EDGE_CURVE('',#525,#526,#138,.T.);
#641=EDGE_CURVE('',#527,#526,#139,.T.);
#642=EDGE_CURVE('',#503,#527,#140,.T.);
#643=EDGE_CURVE('',#528,#525,#141,.T.);
#644=EDGE_CURVE('',#529,#528,#142,.T.);
#645=EDGE_CURVE('',#526,#529,#143,.T.);
#646=EDGE_CURVE('',#528,#530,#144,.T.);
#647=EDGE_CURVE('',#531,#530,#145,.T.);
#648=EDGE_CURVE('',#529,#531,#146,.T.);
#649=EDGE_CURVE('',#532,#533,#147,.T.);
#650=EDGE_CURVE('',#532,#534,#148,.T.);
#651=EDGE_CURVE('',#535,#534,#149,.T.);
#652=EDGE_CURVE('',#533,#535,#150,.T.);
#653=EDGE_CURVE('',#530,#535,#151,.T.);
#654=EDGE_CURVE('',#533,#523,#152,.T.);
#655=EDGE_CURVE('',#534,#531,#153,.T.);
#656=EDGE_CURVE('',#532,#536,#154,.T.);
#657=EDGE_CURVE('',#536,#527,#455,.T.);
#658=EDGE_CURVE('',#504,#536,#155,.T.);
#659=EDGE_CURVE('',#505,#537,#156,.T.);
#660=EDGE_CURVE('',#538,#537,#157,.T.);
#661=EDGE_CURVE('',#500,#538,#158,.T.);
#662=EDGE_CURVE('',#539,#539,#456,.T.);
#663=EDGE_CURVE('',#510,#540,#159,.T.);
#664=EDGE_CURVE('',#537,#540,#457,.T.);
#665=EDGE_CURVE('',#509,#541,#160,.T.);
#666=EDGE_CURVE('',#540,#541,#161,.T.);
#667=EDGE_CURVE('',#508,#542,#162,.T.);
#668=EDGE_CURVE('',#541,#542,#163,.T.);
#669=EDGE_CURVE('',#543,#543,#458,.T.);
#670=EDGE_CURVE('',#543,#544,#164,.T.);
#671=EDGE_CURVE('',#545,#544,#25,.T.);
#672=EDGE_CURVE('',#544,#545,#26,.T.);
#673=EDGE_CURVE('',#546,#546,#459,.T.);
#674=EDGE_CURVE('',#547,#547,#460,.T.);
#675=EDGE_CURVE('',#547,#548,#165,.T.);
#676=EDGE_CURVE('',#549,#548,#27,.T.);
#677=EDGE_CURVE('',#548,#549,#28,.T.);
#678=EDGE_CURVE('',#550,#550,#461,.T.);
#679=EDGE_CURVE('',#539,#550,#166,.T.);
#680=EDGE_CURVE('',#546,#551,#167,.T.);
#681=EDGE_CURVE('',#551,#551,#462,.T.);
#682=EDGE_CURVE('',#507,#552,#168,.T.);
#683=EDGE_CURVE('',#542,#552,#169,.T.);
#684=EDGE_CURVE('',#506,#553,#170,.T.);
#685=EDGE_CURVE('',#552,#553,#463,.T.);
#686=EDGE_CURVE('',#497,#554,#171,.T.);
#687=EDGE_CURVE('',#553,#554,#172,.T.);
#688=EDGE_CURVE('',#554,#538,#464,.T.);
#689=ORIENTED_EDGE('',*,*,#555,.T.);
#690=ORIENTED_EDGE('',*,*,#556,.T.);
#691=ORIENTED_EDGE('',*,*,#557,.T.);
#692=ORIENTED_EDGE('',*,*,#556,.F.);
#693=ORIENTED_EDGE('',*,*,#558,.T.);
#694=ORIENTED_EDGE('',*,*,#559,.T.);
#695=ORIENTED_EDGE('',*,*,#560,.T.);
#696=ORIENTED_EDGE('',*,*,#561,.T.);
#697=ORIENTED_EDGE('',*,*,#562,.T.);
#698=ORIENTED_EDGE('',*,*,#557,.F.);
#699=ORIENTED_EDGE('',*,*,#563,.T.);
#700=ORIENTED_EDGE('',*,*,#564,.T.);
#701=ORIENTED_EDGE('',*,*,#558,.F.);
#702=ORIENTED_EDGE('',*,*,#555,.F.);
#703=ORIENTED_EDGE('',*,*,#564,.F.);
#704=ORIENTED_EDGE('',*,*,#563,.F.);
#705=ORIENTED_EDGE('',*,*,#565,.F.);
#706=ORIENTED_EDGE('',*,*,#566,.T.);
#707=ORIENTED_EDGE('',*,*,#567,.F.);
#708=ORIENTED_EDGE('',*,*,#566,.F.);
#709=ORIENTED_EDGE('',*,*,#568,.F.);
#710=ORIENTED_EDGE('',*,*,#569,.T.);
#711=ORIENTED_EDGE('',*,*,#570,.F.);
#712=ORIENTED_EDGE('',*,*,#569,.F.);
#713=ORIENTED_EDGE('',*,*,#571,.F.);
#714=ORIENTED_EDGE('',*,*,#572,.T.);
#715=ORIENTED_EDGE('',*,*,#573,.F.);
#716=ORIENTED_EDGE('',*,*,#572,.F.);
#717=ORIENTED_EDGE('',*,*,#574,.F.);
#718=ORIENTED_EDGE('',*,*,#575,.T.);
#719=ORIENTED_EDGE('',*,*,#576,.F.);
#720=ORIENTED_EDGE('',*,*,#575,.F.);
#721=ORIENTED_EDGE('',*,*,#577,.F.);
#722=ORIENTED_EDGE('',*,*,#578,.T.);
#723=ORIENTED_EDGE('',*,*,#579,.F.);
#724=ORIENTED_EDGE('',*,*,#578,.F.);
#725=ORIENTED_EDGE('',*,*,#580,.F.);
#726=ORIENTED_EDGE('',*,*,#581,.T.);
#727=ORIENTED_EDGE('',*,*,#582,.F.);
#728=ORIENTED_EDGE('',*,*,#581,.F.);
#729=ORIENTED_EDGE('',*,*,#583,.T.);
#730=ORIENTED_EDGE('',*,*,#584,.T.);
#731=ORIENTED_EDGE('',*,*,#585,.F.);
#732=ORIENTED_EDGE('',*,*,#586,.F.);
#733=ORIENTED_EDGE('',*,*,#587,.T.);
#734=ORIENTED_EDGE('',*,*,#588,.T.);
#735=ORIENTED_EDGE('',*,*,#589,.F.);
#736=ORIENTED_EDGE('',*,*,#590,.F.);
#737=ORIENTED_EDGE('',*,*,#591,.T.);
#738=ORIENTED_EDGE('',*,*,#589,.T.);
#739=ORIENTED_EDGE('',*,*,#592,.T.);
#740=ORIENTED_EDGE('',*,*,#585,.T.);
#741=ORIENTED_EDGE('',*,*,#593,.F.);
#742=ORIENTED_EDGE('',*,*,#594,.F.);
#743=ORIENTED_EDGE('',*,*,#595,.F.);
#744=ORIENTED_EDGE('',*,*,#559,.F.);
#745=ORIENTED_EDGE('',*,*,#596,.F.);
#746=ORIENTED_EDGE('',*,*,#590,.T.);
#747=ORIENTED_EDGE('',*,*,#591,.F.);
#748=ORIENTED_EDGE('',*,*,#584,.F.);
#749=ORIENTED_EDGE('',*,*,#597,.F.);
#750=ORIENTED_EDGE('',*,*,#594,.T.);
#751=ORIENTED_EDGE('',*,*,#565,.T.);
#752=ORIENTED_EDGE('',*,*,#568,.T.);
#753=ORIENTED_EDGE('',*,*,#571,.T.);
#754=ORIENTED_EDGE('',*,*,#574,.T.);
#755=ORIENTED_EDGE('',*,*,#577,.T.);
#756=ORIENTED_EDGE('',*,*,#580,.T.);
#757=ORIENTED_EDGE('',*,*,#595,.T.);
#758=ORIENTED_EDGE('',*,*,#597,.T.);
#759=ORIENTED_EDGE('',*,*,#583,.F.);
#760=ORIENTED_EDGE('',*,*,#598,.T.);
#761=ORIENTED_EDGE('',*,*,#599,.T.);
#762=ORIENTED_EDGE('',*,*,#560,.F.);
#763=ORIENTED_EDGE('',*,*,#600,.T.);
#764=ORIENTED_EDGE('',*,*,#601,.T.);
#765=ORIENTED_EDGE('',*,*,#561,.F.);
#766=ORIENTED_EDGE('',*,*,#599,.F.);
#767=ORIENTED_EDGE('',*,*,#593,.T.);
#768=ORIENTED_EDGE('',*,*,#562,.F.);
#769=ORIENTED_EDGE('',*,*,#601,.F.);
#770=ORIENTED_EDGE('',*,*,#602,.F.);
#771=ORIENTED_EDGE('',*,*,#587,.F.);
#772=ORIENTED_EDGE('',*,*,#596,.T.);
#773=ORIENTED_EDGE('',*,*,#602,.T.);
#774=ORIENTED_EDGE('',*,*,#600,.F.);
#775=ORIENTED_EDGE('',*,*,#598,.F.);
#776=ORIENTED_EDGE('',*,*,#586,.T.);
#777=ORIENTED_EDGE('',*,*,#592,.F.);
#778=ORIENTED_EDGE('',*,*,#588,.F.);
#779=ORIENTED_EDGE('',*,*,#567,.T.);
#780=ORIENTED_EDGE('',*,*,#570,.T.);
#781=ORIENTED_EDGE('',*,*,#573,.T.);
#782=ORIENTED_EDGE('',*,*,#576,.T.);
#783=ORIENTED_EDGE('',*,*,#579,.T.);
#784=ORIENTED_EDGE('',*,*,#582,.T.);
#785=ORIENTED_EDGE('',*,*,#603,.T.);
#786=ORIENTED_EDGE('',*,*,#604,.T.);
#787=ORIENTED_EDGE('',*,*,#605,.T.);
#788=ORIENTED_EDGE('',*,*,#606,.T.);
#789=ORIENTED_EDGE('',*,*,#607,.T.);
#790=ORIENTED_EDGE('',*,*,#608,.F.);
#791=ORIENTED_EDGE('',*,*,#609,.F.);
#792=ORIENTED_EDGE('',*,*,#610,.T.);
#793=ORIENTED_EDGE('',*,*,#611,.F.);
#794=ORIENTED_EDGE('',*,*,#604,.F.);
#795=ORIENTED_EDGE('',*,*,#612,.F.);
#796=ORIENTED_EDGE('',*,*,#613,.F.);
#797=ORIENTED_EDGE('',*,*,#614,.F.);
#798=ORIENTED_EDGE('',*,*,#615,.F.);
#799=ORIENTED_EDGE('',*,*,#616,.F.);
#800=ORIENTED_EDGE('',*,*,#617,.F.);
#801=ORIENTED_EDGE('',*,*,#618,.F.);
#802=ORIENTED_EDGE('',*,*,#619,.T.);
#803=ORIENTED_EDGE('',*,*,#620,.F.);
#804=ORIENTED_EDGE('',*,*,#619,.F.);
#805=ORIENTED_EDGE('',*,*,#621,.F.);
#806=ORIENTED_EDGE('',*,*,#622,.T.);
#807=ORIENTED_EDGE('',*,*,#623,.F.);
#808=ORIENTED_EDGE('',*,*,#622,.F.);
#809=ORIENTED_EDGE('',*,*,#624,.F.);
#810=ORIENTED_EDGE('',*,*,#625,.T.);
#811=ORIENTED_EDGE('',*,*,#626,.F.);
#812=ORIENTED_EDGE('',*,*,#625,.F.);
#813=ORIENTED_EDGE('',*,*,#627,.F.);
#814=ORIENTED_EDGE('',*,*,#628,.T.);
#815=ORIENTED_EDGE('',*,*,#629,.F.);
#816=ORIENTED_EDGE('',*,*,#628,.F.);
#817=ORIENTED_EDGE('',*,*,#630,.F.);
#818=ORIENTED_EDGE('',*,*,#631,.T.);
#819=ORIENTED_EDGE('',*,*,#632,.F.);
#820=ORIENTED_EDGE('',*,*,#631,.F.);
#821=ORIENTED_EDGE('',*,*,#633,.F.);
#822=ORIENTED_EDGE('',*,*,#634,.T.);
#823=ORIENTED_EDGE('',*,*,#635,.F.);
#824=ORIENTED_EDGE('',*,*,#634,.F.);
#825=ORIENTED_EDGE('',*,*,#636,.F.);
#826=ORIENTED_EDGE('',*,*,#637,.F.);
#827=ORIENTED_EDGE('',*,*,#638,.F.);
#828=ORIENTED_EDGE('',*,*,#607,.F.);
#829=ORIENTED_EDGE('',*,*,#638,.T.);
#830=ORIENTED_EDGE('',*,*,#639,.T.);
#831=ORIENTED_EDGE('',*,*,#640,.T.);
#832=ORIENTED_EDGE('',*,*,#641,.F.);
#833=ORIENTED_EDGE('',*,*,#642,.F.);
#834=ORIENTED_EDGE('',*,*,#608,.T.);
#835=ORIENTED_EDGE('',*,*,#640,.F.);
#836=ORIENTED_EDGE('',*,*,#643,.F.);
#837=ORIENTED_EDGE('',*,*,#644,.F.);
#838=ORIENTED_EDGE('',*,*,#645,.F.);
#839=ORIENTED_EDGE('',*,*,#644,.T.);
#840=ORIENTED_EDGE('',*,*,#646,.T.);
#841=ORIENTED_EDGE('',*,*,#647,.F.);
#842=ORIENTED_EDGE('',*,*,#648,.F.);
#843=ORIENTED_EDGE('',*,*,#649,.F.);
#844=ORIENTED_EDGE('',*,*,#650,.T.);
#845=ORIENTED_EDGE('',*,*,#651,.F.);
#846=ORIENTED_EDGE('',*,*,#652,.F.);
#847=ORIENTED_EDGE('',*,*,#652,.T.);
#848=ORIENTED_EDGE('',*,*,#653,.F.);
#849=ORIENTED_EDGE('',*,*,#646,.F.);
#850=ORIENTED_EDGE('',*,*,#643,.T.);
#851=ORIENTED_EDGE('',*,*,#639,.F.);
#852=ORIENTED_EDGE('',*,*,#637,.T.);
#853=ORIENTED_EDGE('',*,*,#654,.F.);
#854=ORIENTED_EDGE('',*,*,#620,.T.);
#855=ORIENTED_EDGE('',*,*,#623,.T.);
#856=ORIENTED_EDGE('',*,*,#626,.T.);
#857=ORIENTED_EDGE('',*,*,#629,.T.);
#858=ORIENTED_EDGE('',*,*,#632,.T.);
#859=ORIENTED_EDGE('',*,*,#635,.T.);
#860=ORIENTED_EDGE('',*,*,#653,.T.);
#861=ORIENTED_EDGE('',*,*,#651,.T.);
#862=ORIENTED_EDGE('',*,*,#655,.T.);
#863=ORIENTED_EDGE('',*,*,#647,.T.);
#864=ORIENTED_EDGE('',*,*,#656,.T.);
#865=ORIENTED_EDGE('',*,*,#657,.T.);
#866=ORIENTED_EDGE('',*,*,#641,.T.);
#867=ORIENTED_EDGE('',*,*,#645,.T.);
#868=ORIENTED_EDGE('',*,*,#648,.T.);
#869=ORIENTED_EDGE('',*,*,#655,.F.);
#870=ORIENTED_EDGE('',*,*,#650,.F.);
#871=ORIENTED_EDGE('',*,*,#618,.T.);
#872=ORIENTED_EDGE('',*,*,#621,.T.);
#873=ORIENTED_EDGE('',*,*,#624,.T.);
#874=ORIENTED_EDGE('',*,*,#627,.T.);
#875=ORIENTED_EDGE('',*,*,#630,.T.);
#876=ORIENTED_EDGE('',*,*,#633,.T.);
#877=ORIENTED_EDGE('',*,*,#636,.T.);
#878=ORIENTED_EDGE('',*,*,#610,.F.);
#879=ORIENTED_EDGE('',*,*,#658,.T.);
#880=ORIENTED_EDGE('',*,*,#656,.F.);
#881=ORIENTED_EDGE('',*,*,#649,.T.);
#882=ORIENTED_EDGE('',*,*,#654,.T.);
#883=ORIENTED_EDGE('',*,*,#609,.T.);
#884=ORIENTED_EDGE('',*,*,#642,.T.);
#885=ORIENTED_EDGE('',*,*,#657,.F.);
#886=ORIENTED_EDGE('',*,*,#658,.F.);
#887=ORIENTED_EDGE('',*,*,#611,.T.);
#888=ORIENTED_EDGE('',*,*,#659,.T.);
#889=ORIENTED_EDGE('',*,*,#660,.F.);
#890=ORIENTED_EDGE('',*,*,#661,.F.);
#891=ORIENTED_EDGE('',*,*,#605,.F.);
#892=ORIENTED_EDGE('',*,*,#662,.T.);
#893=ORIENTED_EDGE('',*,*,#617,.T.);
#894=ORIENTED_EDGE('',*,*,#663,.T.);
#895=ORIENTED_EDGE('',*,*,#664,.F.);
#896=ORIENTED_EDGE('',*,*,#659,.F.);
#897=ORIENTED_EDGE('',*,*,#616,.T.);
#898=ORIENTED_EDGE('',*,*,#665,.T.);
#899=ORIENTED_EDGE('',*,*,#666,.F.);
#900=ORIENTED_EDGE('',*,*,#663,.F.);
#901=ORIENTED_EDGE('',*,*,#615,.T.);
#902=ORIENTED_EDGE('',*,*,#667,.T.);
#903=ORIENTED_EDGE('',*,*,#668,.F.);
#904=ORIENTED_EDGE('',*,*,#665,.F.);
#905=ORIENTED_EDGE('',*,*,#669,.F.);
#906=ORIENTED_EDGE('',*,*,#670,.T.);
#907=ORIENTED_EDGE('',*,*,#671,.F.);
#908=ORIENTED_EDGE('',*,*,#672,.F.);
#909=ORIENTED_EDGE('',*,*,#670,.F.);
#910=ORIENTED_EDGE('',*,*,#669,.T.);
#911=ORIENTED_EDGE('',*,*,#673,.F.);
#912=ORIENTED_EDGE('',*,*,#674,.T.);
#913=ORIENTED_EDGE('',*,*,#675,.T.);
#914=ORIENTED_EDGE('',*,*,#676,.F.);
#915=ORIENTED_EDGE('',*,*,#677,.F.);
#916=ORIENTED_EDGE('',*,*,#675,.F.);
#917=ORIENTED_EDGE('',*,*,#674,.F.);
#918=ORIENTED_EDGE('',*,*,#678,.F.);
#919=ORIENTED_EDGE('',*,*,#662,.F.);
#920=ORIENTED_EDGE('',*,*,#679,.T.);
#921=ORIENTED_EDGE('',*,*,#678,.T.);
#922=ORIENTED_EDGE('',*,*,#679,.F.);
#923=ORIENTED_EDGE('',*,*,#673,.T.);
#924=ORIENTED_EDGE('',*,*,#680,.T.);
#925=ORIENTED_EDGE('',*,*,#681,.F.);
#926=ORIENTED_EDGE('',*,*,#680,.F.);
#927=ORIENTED_EDGE('',*,*,#614,.T.);
#928=ORIENTED_EDGE('',*,*,#682,.T.);
#929=ORIENTED_EDGE('',*,*,#683,.F.);
#930=ORIENTED_EDGE('',*,*,#667,.F.);
#931=ORIENTED_EDGE('',*,*,#613,.T.);
#932=ORIENTED_EDGE('',*,*,#684,.T.);
#933=ORIENTED_EDGE('',*,*,#685,.F.);
#934=ORIENTED_EDGE('',*,*,#682,.F.);
#935=ORIENTED_EDGE('',*,*,#612,.T.);
#936=ORIENTED_EDGE('',*,*,#603,.F.);
#937=ORIENTED_EDGE('',*,*,#686,.T.);
#938=ORIENTED_EDGE('',*,*,#687,.F.);
#939=ORIENTED_EDGE('',*,*,#684,.F.);
#940=ORIENTED_EDGE('',*,*,#681,.T.);
#941=ORIENTED_EDGE('',*,*,#606,.F.);
#942=ORIENTED_EDGE('',*,*,#661,.T.);
#943=ORIENTED_EDGE('',*,*,#688,.F.);
#944=ORIENTED_EDGE('',*,*,#686,.F.);
#945=ORIENTED_EDGE('',*,*,#671,.T.);
#946=ORIENTED_EDGE('',*,*,#672,.T.);
#947=ORIENTED_EDGE('',*,*,#676,.T.);
#948=ORIENTED_EDGE('',*,*,#677,.T.);
#949=ORIENTED_EDGE('',*,*,#660,.T.);
#950=ORIENTED_EDGE('',*,*,#664,.T.);
#951=ORIENTED_EDGE('',*,*,#666,.T.);
#952=ORIENTED_EDGE('',*,*,#668,.T.);
#953=ORIENTED_EDGE('',*,*,#683,.T.);
#954=ORIENTED_EDGE('',*,*,#685,.T.);
#955=ORIENTED_EDGE('',*,*,#687,.T.);
#956=ORIENTED_EDGE('',*,*,#688,.T.);
#957=TOROIDAL_SURFACE('',#1039,5.99999999999999,2.);
#958=TOROIDAL_SURFACE('',#1078,15.5,3.);
#959=ADVANCED_FACE('',(#283),#957,.F.);
#960=ADVANCED_FACE('',(#284,#59),#255,.T.);
#961=ADVANCED_FACE('',(#285),#37,.T.);
#962=ADVANCED_FACE('',(#286),#256,.T.);
#963=ADVANCED_FACE('',(#287),#38,.F.);
#964=ADVANCED_FACE('',(#288),#39,.F.);
#965=ADVANCED_FACE('',(#289),#40,.F.);
#966=ADVANCED_FACE('',(#290),#41,.F.);
#967=ADVANCED_FACE('',(#291),#42,.F.);
#968=ADVANCED_FACE('',(#292),#43,.F.);
#969=ADVANCED_FACE('',(#293),#257,.T.);
#970=ADVANCED_FACE('',(#294),#258,.T.);
#971=ADVANCED_FACE('',(#295),#259,.T.);
#972=ADVANCED_FACE('',(#296),#260,.F.);
#973=ADVANCED_FACE('',(#297,#60,#61,#62,#63,#64,#65),#261,.F.);
#974=ADVANCED_FACE('',(#298),#262,.T.);
#975=ADVANCED_FACE('',(#299),#44,.T.);
#976=ADVANCED_FACE('',(#300),#263,.T.);
#977=ADVANCED_FACE('',(#301,#66,#67,#68,#69,#70,#71),#264,.T.);
#978=ADVANCED_FACE('',(#302),#958,.F.);
#979=ADVANCED_FACE('',(#303,#72),#265,.T.);
#980=ADVANCED_FACE('',(#304),#45,.F.);
#981=ADVANCED_FACE('',(#305),#46,.F.);
#982=ADVANCED_FACE('',(#306),#47,.F.);
#983=ADVANCED_FACE('',(#307),#48,.F.);
#984=ADVANCED_FACE('',(#308),#49,.F.);
#985=ADVANCED_FACE('',(#309),#50,.F.);
#986=ADVANCED_FACE('',(#310),#266,.F.);
#987=ADVANCED_FACE('',(#311),#267,.T.);
#988=ADVANCED_FACE('',(#312),#268,.T.);
#989=ADVANCED_FACE('',(#313),#269,.T.);
#990=ADVANCED_FACE('',(#314),#270,.T.);
#991=ADVANCED_FACE('',(#315,#73,#74,#75,#76,#77,#78),#271,.T.);
#992=ADVANCED_FACE('',(#316),#272,.T.);
#993=ADVANCED_FACE('',(#317,#79,#80,#81,#82,#83,#84),#273,.T.);
#994=ADVANCED_FACE('',(#318),#274,.T.);
#995=ADVANCED_FACE('',(#319),#51,.T.);
#996=ADVANCED_FACE('',(#320,#85),#275,.T.);
#997=ADVANCED_FACE('',(#321),#52,.F.);
#998=ADVANCED_FACE('',(#322),#276,.T.);
#999=ADVANCED_FACE('',(#323),#277,.T.);
#1000=ADVANCED_FACE('',(#324),#53,.F.);
#1001=ADVANCED_FACE('',(#325,#86),#278,.T.);
#1002=ADVANCED_FACE('',(#326),#54,.F.);
#1003=ADVANCED_FACE('',(#327,#87),#279,.F.);
#1004=ADVANCED_FACE('',(#328),#55,.F.);
#1005=ADVANCED_FACE('',(#329),#56,.F.);
#1006=ADVANCED_FACE('',(#330),#280,.T.);
#1007=ADVANCED_FACE('',(#331),#57,.F.);
#1008=ADVANCED_FACE('',(#332,#88),#281,.T.);
#1009=ADVANCED_FACE('',(#333,#89,#90),#58,.T.);
#1010=ADVANCED_FACE('',(#334),#282,.F.);
#1011=CLOSED_SHELL('',(#959,#960,#961,#962,#963,#964,#965,#966,#967,#968,
#969,#970,#971,#972,#973,#974,#975,#976,#977));
#1012=CLOSED_SHELL('',(#978,#979,#980,#981,#982,#983,#984,#985,#986,#987,
#988,#989,#990,#991,#992,#993,#994,#995,#996,#997,#998,#999,#1000,#1001,
#1002,#1003,#1004,#1005,#1006,#1007,#1008,#1009,#1010));
#1013=DERIVED_UNIT_ELEMENT(#1017,1.);
#1014=DERIVED_UNIT_ELEMENT(#1825,-3.);
#1015=DERIVED_UNIT_ELEMENT(#1017,1.);
#1016=DERIVED_UNIT_ELEMENT(#1825,-3.);
#1017=(
MASS_UNIT()
NAMED_UNIT(*)
SI_UNIT(.KILO.,.GRAM.)
);
#1018=DERIVED_UNIT((#1013,#1014));
#1019=DERIVED_UNIT((#1015,#1016));
#1020=MEASURE_REPRESENTATION_ITEM('density measure',
POSITIVE_RATIO_MEASURE(7850.),#1018);
#1021=MEASURE_REPRESENTATION_ITEM('density measure',
POSITIVE_RATIO_MEASURE(7850.),#1019);
#1022=PROPERTY_DEFINITION_REPRESENTATION(#1032,#1026);
#1023=PROPERTY_DEFINITION_REPRESENTATION(#1033,#1027);
#1024=PROPERTY_DEFINITION_REPRESENTATION(#1034,#1028);
#1025=PROPERTY_DEFINITION_REPRESENTATION(#1035,#1029);
#1026=REPRESENTATION('material name',(#1030),#1821);
#1027=REPRESENTATION('density',(#1020),#1821);
#1028=REPRESENTATION('material name',(#1031),#1822);
#1029=REPRESENTATION('density',(#1021),#1822);
#1030=DESCRIPTIVE_REPRESENTATION_ITEM('Steel','Steel');
#1031=DESCRIPTIVE_REPRESENTATION_ITEM('Steel','Steel');
#1032=PROPERTY_DEFINITION('material property','material name',#1846);
#1033=PROPERTY_DEFINITION('material property','density of part',#1846);
#1034=PROPERTY_DEFINITION('material property','material name',#1847);
#1035=PROPERTY_DEFINITION('material property','density of part',#1847);
#1036=AXIS2_PLACEMENT_3D('',#1433,#1141,#1142);
#1037=AXIS2_PLACEMENT_3D('',#1434,#1143,#1144);
#1038=AXIS2_PLACEMENT_3D('',#1435,#1145,#1146);
#1039=AXIS2_PLACEMENT_3D('',#1436,#1147,#1148);
#1040=AXIS2_PLACEMENT_3D('',#1439,#1149,#1150);
#1041=AXIS2_PLACEMENT_3D('',#1441,#1151,#1152);
#1042=AXIS2_PLACEMENT_3D('',#1442,#1153,#1154);
#1043=AXIS2_PLACEMENT_3D('',#1443,#1155,#1156);
#1044=AXIS2_PLACEMENT_3D('',#1444,#1157,#1158);
#1045=AXIS2_PLACEMENT_3D('',#1451,#1161,#1162);
#1046=AXIS2_PLACEMENT_3D('',#1453,#1164,#1165);
#1047=AXIS2_PLACEMENT_3D('',#1455,#1166,#1167);
#1048=AXIS2_PLACEMENT_3D('',#1457,#1169,#1170);
#1049=AXIS2_PLACEMENT_3D('',#1458,#1171,#1172);
#1050=AXIS2_PLACEMENT_3D('',#1460,#1173,#1174);
#1051=AXIS2_PLACEMENT_3D('',#1463,#1176,#1177);
#1052=AXIS2_PLACEMENT_3D('',#1464,#1178,#1179);
#1053=AXIS2_PLACEMENT_3D('',#1466,#1180,#1181);
#1054=AXIS2_PLACEMENT_3D('',#1469,#1183,#1184);
#1055=AXIS2_PLACEMENT_3D('',#1470,#1185,#1186);
#1056=AXIS2_PLACEMENT_3D('',#1472,#1187,#1188);
#1057=AXIS2_PLACEMENT_3D('',#1475,#1190,#1191);
#1058=AXIS2_PLACEMENT_3D('',#1476,#1192,#1193);
#1059=AXIS2_PLACEMENT_3D('',#1478,#1194,#1195);
#1060=AXIS2_PLACEMENT_3D('',#1481,#1197,#1198);
#1061=AXIS2_PLACEMENT_3D('',#1482,#1199,#1200);
#1062=AXIS2_PLACEMENT_3D('',#1484,#1201,#1202);
#1063=AXIS2_PLACEMENT_3D('',#1487,#1204,#1205);
#1064=AXIS2_PLACEMENT_3D('',#1488,#1206,#1207);
#1065=AXIS2_PLACEMENT_3D('',#1490,#1208,#1209);
#1066=AXIS2_PLACEMENT_3D('',#1493,#1211,#1212);
#1067=AXIS2_PLACEMENT_3D('',#1494,#1213,#1214);
#1068=AXIS2_PLACEMENT_3D('',#1503,#1219,#1220);
#1069=AXIS2_PLACEMENT_3D('',#1512,#1225,#1226);
#1070=AXIS2_PLACEMENT_3D('',#1515,#1229,#1230);
#1071=AXIS2_PLACEMENT_3D('',#1521,#1234,#1235);
#1072=AXIS2_PLACEMENT_3D('',#1524,#1238,#1239);
#1073=AXIS2_PLACEMENT_3D('',#1528,#1242,#1243);
#1074=AXIS2_PLACEMENT_3D('',#1530,#1244,#1245);
#1075=AXIS2_PLACEMENT_3D('',#1532,#1247,#1248);
#1076=AXIS2_PLACEMENT_3D('',#1534,#1250,#1251);
#1077=AXIS2_PLACEMENT_3D('',#1535,#1252,#1253);
#1078=AXIS2_PLACEMENT_3D('',#1536,#1254,#1255);
#1079=AXIS2_PLACEMENT_3D('',#1550,#1256,#1257);
#1080=AXIS2_PLACEMENT_3D('',#1562,#1258,#1259);
#1081=AXIS2_PLACEMENT_3D('',#1563,#1260,#1261);
#1082=AXIS2_PLACEMENT_3D('',#1570,#1264,#1265);
#1083=AXIS2_PLACEMENT_3D('',#1577,#1269,#1270);
#1084=AXIS2_PLACEMENT_3D('',#1584,#1274,#1275);
#1085=AXIS2_PLACEMENT_3D('',#1585,#1276,#1277);
#1086=AXIS2_PLACEMENT_3D('',#1587,#1278,#1279);
#1087=AXIS2_PLACEMENT_3D('',#1590,#1281,#1282);
#1088=AXIS2_PLACEMENT_3D('',#1591,#1283,#1284);
#1089=AXIS2_PLACEMENT_3D('',#1593,#1285,#1286);
#1090=AXIS2_PLACEMENT_3D('',#1596,#1288,#1289);
#1091=AXIS2_PLACEMENT_3D('',#1597,#1290,#1291);
#1092=AXIS2_PLACEMENT_3D('',#1599,#1292,#1293);
#1093=AXIS2_PLACEMENT_3D('',#1602,#1295,#1296);
#1094=AXIS2_PLACEMENT_3D('',#1603,#1297,#1298);
#1095=AXIS2_PLACEMENT_3D('',#1605,#1299,#1300);
#1096=AXIS2_PLACEMENT_3D('',#1608,#1302,#1303);
#1097=AXIS2_PLACEMENT_3D('',#1609,#1304,#1305);
#1098=AXIS2_PLACEMENT_3D('',#1611,#1306,#1307);
#1099=AXIS2_PLACEMENT_3D('',#1614,#1309,#1310);
#1100=AXIS2_PLACEMENT_3D('',#1615,#1311,#1312);
#1101=AXIS2_PLACEMENT_3D('',#1617,#1313,#1314);
#1102=AXIS2_PLACEMENT_3D('',#1620,#1316,#1317);
#1103=AXIS2_PLACEMENT_3D('',#1621,#1318,#1319);
#1104=AXIS2_PLACEMENT_3D('',#1627,#1323,#1324);
#1105=AXIS2_PLACEMENT_3D('',#1635,#1329,#1330);
#1106=AXIS2_PLACEMENT_3D('',#1641,#1334,#1335);
#1107=AXIS2_PLACEMENT_3D('',#1647,#1339,#1340);
#1108=AXIS2_PLACEMENT_3D('',#1656,#1345,#1346);
#1109=AXIS2_PLACEMENT_3D('',#1659,#1349,#1350);
#1110=AXIS2_PLACEMENT_3D('',#1661,#1352,#1353);
#1111=AXIS2_PLACEMENT_3D('',#1664,#1355,#1356);
#1112=AXIS2_PLACEMENT_3D('',#1665,#1357,#1358);
#1113=AXIS2_PLACEMENT_3D('',#1667,#1360,#1361);
#1114=AXIS2_PLACEMENT_3D('',#1668,#1362,#1363);
#1115=AXIS2_PLACEMENT_3D('',#1675,#1367,#1368);
#1116=AXIS2_PLACEMENT_3D('',#1676,#1369,#1370);
#1117=AXIS2_PLACEMENT_3D('',#1679,#1372,#1373);
#1118=AXIS2_PLACEMENT_3D('',#1680,#1374,#1375);
#1119=AXIS2_PLACEMENT_3D('',#1684,#1378,#1379);
#1120=AXIS2_PLACEMENT_3D('',#1688,#1382,#1383);
#1121=AXIS2_PLACEMENT_3D('',#1690,#1384,#1385);
#1122=AXIS2_PLACEMENT_3D('',#1734,#1387,#1388);
#1123=AXIS2_PLACEMENT_3D('',#1736,#1389,#1390);
#1124=AXIS2_PLACEMENT_3D('',#1737,#1391,#1392);
#1125=AXIS2_PLACEMENT_3D('',#1739,#1393,#1394);
#1126=AXIS2_PLACEMENT_3D('',#1787,#1396,#1397);
#1127=AXIS2_PLACEMENT_3D('',#1789,#1398,#1399);
#1128=AXIS2_PLACEMENT_3D('',#1790,#1400,#1401);
#1129=AXIS2_PLACEMENT_3D('',#1792,#1403,#1404);
#1130=AXIS2_PLACEMENT_3D('',#1795,#1406,#1407);
#1131=AXIS2_PLACEMENT_3D('',#1796,#1408,#1409);
#1132=AXIS2_PLACEMENT_3D('',#1800,#1412,#1413);
#1133=AXIS2_PLACEMENT_3D('',#1803,#1415,#1416);
#1134=AXIS2_PLACEMENT_3D('',#1804,#1417,#1418);
#1135=AXIS2_PLACEMENT_3D('',#1808,#1421,#1422);
#1136=AXIS2_PLACEMENT_3D('',#1809,#1423,#1424);
#1137=AXIS2_PLACEMENT_3D('',#1810,#1425,#1426);
#1138=AXIS2_PLACEMENT_3D('',#1811,#1427,#1428);
#1139=AXIS2_PLACEMENT_3D('',#1812,#1429,#1430);
#1140=AXIS2_PLACEMENT_3D('',#1813,#1431,#1432);
#1141=DIRECTION('axis',(0.,0.,1.));
#1142=DIRECTION('refdir',(1.,0.,0.));
#1143=DIRECTION('axis',(0.,0.,1.));
#1144=DIRECTION('refdir',(1.,0.,0.));
#1145=DIRECTION('axis',(0.,0.,1.));
#1146=DIRECTION('refdir',(1.,0.,0.));
#1147=DIRECTION('center_axis',(0.,-1.,0.));
#1148=DIRECTION('ref_axis',(0.,0.,-1.));
#1149=DIRECTION('center_axis',(0.,-1.,0.));
#1150=DIRECTION('ref_axis',(-1.,0.,0.));
#1151=DIRECTION('center_axis',(-1.,0.,0.));
#1152=DIRECTION('ref_axis',(0.,0.,1.));
#1153=DIRECTION('center_axis',(0.,1.,0.));
#1154=DIRECTION('ref_axis',(-1.,0.,0.));
#1155=DIRECTION('center_axis',(0.,-1.,0.));
#1156=DIRECTION('ref_axis',(-1.,0.,0.));
#1157=DIRECTION('center_axis',(0.,1.,0.));
#1158=DIRECTION('ref_axis',(-1.,0.,0.));
#1159=DIRECTION('',(0.,0.,-1.));
#1160=DIRECTION('',(-0.999999999918935,0.,-1.27330254643551E-5));
#1161=DIRECTION('center_axis',(0.,1.,0.));
#1162=DIRECTION('ref_axis',(1.27330254632138E-5,0.,-0.999999999918935));
#1163=DIRECTION('',(0.999999999994925,0.,-3.18597220061881E-6));
#1164=DIRECTION('center_axis',(0.,1.,0.));
#1165=DIRECTION('ref_axis',(-1.,0.,0.));
#1166=DIRECTION('center_axis',(0.,-1.,0.));
#1167=DIRECTION('ref_axis',(-1.,0.,0.));
#1168=DIRECTION('',(0.,-1.,0.));
#1169=DIRECTION('center_axis',(0.,1.,0.));
#1170=DIRECTION('ref_axis',(-1.,0.,0.));
#1171=DIRECTION('center_axis',(0.,-1.,0.));
#1172=DIRECTION('ref_axis',(-1.,0.,0.));
#1173=DIRECTION('center_axis',(0.,-1.,0.));
#1174=DIRECTION('ref_axis',(-1.,0.,0.));
#1175=DIRECTION('',(0.,-1.,0.));
#1176=DIRECTION('center_axis',(0.,1.,0.));
#1177=DIRECTION('ref_axis',(-1.,0.,0.));
#1178=DIRECTION('center_axis',(0.,-1.,0.));
#1179=DIRECTION('ref_axis',(-1.,0.,0.));
#1180=DIRECTION('center_axis',(0.,-1.,0.));
#1181=DIRECTION('ref_axis',(-1.,0.,0.));
#1182=DIRECTION('',(0.,-1.,0.));
#1183=DIRECTION('center_axis',(0.,1.,0.));
#1184=DIRECTION('ref_axis',(-1.,0.,0.));
#1185=DIRECTION('center_axis',(0.,-1.,0.));
#1186=DIRECTION('ref_axis',(-1.,0.,0.));
#1187=DIRECTION('center_axis',(0.,-1.,0.));
#1188=DIRECTION('ref_axis',(-1.,0.,0.));
#1189=DIRECTION('',(0.,-1.,0.));
#1190=DIRECTION('center_axis',(0.,1.,0.));
#1191=DIRECTION('ref_axis',(-1.,0.,0.));
#1192=DIRECTION('center_axis',(0.,-1.,0.));
#1193=DIRECTION('ref_axis',(-1.,0.,0.));
#1194=DIRECTION('center_axis',(0.,-1.,0.));
#1195=DIRECTION('ref_axis',(-1.,0.,0.));
#1196=DIRECTION('',(0.,-1.,0.));
#1197=DIRECTION('center_axis',(0.,1.,0.));
#1198=DIRECTION('ref_axis',(-1.,0.,0.));
#1199=DIRECTION('center_axis',(0.,-1.,0.));
#1200=DIRECTION('ref_axis',(-1.,0.,0.));
#1201=DIRECTION('center_axis',(0.,-1.,0.));
#1202=DIRECTION('ref_axis',(-1.,0.,0.));
#1203=DIRECTION('',(0.,-1.,0.));
#1204=DIRECTION('center_axis',(0.,1.,0.));
#1205=DIRECTION('ref_axis',(-1.,0.,0.));
#1206=DIRECTION('center_axis',(0.,-1.,0.));
#1207=DIRECTION('ref_axis',(-1.,0.,0.));
#1208=DIRECTION('center_axis',(0.,-1.,0.));
#1209=DIRECTION('ref_axis',(-1.,0.,0.));
#1210=DIRECTION('',(0.,-1.,0.));
#1211=DIRECTION('center_axis',(0.,1.,0.));
#1212=DIRECTION('ref_axis',(-1.,0.,0.));
#1213=DIRECTION('center_axis',(0.,0.,-1.));
#1214=DIRECTION('ref_axis',(0.,1.,0.));
#1215=DIRECTION('',(0.,1.,0.));
#1216=DIRECTION('',(1.,0.,0.));
#1217=DIRECTION('',(0.,1.,0.));
#1218=DIRECTION('',(1.,0.,0.));
#1219=DIRECTION('center_axis',(0.,0.,1.));
#1220=DIRECTION('ref_axis',(0.,-1.,0.));
#1221=DIRECTION('',(0.,-1.,0.));
#1222=DIRECTION('',(1.,0.,0.));
#1223=DIRECTION('',(0.,-1.,0.));
#1224=DIRECTION('',(1.,0.,0.));
#1225=DIRECTION('center_axis',(1.,0.,0.));
#1226=DIRECTION('ref_axis',(0.,0.,-1.));
#1227=DIRECTION('',(-6.12323399573677E-17,0.,1.));
#1228=DIRECTION('',(6.12323399573677E-17,0.,-1.));
#1229=DIRECTION('center_axis',(-1.,0.,0.));
#1230=DIRECTION('ref_axis',(0.,0.,1.));
#1231=DIRECTION('',(0.,1.,0.));
#1232=DIRECTION('',(0.,0.,1.));
#1233=DIRECTION('',(0.,-1.,0.));
#1234=DIRECTION('center_axis',(0.,-1.,0.));
#1235=DIRECTION('ref_axis',(0.,0.,1.));
#1236=DIRECTION('',(-0.999999999994925,0.,3.18597220061881E-6));
#1237=DIRECTION('',(0.999999999918935,0.,1.27330254643551E-5));
#1238=DIRECTION('center_axis',(1.27330254643551E-5,0.,-0.999999999918935));
#1239=DIRECTION('ref_axis',(-0.999999999918935,0.,-1.27330254643551E-5));
#1240=DIRECTION('',(-0.999999999918935,0.,-1.27330254643551E-5));
#1241=DIRECTION('',(0.,1.,0.));
#1242=DIRECTION('center_axis',(0.,1.,0.));
#1243=DIRECTION('ref_axis',(-0.999999999988607,0.,-4.7735279827093E-6));
#1244=DIRECTION('center_axis',(0.,1.,0.));
#1245=DIRECTION('ref_axis',(1.27330254632138E-5,0.,-0.999999999918935));
#1246=DIRECTION('',(0.,1.,0.));
#1247=DIRECTION('center_axis',(3.18597220061881E-6,0.,0.999999999994925));
#1248=DIRECTION('ref_axis',(0.999999999994925,0.,-3.18597220061881E-6));
#1249=DIRECTION('',(-0.999999999994925,0.,3.18597220061881E-6));
#1250=DIRECTION('center_axis',(0.,-1.,0.));
#1251=DIRECTION('ref_axis',(0.,0.,-1.));
#1252=DIRECTION('axis',(0.,0.,1.));
#1253=DIRECTION('refdir',(1.,0.,0.));
#1254=DIRECTION('center_axis',(0.,-1.,0.));
#1255=DIRECTION('ref_axis',(0.,0.,-1.));
#1256=DIRECTION('center_axis',(0.,-1.,0.));
#1257=DIRECTION('ref_axis',(0.,0.,-1.));
#1258=DIRECTION('center_axis',(0.,1.,0.));
#1259=DIRECTION('ref_axis',(0.,0.,-1.));
#1260=DIRECTION('center_axis',(0.,-1.,0.));
#1261=DIRECTION('ref_axis',(1.,0.,0.));
#1262=DIRECTION('',(0.,0.,-1.));
#1263=DIRECTION('',(-0.999999999918935,0.,-1.27330254643551E-5));
#1264=DIRECTION('center_axis',(0.,1.,0.));
#1265=DIRECTION('ref_axis',(-0.00713648536083866,0.,0.999974534964113));
#1266=DIRECTION('',(-0.999999999994925,0.,3.18597220061881E-6));
#1267=DIRECTION('',(0.,0.,-1.));
#1268=DIRECTION('',(0.,0.,1.));
#1269=DIRECTION('center_axis',(0.,1.,0.));
#1270=DIRECTION('ref_axis',(-1.,0.,0.));
#1271=DIRECTION('',(0.,0.,1.));
#1272=DIRECTION('',(-1.,0.,0.));
#1273=DIRECTION('',(0.,0.,-1.));
#1274=DIRECTION('center_axis',(0.,1.,0.));
#1275=DIRECTION('ref_axis',(-1.,0.,0.));
#1276=DIRECTION('center_axis',(0.,-1.,0.));
#1277=DIRECTION('ref_axis',(-1.,0.,0.));
#1278=DIRECTION('center_axis',(0.,-1.,0.));
#1279=DIRECTION('ref_axis',(-1.,0.,0.));
#1280=DIRECTION('',(0.,-1.,0.));
#1281=DIRECTION('center_axis',(0.,1.,0.));
#1282=DIRECTION('ref_axis',(-1.,0.,0.));
#1283=DIRECTION('center_axis',(0.,-1.,0.));
#1284=DIRECTION('ref_axis',(-1.,0.,0.));
#1285=DIRECTION('center_axis',(0.,-1.,0.));
#1286=DIRECTION('ref_axis',(-1.,0.,0.));
#1287=DIRECTION('',(0.,-1.,0.));
#1288=DIRECTION('center_axis',(0.,1.,0.));
#1289=DIRECTION('ref_axis',(-1.,0.,0.));
#1290=DIRECTION('center_axis',(0.,-1.,0.));
#1291=DIRECTION('ref_axis',(-1.,0.,0.));
#1292=DIRECTION('center_axis',(0.,-1.,0.));
#1293=DIRECTION('ref_axis',(-1.,0.,0.));
#1294=DIRECTION('',(0.,-1.,0.));
#1295=DIRECTION('center_axis',(0.,1.,0.));
#1296=DIRECTION('ref_axis',(-1.,0.,0.));
#1297=DIRECTION('center_axis',(0.,-1.,0.));
#1298=DIRECTION('ref_axis',(-1.,0.,0.));
#1299=DIRECTION('center_axis',(0.,-1.,0.));
#1300=DIRECTION('ref_axis',(-1.,0.,0.));
#1301=DIRECTION('',(0.,-1.,0.));
#1302=DIRECTION('center_axis',(0.,1.,0.));
#1303=DIRECTION('ref_axis',(-1.,0.,0.));
#1304=DIRECTION('center_axis',(0.,-1.,0.));
#1305=DIRECTION('ref_axis',(-1.,0.,0.));
#1306=DIRECTION('center_axis',(0.,-1.,0.));
#1307=DIRECTION('ref_axis',(-1.,0.,0.));
#1308=DIRECTION('',(0.,-1.,0.));
#1309=DIRECTION('center_axis',(0.,1.,0.));
#1310=DIRECTION('ref_axis',(-1.,0.,0.));
#1311=DIRECTION('center_axis',(0.,-1.,0.));
#1312=DIRECTION('ref_axis',(-1.,0.,0.));
#1313=DIRECTION('center_axis',(0.,-1.,0.));
#1314=DIRECTION('ref_axis',(-1.,0.,0.));
#1315=DIRECTION('',(0.,-1.,0.));
#1316=DIRECTION('center_axis',(0.,1.,0.));
#1317=DIRECTION('ref_axis',(-1.,0.,0.));
#1318=DIRECTION('center_axis',(1.,0.,0.));
#1319=DIRECTION('ref_axis',(0.,0.,-1.));
#1320=DIRECTION('',(0.,-1.,0.));
#1321=DIRECTION('',(-6.12323399573677E-17,0.,1.));
#1322=DIRECTION('',(0.,1.,0.));
#1323=DIRECTION('center_axis',(1.27330254643551E-5,0.,-0.999999999918935));
#1324=DIRECTION('ref_axis',(-0.999999999918935,0.,-1.27330254643551E-5));
#1325=DIRECTION('',(-0.999999999918935,0.,-1.27330254643551E-5));
#1326=DIRECTION('',(0.,1.,0.));
#1327=DIRECTION('',(-0.999999999918935,0.,-1.27330254643551E-5));
#1328=DIRECTION('',(0.,1.,0.));
#1329=DIRECTION('center_axis',(1.,0.,0.));
#1330=DIRECTION('ref_axis',(0.,0.,-1.));
#1331=DIRECTION('',(0.,0.,1.));
#1332=DIRECTION('',(0.,-1.,0.));
#1333=DIRECTION('',(0.,0.,-1.));
#1334=DIRECTION('center_axis',(0.,0.,-1.));
#1335=DIRECTION('ref_axis',(0.,-1.,0.));
#1336=DIRECTION('',(-1.,0.,0.));
#1337=DIRECTION('',(0.,-1.,0.));
#1338=DIRECTION('',(-1.,0.,0.));
#1339=DIRECTION('center_axis',(0.,0.,1.));
#1340=DIRECTION('ref_axis',(0.,1.,0.));
#1341=DIRECTION('',(0.,-1.,0.));
#1342=DIRECTION('',(-1.,0.,0.));
#1343=DIRECTION('',(0.,1.,0.));
#1344=DIRECTION('',(-1.,0.,0.));
#1345=DIRECTION('center_axis',(0.,-1.,0.));
#1346=DIRECTION('ref_axis',(0.,0.,1.));
#1347=DIRECTION('',(0.,0.,1.));
#1348=DIRECTION('',(0.999999999994925,0.,-3.18597220061881E-6));
#1349=DIRECTION('center_axis',(-1.,0.,0.));
#1350=DIRECTION('ref_axis',(0.,0.,1.));
#1351=DIRECTION('',(0.,0.,-1.));
#1352=DIRECTION('center_axis',(0.,1.,0.));
#1353=DIRECTION('ref_axis',(-1.,0.,0.));
#1354=DIRECTION('',(0.999999999994925,0.,-3.18597220061881E-6));
#1355=DIRECTION('center_axis',(0.,1.,0.));
#1356=DIRECTION('ref_axis',(-0.00713648536083866,0.,0.999974534964113));
#1357=DIRECTION('center_axis',(3.18597220061881E-6,0.,0.999999999994925));
#1358=DIRECTION('ref_axis',(0.999999999994925,0.,-3.18597220061881E-6));
#1359=DIRECTION('',(0.,1.,0.));
#1360=DIRECTION('center_axis',(0.,1.,0.));
#1361=DIRECTION('ref_axis',(-0.00713648536083866,0.,0.999974534964113));
#1362=DIRECTION('center_axis',(-1.,0.,0.));
#1363=DIRECTION('ref_axis',(0.,0.,-1.));
#1364=DIRECTION('',(0.,-1.,0.));
#1365=DIRECTION('',(0.,0.,-1.));
#1366=DIRECTION('',(0.,-1.,0.));
#1367=DIRECTION('center_axis',(1.,0.,0.));
#1368=DIRECTION('ref_axis',(0.,0.,-1.));
#1369=DIRECTION('center_axis',(0.,-1.,0.));
#1370=DIRECTION('ref_axis',(1.,0.,-1.22464679914735E-16));
#1371=DIRECTION('',(0.,-1.,0.));
#1372=DIRECTION('center_axis',(0.,1.,0.));
#1373=DIRECTION('ref_axis',(-1.,0.,0.));
#1374=DIRECTION('center_axis',(-1.,0.,0.));
#1375=DIRECTION('ref_axis',(0.,0.,-1.));
#1376=DIRECTION('',(0.,-1.,0.));
#1377=DIRECTION('',(0.,0.,-1.));
#1378=DIRECTION('center_axis',(0.,0.,1.));
#1379=DIRECTION('ref_axis',(-1.,0.,0.));
#1380=DIRECTION('',(0.,-1.,0.));
#1381=DIRECTION('',(-1.,0.,0.));
#1382=DIRECTION('center_axis',(1.,0.,0.));
#1383=DIRECTION('ref_axis',(0.,0.,1.));
#1384=DIRECTION('center_axis',(-1.,0.,0.));
#1385=DIRECTION('ref_axis',(0.,0.,1.));
#1386=DIRECTION('',(-1.,0.,0.));
#1387=DIRECTION('center_axis',(-1.,0.,0.));
#1388=DIRECTION('ref_axis',(0.,0.,1.));
#1389=DIRECTION('center_axis',(-1.,0.,0.));
#1390=DIRECTION('ref_axis',(0.,0.,-1.));
#1391=DIRECTION('center_axis',(1.,0.,0.));
#1392=DIRECTION('ref_axis',(0.,0.,1.));
#1393=DIRECTION('center_axis',(-1.,0.,0.));
#1394=DIRECTION('ref_axis',(0.,0.,1.));
#1395=DIRECTION('',(1.,0.,0.));
#1396=DIRECTION('center_axis',(-1.,0.,0.));
#1397=DIRECTION('ref_axis',(0.,0.,1.));
#1398=DIRECTION('center_axis',(1.,0.,0.));
#1399=DIRECTION('ref_axis',(0.,0.,-1.));
#1400=DIRECTION('center_axis',(1.,0.,0.));
#1401=DIRECTION('ref_axis',(0.,0.,-1.));
#1402=DIRECTION('',(1.,0.,0.));
#1403=DIRECTION('center_axis',(1.,0.,0.));
#1404=DIRECTION('ref_axis',(0.,0.,-1.));
#1405=DIRECTION('',(1.,0.,0.));
#1406=DIRECTION('center_axis',(-1.,0.,0.));
#1407=DIRECTION('ref_axis',(0.,0.,-1.));
#1408=DIRECTION('center_axis',(1.,0.,0.));
#1409=DIRECTION('ref_axis',(0.,0.,1.));
#1410=DIRECTION('',(0.,-1.,0.));
#1411=DIRECTION('',(0.,0.,1.));
#1412=DIRECTION('center_axis',(0.,-1.,0.));
#1413=DIRECTION('ref_axis',(-1.,0.,0.));
#1414=DIRECTION('',(0.,-1.,0.));
#1415=DIRECTION('center_axis',(0.,1.,0.));
#1416=DIRECTION('ref_axis',(-1.,0.,0.));
#1417=DIRECTION('center_axis',(1.,0.,0.));
#1418=DIRECTION('ref_axis',(0.,0.,1.));
#1419=DIRECTION('',(0.,-1.,0.));
#1420=DIRECTION('',(0.,0.,1.));
#1421=DIRECTION('center_axis',(0.,-1.,0.));
#1422=DIRECTION('ref_axis',(3.82856869892695E-16,0.,-1.));
#1423=DIRECTION('center_axis',(0.,-1.,0.));
#1424=DIRECTION('ref_axis',(-1.,0.,0.));
#1425=DIRECTION('center_axis',(0.,1.,0.));
#1426=DIRECTION('ref_axis',(-1.,0.,0.));
#1427=DIRECTION('',(0.,0.,1.));
#1428=DIRECTION('',(1.,0.,0.));
#1429=DIRECTION('',(0.,0.,1.));
#1430=DIRECTION('',(1.,0.,0.));
#1431=DIRECTION('',(0.,0.,1.));
#1432=DIRECTION('',(1.,0.,0.));
#1433=CARTESIAN_POINT('',(0.,0.,0.));
#1434=CARTESIAN_POINT('',(0.,0.,0.));
#1435=CARTESIAN_POINT('',(0.,0.,0.));
#1436=CARTESIAN_POINT('Origin',(-370.,-27.,-1.71450551880629E-14));
#1437=CARTESIAN_POINT('',(-366.,-27.,-1.6655196468404E-14));
#1438=CARTESIAN_POINT('',(-370.,-27.,3.99999999999997));
#1439=CARTESIAN_POINT('Origin',(-370.,-27.,-1.71450551880629E-14));
#1440=CARTESIAN_POINT('',(-370.,-29.,5.99999999999997));
#1441=CARTESIAN_POINT('Origin',(-370.,-27.,5.99999999999997));
#1442=CARTESIAN_POINT('Origin',(-370.,-29.,-1.71450551880629E-14));
#1443=CARTESIAN_POINT('Origin',(-370.,-27.,-1.71450551880629E-14));
#1444=CARTESIAN_POINT('Origin',(-230.,-29.,-1.77635683940025E-14));
#1445=CARTESIAN_POINT('',(-240.,-29.0000004321337,34.9995858237915));
#1446=CARTESIAN_POINT('',(-240.,-29.0000004321337,-34.9983447095268));
#1447=CARTESIAN_POINT('',(-240.,-29.,2.60770305349212E-7));
#1448=CARTESIAN_POINT('',(-369.999554344109,-29.,-34.9999999971627));
#1449=CARTESIAN_POINT('',(-89.5,-29.,-34.9964283891942));
#1450=CARTESIAN_POINT('',(-369.999888491068,-29.,34.9999999998223));
#1451=CARTESIAN_POINT('Origin',(-370.,-29.,-1.71450551880629E-14));
#1452=CARTESIAN_POINT('',(-89.75,-29.,34.9991071314684));
#1453=CARTESIAN_POINT('Origin',(-370.,-29.,-1.71450551880629E-14));
#1454=CARTESIAN_POINT('',(-366.,26.,-1.76349139077219E-14));
#1455=CARTESIAN_POINT('Origin',(-370.,26.,-1.71450551880629E-14));
#1456=CARTESIAN_POINT('',(-366.,-29.,-1.76349139077219E-14));
#1457=CARTESIAN_POINT('Origin',(-370.,26.,-1.72084568816899E-14));
#1458=CARTESIAN_POINT('Origin',(-235.,-29.,5.21540628461992E-7));
#1459=CARTESIAN_POINT('',(-233.3,-34.0000004321337,5.21540628670182E-7));
#1460=CARTESIAN_POINT('Origin',(-235.,-34.0000004321337,5.21540628461992E-7));
#1461=CARTESIAN_POINT('',(-233.3,-39.,5.21540628253802E-7));
#1462=CARTESIAN_POINT('',(-233.3,-29.,5.21540628670182E-7));
#1463=CARTESIAN_POINT('Origin',(-235.,-39.,5.21540628461992E-7));
#1464=CARTESIAN_POINT('Origin',(-235.,-29.,-29.9999994784594));
#1465=CARTESIAN_POINT('',(-233.3,-34.0000004321337,-29.9999994784594));
#1466=CARTESIAN_POINT('Origin',(-235.,-34.0000004321337,-29.9999994784594));
#1467=CARTESIAN_POINT('',(-233.3,-39.,-29.9999994784594));
#1468=CARTESIAN_POINT('',(-233.3,-29.,-29.9999994784594));
#1469=CARTESIAN_POINT('Origin',(-235.,-39.,-29.9999994784594));
#1470=CARTESIAN_POINT('Origin',(-235.,-29.,30.0000005215406));
#1471=CARTESIAN_POINT('',(-233.3,-34.0000004321337,30.0000005215406));
#1472=CARTESIAN_POINT('Origin',(-235.,-34.0000004321337,30.0000005215406));
#1473=CARTESIAN_POINT('',(-233.3,-39.,30.0000005215406));
#1474=CARTESIAN_POINT('',(-233.3,-29.,30.0000005215406));
#1475=CARTESIAN_POINT('Origin',(-235.,-39.,30.0000005215406));
#1476=CARTESIAN_POINT('Origin',(-225.,-29.,5.21540628461992E-7));
#1477=CARTESIAN_POINT('',(-223.3,-34.0000004321337,5.21540628670182E-7));
#1478=CARTESIAN_POINT('Origin',(-225.,-34.0000004321337,5.21540628461992E-7));
#1479=CARTESIAN_POINT('',(-223.3,-39.,5.21540628253802E-7));
#1480=CARTESIAN_POINT('',(-223.3,-29.,5.21540628670182E-7));
#1481=CARTESIAN_POINT('Origin',(-225.,-39.,5.21540628461992E-7));
#1482=CARTESIAN_POINT('Origin',(-225.,-29.,-29.9999994784594));
#1483=CARTESIAN_POINT('',(-223.3,-34.0000004321337,-29.9999994784594));
#1484=CARTESIAN_POINT('Origin',(-225.,-34.0000004321337,-29.9999994784594));
#1485=CARTESIAN_POINT('',(-223.3,-39.,-29.9999994784594));
#1486=CARTESIAN_POINT('',(-223.3,-29.,-29.9999994784594));
#1487=CARTESIAN_POINT('Origin',(-225.,-39.,-29.9999994784594));
#1488=CARTESIAN_POINT('Origin',(-225.,-29.,30.0000005215406));
#1489=CARTESIAN_POINT('',(-223.3,-34.0000004321337,30.0000005215406));
#1490=CARTESIAN_POINT('Origin',(-225.,-34.0000004321337,30.0000005215406));
#1491=CARTESIAN_POINT('',(-223.3,-39.,30.0000005215406));
#1492=CARTESIAN_POINT('',(-223.3,-29.,30.0000005215406));
#1493=CARTESIAN_POINT('Origin',(-225.,-39.,30.0000005215406));
#1494=CARTESIAN_POINT('Origin',(-230.,-39.,-34.9982173792721));
#1495=CARTESIAN_POINT('',(-230.,-39.,-34.9982173792721));
#1496=CARTESIAN_POINT('',(-230.,-34.0000004321337,-34.9982173792721));
#1497=CARTESIAN_POINT('',(-230.,-32.25,-34.9982173792721));
#1498=CARTESIAN_POINT('',(-220.,-34.0000004321337,-34.9982173792721));
#1499=CARTESIAN_POINT('',(-230.,-34.0000004321337,-34.9982173792721));
#1500=CARTESIAN_POINT('',(-220.,-39.,-34.9982173792721));
#1501=CARTESIAN_POINT('',(-220.,-32.25,-34.9982173792721));
#1502=CARTESIAN_POINT('',(-230.,-39.,-34.9982173792721));
#1503=CARTESIAN_POINT('Origin',(-230.,-34.0000004321337,34.9995539640695));
#1504=CARTESIAN_POINT('',(-230.,-34.0000004321337,34.9995539640695));
#1505=CARTESIAN_POINT('',(-230.,-39.,34.9995539640695));
#1506=CARTESIAN_POINT('',(-230.,-32.25,34.9995539640695));
#1507=CARTESIAN_POINT('',(-220.,-39.,34.9995539640695));
#1508=CARTESIAN_POINT('',(-230.,-39.,34.9995539640695));
#1509=CARTESIAN_POINT('',(-220.,-34.0000004321337,34.9995539640695));
#1510=CARTESIAN_POINT('',(-220.,-32.25,34.9995539640695));
#1511=CARTESIAN_POINT('',(-230.,-34.0000004321337,34.9995539640695));
#1512=CARTESIAN_POINT('Origin',(-220.,-25.5,-1.77635683940025E-14));
#1513=CARTESIAN_POINT('',(-220.,-34.0000004321337,-17.4999997392297));
#1514=CARTESIAN_POINT('',(-220.,-39.,-1.77635683940025E-14));
#1515=CARTESIAN_POINT('Origin',(-240.,-31.5000004321337,5.21540628461992E-7));
#1516=CARTESIAN_POINT('',(-240.,-34.0000004321337,34.9995858237915));
#1517=CARTESIAN_POINT('',(-240.,-35.2500002160668,34.9995858237915));
#1518=CARTESIAN_POINT('',(-240.,-34.0000004321337,-34.9983447095268));
#1519=CARTESIAN_POINT('',(-240.,-34.0000004321337,-34.9999994784594));
#1520=CARTESIAN_POINT('',(-240.,-35.2500002160668,-34.9983447095268));
#1521=CARTESIAN_POINT('Origin',(-230.,-34.0000004321337,-34.9999994784594));
#1522=CARTESIAN_POINT('',(-299.999832737171,-34.0000004321337,34.9997769815907));
#1523=CARTESIAN_POINT('',(-159.750000011346,-34.0000004321337,-34.9973228842333));
#1524=CARTESIAN_POINT('Origin',(-89.5,-39.,-34.9964283891942));
#1525=CARTESIAN_POINT('',(-369.999554344109,-39.,-34.9999999971627));
#1526=CARTESIAN_POINT('',(-89.5,-39.,-34.9964283891942));
#1527=CARTESIAN_POINT('',(-369.999554344109,-39.,-34.9999999971627));
#1528=CARTESIAN_POINT('Origin',(-370.,-39.,-1.71450551880629E-14));
#1529=CARTESIAN_POINT('',(-369.999888491068,-39.,34.9999999998223));
#1530=CARTESIAN_POINT('Origin',(-370.,-39.,-1.71450551880629E-14));
#1531=CARTESIAN_POINT('',(-369.999888491068,-39.,34.9999999998223));
#1532=CARTESIAN_POINT('Origin',(-369.999888490973,-39.,34.9999999998223));
#1533=CARTESIAN_POINT('',(-89.75,-39.,34.9991071314684));
#1534=CARTESIAN_POINT('Origin',(-230.,-39.,-1.77635683940025E-14));
#1535=CARTESIAN_POINT('',(0.,0.,0.));
#1536=CARTESIAN_POINT('Origin',(-90.,-42.,0.));
#1537=CARTESIAN_POINT('',(-90.5,-42.,12.4899959967968));
#1538=CARTESIAN_POINT('',(-90.5,-39.,15.4919333848297));
#1539=CARTESIAN_POINT('Ctrl Pts',(-90.5,-42.,12.4899959967968));
#1540=CARTESIAN_POINT('Ctrl Pts',(-90.5,-41.6298430327362,12.4899959967968));
#1541=CARTESIAN_POINT('Ctrl Pts',(-90.5,-41.194200055849,12.5767052609202));
#1542=CARTESIAN_POINT('Ctrl Pts',(-90.5,-40.5101483801729,12.8601826652377));
#1543=CARTESIAN_POINT('Ctrl Pts',(-90.5,-40.1407364904599,13.1071595636369));
#1544=CARTESIAN_POINT('Ctrl Pts',(-90.5,-39.617061041073,13.6310682897497));
#1545=CARTESIAN_POINT('Ctrl Pts',(-90.5,-39.370173694482,14.0007433864066));
#1546=CARTESIAN_POINT('Ctrl Pts',(-90.5,-39.0867111449309,14.6853401092428));
#1547=CARTESIAN_POINT('Ctrl Pts',(-90.5,-39.,15.1214194578432));
#1548=CARTESIAN_POINT('Ctrl Pts',(-90.5,-39.,15.4919333848297));
#1549=CARTESIAN_POINT('',(-89.5,-39.,15.4919333848297));
#1550=CARTESIAN_POINT('Origin',(-90.,-39.,0.));
#1551=CARTESIAN_POINT('',(-89.5,-42.,12.4899959967968));
#1552=CARTESIAN_POINT('Ctrl Pts',(-89.5,-39.,15.4919333848297));
#1553=CARTESIAN_POINT('Ctrl Pts',(-89.5,-39.,15.1214194578432));
#1554=CARTESIAN_POINT('Ctrl Pts',(-89.5,-39.0867111449309,14.6853401092428));
#1555=CARTESIAN_POINT('Ctrl Pts',(-89.5,-39.370173694482,14.0007433864066));
#1556=CARTESIAN_POINT('Ctrl Pts',(-89.5,-39.617061041073,13.6310682897497));
#1557=CARTESIAN_POINT('Ctrl Pts',(-89.5,-40.1407364904599,13.1071595636369));
#1558=CARTESIAN_POINT('Ctrl Pts',(-89.5,-40.5101483801729,12.8601826652377));
#1559=CARTESIAN_POINT('Ctrl Pts',(-89.5,-41.194200055849,12.5767052609202));
#1560=CARTESIAN_POINT('Ctrl Pts',(-89.5,-41.6298430327362,12.4899959967968));
#1561=CARTESIAN_POINT('Ctrl Pts',(-89.5,-42.,12.4899959967968));
#1562=CARTESIAN_POINT('Origin',(-90.,-42.,0.));
#1563=CARTESIAN_POINT('Origin',(-90.,-39.,0.));
#1564=CARTESIAN_POINT('',(-220.,-39.,34.9995221043475));
#1565=CARTESIAN_POINT('',(-220.,-39.,-34.9980900490175));
#1566=CARTESIAN_POINT('',(-220.,-39.,-1.77635683940025E-14));
#1567=CARTESIAN_POINT('',(-89.5,-39.,-34.9964283891942));
#1568=CARTESIAN_POINT('',(-89.5,-39.,-34.9964283891942));
#1569=CARTESIAN_POINT('',(-89.75,-39.,34.9991071314684));
#1570=CARTESIAN_POINT('Origin',(-90.,-39.,0.));
#1571=CARTESIAN_POINT('',(-89.75,-39.,34.9991071314684));
#1572=CARTESIAN_POINT('',(-89.5,-39.,4.14495174881446));
#1573=CARTESIAN_POINT('',(-89.5,-39.,6.24499799839839));
#1574=CARTESIAN_POINT('',(-90.5,-39.,4.14495174881446));
#1575=CARTESIAN_POINT('',(-90.5,-39.,2.07247587440723));
#1576=CARTESIAN_POINT('',(-90.5,-39.,-4.14495174881446));
#1577=CARTESIAN_POINT('Origin',(-90.,-39.,0.));
#1578=CARTESIAN_POINT('',(-90.5,-39.,-10.5));
#1579=CARTESIAN_POINT('',(-90.5,-39.,-5.25));
#1580=CARTESIAN_POINT('',(-89.5,-39.,-10.5));
#1581=CARTESIAN_POINT('',(-89.75,-39.,-10.5));
#1582=CARTESIAN_POINT('',(-89.5,-39.,-4.14495174881446));
#1583=CARTESIAN_POINT('',(-89.5,-39.,-2.07247587440723));
#1584=CARTESIAN_POINT('Origin',(-90.,-39.,0.));
#1585=CARTESIAN_POINT('Origin',(-235.,-29.,5.21540628461992E-7));
#1586=CARTESIAN_POINT('',(-233.3,-29.,5.21540628253802E-7));
#1587=CARTESIAN_POINT('Origin',(-235.,-29.,5.21540628461992E-7));
#1588=CARTESIAN_POINT('',(-233.3,-34.0000004321337,5.21540628253802E-7));
#1589=CARTESIAN_POINT('',(-233.3,-29.,5.21540628670182E-7));
#1590=CARTESIAN_POINT('Origin',(-235.,-34.0000004321337,5.21540628461992E-7));
#1591=CARTESIAN_POINT('Origin',(-235.,-29.,-29.9999994784594));
#1592=CARTESIAN_POINT('',(-233.3,-29.,-29.9999994784594));
#1593=CARTESIAN_POINT('Origin',(-235.,-29.,-29.9999994784594));
#1594=CARTESIAN_POINT('',(-233.3,-34.0000004321337,-29.9999994784594));
#1595=CARTESIAN_POINT('',(-233.3,-29.,-29.9999994784594));
#1596=CARTESIAN_POINT('Origin',(-235.,-34.0000004321337,-29.9999994784594));
#1597=CARTESIAN_POINT('Origin',(-235.,-29.,30.0000005215406));
#1598=CARTESIAN_POINT('',(-233.3,-29.,30.0000005215406));
#1599=CARTESIAN_POINT('Origin',(-235.,-29.,30.0000005215406));
#1600=CARTESIAN_POINT('',(-233.3,-34.0000004321337,30.0000005215406));
#1601=CARTESIAN_POINT('',(-233.3,-29.,30.0000005215406));
#1602=CARTESIAN_POINT('Origin',(-235.,-34.0000004321337,30.0000005215406));
#1603=CARTESIAN_POINT('Origin',(-225.,-29.,5.21540628461992E-7));
#1604=CARTESIAN_POINT('',(-223.3,-29.,5.21540628253802E-7));
#1605=CARTESIAN_POINT('Origin',(-225.,-29.,5.21540628461992E-7));
#1606=CARTESIAN_POINT('',(-223.3,-34.0000004321337,5.21540628253802E-7));
#1607=CARTESIAN_POINT('',(-223.3,-29.,5.21540628670182E-7));
#1608=CARTESIAN_POINT('Origin',(-225.,-34.0000004321337,5.21540628461992E-7));
#1609=CARTESIAN_POINT('Origin',(-225.,-29.,-29.9999994784594));
#1610=CARTESIAN_POINT('',(-223.3,-29.,-29.9999994784594));
#1611=CARTESIAN_POINT('Origin',(-225.,-29.,-29.9999994784594));
#1612=CARTESIAN_POINT('',(-223.3,-34.0000004321337,-29.9999994784594));
#1613=CARTESIAN_POINT('',(-223.3,-29.,-29.9999994784594));
#1614=CARTESIAN_POINT('Origin',(-225.,-34.0000004321337,-29.9999994784594));
#1615=CARTESIAN_POINT('Origin',(-225.,-29.,30.0000005215406));
#1616=CARTESIAN_POINT('',(-223.3,-29.,30.0000005215406));
#1617=CARTESIAN_POINT('Origin',(-225.,-29.,30.0000005215406));
#1618=CARTESIAN_POINT('',(-223.3,-34.0000004321337,30.0000005215406));
#1619=CARTESIAN_POINT('',(-223.3,-29.,30.0000005215406));
#1620=CARTESIAN_POINT('Origin',(-225.,-34.0000004321337,30.0000005215406));
#1621=CARTESIAN_POINT('Origin',(-220.,-25.5,-1.77635683940025E-14));
#1622=CARTESIAN_POINT('',(-220.,-34.0000004321337,34.9995221043475));
#1623=CARTESIAN_POINT('',(-220.,-32.25,34.9995221043475));
#1624=CARTESIAN_POINT('',(-220.,-34.0000004321337,-34.9980900490175));
#1625=CARTESIAN_POINT('',(-220.,-34.0000004321337,-17.4999997392297));
#1626=CARTESIAN_POINT('',(-220.,-32.25,-34.9980900490175));
#1627=CARTESIAN_POINT('Origin',(-89.5,-39.,-34.9964283891942));
#1628=CARTESIAN_POINT('',(-230.,-34.0000004321337,-34.9982173792721));
#1629=CARTESIAN_POINT('',(-159.75,-34.0000004321337,-34.9973228842332));
#1630=CARTESIAN_POINT('',(-230.,-29.,-34.9982173792721));
#1631=CARTESIAN_POINT('',(-230.,-32.25,-34.9982173792721));
#1632=CARTESIAN_POINT('',(-89.5,-29.,-34.9964283891942));
#1633=CARTESIAN_POINT('',(-89.5,-29.,-34.9964283891942));
#1634=CARTESIAN_POINT('',(-89.5,-39.,-34.9964283891942));
#1635=CARTESIAN_POINT('Origin',(-230.,-31.5000004321337,5.2154062770123E-7));
#1636=CARTESIAN_POINT('',(-230.,-34.0000004321337,-34.9999994784594));
#1637=CARTESIAN_POINT('',(-230.,-34.0000004321337,-34.9999994784594));
#1638=CARTESIAN_POINT('',(-230.,-29.0000004321337,-34.9999994784594));
#1639=CARTESIAN_POINT('',(-230.,-29.0000004321337,-34.9999994784594));
#1640=CARTESIAN_POINT('',(-230.,-29.0000004321337,35.0000005215406));
#1641=CARTESIAN_POINT('Origin',(-230.,-29.0000004321337,-34.9999994784594));
#1642=CARTESIAN_POINT('',(-240.,-34.0000004321337,-34.9999994784594));
#1643=CARTESIAN_POINT('',(-230.,-34.0000004321337,-34.9999994784594));
#1644=CARTESIAN_POINT('',(-240.,-29.0000004321337,-34.9999994784594));
#1645=CARTESIAN_POINT('',(-240.,-29.0000004321337,-34.9999994784594));
#1646=CARTESIAN_POINT('',(-230.,-29.0000004321337,-34.9999994784594));
#1647=CARTESIAN_POINT('Origin',(-230.,-34.0000004321337,35.0000005215406));
#1648=CARTESIAN_POINT('',(-230.,-29.0000000000001,34.9995539641741));
#1649=CARTESIAN_POINT('',(-230.,-34.0000004321337,34.9995539640695));
#1650=CARTESIAN_POINT('',(-230.,-32.25,34.9995539640695));
#1651=CARTESIAN_POINT('',(-240.,-29.0000004321337,35.0000005215406));
#1652=CARTESIAN_POINT('',(-230.,-29.0000004321337,35.0000005215406));
#1653=CARTESIAN_POINT('',(-240.,-34.0000004321337,35.0000005215406));
#1654=CARTESIAN_POINT('',(-240.,-34.0000004321337,35.0000005215406));
#1655=CARTESIAN_POINT('',(-230.,-34.0000004321337,35.0000005215406));
#1656=CARTESIAN_POINT('Origin',(-230.,-34.0000004321337,-34.9999994784594));
#1657=CARTESIAN_POINT('',(-240.,-34.0000004321337,-34.9999994784594));
#1658=CARTESIAN_POINT('',(-299.99983274001,-34.0000004321337,34.9997769815907));
#1659=CARTESIAN_POINT('Origin',(-240.,-31.5000004321337,5.21540628461992E-7));
#1660=CARTESIAN_POINT('',(-240.,-29.0000004321337,35.0000005215406));
#1661=CARTESIAN_POINT('Origin',(-230.,-29.,-1.77635683940025E-14));
#1662=CARTESIAN_POINT('',(-89.75,-29.,34.9991071314684));
#1663=CARTESIAN_POINT('',(-89.75,-29.,34.9991071314684));
#1664=CARTESIAN_POINT('Origin',(-90.,-29.,0.));
#1665=CARTESIAN_POINT('Origin',(-369.999888490973,-39.,34.9999999998223));
#1666=CARTESIAN_POINT('',(-89.75,-39.,34.9991071314684));
#1667=CARTESIAN_POINT('Origin',(-90.,-39.,0.));
#1668=CARTESIAN_POINT('Origin',(-89.5,-29.,12.4899959967968));
#1669=CARTESIAN_POINT('',(-89.5,-69.,4.14495174881446));
#1670=CARTESIAN_POINT('',(-89.5,-29.,4.14495174881446));
#1671=CARTESIAN_POINT('',(-89.5,-69.,12.4899959967968));
#1672=CARTESIAN_POINT('',(-89.5,-69.,0.));
#1673=CARTESIAN_POINT('',(-89.5,-29.,12.4899959967968));
#1674=CARTESIAN_POINT('',(-89.5,-65.0000010281801,10.2000001862645));
#1675=CARTESIAN_POINT('Origin',(-89.5,-65.0000010281801,8.50000018626451));
#1676=CARTESIAN_POINT('Origin',(-90.,-29.,0.));
#1677=CARTESIAN_POINT('',(-89.5,-69.,-4.14495174881446));
#1678=CARTESIAN_POINT('',(-89.5,-29.,-4.14495174881446));
#1679=CARTESIAN_POINT('Origin',(-90.,-69.,0.));
#1680=CARTESIAN_POINT('Origin',(-89.5,-29.,-4.14495174881446));
#1681=CARTESIAN_POINT('',(-89.5,-69.,-10.5));
#1682=CARTESIAN_POINT('',(-89.5,-29.,-10.5));
#1683=CARTESIAN_POINT('',(-89.5,-69.,0.));
#1684=CARTESIAN_POINT('Origin',(-89.5,-29.,-10.5));
#1685=CARTESIAN_POINT('',(-90.5,-69.,-10.5));
#1686=CARTESIAN_POINT('',(-90.5,-29.,-10.5));
#1687=CARTESIAN_POINT('',(-89.5,-69.,-10.5));
#1688=CARTESIAN_POINT('Origin',(-93.5,-65.0000010281801,8.50000018626451));
#1689=CARTESIAN_POINT('',(-93.5,-65.0000010281801,5.50000018626452));
#1690=CARTESIAN_POINT('Origin',(-93.5,-65.0000010281801,8.50000018626451));
#1691=CARTESIAN_POINT('',(-101.224972069056,-65.0000010281801,5.50000018626452));
#1692=CARTESIAN_POINT('',(-93.5,-65.0000010281801,5.50000018626452));
#1693=CARTESIAN_POINT('',(-94.8989790483239,-65.0000010281801,11.5000001862645));
#1694=CARTESIAN_POINT('Ctrl Pts',(-94.8989790483239,-65.0000010281801,11.5000001862645));
#1695=CARTESIAN_POINT('Ctrl Pts',(-94.8989790483239,-65.2105571398286,11.5000001862645));
#1696=CARTESIAN_POINT('Ctrl Pts',(-94.9499736805008,-65.4031145974796,11.4784876266685));
#1697=CARTESIAN_POINT('Ctrl Pts',(-95.1128825309676,-65.7642528655864,11.4068553873069));
#1698=CARTESIAN_POINT('Ctrl Pts',(-95.2252022110376,-65.9325852808251,11.3564066920239));
#1699=CARTESIAN_POINT('Ctrl Pts',(-95.6153479372777,-66.4066146824302,11.1714248563098));
#1700=CARTESIAN_POINT('Ctrl Pts',(-95.9442007202991,-66.6793691531807,11.0020680742358));
#1701=CARTESIAN_POINT('Ctrl Pts',(-96.7169200739059,-67.2255051348701,10.5554441632677));
#1702=CARTESIAN_POINT('Ctrl Pts',(-97.2372492943017,-67.503126418804,10.2121097117879));
#1703=CARTESIAN_POINT('Ctrl Pts',(-98.2486680471818,-67.8916191729396,9.41405558081972));
#1704=CARTESIAN_POINT('Ctrl Pts',(-98.7399946195356,-68.0000010281801,8.95842658895413));
#1705=CARTESIAN_POINT('Ctrl Pts',(-99.4881071328401,-68.0000010281801,8.15177198170259));
#1706=CARTESIAN_POINT('Ctrl Pts',(-99.8158910178381,-67.9356984299428,7.75419919296601));
#1707=CARTESIAN_POINT('Ctrl Pts',(-100.380374905871,-67.6202311812874,6.9804824370805));
#1708=CARTESIAN_POINT('Ctrl Pts',(-100.617848166722,-67.3676085740752,6.60549838592509));
#1709=CARTESIAN_POINT('Ctrl Pts',(-100.93010195413,-66.7936879569357,6.0709306223888));
#1710=CARTESIAN_POINT('Ctrl Pts',(-101.043327986358,-66.472789930206,5.85838697863052));
#1711=CARTESIAN_POINT('Ctrl Pts',(-101.190188638794,-65.7605247790892,5.57274325766373));
#1712=CARTESIAN_POINT('Ctrl Pts',(-101.224972069056,-65.3692518647723,5.50000018626452));
#1713=CARTESIAN_POINT('Ctrl Pts',(-101.224972069056,-65.0000010281801,5.50000018626452));
#1714=CARTESIAN_POINT('Ctrl Pts',(-101.224972069056,-65.0000010281801,5.50000018626452));
#1715=CARTESIAN_POINT('Ctrl Pts',(-101.224972069056,-64.6307501915879,5.50000018626452));
#1716=CARTESIAN_POINT('Ctrl Pts',(-101.190188638794,-64.239477277271,5.57274325766373));
#1717=CARTESIAN_POINT('Ctrl Pts',(-101.043327986358,-63.5272121261543,5.85838697863052));
#1718=CARTESIAN_POINT('Ctrl Pts',(-100.93010195413,-63.2063140994246,6.0709306223888));
#1719=CARTESIAN_POINT('Ctrl Pts',(-100.617848166722,-62.6323934822851,6.60549838592509));
#1720=CARTESIAN_POINT('Ctrl Pts',(-100.380374905871,-62.3797708750729,6.98048243708048));
#1721=CARTESIAN_POINT('Ctrl Pts',(-99.8158910178381,-62.0643036264175,7.754199192966));
#1722=CARTESIAN_POINT('Ctrl Pts',(-99.4881071328401,-62.0000010281801,8.15177198170259));
#1723=CARTESIAN_POINT('Ctrl Pts',(-98.7399946195356,-62.0000010281801,8.95842658895413));
#1724=CARTESIAN_POINT('Ctrl Pts',(-98.2486680471818,-62.1083828834207,9.41405558081971));
#1725=CARTESIAN_POINT('Ctrl Pts',(-97.2372492943017,-62.4968756375562,10.2121097117879));
#1726=CARTESIAN_POINT('Ctrl Pts',(-96.7169200739059,-62.7744969214901,10.5554441632677));
#1727=CARTESIAN_POINT('Ctrl Pts',(-95.9442007202991,-63.3206329031796,11.0020680742358));
#1728=CARTESIAN_POINT('Ctrl Pts',(-95.6153479372777,-63.5933873739301,11.1714248563098));
#1729=CARTESIAN_POINT('Ctrl Pts',(-95.2252022110376,-64.0674167755351,11.3564066920239));
#1730=CARTESIAN_POINT('Ctrl Pts',(-95.1128825309676,-64.2357491907739,11.4068553873069));
#1731=CARTESIAN_POINT('Ctrl Pts',(-94.9499736805008,-64.5968874588806,11.4784876266685));
#1732=CARTESIAN_POINT('Ctrl Pts',(-94.8989790483239,-64.7894449165316,11.5000001862645));
#1733=CARTESIAN_POINT('Ctrl Pts',(-94.8989790483239,-65.0000010281801,11.5000001862645));
#1734=CARTESIAN_POINT('Origin',(-93.5,-65.0000010281801,8.50000018626451));
#1735=CARTESIAN_POINT('',(-93.5,-65.0000010281801,10.2000001862645));
#1736=CARTESIAN_POINT('Origin',(-93.5,-65.0000010281801,8.50000018626451));
#1737=CARTESIAN_POINT('Origin',(-86.5,-65.0000010281801,8.50000018626451));
#1738=CARTESIAN_POINT('',(-86.5,-65.0000010281801,5.50000018626452));
#1739=CARTESIAN_POINT('Origin',(-86.5,-65.0000010281801,8.50000018626451));
#1740=CARTESIAN_POINT('',(-78.7750279309439,-65.0000010281801,5.50000018626452));
#1741=CARTESIAN_POINT('',(-86.5,-65.0000010281801,5.50000018626452));
#1742=CARTESIAN_POINT('',(-85.1010209516761,-65.0000010281801,11.5000001862645));
#1743=CARTESIAN_POINT('Ctrl Pts',(-85.1010209516761,-65.0000010281801,11.5000001862645));
#1744=CARTESIAN_POINT('Ctrl Pts',(-85.1010209516761,-64.8349237876309,11.5000001862645));
#1745=CARTESIAN_POINT('Ctrl Pts',(-85.0662663057485,-64.6609310271784,11.4853400815274));
#1746=CARTESIAN_POINT('Ctrl Pts',(-84.9397218029349,-64.3355915765444,11.4301508867287));
#1747=CARTESIAN_POINT('Ctrl Pts',(-84.8494233646213,-64.1836030303445,11.3899984065938));
#1748=CARTESIAN_POINT('Ctrl Pts',(-84.4898008638878,-63.6833599897355,11.2238118545511));
#1749=CARTESIAN_POINT('Ctrl Pts',(-84.1292963246186,-63.3735176699273,11.0441478846663));
#1750=CARTESIAN_POINT('Ctrl Pts',(-83.3774260184754,-62.8402600165121,10.6103669653035));
#1751=CARTESIAN_POINT('Ctrl Pts',(-82.983574650935,-62.6217502102426,10.354546909753));
#1752=CARTESIAN_POINT('Ctrl Pts',(-82.2548838103676,-62.2881613607149,9.8221009621831));
#1753=CARTESIAN_POINT('Ctrl Pts',(-81.8539372469967,-62.146501899659,9.49555877848184));
#1754=CARTESIAN_POINT('Ctrl Pts',(-81.0886102084754,-61.990936693142,8.78129304810958));
#1755=CARTESIAN_POINT('Ctrl Pts',(-80.7242780506067,-61.9782735141062,8.39324767981652));
#1756=CARTESIAN_POINT('Ctrl Pts',(-80.153406302665,-62.088649410666,7.71090185202946));
#1757=CARTESIAN_POINT('Ctrl Pts',(-79.8932320790371,-62.1975388688939,7.36608468292217));
#1758=CARTESIAN_POINT('Ctrl Pts',(-79.4484121302766,-62.5612151637276,6.71341587730462));
#1759=CARTESIAN_POINT('Ctrl Pts',(-79.2630695506432,-62.8170867499285,6.40664469677619));
#1760=CARTESIAN_POINT('Ctrl Pts',(-79.0152127059448,-63.3586069731528,5.96952783984166));
#1761=CARTESIAN_POINT('Ctrl Pts',(-78.9229092771463,-63.6597455844548,5.79356893703707));
#1762=CARTESIAN_POINT('Ctrl Pts',(-78.8031834156714,-64.314755632661,5.55865786086781));
#1763=CARTESIAN_POINT('Ctrl Pts',(-78.7750279309439,-64.6685984585601,5.50000018626452));
#1764=CARTESIAN_POINT('Ctrl Pts',(-78.7750279309439,-65.0000010281801,5.50000018626452));
#1765=CARTESIAN_POINT('Ctrl Pts',(-78.7750279309439,-65.0000010281801,5.50000018626452));
#1766=CARTESIAN_POINT('Ctrl Pts',(-78.7750279309439,-65.3314035978002,5.50000018626452));
#1767=CARTESIAN_POINT('Ctrl Pts',(-78.8031834156714,-65.6852464236993,5.55865786086781));
#1768=CARTESIAN_POINT('Ctrl Pts',(-78.9229092771463,-66.3402564719054,5.79356893703707));
#1769=CARTESIAN_POINT('Ctrl Pts',(-79.0152127059448,-66.6413950832075,5.96952783984166));
#1770=CARTESIAN_POINT('Ctrl Pts',(-79.2630695506432,-67.1829153064317,6.40664469677619));
#1771=CARTESIAN_POINT('Ctrl Pts',(-79.4484121302766,-67.4387868926327,6.71341587730462));
#1772=CARTESIAN_POINT('Ctrl Pts',(-79.8932320790371,-67.8024631874664,7.36608468292217));
#1773=CARTESIAN_POINT('Ctrl Pts',(-80.153406302665,-67.9113526456942,7.71090185202945));
#1774=CARTESIAN_POINT('Ctrl Pts',(-80.7242780506067,-68.021728542254,8.39324767981652));
#1775=CARTESIAN_POINT('Ctrl Pts',(-81.0886102084754,-68.0090653632182,8.78129304810958));
#1776=CARTESIAN_POINT('Ctrl Pts',(-81.8539372469967,-67.8535001567012,9.49555877848184));
#1777=CARTESIAN_POINT('Ctrl Pts',(-82.2548838103676,-67.7118406956453,9.82210096218309));
#1778=CARTESIAN_POINT('Ctrl Pts',(-82.983574650935,-67.3782518461176,10.354546909753));
#1779=CARTESIAN_POINT('Ctrl Pts',(-83.3774260184754,-67.1597420398482,10.6103669653035));
#1780=CARTESIAN_POINT('Ctrl Pts',(-84.1292963246186,-66.6264843864329,11.0441478846663));
#1781=CARTESIAN_POINT('Ctrl Pts',(-84.4898008638878,-66.3166420666247,11.2238118545511));
#1782=CARTESIAN_POINT('Ctrl Pts',(-84.8494233646213,-65.8163990260158,11.3899984065938));
#1783=CARTESIAN_POINT('Ctrl Pts',(-84.9397218029349,-65.6644104798159,11.4301508867287));
#1784=CARTESIAN_POINT('Ctrl Pts',(-85.0662663057485,-65.3390710291819,11.4853400815274));
#1785=CARTESIAN_POINT('Ctrl Pts',(-85.1010209516761,-65.1650782687293,11.5000001862645));
#1786=CARTESIAN_POINT('Ctrl Pts',(-85.1010209516761,-65.0000010281801,11.5000001862645));
#1787=CARTESIAN_POINT('Origin',(-86.5,-65.0000010281801,8.50000018626451));
#1788=CARTESIAN_POINT('',(-86.5,-65.0000010281801,10.2000001862645));
#1789=CARTESIAN_POINT('Origin',(-86.5,-65.0000010281801,8.50000018626451));
#1790=CARTESIAN_POINT('Origin',(-90.,-65.0000010281801,8.50000018626451));
#1791=CARTESIAN_POINT('',(-90.,-65.0000010281801,10.2000001862645));
#1792=CARTESIAN_POINT('Origin',(-90.,-65.0000010281801,8.50000018626451));
#1793=CARTESIAN_POINT('',(-90.5,-65.0000010281801,10.2000001862645));
#1794=CARTESIAN_POINT('',(-90.,-65.0000010281801,10.2000001862645));
#1795=CARTESIAN_POINT('Origin',(-90.5,-65.0000010281801,8.50000018626451));
#1796=CARTESIAN_POINT('Origin',(-90.5,-29.,-10.5));
#1797=CARTESIAN_POINT('',(-90.5,-69.,-4.14495174881446));
#1798=CARTESIAN_POINT('',(-90.5,-29.,-4.14495174881446));
#1799=CARTESIAN_POINT('',(-90.5,-69.,-10.5));
#1800=CARTESIAN_POINT('Origin',(-90.,-29.,0.));
#1801=CARTESIAN_POINT('',(-90.5,-69.,4.14495174881446));
#1802=CARTESIAN_POINT('',(-90.5,-29.,4.14495174881446));
#1803=CARTESIAN_POINT('Origin',(-90.,-69.,0.));
#1804=CARTESIAN_POINT('Origin',(-90.5,-29.,4.14495174881446));
#1805=CARTESIAN_POINT('',(-90.5,-69.,12.4899959967968));
#1806=CARTESIAN_POINT('',(-90.5,-29.,12.4899959967968));
#1807=CARTESIAN_POINT('',(-90.5,-69.,12.4899959967968));
#1808=CARTESIAN_POINT('Origin',(-90.,-29.,0.));
#1809=CARTESIAN_POINT('Origin',(-90.,-69.,0.));
#1810=CARTESIAN_POINT('Origin',(-90.,-69.,-0.00500200160160169));
#1811=CARTESIAN_POINT('',(0.,0.,0.));
#1812=CARTESIAN_POINT('',(0.,0.,0.));
#1813=CARTESIAN_POINT('',(0.,0.,0.));
#1814=UNCERTAINTY_MEASURE_WITH_UNIT(LENGTH_MEASURE(0.01),#1824,
'DISTANCE_ACCURACY_VALUE',
'Maximum model space distance between geometric entities at asserted c
onnectivities');
#1815=UNCERTAINTY_MEASURE_WITH_UNIT(LENGTH_MEASURE(0.01),#1824,
'DISTANCE_ACCURACY_VALUE',
'Maximum model space distance between geometric entities at asserted c
onnectivities');
#1816=UNCERTAINTY_MEASURE_WITH_UNIT(LENGTH_MEASURE(0.01),#1824,
'DISTANCE_ACCURACY_VALUE',
'Maximum model space distance between geometric entities at asserted c
onnectivities');
#1817=UNCERTAINTY_MEASURE_WITH_UNIT(LENGTH_MEASURE(0.01),#1824,
'DISTANCE_ACCURACY_VALUE',
'Maximum model space distance between geometric entities at asserted c
onnectivities');
#1818=UNCERTAINTY_MEASURE_WITH_UNIT(LENGTH_MEASURE(0.01),#1824,
'DISTANCE_ACCURACY_VALUE',
'Maximum model space distance between geometric entities at asserted c
onnectivities');
#1819=(
GEOMETRIC_REPRESENTATION_CONTEXT(3)
GLOBAL_UNCERTAINTY_ASSIGNED_CONTEXT((#1814))
GLOBAL_UNIT_ASSIGNED_CONTEXT((#1824,#1826,#1827))
REPRESENTATION_CONTEXT('','3D')
);
#1820=(
GEOMETRIC_REPRESENTATION_CONTEXT(3)
GLOBAL_UNCERTAINTY_ASSIGNED_CONTEXT((#1815))
GLOBAL_UNIT_ASSIGNED_CONTEXT((#1824,#1826,#1827))
REPRESENTATION_CONTEXT('','3D')
);
#1821=(
GEOMETRIC_REPRESENTATION_CONTEXT(3)
GLOBAL_UNCERTAINTY_ASSIGNED_CONTEXT((#1816))
GLOBAL_UNIT_ASSIGNED_CONTEXT((#1824,#1826,#1827))
REPRESENTATION_CONTEXT('','3D')
);
#1822=(
GEOMETRIC_REPRESENTATION_CONTEXT(3)
GLOBAL_UNCERTAINTY_ASSIGNED_CONTEXT((#1817))
GLOBAL_UNIT_ASSIGNED_CONTEXT((#1824,#1826,#1827))
REPRESENTATION_CONTEXT('','3D')
);
#1823=(
GEOMETRIC_REPRESENTATION_CONTEXT(3)
GLOBAL_UNCERTAINTY_ASSIGNED_CONTEXT((#1818))
GLOBAL_UNIT_ASSIGNED_CONTEXT((#1824,#1826,#1827))
REPRESENTATION_CONTEXT('','3D')
);
#1824=(
LENGTH_UNIT()
NAMED_UNIT(*)
SI_UNIT(.MILLI.,.METRE.)
);
#1825=(
LENGTH_UNIT()
NAMED_UNIT(*)
SI_UNIT($,.METRE.)
);
#1826=(
NAMED_UNIT(*)
PLANE_ANGLE_UNIT()
SI_UNIT($,.RADIAN.)
);
#1827=(
NAMED_UNIT(*)
SI_UNIT($,.STERADIAN.)
SOLID_ANGLE_UNIT()
);
#1828=SHAPE_DEFINITION_REPRESENTATION(#1832,#1839);
#1829=SHAPE_DEFINITION_REPRESENTATION(#1833,#1840);
#1830=SHAPE_DEFINITION_REPRESENTATION(#1834,#1841);
#1831=SHAPE_DEFINITION_REPRESENTATION(#1835,#1842);
#1832=PRODUCT_DEFINITION_SHAPE('',$,#1844);
#1833=PRODUCT_DEFINITION_SHAPE('',$,#1845);
#1834=PRODUCT_DEFINITION_SHAPE('',$,#1846);
#1835=PRODUCT_DEFINITION_SHAPE('',$,#1847);
#1836=PRODUCT_DEFINITION_SHAPE($,$,#20);
#1837=PRODUCT_DEFINITION_SHAPE($,$,#21);
#1838=PRODUCT_DEFINITION_SHAPE($,$,#22);
#1839=SHAPE_REPRESENTATION('',(#1036,#1140),#1819);
#1840=SHAPE_REPRESENTATION('',(#1037,#1138,#1139),#1820);
#1841=SHAPE_REPRESENTATION('',(#1038),#1821);
#1842=SHAPE_REPRESENTATION('',(#1077),#1822);
#1843=PRODUCT_DEFINITION_CONTEXT('part definition',#1857,'design');
#1844=PRODUCT_DEFINITION('2025-12-04-20-06-30-581','Flipper arm V2',#1848,
#1843);
#1845=PRODUCT_DEFINITION('2025-12-04-23-01-33-397','Component2',#1849,#1843);
#1846=PRODUCT_DEFINITION('2025-12-05-15-25-11-702','Flipper arm pt 1',#1850,
#1843);
#1847=PRODUCT_DEFINITION('2025-12-05-15-25-19-081','Flipper arm pt 2',#1851,
#1843);
#1848=PRODUCT_DEFINITION_FORMATION('',$,#1859);
#1849=PRODUCT_DEFINITION_FORMATION('',$,#1860);
#1850=PRODUCT_DEFINITION_FORMATION('',$,#1861);
#1851=PRODUCT_DEFINITION_FORMATION('',$,#1862);
#1852=PRODUCT_RELATED_PRODUCT_CATEGORY('Flipper arm V2',
'Flipper arm V2',(#1859));
#1853=PRODUCT_RELATED_PRODUCT_CATEGORY('Component2','Component2',(#1860));
#1854=PRODUCT_RELATED_PRODUCT_CATEGORY('Flipper arm pt 1',
'Flipper arm pt 1',(#1861));
#1855=PRODUCT_RELATED_PRODUCT_CATEGORY('Flipper arm pt 2',
'Flipper arm pt 2',(#1862));
#1856=APPLICATION_PROTOCOL_DEFINITION('international standard',
'automotive_design',2009,#1857);
#1857=APPLICATION_CONTEXT(
'Core Data for Automotive Mechanical Design Process');
#1858=PRODUCT_CONTEXT('part definition',#1857,'mechanical');
#1859=PRODUCT('2025-12-04-20-06-30-581','Flipper arm V2',$,(#1858));
#1860=PRODUCT('2025-12-04-23-01-33-397','Component2',$,(#1858));
#1861=PRODUCT('2025-12-05-15-25-11-702','Flipper arm pt 1',$,(#1858));
#1862=PRODUCT('2025-12-05-15-25-19-081','Flipper arm pt 2',$,(#1858));
#1863=PRESENTATION_STYLE_ASSIGNMENT((#1864));
#1864=SURFACE_STYLE_USAGE(.BOTH.,#1865);
#1865=SURFACE_SIDE_STYLE('',(#1866));
#1866=SURFACE_STYLE_FILL_AREA(#1867);
#1867=FILL_AREA_STYLE('Plate',(#1868));
#1868=FILL_AREA_STYLE_COLOUR('Plate',#1869);
#1869=COLOUR_RGB('Plate',0.6,0.6,0.6);
ENDSEC;
END-ISO-10303-21;
