ISO-10303-21;
HEADER;
/* Generated by software containing ST-Developer
 * from STEP Tools, Inc. (www.steptools.com) 
 */

FILE_DESCRIPTION(
/* description */ (''),
/* implementation_level */ '2;1');

FILE_NAME(
/* name */ 'Flipper+arm+pt+2.step',
/* time_stamp */ '2026-08-27T11:17:44-05:00',
/* author */ (''),
/* organization */ (''),
/* preprocessor_version */ 'ST-DEVELOPER v20.1',
/* originating_system */ 'Autodesk Translation Framework v15.8.0.0',
/* authorisation */ '');

FILE_SCHEMA (('AUTOMOTIVE_DESIGN { 1 0 10303 214 3 1 1 }'));
ENDSEC;

DATA;
#10=MECHANICAL_DESIGN_GEOMETRIC_PRESENTATION_REPRESENTATION('',(#13),#869);
#11=SHAPE_REPRESENTATION_RELATIONSHIP('SRR','None',#876,#12);
#12=ADVANCED_BREP_SHAPE_REPRESENTATION('',(#14),#868);
#13=STYLED_ITEM('',(#886),#14);
#14=MANIFOLD_SOLID_BREP('Body1',#513);
#15=FACE_BOUND('',#84,.T.);
#16=FACE_BOUND('',#85,.T.);
#17=FACE_BOUND('',#86,.T.);
#18=FACE_BOUND('',#87,.T.);
#19=FACE_BOUND('',#88,.T.);
#20=FACE_BOUND('',#91,.T.);
#21=FACE_BOUND('',#92,.T.);
#22=FACE_BOUND('',#93,.T.);
#23=FACE_BOUND('',#94,.T.);
#24=FACE_BOUND('',#95,.T.);
#25=FACE_BOUND('',#97,.T.);
#26=FACE_BOUND('',#110,.T.);
#27=FACE_BOUND('',#111,.T.);
#28=FACE_BOUND('',#112,.T.);
#29=FACE_BOUND('',#113,.T.);
#30=FACE_BOUND('',#114,.T.);
#31=FACE_BOUND('',#115,.T.);
#32=FACE_BOUND('',#118,.T.);
#33=FACE_BOUND('',#119,.T.);
#34=FACE_BOUND('',#120,.T.);
#35=FACE_BOUND('',#121,.T.);
#36=FACE_BOUND('',#122,.T.);
#37=FACE_BOUND('',#123,.T.);
#38=FACE_BOUND('',#124,.T.);
#39=PLANE('',#545);
#40=PLANE('',#549);
#41=PLANE('',#550);
#42=PLANE('',#570);
#43=PLANE('',#571);
#44=PLANE('',#572);
#45=PLANE('',#573);
#46=PLANE('',#574);
#47=PLANE('',#575);
#48=PLANE('',#576);
#49=PLANE('',#577);
#50=PLANE('',#579);
#51=FACE_OUTER_BOUND('',#77,.T.);
#52=FACE_OUTER_BOUND('',#78,.T.);
#53=FACE_OUTER_BOUND('',#79,.T.);
#54=FACE_OUTER_BOUND('',#80,.T.);
#55=FACE_OUTER_BOUND('',#81,.T.);
#56=FACE_OUTER_BOUND('',#82,.T.);
#57=FACE_OUTER_BOUND('',#83,.T.);
#58=FACE_OUTER_BOUND('',#89,.T.);
#59=FACE_OUTER_BOUND('',#90,.T.);
#60=FACE_OUTER_BOUND('',#96,.T.);
#61=FACE_OUTER_BOUND('',#98,.T.);
#62=FACE_OUTER_BOUND('',#99,.T.);
#63=FACE_OUTER_BOUND('',#100,.T.);
#64=FACE_OUTER_BOUND('',#101,.T.);
#65=FACE_OUTER_BOUND('',#102,.T.);
#66=FACE_OUTER_BOUND('',#103,.T.);
#67=FACE_OUTER_BOUND('',#104,.T.);
#68=FACE_OUTER_BOUND('',#105,.T.);
#69=FACE_OUTER_BOUND('',#106,.T.);
#70=FACE_OUTER_BOUND('',#107,.T.);
#71=FACE_OUTER_BOUND('',#108,.T.);
#72=FACE_OUTER_BOUND('',#109,.T.);
#73=FACE_OUTER_BOUND('',#116,.T.);
#74=FACE_OUTER_BOUND('',#117,.T.);
#75=FACE_OUTER_BOUND('',#125,.T.);
#76=FACE_OUTER_BOUND('',#126,.T.);
#77=EDGE_LOOP('',(#341,#342,#343,#344));
#78=EDGE_LOOP('',(#345,#346,#347,#348));
#79=EDGE_LOOP('',(#349,#350,#351,#352));
#80=EDGE_LOOP('',(#353,#354,#355,#356));
#81=EDGE_LOOP('',(#357,#358,#359,#360));
#82=EDGE_LOOP('',(#361,#362,#363,#364));
#83=EDGE_LOOP('',(#365));
#84=EDGE_LOOP('',(#366));
#85=EDGE_LOOP('',(#367));
#86=EDGE_LOOP('',(#368));
#87=EDGE_LOOP('',(#369));
#88=EDGE_LOOP('',(#370));
#89=EDGE_LOOP('',(#371,#372,#373,#374));
#90=EDGE_LOOP('',(#375));
#91=EDGE_LOOP('',(#376));
#92=EDGE_LOOP('',(#377));
#93=EDGE_LOOP('',(#378));
#94=EDGE_LOOP('',(#379));
#95=EDGE_LOOP('',(#380));
#96=EDGE_LOOP('',(#381,#382,#383,#384));
#97=EDGE_LOOP('',(#385));
#98=EDGE_LOOP('',(#386,#387,#388,#389));
#99=EDGE_LOOP('',(#390,#391,#392,#393));
#100=EDGE_LOOP('',(#394,#395,#396,#397));
#101=EDGE_LOOP('',(#398,#399,#400,#401));
#102=EDGE_LOOP('',(#402,#403,#404,#405));
#103=EDGE_LOOP('',(#406,#407,#408,#409));
#104=EDGE_LOOP('',(#410,#411,#412,#413));
#105=EDGE_LOOP('',(#414,#415,#416,#417,#418,#419));
#106=EDGE_LOOP('',(#420,#421,#422,#423));
#107=EDGE_LOOP('',(#424,#425,#426,#427));
#108=EDGE_LOOP('',(#428,#429,#430,#431));
#109=EDGE_LOOP('',(#432,#433,#434,#435,#436,#437,#438));
#110=EDGE_LOOP('',(#439));
#111=EDGE_LOOP('',(#440));
#112=EDGE_LOOP('',(#441));
#113=EDGE_LOOP('',(#442));
#114=EDGE_LOOP('',(#443));
#115=EDGE_LOOP('',(#444));
#116=EDGE_LOOP('',(#445,#446,#447,#448));
#117=EDGE_LOOP('',(#449,#450,#451,#452,#453,#454,#455));
#118=EDGE_LOOP('',(#456));
#119=EDGE_LOOP('',(#457));
#120=EDGE_LOOP('',(#458));
#121=EDGE_LOOP('',(#459));
#122=EDGE_LOOP('',(#460));
#123=EDGE_LOOP('',(#461));
#124=EDGE_LOOP('',(#462));
#125=EDGE_LOOP('',(#463,#464,#465,#466,#467,#468));
#126=EDGE_LOOP('',(#469,#470,#471,#472));
#127=LINE('',#734,#165);
#128=LINE('',#740,#166);
#129=LINE('',#746,#167);
#130=LINE('',#752,#168);
#131=LINE('',#758,#169);
#132=LINE('',#764,#170);
#133=LINE('',#771,#171);
#134=LINE('',#777,#172);
#135=LINE('',#779,#173);
#136=LINE('',#782,#174);
#137=LINE('',#787,#175);
#138=LINE('',#793,#176);
#139=LINE('',#799,#177);
#140=LINE('',#805,#178);
#141=LINE('',#811,#179);
#142=LINE('',#817,#180);
#143=LINE('',#821,#181);
#144=LINE('',#823,#182);
#145=LINE('',#824,#183);
#146=LINE('',#827,#184);
#147=LINE('',#829,#185);
#148=LINE('',#831,#186);
#149=LINE('',#832,#187);
#150=LINE('',#835,#188);
#151=LINE('',#837,#189);
#152=LINE('',#838,#190);
#153=LINE('',#841,#191);
#154=LINE('',#843,#192);
#155=LINE('',#844,#193);
#156=LINE('',#848,#194);
#157=LINE('',#850,#195);
#158=LINE('',#852,#196);
#159=LINE('',#853,#197);
#160=LINE('',#855,#198);
#161=LINE('',#856,#199);
#162=LINE('',#858,#200);
#163=LINE('',#861,#201);
#164=LINE('',#864,#202);
#165=VECTOR('',#587,4.2);
#166=VECTOR('',#594,2.20000000000001);
#167=VECTOR('',#601,2.20000000000001);
#168=VECTOR('',#608,2.20000000000001);
#169=VECTOR('',#615,2.2);
#170=VECTOR('',#622,16.);
#171=VECTOR('',#631,8.00000000000001);
#172=VECTOR('',#638,10.);
#173=VECTOR('',#639,10.);
#174=VECTOR('',#642,10.);
#175=VECTOR('',#647,1.70000000000002);
#176=VECTOR('',#654,1.70000000000002);
#177=VECTOR('',#661,1.70000000000002);
#178=VECTOR('',#668,1.70000000000002);
#179=VECTOR('',#675,1.70000000000002);
#180=VECTOR('',#682,1.70000000000002);
#181=VECTOR('',#687,10.);
#182=VECTOR('',#688,10.);
#183=VECTOR('',#689,10.);
#184=VECTOR('',#692,10.);
#185=VECTOR('',#693,10.);
#186=VECTOR('',#694,10.);
#187=VECTOR('',#695,10.);
#188=VECTOR('',#698,10.);
#189=VECTOR('',#699,10.);
#190=VECTOR('',#700,10.);
#191=VECTOR('',#703,10.);
#192=VECTOR('',#704,10.);
#193=VECTOR('',#705,10.);
#194=VECTOR('',#708,10.);
#195=VECTOR('',#709,10.);
#196=VECTOR('',#710,10.);
#197=VECTOR('',#711,10.);
#198=VECTOR('',#714,10.);
#199=VECTOR('',#715,10.);
#200=VECTOR('',#718,10.);
#201=VECTOR('',#721,10.);
#202=VECTOR('',#726,10.);
#203=CIRCLE('',#528,4.2);
#204=CIRCLE('',#529,4.2);
#205=CIRCLE('',#531,2.20000000000001);
#206=CIRCLE('',#532,2.20000000000001);
#207=CIRCLE('',#534,2.20000000000001);
#208=CIRCLE('',#535,2.20000000000001);
#209=CIRCLE('',#537,2.20000000000001);
#210=CIRCLE('',#538,2.20000000000001);
#211=CIRCLE('',#540,2.2);
#212=CIRCLE('',#541,2.2);
#213=CIRCLE('',#543,16.);
#214=CIRCLE('',#544,16.);
#215=CIRCLE('',#546,8.00000000000001);
#216=CIRCLE('',#548,8.00000000000001);
#217=CIRCLE('',#551,35.);
#218=CIRCLE('',#553,1.70000000000002);
#219=CIRCLE('',#554,1.70000000000002);
#220=CIRCLE('',#556,1.70000000000002);
#221=CIRCLE('',#557,1.70000000000002);
#222=CIRCLE('',#559,1.70000000000002);
#223=CIRCLE('',#560,1.70000000000002);
#224=CIRCLE('',#562,1.70000000000002);
#225=CIRCLE('',#563,1.70000000000002);
#226=CIRCLE('',#565,1.70000000000002);
#227=CIRCLE('',#566,1.70000000000002);
#228=CIRCLE('',#568,1.70000000000002);
#229=CIRCLE('',#569,1.70000000000002);
#230=CIRCLE('',#578,35.);
#231=VERTEX_POINT('',#731);
#232=VERTEX_POINT('',#733);
#233=VERTEX_POINT('',#737);
#234=VERTEX_POINT('',#739);
#235=VERTEX_POINT('',#743);
#236=VERTEX_POINT('',#745);
#237=VERTEX_POINT('',#749);
#238=VERTEX_POINT('',#751);
#239=VERTEX_POINT('',#755);
#240=VERTEX_POINT('',#757);
#241=VERTEX_POINT('',#761);
#242=VERTEX_POINT('',#763);
#243=VERTEX_POINT('',#767);
#244=VERTEX_POINT('',#770);
#245=VERTEX_POINT('',#775);
#246=VERTEX_POINT('',#776);
#247=VERTEX_POINT('',#778);
#248=VERTEX_POINT('',#780);
#249=VERTEX_POINT('',#784);
#250=VERTEX_POINT('',#786);
#251=VERTEX_POINT('',#790);
#252=VERTEX_POINT('',#792);
#253=VERTEX_POINT('',#796);
#254=VERTEX_POINT('',#798);
#255=VERTEX_POINT('',#802);
#256=VERTEX_POINT('',#804);
#257=VERTEX_POINT('',#808);
#258=VERTEX_POINT('',#810);
#259=VERTEX_POINT('',#814);
#260=VERTEX_POINT('',#816);
#261=VERTEX_POINT('',#820);
#262=VERTEX_POINT('',#822);
#263=VERTEX_POINT('',#826);
#264=VERTEX_POINT('',#828);
#265=VERTEX_POINT('',#830);
#266=VERTEX_POINT('',#834);
#267=VERTEX_POINT('',#836);
#268=VERTEX_POINT('',#840);
#269=VERTEX_POINT('',#842);
#270=VERTEX_POINT('',#846);
#271=VERTEX_POINT('',#847);
#272=VERTEX_POINT('',#849);
#273=VERTEX_POINT('',#851);
#274=VERTEX_POINT('',#860);
#275=EDGE_CURVE('',#231,#231,#203,.T.);
#276=EDGE_CURVE('',#231,#232,#127,.T.);
#277=EDGE_CURVE('',#232,#232,#204,.T.);
#278=EDGE_CURVE('',#233,#233,#205,.T.);
#279=EDGE_CURVE('',#233,#234,#128,.T.);
#280=EDGE_CURVE('',#234,#234,#206,.T.);
#281=EDGE_CURVE('',#235,#235,#207,.T.);
#282=EDGE_CURVE('',#235,#236,#129,.T.);
#283=EDGE_CURVE('',#236,#236,#208,.T.);
#284=EDGE_CURVE('',#237,#237,#209,.T.);
#285=EDGE_CURVE('',#237,#238,#130,.T.);
#286=EDGE_CURVE('',#238,#238,#210,.T.);
#287=EDGE_CURVE('',#239,#239,#211,.T.);
#288=EDGE_CURVE('',#239,#240,#131,.T.);
#289=EDGE_CURVE('',#240,#240,#212,.T.);
#290=EDGE_CURVE('',#241,#241,#213,.T.);
#291=EDGE_CURVE('',#241,#242,#132,.T.);
#292=EDGE_CURVE('',#242,#242,#214,.T.);
#293=EDGE_CURVE('',#243,#243,#215,.T.);
#294=EDGE_CURVE('',#243,#244,#133,.T.);
#295=EDGE_CURVE('',#244,#244,#216,.T.);
#296=EDGE_CURVE('',#245,#246,#134,.T.);
#297=EDGE_CURVE('',#247,#246,#135,.T.);
#298=EDGE_CURVE('',#248,#247,#217,.T.);
#299=EDGE_CURVE('',#248,#245,#136,.T.);
#300=EDGE_CURVE('',#249,#249,#218,.T.);
#301=EDGE_CURVE('',#249,#250,#137,.T.);
#302=EDGE_CURVE('',#250,#250,#219,.T.);
#303=EDGE_CURVE('',#251,#251,#220,.T.);
#304=EDGE_CURVE('',#251,#252,#138,.T.);
#305=EDGE_CURVE('',#252,#252,#221,.T.);
#306=EDGE_CURVE('',#253,#253,#222,.T.);
#307=EDGE_CURVE('',#253,#254,#139,.T.);
#308=EDGE_CURVE('',#254,#254,#223,.T.);
#309=EDGE_CURVE('',#255,#255,#224,.T.);
#310=EDGE_CURVE('',#255,#256,#140,.T.);
#311=EDGE_CURVE('',#256,#256,#225,.T.);
#312=EDGE_CURVE('',#257,#257,#226,.T.);
#313=EDGE_CURVE('',#257,#258,#141,.T.);
#314=EDGE_CURVE('',#258,#258,#227,.T.);
#315=EDGE_CURVE('',#259,#259,#228,.T.);
#316=EDGE_CURVE('',#259,#260,#142,.T.);
#317=EDGE_CURVE('',#260,#260,#229,.T.);
#318=EDGE_CURVE('',#261,#245,#143,.T.);
#319=EDGE_CURVE('',#262,#261,#144,.T.);
#320=EDGE_CURVE('',#246,#262,#145,.T.);
#321=EDGE_CURVE('',#262,#263,#146,.T.);
#322=EDGE_CURVE('',#263,#264,#147,.T.);
#323=EDGE_CURVE('',#265,#264,#148,.T.);
#324=EDGE_CURVE('',#247,#265,#149,.T.);
#325=EDGE_CURVE('',#266,#263,#150,.T.);
#326=EDGE_CURVE('',#267,#266,#151,.T.);
#327=EDGE_CURVE('',#264,#267,#152,.T.);
#328=EDGE_CURVE('',#266,#268,#153,.T.);
#329=EDGE_CURVE('',#269,#268,#154,.T.);
#330=EDGE_CURVE('',#267,#269,#155,.T.);
#331=EDGE_CURVE('',#270,#271,#156,.T.);
#332=EDGE_CURVE('',#270,#272,#157,.T.);
#333=EDGE_CURVE('',#273,#272,#158,.T.);
#334=EDGE_CURVE('',#271,#273,#159,.T.);
#335=EDGE_CURVE('',#268,#273,#160,.T.);
#336=EDGE_CURVE('',#271,#261,#161,.T.);
#337=EDGE_CURVE('',#272,#269,#162,.T.);
#338=EDGE_CURVE('',#270,#274,#163,.T.);
#339=EDGE_CURVE('',#274,#265,#230,.T.);
#340=EDGE_CURVE('',#248,#274,#164,.T.);
#341=ORIENTED_EDGE('',*,*,#275,.F.);
#342=ORIENTED_EDGE('',*,*,#276,.T.);
#343=ORIENTED_EDGE('',*,*,#277,.F.);
#344=ORIENTED_EDGE('',*,*,#276,.F.);
#345=ORIENTED_EDGE('',*,*,#278,.F.);
#346=ORIENTED_EDGE('',*,*,#279,.T.);
#347=ORIENTED_EDGE('',*,*,#280,.F.);
#348=ORIENTED_EDGE('',*,*,#279,.F.);
#349=ORIENTED_EDGE('',*,*,#281,.F.);
#350=ORIENTED_EDGE('',*,*,#282,.T.);
#351=ORIENTED_EDGE('',*,*,#283,.F.);
#352=ORIENTED_EDGE('',*,*,#282,.F.);
#353=ORIENTED_EDGE('',*,*,#284,.F.);
#354=ORIENTED_EDGE('',*,*,#285,.T.);
#355=ORIENTED_EDGE('',*,*,#286,.F.);
#356=ORIENTED_EDGE('',*,*,#285,.F.);
#357=ORIENTED_EDGE('',*,*,#287,.F.);
#358=ORIENTED_EDGE('',*,*,#288,.T.);
#359=ORIENTED_EDGE('',*,*,#289,.F.);
#360=ORIENTED_EDGE('',*,*,#288,.F.);
#361=ORIENTED_EDGE('',*,*,#290,.F.);
#362=ORIENTED_EDGE('',*,*,#291,.T.);
#363=ORIENTED_EDGE('',*,*,#292,.F.);
#364=ORIENTED_EDGE('',*,*,#291,.F.);
#365=ORIENTED_EDGE('',*,*,#290,.T.);
#366=ORIENTED_EDGE('',*,*,#287,.T.);
#367=ORIENTED_EDGE('',*,*,#293,.F.);
#368=ORIENTED_EDGE('',*,*,#284,.T.);
#369=ORIENTED_EDGE('',*,*,#281,.T.);
#370=ORIENTED_EDGE('',*,*,#278,.T.);
#371=ORIENTED_EDGE('',*,*,#293,.T.);
#372=ORIENTED_EDGE('',*,*,#294,.T.);
#373=ORIENTED_EDGE('',*,*,#295,.F.);
#374=ORIENTED_EDGE('',*,*,#294,.F.);
#375=ORIENTED_EDGE('',*,*,#292,.T.);
#376=ORIENTED_EDGE('',*,*,#275,.T.);
#377=ORIENTED_EDGE('',*,*,#280,.T.);
#378=ORIENTED_EDGE('',*,*,#283,.T.);
#379=ORIENTED_EDGE('',*,*,#286,.T.);
#380=ORIENTED_EDGE('',*,*,#289,.T.);
#381=ORIENTED_EDGE('',*,*,#296,.T.);
#382=ORIENTED_EDGE('',*,*,#297,.F.);
#383=ORIENTED_EDGE('',*,*,#298,.F.);
#384=ORIENTED_EDGE('',*,*,#299,.T.);
#385=ORIENTED_EDGE('',*,*,#295,.T.);
#386=ORIENTED_EDGE('',*,*,#300,.F.);
#387=ORIENTED_EDGE('',*,*,#301,.T.);
#388=ORIENTED_EDGE('',*,*,#302,.F.);
#389=ORIENTED_EDGE('',*,*,#301,.F.);
#390=ORIENTED_EDGE('',*,*,#303,.F.);
#391=ORIENTED_EDGE('',*,*,#304,.T.);
#392=ORIENTED_EDGE('',*,*,#305,.F.);
#393=ORIENTED_EDGE('',*,*,#304,.F.);
#394=ORIENTED_EDGE('',*,*,#306,.F.);
#395=ORIENTED_EDGE('',*,*,#307,.T.);
#396=ORIENTED_EDGE('',*,*,#308,.F.);
#397=ORIENTED_EDGE('',*,*,#307,.F.);
#398=ORIENTED_EDGE('',*,*,#309,.F.);
#399=ORIENTED_EDGE('',*,*,#310,.T.);
#400=ORIENTED_EDGE('',*,*,#311,.F.);
#401=ORIENTED_EDGE('',*,*,#310,.F.);
#402=ORIENTED_EDGE('',*,*,#312,.F.);
#403=ORIENTED_EDGE('',*,*,#313,.T.);
#404=ORIENTED_EDGE('',*,*,#314,.F.);
#405=ORIENTED_EDGE('',*,*,#313,.F.);
#406=ORIENTED_EDGE('',*,*,#315,.F.);
#407=ORIENTED_EDGE('',*,*,#316,.T.);
#408=ORIENTED_EDGE('',*,*,#317,.F.);
#409=ORIENTED_EDGE('',*,*,#316,.F.);
#410=ORIENTED_EDGE('',*,*,#318,.F.);
#411=ORIENTED_EDGE('',*,*,#319,.F.);
#412=ORIENTED_EDGE('',*,*,#320,.F.);
#413=ORIENTED_EDGE('',*,*,#296,.F.);
#414=ORIENTED_EDGE('',*,*,#320,.T.);
#415=ORIENTED_EDGE('',*,*,#321,.T.);
#416=ORIENTED_EDGE('',*,*,#322,.T.);
#417=ORIENTED_EDGE('',*,*,#323,.F.);
#418=ORIENTED_EDGE('',*,*,#324,.F.);
#419=ORIENTED_EDGE('',*,*,#297,.T.);
#420=ORIENTED_EDGE('',*,*,#322,.F.);
#421=ORIENTED_EDGE('',*,*,#325,.F.);
#422=ORIENTED_EDGE('',*,*,#326,.F.);
#423=ORIENTED_EDGE('',*,*,#327,.F.);
#424=ORIENTED_EDGE('',*,*,#326,.T.);
#425=ORIENTED_EDGE('',*,*,#328,.T.);
#426=ORIENTED_EDGE('',*,*,#329,.F.);
#427=ORIENTED_EDGE('',*,*,#330,.F.);
#428=ORIENTED_EDGE('',*,*,#331,.F.);
#429=ORIENTED_EDGE('',*,*,#332,.T.);
#430=ORIENTED_EDGE('',*,*,#333,.F.);
#431=ORIENTED_EDGE('',*,*,#334,.F.);
#432=ORIENTED_EDGE('',*,*,#334,.T.);
#433=ORIENTED_EDGE('',*,*,#335,.F.);
#434=ORIENTED_EDGE('',*,*,#328,.F.);
#435=ORIENTED_EDGE('',*,*,#325,.T.);
#436=ORIENTED_EDGE('',*,*,#321,.F.);
#437=ORIENTED_EDGE('',*,*,#319,.T.);
#438=ORIENTED_EDGE('',*,*,#336,.F.);
#439=ORIENTED_EDGE('',*,*,#302,.T.);
#440=ORIENTED_EDGE('',*,*,#305,.T.);
#441=ORIENTED_EDGE('',*,*,#308,.T.);
#442=ORIENTED_EDGE('',*,*,#311,.T.);
#443=ORIENTED_EDGE('',*,*,#314,.T.);
#444=ORIENTED_EDGE('',*,*,#317,.T.);
#445=ORIENTED_EDGE('',*,*,#335,.T.);
#446=ORIENTED_EDGE('',*,*,#333,.T.);
#447=ORIENTED_EDGE('',*,*,#337,.T.);
#448=ORIENTED_EDGE('',*,*,#329,.T.);
#449=ORIENTED_EDGE('',*,*,#338,.T.);
#450=ORIENTED_EDGE('',*,*,#339,.T.);
#451=ORIENTED_EDGE('',*,*,#323,.T.);
#452=ORIENTED_EDGE('',*,*,#327,.T.);
#453=ORIENTED_EDGE('',*,*,#330,.T.);
#454=ORIENTED_EDGE('',*,*,#337,.F.);
#455=ORIENTED_EDGE('',*,*,#332,.F.);
#456=ORIENTED_EDGE('',*,*,#277,.T.);
#457=ORIENTED_EDGE('',*,*,#300,.T.);
#458=ORIENTED_EDGE('',*,*,#303,.T.);
#459=ORIENTED_EDGE('',*,*,#306,.T.);
#460=ORIENTED_EDGE('',*,*,#309,.T.);
#461=ORIENTED_EDGE('',*,*,#312,.T.);
#462=ORIENTED_EDGE('',*,*,#315,.T.);
#463=ORIENTED_EDGE('',*,*,#318,.T.);
#464=ORIENTED_EDGE('',*,*,#299,.F.);
#465=ORIENTED_EDGE('',*,*,#340,.T.);
#466=ORIENTED_EDGE('',*,*,#338,.F.);
#467=ORIENTED_EDGE('',*,*,#331,.T.);
#468=ORIENTED_EDGE('',*,*,#336,.T.);
#469=ORIENTED_EDGE('',*,*,#298,.T.);
#470=ORIENTED_EDGE('',*,*,#324,.T.);
#471=ORIENTED_EDGE('',*,*,#339,.F.);
#472=ORIENTED_EDGE('',*,*,#340,.F.);
#473=CYLINDRICAL_SURFACE('',#527,4.2);
#474=CYLINDRICAL_SURFACE('',#530,2.20000000000001);
#475=CYLINDRICAL_SURFACE('',#533,2.20000000000001);
#476=CYLINDRICAL_SURFACE('',#536,2.20000000000001);
#477=CYLINDRICAL_SURFACE('',#539,2.2);
#478=CYLINDRICAL_SURFACE('',#542,16.);
#479=CYLINDRICAL_SURFACE('',#547,8.00000000000001);
#480=CYLINDRICAL_SURFACE('',#552,1.70000000000002);
#481=CYLINDRICAL_SURFACE('',#555,1.70000000000002);
#482=CYLINDRICAL_SURFACE('',#558,1.70000000000002);
#483=CYLINDRICAL_SURFACE('',#561,1.70000000000002);
#484=CYLINDRICAL_SURFACE('',#564,1.70000000000002);
#485=CYLINDRICAL_SURFACE('',#567,1.70000000000002);
#486=CYLINDRICAL_SURFACE('',#580,35.);
#487=ADVANCED_FACE('',(#51),#473,.F.);
#488=ADVANCED_FACE('',(#52),#474,.F.);
#489=ADVANCED_FACE('',(#53),#475,.F.);
#490=ADVANCED_FACE('',(#54),#476,.F.);
#491=ADVANCED_FACE('',(#55),#477,.F.);
#492=ADVANCED_FACE('',(#56),#478,.T.);
#493=ADVANCED_FACE('',(#57,#15,#16,#17,#18,#19),#39,.F.);
#494=ADVANCED_FACE('',(#58),#479,.T.);
#495=ADVANCED_FACE('',(#59,#20,#21,#22,#23,#24),#40,.T.);
#496=ADVANCED_FACE('',(#60,#25),#41,.T.);
#497=ADVANCED_FACE('',(#61),#480,.F.);
#498=ADVANCED_FACE('',(#62),#481,.F.);
#499=ADVANCED_FACE('',(#63),#482,.F.);
#500=ADVANCED_FACE('',(#64),#483,.F.);
#501=ADVANCED_FACE('',(#65),#484,.F.);
#502=ADVANCED_FACE('',(#66),#485,.F.);
#503=ADVANCED_FACE('',(#67),#42,.F.);
#504=ADVANCED_FACE('',(#68),#43,.T.);
#505=ADVANCED_FACE('',(#69),#44,.T.);
#506=ADVANCED_FACE('',(#70),#45,.T.);
#507=ADVANCED_FACE('',(#71),#46,.T.);
#508=ADVANCED_FACE('',(#72,#26,#27,#28,#29,#30,#31),#47,.T.);
#509=ADVANCED_FACE('',(#73),#48,.T.);
#510=ADVANCED_FACE('',(#74,#32,#33,#34,#35,#36,#37,#38),#49,.T.);
#511=ADVANCED_FACE('',(#75),#50,.T.);
#512=ADVANCED_FACE('',(#76),#486,.T.);
#513=CLOSED_SHELL('',(#487,#488,#489,#490,#491,#492,#493,#494,#495,#496,
#497,#498,#499,#500,#501,#502,#503,#504,#505,#506,#507,#508,#509,#510,#511,
#512));
#514=DERIVED_UNIT_ELEMENT(#516,1.);
#515=DERIVED_UNIT_ELEMENT(#871,-3.);
#516=(
MASS_UNIT()
NAMED_UNIT(*)
SI_UNIT(.KILO.,.GRAM.)
);
#517=DERIVED_UNIT((#514,#515));
#518=MEASURE_REPRESENTATION_ITEM('density measure',
POSITIVE_RATIO_MEASURE(7850.),#517);
#519=PROPERTY_DEFINITION_REPRESENTATION(#524,#521);
#520=PROPERTY_DEFINITION_REPRESENTATION(#525,#522);
#521=REPRESENTATION('material name',(#523),#868);
#522=REPRESENTATION('density',(#518),#868);
#523=DESCRIPTIVE_REPRESENTATION_ITEM('Steel','Steel');
#524=PROPERTY_DEFINITION('material property','material name',#878);
#525=PROPERTY_DEFINITION('material property','density of part',#878);
#526=AXIS2_PLACEMENT_3D('',#729,#581,#582);
#527=AXIS2_PLACEMENT_3D('',#730,#583,#584);
#528=AXIS2_PLACEMENT_3D('',#732,#585,#586);
#529=AXIS2_PLACEMENT_3D('',#735,#588,#589);
#530=AXIS2_PLACEMENT_3D('',#736,#590,#591);
#531=AXIS2_PLACEMENT_3D('',#738,#592,#593);
#532=AXIS2_PLACEMENT_3D('',#741,#595,#596);
#533=AXIS2_PLACEMENT_3D('',#742,#597,#598);
#534=AXIS2_PLACEMENT_3D('',#744,#599,#600);
#535=AXIS2_PLACEMENT_3D('',#747,#602,#603);
#536=AXIS2_PLACEMENT_3D('',#748,#604,#605);
#537=AXIS2_PLACEMENT_3D('',#750,#606,#607);
#538=AXIS2_PLACEMENT_3D('',#753,#609,#610);
#539=AXIS2_PLACEMENT_3D('',#754,#611,#612);
#540=AXIS2_PLACEMENT_3D('',#756,#613,#614);
#541=AXIS2_PLACEMENT_3D('',#759,#616,#617);
#542=AXIS2_PLACEMENT_3D('',#760,#618,#619);
#543=AXIS2_PLACEMENT_3D('',#762,#620,#621);
#544=AXIS2_PLACEMENT_3D('',#765,#623,#624);
#545=AXIS2_PLACEMENT_3D('',#766,#625,#626);
#546=AXIS2_PLACEMENT_3D('',#768,#627,#628);
#547=AXIS2_PLACEMENT_3D('',#769,#629,#630);
#548=AXIS2_PLACEMENT_3D('',#772,#632,#633);
#549=AXIS2_PLACEMENT_3D('',#773,#634,#635);
#550=AXIS2_PLACEMENT_3D('',#774,#636,#637);
#551=AXIS2_PLACEMENT_3D('',#781,#640,#641);
#552=AXIS2_PLACEMENT_3D('',#783,#643,#644);
#553=AXIS2_PLACEMENT_3D('',#785,#645,#646);
#554=AXIS2_PLACEMENT_3D('',#788,#648,#649);
#555=AXIS2_PLACEMENT_3D('',#789,#650,#651);
#556=AXIS2_PLACEMENT_3D('',#791,#652,#653);
#557=AXIS2_PLACEMENT_3D('',#794,#655,#656);
#558=AXIS2_PLACEMENT_3D('',#795,#657,#658);
#559=AXIS2_PLACEMENT_3D('',#797,#659,#660);
#560=AXIS2_PLACEMENT_3D('',#800,#662,#663);
#561=AXIS2_PLACEMENT_3D('',#801,#664,#665);
#562=AXIS2_PLACEMENT_3D('',#803,#666,#667);
#563=AXIS2_PLACEMENT_3D('',#806,#669,#670);
#564=AXIS2_PLACEMENT_3D('',#807,#671,#672);
#565=AXIS2_PLACEMENT_3D('',#809,#673,#674);
#566=AXIS2_PLACEMENT_3D('',#812,#676,#677);
#567=AXIS2_PLACEMENT_3D('',#813,#678,#679);
#568=AXIS2_PLACEMENT_3D('',#815,#680,#681);
#569=AXIS2_PLACEMENT_3D('',#818,#683,#684);
#570=AXIS2_PLACEMENT_3D('',#819,#685,#686);
#571=AXIS2_PLACEMENT_3D('',#825,#690,#691);
#572=AXIS2_PLACEMENT_3D('',#833,#696,#697);
#573=AXIS2_PLACEMENT_3D('',#839,#701,#702);
#574=AXIS2_PLACEMENT_3D('',#845,#706,#707);
#575=AXIS2_PLACEMENT_3D('',#854,#712,#713);
#576=AXIS2_PLACEMENT_3D('',#857,#716,#717);
#577=AXIS2_PLACEMENT_3D('',#859,#719,#720);
#578=AXIS2_PLACEMENT_3D('',#862,#722,#723);
#579=AXIS2_PLACEMENT_3D('',#863,#724,#725);
#580=AXIS2_PLACEMENT_3D('',#865,#727,#728);
#581=DIRECTION('axis',(0.,0.,1.));
#582=DIRECTION('refdir',(1.,0.,0.));
#583=DIRECTION('center_axis',(0.,1.,0.));
#584=DIRECTION('ref_axis',(1.,0.,0.));
#585=DIRECTION('center_axis',(0.,1.,0.));
#586=DIRECTION('ref_axis',(1.,0.,0.));
#587=DIRECTION('',(0.,1.,0.));
#588=DIRECTION('center_axis',(0.,-1.,0.));
#589=DIRECTION('ref_axis',(1.,0.,0.));
#590=DIRECTION('center_axis',(0.,1.,0.));
#591=DIRECTION('ref_axis',(1.,0.,0.));
#592=DIRECTION('center_axis',(0.,-1.,0.));
#593=DIRECTION('ref_axis',(1.,0.,0.));
#594=DIRECTION('',(0.,-1.,0.));
#595=DIRECTION('center_axis',(0.,1.,0.));
#596=DIRECTION('ref_axis',(1.,0.,0.));
#597=DIRECTION('center_axis',(0.,1.,0.));
#598=DIRECTION('ref_axis',(1.,0.,0.));
#599=DIRECTION('center_axis',(0.,-1.,0.));
#600=DIRECTION('ref_axis',(1.,0.,0.));
#601=DIRECTION('',(0.,-1.,0.));
#602=DIRECTION('center_axis',(0.,1.,0.));
#603=DIRECTION('ref_axis',(1.,0.,0.));
#604=DIRECTION('center_axis',(0.,1.,0.));
#605=DIRECTION('ref_axis',(1.,0.,0.));
#606=DIRECTION('center_axis',(0.,-1.,0.));
#607=DIRECTION('ref_axis',(1.,0.,0.));
#608=DIRECTION('',(0.,-1.,0.));
#609=DIRECTION('center_axis',(0.,1.,0.));
#610=DIRECTION('ref_axis',(1.,0.,0.));
#611=DIRECTION('center_axis',(0.,1.,0.));
#612=DIRECTION('ref_axis',(1.,0.,0.));
#613=DIRECTION('center_axis',(0.,-1.,0.));
#614=DIRECTION('ref_axis',(1.,0.,0.));
#615=DIRECTION('',(0.,-1.,0.));
#616=DIRECTION('center_axis',(0.,1.,0.));
#617=DIRECTION('ref_axis',(1.,0.,0.));
#618=DIRECTION('center_axis',(0.,1.,0.));
#619=DIRECTION('ref_axis',(1.,0.,0.));
#620=DIRECTION('center_axis',(0.,1.,0.));
#621=DIRECTION('ref_axis',(1.,0.,0.));
#622=DIRECTION('',(0.,-1.,0.));
#623=DIRECTION('center_axis',(0.,-1.,0.));
#624=DIRECTION('ref_axis',(1.,0.,0.));
#625=DIRECTION('center_axis',(0.,-1.,0.));
#626=DIRECTION('ref_axis',(1.,0.,0.));
#627=DIRECTION('center_axis',(0.,1.,0.));
#628=DIRECTION('ref_axis',(1.,0.,0.));
#629=DIRECTION('center_axis',(0.,-1.,0.));
#630=DIRECTION('ref_axis',(1.,0.,0.));
#631=DIRECTION('',(0.,1.,0.));
#632=DIRECTION('center_axis',(0.,1.,0.));
#633=DIRECTION('ref_axis',(1.,0.,0.));
#634=DIRECTION('center_axis',(0.,-1.,0.));
#635=DIRECTION('ref_axis',(1.,0.,0.));
#636=DIRECTION('center_axis',(0.,-1.,0.));
#637=DIRECTION('ref_axis',(1.,0.,0.));
#638=DIRECTION('',(0.,0.,-1.));
#639=DIRECTION('',(-0.999999999918935,0.,-1.27330254643551E-5));
#640=DIRECTION('center_axis',(0.,1.,0.));
#641=DIRECTION('ref_axis',(-0.00713648536083866,0.,0.999974534964113));
#642=DIRECTION('',(-0.999999999994925,0.,3.18597220061881E-6));
#643=DIRECTION('center_axis',(0.,-1.,0.));
#644=DIRECTION('ref_axis',(-1.,0.,0.));
#645=DIRECTION('center_axis',(0.,-1.,0.));
#646=DIRECTION('ref_axis',(-1.,0.,0.));
#647=DIRECTION('',(0.,-1.,0.));
#648=DIRECTION('center_axis',(0.,1.,0.));
#649=DIRECTION('ref_axis',(-1.,0.,0.));
#650=DIRECTION('center_axis',(0.,-1.,0.));
#651=DIRECTION('ref_axis',(-1.,0.,0.));
#652=DIRECTION('center_axis',(0.,-1.,0.));
#653=DIRECTION('ref_axis',(-1.,0.,0.));
#654=DIRECTION('',(0.,-1.,0.));
#655=DIRECTION('center_axis',(0.,1.,0.));
#656=DIRECTION('ref_axis',(-1.,0.,0.));
#657=DIRECTION('center_axis',(0.,-1.,0.));
#658=DIRECTION('ref_axis',(-1.,0.,0.));
#659=DIRECTION('center_axis',(0.,-1.,0.));
#660=DIRECTION('ref_axis',(-1.,0.,0.));
#661=DIRECTION('',(0.,-1.,0.));
#662=DIRECTION('center_axis',(0.,1.,0.));
#663=DIRECTION('ref_axis',(-1.,0.,0.));
#664=DIRECTION('center_axis',(0.,-1.,0.));
#665=DIRECTION('ref_axis',(-1.,0.,0.));
#666=DIRECTION('center_axis',(0.,-1.,0.));
#667=DIRECTION('ref_axis',(-1.,0.,0.));
#668=DIRECTION('',(0.,-1.,0.));
#669=DIRECTION('center_axis',(0.,1.,0.));
#670=DIRECTION('ref_axis',(-1.,0.,0.));
#671=DIRECTION('center_axis',(0.,-1.,0.));
#672=DIRECTION('ref_axis',(-1.,0.,0.));
#673=DIRECTION('center_axis',(0.,-1.,0.));
#674=DIRECTION('ref_axis',(-1.,0.,0.));
#675=DIRECTION('',(0.,-1.,0.));
#676=DIRECTION('center_axis',(0.,1.,0.));
#677=DIRECTION('ref_axis',(-1.,0.,0.));
#678=DIRECTION('center_axis',(0.,-1.,0.));
#679=DIRECTION('ref_axis',(-1.,0.,0.));
#680=DIRECTION('center_axis',(0.,-1.,0.));
#681=DIRECTION('ref_axis',(-1.,0.,0.));
#682=DIRECTION('',(0.,-1.,0.));
#683=DIRECTION('center_axis',(0.,1.,0.));
#684=DIRECTION('ref_axis',(-1.,0.,0.));
#685=DIRECTION('center_axis',(1.,0.,0.));
#686=DIRECTION('ref_axis',(0.,0.,-1.));
#687=DIRECTION('',(0.,-1.,0.));
#688=DIRECTION('',(-6.12323399573677E-17,0.,1.));
#689=DIRECTION('',(0.,1.,0.));
#690=DIRECTION('center_axis',(1.27330254643551E-5,0.,-0.999999999918935));
#691=DIRECTION('ref_axis',(-0.999999999918935,0.,-1.27330254643551E-5));
#692=DIRECTION('',(-0.999999999918935,0.,-1.27330254643551E-5));
#693=DIRECTION('',(0.,1.,0.));
#694=DIRECTION('',(-0.999999999918935,0.,-1.27330254643551E-5));
#695=DIRECTION('',(0.,1.,0.));
#696=DIRECTION('center_axis',(1.,0.,0.));
#697=DIRECTION('ref_axis',(0.,0.,-1.));
#698=DIRECTION('',(0.,0.,1.));
#699=DIRECTION('',(0.,-1.,0.));
#700=DIRECTION('',(0.,0.,-1.));
#701=DIRECTION('center_axis',(0.,0.,-1.));
#702=DIRECTION('ref_axis',(0.,-1.,0.));
#703=DIRECTION('',(-1.,0.,0.));
#704=DIRECTION('',(0.,-1.,0.));
#705=DIRECTION('',(-1.,0.,0.));
#706=DIRECTION('center_axis',(0.,0.,1.));
#707=DIRECTION('ref_axis',(0.,1.,0.));
#708=DIRECTION('',(0.,-1.,0.));
#709=DIRECTION('',(-1.,0.,0.));
#710=DIRECTION('',(0.,1.,0.));
#711=DIRECTION('',(-1.,0.,0.));
#712=DIRECTION('center_axis',(0.,-1.,0.));
#713=DIRECTION('ref_axis',(0.,0.,1.));
#714=DIRECTION('',(0.,0.,1.));
#715=DIRECTION('',(0.999999999994925,0.,-3.18597220061881E-6));
#716=DIRECTION('center_axis',(-1.,0.,0.));
#717=DIRECTION('ref_axis',(0.,0.,1.));
#718=DIRECTION('',(0.,0.,-1.));
#719=DIRECTION('center_axis',(0.,1.,0.));
#720=DIRECTION('ref_axis',(-1.,0.,0.));
#721=DIRECTION('',(0.999999999994925,0.,-3.18597220061881E-6));
#722=DIRECTION('center_axis',(0.,1.,0.));
#723=DIRECTION('ref_axis',(-0.00713648536083866,0.,0.999974534964113));
#724=DIRECTION('center_axis',(3.18597220061881E-6,0.,0.999999999994925));
#725=DIRECTION('ref_axis',(0.999999999994925,0.,-3.18597220061881E-6));
#726=DIRECTION('',(0.,1.,0.));
#727=DIRECTION('center_axis',(0.,1.,0.));
#728=DIRECTION('ref_axis',(-0.00713648536083866,0.,0.999974534964113));
#729=CARTESIAN_POINT('',(0.,0.,0.));
#730=CARTESIAN_POINT('Origin',(-90.,-52.,0.));
#731=CARTESIAN_POINT('',(-94.2,-52.,-5.14351655641888E-16));
#732=CARTESIAN_POINT('Origin',(-90.,-52.,0.));
#733=CARTESIAN_POINT('',(-94.2,-29.,-5.14351655641888E-16));
#734=CARTESIAN_POINT('',(-94.2,-52.,5.14351655641888E-16));
#735=CARTESIAN_POINT('Origin',(-90.,-29.,0.));
#736=CARTESIAN_POINT('Origin',(-90.,-52.,-12.));
#737=CARTESIAN_POINT('',(-92.2,-49.,-12.));
#738=CARTESIAN_POINT('Origin',(-90.,-49.,-12.));
#739=CARTESIAN_POINT('',(-92.2,-52.,-12.));
#740=CARTESIAN_POINT('',(-92.2,-52.,-12.));
#741=CARTESIAN_POINT('Origin',(-90.,-52.,-12.));
#742=CARTESIAN_POINT('Origin',(-90.,-52.,12.));
#743=CARTESIAN_POINT('',(-92.2,-49.,12.));
#744=CARTESIAN_POINT('Origin',(-90.,-49.,12.));
#745=CARTESIAN_POINT('',(-92.2,-52.,12.));
#746=CARTESIAN_POINT('',(-92.2,-52.,12.));
#747=CARTESIAN_POINT('Origin',(-90.,-52.,12.));
#748=CARTESIAN_POINT('Origin',(-102.,-52.,1.46957615897682E-15));
#749=CARTESIAN_POINT('',(-104.2,-49.,1.20015386316441E-15));
#750=CARTESIAN_POINT('Origin',(-102.,-49.,1.46957615897682E-15));
#751=CARTESIAN_POINT('',(-104.2,-52.,1.20015386316441E-15));
#752=CARTESIAN_POINT('',(-104.2,-52.,1.73899845478924E-15));
#753=CARTESIAN_POINT('Origin',(-102.,-52.,1.46957615897682E-15));
#754=CARTESIAN_POINT('Origin',(-78.,-52.,0.));
#755=CARTESIAN_POINT('',(-80.2,-49.,-2.69422295812417E-16));
#756=CARTESIAN_POINT('Origin',(-78.,-49.,0.));
#757=CARTESIAN_POINT('',(-80.2,-52.,-2.69422295812417E-16));
#758=CARTESIAN_POINT('',(-80.2,-52.,2.69422295812417E-16));
#759=CARTESIAN_POINT('Origin',(-78.,-52.,0.));
#760=CARTESIAN_POINT('Origin',(-90.,-52.,0.));
#761=CARTESIAN_POINT('',(-106.,-49.,-1.95943487863576E-15));
#762=CARTESIAN_POINT('Origin',(-90.,-49.,0.));
#763=CARTESIAN_POINT('',(-106.,-52.,-1.95943487863576E-15));
#764=CARTESIAN_POINT('',(-106.,-52.,1.95943487863576E-15));
#765=CARTESIAN_POINT('Origin',(-90.,-52.,0.));
#766=CARTESIAN_POINT('Origin',(-90.,-49.,0.));
#767=CARTESIAN_POINT('',(-98.,-49.,-9.79717439317884E-16));
#768=CARTESIAN_POINT('Origin',(-90.,-49.,0.));
#769=CARTESIAN_POINT('Origin',(-90.,-39.,0.));
#770=CARTESIAN_POINT('',(-98.,-39.,-9.79717439317884E-16));
#771=CARTESIAN_POINT('',(-98.,-39.,-9.79717439317884E-16));
#772=CARTESIAN_POINT('Origin',(-90.,-39.,0.));
#773=CARTESIAN_POINT('Origin',(-90.,-52.,0.));
#774=CARTESIAN_POINT('Origin',(-90.,-39.,0.));
#775=CARTESIAN_POINT('',(-220.,-39.,34.9995221043475));
#776=CARTESIAN_POINT('',(-220.,-39.,-34.9980900490175));
#777=CARTESIAN_POINT('',(-220.,-39.,-1.77635683940025E-14));
#778=CARTESIAN_POINT('',(-89.5,-39.,-34.9964283891942));
#779=CARTESIAN_POINT('',(-89.5,-39.,-34.9964283891942));
#780=CARTESIAN_POINT('',(-89.75,-39.,34.9991071314684));
#781=CARTESIAN_POINT('Origin',(-90.,-39.,0.));
#782=CARTESIAN_POINT('',(-89.75,-39.,34.9991071314684));
#783=CARTESIAN_POINT('Origin',(-235.,-29.,5.21540628461992E-7));
#784=CARTESIAN_POINT('',(-233.3,-29.,5.21540628253802E-7));
#785=CARTESIAN_POINT('Origin',(-235.,-29.,5.21540628461992E-7));
#786=CARTESIAN_POINT('',(-233.3,-34.0000004321337,5.21540628253802E-7));
#787=CARTESIAN_POINT('',(-233.3,-29.,5.21540628670182E-7));
#788=CARTESIAN_POINT('Origin',(-235.,-34.0000004321337,5.21540628461992E-7));
#789=CARTESIAN_POINT('Origin',(-235.,-29.,-29.9999994784594));
#790=CARTESIAN_POINT('',(-233.3,-29.,-29.9999994784594));
#791=CARTESIAN_POINT('Origin',(-235.,-29.,-29.9999994784594));
#792=CARTESIAN_POINT('',(-233.3,-34.0000004321337,-29.9999994784594));
#793=CARTESIAN_POINT('',(-233.3,-29.,-29.9999994784594));
#794=CARTESIAN_POINT('Origin',(-235.,-34.0000004321337,-29.9999994784594));
#795=CARTESIAN_POINT('Origin',(-235.,-29.,30.0000005215406));
#796=CARTESIAN_POINT('',(-233.3,-29.,30.0000005215406));
#797=CARTESIAN_POINT('Origin',(-235.,-29.,30.0000005215406));
#798=CARTESIAN_POINT('',(-233.3,-34.0000004321337,30.0000005215406));
#799=CARTESIAN_POINT('',(-233.3,-29.,30.0000005215406));
#800=CARTESIAN_POINT('Origin',(-235.,-34.0000004321337,30.0000005215406));
#801=CARTESIAN_POINT('Origin',(-225.,-29.,5.21540628461992E-7));
#802=CARTESIAN_POINT('',(-223.3,-29.,5.21540628253802E-7));
#803=CARTESIAN_POINT('Origin',(-225.,-29.,5.21540628461992E-7));
#804=CARTESIAN_POINT('',(-223.3,-34.0000004321337,5.21540628253802E-7));
#805=CARTESIAN_POINT('',(-223.3,-29.,5.21540628670182E-7));
#806=CARTESIAN_POINT('Origin',(-225.,-34.0000004321337,5.21540628461992E-7));
#807=CARTESIAN_POINT('Origin',(-225.,-29.,-29.9999994784594));
#808=CARTESIAN_POINT('',(-223.3,-29.,-29.9999994784594));
#809=CARTESIAN_POINT('Origin',(-225.,-29.,-29.9999994784594));
#810=CARTESIAN_POINT('',(-223.3,-34.0000004321337,-29.9999994784594));
#811=CARTESIAN_POINT('',(-223.3,-29.,-29.9999994784594));
#812=CARTESIAN_POINT('Origin',(-225.,-34.0000004321337,-29.9999994784594));
#813=CARTESIAN_POINT('Origin',(-225.,-29.,30.0000005215406));
#814=CARTESIAN_POINT('',(-223.3,-29.,30.0000005215406));
#815=CARTESIAN_POINT('Origin',(-225.,-29.,30.0000005215406));
#816=CARTESIAN_POINT('',(-223.3,-34.0000004321337,30.0000005215406));
#817=CARTESIAN_POINT('',(-223.3,-29.,30.0000005215406));
#818=CARTESIAN_POINT('Origin',(-225.,-34.0000004321337,30.0000005215406));
#819=CARTESIAN_POINT('Origin',(-220.,-25.5,-1.77635683940025E-14));
#820=CARTESIAN_POINT('',(-220.,-34.0000004321337,34.9995221043475));
#821=CARTESIAN_POINT('',(-220.,-32.25,34.9995221043475));
#822=CARTESIAN_POINT('',(-220.,-34.0000004321337,-34.9980900490175));
#823=CARTESIAN_POINT('',(-220.,-34.0000004321337,-17.4999997392297));
#824=CARTESIAN_POINT('',(-220.,-32.25,-34.9980900490175));
#825=CARTESIAN_POINT('Origin',(-89.5,-39.,-34.9964283891942));
#826=CARTESIAN_POINT('',(-230.,-34.0000004321337,-34.9982173792721));
#827=CARTESIAN_POINT('',(-159.75,-34.0000004321337,-34.9973228842332));
#828=CARTESIAN_POINT('',(-230.,-29.0000002157705,-34.9982173792721));
#829=CARTESIAN_POINT('',(-230.,-32.25,-34.9982173792721));
#830=CARTESIAN_POINT('',(-89.5,-29.,-34.9964283891942));
#831=CARTESIAN_POINT('',(-89.5,-29.,-34.9964283891942));
#832=CARTESIAN_POINT('',(-89.5,-39.,-34.9964283891942));
#833=CARTESIAN_POINT('Origin',(-230.,-31.5000004321337,5.2154062770123E-7));
#834=CARTESIAN_POINT('',(-230.,-34.0000004321337,-34.9999994784594));
#835=CARTESIAN_POINT('',(-230.,-34.0000004321337,-34.9999994784594));
#836=CARTESIAN_POINT('',(-230.,-29.000000431543,-34.9999994784594));
#837=CARTESIAN_POINT('',(-230.,-29.0000004321337,-34.9999994784594));
#838=CARTESIAN_POINT('',(-230.,-29.0000004321337,35.0000005215406));
#839=CARTESIAN_POINT('Origin',(-230.,-29.0000004321337,-34.9999994784594));
#840=CARTESIAN_POINT('',(-240.,-34.0000004321337,-34.9999994784594));
#841=CARTESIAN_POINT('',(-230.,-34.0000004321337,-34.9999994784594));
#842=CARTESIAN_POINT('',(-240.,-29.000000431543,-34.9999994784594));
#843=CARTESIAN_POINT('',(-240.,-29.0000004321337,-34.9999994784594));
#844=CARTESIAN_POINT('',(-230.,-29.0000004321337,-34.9999994784594));
#845=CARTESIAN_POINT('Origin',(-230.,-34.0000004321337,35.0000005215406));
#846=CARTESIAN_POINT('',(-230.,-29.0000000000002,34.999553964174));
#847=CARTESIAN_POINT('',(-230.,-34.0000004321337,34.9995539640695));
#848=CARTESIAN_POINT('',(-230.,-32.25,34.9995539640695));
#849=CARTESIAN_POINT('',(-240.,-29.000000431543,35.0000005215406));
#850=CARTESIAN_POINT('',(-230.,-29.0000004321337,35.0000005215406));
#851=CARTESIAN_POINT('',(-240.,-34.0000004321337,35.0000005215406));
#852=CARTESIAN_POINT('',(-240.,-34.0000004321337,35.0000005215406));
#853=CARTESIAN_POINT('',(-230.,-34.0000004321337,35.0000005215406));
#854=CARTESIAN_POINT('Origin',(-230.,-34.0000004321337,-34.9999994784594));
#855=CARTESIAN_POINT('',(-240.,-34.0000004321337,-34.9999994784594));
#856=CARTESIAN_POINT('',(-299.99983274001,-34.0000004321337,34.9997769815907));
#857=CARTESIAN_POINT('Origin',(-240.,-31.5000004321337,5.21540628461992E-7));
#858=CARTESIAN_POINT('',(-240.,-29.0000004321337,35.0000005215406));
#859=CARTESIAN_POINT('Origin',(-230.,-29.,-1.77635683940025E-14));
#860=CARTESIAN_POINT('',(-89.75,-29.,34.9991071314684));
#861=CARTESIAN_POINT('',(-89.75,-29.,34.9991071314684));
#862=CARTESIAN_POINT('Origin',(-90.,-29.,0.));
#863=CARTESIAN_POINT('Origin',(-369.999888490973,-39.,34.9999999998223));
#864=CARTESIAN_POINT('',(-89.75,-39.,34.9991071314684));
#865=CARTESIAN_POINT('Origin',(-90.,-39.,0.));
#866=UNCERTAINTY_MEASURE_WITH_UNIT(LENGTH_MEASURE(0.01),#870,
'DISTANCE_ACCURACY_VALUE',
'Maximum model space distance between geometric entities at asserted c
onnectivities');
#867=UNCERTAINTY_MEASURE_WITH_UNIT(LENGTH_MEASURE(0.01),#870,
'DISTANCE_ACCURACY_VALUE',
'Maximum model space distance between geometric entities at asserted c
onnectivities');
#868=(
GEOMETRIC_REPRESENTATION_CONTEXT(3)
GLOBAL_UNCERTAINTY_ASSIGNED_CONTEXT((#866))
GLOBAL_UNIT_ASSIGNED_CONTEXT((#870,#872,#873))
REPRESENTATION_CONTEXT('','3D')
);
#869=(
GEOMETRIC_REPRESENTATION_CONTEXT(3)
GLOBAL_UNCERTAINTY_ASSIGNED_CONTEXT((#867))
GLOBAL_UNIT_ASSIGNED_CONTEXT((#870,#872,#873))
REPRESENTATION_CONTEXT('','3D')
);
#870=(
LENGTH_UNIT()
NAMED_UNIT(*)
SI_UNIT(.MILLI.,.METRE.)
);
#871=(
LENGTH_UNIT()
NAMED_UNIT(*)
SI_UNIT($,.METRE.)
);
#872=(
NAMED_UNIT(*)
PLANE_ANGLE_UNIT()
SI_UNIT($,.RADIAN.)
);
#873=(
NAMED_UNIT(*)
SI_UNIT($,.STERADIAN.)
SOLID_ANGLE_UNIT()
);
#874=SHAPE_DEFINITION_REPRESENTATION(#875,#876);
#875=PRODUCT_DEFINITION_SHAPE('',$,#878);
#876=SHAPE_REPRESENTATION('',(#526),#868);
#877=PRODUCT_DEFINITION_CONTEXT('part definition',#882,'design');
#878=PRODUCT_DEFINITION('2026-08-27-15-00-19-975','Flipper+arm+pt+2',#879,
#877);
#879=PRODUCT_DEFINITION_FORMATION('',$,#884);
#880=PRODUCT_RELATED_PRODUCT_CATEGORY('Flipper+arm+pt+2',
'Flipper+arm+pt+2',(#884));
#881=APPLICATION_PROTOCOL_DEFINITION('international standard',
'automotive_design',2009,#882);
#882=APPLICATION_CONTEXT(
'Core Data for Automotive Mechanical Design Process');
#883=PRODUCT_CONTEXT('part definition',#882,'mechanical');
#884=PRODUCT('2026-08-27-15-00-19-975','Flipper+arm+pt+2',$,(#883));
#885=PRESENTATION_STYLE_ASSIGNMENT((#887));
#886=PRESENTATION_STYLE_ASSIGNMENT((#888));
#887=SURFACE_STYLE_USAGE(.BOTH.,#889);
#888=SURFACE_STYLE_USAGE(.BOTH.,#890);
#889=SURFACE_SIDE_STYLE('',(#891));
#890=SURFACE_SIDE_STYLE('',(#892));
#891=SURFACE_STYLE_FILL_AREA(#893);
#892=SURFACE_STYLE_FILL_AREA(#894);
#893=FILL_AREA_STYLE('Plate',(#895));
#894=FILL_AREA_STYLE('Opaque(153,153,153)',(#896));
#895=FILL_AREA_STYLE_COLOUR('Plate',#897);
#896=FILL_AREA_STYLE_COLOUR('Opaque(153,153,153)',#898);
#897=COLOUR_RGB('Plate',0.6,0.6,0.6);
#898=COLOUR_RGB('Opaque(153,153,153)',0.6,0.6,0.6);
ENDSEC;
END-ISO-10303-21;
