ISO-10303-21;
HEADER;
/* Generated by software containing ST-Developer
 * from STEP Tools, Inc. (www.steptools.com) 
 */

FILE_DESCRIPTION(
/* description */ (''),
/* implementation_level */ '2;1');

FILE_NAME(
/* name */ 'Flipper+Motor+Bracket+Copy.step',
/* time_stamp */ '2026-08-27T11:17:18-05:00',
/* author */ (''),
/* organization */ (''),
/* preprocessor_version */ 'ST-DEVELOPER v20.1',
/* originating_system */ 'Autodesk Translation Framework v15.8.0.0',
/* authorisation */ '');

FILE_SCHEMA (('AUTOMOTIVE_DESIGN { 1 0 10303 214 3 1 1 }'));
ENDSEC;

DATA;
#10=MECHANICAL_DESIGN_GEOMETRIC_PRESENTATION_REPRESENTATION('',(#17),#1005);
#11=ITEM_DEFINED_TRANSFORMATION($,$,#593,#660);
#12=(
REPRESENTATION_RELATIONSHIP($,$,#1016,#1015)
REPRESENTATION_RELATIONSHIP_WITH_TRANSFORMATION(#11)
SHAPE_REPRESENTATION_RELATIONSHIP()
);
#13=CONTEXT_DEPENDENT_SHAPE_REPRESENTATION(#12,#1014);
#14=NEXT_ASSEMBLY_USAGE_OCCURRENCE('Left Flipper Bracket:1',
'Left Flipper Bracket:1','Left Flipper Bracket:1',#1018,#1019,
'Left Flipper Bracket:1');
#15=SHAPE_REPRESENTATION_RELATIONSHIP('SRR','None',#1016,#16);
#16=ADVANCED_BREP_SHAPE_REPRESENTATION('',(#18),#1004);
#17=STYLED_ITEM('',(#1030),#18);
#18=MANIFOLD_SOLID_BREP('Body1',#579);
#19=CYLINDRICAL_SURFACE('',#601,1.70000000000002);
#20=CYLINDRICAL_SURFACE('',#603,1.70000000000002);
#21=CYLINDRICAL_SURFACE('',#605,1.70000000000002);
#22=CYLINDRICAL_SURFACE('',#607,1.70000000000002);
#23=CYLINDRICAL_SURFACE('',#612,8.5);
#24=CYLINDRICAL_SURFACE('',#617,2.);
#25=CYLINDRICAL_SURFACE('',#619,2.);
#26=CYLINDRICAL_SURFACE('',#632,8.7);
#27=CYLINDRICAL_SURFACE('',#644,2.2);
#28=CYLINDRICAL_SURFACE('',#645,2.2);
#29=CYLINDRICAL_SURFACE('',#646,2.2);
#30=CYLINDRICAL_SURFACE('',#647,2.2);
#31=CYLINDRICAL_SURFACE('',#649,1.4999999999999);
#32=CYLINDRICAL_SURFACE('',#652,1.49999999999999);
#33=CYLINDRICAL_SURFACE('',#655,1.50000000000004);
#34=CYLINDRICAL_SURFACE('',#657,1.50000000000006);
#35=FACE_BOUND('',#88,.T.);
#36=FACE_BOUND('',#89,.T.);
#37=FACE_BOUND('',#90,.T.);
#38=FACE_BOUND('',#91,.T.);
#39=FACE_BOUND('',#97,.T.);
#40=FACE_BOUND('',#98,.T.);
#41=FACE_BOUND('',#99,.T.);
#42=FACE_BOUND('',#100,.T.);
#43=FACE_BOUND('',#108,.T.);
#44=FACE_BOUND('',#110,.T.);
#45=FACE_BOUND('',#112,.T.);
#46=FACE_BOUND('',#114,.T.);
#47=FACE_BOUND('',#117,.T.);
#48=FACE_BOUND('',#118,.T.);
#49=FACE_BOUND('',#119,.T.);
#50=FACE_BOUND('',#120,.T.);
#51=FACE_BOUND('',#121,.T.);
#52=FACE_BOUND('',#134,.T.);
#53=FACE_BOUND('',#135,.T.);
#54=FACE_BOUND('',#136,.T.);
#55=FACE_BOUND('',#137,.T.);
#56=FACE_BOUND('',#138,.T.);
#57=FACE_OUTER_BOUND('',#87,.T.);
#58=FACE_OUTER_BOUND('',#92,.T.);
#59=FACE_OUTER_BOUND('',#93,.T.);
#60=FACE_OUTER_BOUND('',#94,.T.);
#61=FACE_OUTER_BOUND('',#95,.T.);
#62=FACE_OUTER_BOUND('',#96,.T.);
#63=FACE_OUTER_BOUND('',#101,.T.);
#64=FACE_OUTER_BOUND('',#102,.T.);
#65=FACE_OUTER_BOUND('',#103,.T.);
#66=FACE_OUTER_BOUND('',#104,.T.);
#67=FACE_OUTER_BOUND('',#105,.T.);
#68=FACE_OUTER_BOUND('',#106,.T.);
#69=FACE_OUTER_BOUND('',#107,.T.);
#70=FACE_OUTER_BOUND('',#109,.T.);
#71=FACE_OUTER_BOUND('',#111,.T.);
#72=FACE_OUTER_BOUND('',#113,.T.);
#73=FACE_OUTER_BOUND('',#115,.T.);
#74=FACE_OUTER_BOUND('',#116,.T.);
#75=FACE_OUTER_BOUND('',#122,.T.);
#76=FACE_OUTER_BOUND('',#123,.T.);
#77=FACE_OUTER_BOUND('',#124,.T.);
#78=FACE_OUTER_BOUND('',#125,.T.);
#79=FACE_OUTER_BOUND('',#126,.T.);
#80=FACE_OUTER_BOUND('',#127,.T.);
#81=FACE_OUTER_BOUND('',#128,.T.);
#82=FACE_OUTER_BOUND('',#129,.T.);
#83=FACE_OUTER_BOUND('',#130,.T.);
#84=FACE_OUTER_BOUND('',#131,.T.);
#85=FACE_OUTER_BOUND('',#132,.T.);
#86=FACE_OUTER_BOUND('',#133,.T.);
#87=EDGE_LOOP('',(#383,#384,#385,#386,#387,#388));
#88=EDGE_LOOP('',(#389));
#89=EDGE_LOOP('',(#390));
#90=EDGE_LOOP('',(#391));
#91=EDGE_LOOP('',(#392));
#92=EDGE_LOOP('',(#393,#394,#395,#396));
#93=EDGE_LOOP('',(#397,#398,#399,#400));
#94=EDGE_LOOP('',(#401,#402,#403,#404));
#95=EDGE_LOOP('',(#405,#406,#407,#408));
#96=EDGE_LOOP('',(#409,#410,#411,#412,#413,#414,#415,#416,#417,#418));
#97=EDGE_LOOP('',(#419));
#98=EDGE_LOOP('',(#420));
#99=EDGE_LOOP('',(#421));
#100=EDGE_LOOP('',(#422));
#101=EDGE_LOOP('',(#423,#424,#425,#426));
#102=EDGE_LOOP('',(#427,#428,#429,#430,#431));
#103=EDGE_LOOP('',(#432,#433,#434,#435,#436));
#104=EDGE_LOOP('',(#437,#438,#439,#440));
#105=EDGE_LOOP('',(#441,#442,#443,#444));
#106=EDGE_LOOP('',(#445,#446,#447,#448));
#107=EDGE_LOOP('',(#449));
#108=EDGE_LOOP('',(#450));
#109=EDGE_LOOP('',(#451));
#110=EDGE_LOOP('',(#452));
#111=EDGE_LOOP('',(#453));
#112=EDGE_LOOP('',(#454));
#113=EDGE_LOOP('',(#455));
#114=EDGE_LOOP('',(#456));
#115=EDGE_LOOP('',(#457,#458,#459,#460));
#116=EDGE_LOOP('',(#461,#462,#463,#464,#465,#466,#467,#468,#469,#470,#471,
#472));
#117=EDGE_LOOP('',(#473));
#118=EDGE_LOOP('',(#474));
#119=EDGE_LOOP('',(#475));
#120=EDGE_LOOP('',(#476));
#121=EDGE_LOOP('',(#477));
#122=EDGE_LOOP('',(#478,#479,#480,#481));
#123=EDGE_LOOP('',(#482,#483,#484,#485));
#124=EDGE_LOOP('',(#486,#487,#488,#489));
#125=EDGE_LOOP('',(#490,#491,#492,#493));
#126=EDGE_LOOP('',(#494,#495,#496,#497));
#127=EDGE_LOOP('',(#498,#499,#500,#501));
#128=EDGE_LOOP('',(#502,#503,#504,#505));
#129=EDGE_LOOP('',(#506,#507,#508,#509));
#130=EDGE_LOOP('',(#510,#511,#512,#513));
#131=EDGE_LOOP('',(#514,#515,#516,#517));
#132=EDGE_LOOP('',(#518,#519,#520,#521));
#133=EDGE_LOOP('',(#522,#523,#524,#525,#526,#527,#528,#529));
#134=EDGE_LOOP('',(#530));
#135=EDGE_LOOP('',(#531));
#136=EDGE_LOOP('',(#532));
#137=EDGE_LOOP('',(#533));
#138=EDGE_LOOP('',(#534));
#139=CIRCLE('',#595,2.);
#140=CIRCLE('',#596,2.);
#141=CIRCLE('',#597,1.70000000000002);
#142=CIRCLE('',#598,1.70000000000002);
#143=CIRCLE('',#599,1.70000000000002);
#144=CIRCLE('',#600,1.70000000000002);
#145=CIRCLE('',#602,1.70000000000002);
#146=CIRCLE('',#604,1.70000000000002);
#147=CIRCLE('',#606,1.70000000000002);
#148=CIRCLE('',#608,1.70000000000002);
#149=CIRCLE('',#610,2.);
#150=CIRCLE('',#611,2.);
#151=CIRCLE('',#613,8.5);
#152=CIRCLE('',#614,8.5);
#153=CIRCLE('',#621,4.40044484282922);
#154=CIRCLE('',#622,2.2);
#155=CIRCLE('',#624,4.40044484282922);
#156=CIRCLE('',#625,2.2);
#157=CIRCLE('',#627,4.40044484282922);
#158=CIRCLE('',#628,2.2);
#159=CIRCLE('',#630,4.40044484282922);
#160=CIRCLE('',#631,2.2);
#161=CIRCLE('',#633,8.7);
#162=CIRCLE('',#634,8.7);
#163=CIRCLE('',#636,1.50000000000004);
#164=CIRCLE('',#637,1.49999999999999);
#165=CIRCLE('',#638,1.4999999999999);
#166=CIRCLE('',#639,1.50000000000006);
#167=CIRCLE('',#640,2.2);
#168=CIRCLE('',#641,2.2);
#169=CIRCLE('',#642,2.2);
#170=CIRCLE('',#643,2.2);
#171=CIRCLE('',#650,1.4999999999999);
#172=CIRCLE('',#653,1.49999999999999);
#173=CIRCLE('',#656,1.50000000000004);
#174=CIRCLE('',#658,1.50000000000006);
#175=LINE('',#844,#215);
#176=LINE('',#846,#216);
#177=LINE('',#850,#217);
#178=LINE('',#853,#218);
#179=LINE('',#864,#219);
#180=LINE('',#868,#220);
#181=LINE('',#872,#221);
#182=LINE('',#876,#222);
#183=LINE('',#883,#223);
#184=LINE('',#885,#224);
#185=LINE('',#887,#225);
#186=LINE('',#889,#226);
#187=LINE('',#891,#227);
#188=LINE('',#893,#228);
#189=LINE('',#895,#229);
#190=LINE('',#898,#230);
#191=LINE('',#904,#231);
#192=LINE('',#906,#232);
#193=LINE('',#907,#233);
#194=LINE('',#909,#234);
#195=LINE('',#910,#235);
#196=LINE('',#912,#236);
#197=LINE('',#914,#237);
#198=LINE('',#940,#238);
#199=LINE('',#946,#239);
#200=LINE('',#950,#240);
#201=LINE('',#954,#241);
#202=LINE('',#965,#242);
#203=LINE('',#967,#243);
#204=LINE('',#969,#244);
#205=LINE('',#971,#245);
#206=LINE('',#975,#246);
#207=LINE('',#976,#247);
#208=LINE('',#977,#248);
#209=LINE('',#981,#249);
#210=LINE('',#984,#250);
#211=LINE('',#985,#251);
#212=LINE('',#989,#252);
#213=LINE('',#992,#253);
#214=LINE('',#993,#254);
#215=VECTOR('',#667,10.);
#216=VECTOR('',#668,10.);
#217=VECTOR('',#671,10.);
#218=VECTOR('',#674,10.);
#219=VECTOR('',#685,1.70000000000002);
#220=VECTOR('',#690,1.70000000000002);
#221=VECTOR('',#695,1.70000000000002);
#222=VECTOR('',#700,1.70000000000002);
#223=VECTOR('',#707,10.);
#224=VECTOR('',#708,10.);
#225=VECTOR('',#709,10.);
#226=VECTOR('',#710,10.);
#227=VECTOR('',#711,10.);
#228=VECTOR('',#712,10.);
#229=VECTOR('',#713,10.);
#230=VECTOR('',#716,10.);
#231=VECTOR('',#723,10.);
#232=VECTOR('',#726,10.);
#233=VECTOR('',#727,10.);
#234=VECTOR('',#730,10.);
#235=VECTOR('',#731,10.);
#236=VECTOR('',#734,10.);
#237=VECTOR('',#737,10.);
#238=VECTOR('',#768,12.5);
#239=VECTOR('',#775,10.);
#240=VECTOR('',#778,10.);
#241=VECTOR('',#781,10.);
#242=VECTOR('',#794,2.2);
#243=VECTOR('',#797,2.2);
#244=VECTOR('',#800,2.2);
#245=VECTOR('',#803,2.2);
#246=VECTOR('',#806,10.);
#247=VECTOR('',#807,10.);
#248=VECTOR('',#808,10.);
#249=VECTOR('',#813,10.);
#250=VECTOR('',#816,10.);
#251=VECTOR('',#817,10.);
#252=VECTOR('',#822,10.);
#253=VECTOR('',#825,10.);
#254=VECTOR('',#826,10.);
#255=VERTEX_POINT('',#842);
#256=VERTEX_POINT('',#843);
#257=VERTEX_POINT('',#845);
#258=VERTEX_POINT('',#847);
#259=VERTEX_POINT('',#849);
#260=VERTEX_POINT('',#851);
#261=VERTEX_POINT('',#854);
#262=VERTEX_POINT('',#856);
#263=VERTEX_POINT('',#858);
#264=VERTEX_POINT('',#860);
#265=VERTEX_POINT('',#863);
#266=VERTEX_POINT('',#867);
#267=VERTEX_POINT('',#871);
#268=VERTEX_POINT('',#875);
#269=VERTEX_POINT('',#879);
#270=VERTEX_POINT('',#880);
#271=VERTEX_POINT('',#882);
#272=VERTEX_POINT('',#884);
#273=VERTEX_POINT('',#886);
#274=VERTEX_POINT('',#888);
#275=VERTEX_POINT('',#890);
#276=VERTEX_POINT('',#892);
#277=VERTEX_POINT('',#894);
#278=VERTEX_POINT('',#896);
#279=VERTEX_POINT('',#900);
#280=VERTEX_POINT('',#902);
#281=VERTEX_POINT('',#917);
#282=VERTEX_POINT('',#919);
#283=VERTEX_POINT('',#922);
#284=VERTEX_POINT('',#924);
#285=VERTEX_POINT('',#927);
#286=VERTEX_POINT('',#929);
#287=VERTEX_POINT('',#932);
#288=VERTEX_POINT('',#934);
#289=VERTEX_POINT('',#937);
#290=VERTEX_POINT('',#939);
#291=VERTEX_POINT('',#943);
#292=VERTEX_POINT('',#945);
#293=VERTEX_POINT('',#947);
#294=VERTEX_POINT('',#949);
#295=VERTEX_POINT('',#951);
#296=VERTEX_POINT('',#953);
#297=VERTEX_POINT('',#956);
#298=VERTEX_POINT('',#958);
#299=VERTEX_POINT('',#960);
#300=VERTEX_POINT('',#962);
#301=VERTEX_POINT('',#973);
#302=VERTEX_POINT('',#974);
#303=VERTEX_POINT('',#979);
#304=VERTEX_POINT('',#983);
#305=VERTEX_POINT('',#987);
#306=VERTEX_POINT('',#991);
#307=EDGE_CURVE('',#255,#256,#175,.T.);
#308=EDGE_CURVE('',#255,#257,#176,.T.);
#309=EDGE_CURVE('',#258,#257,#139,.T.);
#310=EDGE_CURVE('',#259,#258,#177,.T.);
#311=EDGE_CURVE('',#260,#259,#140,.T.);
#312=EDGE_CURVE('',#256,#260,#178,.F.);
#313=EDGE_CURVE('',#261,#261,#141,.T.);
#314=EDGE_CURVE('',#262,#262,#142,.T.);
#315=EDGE_CURVE('',#263,#263,#143,.T.);
#316=EDGE_CURVE('',#264,#264,#144,.T.);
#317=EDGE_CURVE('',#261,#265,#179,.T.);
#318=EDGE_CURVE('',#265,#265,#145,.T.);
#319=EDGE_CURVE('',#262,#266,#180,.T.);
#320=EDGE_CURVE('',#266,#266,#146,.T.);
#321=EDGE_CURVE('',#263,#267,#181,.T.);
#322=EDGE_CURVE('',#267,#267,#147,.T.);
#323=EDGE_CURVE('',#264,#268,#182,.T.);
#324=EDGE_CURVE('',#268,#268,#148,.T.);
#325=EDGE_CURVE('',#269,#270,#149,.T.);
#326=EDGE_CURVE('',#271,#269,#183,.T.);
#327=EDGE_CURVE('',#272,#271,#184,.T.);
#328=EDGE_CURVE('',#273,#272,#185,.T.);
#329=EDGE_CURVE('',#273,#274,#186,.T.);
#330=EDGE_CURVE('',#274,#275,#187,.T.);
#331=EDGE_CURVE('',#276,#275,#188,.T.);
#332=EDGE_CURVE('',#276,#277,#189,.T.);
#333=EDGE_CURVE('',#278,#277,#150,.T.);
#334=EDGE_CURVE('',#270,#278,#190,.F.);
#335=EDGE_CURVE('',#279,#255,#151,.T.);
#336=EDGE_CURVE('',#256,#280,#152,.T.);
#337=EDGE_CURVE('',#280,#279,#191,.T.);
#338=EDGE_CURVE('',#271,#279,#192,.T.);
#339=EDGE_CURVE('',#257,#269,#193,.T.);
#340=EDGE_CURVE('',#277,#260,#194,.T.);
#341=EDGE_CURVE('',#280,#276,#195,.T.);
#342=EDGE_CURVE('',#270,#258,#196,.T.);
#343=EDGE_CURVE('',#259,#278,#197,.T.);
#344=EDGE_CURVE('',#281,#281,#153,.T.);
#345=EDGE_CURVE('',#282,#282,#154,.T.);
#346=EDGE_CURVE('',#283,#283,#155,.T.);
#347=EDGE_CURVE('',#284,#284,#156,.T.);
#348=EDGE_CURVE('',#285,#285,#157,.T.);
#349=EDGE_CURVE('',#286,#286,#158,.T.);
#350=EDGE_CURVE('',#287,#287,#159,.T.);
#351=EDGE_CURVE('',#288,#288,#160,.T.);
#352=EDGE_CURVE('',#289,#289,#161,.T.);
#353=EDGE_CURVE('',#289,#290,#198,.T.);
#354=EDGE_CURVE('',#290,#290,#162,.F.);
#355=EDGE_CURVE('',#275,#291,#163,.T.);
#356=EDGE_CURVE('',#291,#292,#199,.T.);
#357=EDGE_CURVE('',#292,#293,#164,.T.);
#358=EDGE_CURVE('',#293,#294,#200,.T.);
#359=EDGE_CURVE('',#294,#295,#165,.T.);
#360=EDGE_CURVE('',#295,#296,#201,.T.);
#361=EDGE_CURVE('',#296,#272,#166,.T.);
#362=EDGE_CURVE('',#297,#297,#167,.T.);
#363=EDGE_CURVE('',#298,#298,#168,.T.);
#364=EDGE_CURVE('',#299,#299,#169,.T.);
#365=EDGE_CURVE('',#300,#300,#170,.T.);
#366=EDGE_CURVE('',#297,#288,#202,.T.);
#367=EDGE_CURVE('',#298,#282,#203,.T.);
#368=EDGE_CURVE('',#300,#284,#204,.T.);
#369=EDGE_CURVE('',#299,#286,#205,.T.);
#370=EDGE_CURVE('',#301,#302,#206,.T.);
#371=EDGE_CURVE('',#302,#296,#207,.T.);
#372=EDGE_CURVE('',#301,#295,#208,.T.);
#373=EDGE_CURVE('',#303,#301,#171,.T.);
#374=EDGE_CURVE('',#303,#294,#209,.T.);
#375=EDGE_CURVE('',#304,#303,#210,.T.);
#376=EDGE_CURVE('',#304,#293,#211,.T.);
#377=EDGE_CURVE('',#305,#304,#172,.T.);
#378=EDGE_CURVE('',#305,#292,#212,.T.);
#379=EDGE_CURVE('',#306,#305,#213,.T.);
#380=EDGE_CURVE('',#306,#291,#214,.T.);
#381=EDGE_CURVE('',#274,#306,#173,.T.);
#382=EDGE_CURVE('',#302,#273,#174,.T.);
#383=ORIENTED_EDGE('',*,*,#307,.F.);
#384=ORIENTED_EDGE('',*,*,#308,.T.);
#385=ORIENTED_EDGE('',*,*,#309,.F.);
#386=ORIENTED_EDGE('',*,*,#310,.F.);
#387=ORIENTED_EDGE('',*,*,#311,.F.);
#388=ORIENTED_EDGE('',*,*,#312,.F.);
#389=ORIENTED_EDGE('',*,*,#313,.T.);
#390=ORIENTED_EDGE('',*,*,#314,.T.);
#391=ORIENTED_EDGE('',*,*,#315,.T.);
#392=ORIENTED_EDGE('',*,*,#316,.T.);
#393=ORIENTED_EDGE('',*,*,#313,.F.);
#394=ORIENTED_EDGE('',*,*,#317,.T.);
#395=ORIENTED_EDGE('',*,*,#318,.F.);
#396=ORIENTED_EDGE('',*,*,#317,.F.);
#397=ORIENTED_EDGE('',*,*,#314,.F.);
#398=ORIENTED_EDGE('',*,*,#319,.T.);
#399=ORIENTED_EDGE('',*,*,#320,.F.);
#400=ORIENTED_EDGE('',*,*,#319,.F.);
#401=ORIENTED_EDGE('',*,*,#315,.F.);
#402=ORIENTED_EDGE('',*,*,#321,.T.);
#403=ORIENTED_EDGE('',*,*,#322,.F.);
#404=ORIENTED_EDGE('',*,*,#321,.F.);
#405=ORIENTED_EDGE('',*,*,#316,.F.);
#406=ORIENTED_EDGE('',*,*,#323,.T.);
#407=ORIENTED_EDGE('',*,*,#324,.F.);
#408=ORIENTED_EDGE('',*,*,#323,.F.);
#409=ORIENTED_EDGE('',*,*,#325,.F.);
#410=ORIENTED_EDGE('',*,*,#326,.F.);
#411=ORIENTED_EDGE('',*,*,#327,.F.);
#412=ORIENTED_EDGE('',*,*,#328,.F.);
#413=ORIENTED_EDGE('',*,*,#329,.T.);
#414=ORIENTED_EDGE('',*,*,#330,.T.);
#415=ORIENTED_EDGE('',*,*,#331,.F.);
#416=ORIENTED_EDGE('',*,*,#332,.T.);
#417=ORIENTED_EDGE('',*,*,#333,.F.);
#418=ORIENTED_EDGE('',*,*,#334,.F.);
#419=ORIENTED_EDGE('',*,*,#318,.T.);
#420=ORIENTED_EDGE('',*,*,#320,.T.);
#421=ORIENTED_EDGE('',*,*,#322,.T.);
#422=ORIENTED_EDGE('',*,*,#324,.T.);
#423=ORIENTED_EDGE('',*,*,#335,.T.);
#424=ORIENTED_EDGE('',*,*,#307,.T.);
#425=ORIENTED_EDGE('',*,*,#336,.T.);
#426=ORIENTED_EDGE('',*,*,#337,.T.);
#427=ORIENTED_EDGE('',*,*,#338,.F.);
#428=ORIENTED_EDGE('',*,*,#326,.T.);
#429=ORIENTED_EDGE('',*,*,#339,.F.);
#430=ORIENTED_EDGE('',*,*,#308,.F.);
#431=ORIENTED_EDGE('',*,*,#335,.F.);
#432=ORIENTED_EDGE('',*,*,#312,.T.);
#433=ORIENTED_EDGE('',*,*,#340,.F.);
#434=ORIENTED_EDGE('',*,*,#332,.F.);
#435=ORIENTED_EDGE('',*,*,#341,.F.);
#436=ORIENTED_EDGE('',*,*,#336,.F.);
#437=ORIENTED_EDGE('',*,*,#325,.T.);
#438=ORIENTED_EDGE('',*,*,#342,.T.);
#439=ORIENTED_EDGE('',*,*,#309,.T.);
#440=ORIENTED_EDGE('',*,*,#339,.T.);
#441=ORIENTED_EDGE('',*,*,#342,.F.);
#442=ORIENTED_EDGE('',*,*,#334,.T.);
#443=ORIENTED_EDGE('',*,*,#343,.F.);
#444=ORIENTED_EDGE('',*,*,#310,.T.);
#445=ORIENTED_EDGE('',*,*,#311,.T.);
#446=ORIENTED_EDGE('',*,*,#343,.T.);
#447=ORIENTED_EDGE('',*,*,#333,.T.);
#448=ORIENTED_EDGE('',*,*,#340,.T.);
#449=ORIENTED_EDGE('',*,*,#344,.F.);
#450=ORIENTED_EDGE('',*,*,#345,.T.);
#451=ORIENTED_EDGE('',*,*,#346,.F.);
#452=ORIENTED_EDGE('',*,*,#347,.T.);
#453=ORIENTED_EDGE('',*,*,#348,.F.);
#454=ORIENTED_EDGE('',*,*,#349,.T.);
#455=ORIENTED_EDGE('',*,*,#350,.F.);
#456=ORIENTED_EDGE('',*,*,#351,.T.);
#457=ORIENTED_EDGE('',*,*,#352,.F.);
#458=ORIENTED_EDGE('',*,*,#353,.T.);
#459=ORIENTED_EDGE('',*,*,#354,.F.);
#460=ORIENTED_EDGE('',*,*,#353,.F.);
#461=ORIENTED_EDGE('',*,*,#341,.T.);
#462=ORIENTED_EDGE('',*,*,#331,.T.);
#463=ORIENTED_EDGE('',*,*,#355,.T.);
#464=ORIENTED_EDGE('',*,*,#356,.T.);
#465=ORIENTED_EDGE('',*,*,#357,.T.);
#466=ORIENTED_EDGE('',*,*,#358,.T.);
#467=ORIENTED_EDGE('',*,*,#359,.T.);
#468=ORIENTED_EDGE('',*,*,#360,.T.);
#469=ORIENTED_EDGE('',*,*,#361,.T.);
#470=ORIENTED_EDGE('',*,*,#327,.T.);
#471=ORIENTED_EDGE('',*,*,#338,.T.);
#472=ORIENTED_EDGE('',*,*,#337,.F.);
#473=ORIENTED_EDGE('',*,*,#362,.T.);
#474=ORIENTED_EDGE('',*,*,#363,.T.);
#475=ORIENTED_EDGE('',*,*,#352,.T.);
#476=ORIENTED_EDGE('',*,*,#364,.T.);
#477=ORIENTED_EDGE('',*,*,#365,.T.);
#478=ORIENTED_EDGE('',*,*,#362,.F.);
#479=ORIENTED_EDGE('',*,*,#366,.T.);
#480=ORIENTED_EDGE('',*,*,#351,.F.);
#481=ORIENTED_EDGE('',*,*,#366,.F.);
#482=ORIENTED_EDGE('',*,*,#363,.F.);
#483=ORIENTED_EDGE('',*,*,#367,.T.);
#484=ORIENTED_EDGE('',*,*,#345,.F.);
#485=ORIENTED_EDGE('',*,*,#367,.F.);
#486=ORIENTED_EDGE('',*,*,#365,.F.);
#487=ORIENTED_EDGE('',*,*,#368,.T.);
#488=ORIENTED_EDGE('',*,*,#347,.F.);
#489=ORIENTED_EDGE('',*,*,#368,.F.);
#490=ORIENTED_EDGE('',*,*,#364,.F.);
#491=ORIENTED_EDGE('',*,*,#369,.T.);
#492=ORIENTED_EDGE('',*,*,#349,.F.);
#493=ORIENTED_EDGE('',*,*,#369,.F.);
#494=ORIENTED_EDGE('',*,*,#370,.T.);
#495=ORIENTED_EDGE('',*,*,#371,.T.);
#496=ORIENTED_EDGE('',*,*,#360,.F.);
#497=ORIENTED_EDGE('',*,*,#372,.F.);
#498=ORIENTED_EDGE('',*,*,#373,.T.);
#499=ORIENTED_EDGE('',*,*,#372,.T.);
#500=ORIENTED_EDGE('',*,*,#359,.F.);
#501=ORIENTED_EDGE('',*,*,#374,.F.);
#502=ORIENTED_EDGE('',*,*,#375,.T.);
#503=ORIENTED_EDGE('',*,*,#374,.T.);
#504=ORIENTED_EDGE('',*,*,#358,.F.);
#505=ORIENTED_EDGE('',*,*,#376,.F.);
#506=ORIENTED_EDGE('',*,*,#377,.T.);
#507=ORIENTED_EDGE('',*,*,#376,.T.);
#508=ORIENTED_EDGE('',*,*,#357,.F.);
#509=ORIENTED_EDGE('',*,*,#378,.F.);
#510=ORIENTED_EDGE('',*,*,#379,.T.);
#511=ORIENTED_EDGE('',*,*,#378,.T.);
#512=ORIENTED_EDGE('',*,*,#356,.F.);
#513=ORIENTED_EDGE('',*,*,#380,.F.);
#514=ORIENTED_EDGE('',*,*,#381,.T.);
#515=ORIENTED_EDGE('',*,*,#380,.T.);
#516=ORIENTED_EDGE('',*,*,#355,.F.);
#517=ORIENTED_EDGE('',*,*,#330,.F.);
#518=ORIENTED_EDGE('',*,*,#382,.T.);
#519=ORIENTED_EDGE('',*,*,#328,.T.);
#520=ORIENTED_EDGE('',*,*,#361,.F.);
#521=ORIENTED_EDGE('',*,*,#371,.F.);
#522=ORIENTED_EDGE('',*,*,#382,.F.);
#523=ORIENTED_EDGE('',*,*,#370,.F.);
#524=ORIENTED_EDGE('',*,*,#373,.F.);
#525=ORIENTED_EDGE('',*,*,#375,.F.);
#526=ORIENTED_EDGE('',*,*,#377,.F.);
#527=ORIENTED_EDGE('',*,*,#379,.F.);
#528=ORIENTED_EDGE('',*,*,#381,.F.);
#529=ORIENTED_EDGE('',*,*,#329,.F.);
#530=ORIENTED_EDGE('',*,*,#354,.T.);
#531=ORIENTED_EDGE('',*,*,#348,.T.);
#532=ORIENTED_EDGE('',*,*,#344,.T.);
#533=ORIENTED_EDGE('',*,*,#346,.T.);
#534=ORIENTED_EDGE('',*,*,#350,.T.);
#535=PLANE('',#594);
#536=PLANE('',#609);
#537=PLANE('',#615);
#538=PLANE('',#616);
#539=PLANE('',#618);
#540=PLANE('',#620);
#541=PLANE('',#623);
#542=PLANE('',#626);
#543=PLANE('',#629);
#544=PLANE('',#635);
#545=PLANE('',#648);
#546=PLANE('',#651);
#547=PLANE('',#654);
#548=PLANE('',#659);
#549=ADVANCED_FACE('',(#57,#35,#36,#37,#38),#535,.T.);
#550=ADVANCED_FACE('',(#58),#19,.F.);
#551=ADVANCED_FACE('',(#59),#20,.F.);
#552=ADVANCED_FACE('',(#60),#21,.F.);
#553=ADVANCED_FACE('',(#61),#22,.F.);
#554=ADVANCED_FACE('',(#62,#39,#40,#41,#42),#536,.F.);
#555=ADVANCED_FACE('',(#63),#23,.F.);
#556=ADVANCED_FACE('',(#64),#537,.T.);
#557=ADVANCED_FACE('',(#65),#538,.T.);
#558=ADVANCED_FACE('',(#66),#24,.T.);
#559=ADVANCED_FACE('',(#67),#539,.T.);
#560=ADVANCED_FACE('',(#68),#25,.T.);
#561=ADVANCED_FACE('',(#69,#43),#540,.F.);
#562=ADVANCED_FACE('',(#70,#44),#541,.F.);
#563=ADVANCED_FACE('',(#71,#45),#542,.F.);
#564=ADVANCED_FACE('',(#72,#46),#543,.F.);
#565=ADVANCED_FACE('',(#73),#26,.F.);
#566=ADVANCED_FACE('',(#74,#47,#48,#49,#50,#51),#544,.T.);
#567=ADVANCED_FACE('',(#75),#27,.F.);
#568=ADVANCED_FACE('',(#76),#28,.F.);
#569=ADVANCED_FACE('',(#77),#29,.F.);
#570=ADVANCED_FACE('',(#78),#30,.F.);
#571=ADVANCED_FACE('',(#79),#545,.T.);
#572=ADVANCED_FACE('',(#80),#31,.T.);
#573=ADVANCED_FACE('',(#81),#546,.T.);
#574=ADVANCED_FACE('',(#82),#32,.T.);
#575=ADVANCED_FACE('',(#83),#547,.T.);
#576=ADVANCED_FACE('',(#84),#33,.T.);
#577=ADVANCED_FACE('',(#85),#34,.T.);
#578=ADVANCED_FACE('',(#86,#52,#53,#54,#55,#56),#548,.F.);
#579=CLOSED_SHELL('',(#549,#550,#551,#552,#553,#554,#555,#556,#557,#558,
#559,#560,#561,#562,#563,#564,#565,#566,#567,#568,#569,#570,#571,#572,#573,
#574,#575,#576,#577,#578));
#580=DERIVED_UNIT_ELEMENT(#582,1.);
#581=DERIVED_UNIT_ELEMENT(#1007,-3.);
#582=(
MASS_UNIT()
NAMED_UNIT(*)
SI_UNIT(.KILO.,.GRAM.)
);
#583=DERIVED_UNIT((#580,#581));
#584=MEASURE_REPRESENTATION_ITEM('density measure',
POSITIVE_RATIO_MEASURE(7850.),#583);
#585=PROPERTY_DEFINITION_REPRESENTATION(#590,#587);
#586=PROPERTY_DEFINITION_REPRESENTATION(#591,#588);
#587=REPRESENTATION('material name',(#589),#1004);
#588=REPRESENTATION('density',(#584),#1004);
#589=DESCRIPTIVE_REPRESENTATION_ITEM('Steel','Steel');
#590=PROPERTY_DEFINITION('material property','material name',#1019);
#591=PROPERTY_DEFINITION('material property','density of part',#1019);
#592=AXIS2_PLACEMENT_3D('',#839,#661,#662);
#593=AXIS2_PLACEMENT_3D('',#840,#663,#664);
#594=AXIS2_PLACEMENT_3D('',#841,#665,#666);
#595=AXIS2_PLACEMENT_3D('',#848,#669,#670);
#596=AXIS2_PLACEMENT_3D('',#852,#672,#673);
#597=AXIS2_PLACEMENT_3D('',#855,#675,#676);
#598=AXIS2_PLACEMENT_3D('',#857,#677,#678);
#599=AXIS2_PLACEMENT_3D('',#859,#679,#680);
#600=AXIS2_PLACEMENT_3D('',#861,#681,#682);
#601=AXIS2_PLACEMENT_3D('',#862,#683,#684);
#602=AXIS2_PLACEMENT_3D('',#865,#686,#687);
#603=AXIS2_PLACEMENT_3D('',#866,#688,#689);
#604=AXIS2_PLACEMENT_3D('',#869,#691,#692);
#605=AXIS2_PLACEMENT_3D('',#870,#693,#694);
#606=AXIS2_PLACEMENT_3D('',#873,#696,#697);
#607=AXIS2_PLACEMENT_3D('',#874,#698,#699);
#608=AXIS2_PLACEMENT_3D('',#877,#701,#702);
#609=AXIS2_PLACEMENT_3D('',#878,#703,#704);
#610=AXIS2_PLACEMENT_3D('',#881,#705,#706);
#611=AXIS2_PLACEMENT_3D('',#897,#714,#715);
#612=AXIS2_PLACEMENT_3D('',#899,#717,#718);
#613=AXIS2_PLACEMENT_3D('',#901,#719,#720);
#614=AXIS2_PLACEMENT_3D('',#903,#721,#722);
#615=AXIS2_PLACEMENT_3D('',#905,#724,#725);
#616=AXIS2_PLACEMENT_3D('',#908,#728,#729);
#617=AXIS2_PLACEMENT_3D('',#911,#732,#733);
#618=AXIS2_PLACEMENT_3D('',#913,#735,#736);
#619=AXIS2_PLACEMENT_3D('',#915,#738,#739);
#620=AXIS2_PLACEMENT_3D('',#916,#740,#741);
#621=AXIS2_PLACEMENT_3D('',#918,#742,#743);
#622=AXIS2_PLACEMENT_3D('',#920,#744,#745);
#623=AXIS2_PLACEMENT_3D('',#921,#746,#747);
#624=AXIS2_PLACEMENT_3D('',#923,#748,#749);
#625=AXIS2_PLACEMENT_3D('',#925,#750,#751);
#626=AXIS2_PLACEMENT_3D('',#926,#752,#753);
#627=AXIS2_PLACEMENT_3D('',#928,#754,#755);
#628=AXIS2_PLACEMENT_3D('',#930,#756,#757);
#629=AXIS2_PLACEMENT_3D('',#931,#758,#759);
#630=AXIS2_PLACEMENT_3D('',#933,#760,#761);
#631=AXIS2_PLACEMENT_3D('',#935,#762,#763);
#632=AXIS2_PLACEMENT_3D('',#936,#764,#765);
#633=AXIS2_PLACEMENT_3D('',#938,#766,#767);
#634=AXIS2_PLACEMENT_3D('',#941,#769,#770);
#635=AXIS2_PLACEMENT_3D('',#942,#771,#772);
#636=AXIS2_PLACEMENT_3D('',#944,#773,#774);
#637=AXIS2_PLACEMENT_3D('',#948,#776,#777);
#638=AXIS2_PLACEMENT_3D('',#952,#779,#780);
#639=AXIS2_PLACEMENT_3D('',#955,#782,#783);
#640=AXIS2_PLACEMENT_3D('',#957,#784,#785);
#641=AXIS2_PLACEMENT_3D('',#959,#786,#787);
#642=AXIS2_PLACEMENT_3D('',#961,#788,#789);
#643=AXIS2_PLACEMENT_3D('',#963,#790,#791);
#644=AXIS2_PLACEMENT_3D('',#964,#792,#793);
#645=AXIS2_PLACEMENT_3D('',#966,#795,#796);
#646=AXIS2_PLACEMENT_3D('',#968,#798,#799);
#647=AXIS2_PLACEMENT_3D('',#970,#801,#802);
#648=AXIS2_PLACEMENT_3D('',#972,#804,#805);
#649=AXIS2_PLACEMENT_3D('',#978,#809,#810);
#650=AXIS2_PLACEMENT_3D('',#980,#811,#812);
#651=AXIS2_PLACEMENT_3D('',#982,#814,#815);
#652=AXIS2_PLACEMENT_3D('',#986,#818,#819);
#653=AXIS2_PLACEMENT_3D('',#988,#820,#821);
#654=AXIS2_PLACEMENT_3D('',#990,#823,#824);
#655=AXIS2_PLACEMENT_3D('',#994,#827,#828);
#656=AXIS2_PLACEMENT_3D('',#995,#829,#830);
#657=AXIS2_PLACEMENT_3D('',#996,#831,#832);
#658=AXIS2_PLACEMENT_3D('',#997,#833,#834);
#659=AXIS2_PLACEMENT_3D('',#998,#835,#836);
#660=AXIS2_PLACEMENT_3D('',#999,#837,#838);
#661=DIRECTION('axis',(0.,0.,1.));
#662=DIRECTION('refdir',(1.,0.,0.));
#663=DIRECTION('axis',(0.,0.,1.));
#664=DIRECTION('refdir',(1.,0.,0.));
#665=DIRECTION('center_axis',(-1.79366203433577E-43,6.31088724176809E-30,
1.));
#666=DIRECTION('ref_axis',(-1.,-6.59639619453282E-58,-1.79366203433577E-43));
#667=DIRECTION('',(1.,-4.73316543132858E-30,1.79366203433577E-43));
#668=DIRECTION('',(6.59639619453281E-58,-1.,6.31088724176809E-30));
#669=DIRECTION('center_axis',(1.79366203433577E-43,-6.31088724176809E-30,
-1.));
#670=DIRECTION('ref_axis',(-0.707106781186554,-0.707106781186541,0.));
#671=DIRECTION('',(-1.,-6.59639619453282E-58,-1.79366203433577E-43));
#672=DIRECTION('center_axis',(1.79366203433577E-43,-6.31088724176809E-30,
-1.));
#673=DIRECTION('ref_axis',(0.707106781186554,-0.707106781186541,0.));
#674=DIRECTION('',(-6.59639619453281E-58,1.,-6.31088724176809E-30));
#675=DIRECTION('center_axis',(1.79366203433577E-43,-6.31088724176809E-30,
-1.));
#676=DIRECTION('ref_axis',(-1.,-3.33066907387547E-16,0.));
#677=DIRECTION('center_axis',(1.79366203433577E-43,-6.31088724176809E-30,
-1.));
#678=DIRECTION('ref_axis',(-1.,-3.33066907387547E-16,0.));
#679=DIRECTION('center_axis',(1.79366203433577E-43,-6.31088724176809E-30,
-1.));
#680=DIRECTION('ref_axis',(-1.,-3.33066907387547E-16,0.));
#681=DIRECTION('center_axis',(1.79366203433577E-43,-6.31088724176809E-30,
-1.));
#682=DIRECTION('ref_axis',(-1.,-3.33066907387547E-16,0.));
#683=DIRECTION('center_axis',(0.,0.,-1.));
#684=DIRECTION('ref_axis',(-1.,-3.33066907387547E-16,0.));
#685=DIRECTION('',(0.,0.,-1.));
#686=DIRECTION('center_axis',(-1.79366203433577E-43,6.31088724176809E-30,
1.));
#687=DIRECTION('ref_axis',(-1.,-3.33066907387547E-16,0.));
#688=DIRECTION('center_axis',(0.,0.,-1.));
#689=DIRECTION('ref_axis',(-1.,-3.33066907387547E-16,0.));
#690=DIRECTION('',(0.,0.,-1.));
#691=DIRECTION('center_axis',(-1.79366203433577E-43,6.31088724176809E-30,
1.));
#692=DIRECTION('ref_axis',(-1.,-3.33066907387547E-16,0.));
#693=DIRECTION('center_axis',(0.,0.,-1.));
#694=DIRECTION('ref_axis',(-1.,-3.33066907387547E-16,0.));
#695=DIRECTION('',(0.,0.,-1.));
#696=DIRECTION('center_axis',(-1.79366203433577E-43,6.31088724176809E-30,
1.));
#697=DIRECTION('ref_axis',(-1.,-3.33066907387547E-16,0.));
#698=DIRECTION('center_axis',(0.,0.,-1.));
#699=DIRECTION('ref_axis',(-1.,-3.33066907387547E-16,0.));
#700=DIRECTION('',(0.,0.,-1.));
#701=DIRECTION('center_axis',(-1.79366203433577E-43,6.31088724176809E-30,
1.));
#702=DIRECTION('ref_axis',(-1.,-3.33066907387547E-16,0.));
#703=DIRECTION('center_axis',(-1.79366203433577E-43,6.31088724176809E-30,
1.));
#704=DIRECTION('ref_axis',(1.,6.59639619453282E-58,1.79366203433577E-43));
#705=DIRECTION('center_axis',(-1.79366203433577E-43,6.31088724176809E-30,
1.));
#706=DIRECTION('ref_axis',(-0.707106781186554,-0.707106781186541,0.));
#707=DIRECTION('',(6.59639619453281E-58,-1.,6.31088724176809E-30));
#708=DIRECTION('',(1.,1.36012562426404E-13,3.21595968387732E-15));
#709=DIRECTION('',(1.4210854715202E-13,-1.,-5.92118946466748E-15));
#710=DIRECTION('',(1.,1.41494985606668E-73,1.79366203433577E-43));
#711=DIRECTION('',(1.4210854715202E-13,-1.,-5.92118946466748E-15));
#712=DIRECTION('',(1.,1.36012562426404E-13,3.21595968387732E-15));
#713=DIRECTION('',(6.59639619453281E-58,-1.,6.31088724176809E-30));
#714=DIRECTION('center_axis',(-1.79366203433577E-43,6.31088724176809E-30,
1.));
#715=DIRECTION('ref_axis',(0.707106781186554,-0.707106781186541,0.));
#716=DIRECTION('',(-1.,-6.59639619453282E-58,-1.79366203433577E-43));
#717=DIRECTION('center_axis',(1.,-4.73316543132858E-30,1.79366203433577E-43));
#718=DIRECTION('ref_axis',(0.,0.707106781186547,-0.707106781186548));
#719=DIRECTION('center_axis',(-1.,-6.59639619453282E-58,-1.79366203433577E-43));
#720=DIRECTION('ref_axis',(0.,0.707106781186547,-0.707106781186548));
#721=DIRECTION('center_axis',(1.,6.59639619453282E-58,1.79366203433577E-43));
#722=DIRECTION('ref_axis',(0.,0.707106781186547,-0.707106781186548));
#723=DIRECTION('',(-1.,4.73316543132858E-30,-1.79366203433577E-43));
#724=DIRECTION('center_axis',(-1.,-6.59639619453282E-58,-1.79366203433577E-43));
#725=DIRECTION('ref_axis',(1.79366203433577E-43,-6.31088724176809E-30,-1.));
#726=DIRECTION('',(-1.79366203433577E-43,-5.63726582780109E-15,1.));
#727=DIRECTION('',(1.79366203433577E-43,-6.31088724176809E-30,-1.));
#728=DIRECTION('center_axis',(1.,6.59639619453282E-58,1.79366203433577E-43));
#729=DIRECTION('ref_axis',(-1.79366203433577E-43,6.31088724176809E-30,1.));
#730=DIRECTION('',(-1.79366203433577E-43,6.31088724176809E-30,1.));
#731=DIRECTION('',(1.79366203433577E-43,5.63726582780109E-15,-1.));
#732=DIRECTION('center_axis',(1.79366203433577E-43,-6.31088724176809E-30,
-1.));
#733=DIRECTION('ref_axis',(-0.707106781186554,-0.707106781186541,0.));
#734=DIRECTION('',(-1.79366203433577E-43,6.31088724176809E-30,1.));
#735=DIRECTION('center_axis',(6.59639619453281E-58,-1.,6.31088724176809E-30));
#736=DIRECTION('ref_axis',(1.79366203433577E-43,-6.31088724176809E-30,-1.));
#737=DIRECTION('',(1.79366203433577E-43,-6.31088724176809E-30,-1.));
#738=DIRECTION('center_axis',(-1.79366203433577E-43,6.31088724176809E-30,
1.));
#739=DIRECTION('ref_axis',(0.707106781186554,-0.707106781186541,0.));
#740=DIRECTION('center_axis',(0.,-1.,1.57772181044202E-30));
#741=DIRECTION('ref_axis',(1.,0.,0.));
#742=DIRECTION('center_axis',(1.35856549534491E-13,-1.,-5.63726582780109E-15));
#743=DIRECTION('ref_axis',(1.,1.35856549534491E-13,7.65859484173752E-28));
#744=DIRECTION('center_axis',(0.,-1.,1.57772181044202E-30));
#745=DIRECTION('ref_axis',(1.,0.,0.));
#746=DIRECTION('center_axis',(0.,-1.,1.57772181044202E-30));
#747=DIRECTION('ref_axis',(1.,0.,0.));
#748=DIRECTION('center_axis',(1.35856549534491E-13,-1.,-5.63726582780109E-15));
#749=DIRECTION('ref_axis',(1.,1.35856549534491E-13,7.65859484173752E-28));
#750=DIRECTION('center_axis',(0.,-1.,1.57772181044202E-30));
#751=DIRECTION('ref_axis',(1.,0.,0.));
#752=DIRECTION('center_axis',(0.,-1.,1.57772181044202E-30));
#753=DIRECTION('ref_axis',(1.,0.,0.));
#754=DIRECTION('center_axis',(1.35856549534491E-13,-1.,-5.63726582780109E-15));
#755=DIRECTION('ref_axis',(1.,1.35856549534491E-13,7.65859484173752E-28));
#756=DIRECTION('center_axis',(0.,-1.,1.57772181044202E-30));
#757=DIRECTION('ref_axis',(1.,0.,0.));
#758=DIRECTION('center_axis',(0.,-1.,1.57772181044202E-30));
#759=DIRECTION('ref_axis',(1.,0.,0.));
#760=DIRECTION('center_axis',(1.35856549534491E-13,-1.,-5.63726582780109E-15));
#761=DIRECTION('ref_axis',(1.,1.35856549534491E-13,7.65859484173752E-28));
#762=DIRECTION('center_axis',(0.,-1.,1.57772181044202E-30));
#763=DIRECTION('ref_axis',(1.,0.,0.));
#764=DIRECTION('center_axis',(0.,1.,0.));
#765=DIRECTION('ref_axis',(1.,0.,0.));
#766=DIRECTION('center_axis',(4.73316543132858E-30,1.,-7.88860905221012E-31));
#767=DIRECTION('ref_axis',(1.,0.,0.));
#768=DIRECTION('',(0.,1.,0.));
#769=DIRECTION('center_axis',(0.,1.,-7.88860905221012E-31));
#770=DIRECTION('ref_axis',(1.,0.,0.));
#771=DIRECTION('center_axis',(-4.73316543132858E-30,-1.,7.88860905221012E-31));
#772=DIRECTION('ref_axis',(1.,-4.73316543132858E-30,-7.15236626017516E-44));
#773=DIRECTION('center_axis',(1.35856549534491E-13,-1.,-5.63726582780109E-15));
#774=DIRECTION('ref_axis',(4.7369515717338E-14,5.63726582780752E-15,-1.));
#775=DIRECTION('',(-1.97372982155583E-15,6.31088724176887E-30,1.));
#776=DIRECTION('center_axis',(1.35856549534489E-13,-1.,3.51030669360488E-28));
#777=DIRECTION('ref_axis',(1.,1.35856549534489E-13,-3.94430452611184E-31));
#778=DIRECTION('',(-1.,-1.36012562426404E-13,-2.29418779996344E-15));
#779=DIRECTION('center_axis',(1.3585654953449E-13,-1.,-5.63726582780163E-15));
#780=DIRECTION('ref_axis',(9.47390314346873E-14,-5.63726582778876E-15,1.));
#781=DIRECTION('',(3.94745964311166E-15,-6.31088724176691E-30,-1.));
#782=DIRECTION('center_axis',(1.35856549534495E-13,-1.,3.51030669360619E-28));
#783=DIRECTION('ref_axis',(-1.,-1.35856549534495E-13,-2.84957242987113E-14));
#784=DIRECTION('center_axis',(-1.35856549534491E-13,1.,5.63726582780109E-15));
#785=DIRECTION('ref_axis',(1.,1.35856549534491E-13,7.65859484173752E-28));
#786=DIRECTION('center_axis',(-1.35856549534491E-13,1.,5.63726582780109E-15));
#787=DIRECTION('ref_axis',(1.,1.35856549534491E-13,7.65859484173752E-28));
#788=DIRECTION('center_axis',(-1.35856549534491E-13,1.,5.63726582780109E-15));
#789=DIRECTION('ref_axis',(1.,1.35856549534491E-13,7.65859484173752E-28));
#790=DIRECTION('center_axis',(-1.35856549534491E-13,1.,5.63726582780109E-15));
#791=DIRECTION('ref_axis',(1.,1.35856549534491E-13,7.65859484173752E-28));
#792=DIRECTION('center_axis',(0.,1.,-1.57772181044202E-30));
#793=DIRECTION('ref_axis',(1.,0.,0.));
#794=DIRECTION('',(0.,1.,-1.57772181044202E-30));
#795=DIRECTION('center_axis',(0.,1.,-1.57772181044202E-30));
#796=DIRECTION('ref_axis',(1.,0.,0.));
#797=DIRECTION('',(0.,1.,-1.57772181044202E-30));
#798=DIRECTION('center_axis',(0.,1.,-1.57772181044202E-30));
#799=DIRECTION('ref_axis',(1.,0.,0.));
#800=DIRECTION('',(0.,1.,-1.57772181044202E-30));
#801=DIRECTION('center_axis',(0.,1.,-1.57772181044202E-30));
#802=DIRECTION('ref_axis',(1.,0.,0.));
#803=DIRECTION('',(0.,1.,-1.57772181044202E-30));
#804=DIRECTION('center_axis',(-1.,-1.4210854715202E-13,-3.94745964311166E-15));
#805=DIRECTION('ref_axis',(3.94745964311166E-15,-6.31088724176693E-30,-1.));
#806=DIRECTION('',(3.94745964311166E-15,-7.88860905221012E-31,-1.));
#807=DIRECTION('',(1.4210854715202E-13,-1.,-5.92118946466748E-15));
#808=DIRECTION('',(1.4210854715202E-13,-1.,-5.92118946466748E-15));
#809=DIRECTION('center_axis',(1.4210854715202E-13,-1.,-5.92118946466748E-15));
#810=DIRECTION('ref_axis',(9.47390314346873E-14,-5.92118946465402E-15,1.));
#811=DIRECTION('center_axis',(0.,-1.,7.88860905221012E-31));
#812=DIRECTION('ref_axis',(9.47390314346873E-14,-5.92118946465402E-15,1.));
#813=DIRECTION('',(1.4210854715202E-13,-1.,-5.92118946466748E-15));
#814=DIRECTION('center_axis',(-2.29418779996263E-15,-5.92118946466781E-15,
1.));
#815=DIRECTION('ref_axis',(-1.,-1.36012562426404E-13,-2.29418779996344E-15));
#816=DIRECTION('',(-1.,-1.80979506462552E-45,-2.29418779996263E-15));
#817=DIRECTION('',(1.4210854715202E-13,-1.,-5.92118946466748E-15));
#818=DIRECTION('center_axis',(1.4210854715202E-13,-1.,-5.92118946466748E-15));
#819=DIRECTION('ref_axis',(1.,1.4210854715202E-13,3.66248319734388E-29));
#820=DIRECTION('center_axis',(0.,-1.,7.88860905221012E-31));
#821=DIRECTION('ref_axis',(1.,1.4210854715202E-13,3.66248319734388E-29));
#822=DIRECTION('',(1.4210854715202E-13,-1.,-5.92118946466748E-15));
#823=DIRECTION('center_axis',(1.,1.4210854715202E-13,1.97372982155583E-15));
#824=DIRECTION('ref_axis',(-1.97372982155583E-15,6.31088724176886E-30,1.));
#825=DIRECTION('',(-1.97372982155583E-15,7.88860905221012E-31,1.));
#826=DIRECTION('',(1.4210854715202E-13,-1.,-5.92118946466748E-15));
#827=DIRECTION('center_axis',(1.4210854715202E-13,-1.,-5.92118946466748E-15));
#828=DIRECTION('ref_axis',(4.73695157173379E-14,5.92118946467421E-15,-1.));
#829=DIRECTION('center_axis',(0.,-1.,7.88860905221012E-31));
#830=DIRECTION('ref_axis',(4.73695157173379E-14,5.92118946467421E-15,-1.));
#831=DIRECTION('center_axis',(1.4210854715202E-13,-1.,-5.92118946466748E-15));
#832=DIRECTION('ref_axis',(-1.,-1.4210854715202E-13,-2.84957242987113E-14));
#833=DIRECTION('center_axis',(0.,-1.,7.88860905221012E-31));
#834=DIRECTION('ref_axis',(-1.,-1.4210854715202E-13,-2.84957242987113E-14));
#835=DIRECTION('center_axis',(0.,-1.,7.88860905221012E-31));
#836=DIRECTION('ref_axis',(1.,-5.642222122474E-74,-7.15236626017516E-44));
#837=DIRECTION('',(-8.93690119905521E-17,-3.10868637410857E-17,0.999999999999999));
#838=DIRECTION('',(1.,-3.33066907387547E-16,8.67361737988404E-17));
#839=CARTESIAN_POINT('',(0.,0.,0.));
#840=CARTESIAN_POINT('',(0.,0.,0.));
#841=CARTESIAN_POINT('Origin',(403.180181012195,132.827994458705,5.49999999999988));
#842=CARTESIAN_POINT('',(373.180181012195,124.32799361717,5.49999999999988));
#843=CARTESIAN_POINT('',(403.180181012195,124.32799361717,5.49999999999988));
#844=CARTESIAN_POINT('',(400.222593002864,124.32799361717,5.49999999999988));
#845=CARTESIAN_POINT('',(373.180181012195,93.327994458705,5.49999999999988));
#846=CARTESIAN_POINT('',(373.180181012195,132.827994458705,5.49999999999988));
#847=CARTESIAN_POINT('',(375.180181012195,91.327994458705,5.49999999999988));
#848=CARTESIAN_POINT('Origin',(375.180181012195,93.327994458705,5.49999999999988));
#849=CARTESIAN_POINT('',(401.180181012195,91.327994458705,5.49999999999988));
#850=CARTESIAN_POINT('',(395.680181012195,91.327994458705,5.49999999999988));
#851=CARTESIAN_POINT('',(403.180181012195,93.327994458705,5.49999999999988));
#852=CARTESIAN_POINT('Origin',(401.180181012195,93.327994458705,5.49999999999988));
#853=CARTESIAN_POINT('',(403.180181012195,132.827994458705,5.49999999999988));
#854=CARTESIAN_POINT('',(400.930181012195,97.2590021924738,5.49999999999988));
#855=CARTESIAN_POINT('Origin',(399.230181012195,97.2590021924738,5.49999999999988));
#856=CARTESIAN_POINT('',(378.830181012195,97.2590021924738,5.49999999999988));
#857=CARTESIAN_POINT('Origin',(377.130181012195,97.2590021924738,5.49999999999988));
#858=CARTESIAN_POINT('',(400.930181012195,106.867783914127,5.49999999999988));
#859=CARTESIAN_POINT('Origin',(399.230181012195,106.867783914127,5.49999999999988));
#860=CARTESIAN_POINT('',(378.830181012195,106.867783914127,5.49999999999988));
#861=CARTESIAN_POINT('Origin',(377.130181012195,106.867783914127,5.49999999999988));
#862=CARTESIAN_POINT('Origin',(399.230181012195,97.2590021924738,5.49999999999988));
#863=CARTESIAN_POINT('',(400.930181012195,97.2590021924738,3.49999999999941));
#864=CARTESIAN_POINT('',(400.930181012195,97.2590021924738,5.49999999999988));
#865=CARTESIAN_POINT('Origin',(399.230181012195,97.2590021924738,3.49999999999941));
#866=CARTESIAN_POINT('Origin',(377.130181012195,97.2590021924738,5.49999999999988));
#867=CARTESIAN_POINT('',(378.830181012195,97.2590021924738,3.49999999999941));
#868=CARTESIAN_POINT('',(378.830181012195,97.2590021924738,5.49999999999988));
#869=CARTESIAN_POINT('Origin',(377.130181012195,97.2590021924738,3.49999999999941));
#870=CARTESIAN_POINT('Origin',(399.230181012195,106.867783914127,5.49999999999988));
#871=CARTESIAN_POINT('',(400.930181012195,106.867783914127,3.49999999999941));
#872=CARTESIAN_POINT('',(400.930181012195,106.867783914127,5.49999999999988));
#873=CARTESIAN_POINT('Origin',(399.230181012195,106.867783914127,3.49999999999941));
#874=CARTESIAN_POINT('Origin',(377.130181012195,106.867783914127,5.49999999999988));
#875=CARTESIAN_POINT('',(378.830181012195,106.867783914127,3.49999999999941));
#876=CARTESIAN_POINT('',(378.830181012195,106.867783914127,5.49999999999988));
#877=CARTESIAN_POINT('Origin',(377.130181012195,106.867783914127,3.49999999999941));
#878=CARTESIAN_POINT('Origin',(388.633861626392,96.3279880056678,3.49999999999941));
#879=CARTESIAN_POINT('',(373.180181012195,93.327994458705,3.49999999999988));
#880=CARTESIAN_POINT('',(375.180181012195,91.327994458705,3.49999999999941));
#881=CARTESIAN_POINT('Origin',(375.180181012195,93.327994458705,3.49999999999941));
#882=CARTESIAN_POINT('',(373.180181012195,132.827994458372,3.49999999999982));
#883=CARTESIAN_POINT('',(373.180181012195,132.827994458705,3.49999999999988));
#884=CARTESIAN_POINT('',(361.533861626395,132.82799445837,3.49999999999973));
#885=CARTESIAN_POINT('',(361.533861626395,132.827994458754,3.49999999999973));
#886=CARTESIAN_POINT('',(361.533861626394,135.828003153042,3.49999999999963));
#887=CARTESIAN_POINT('',(361.533861626394,135.827994458754,3.49999999999975));
#888=CARTESIAN_POINT('',(415.733861626394,135.828003153044,3.49999999999975));
#889=CARTESIAN_POINT('',(393.183861626394,135.828003153915,3.49999999999941));
#890=CARTESIAN_POINT('',(415.733861626395,132.827994458378,3.4999999999999));
#891=CARTESIAN_POINT('',(415.733861626394,135.827994458762,3.49999999999992));
#892=CARTESIAN_POINT('',(403.180181012195,132.827994458376,3.49999999999987));
#893=CARTESIAN_POINT('',(361.533861626395,132.827994458754,3.49999999999973));
#894=CARTESIAN_POINT('',(403.180181012195,93.327994458705,3.49999999999988));
#895=CARTESIAN_POINT('',(403.180181012195,132.827994458705,3.49999999999988));
#896=CARTESIAN_POINT('',(401.180181012195,91.327994458705,3.49999999999941));
#897=CARTESIAN_POINT('Origin',(401.180181012195,93.327994458705,3.49999999999941));
#898=CARTESIAN_POINT('',(388.407021319294,91.327994458705,3.49999999999941));
#899=CARTESIAN_POINT('Origin',(400.222593002864,124.32799361717,13.9999999999999));
#900=CARTESIAN_POINT('',(373.180181012195,132.82799361717,13.9999999999999));
#901=CARTESIAN_POINT('Origin',(373.180181012195,124.32799361717,13.9999999999999));
#902=CARTESIAN_POINT('',(403.180181012195,132.82799361717,13.9999999999999));
#903=CARTESIAN_POINT('Origin',(403.180181012195,124.32799361717,13.9999999999999));
#904=CARTESIAN_POINT('',(400.222593002864,132.82799361717,13.9999999999999));
#905=CARTESIAN_POINT('Origin',(373.180181012195,132.827994458705,6.49999999999988));
#906=CARTESIAN_POINT('',(373.180181012195,132.827994458756,14.7499999999999));
#907=CARTESIAN_POINT('',(373.180181012195,93.327994458705,5.74999999999988));
#908=CARTESIAN_POINT('Origin',(403.180181012195,132.827994458705,3.49999999999988));
#909=CARTESIAN_POINT('',(403.180181012195,93.327994458705,4.24999999999988));
#910=CARTESIAN_POINT('',(403.180181012195,132.82799445876,13.2499999999999));
#911=CARTESIAN_POINT('Origin',(375.180181012195,93.327994458705,5.74999999999988));
#912=CARTESIAN_POINT('',(375.180181012195,91.327994458705,5.74999999999988));
#913=CARTESIAN_POINT('Origin',(388.180181012195,91.327994458705,4.99999999999988));
#914=CARTESIAN_POINT('',(401.180181012195,91.327994458705,4.24999999999988));
#915=CARTESIAN_POINT('Origin',(401.180181012195,93.327994458705,4.24999999999988));
#916=CARTESIAN_POINT('Origin',(408.232195801883,135.82798805297,9.50810141165599));
#917=CARTESIAN_POINT('',(403.831750959054,135.827994458757,9.50810141165599));
#918=CARTESIAN_POINT('Origin',(408.232195801883,135.827994458758,9.50810141165599));
#919=CARTESIAN_POINT('',(406.033866737957,135.82798805297,9.51300429767515));
#920=CARTESIAN_POINT('Origin',(408.233866737957,135.82798805297,9.51300429767515));
#921=CARTESIAN_POINT('Origin',(368.232195801883,135.82798805297,37.508101411656));
#922=CARTESIAN_POINT('',(363.831750959054,135.827994458757,37.508101411656));
#923=CARTESIAN_POINT('Origin',(368.232195801883,135.827994458758,37.508101411656));
#924=CARTESIAN_POINT('',(366.033866737957,135.82798805297,37.5130042976752));
#925=CARTESIAN_POINT('Origin',(368.233866737957,135.82798805297,37.5130042976752));
#926=CARTESIAN_POINT('Origin',(408.232195801883,135.82798805297,37.508101411656));
#927=CARTESIAN_POINT('',(403.831750959054,135.827994458757,37.508101411656));
#928=CARTESIAN_POINT('Origin',(408.232195801883,135.827994458758,37.508101411656));
#929=CARTESIAN_POINT('',(406.033866737957,135.82798805297,37.5130042976752));
#930=CARTESIAN_POINT('Origin',(408.233866737957,135.82798805297,37.5130042976752));
#931=CARTESIAN_POINT('Origin',(368.232195801883,135.82798805297,9.50810141165599));
#932=CARTESIAN_POINT('',(363.831750959054,135.827994458757,9.50810141165599));
#933=CARTESIAN_POINT('Origin',(368.232195801883,135.827994458758,9.50810141165599));
#934=CARTESIAN_POINT('',(366.033866737957,135.82798805297,9.51300429767515));
#935=CARTESIAN_POINT('Origin',(368.233866737957,135.82798805297,9.51300429767515));
#936=CARTESIAN_POINT('Origin',(397.733861626394,132.82799361717,22.9999999999999));
#937=CARTESIAN_POINT('',(389.033861626394,132.82799361717,22.9999999999999));
#938=CARTESIAN_POINT('Origin',(397.733861626394,132.82799361717,22.9999999999999));
#939=CARTESIAN_POINT('',(389.033861626394,135.828003153915,22.9999999999999));
#940=CARTESIAN_POINT('',(389.033861626394,132.82799361717,22.9999999999999));
#941=CARTESIAN_POINT('Origin',(397.733861626394,135.828003153915,22.9999999999999));
#942=CARTESIAN_POINT('Origin',(397.265004993533,132.82799361717,23.5000005748588));
#943=CARTESIAN_POINT('',(417.233861626395,132.827994458378,4.99999999999991));
#944=CARTESIAN_POINT('Origin',(415.733861626394,132.827994458762,4.99999999999994));
#945=CARTESIAN_POINT('',(417.233861626395,132.827994458378,41.));
#946=CARTESIAN_POINT('',(417.233861626395,132.827994458762,4.99999999999991));
#947=CARTESIAN_POINT('',(415.733861626394,132.827994458378,42.4999999999999));
#948=CARTESIAN_POINT('Origin',(415.733861626394,132.827994458762,40.9999999999999));
#949=CARTESIAN_POINT('',(361.533861626395,132.82799445837,42.4999999999998));
#950=CARTESIAN_POINT('',(415.733861626394,132.827994458762,42.4999999999999));
#951=CARTESIAN_POINT('',(360.033861626395,132.82799445837,40.9999999999998));
#952=CARTESIAN_POINT('Origin',(361.533861626395,132.827994458754,40.9999999999999));
#953=CARTESIAN_POINT('',(360.033861626395,132.82799445837,4.99999999999974));
#954=CARTESIAN_POINT('',(360.033861626395,132.827994458754,40.9999999999998));
#955=CARTESIAN_POINT('Origin',(361.533861626395,132.827994458754,4.99999999999979));
#956=CARTESIAN_POINT('',(366.033866737957,132.827994458758,9.51300429767515));
#957=CARTESIAN_POINT('Origin',(368.233866737957,132.827994458758,9.51300429767515));
#958=CARTESIAN_POINT('',(406.033866737957,132.827994458758,9.51300429767515));
#959=CARTESIAN_POINT('Origin',(408.233866737957,132.827994458758,9.51300429767515));
#960=CARTESIAN_POINT('',(406.033866737957,132.827994458758,37.5130042976752));
#961=CARTESIAN_POINT('Origin',(408.233866737957,132.827994458758,37.5130042976752));
#962=CARTESIAN_POINT('',(366.033866737957,132.827994458758,37.5130042976752));
#963=CARTESIAN_POINT('Origin',(368.233866737957,132.827994458758,37.5130042976752));
#964=CARTESIAN_POINT('Origin',(368.233866737957,130.82798805297,9.51300429767515));
#965=CARTESIAN_POINT('',(366.033866737957,130.82798805297,9.51300429767515));
#966=CARTESIAN_POINT('Origin',(408.233866737957,130.82798805297,9.51300429767515));
#967=CARTESIAN_POINT('',(406.033866737957,130.82798805297,9.51300429767515));
#968=CARTESIAN_POINT('Origin',(368.233866737957,130.82798805297,37.5130042976752));
#969=CARTESIAN_POINT('',(366.033866737957,130.82798805297,37.5130042976752));
#970=CARTESIAN_POINT('Origin',(408.233866737957,130.82798805297,37.5130042976752));
#971=CARTESIAN_POINT('',(406.033866737957,130.82798805297,37.5130042976752));
#972=CARTESIAN_POINT('Origin',(360.033861626394,135.827994458754,40.9999999999998));
#973=CARTESIAN_POINT('',(360.033861626394,135.828003153042,40.9999999999998));
#974=CARTESIAN_POINT('',(360.033861626395,135.828003153042,4.99999999999976));
#975=CARTESIAN_POINT('',(360.033861626394,135.828003153915,31.9999999999998));
#976=CARTESIAN_POINT('',(360.033861626395,135.827994458754,4.99999999999976));
#977=CARTESIAN_POINT('',(360.033861626394,135.827994458754,40.9999999999998));
#978=CARTESIAN_POINT('Origin',(361.533861626394,135.827994458754,40.9999999999999));
#979=CARTESIAN_POINT('',(361.533861626394,135.828003153042,42.4999999999998));
#980=CARTESIAN_POINT('Origin',(361.533861626394,135.82800315391,40.9999999999999));
#981=CARTESIAN_POINT('',(361.533861626394,135.827994458754,42.4999999999998));
#982=CARTESIAN_POINT('Origin',(415.733861626394,135.827994458762,42.4999999999999));
#983=CARTESIAN_POINT('',(415.733861626394,135.828003153044,42.4999999999999));
#984=CARTESIAN_POINT('',(406.733861626395,135.828003153915,42.4999999999999));
#985=CARTESIAN_POINT('',(415.733861626394,135.827994458762,42.4999999999999));
#986=CARTESIAN_POINT('Origin',(415.733861626394,135.827994458762,41.));
#987=CARTESIAN_POINT('',(417.233861626394,135.828003153044,41.));
#988=CARTESIAN_POINT('Origin',(415.733861626394,135.828003153917,41.));
#989=CARTESIAN_POINT('',(417.233861626394,135.827994458762,41.));
#990=CARTESIAN_POINT('Origin',(417.233861626394,135.827994458762,4.99999999999993));
#991=CARTESIAN_POINT('',(417.233861626394,135.828003153044,4.99999999999993));
#992=CARTESIAN_POINT('',(417.233861626394,135.828003153915,13.9999999999999));
#993=CARTESIAN_POINT('',(417.233861626394,135.827994458762,4.99999999999993));
#994=CARTESIAN_POINT('Origin',(415.733861626394,135.827994458762,4.99999999999996));
#995=CARTESIAN_POINT('Origin',(415.733861626394,135.828003153918,4.99999999999996));
#996=CARTESIAN_POINT('Origin',(361.533861626395,135.827994458754,4.9999999999998));
#997=CARTESIAN_POINT('Origin',(361.533861626395,135.82800315391,4.9999999999998));
#998=CARTESIAN_POINT('Origin',(397.733861626395,135.828003153915,22.9999999999999));
#999=CARTESIAN_POINT('',(-1.45189706409283,-4.46934492593978,0.812362069382915));
#1000=UNCERTAINTY_MEASURE_WITH_UNIT(LENGTH_MEASURE(0.01),#1006,
'DISTANCE_ACCURACY_VALUE',
'Maximum model space distance between geometric entities at asserted c
onnectivities');
#1001=UNCERTAINTY_MEASURE_WITH_UNIT(LENGTH_MEASURE(0.01),#1006,
'DISTANCE_ACCURACY_VALUE',
'Maximum model space distance between geometric entities at asserted c
onnectivities');
#1002=UNCERTAINTY_MEASURE_WITH_UNIT(LENGTH_MEASURE(0.01),#1006,
'DISTANCE_ACCURACY_VALUE',
'Maximum model space distance between geometric entities at asserted c
onnectivities');
#1003=(
GEOMETRIC_REPRESENTATION_CONTEXT(3)
GLOBAL_UNCERTAINTY_ASSIGNED_CONTEXT((#1000))
GLOBAL_UNIT_ASSIGNED_CONTEXT((#1006,#1008,#1009))
REPRESENTATION_CONTEXT('','3D')
);
#1004=(
GEOMETRIC_REPRESENTATION_CONTEXT(3)
GLOBAL_UNCERTAINTY_ASSIGNED_CONTEXT((#1001))
GLOBAL_UNIT_ASSIGNED_CONTEXT((#1006,#1008,#1009))
REPRESENTATION_CONTEXT('','3D')
);
#1005=(
GEOMETRIC_REPRESENTATION_CONTEXT(3)
GLOBAL_UNCERTAINTY_ASSIGNED_CONTEXT((#1002))
GLOBAL_UNIT_ASSIGNED_CONTEXT((#1006,#1008,#1009))
REPRESENTATION_CONTEXT('','3D')
);
#1006=(
LENGTH_UNIT()
NAMED_UNIT(*)
SI_UNIT(.MILLI.,.METRE.)
);
#1007=(
LENGTH_UNIT()
NAMED_UNIT(*)
SI_UNIT($,.METRE.)
);
#1008=(
NAMED_UNIT(*)
PLANE_ANGLE_UNIT()
SI_UNIT($,.RADIAN.)
);
#1009=(
NAMED_UNIT(*)
SI_UNIT($,.STERADIAN.)
SOLID_ANGLE_UNIT()
);
#1010=SHAPE_DEFINITION_REPRESENTATION(#1012,#1015);
#1011=SHAPE_DEFINITION_REPRESENTATION(#1013,#1016);
#1012=PRODUCT_DEFINITION_SHAPE('',$,#1018);
#1013=PRODUCT_DEFINITION_SHAPE('',$,#1019);
#1014=PRODUCT_DEFINITION_SHAPE($,$,#14);
#1015=SHAPE_REPRESENTATION('',(#592,#660),#1003);
#1016=SHAPE_REPRESENTATION('',(#593),#1004);
#1017=PRODUCT_DEFINITION_CONTEXT('part definition',#1025,'design');
#1018=PRODUCT_DEFINITION('2026-01-15-06-09-46-263',
'Flipper+Motor+Bracket+Copy',#1020,#1017);
#1019=PRODUCT_DEFINITION('2026-01-15-06-09-46-264',
'Left Flipper Bracket',#1021,#1017);
#1020=PRODUCT_DEFINITION_FORMATION('',$,#1027);
#1021=PRODUCT_DEFINITION_FORMATION('',$,#1028);
#1022=PRODUCT_RELATED_PRODUCT_CATEGORY('Flipper+Motor+Bracket+Copy',
'Flipper+Motor+Bracket+Copy',(#1027));
#1023=PRODUCT_RELATED_PRODUCT_CATEGORY('Left Flipper Bracket',
'Left Flipper Bracket',(#1028));
#1024=APPLICATION_PROTOCOL_DEFINITION('international standard',
'automotive_design',2009,#1025);
#1025=APPLICATION_CONTEXT(
'Core Data for Automotive Mechanical Design Process');
#1026=PRODUCT_CONTEXT('part definition',#1025,'mechanical');
#1027=PRODUCT('2026-01-15-06-09-46-263','Flipper+Motor+Bracket+Copy',$,
(#1026));
#1028=PRODUCT('2026-01-15-06-09-46-264','Left Flipper Bracket',$,(#1026));
#1029=PRESENTATION_STYLE_ASSIGNMENT((#1031));
#1030=PRESENTATION_STYLE_ASSIGNMENT((#1032));
#1031=SURFACE_STYLE_USAGE(.BOTH.,#1033);
#1032=SURFACE_STYLE_USAGE(.BOTH.,#1034);
#1033=SURFACE_SIDE_STYLE('',(#1035));
#1034=SURFACE_SIDE_STYLE('',(#1036));
#1035=SURFACE_STYLE_FILL_AREA(#1037);
#1036=SURFACE_STYLE_FILL_AREA(#1038);
#1037=FILL_AREA_STYLE('Steel - Satin',(#1039));
#1038=FILL_AREA_STYLE('Opaque(160,160,160)',(#1040));
#1039=FILL_AREA_STYLE_COLOUR('Steel - Satin',#1041);
#1040=FILL_AREA_STYLE_COLOUR('Opaque(160,160,160)',#1042);
#1041=COLOUR_RGB('Steel - Satin',0.627450980392157,0.627450980392157,0.627450980392157);
#1042=COLOUR_RGB('Opaque(160,160,160)',0.627450980392157,0.627450980392157,
0.627450980392157);
ENDSEC;
END-ISO-10303-21;
