ISO-10303-21;
HEADER;
/* Generated by software containing ST-Developer
 * from STEP Tools, Inc. (www.steptools.com) 
 */

FILE_DESCRIPTION(
/* description */ (''),
/* implementation_level */ '2;1');

FILE_NAME(
/* name */ 'Roller Holder.step',
/* time_stamp */ '2026-08-27T11:16:06-05:00',
/* author */ (''),
/* organization */ (''),
/* preprocessor_version */ 'ST-DEVELOPER v20.1',
/* originating_system */ 'Autodesk Translation Framework v15.8.0.0',
/* authorisation */ '');

FILE_SCHEMA (('AUTOMOTIVE_DESIGN { 1 0 10303 214 3 1 1 }'));
ENDSEC;

DATA;
#10=MECHANICAL_DESIGN_GEOMETRIC_PRESENTATION_REPRESENTATION('',(#13),#552);
#11=SHAPE_REPRESENTATION_RELATIONSHIP('SRR','None',#559,#12);
#12=ADVANCED_BREP_SHAPE_REPRESENTATION('',(#14),#551);
#13=STYLED_ITEM('',(#568),#14);
#14=MANIFOLD_SOLID_BREP('Body1',#306);
#15=B_SPLINE_CURVE_WITH_KNOTS('',3,(#494,#495,#496,#497),.UNSPECIFIED.,
 .F.,.F.,(4,4),(1.0011321732269,1.04428190470769),.UNSPECIFIED.);
#16=B_SPLINE_CURVE_WITH_KNOTS('',3,(#499,#500,#501,#502,#503,#504),
 .UNSPECIFIED.,.F.,.F.,(4,2,4),(1.2610481348197,1.32737791883812,1.33869484691631),
 .UNSPECIFIED.);
#17=B_SPLINE_CURVE_WITH_KNOTS('',3,(#508,#509,#510,#511,#512,#513),
 .UNSPECIFIED.,.F.,.F.,(4,2,4),(1.13121165807904,1.17902604878902,1.18091539508019),
 .UNSPECIFIED.);
#18=B_SPLINE_CURVE_WITH_KNOTS('',3,(#514,#515,#516,#517),.UNSPECIFIED.,
 .F.,.F.,(4,4),(0.91837112149501,1.0011321732269),.UNSPECIFIED.);
#19=TOROIDAL_SURFACE('',#335,5.3,1.5);
#20=FACE_BOUND('',#92,.T.);
#21=FACE_BOUND('',#93,.T.);
#22=FACE_BOUND('',#94,.T.);
#23=FACE_BOUND('',#107,.T.);
#24=FACE_BOUND('',#108,.T.);
#25=FACE_BOUND('',#109,.T.);
#26=LINE('',#455,#45);
#27=LINE('',#458,#46);
#28=LINE('',#461,#47);
#29=LINE('',#463,#48);
#30=LINE('',#464,#49);
#31=LINE('',#467,#50);
#32=LINE('',#471,#51);
#33=LINE('',#475,#52);
#34=LINE('',#486,#53);
#35=LINE('',#520,#54);
#36=LINE('',#522,#55);
#37=LINE('',#523,#56);
#38=LINE('',#527,#57);
#39=LINE('',#531,#58);
#40=LINE('',#533,#59);
#41=LINE('',#535,#60);
#42=LINE('',#538,#61);
#43=LINE('',#542,#62);
#44=LINE('',#547,#63);
#45=VECTOR('',#365,10.);
#46=VECTOR('',#368,10.);
#47=VECTOR('',#371,10.);
#48=VECTOR('',#372,10.);
#49=VECTOR('',#373,10.);
#50=VECTOR('',#376,10.);
#51=VECTOR('',#379,10.);
#52=VECTOR('',#382,10.);
#53=VECTOR('',#395,10.);
#54=VECTOR('',#408,4.);
#55=VECTOR('',#411,10.);
#56=VECTOR('',#412,10.);
#57=VECTOR('',#417,10.);
#58=VECTOR('',#422,10.);
#59=VECTOR('',#425,10.);
#60=VECTOR('',#428,10.);
#61=VECTOR('',#431,1.7);
#62=VECTOR('',#436,1.7);
#63=VECTOR('',#443,1.7);
#64=CYLINDRICAL_SURFACE('',#322,1.);
#65=CYLINDRICAL_SURFACE('',#333,1.);
#66=CYLINDRICAL_SURFACE('',#340,3.8);
#67=CYLINDRICAL_SURFACE('',#342,10.);
#68=CYLINDRICAL_SURFACE('',#344,10.);
#69=CYLINDRICAL_SURFACE('',#348,1.7);
#70=CYLINDRICAL_SURFACE('',#350,1.7);
#71=CYLINDRICAL_SURFACE('',#352,1.7);
#72=FACE_OUTER_BOUND('',#88,.T.);
#73=FACE_OUTER_BOUND('',#89,.T.);
#74=FACE_OUTER_BOUND('',#90,.T.);
#75=FACE_OUTER_BOUND('',#91,.T.);
#76=FACE_OUTER_BOUND('',#95,.T.);
#77=FACE_OUTER_BOUND('',#96,.T.);
#78=FACE_OUTER_BOUND('',#97,.T.);
#79=FACE_OUTER_BOUND('',#98,.T.);
#80=FACE_OUTER_BOUND('',#99,.T.);
#81=FACE_OUTER_BOUND('',#100,.T.);
#82=FACE_OUTER_BOUND('',#101,.T.);
#83=FACE_OUTER_BOUND('',#102,.T.);
#84=FACE_OUTER_BOUND('',#103,.T.);
#85=FACE_OUTER_BOUND('',#104,.T.);
#86=FACE_OUTER_BOUND('',#105,.T.);
#87=FACE_OUTER_BOUND('',#106,.T.);
#88=EDGE_LOOP('',(#199));
#89=EDGE_LOOP('',(#200,#201,#202,#203));
#90=EDGE_LOOP('',(#204,#205,#206,#207));
#91=EDGE_LOOP('',(#208,#209,#210,#211,#212,#213,#214,#215));
#92=EDGE_LOOP('',(#216));
#93=EDGE_LOOP('',(#217));
#94=EDGE_LOOP('',(#218));
#95=EDGE_LOOP('',(#219,#220,#221,#222));
#96=EDGE_LOOP('',(#223,#224,#225,#226,#227,#228,#229,#230,#231));
#97=EDGE_LOOP('',(#232,#233,#234,#235,#236));
#98=EDGE_LOOP('',(#237,#238,#239,#240,#241));
#99=EDGE_LOOP('',(#242,#243,#244,#245,#246));
#100=EDGE_LOOP('',(#247,#248,#249,#250,#251));
#101=EDGE_LOOP('',(#252,#253,#254,#255));
#102=EDGE_LOOP('',(#256,#257,#258,#259));
#103=EDGE_LOOP('',(#260,#261,#262,#263));
#104=EDGE_LOOP('',(#264,#265,#266,#267));
#105=EDGE_LOOP('',(#268,#269,#270,#271));
#106=EDGE_LOOP('',(#272,#273,#274,#275,#276,#277,#278,#279));
#107=EDGE_LOOP('',(#280));
#108=EDGE_LOOP('',(#281));
#109=EDGE_LOOP('',(#282));
#110=CIRCLE('',#321,3.8);
#111=CIRCLE('',#323,1.);
#112=CIRCLE('',#324,1.);
#113=CIRCLE('',#327,10.);
#114=CIRCLE('',#328,10.);
#115=CIRCLE('',#329,1.);
#116=CIRCLE('',#330,1.7);
#117=CIRCLE('',#331,1.7);
#118=CIRCLE('',#332,1.7);
#119=CIRCLE('',#334,1.);
#120=CIRCLE('',#336,3.8);
#121=CIRCLE('',#337,1.5);
#122=CIRCLE('',#338,5.3);
#123=CIRCLE('',#339,3.8);
#124=CIRCLE('',#343,10.);
#125=CIRCLE('',#345,10.);
#126=CIRCLE('',#349,1.7);
#127=CIRCLE('',#351,1.7);
#128=CIRCLE('',#353,1.7);
#129=VERTEX_POINT('',#448);
#130=VERTEX_POINT('',#451);
#131=VERTEX_POINT('',#452);
#132=VERTEX_POINT('',#454);
#133=VERTEX_POINT('',#456);
#134=VERTEX_POINT('',#460);
#135=VERTEX_POINT('',#462);
#136=VERTEX_POINT('',#466);
#137=VERTEX_POINT('',#468);
#138=VERTEX_POINT('',#470);
#139=VERTEX_POINT('',#472);
#140=VERTEX_POINT('',#474);
#141=VERTEX_POINT('',#477);
#142=VERTEX_POINT('',#479);
#143=VERTEX_POINT('',#481);
#144=VERTEX_POINT('',#484);
#145=VERTEX_POINT('',#488);
#146=VERTEX_POINT('',#489);
#147=VERTEX_POINT('',#491);
#148=VERTEX_POINT('',#493);
#149=VERTEX_POINT('',#498);
#150=VERTEX_POINT('',#505);
#151=VERTEX_POINT('',#507);
#152=VERTEX_POINT('',#525);
#153=VERTEX_POINT('',#529);
#154=VERTEX_POINT('',#537);
#155=VERTEX_POINT('',#541);
#156=VERTEX_POINT('',#545);
#157=EDGE_CURVE('',#129,#129,#110,.T.);
#158=EDGE_CURVE('',#130,#131,#111,.T.);
#159=EDGE_CURVE('',#131,#132,#26,.T.);
#160=EDGE_CURVE('',#132,#133,#112,.T.);
#161=EDGE_CURVE('',#133,#130,#27,.T.);
#162=EDGE_CURVE('',#133,#134,#28,.T.);
#163=EDGE_CURVE('',#135,#134,#29,.T.);
#164=EDGE_CURVE('',#130,#135,#30,.T.);
#165=EDGE_CURVE('',#136,#132,#31,.T.);
#166=EDGE_CURVE('',#137,#136,#113,.T.);
#167=EDGE_CURVE('',#138,#137,#32,.T.);
#168=EDGE_CURVE('',#139,#138,#114,.T.);
#169=EDGE_CURVE('',#140,#139,#33,.T.);
#170=EDGE_CURVE('',#134,#140,#115,.T.);
#171=EDGE_CURVE('',#141,#141,#116,.T.);
#172=EDGE_CURVE('',#142,#142,#117,.T.);
#173=EDGE_CURVE('',#143,#143,#118,.T.);
#174=EDGE_CURVE('',#144,#135,#119,.T.);
#175=EDGE_CURVE('',#140,#144,#34,.T.);
#176=EDGE_CURVE('',#145,#146,#120,.T.);
#177=EDGE_CURVE('',#146,#147,#121,.T.);
#178=EDGE_CURVE('',#147,#148,#15,.T.);
#179=EDGE_CURVE('',#149,#148,#16,.F.);
#180=EDGE_CURVE('',#149,#150,#122,.T.);
#181=EDGE_CURVE('',#151,#150,#17,.F.);
#182=EDGE_CURVE('',#151,#147,#18,.T.);
#183=EDGE_CURVE('',#146,#145,#123,.T.);
#184=EDGE_CURVE('',#129,#145,#35,.T.);
#185=EDGE_CURVE('',#138,#151,#36,.T.);
#186=EDGE_CURVE('',#148,#137,#37,.T.);
#187=EDGE_CURVE('',#150,#152,#124,.T.);
#188=EDGE_CURVE('',#152,#139,#38,.T.);
#189=EDGE_CURVE('',#153,#149,#125,.T.);
#190=EDGE_CURVE('',#136,#153,#39,.T.);
#191=EDGE_CURVE('',#153,#131,#40,.T.);
#192=EDGE_CURVE('',#144,#152,#41,.T.);
#193=EDGE_CURVE('',#141,#154,#42,.T.);
#194=EDGE_CURVE('',#154,#154,#126,.T.);
#195=EDGE_CURVE('',#142,#155,#43,.T.);
#196=EDGE_CURVE('',#155,#155,#127,.T.);
#197=EDGE_CURVE('',#156,#156,#128,.T.);
#198=EDGE_CURVE('',#156,#143,#44,.T.);
#199=ORIENTED_EDGE('',*,*,#157,.T.);
#200=ORIENTED_EDGE('',*,*,#158,.T.);
#201=ORIENTED_EDGE('',*,*,#159,.T.);
#202=ORIENTED_EDGE('',*,*,#160,.T.);
#203=ORIENTED_EDGE('',*,*,#161,.T.);
#204=ORIENTED_EDGE('',*,*,#161,.F.);
#205=ORIENTED_EDGE('',*,*,#162,.T.);
#206=ORIENTED_EDGE('',*,*,#163,.F.);
#207=ORIENTED_EDGE('',*,*,#164,.F.);
#208=ORIENTED_EDGE('',*,*,#160,.F.);
#209=ORIENTED_EDGE('',*,*,#165,.F.);
#210=ORIENTED_EDGE('',*,*,#166,.F.);
#211=ORIENTED_EDGE('',*,*,#167,.F.);
#212=ORIENTED_EDGE('',*,*,#168,.F.);
#213=ORIENTED_EDGE('',*,*,#169,.F.);
#214=ORIENTED_EDGE('',*,*,#170,.F.);
#215=ORIENTED_EDGE('',*,*,#162,.F.);
#216=ORIENTED_EDGE('',*,*,#171,.T.);
#217=ORIENTED_EDGE('',*,*,#172,.T.);
#218=ORIENTED_EDGE('',*,*,#173,.F.);
#219=ORIENTED_EDGE('',*,*,#174,.T.);
#220=ORIENTED_EDGE('',*,*,#163,.T.);
#221=ORIENTED_EDGE('',*,*,#170,.T.);
#222=ORIENTED_EDGE('',*,*,#175,.T.);
#223=ORIENTED_EDGE('',*,*,#176,.T.);
#224=ORIENTED_EDGE('',*,*,#177,.T.);
#225=ORIENTED_EDGE('',*,*,#178,.T.);
#226=ORIENTED_EDGE('',*,*,#179,.F.);
#227=ORIENTED_EDGE('',*,*,#180,.T.);
#228=ORIENTED_EDGE('',*,*,#181,.F.);
#229=ORIENTED_EDGE('',*,*,#182,.T.);
#230=ORIENTED_EDGE('',*,*,#177,.F.);
#231=ORIENTED_EDGE('',*,*,#183,.T.);
#232=ORIENTED_EDGE('',*,*,#157,.F.);
#233=ORIENTED_EDGE('',*,*,#184,.T.);
#234=ORIENTED_EDGE('',*,*,#183,.F.);
#235=ORIENTED_EDGE('',*,*,#176,.F.);
#236=ORIENTED_EDGE('',*,*,#184,.F.);
#237=ORIENTED_EDGE('',*,*,#185,.F.);
#238=ORIENTED_EDGE('',*,*,#167,.T.);
#239=ORIENTED_EDGE('',*,*,#186,.F.);
#240=ORIENTED_EDGE('',*,*,#178,.F.);
#241=ORIENTED_EDGE('',*,*,#182,.F.);
#242=ORIENTED_EDGE('',*,*,#187,.T.);
#243=ORIENTED_EDGE('',*,*,#188,.T.);
#244=ORIENTED_EDGE('',*,*,#168,.T.);
#245=ORIENTED_EDGE('',*,*,#185,.T.);
#246=ORIENTED_EDGE('',*,*,#181,.T.);
#247=ORIENTED_EDGE('',*,*,#189,.T.);
#248=ORIENTED_EDGE('',*,*,#179,.T.);
#249=ORIENTED_EDGE('',*,*,#186,.T.);
#250=ORIENTED_EDGE('',*,*,#166,.T.);
#251=ORIENTED_EDGE('',*,*,#190,.T.);
#252=ORIENTED_EDGE('',*,*,#159,.F.);
#253=ORIENTED_EDGE('',*,*,#191,.F.);
#254=ORIENTED_EDGE('',*,*,#190,.F.);
#255=ORIENTED_EDGE('',*,*,#165,.T.);
#256=ORIENTED_EDGE('',*,*,#175,.F.);
#257=ORIENTED_EDGE('',*,*,#169,.T.);
#258=ORIENTED_EDGE('',*,*,#188,.F.);
#259=ORIENTED_EDGE('',*,*,#192,.F.);
#260=ORIENTED_EDGE('',*,*,#171,.F.);
#261=ORIENTED_EDGE('',*,*,#193,.T.);
#262=ORIENTED_EDGE('',*,*,#194,.F.);
#263=ORIENTED_EDGE('',*,*,#193,.F.);
#264=ORIENTED_EDGE('',*,*,#172,.F.);
#265=ORIENTED_EDGE('',*,*,#195,.T.);
#266=ORIENTED_EDGE('',*,*,#196,.F.);
#267=ORIENTED_EDGE('',*,*,#195,.F.);
#268=ORIENTED_EDGE('',*,*,#197,.F.);
#269=ORIENTED_EDGE('',*,*,#198,.T.);
#270=ORIENTED_EDGE('',*,*,#173,.T.);
#271=ORIENTED_EDGE('',*,*,#198,.F.);
#272=ORIENTED_EDGE('',*,*,#158,.F.);
#273=ORIENTED_EDGE('',*,*,#164,.T.);
#274=ORIENTED_EDGE('',*,*,#174,.F.);
#275=ORIENTED_EDGE('',*,*,#192,.T.);
#276=ORIENTED_EDGE('',*,*,#187,.F.);
#277=ORIENTED_EDGE('',*,*,#180,.F.);
#278=ORIENTED_EDGE('',*,*,#189,.F.);
#279=ORIENTED_EDGE('',*,*,#191,.T.);
#280=ORIENTED_EDGE('',*,*,#194,.T.);
#281=ORIENTED_EDGE('',*,*,#196,.T.);
#282=ORIENTED_EDGE('',*,*,#197,.T.);
#283=PLANE('',#320);
#284=PLANE('',#325);
#285=PLANE('',#326);
#286=PLANE('',#341);
#287=PLANE('',#346);
#288=PLANE('',#347);
#289=PLANE('',#354);
#290=ADVANCED_FACE('',(#72),#283,.T.);
#291=ADVANCED_FACE('',(#73),#64,.T.);
#292=ADVANCED_FACE('',(#74),#284,.T.);
#293=ADVANCED_FACE('',(#75,#20,#21,#22),#285,.F.);
#294=ADVANCED_FACE('',(#76),#65,.T.);
#295=ADVANCED_FACE('',(#77),#19,.F.);
#296=ADVANCED_FACE('',(#78),#66,.T.);
#297=ADVANCED_FACE('',(#79),#286,.T.);
#298=ADVANCED_FACE('',(#80),#67,.T.);
#299=ADVANCED_FACE('',(#81),#68,.T.);
#300=ADVANCED_FACE('',(#82),#287,.T.);
#301=ADVANCED_FACE('',(#83),#288,.T.);
#302=ADVANCED_FACE('',(#84),#69,.F.);
#303=ADVANCED_FACE('',(#85),#70,.F.);
#304=ADVANCED_FACE('',(#86),#71,.F.);
#305=ADVANCED_FACE('',(#87,#23,#24,#25),#289,.T.);
#306=CLOSED_SHELL('',(#290,#291,#292,#293,#294,#295,#296,#297,#298,#299,
#300,#301,#302,#303,#304,#305));
#307=DERIVED_UNIT_ELEMENT(#309,1.);
#308=DERIVED_UNIT_ELEMENT(#554,-3.);
#309=(
MASS_UNIT()
NAMED_UNIT(*)
SI_UNIT(.KILO.,.GRAM.)
);
#310=DERIVED_UNIT((#307,#308));
#311=MEASURE_REPRESENTATION_ITEM('density measure',
POSITIVE_RATIO_MEASURE(7850.),#310);
#312=PROPERTY_DEFINITION_REPRESENTATION(#317,#314);
#313=PROPERTY_DEFINITION_REPRESENTATION(#318,#315);
#314=REPRESENTATION('material name',(#316),#551);
#315=REPRESENTATION('density',(#311),#551);
#316=DESCRIPTIVE_REPRESENTATION_ITEM('Steel','Steel');
#317=PROPERTY_DEFINITION('material property','material name',#561);
#318=PROPERTY_DEFINITION('material property','density of part',#561);
#319=AXIS2_PLACEMENT_3D('',#446,#355,#356);
#320=AXIS2_PLACEMENT_3D('',#447,#357,#358);
#321=AXIS2_PLACEMENT_3D('',#449,#359,#360);
#322=AXIS2_PLACEMENT_3D('',#450,#361,#362);
#323=AXIS2_PLACEMENT_3D('',#453,#363,#364);
#324=AXIS2_PLACEMENT_3D('',#457,#366,#367);
#325=AXIS2_PLACEMENT_3D('',#459,#369,#370);
#326=AXIS2_PLACEMENT_3D('',#465,#374,#375);
#327=AXIS2_PLACEMENT_3D('',#469,#377,#378);
#328=AXIS2_PLACEMENT_3D('',#473,#380,#381);
#329=AXIS2_PLACEMENT_3D('',#476,#383,#384);
#330=AXIS2_PLACEMENT_3D('',#478,#385,#386);
#331=AXIS2_PLACEMENT_3D('',#480,#387,#388);
#332=AXIS2_PLACEMENT_3D('',#482,#389,#390);
#333=AXIS2_PLACEMENT_3D('',#483,#391,#392);
#334=AXIS2_PLACEMENT_3D('',#485,#393,#394);
#335=AXIS2_PLACEMENT_3D('',#487,#396,#397);
#336=AXIS2_PLACEMENT_3D('',#490,#398,#399);
#337=AXIS2_PLACEMENT_3D('',#492,#400,#401);
#338=AXIS2_PLACEMENT_3D('',#506,#402,#403);
#339=AXIS2_PLACEMENT_3D('',#518,#404,#405);
#340=AXIS2_PLACEMENT_3D('',#519,#406,#407);
#341=AXIS2_PLACEMENT_3D('',#521,#409,#410);
#342=AXIS2_PLACEMENT_3D('',#524,#413,#414);
#343=AXIS2_PLACEMENT_3D('',#526,#415,#416);
#344=AXIS2_PLACEMENT_3D('',#528,#418,#419);
#345=AXIS2_PLACEMENT_3D('',#530,#420,#421);
#346=AXIS2_PLACEMENT_3D('',#532,#423,#424);
#347=AXIS2_PLACEMENT_3D('',#534,#426,#427);
#348=AXIS2_PLACEMENT_3D('',#536,#429,#430);
#349=AXIS2_PLACEMENT_3D('',#539,#432,#433);
#350=AXIS2_PLACEMENT_3D('',#540,#434,#435);
#351=AXIS2_PLACEMENT_3D('',#543,#437,#438);
#352=AXIS2_PLACEMENT_3D('',#544,#439,#440);
#353=AXIS2_PLACEMENT_3D('',#546,#441,#442);
#354=AXIS2_PLACEMENT_3D('',#548,#444,#445);
#355=DIRECTION('axis',(0.,0.,1.));
#356=DIRECTION('refdir',(1.,0.,0.));
#357=DIRECTION('center_axis',(0.,1.,0.));
#358=DIRECTION('ref_axis',(-1.,0.,0.));
#359=DIRECTION('center_axis',(0.,1.,0.));
#360=DIRECTION('ref_axis',(-1.,0.,0.));
#361=DIRECTION('center_axis',(0.,1.,0.));
#362=DIRECTION('ref_axis',(0.707106781186548,0.,-0.707106781186547));
#363=DIRECTION('center_axis',(0.,-1.,0.));
#364=DIRECTION('ref_axis',(0.707106781186548,0.,-0.707106781186547));
#365=DIRECTION('',(0.,-1.,0.));
#366=DIRECTION('center_axis',(0.,1.,0.));
#367=DIRECTION('ref_axis',(0.707106781186548,0.,-0.707106781186547));
#368=DIRECTION('',(0.,1.,0.));
#369=DIRECTION('center_axis',(0.,0.,-1.));
#370=DIRECTION('ref_axis',(-1.,0.,0.));
#371=DIRECTION('',(-1.,0.,0.));
#372=DIRECTION('',(0.,-1.,0.));
#373=DIRECTION('',(-1.,0.,0.));
#374=DIRECTION('center_axis',(0.,1.,0.));
#375=DIRECTION('ref_axis',(-1.,0.,0.));
#376=DIRECTION('',(0.,0.,-1.));
#377=DIRECTION('center_axis',(0.,1.,0.));
#378=DIRECTION('ref_axis',(0.707106781186547,0.,0.707106781186547));
#379=DIRECTION('',(1.,0.,0.));
#380=DIRECTION('center_axis',(0.,1.,0.));
#381=DIRECTION('ref_axis',(-0.707106781186547,0.,0.707106781186547));
#382=DIRECTION('',(0.,0.,1.));
#383=DIRECTION('center_axis',(0.,1.,0.));
#384=DIRECTION('ref_axis',(-0.707106781186546,0.,-0.707106781186549));
#385=DIRECTION('center_axis',(0.,1.,0.));
#386=DIRECTION('ref_axis',(-1.,0.,0.));
#387=DIRECTION('center_axis',(0.,1.,0.));
#388=DIRECTION('ref_axis',(-1.,0.,0.));
#389=DIRECTION('center_axis',(0.,-1.,0.));
#390=DIRECTION('ref_axis',(-1.,0.,0.));
#391=DIRECTION('center_axis',(0.,1.,0.));
#392=DIRECTION('ref_axis',(-0.707106781186546,0.,-0.707106781186549));
#393=DIRECTION('center_axis',(0.,-1.,0.));
#394=DIRECTION('ref_axis',(-0.707106781186546,0.,-0.707106781186549));
#395=DIRECTION('',(0.,1.,0.));
#396=DIRECTION('center_axis',(0.,-1.,0.));
#397=DIRECTION('ref_axis',(0.,0.,-1.));
#398=DIRECTION('center_axis',(0.,-1.,0.));
#399=DIRECTION('ref_axis',(-1.,0.,0.));
#400=DIRECTION('center_axis',(-1.,0.,-1.22464679914735E-16));
#401=DIRECTION('ref_axis',(-1.22464679914735E-16,0.,1.));
#402=DIRECTION('center_axis',(0.,1.,0.));
#403=DIRECTION('ref_axis',(-1.,0.,0.));
#404=DIRECTION('center_axis',(0.,-1.,0.));
#405=DIRECTION('ref_axis',(-1.,0.,0.));
#406=DIRECTION('center_axis',(0.,1.,0.));
#407=DIRECTION('ref_axis',(-1.,0.,0.));
#408=DIRECTION('',(0.,-1.,0.));
#409=DIRECTION('center_axis',(0.,0.,1.));
#410=DIRECTION('ref_axis',(1.,0.,0.));
#411=DIRECTION('',(0.,1.,0.));
#412=DIRECTION('',(0.,-1.,0.));
#413=DIRECTION('center_axis',(0.,1.,0.));
#414=DIRECTION('ref_axis',(-0.707106781186547,0.,0.707106781186547));
#415=DIRECTION('center_axis',(0.,-1.,0.));
#416=DIRECTION('ref_axis',(-0.707106781186547,0.,0.707106781186547));
#417=DIRECTION('',(0.,-1.,0.));
#418=DIRECTION('center_axis',(0.,1.,0.));
#419=DIRECTION('ref_axis',(0.707106781186547,0.,0.707106781186547));
#420=DIRECTION('center_axis',(0.,-1.,0.));
#421=DIRECTION('ref_axis',(0.707106781186547,0.,0.707106781186547));
#422=DIRECTION('',(0.,1.,0.));
#423=DIRECTION('center_axis',(1.,0.,0.));
#424=DIRECTION('ref_axis',(0.,0.,-1.));
#425=DIRECTION('',(0.,0.,-1.));
#426=DIRECTION('center_axis',(-1.,0.,0.));
#427=DIRECTION('ref_axis',(0.,0.,1.));
#428=DIRECTION('',(0.,0.,1.));
#429=DIRECTION('center_axis',(0.,1.,0.));
#430=DIRECTION('ref_axis',(-1.,0.,0.));
#431=DIRECTION('',(0.,1.,0.));
#432=DIRECTION('center_axis',(0.,-1.,0.));
#433=DIRECTION('ref_axis',(-1.,0.,0.));
#434=DIRECTION('center_axis',(0.,1.,0.));
#435=DIRECTION('ref_axis',(-1.,0.,0.));
#436=DIRECTION('',(0.,1.,0.));
#437=DIRECTION('center_axis',(0.,-1.,0.));
#438=DIRECTION('ref_axis',(-1.,0.,0.));
#439=DIRECTION('center_axis',(0.,1.,0.));
#440=DIRECTION('ref_axis',(-1.,0.,0.));
#441=DIRECTION('center_axis',(0.,-1.,0.));
#442=DIRECTION('ref_axis',(-1.,0.,0.));
#443=DIRECTION('',(0.,-1.,0.));
#444=DIRECTION('center_axis',(0.,1.,0.));
#445=DIRECTION('ref_axis',(-1.,0.,0.));
#446=CARTESIAN_POINT('',(0.,0.,0.));
#447=CARTESIAN_POINT('Origin',(0.,152.5,10.));
#448=CARTESIAN_POINT('',(3.8,152.5,10.));
#449=CARTESIAN_POINT('Origin',(0.,152.5,10.));
#450=CARTESIAN_POINT('Origin',(9.45566518602104,55.5,-4.));
#451=CARTESIAN_POINT('',(9.45566518602104,57.5,-5.));
#452=CARTESIAN_POINT('',(10.455665186021,57.5,-4.));
#453=CARTESIAN_POINT('Origin',(9.45566518602104,57.5,-4.));
#454=CARTESIAN_POINT('',(10.455665186021,55.5,-4.));
#455=CARTESIAN_POINT('',(10.455665186021,55.5,-4.));
#456=CARTESIAN_POINT('',(9.45566518602104,55.5,-5.));
#457=CARTESIAN_POINT('Origin',(9.45566518602104,55.5,-4.));
#458=CARTESIAN_POINT('',(9.45566518602104,55.5,-5.));
#459=CARTESIAN_POINT('Origin',(10.455665186021,55.5,-5.));
#460=CARTESIAN_POINT('',(-9.88937267844774,55.5,-5.));
#461=CARTESIAN_POINT('',(4.09174883363642,55.5,-5.));
#462=CARTESIAN_POINT('',(-9.88937267844774,57.5,-5.));
#463=CARTESIAN_POINT('',(-9.88937267844774,55.5,-5.));
#464=CARTESIAN_POINT('',(10.455665186021,57.5,-5.));
#465=CARTESIAN_POINT('Origin',(-0.216853746213348,55.5,5.));
#466=CARTESIAN_POINT('',(10.455665186021,55.5,5.));
#467=CARTESIAN_POINT('',(10.455665186021,55.5,7.50000001862645));
#468=CARTESIAN_POINT('',(0.455665186021039,55.5,15.));
#469=CARTESIAN_POINT('Origin',(0.455665186021039,55.5,5.));
#470=CARTESIAN_POINT('',(-0.889372678447737,55.5,15.));
#471=CARTESIAN_POINT('',(-10.8893726784477,55.5,15.));
#472=CARTESIAN_POINT('',(-10.8893726784477,55.5,5.));
#473=CARTESIAN_POINT('Origin',(-0.889372678447737,55.5,5.));
#474=CARTESIAN_POINT('',(-10.8893726784477,55.5,-4.));
#475=CARTESIAN_POINT('',(-10.8893726784477,55.5,-5.));
#476=CARTESIAN_POINT('Origin',(-9.88937267844774,55.5,-4.));
#477=CARTESIAN_POINT('',(-5.3,55.5,-2.0818995585505E-16));
#478=CARTESIAN_POINT('Origin',(-7.,55.5,0.));
#479=CARTESIAN_POINT('',(8.7,55.5,-2.0818995585505E-16));
#480=CARTESIAN_POINT('Origin',(7.,55.5,0.));
#481=CARTESIAN_POINT('',(1.7,55.5,-2.0818995585505E-16));
#482=CARTESIAN_POINT('Origin',(0.,55.5,0.));
#483=CARTESIAN_POINT('Origin',(-9.88937267844774,55.5,-4.));
#484=CARTESIAN_POINT('',(-10.8893726784477,57.5,-4.));
#485=CARTESIAN_POINT('Origin',(-9.88937267844774,57.5,-4.));
#486=CARTESIAN_POINT('',(-10.8893726784477,55.5,-4.));
#487=CARTESIAN_POINT('Origin',(0.,59.,10.));
#488=CARTESIAN_POINT('',(3.8,59.,10.));
#489=CARTESIAN_POINT('',(-4.65365783675994E-16,59.,13.8));
#490=CARTESIAN_POINT('Origin',(0.,59.,10.));
#491=CARTESIAN_POINT('',(-2.0207829122823E-16,57.5303061543301,15.));
#492=CARTESIAN_POINT('Origin',(-6.49062803548097E-16,59.,15.3));
#493=CARTESIAN_POINT('',(0.455665186025299,57.5262283888311,15.));
#494=CARTESIAN_POINT('Ctrl Pts',(2.08166817117217E-16,57.5303061543301,
15.));
#495=CARTESIAN_POINT('Ctrl Pts',(0.143832438269286,57.5303061543301,15.));
#496=CARTESIAN_POINT('Ctrl Pts',(0.298402224595826,57.5289330677103,15.));
#497=CARTESIAN_POINT('Ctrl Pts',(0.455665186025299,57.5262283888311,15.));
#498=CARTESIAN_POINT('',(2.10877082609257,57.5,14.8624156139743));
#499=CARTESIAN_POINT('Ctrl Pts',(0.455665186025194,57.5262283888311,15.));
#500=CARTESIAN_POINT('Ctrl Pts',(0.928222802801011,57.5181011311879,14.9999999999998));
#501=CARTESIAN_POINT('Ctrl Pts',(1.40032245313225,57.5049294304939,14.9666081625615));
#502=CARTESIAN_POINT('Ctrl Pts',(1.95080839432019,57.5003681384947,14.8879277701419));
#503=CARTESIAN_POINT('Ctrl Pts',(2.03020883845196,57.5,14.8755839157319));
#504=CARTESIAN_POINT('Ctrl Pts',(2.10877082609256,57.5,14.8624156139743));
#505=CARTESIAN_POINT('',(-1.89619467803989,57.5,14.9491863718164));
#506=CARTESIAN_POINT('Origin',(0.,57.5,10.));
#507=CARTESIAN_POINT('',(-0.889372678423243,57.5164468446185,15.));
#508=CARTESIAN_POINT('Ctrl Pts',(-1.89619467803989,57.5,14.9491863718164));
#509=CARTESIAN_POINT('Ctrl Pts',(-1.58120420043518,57.5,14.981062279118));
#510=CARTESIAN_POINT('Ctrl Pts',(-1.25834540657729,57.5069077069992,14.9986333700586));
#511=CARTESIAN_POINT('Ctrl Pts',(-0.915449906869937,57.5157668219681,14.9999744935209));
#512=CARTESIAN_POINT('Ctrl Pts',(-0.90241272890689,57.5161058604815,15.));
#513=CARTESIAN_POINT('Ctrl Pts',(-0.889372678423243,57.5164468446185,15.));
#514=CARTESIAN_POINT('Ctrl Pts',(-0.889372678423243,57.5164468446185,15.));
#515=CARTESIAN_POINT('Ctrl Pts',(-0.591227388925551,57.5242430425203,15.));
#516=CARTESIAN_POINT('Ctrl Pts',(-0.27587017243965,57.5303061543301,15.));
#517=CARTESIAN_POINT('Ctrl Pts',(1.38777878078145E-16,57.5303061543301,
15.));
#518=CARTESIAN_POINT('Origin',(0.,59.,10.));
#519=CARTESIAN_POINT('Origin',(0.,55.5,10.));
#520=CARTESIAN_POINT('',(3.8,55.5,10.));
#521=CARTESIAN_POINT('Origin',(-10.8893726784477,55.5,15.));
#522=CARTESIAN_POINT('',(-0.889372678447737,55.5,15.));
#523=CARTESIAN_POINT('',(0.455665186021039,55.5,15.));
#524=CARTESIAN_POINT('Origin',(-0.889372678447737,55.5,5.));
#525=CARTESIAN_POINT('',(-10.8893726784477,57.5,5.));
#526=CARTESIAN_POINT('Origin',(-0.889372678447737,57.5,5.));
#527=CARTESIAN_POINT('',(-10.8893726784477,55.5,5.));
#528=CARTESIAN_POINT('Origin',(0.455665186021039,55.5,5.));
#529=CARTESIAN_POINT('',(10.455665186021,57.5,5.));
#530=CARTESIAN_POINT('Origin',(0.455665186021039,57.5,5.));
#531=CARTESIAN_POINT('',(10.455665186021,55.5,5.));
#532=CARTESIAN_POINT('Origin',(10.455665186021,55.5,15.));
#533=CARTESIAN_POINT('',(10.455665186021,57.5,15.));
#534=CARTESIAN_POINT('Origin',(-10.8893726784477,55.5,-5.));
#535=CARTESIAN_POINT('',(-10.8893726784477,57.5,-5.));
#536=CARTESIAN_POINT('Origin',(-7.,55.5,0.));
#537=CARTESIAN_POINT('',(-5.3,57.5,2.0818995585505E-16));
#538=CARTESIAN_POINT('',(-5.3,55.5,-2.0818995585505E-16));
#539=CARTESIAN_POINT('Origin',(-7.,57.5,0.));
#540=CARTESIAN_POINT('Origin',(7.,55.5,0.));
#541=CARTESIAN_POINT('',(8.7,57.5,2.0818995585505E-16));
#542=CARTESIAN_POINT('',(8.7,55.5,-2.0818995585505E-16));
#543=CARTESIAN_POINT('Origin',(7.,57.5,0.));
#544=CARTESIAN_POINT('Origin',(0.,55.5,0.));
#545=CARTESIAN_POINT('',(1.7,57.5,0.));
#546=CARTESIAN_POINT('Origin',(0.,57.5,0.));
#547=CARTESIAN_POINT('',(1.7,55.5,-2.0818995585505E-16));
#548=CARTESIAN_POINT('Origin',(-0.216853746213348,57.5,5.));
#549=UNCERTAINTY_MEASURE_WITH_UNIT(LENGTH_MEASURE(0.01),#553,
'DISTANCE_ACCURACY_VALUE',
'Maximum model space distance between geometric entities at asserted c
onnectivities');
#550=UNCERTAINTY_MEASURE_WITH_UNIT(LENGTH_MEASURE(0.01),#553,
'DISTANCE_ACCURACY_VALUE',
'Maximum model space distance between geometric entities at asserted c
onnectivities');
#551=(
GEOMETRIC_REPRESENTATION_CONTEXT(3)
GLOBAL_UNCERTAINTY_ASSIGNED_CONTEXT((#549))
GLOBAL_UNIT_ASSIGNED_CONTEXT((#553,#555,#556))
REPRESENTATION_CONTEXT('','3D')
);
#552=(
GEOMETRIC_REPRESENTATION_CONTEXT(3)
GLOBAL_UNCERTAINTY_ASSIGNED_CONTEXT((#550))
GLOBAL_UNIT_ASSIGNED_CONTEXT((#553,#555,#556))
REPRESENTATION_CONTEXT('','3D')
);
#553=(
LENGTH_UNIT()
NAMED_UNIT(*)
SI_UNIT(.MILLI.,.METRE.)
);
#554=(
LENGTH_UNIT()
NAMED_UNIT(*)
SI_UNIT($,.METRE.)
);
#555=(
NAMED_UNIT(*)
PLANE_ANGLE_UNIT()
SI_UNIT($,.RADIAN.)
);
#556=(
NAMED_UNIT(*)
SI_UNIT($,.STERADIAN.)
SOLID_ANGLE_UNIT()
);
#557=SHAPE_DEFINITION_REPRESENTATION(#558,#559);
#558=PRODUCT_DEFINITION_SHAPE('',$,#561);
#559=SHAPE_REPRESENTATION('',(#319),#551);
#560=PRODUCT_DEFINITION_CONTEXT('part definition',#565,'design');
#561=PRODUCT_DEFINITION('2026-01-23-23-32-34-660','Roller Holder',#562,
#560);
#562=PRODUCT_DEFINITION_FORMATION('',$,#567);
#563=PRODUCT_RELATED_PRODUCT_CATEGORY('Roller Holder','Roller Holder',(#567));
#564=APPLICATION_PROTOCOL_DEFINITION('international standard',
'automotive_design',2009,#565);
#565=APPLICATION_CONTEXT(
'Core Data for Automotive Mechanical Design Process');
#566=PRODUCT_CONTEXT('part definition',#565,'mechanical');
#567=PRODUCT('2026-01-23-23-32-34-660','Roller Holder',$,(#566));
#568=PRESENTATION_STYLE_ASSIGNMENT((#569));
#569=SURFACE_STYLE_USAGE(.BOTH.,#570);
#570=SURFACE_SIDE_STYLE('',(#571));
#571=SURFACE_STYLE_FILL_AREA(#572);
#572=FILL_AREA_STYLE('Steel - Satin',(#573));
#573=FILL_AREA_STYLE_COLOUR('Steel - Satin',#574);
#574=COLOUR_RGB('Steel - Satin',0.627450980392157,0.627450980392157,0.627450980392157);
ENDSEC;
END-ISO-10303-21;
