ISO-10303-21;
HEADER;
/* Generated by software containing ST-Developer
 * from STEP Tools, Inc. (www.steptools.com) 
 */

FILE_DESCRIPTION(
/* description */ (''),
/* implementation_level */ '2;1');

FILE_NAME(
/* name */ 'Roller Holder V2.step',
/* time_stamp */ '2026-08-27T11:16:14-05:00',
/* author */ (''),
/* organization */ (''),
/* preprocessor_version */ 'ST-DEVELOPER v20.1',
/* originating_system */ 'Autodesk Translation Framework v15.8.0.0',
/* authorisation */ '');

FILE_SCHEMA (('AUTOMOTIVE_DESIGN { 1 0 10303 214 3 1 1 }'));
ENDSEC;

DATA;
#10=MECHANICAL_DESIGN_GEOMETRIC_PRESENTATION_REPRESENTATION('',(#13),#1293);
#11=SHAPE_REPRESENTATION_RELATIONSHIP('SRR','None',#1300,#12);
#12=ADVANCED_BREP_SHAPE_REPRESENTATION('',(#14),#1292);
#13=STYLED_ITEM('',(#1310),#14);
#14=MANIFOLD_SOLID_BREP('Body1',#693);
#15=TOROIDAL_SURFACE('',#762,11.4044292610706,7.60442926107062);
#16=TOROIDAL_SURFACE('',#769,11.4044292610706,7.60442926107062);
#17=TOROIDAL_SURFACE('',#777,11.4044292610706,7.60442926107062);
#18=TOROIDAL_SURFACE('',#788,11.4044292610706,7.60442926107062);
#19=B_SPLINE_CURVE_WITH_KNOTS('',3,(#1119,#1120,#1121,#1122,#1123,#1124,
#1125),.UNSPECIFIED.,.F.,.F.,(4,3,4),(8.72537826973148,8.81438325757494,
8.85993307984231),.UNSPECIFIED.);
#20=B_SPLINE_CURVE_WITH_KNOTS('',3,(#1129,#1130,#1131,#1132,#1133,#1134,
#1135,#1136),.UNSPECIFIED.,.F.,.F.,(4,2,2,4),(3.73289290614752,3.87158554820906,
4.23634983088215,4.59360462392869),.UNSPECIFIED.);
#21=B_SPLINE_CURVE_WITH_KNOTS('',3,(#1142,#1143,#1144,#1145,#1146,#1147,
#1148,#1149),.UNSPECIFIED.,.F.,.F.,(4,2,2,4),(2.96319778633345,3.12050031389318,
3.34552162608357,3.35914946190257),.UNSPECIFIED.);
#22=B_SPLINE_CURVE_WITH_KNOTS('',3,(#1153,#1154,#1155,#1156,#1157,#1158,
#1159),.UNSPECIFIED.,.F.,.F.,(4,3,4),(8.72537826973148,8.81438325757494,
8.85993307984231),.UNSPECIFIED.);
#23=B_SPLINE_CURVE_WITH_KNOTS('',3,(#1162,#1163,#1164,#1165,#1166,#1167,
#1168,#1169),.UNSPECIFIED.,.F.,.F.,(4,2,2,4),(3.73289290614752,3.87158554820906,
4.23634983088215,4.59360462392869),.UNSPECIFIED.);
#24=B_SPLINE_CURVE_WITH_KNOTS('',3,(#1175,#1176,#1177,#1178,#1179,#1180,
#1181,#1182),.UNSPECIFIED.,.F.,.F.,(4,2,2,4),(2.96319778633345,3.12050031389318,
3.34552162608357,3.35914946190257),.UNSPECIFIED.);
#25=B_SPLINE_CURVE_WITH_KNOTS('',3,(#1186,#1187,#1188,#1189,#1190,#1191,
#1192),.UNSPECIFIED.,.F.,.F.,(4,3,4),(8.72537826973148,8.81438325757494,
8.85993307984231),.UNSPECIFIED.);
#26=B_SPLINE_CURVE_WITH_KNOTS('',3,(#1194,#1195,#1196,#1197,#1198,#1199,
#1200,#1201),.UNSPECIFIED.,.F.,.F.,(4,2,2,4),(3.73289290614752,3.87158554820906,
4.23634983088215,4.59360462392869),.UNSPECIFIED.);
#27=B_SPLINE_CURVE_WITH_KNOTS('',3,(#1228,#1229,#1230,#1231,#1232,#1233,
#1234,#1235),.UNSPECIFIED.,.F.,.F.,(4,2,2,4),(2.96319778633345,3.12050031389318,
3.34552162608357,3.35914946190257),.UNSPECIFIED.);
#28=B_SPLINE_CURVE_WITH_KNOTS('',3,(#1253,#1254,#1255,#1256,#1257,#1258,
#1259),.UNSPECIFIED.,.F.,.F.,(4,3,4),(8.72537826973148,8.81438325757494,
8.85993307984231),.UNSPECIFIED.);
#29=B_SPLINE_CURVE_WITH_KNOTS('',3,(#1265,#1266,#1267,#1268,#1269,#1270,
#1271,#1272),.UNSPECIFIED.,.F.,.F.,(4,2,2,4),(2.96319778633345,3.12050031389318,
3.34552162608357,3.35914946190257),.UNSPECIFIED.);
#30=B_SPLINE_CURVE_WITH_KNOTS('',3,(#1281,#1282,#1283,#1284,#1285,#1286,
#1287,#1288),.UNSPECIFIED.,.F.,.F.,(4,2,2,4),(3.73289290614752,3.87158554820906,
4.23634983088215,4.59360462392869),.UNSPECIFIED.);
#31=FACE_BOUND('',#95,.T.);
#32=FACE_BOUND('',#96,.T.);
#33=FACE_BOUND('',#97,.T.);
#34=FACE_BOUND('',#98,.T.);
#35=FACE_BOUND('',#101,.T.);
#36=FACE_BOUND('',#102,.T.);
#37=FACE_BOUND('',#103,.T.);
#38=FACE_BOUND('',#104,.T.);
#39=PLANE('',#716);
#40=PLANE('',#734);
#41=PLANE('',#735);
#42=PLANE('',#745);
#43=PLANE('',#747);
#44=PLANE('',#749);
#45=PLANE('',#751);
#46=PLANE('',#753);
#47=PLANE('',#755);
#48=PLANE('',#757);
#49=PLANE('',#764);
#50=PLANE('',#771);
#51=PLANE('',#779);
#52=PLANE('',#780);
#53=PLANE('',#781);
#54=PLANE('',#782);
#55=FACE_OUTER_BOUND('',#91,.T.);
#56=FACE_OUTER_BOUND('',#92,.T.);
#57=FACE_OUTER_BOUND('',#93,.T.);
#58=FACE_OUTER_BOUND('',#94,.T.);
#59=FACE_OUTER_BOUND('',#99,.T.);
#60=FACE_OUTER_BOUND('',#100,.T.);
#61=FACE_OUTER_BOUND('',#105,.T.);
#62=FACE_OUTER_BOUND('',#106,.T.);
#63=FACE_OUTER_BOUND('',#107,.T.);
#64=FACE_OUTER_BOUND('',#108,.T.);
#65=FACE_OUTER_BOUND('',#109,.T.);
#66=FACE_OUTER_BOUND('',#110,.T.);
#67=FACE_OUTER_BOUND('',#111,.T.);
#68=FACE_OUTER_BOUND('',#112,.T.);
#69=FACE_OUTER_BOUND('',#113,.T.);
#70=FACE_OUTER_BOUND('',#114,.T.);
#71=FACE_OUTER_BOUND('',#115,.T.);
#72=FACE_OUTER_BOUND('',#116,.T.);
#73=FACE_OUTER_BOUND('',#117,.T.);
#74=FACE_OUTER_BOUND('',#118,.T.);
#75=FACE_OUTER_BOUND('',#119,.T.);
#76=FACE_OUTER_BOUND('',#120,.T.);
#77=FACE_OUTER_BOUND('',#121,.T.);
#78=FACE_OUTER_BOUND('',#122,.T.);
#79=FACE_OUTER_BOUND('',#123,.T.);
#80=FACE_OUTER_BOUND('',#124,.T.);
#81=FACE_OUTER_BOUND('',#125,.T.);
#82=FACE_OUTER_BOUND('',#126,.T.);
#83=FACE_OUTER_BOUND('',#127,.T.);
#84=FACE_OUTER_BOUND('',#128,.T.);
#85=FACE_OUTER_BOUND('',#129,.T.);
#86=FACE_OUTER_BOUND('',#130,.T.);
#87=FACE_OUTER_BOUND('',#131,.T.);
#88=FACE_OUTER_BOUND('',#132,.T.);
#89=FACE_OUTER_BOUND('',#133,.T.);
#90=FACE_OUTER_BOUND('',#134,.T.);
#91=EDGE_LOOP('',(#437,#438,#439,#440));
#92=EDGE_LOOP('',(#441,#442,#443,#444));
#93=EDGE_LOOP('',(#445,#446,#447,#448));
#94=EDGE_LOOP('',(#449,#450,#451,#452,#453,#454,#455,#456,#457,#458,#459,
#460,#461,#462,#463,#464,#465,#466,#467,#468,#469,#470));
#95=EDGE_LOOP('',(#471));
#96=EDGE_LOOP('',(#472));
#97=EDGE_LOOP('',(#473));
#98=EDGE_LOOP('',(#474));
#99=EDGE_LOOP('',(#475,#476,#477,#478));
#100=EDGE_LOOP('',(#479,#480,#481,#482,#483,#484,#485,#486,#487,#488,#489,
#490,#491,#492,#493,#494,#495,#496));
#101=EDGE_LOOP('',(#497));
#102=EDGE_LOOP('',(#498));
#103=EDGE_LOOP('',(#499));
#104=EDGE_LOOP('',(#500));
#105=EDGE_LOOP('',(#501,#502,#503,#504));
#106=EDGE_LOOP('',(#505,#506,#507,#508));
#107=EDGE_LOOP('',(#509,#510,#511,#512));
#108=EDGE_LOOP('',(#513,#514,#515,#516,#517));
#109=EDGE_LOOP('',(#518,#519,#520,#521));
#110=EDGE_LOOP('',(#522,#523,#524,#525,#526));
#111=EDGE_LOOP('',(#527,#528,#529,#530));
#112=EDGE_LOOP('',(#531,#532,#533,#534,#535));
#113=EDGE_LOOP('',(#536,#537,#538,#539));
#114=EDGE_LOOP('',(#540,#541,#542,#543,#544));
#115=EDGE_LOOP('',(#545,#546,#547,#548));
#116=EDGE_LOOP('',(#549,#550,#551,#552,#553));
#117=EDGE_LOOP('',(#554));
#118=EDGE_LOOP('',(#555,#556,#557,#558,#559));
#119=EDGE_LOOP('',(#560,#561,#562,#563,#564,#565,#566,#567,#568));
#120=EDGE_LOOP('',(#569));
#121=EDGE_LOOP('',(#570,#571,#572,#573,#574));
#122=EDGE_LOOP('',(#575,#576,#577,#578,#579,#580,#581,#582,#583));
#123=EDGE_LOOP('',(#584));
#124=EDGE_LOOP('',(#585,#586,#587,#588,#589));
#125=EDGE_LOOP('',(#590,#591,#592,#593,#594));
#126=EDGE_LOOP('',(#595,#596,#597,#598,#599,#600,#601,#602,#603));
#127=EDGE_LOOP('',(#604,#605,#606,#607));
#128=EDGE_LOOP('',(#608,#609,#610,#611));
#129=EDGE_LOOP('',(#612,#613,#614,#615));
#130=EDGE_LOOP('',(#616));
#131=EDGE_LOOP('',(#617,#618,#619,#620,#621));
#132=EDGE_LOOP('',(#622,#623,#624,#625,#626));
#133=EDGE_LOOP('',(#627,#628,#629,#630,#631,#632,#633,#634,#635));
#134=EDGE_LOOP('',(#636,#637,#638,#639,#640));
#135=LINE('',#1008,#177);
#136=LINE('',#1014,#178);
#137=LINE('',#1020,#179);
#138=LINE('',#1033,#180);
#139=LINE('',#1035,#181);
#140=LINE('',#1037,#182);
#141=LINE('',#1047,#183);
#142=LINE('',#1057,#184);
#143=LINE('',#1066,#185);
#144=LINE('',#1072,#186);
#145=LINE('',#1073,#187);
#146=LINE('',#1074,#188);
#147=LINE('',#1080,#189);
#148=LINE('',#1084,#190);
#149=LINE('',#1088,#191);
#150=LINE('',#1092,#192);
#151=LINE('',#1096,#193);
#152=LINE('',#1100,#194);
#153=LINE('',#1104,#195);
#154=LINE('',#1107,#196);
#155=LINE('',#1108,#197);
#156=LINE('',#1112,#198);
#157=LINE('',#1114,#199);
#158=LINE('',#1117,#200);
#159=LINE('',#1126,#201);
#160=LINE('',#1128,#202);
#161=LINE('',#1138,#203);
#162=LINE('',#1141,#204);
#163=LINE('',#1152,#205);
#164=LINE('',#1161,#206);
#165=LINE('',#1171,#207);
#166=LINE('',#1174,#208);
#167=LINE('',#1185,#209);
#168=LINE('',#1207,#210);
#169=LINE('',#1218,#211);
#170=LINE('',#1236,#212);
#171=LINE('',#1239,#213);
#172=LINE('',#1246,#214);
#173=LINE('',#1248,#215);
#174=LINE('',#1251,#216);
#175=LINE('',#1260,#217);
#176=LINE('',#1275,#218);
#177=VECTOR('',#797,1.69999999999995);
#178=VECTOR('',#804,1.69999999999995);
#179=VECTOR('',#811,1.69999999999995);
#180=VECTOR('',#824,10.);
#181=VECTOR('',#825,10.);
#182=VECTOR('',#826,10.);
#183=VECTOR('',#835,10.);
#184=VECTOR('',#844,10.);
#185=VECTOR('',#853,10.);
#186=VECTOR('',#858,10.);
#187=VECTOR('',#859,10.);
#188=VECTOR('',#860,10.);
#189=VECTOR('',#865,10.);
#190=VECTOR('',#868,10.);
#191=VECTOR('',#871,10.);
#192=VECTOR('',#874,10.);
#193=VECTOR('',#877,10.);
#194=VECTOR('',#880,10.);
#195=VECTOR('',#883,10.);
#196=VECTOR('',#886,10.);
#197=VECTOR('',#887,10.);
#198=VECTOR('',#892,10.);
#199=VECTOR('',#895,1.69999999999995);
#200=VECTOR('',#898,10.);
#201=VECTOR('',#899,10.);
#202=VECTOR('',#902,10.);
#203=VECTOR('',#905,10.);
#204=VECTOR('',#908,10.);
#205=VECTOR('',#911,10.);
#206=VECTOR('',#914,10.);
#207=VECTOR('',#917,10.);
#208=VECTOR('',#920,10.);
#209=VECTOR('',#923,10.);
#210=VECTOR('',#932,3.8);
#211=VECTOR('',#947,3.8);
#212=VECTOR('',#962,10.);
#213=VECTOR('',#965,3.8);
#214=VECTOR('',#976,10.);
#215=VECTOR('',#979,10.);
#216=VECTOR('',#982,10.);
#217=VECTOR('',#983,10.);
#218=VECTOR('',#992,3.8);
#219=CIRCLE('',#708,1.69999999999995);
#220=CIRCLE('',#709,1.69999999999995);
#221=CIRCLE('',#711,1.69999999999995);
#222=CIRCLE('',#712,1.69999999999995);
#223=CIRCLE('',#714,1.69999999999995);
#224=CIRCLE('',#715,1.69999999999995);
#225=CIRCLE('',#717,10.);
#226=CIRCLE('',#718,7.63496530420073);
#227=CIRCLE('',#719,7.63496530420073);
#228=CIRCLE('',#720,10.);
#229=CIRCLE('',#721,10.);
#230=CIRCLE('',#722,7.63496530420073);
#231=CIRCLE('',#723,7.63496530420073);
#232=CIRCLE('',#724,10.);
#233=CIRCLE('',#725,10.);
#234=CIRCLE('',#726,7.63496530420073);
#235=CIRCLE('',#727,7.63496530420073);
#236=CIRCLE('',#728,10.);
#237=CIRCLE('',#729,10.);
#238=CIRCLE('',#730,7.63496530420073);
#239=CIRCLE('',#731,7.63496530420073);
#240=CIRCLE('',#732,10.);
#241=CIRCLE('',#733,1.69999999999995);
#242=CIRCLE('',#736,10.);
#243=CIRCLE('',#737,10.);
#244=CIRCLE('',#738,10.);
#245=CIRCLE('',#739,10.);
#246=CIRCLE('',#740,10.);
#247=CIRCLE('',#741,10.);
#248=CIRCLE('',#742,10.);
#249=CIRCLE('',#743,10.);
#250=CIRCLE('',#744,1.69999999999995);
#251=CIRCLE('',#758,3.8);
#252=CIRCLE('',#760,3.8);
#253=CIRCLE('',#761,3.8);
#254=CIRCLE('',#763,7.60442926107062);
#255=CIRCLE('',#765,3.8);
#256=CIRCLE('',#767,3.8);
#257=CIRCLE('',#768,3.8);
#258=CIRCLE('',#770,7.60442926107062);
#259=CIRCLE('',#772,3.8);
#260=CIRCLE('',#775,3.8);
#261=CIRCLE('',#776,3.8);
#262=CIRCLE('',#778,7.60442926107062);
#263=CIRCLE('',#783,3.8);
#264=CIRCLE('',#786,3.8);
#265=CIRCLE('',#787,3.8);
#266=CIRCLE('',#789,7.60442926107062);
#267=VERTEX_POINT('',#1005);
#268=VERTEX_POINT('',#1007);
#269=VERTEX_POINT('',#1011);
#270=VERTEX_POINT('',#1013);
#271=VERTEX_POINT('',#1017);
#272=VERTEX_POINT('',#1019);
#273=VERTEX_POINT('',#1023);
#274=VERTEX_POINT('',#1024);
#275=VERTEX_POINT('',#1026);
#276=VERTEX_POINT('',#1028);
#277=VERTEX_POINT('',#1030);
#278=VERTEX_POINT('',#1032);
#279=VERTEX_POINT('',#1034);
#280=VERTEX_POINT('',#1036);
#281=VERTEX_POINT('',#1038);
#282=VERTEX_POINT('',#1040);
#283=VERTEX_POINT('',#1042);
#284=VERTEX_POINT('',#1044);
#285=VERTEX_POINT('',#1046);
#286=VERTEX_POINT('',#1048);
#287=VERTEX_POINT('',#1050);
#288=VERTEX_POINT('',#1052);
#289=VERTEX_POINT('',#1054);
#290=VERTEX_POINT('',#1056);
#291=VERTEX_POINT('',#1058);
#292=VERTEX_POINT('',#1060);
#293=VERTEX_POINT('',#1062);
#294=VERTEX_POINT('',#1064);
#295=VERTEX_POINT('',#1067);
#296=VERTEX_POINT('',#1070);
#297=VERTEX_POINT('',#1071);
#298=VERTEX_POINT('',#1076);
#299=VERTEX_POINT('',#1077);
#300=VERTEX_POINT('',#1079);
#301=VERTEX_POINT('',#1081);
#302=VERTEX_POINT('',#1083);
#303=VERTEX_POINT('',#1085);
#304=VERTEX_POINT('',#1087);
#305=VERTEX_POINT('',#1089);
#306=VERTEX_POINT('',#1091);
#307=VERTEX_POINT('',#1093);
#308=VERTEX_POINT('',#1095);
#309=VERTEX_POINT('',#1097);
#310=VERTEX_POINT('',#1099);
#311=VERTEX_POINT('',#1101);
#312=VERTEX_POINT('',#1103);
#313=VERTEX_POINT('',#1105);
#314=VERTEX_POINT('',#1109);
#315=VERTEX_POINT('',#1116);
#316=VERTEX_POINT('',#1118);
#317=VERTEX_POINT('',#1140);
#318=VERTEX_POINT('',#1151);
#319=VERTEX_POINT('',#1173);
#320=VERTEX_POINT('',#1184);
#321=VERTEX_POINT('',#1203);
#322=VERTEX_POINT('',#1206);
#323=VERTEX_POINT('',#1208);
#324=VERTEX_POINT('',#1214);
#325=VERTEX_POINT('',#1217);
#326=VERTEX_POINT('',#1219);
#327=VERTEX_POINT('',#1225);
#328=VERTEX_POINT('',#1238);
#329=VERTEX_POINT('',#1240);
#330=VERTEX_POINT('',#1250);
#331=VERTEX_POINT('',#1252);
#332=VERTEX_POINT('',#1262);
#333=VERTEX_POINT('',#1274);
#334=VERTEX_POINT('',#1276);
#335=EDGE_CURVE('',#267,#267,#219,.T.);
#336=EDGE_CURVE('',#267,#268,#135,.T.);
#337=EDGE_CURVE('',#268,#268,#220,.T.);
#338=EDGE_CURVE('',#269,#269,#221,.T.);
#339=EDGE_CURVE('',#269,#270,#136,.T.);
#340=EDGE_CURVE('',#270,#270,#222,.T.);
#341=EDGE_CURVE('',#271,#271,#223,.T.);
#342=EDGE_CURVE('',#271,#272,#137,.T.);
#343=EDGE_CURVE('',#272,#272,#224,.T.);
#344=EDGE_CURVE('',#273,#274,#225,.T.);
#345=EDGE_CURVE('',#275,#274,#226,.T.);
#346=EDGE_CURVE('',#276,#275,#227,.T.);
#347=EDGE_CURVE('',#276,#277,#228,.T.);
#348=EDGE_CURVE('',#277,#278,#138,.T.);
#349=EDGE_CURVE('',#278,#279,#139,.T.);
#350=EDGE_CURVE('',#279,#280,#140,.T.);
#351=EDGE_CURVE('',#280,#281,#229,.T.);
#352=EDGE_CURVE('',#282,#281,#230,.T.);
#353=EDGE_CURVE('',#283,#282,#231,.T.);
#354=EDGE_CURVE('',#283,#284,#232,.T.);
#355=EDGE_CURVE('',#284,#285,#141,.T.);
#356=EDGE_CURVE('',#285,#286,#233,.T.);
#357=EDGE_CURVE('',#287,#286,#234,.T.);
#358=EDGE_CURVE('',#288,#287,#235,.T.);
#359=EDGE_CURVE('',#288,#289,#236,.T.);
#360=EDGE_CURVE('',#289,#290,#142,.T.);
#361=EDGE_CURVE('',#290,#291,#237,.T.);
#362=EDGE_CURVE('',#292,#291,#238,.T.);
#363=EDGE_CURVE('',#293,#292,#239,.T.);
#364=EDGE_CURVE('',#293,#294,#240,.T.);
#365=EDGE_CURVE('',#294,#273,#143,.T.);
#366=EDGE_CURVE('',#295,#295,#241,.T.);
#367=EDGE_CURVE('',#296,#297,#144,.T.);
#368=EDGE_CURVE('',#297,#279,#145,.T.);
#369=EDGE_CURVE('',#278,#296,#146,.T.);
#370=EDGE_CURVE('',#298,#299,#242,.T.);
#371=EDGE_CURVE('',#300,#298,#147,.T.);
#372=EDGE_CURVE('',#301,#300,#243,.T.);
#373=EDGE_CURVE('',#302,#301,#148,.T.);
#374=EDGE_CURVE('',#303,#302,#244,.T.);
#375=EDGE_CURVE('',#304,#303,#149,.T.);
#376=EDGE_CURVE('',#305,#304,#245,.T.);
#377=EDGE_CURVE('',#306,#305,#150,.T.);
#378=EDGE_CURVE('',#307,#306,#246,.T.);
#379=EDGE_CURVE('',#308,#307,#151,.T.);
#380=EDGE_CURVE('',#309,#308,#247,.T.);
#381=EDGE_CURVE('',#310,#309,#152,.T.);
#382=EDGE_CURVE('',#311,#310,#248,.T.);
#383=EDGE_CURVE('',#312,#311,#153,.T.);
#384=EDGE_CURVE('',#313,#312,#249,.T.);
#385=EDGE_CURVE('',#297,#313,#154,.T.);
#386=EDGE_CURVE('',#296,#299,#155,.T.);
#387=EDGE_CURVE('',#314,#314,#250,.T.);
#388=EDGE_CURVE('',#277,#299,#156,.T.);
#389=EDGE_CURVE('',#295,#314,#157,.T.);
#390=EDGE_CURVE('',#315,#307,#158,.F.);
#391=EDGE_CURVE('',#316,#315,#19,.T.);
#392=EDGE_CURVE('',#308,#316,#159,.T.);
#393=EDGE_CURVE('',#289,#306,#160,.T.);
#394=EDGE_CURVE('',#288,#315,#20,.F.);
#395=EDGE_CURVE('',#305,#290,#161,.T.);
#396=EDGE_CURVE('',#304,#317,#162,.T.);
#397=EDGE_CURVE('',#317,#291,#21,.F.);
#398=EDGE_CURVE('',#318,#303,#163,.F.);
#399=EDGE_CURVE('',#317,#318,#22,.T.);
#400=EDGE_CURVE('',#294,#302,#164,.T.);
#401=EDGE_CURVE('',#293,#318,#23,.F.);
#402=EDGE_CURVE('',#301,#273,#165,.T.);
#403=EDGE_CURVE('',#300,#319,#166,.T.);
#404=EDGE_CURVE('',#319,#274,#24,.F.);
#405=EDGE_CURVE('',#320,#298,#167,.F.);
#406=EDGE_CURVE('',#319,#320,#25,.T.);
#407=EDGE_CURVE('',#276,#320,#26,.F.);
#408=EDGE_CURVE('',#321,#321,#251,.T.);
#409=EDGE_CURVE('',#321,#322,#168,.T.);
#410=EDGE_CURVE('',#323,#322,#252,.T.);
#411=EDGE_CURVE('',#322,#323,#253,.T.);
#412=EDGE_CURVE('',#275,#323,#254,.T.);
#413=EDGE_CURVE('',#324,#324,#255,.T.);
#414=EDGE_CURVE('',#324,#325,#169,.T.);
#415=EDGE_CURVE('',#326,#325,#256,.T.);
#416=EDGE_CURVE('',#325,#326,#257,.T.);
#417=EDGE_CURVE('',#292,#326,#258,.T.);
#418=EDGE_CURVE('',#327,#327,#259,.T.);
#419=EDGE_CURVE('',#316,#286,#27,.F.);
#420=EDGE_CURVE('',#309,#285,#170,.T.);
#421=EDGE_CURVE('',#327,#328,#171,.T.);
#422=EDGE_CURVE('',#329,#328,#260,.T.);
#423=EDGE_CURVE('',#328,#329,#261,.T.);
#424=EDGE_CURVE('',#287,#329,#262,.T.);
#425=EDGE_CURVE('',#310,#284,#172,.T.);
#426=EDGE_CURVE('',#280,#313,#173,.T.);
#427=EDGE_CURVE('',#330,#311,#174,.F.);
#428=EDGE_CURVE('',#331,#330,#28,.T.);
#429=EDGE_CURVE('',#312,#331,#175,.T.);
#430=EDGE_CURVE('',#332,#332,#263,.T.);
#431=EDGE_CURVE('',#331,#281,#29,.F.);
#432=EDGE_CURVE('',#332,#333,#176,.T.);
#433=EDGE_CURVE('',#334,#333,#264,.T.);
#434=EDGE_CURVE('',#333,#334,#265,.T.);
#435=EDGE_CURVE('',#282,#334,#266,.T.);
#436=EDGE_CURVE('',#283,#330,#30,.F.);
#437=ORIENTED_EDGE('',*,*,#335,.F.);
#438=ORIENTED_EDGE('',*,*,#336,.T.);
#439=ORIENTED_EDGE('',*,*,#337,.F.);
#440=ORIENTED_EDGE('',*,*,#336,.F.);
#441=ORIENTED_EDGE('',*,*,#338,.F.);
#442=ORIENTED_EDGE('',*,*,#339,.T.);
#443=ORIENTED_EDGE('',*,*,#340,.F.);
#444=ORIENTED_EDGE('',*,*,#339,.F.);
#445=ORIENTED_EDGE('',*,*,#341,.F.);
#446=ORIENTED_EDGE('',*,*,#342,.T.);
#447=ORIENTED_EDGE('',*,*,#343,.F.);
#448=ORIENTED_EDGE('',*,*,#342,.F.);
#449=ORIENTED_EDGE('',*,*,#344,.T.);
#450=ORIENTED_EDGE('',*,*,#345,.F.);
#451=ORIENTED_EDGE('',*,*,#346,.F.);
#452=ORIENTED_EDGE('',*,*,#347,.T.);
#453=ORIENTED_EDGE('',*,*,#348,.T.);
#454=ORIENTED_EDGE('',*,*,#349,.T.);
#455=ORIENTED_EDGE('',*,*,#350,.T.);
#456=ORIENTED_EDGE('',*,*,#351,.T.);
#457=ORIENTED_EDGE('',*,*,#352,.F.);
#458=ORIENTED_EDGE('',*,*,#353,.F.);
#459=ORIENTED_EDGE('',*,*,#354,.T.);
#460=ORIENTED_EDGE('',*,*,#355,.T.);
#461=ORIENTED_EDGE('',*,*,#356,.T.);
#462=ORIENTED_EDGE('',*,*,#357,.F.);
#463=ORIENTED_EDGE('',*,*,#358,.F.);
#464=ORIENTED_EDGE('',*,*,#359,.T.);
#465=ORIENTED_EDGE('',*,*,#360,.T.);
#466=ORIENTED_EDGE('',*,*,#361,.T.);
#467=ORIENTED_EDGE('',*,*,#362,.F.);
#468=ORIENTED_EDGE('',*,*,#363,.F.);
#469=ORIENTED_EDGE('',*,*,#364,.T.);
#470=ORIENTED_EDGE('',*,*,#365,.T.);
#471=ORIENTED_EDGE('',*,*,#335,.T.);
#472=ORIENTED_EDGE('',*,*,#338,.T.);
#473=ORIENTED_EDGE('',*,*,#341,.T.);
#474=ORIENTED_EDGE('',*,*,#366,.T.);
#475=ORIENTED_EDGE('',*,*,#367,.T.);
#476=ORIENTED_EDGE('',*,*,#368,.T.);
#477=ORIENTED_EDGE('',*,*,#349,.F.);
#478=ORIENTED_EDGE('',*,*,#369,.T.);
#479=ORIENTED_EDGE('',*,*,#370,.F.);
#480=ORIENTED_EDGE('',*,*,#371,.F.);
#481=ORIENTED_EDGE('',*,*,#372,.F.);
#482=ORIENTED_EDGE('',*,*,#373,.F.);
#483=ORIENTED_EDGE('',*,*,#374,.F.);
#484=ORIENTED_EDGE('',*,*,#375,.F.);
#485=ORIENTED_EDGE('',*,*,#376,.F.);
#486=ORIENTED_EDGE('',*,*,#377,.F.);
#487=ORIENTED_EDGE('',*,*,#378,.F.);
#488=ORIENTED_EDGE('',*,*,#379,.F.);
#489=ORIENTED_EDGE('',*,*,#380,.F.);
#490=ORIENTED_EDGE('',*,*,#381,.F.);
#491=ORIENTED_EDGE('',*,*,#382,.F.);
#492=ORIENTED_EDGE('',*,*,#383,.F.);
#493=ORIENTED_EDGE('',*,*,#384,.F.);
#494=ORIENTED_EDGE('',*,*,#385,.F.);
#495=ORIENTED_EDGE('',*,*,#367,.F.);
#496=ORIENTED_EDGE('',*,*,#386,.T.);
#497=ORIENTED_EDGE('',*,*,#337,.T.);
#498=ORIENTED_EDGE('',*,*,#340,.T.);
#499=ORIENTED_EDGE('',*,*,#343,.T.);
#500=ORIENTED_EDGE('',*,*,#387,.T.);
#501=ORIENTED_EDGE('',*,*,#386,.F.);
#502=ORIENTED_EDGE('',*,*,#369,.F.);
#503=ORIENTED_EDGE('',*,*,#348,.F.);
#504=ORIENTED_EDGE('',*,*,#388,.T.);
#505=ORIENTED_EDGE('',*,*,#366,.F.);
#506=ORIENTED_EDGE('',*,*,#389,.T.);
#507=ORIENTED_EDGE('',*,*,#387,.F.);
#508=ORIENTED_EDGE('',*,*,#389,.F.);
#509=ORIENTED_EDGE('',*,*,#379,.T.);
#510=ORIENTED_EDGE('',*,*,#390,.F.);
#511=ORIENTED_EDGE('',*,*,#391,.F.);
#512=ORIENTED_EDGE('',*,*,#392,.F.);
#513=ORIENTED_EDGE('',*,*,#378,.T.);
#514=ORIENTED_EDGE('',*,*,#393,.F.);
#515=ORIENTED_EDGE('',*,*,#359,.F.);
#516=ORIENTED_EDGE('',*,*,#394,.T.);
#517=ORIENTED_EDGE('',*,*,#390,.T.);
#518=ORIENTED_EDGE('',*,*,#377,.T.);
#519=ORIENTED_EDGE('',*,*,#395,.T.);
#520=ORIENTED_EDGE('',*,*,#360,.F.);
#521=ORIENTED_EDGE('',*,*,#393,.T.);
#522=ORIENTED_EDGE('',*,*,#376,.T.);
#523=ORIENTED_EDGE('',*,*,#396,.T.);
#524=ORIENTED_EDGE('',*,*,#397,.T.);
#525=ORIENTED_EDGE('',*,*,#361,.F.);
#526=ORIENTED_EDGE('',*,*,#395,.F.);
#527=ORIENTED_EDGE('',*,*,#375,.T.);
#528=ORIENTED_EDGE('',*,*,#398,.F.);
#529=ORIENTED_EDGE('',*,*,#399,.F.);
#530=ORIENTED_EDGE('',*,*,#396,.F.);
#531=ORIENTED_EDGE('',*,*,#374,.T.);
#532=ORIENTED_EDGE('',*,*,#400,.F.);
#533=ORIENTED_EDGE('',*,*,#364,.F.);
#534=ORIENTED_EDGE('',*,*,#401,.T.);
#535=ORIENTED_EDGE('',*,*,#398,.T.);
#536=ORIENTED_EDGE('',*,*,#373,.T.);
#537=ORIENTED_EDGE('',*,*,#402,.T.);
#538=ORIENTED_EDGE('',*,*,#365,.F.);
#539=ORIENTED_EDGE('',*,*,#400,.T.);
#540=ORIENTED_EDGE('',*,*,#372,.T.);
#541=ORIENTED_EDGE('',*,*,#403,.T.);
#542=ORIENTED_EDGE('',*,*,#404,.T.);
#543=ORIENTED_EDGE('',*,*,#344,.F.);
#544=ORIENTED_EDGE('',*,*,#402,.F.);
#545=ORIENTED_EDGE('',*,*,#371,.T.);
#546=ORIENTED_EDGE('',*,*,#405,.F.);
#547=ORIENTED_EDGE('',*,*,#406,.F.);
#548=ORIENTED_EDGE('',*,*,#403,.F.);
#549=ORIENTED_EDGE('',*,*,#370,.T.);
#550=ORIENTED_EDGE('',*,*,#388,.F.);
#551=ORIENTED_EDGE('',*,*,#347,.F.);
#552=ORIENTED_EDGE('',*,*,#407,.T.);
#553=ORIENTED_EDGE('',*,*,#405,.T.);
#554=ORIENTED_EDGE('',*,*,#408,.T.);
#555=ORIENTED_EDGE('',*,*,#408,.F.);
#556=ORIENTED_EDGE('',*,*,#409,.T.);
#557=ORIENTED_EDGE('',*,*,#410,.F.);
#558=ORIENTED_EDGE('',*,*,#411,.F.);
#559=ORIENTED_EDGE('',*,*,#409,.F.);
#560=ORIENTED_EDGE('',*,*,#346,.T.);
#561=ORIENTED_EDGE('',*,*,#412,.T.);
#562=ORIENTED_EDGE('',*,*,#410,.T.);
#563=ORIENTED_EDGE('',*,*,#411,.T.);
#564=ORIENTED_EDGE('',*,*,#412,.F.);
#565=ORIENTED_EDGE('',*,*,#345,.T.);
#566=ORIENTED_EDGE('',*,*,#404,.F.);
#567=ORIENTED_EDGE('',*,*,#406,.T.);
#568=ORIENTED_EDGE('',*,*,#407,.F.);
#569=ORIENTED_EDGE('',*,*,#413,.T.);
#570=ORIENTED_EDGE('',*,*,#413,.F.);
#571=ORIENTED_EDGE('',*,*,#414,.T.);
#572=ORIENTED_EDGE('',*,*,#415,.F.);
#573=ORIENTED_EDGE('',*,*,#416,.F.);
#574=ORIENTED_EDGE('',*,*,#414,.F.);
#575=ORIENTED_EDGE('',*,*,#363,.T.);
#576=ORIENTED_EDGE('',*,*,#417,.T.);
#577=ORIENTED_EDGE('',*,*,#415,.T.);
#578=ORIENTED_EDGE('',*,*,#416,.T.);
#579=ORIENTED_EDGE('',*,*,#417,.F.);
#580=ORIENTED_EDGE('',*,*,#362,.T.);
#581=ORIENTED_EDGE('',*,*,#397,.F.);
#582=ORIENTED_EDGE('',*,*,#399,.T.);
#583=ORIENTED_EDGE('',*,*,#401,.F.);
#584=ORIENTED_EDGE('',*,*,#418,.T.);
#585=ORIENTED_EDGE('',*,*,#380,.T.);
#586=ORIENTED_EDGE('',*,*,#392,.T.);
#587=ORIENTED_EDGE('',*,*,#419,.T.);
#588=ORIENTED_EDGE('',*,*,#356,.F.);
#589=ORIENTED_EDGE('',*,*,#420,.F.);
#590=ORIENTED_EDGE('',*,*,#418,.F.);
#591=ORIENTED_EDGE('',*,*,#421,.T.);
#592=ORIENTED_EDGE('',*,*,#422,.F.);
#593=ORIENTED_EDGE('',*,*,#423,.F.);
#594=ORIENTED_EDGE('',*,*,#421,.F.);
#595=ORIENTED_EDGE('',*,*,#358,.T.);
#596=ORIENTED_EDGE('',*,*,#424,.T.);
#597=ORIENTED_EDGE('',*,*,#422,.T.);
#598=ORIENTED_EDGE('',*,*,#423,.T.);
#599=ORIENTED_EDGE('',*,*,#424,.F.);
#600=ORIENTED_EDGE('',*,*,#357,.T.);
#601=ORIENTED_EDGE('',*,*,#419,.F.);
#602=ORIENTED_EDGE('',*,*,#391,.T.);
#603=ORIENTED_EDGE('',*,*,#394,.F.);
#604=ORIENTED_EDGE('',*,*,#355,.F.);
#605=ORIENTED_EDGE('',*,*,#425,.F.);
#606=ORIENTED_EDGE('',*,*,#381,.T.);
#607=ORIENTED_EDGE('',*,*,#420,.T.);
#608=ORIENTED_EDGE('',*,*,#385,.T.);
#609=ORIENTED_EDGE('',*,*,#426,.F.);
#610=ORIENTED_EDGE('',*,*,#350,.F.);
#611=ORIENTED_EDGE('',*,*,#368,.F.);
#612=ORIENTED_EDGE('',*,*,#383,.T.);
#613=ORIENTED_EDGE('',*,*,#427,.F.);
#614=ORIENTED_EDGE('',*,*,#428,.F.);
#615=ORIENTED_EDGE('',*,*,#429,.F.);
#616=ORIENTED_EDGE('',*,*,#430,.T.);
#617=ORIENTED_EDGE('',*,*,#384,.T.);
#618=ORIENTED_EDGE('',*,*,#429,.T.);
#619=ORIENTED_EDGE('',*,*,#431,.T.);
#620=ORIENTED_EDGE('',*,*,#351,.F.);
#621=ORIENTED_EDGE('',*,*,#426,.T.);
#622=ORIENTED_EDGE('',*,*,#430,.F.);
#623=ORIENTED_EDGE('',*,*,#432,.T.);
#624=ORIENTED_EDGE('',*,*,#433,.F.);
#625=ORIENTED_EDGE('',*,*,#434,.F.);
#626=ORIENTED_EDGE('',*,*,#432,.F.);
#627=ORIENTED_EDGE('',*,*,#353,.T.);
#628=ORIENTED_EDGE('',*,*,#435,.T.);
#629=ORIENTED_EDGE('',*,*,#433,.T.);
#630=ORIENTED_EDGE('',*,*,#434,.T.);
#631=ORIENTED_EDGE('',*,*,#435,.F.);
#632=ORIENTED_EDGE('',*,*,#352,.T.);
#633=ORIENTED_EDGE('',*,*,#431,.F.);
#634=ORIENTED_EDGE('',*,*,#428,.T.);
#635=ORIENTED_EDGE('',*,*,#436,.F.);
#636=ORIENTED_EDGE('',*,*,#382,.T.);
#637=ORIENTED_EDGE('',*,*,#425,.T.);
#638=ORIENTED_EDGE('',*,*,#354,.F.);
#639=ORIENTED_EDGE('',*,*,#436,.T.);
#640=ORIENTED_EDGE('',*,*,#427,.T.);
#641=CYLINDRICAL_SURFACE('',#707,1.69999999999995);
#642=CYLINDRICAL_SURFACE('',#710,1.69999999999995);
#643=CYLINDRICAL_SURFACE('',#713,1.69999999999995);
#644=CYLINDRICAL_SURFACE('',#746,1.69999999999995);
#645=CYLINDRICAL_SURFACE('',#748,10.);
#646=CYLINDRICAL_SURFACE('',#750,10.);
#647=CYLINDRICAL_SURFACE('',#752,10.);
#648=CYLINDRICAL_SURFACE('',#754,10.);
#649=CYLINDRICAL_SURFACE('',#756,10.);
#650=CYLINDRICAL_SURFACE('',#759,3.8);
#651=CYLINDRICAL_SURFACE('',#766,3.8);
#652=CYLINDRICAL_SURFACE('',#773,10.);
#653=CYLINDRICAL_SURFACE('',#774,3.8);
#654=CYLINDRICAL_SURFACE('',#784,10.);
#655=CYLINDRICAL_SURFACE('',#785,3.8);
#656=CYLINDRICAL_SURFACE('',#790,10.);
#657=ADVANCED_FACE('',(#55),#641,.F.);
#658=ADVANCED_FACE('',(#56),#642,.F.);
#659=ADVANCED_FACE('',(#57),#643,.F.);
#660=ADVANCED_FACE('',(#58,#31,#32,#33,#34),#39,.T.);
#661=ADVANCED_FACE('',(#59),#40,.T.);
#662=ADVANCED_FACE('',(#60,#35,#36,#37,#38),#41,.F.);
#663=ADVANCED_FACE('',(#61),#42,.F.);
#664=ADVANCED_FACE('',(#62),#644,.F.);
#665=ADVANCED_FACE('',(#63),#43,.T.);
#666=ADVANCED_FACE('',(#64),#645,.T.);
#667=ADVANCED_FACE('',(#65),#44,.T.);
#668=ADVANCED_FACE('',(#66),#646,.T.);
#669=ADVANCED_FACE('',(#67),#45,.T.);
#670=ADVANCED_FACE('',(#68),#647,.T.);
#671=ADVANCED_FACE('',(#69),#46,.T.);
#672=ADVANCED_FACE('',(#70),#648,.T.);
#673=ADVANCED_FACE('',(#71),#47,.T.);
#674=ADVANCED_FACE('',(#72),#649,.T.);
#675=ADVANCED_FACE('',(#73),#48,.T.);
#676=ADVANCED_FACE('',(#74),#650,.T.);
#677=ADVANCED_FACE('',(#75),#15,.F.);
#678=ADVANCED_FACE('',(#76),#49,.T.);
#679=ADVANCED_FACE('',(#77),#651,.T.);
#680=ADVANCED_FACE('',(#78),#16,.F.);
#681=ADVANCED_FACE('',(#79),#50,.T.);
#682=ADVANCED_FACE('',(#80),#652,.T.);
#683=ADVANCED_FACE('',(#81),#653,.T.);
#684=ADVANCED_FACE('',(#82),#17,.F.);
#685=ADVANCED_FACE('',(#83),#51,.T.);
#686=ADVANCED_FACE('',(#84),#52,.T.);
#687=ADVANCED_FACE('',(#85),#53,.T.);
#688=ADVANCED_FACE('',(#86),#54,.T.);
#689=ADVANCED_FACE('',(#87),#654,.T.);
#690=ADVANCED_FACE('',(#88),#655,.T.);
#691=ADVANCED_FACE('',(#89),#18,.F.);
#692=ADVANCED_FACE('',(#90),#656,.T.);
#693=CLOSED_SHELL('',(#657,#658,#659,#660,#661,#662,#663,#664,#665,#666,
#667,#668,#669,#670,#671,#672,#673,#674,#675,#676,#677,#678,#679,#680,#681,
#682,#683,#684,#685,#686,#687,#688,#689,#690,#691,#692));
#694=DERIVED_UNIT_ELEMENT(#696,1.);
#695=DERIVED_UNIT_ELEMENT(#1295,-3.);
#696=(
MASS_UNIT()
NAMED_UNIT(*)
SI_UNIT(.KILO.,.GRAM.)
);
#697=DERIVED_UNIT((#694,#695));
#698=MEASURE_REPRESENTATION_ITEM('density measure',
POSITIVE_RATIO_MEASURE(7850.),#697);
#699=PROPERTY_DEFINITION_REPRESENTATION(#704,#701);
#700=PROPERTY_DEFINITION_REPRESENTATION(#705,#702);
#701=REPRESENTATION('material name',(#703),#1292);
#702=REPRESENTATION('density',(#698),#1292);
#703=DESCRIPTIVE_REPRESENTATION_ITEM('Steel','Steel');
#704=PROPERTY_DEFINITION('material property','material name',#1302);
#705=PROPERTY_DEFINITION('material property','density of part',#1302);
#706=AXIS2_PLACEMENT_3D('',#1003,#791,#792);
#707=AXIS2_PLACEMENT_3D('',#1004,#793,#794);
#708=AXIS2_PLACEMENT_3D('',#1006,#795,#796);
#709=AXIS2_PLACEMENT_3D('',#1009,#798,#799);
#710=AXIS2_PLACEMENT_3D('',#1010,#800,#801);
#711=AXIS2_PLACEMENT_3D('',#1012,#802,#803);
#712=AXIS2_PLACEMENT_3D('',#1015,#805,#806);
#713=AXIS2_PLACEMENT_3D('',#1016,#807,#808);
#714=AXIS2_PLACEMENT_3D('',#1018,#809,#810);
#715=AXIS2_PLACEMENT_3D('',#1021,#812,#813);
#716=AXIS2_PLACEMENT_3D('',#1022,#814,#815);
#717=AXIS2_PLACEMENT_3D('',#1025,#816,#817);
#718=AXIS2_PLACEMENT_3D('',#1027,#818,#819);
#719=AXIS2_PLACEMENT_3D('',#1029,#820,#821);
#720=AXIS2_PLACEMENT_3D('',#1031,#822,#823);
#721=AXIS2_PLACEMENT_3D('',#1039,#827,#828);
#722=AXIS2_PLACEMENT_3D('',#1041,#829,#830);
#723=AXIS2_PLACEMENT_3D('',#1043,#831,#832);
#724=AXIS2_PLACEMENT_3D('',#1045,#833,#834);
#725=AXIS2_PLACEMENT_3D('',#1049,#836,#837);
#726=AXIS2_PLACEMENT_3D('',#1051,#838,#839);
#727=AXIS2_PLACEMENT_3D('',#1053,#840,#841);
#728=AXIS2_PLACEMENT_3D('',#1055,#842,#843);
#729=AXIS2_PLACEMENT_3D('',#1059,#845,#846);
#730=AXIS2_PLACEMENT_3D('',#1061,#847,#848);
#731=AXIS2_PLACEMENT_3D('',#1063,#849,#850);
#732=AXIS2_PLACEMENT_3D('',#1065,#851,#852);
#733=AXIS2_PLACEMENT_3D('',#1068,#854,#855);
#734=AXIS2_PLACEMENT_3D('',#1069,#856,#857);
#735=AXIS2_PLACEMENT_3D('',#1075,#861,#862);
#736=AXIS2_PLACEMENT_3D('',#1078,#863,#864);
#737=AXIS2_PLACEMENT_3D('',#1082,#866,#867);
#738=AXIS2_PLACEMENT_3D('',#1086,#869,#870);
#739=AXIS2_PLACEMENT_3D('',#1090,#872,#873);
#740=AXIS2_PLACEMENT_3D('',#1094,#875,#876);
#741=AXIS2_PLACEMENT_3D('',#1098,#878,#879);
#742=AXIS2_PLACEMENT_3D('',#1102,#881,#882);
#743=AXIS2_PLACEMENT_3D('',#1106,#884,#885);
#744=AXIS2_PLACEMENT_3D('',#1110,#888,#889);
#745=AXIS2_PLACEMENT_3D('',#1111,#890,#891);
#746=AXIS2_PLACEMENT_3D('',#1113,#893,#894);
#747=AXIS2_PLACEMENT_3D('',#1115,#896,#897);
#748=AXIS2_PLACEMENT_3D('',#1127,#900,#901);
#749=AXIS2_PLACEMENT_3D('',#1137,#903,#904);
#750=AXIS2_PLACEMENT_3D('',#1139,#906,#907);
#751=AXIS2_PLACEMENT_3D('',#1150,#909,#910);
#752=AXIS2_PLACEMENT_3D('',#1160,#912,#913);
#753=AXIS2_PLACEMENT_3D('',#1170,#915,#916);
#754=AXIS2_PLACEMENT_3D('',#1172,#918,#919);
#755=AXIS2_PLACEMENT_3D('',#1183,#921,#922);
#756=AXIS2_PLACEMENT_3D('',#1193,#924,#925);
#757=AXIS2_PLACEMENT_3D('',#1202,#926,#927);
#758=AXIS2_PLACEMENT_3D('',#1204,#928,#929);
#759=AXIS2_PLACEMENT_3D('',#1205,#930,#931);
#760=AXIS2_PLACEMENT_3D('',#1209,#933,#934);
#761=AXIS2_PLACEMENT_3D('',#1210,#935,#936);
#762=AXIS2_PLACEMENT_3D('',#1211,#937,#938);
#763=AXIS2_PLACEMENT_3D('',#1212,#939,#940);
#764=AXIS2_PLACEMENT_3D('',#1213,#941,#942);
#765=AXIS2_PLACEMENT_3D('',#1215,#943,#944);
#766=AXIS2_PLACEMENT_3D('',#1216,#945,#946);
#767=AXIS2_PLACEMENT_3D('',#1220,#948,#949);
#768=AXIS2_PLACEMENT_3D('',#1221,#950,#951);
#769=AXIS2_PLACEMENT_3D('',#1222,#952,#953);
#770=AXIS2_PLACEMENT_3D('',#1223,#954,#955);
#771=AXIS2_PLACEMENT_3D('',#1224,#956,#957);
#772=AXIS2_PLACEMENT_3D('',#1226,#958,#959);
#773=AXIS2_PLACEMENT_3D('',#1227,#960,#961);
#774=AXIS2_PLACEMENT_3D('',#1237,#963,#964);
#775=AXIS2_PLACEMENT_3D('',#1241,#966,#967);
#776=AXIS2_PLACEMENT_3D('',#1242,#968,#969);
#777=AXIS2_PLACEMENT_3D('',#1243,#970,#971);
#778=AXIS2_PLACEMENT_3D('',#1244,#972,#973);
#779=AXIS2_PLACEMENT_3D('',#1245,#974,#975);
#780=AXIS2_PLACEMENT_3D('',#1247,#977,#978);
#781=AXIS2_PLACEMENT_3D('',#1249,#980,#981);
#782=AXIS2_PLACEMENT_3D('',#1261,#984,#985);
#783=AXIS2_PLACEMENT_3D('',#1263,#986,#987);
#784=AXIS2_PLACEMENT_3D('',#1264,#988,#989);
#785=AXIS2_PLACEMENT_3D('',#1273,#990,#991);
#786=AXIS2_PLACEMENT_3D('',#1277,#993,#994);
#787=AXIS2_PLACEMENT_3D('',#1278,#995,#996);
#788=AXIS2_PLACEMENT_3D('',#1279,#997,#998);
#789=AXIS2_PLACEMENT_3D('',#1280,#999,#1000);
#790=AXIS2_PLACEMENT_3D('',#1289,#1001,#1002);
#791=DIRECTION('axis',(0.,0.,1.));
#792=DIRECTION('refdir',(1.,0.,0.));
#793=DIRECTION('center_axis',(0.,-1.,0.));
#794=DIRECTION('ref_axis',(-1.,0.,0.));
#795=DIRECTION('center_axis',(0.,-1.,0.));
#796=DIRECTION('ref_axis',(-1.,0.,0.));
#797=DIRECTION('',(0.,-1.,0.));
#798=DIRECTION('center_axis',(0.,1.,0.));
#799=DIRECTION('ref_axis',(-1.,0.,0.));
#800=DIRECTION('center_axis',(0.,-1.,0.));
#801=DIRECTION('ref_axis',(-1.,0.,0.));
#802=DIRECTION('center_axis',(0.,-1.,0.));
#803=DIRECTION('ref_axis',(-1.,0.,0.));
#804=DIRECTION('',(0.,-1.,0.));
#805=DIRECTION('center_axis',(0.,1.,0.));
#806=DIRECTION('ref_axis',(-1.,0.,0.));
#807=DIRECTION('center_axis',(0.,1.,0.));
#808=DIRECTION('ref_axis',(1.,0.,0.));
#809=DIRECTION('center_axis',(0.,-1.,0.));
#810=DIRECTION('ref_axis',(1.,0.,0.));
#811=DIRECTION('',(0.,-1.,0.));
#812=DIRECTION('center_axis',(0.,1.,0.));
#813=DIRECTION('ref_axis',(1.,0.,0.));
#814=DIRECTION('center_axis',(0.,1.,0.));
#815=DIRECTION('ref_axis',(-1.,0.,0.));
#816=DIRECTION('center_axis',(0.,1.,0.));
#817=DIRECTION('ref_axis',(-0.707106781186548,0.,0.707106781186548));
#818=DIRECTION('center_axis',(0.,1.,0.));
#819=DIRECTION('ref_axis',(0.,0.,1.));
#820=DIRECTION('center_axis',(0.,1.,0.));
#821=DIRECTION('ref_axis',(0.,0.,1.));
#822=DIRECTION('center_axis',(0.,1.,0.));
#823=DIRECTION('ref_axis',(0.707106781186548,0.,0.707106781186548));
#824=DIRECTION('',(0.,0.,-1.));
#825=DIRECTION('',(-1.,0.,0.));
#826=DIRECTION('',(0.,0.,1.));
#827=DIRECTION('center_axis',(0.,1.,0.));
#828=DIRECTION('ref_axis',(-0.707106781186548,0.,0.707106781186548));
#829=DIRECTION('center_axis',(0.,1.,0.));
#830=DIRECTION('ref_axis',(0.,0.,1.));
#831=DIRECTION('center_axis',(0.,1.,0.));
#832=DIRECTION('ref_axis',(0.,0.,1.));
#833=DIRECTION('center_axis',(0.,1.,0.));
#834=DIRECTION('ref_axis',(0.707106781186548,0.,0.707106781186548));
#835=DIRECTION('',(1.,0.,0.));
#836=DIRECTION('center_axis',(0.,1.,0.));
#837=DIRECTION('ref_axis',(-0.707106781186548,0.,0.707106781186548));
#838=DIRECTION('center_axis',(0.,1.,0.));
#839=DIRECTION('ref_axis',(0.,0.,1.));
#840=DIRECTION('center_axis',(0.,1.,0.));
#841=DIRECTION('ref_axis',(0.,0.,1.));
#842=DIRECTION('center_axis',(0.,1.,0.));
#843=DIRECTION('ref_axis',(0.707106781186548,0.,0.707106781186548));
#844=DIRECTION('',(1.,0.,0.));
#845=DIRECTION('center_axis',(0.,1.,0.));
#846=DIRECTION('ref_axis',(-0.707106781186548,0.,0.707106781186548));
#847=DIRECTION('center_axis',(0.,1.,0.));
#848=DIRECTION('ref_axis',(0.,0.,1.));
#849=DIRECTION('center_axis',(0.,1.,0.));
#850=DIRECTION('ref_axis',(0.,0.,1.));
#851=DIRECTION('center_axis',(0.,1.,0.));
#852=DIRECTION('ref_axis',(0.707106781186548,0.,0.707106781186548));
#853=DIRECTION('',(1.,0.,0.));
#854=DIRECTION('center_axis',(0.,-1.,0.));
#855=DIRECTION('ref_axis',(1.,0.,0.));
#856=DIRECTION('center_axis',(0.,0.,-1.));
#857=DIRECTION('ref_axis',(-1.,0.,0.));
#858=DIRECTION('',(-1.,0.,0.));
#859=DIRECTION('',(0.,1.,0.));
#860=DIRECTION('',(0.,-1.,0.));
#861=DIRECTION('center_axis',(0.,1.,0.));
#862=DIRECTION('ref_axis',(-1.,0.,0.));
#863=DIRECTION('center_axis',(0.,1.,0.));
#864=DIRECTION('ref_axis',(0.707106781186548,0.,0.707106781186548));
#865=DIRECTION('',(1.,0.,0.));
#866=DIRECTION('center_axis',(0.,1.,0.));
#867=DIRECTION('ref_axis',(-0.707106781186548,0.,0.707106781186548));
#868=DIRECTION('',(1.,0.,0.));
#869=DIRECTION('center_axis',(0.,1.,0.));
#870=DIRECTION('ref_axis',(0.707106781186548,0.,0.707106781186548));
#871=DIRECTION('',(1.,0.,0.));
#872=DIRECTION('center_axis',(0.,1.,0.));
#873=DIRECTION('ref_axis',(-0.707106781186548,0.,0.707106781186548));
#874=DIRECTION('',(1.,0.,0.));
#875=DIRECTION('center_axis',(0.,1.,0.));
#876=DIRECTION('ref_axis',(0.707106781186548,0.,0.707106781186548));
#877=DIRECTION('',(1.,0.,0.));
#878=DIRECTION('center_axis',(0.,1.,0.));
#879=DIRECTION('ref_axis',(-0.707106781186548,0.,0.707106781186548));
#880=DIRECTION('',(1.,0.,0.));
#881=DIRECTION('center_axis',(0.,1.,0.));
#882=DIRECTION('ref_axis',(0.707106781186548,0.,0.707106781186548));
#883=DIRECTION('',(1.,0.,0.));
#884=DIRECTION('center_axis',(0.,1.,0.));
#885=DIRECTION('ref_axis',(-0.707106781186548,0.,0.707106781186548));
#886=DIRECTION('',(0.,0.,1.));
#887=DIRECTION('',(0.,0.,1.));
#888=DIRECTION('center_axis',(0.,1.,0.));
#889=DIRECTION('ref_axis',(1.,0.,0.));
#890=DIRECTION('center_axis',(-1.,0.,0.));
#891=DIRECTION('ref_axis',(0.,0.,1.));
#892=DIRECTION('',(0.,-1.,0.));
#893=DIRECTION('center_axis',(0.,1.,0.));
#894=DIRECTION('ref_axis',(1.,0.,0.));
#895=DIRECTION('',(0.,-1.,0.));
#896=DIRECTION('center_axis',(0.,0.,1.));
#897=DIRECTION('ref_axis',(1.,0.,0.));
#898=DIRECTION('',(0.,1.,0.));
#899=DIRECTION('',(0.,1.,0.));
#900=DIRECTION('center_axis',(0.,1.,0.));
#901=DIRECTION('ref_axis',(0.707106781186548,0.,0.707106781186548));
#902=DIRECTION('',(0.,-1.,0.));
#903=DIRECTION('center_axis',(0.,0.,1.));
#904=DIRECTION('ref_axis',(1.,0.,0.));
#905=DIRECTION('',(0.,1.,0.));
#906=DIRECTION('center_axis',(0.,1.,0.));
#907=DIRECTION('ref_axis',(-0.707106781186548,0.,0.707106781186548));
#908=DIRECTION('',(0.,1.,0.));
#909=DIRECTION('center_axis',(0.,0.,1.));
#910=DIRECTION('ref_axis',(1.,0.,0.));
#911=DIRECTION('',(0.,1.,0.));
#912=DIRECTION('center_axis',(0.,1.,0.));
#913=DIRECTION('ref_axis',(0.707106781186548,0.,0.707106781186548));
#914=DIRECTION('',(0.,-1.,0.));
#915=DIRECTION('center_axis',(0.,0.,1.));
#916=DIRECTION('ref_axis',(1.,0.,0.));
#917=DIRECTION('',(0.,1.,0.));
#918=DIRECTION('center_axis',(0.,1.,0.));
#919=DIRECTION('ref_axis',(-0.707106781186548,0.,0.707106781186548));
#920=DIRECTION('',(0.,1.,0.));
#921=DIRECTION('center_axis',(0.,0.,1.));
#922=DIRECTION('ref_axis',(1.,0.,0.));
#923=DIRECTION('',(0.,1.,0.));
#924=DIRECTION('center_axis',(0.,1.,0.));
#925=DIRECTION('ref_axis',(0.707106781186548,0.,0.707106781186548));
#926=DIRECTION('center_axis',(0.,1.,0.));
#927=DIRECTION('ref_axis',(-1.,0.,0.));
#928=DIRECTION('center_axis',(0.,1.,0.));
#929=DIRECTION('ref_axis',(-1.,0.,0.));
#930=DIRECTION('center_axis',(0.,1.,0.));
#931=DIRECTION('ref_axis',(-1.,0.,0.));
#932=DIRECTION('',(0.,-1.,0.));
#933=DIRECTION('center_axis',(0.,-1.,0.));
#934=DIRECTION('ref_axis',(-1.,0.,0.));
#935=DIRECTION('center_axis',(0.,-1.,0.));
#936=DIRECTION('ref_axis',(-1.,0.,0.));
#937=DIRECTION('center_axis',(0.,1.,0.));
#938=DIRECTION('ref_axis',(0.,0.,1.));
#939=DIRECTION('center_axis',(-1.,0.,0.));
#940=DIRECTION('ref_axis',(0.,0.,-1.));
#941=DIRECTION('center_axis',(0.,1.,0.));
#942=DIRECTION('ref_axis',(-1.,0.,0.));
#943=DIRECTION('center_axis',(0.,1.,0.));
#944=DIRECTION('ref_axis',(-1.,0.,0.));
#945=DIRECTION('center_axis',(0.,1.,0.));
#946=DIRECTION('ref_axis',(-1.,0.,0.));
#947=DIRECTION('',(0.,-1.,0.));
#948=DIRECTION('center_axis',(0.,-1.,0.));
#949=DIRECTION('ref_axis',(-1.,0.,0.));
#950=DIRECTION('center_axis',(0.,-1.,0.));
#951=DIRECTION('ref_axis',(-1.,0.,0.));
#952=DIRECTION('center_axis',(0.,1.,0.));
#953=DIRECTION('ref_axis',(0.,0.,1.));
#954=DIRECTION('center_axis',(-1.,0.,0.));
#955=DIRECTION('ref_axis',(0.,0.,-1.));
#956=DIRECTION('center_axis',(0.,1.,0.));
#957=DIRECTION('ref_axis',(-1.,0.,0.));
#958=DIRECTION('center_axis',(0.,1.,0.));
#959=DIRECTION('ref_axis',(-1.,0.,0.));
#960=DIRECTION('center_axis',(0.,1.,0.));
#961=DIRECTION('ref_axis',(-0.707106781186548,0.,0.707106781186548));
#962=DIRECTION('',(0.,1.,0.));
#963=DIRECTION('center_axis',(0.,1.,0.));
#964=DIRECTION('ref_axis',(-1.,0.,0.));
#965=DIRECTION('',(0.,-1.,0.));
#966=DIRECTION('center_axis',(0.,-1.,0.));
#967=DIRECTION('ref_axis',(-1.,0.,0.));
#968=DIRECTION('center_axis',(0.,-1.,0.));
#969=DIRECTION('ref_axis',(-1.,0.,0.));
#970=DIRECTION('center_axis',(0.,1.,0.));
#971=DIRECTION('ref_axis',(0.,0.,1.));
#972=DIRECTION('center_axis',(-1.,0.,0.));
#973=DIRECTION('ref_axis',(0.,0.,-1.));
#974=DIRECTION('center_axis',(0.,0.,1.));
#975=DIRECTION('ref_axis',(1.,0.,0.));
#976=DIRECTION('',(0.,1.,0.));
#977=DIRECTION('center_axis',(-1.,0.,0.));
#978=DIRECTION('ref_axis',(0.,0.,1.));
#979=DIRECTION('',(0.,-1.,0.));
#980=DIRECTION('center_axis',(0.,0.,1.));
#981=DIRECTION('ref_axis',(1.,0.,0.));
#982=DIRECTION('',(0.,1.,0.));
#983=DIRECTION('',(0.,1.,0.));
#984=DIRECTION('center_axis',(0.,1.,0.));
#985=DIRECTION('ref_axis',(-1.,0.,0.));
#986=DIRECTION('center_axis',(0.,1.,0.));
#987=DIRECTION('ref_axis',(-1.,0.,0.));
#988=DIRECTION('center_axis',(0.,1.,0.));
#989=DIRECTION('ref_axis',(-0.707106781186548,0.,0.707106781186548));
#990=DIRECTION('center_axis',(0.,1.,0.));
#991=DIRECTION('ref_axis',(-1.,0.,0.));
#992=DIRECTION('',(0.,-1.,0.));
#993=DIRECTION('center_axis',(0.,-1.,0.));
#994=DIRECTION('ref_axis',(-1.,0.,0.));
#995=DIRECTION('center_axis',(0.,-1.,0.));
#996=DIRECTION('ref_axis',(-1.,0.,0.));
#997=DIRECTION('center_axis',(0.,1.,0.));
#998=DIRECTION('ref_axis',(0.,0.,1.));
#999=DIRECTION('center_axis',(-1.,0.,1.22464679914735E-16));
#1000=DIRECTION('ref_axis',(-1.22464679914735E-16,0.,-1.));
#1001=DIRECTION('center_axis',(0.,1.,0.));
#1002=DIRECTION('ref_axis',(0.707106781186548,0.,0.707106781186548));
#1003=CARTESIAN_POINT('',(0.,0.,0.));
#1004=CARTESIAN_POINT('Origin',(168.977832593011,58.5,0.));
#1005=CARTESIAN_POINT('',(170.67783259301,58.5,-2.08189955855043E-16));
#1006=CARTESIAN_POINT('Origin',(168.977832593011,58.5,0.));
#1007=CARTESIAN_POINT('',(170.67783259301,56.5,-2.08189955855043E-16));
#1008=CARTESIAN_POINT('',(170.67783259301,58.5,2.08189955855043E-16));
#1009=CARTESIAN_POINT('Origin',(168.977832593011,56.5,0.));
#1010=CARTESIAN_POINT('Origin',(248.977832593011,58.5,0.));
#1011=CARTESIAN_POINT('',(250.67783259301,58.5,-2.08189955855043E-16));
#1012=CARTESIAN_POINT('Origin',(248.977832593011,58.5,0.));
#1013=CARTESIAN_POINT('',(250.67783259301,56.5,-2.08189955855043E-16));
#1014=CARTESIAN_POINT('',(250.67783259301,58.5,2.08189955855043E-16));
#1015=CARTESIAN_POINT('Origin',(248.977832593011,56.5,0.));
#1016=CARTESIAN_POINT('Origin',(74.3384599145628,58.5,0.));
#1017=CARTESIAN_POINT('',(72.6384599145629,58.5,-2.08189955855043E-16));
#1018=CARTESIAN_POINT('Origin',(74.3384599145628,58.5,0.));
#1019=CARTESIAN_POINT('',(72.6384599145629,56.5,2.08189955855043E-16));
#1020=CARTESIAN_POINT('',(72.6384599145629,58.5,2.08189955855043E-16));
#1021=CARTESIAN_POINT('Origin',(74.3384599145628,56.5,0.));
#1022=CARTESIAN_POINT('Origin',(243.533146253787,58.5,5.));
#1023=CARTESIAN_POINT('',(232.860627321552,58.5,5.));
#1024=CARTESIAN_POINT('',(236.667483896799,58.5,12.8514313676189));
#1025=CARTESIAN_POINT('Origin',(242.860627321552,58.5,5.));
#1026=CARTESIAN_POINT('',(243.75,58.5,2.36503469579927));
#1027=CARTESIAN_POINT('Origin',(243.75,58.5,10.));
#1028=CARTESIAN_POINT('',(251.026154436731,58.5,12.3130654571762));
#1029=CARTESIAN_POINT('Origin',(243.75,58.5,10.));
#1030=CARTESIAN_POINT('',(254.205665186021,58.5,5.));
#1031=CARTESIAN_POINT('Origin',(244.205665186021,58.5,5.));
#1032=CARTESIAN_POINT('',(254.205665186021,58.5,-5.03309337006245));
#1033=CARTESIAN_POINT('',(254.205665186021,58.5,10.575390789469));
#1034=CARTESIAN_POINT('',(-10.8893726784477,58.5,-5.03309337006245));
#1035=CARTESIAN_POINT('',(335.426448931378,58.5,-5.03309337006245));
#1036=CARTESIAN_POINT('',(-10.8893726784477,58.5,5.));
#1037=CARTESIAN_POINT('',(-10.8893726784477,58.5,-5.03309337006245));
#1038=CARTESIAN_POINT('',(-7.08251610320147,58.5,12.8514313676189));
#1039=CARTESIAN_POINT('Origin',(-0.889372678447737,58.5,5.));
#1040=CARTESIAN_POINT('',(-9.35013582139053E-16,58.5,2.36503469579927));
#1041=CARTESIAN_POINT('Origin',(0.,58.5,10.));
#1042=CARTESIAN_POINT('',(7.2761544367315,58.5,12.3130654571762));
#1043=CARTESIAN_POINT('Origin',(0.,58.5,10.));
#1044=CARTESIAN_POINT('',(10.455665186021,58.5,5.));
#1045=CARTESIAN_POINT('Origin',(0.455665186021039,58.5,5.));
#1046=CARTESIAN_POINT('',(70.3606273215523,58.5,5.));
#1047=CARTESIAN_POINT('',(-10.8893726784477,58.5,5.));
#1048=CARTESIAN_POINT('',(74.1674838967985,58.5,12.8514313676189));
#1049=CARTESIAN_POINT('Origin',(80.3606273215523,58.5,5.));
#1050=CARTESIAN_POINT('',(81.25,58.5,2.36503469579927));
#1051=CARTESIAN_POINT('Origin',(81.25,58.5,10.));
#1052=CARTESIAN_POINT('',(88.5261544367315,58.5,12.3130654571762));
#1053=CARTESIAN_POINT('Origin',(81.25,58.5,10.));
#1054=CARTESIAN_POINT('',(91.705665186021,58.5,5.));
#1055=CARTESIAN_POINT('Origin',(81.705665186021,58.5,5.));
#1056=CARTESIAN_POINT('',(151.610627321552,58.5,5.));
#1057=CARTESIAN_POINT('',(-10.8893726784477,58.5,5.));
#1058=CARTESIAN_POINT('',(155.417483896799,58.5,12.8514313676189));
#1059=CARTESIAN_POINT('Origin',(161.610627321552,58.5,5.));
#1060=CARTESIAN_POINT('',(162.5,58.5,2.36503469579927));
#1061=CARTESIAN_POINT('Origin',(162.5,58.5,10.));
#1062=CARTESIAN_POINT('',(169.776154436731,58.5,12.3130654571762));
#1063=CARTESIAN_POINT('Origin',(162.5,58.5,10.));
#1064=CARTESIAN_POINT('',(172.955665186021,58.5,5.));
#1065=CARTESIAN_POINT('Origin',(162.955665186021,58.5,5.));
#1066=CARTESIAN_POINT('',(-10.8893726784477,58.5,5.));
#1067=CARTESIAN_POINT('',(-7.36154008543714,58.5,-2.08189955855043E-16));
#1068=CARTESIAN_POINT('Origin',(-5.6615400854372,58.5,0.));
#1069=CARTESIAN_POINT('Origin',(335.426448931378,55.5,-5.03309337006245));
#1070=CARTESIAN_POINT('',(254.205665186021,56.5,-5.03309337006245));
#1071=CARTESIAN_POINT('',(-10.8893726784477,56.5,-5.03309337006245));
#1072=CARTESIAN_POINT('',(167.604797592582,56.5,-5.03309337006245));
#1073=CARTESIAN_POINT('',(-10.8893726784477,55.5,-5.03309337006245));
#1074=CARTESIAN_POINT('',(254.205665186021,64.0248272431203,-5.03309337006245));
#1075=CARTESIAN_POINT('Origin',(-0.216853746213348,56.5,5.));
#1076=CARTESIAN_POINT('',(244.205665186021,56.5,15.));
#1077=CARTESIAN_POINT('',(254.205665186021,56.5,5.));
#1078=CARTESIAN_POINT('Origin',(244.205665186021,56.5,5.));
#1079=CARTESIAN_POINT('',(242.860627321552,56.5,15.));
#1080=CARTESIAN_POINT('',(116.321886787669,56.5,15.));
#1081=CARTESIAN_POINT('',(232.860627321552,56.5,5.));
#1082=CARTESIAN_POINT('Origin',(242.860627321552,56.5,5.));
#1083=CARTESIAN_POINT('',(172.955665186021,56.5,5.));
#1084=CARTESIAN_POINT('',(-5.55311321233054,56.5,5.));
#1085=CARTESIAN_POINT('',(162.955665186021,56.5,15.));
#1086=CARTESIAN_POINT('Origin',(162.955665186021,56.5,5.));
#1087=CARTESIAN_POINT('',(161.610627321552,56.5,15.));
#1088=CARTESIAN_POINT('',(75.6968867876695,56.5,15.));
#1089=CARTESIAN_POINT('',(151.610627321552,56.5,5.));
#1090=CARTESIAN_POINT('Origin',(161.610627321552,56.5,5.));
#1091=CARTESIAN_POINT('',(91.705665186021,56.5,5.));
#1092=CARTESIAN_POINT('',(-5.55311321233054,56.5,5.));
#1093=CARTESIAN_POINT('',(81.705665186021,56.5,15.));
#1094=CARTESIAN_POINT('Origin',(81.705665186021,56.5,5.));
#1095=CARTESIAN_POINT('',(80.3606273215523,56.5,15.));
#1096=CARTESIAN_POINT('',(35.0718867876695,56.5,15.));
#1097=CARTESIAN_POINT('',(70.3606273215523,56.5,5.));
#1098=CARTESIAN_POINT('Origin',(80.3606273215523,56.5,5.));
#1099=CARTESIAN_POINT('',(10.455665186021,56.5,5.));
#1100=CARTESIAN_POINT('',(-5.55311321233054,56.5,5.));
#1101=CARTESIAN_POINT('',(0.455665186021044,56.5,15.));
#1102=CARTESIAN_POINT('Origin',(0.455665186021039,56.5,5.));
#1103=CARTESIAN_POINT('',(-0.889372678447735,56.5,15.));
#1104=CARTESIAN_POINT('',(-5.55311321233052,56.5,15.));
#1105=CARTESIAN_POINT('',(-10.8893726784477,56.5,5.));
#1106=CARTESIAN_POINT('Origin',(-0.889372678447737,56.5,5.));
#1107=CARTESIAN_POINT('',(-10.8893726784477,56.5,0.));
#1108=CARTESIAN_POINT('',(254.205665186021,56.5,10.575390789469));
#1109=CARTESIAN_POINT('',(-7.36154008543714,56.5,2.08189955855043E-16));
#1110=CARTESIAN_POINT('Origin',(-5.6615400854372,56.5,0.));
#1111=CARTESIAN_POINT('Origin',(254.205665186021,72.5496544862405,16.1507815789381));
#1112=CARTESIAN_POINT('',(254.205665186021,55.5,5.));
#1113=CARTESIAN_POINT('Origin',(-5.6615400854372,58.5,0.));
#1114=CARTESIAN_POINT('',(-7.36154008543714,58.5,2.08189955855043E-16));
#1115=CARTESIAN_POINT('Origin',(70.3606273215523,55.5,15.));
#1116=CARTESIAN_POINT('',(81.7056651839142,60.9721656816883,15.));
#1117=CARTESIAN_POINT('',(81.705665186021,55.5,15.));
#1118=CARTESIAN_POINT('',(80.3606273215522,60.8842703731949,15.));
#1119=CARTESIAN_POINT('Ctrl Pts',(80.3606273215523,60.8842703731949,15.));
#1120=CARTESIAN_POINT('Ctrl Pts',(80.6556605502483,60.9617196732213,15.));
#1121=CARTESIAN_POINT('Ctrl Pts',(80.9533167071885,61.0043524048923,15.));
#1122=CARTESIAN_POINT('Ctrl Pts',(81.25,61.0043524048923,15.));
#1123=CARTESIAN_POINT('Ctrl Pts',(81.4018327408912,61.0043524048923,15.));
#1124=CARTESIAN_POINT('Ctrl Pts',(81.5538809925012,60.9934466530726,15.));
#1125=CARTESIAN_POINT('Ctrl Pts',(81.7056651839142,60.9721656816883,15.));
#1126=CARTESIAN_POINT('',(80.3606273215523,55.5,15.));
#1127=CARTESIAN_POINT('Origin',(81.705665186021,55.5,5.));
#1128=CARTESIAN_POINT('',(91.705665186021,55.5,5.));
#1129=CARTESIAN_POINT('Ctrl Pts',(81.7056651839142,60.9721656816883,15.));
#1130=CARTESIAN_POINT('Ctrl Pts',(82.0220343251197,60.927809002684,15.0000000000667));
#1131=CARTESIAN_POINT('Ctrl Pts',(82.362056569779,60.8580753063772,14.9852830764609));
#1132=CARTESIAN_POINT('Ctrl Pts',(83.697259627209,60.4977374816643,14.8478067367037));
#1133=CARTESIAN_POINT('Ctrl Pts',(84.7014040085232,60.0790561003026,14.6018056578813));
#1134=CARTESIAN_POINT('Ctrl Pts',(86.6641659371692,59.2526620308887,13.748414186021));
#1135=CARTESIAN_POINT('Ctrl Pts',(87.6361787964209,58.8405578498329,13.1430962183755));
#1136=CARTESIAN_POINT('Ctrl Pts',(88.5261544367245,58.5000000000027,12.3130654571827));
#1137=CARTESIAN_POINT('Origin',(-10.8893726784477,55.5,5.));
#1138=CARTESIAN_POINT('',(151.610627321552,55.5,5.));
#1139=CARTESIAN_POINT('Origin',(161.610627321552,55.5,5.));
#1140=CARTESIAN_POINT('',(161.610627321552,60.8842703731949,15.));
#1141=CARTESIAN_POINT('',(161.610627321552,55.5,15.));
#1142=CARTESIAN_POINT('Ctrl Pts',(155.417483896799,58.5,12.8514313676189));
#1143=CARTESIAN_POINT('Ctrl Pts',(156.170557502515,58.7720953924112,13.4454495321073));
#1144=CARTESIAN_POINT('Ctrl Pts',(156.990393803943,59.0996306659846,13.9175382899701));
#1145=CARTESIAN_POINT('Ctrl Pts',(159.090250398249,59.9759821174099,14.7686262023368));
#1146=CARTESIAN_POINT('Ctrl Pts',(160.306853246841,60.5157372501347,14.9761867711398));
#1147=CARTESIAN_POINT('Ctrl Pts',(161.480034449121,60.849265150103,14.9993717488573));
#1148=CARTESIAN_POINT('Ctrl Pts',(161.545883953179,60.8672745636584,15.));
#1149=CARTESIAN_POINT('Ctrl Pts',(161.610627321553,60.8842703731952,15.));
#1150=CARTESIAN_POINT('Origin',(151.610627321552,55.5,15.));
#1151=CARTESIAN_POINT('',(162.955665183914,60.9721656816883,15.));
#1152=CARTESIAN_POINT('',(162.955665186021,55.5,15.));
#1153=CARTESIAN_POINT('Ctrl Pts',(161.610627321552,60.8842703731949,15.));
#1154=CARTESIAN_POINT('Ctrl Pts',(161.905660550248,60.9617196732213,15.));
#1155=CARTESIAN_POINT('Ctrl Pts',(162.203316707188,61.0043524048923,15.));
#1156=CARTESIAN_POINT('Ctrl Pts',(162.5,61.0043524048923,15.));
#1157=CARTESIAN_POINT('Ctrl Pts',(162.651832740891,61.0043524048923,15.));
#1158=CARTESIAN_POINT('Ctrl Pts',(162.803880992501,60.9934466530726,15.));
#1159=CARTESIAN_POINT('Ctrl Pts',(162.955665183914,60.9721656816883,15.));
#1160=CARTESIAN_POINT('Origin',(162.955665186021,55.5,5.));
#1161=CARTESIAN_POINT('',(172.955665186021,55.5,5.));
#1162=CARTESIAN_POINT('Ctrl Pts',(162.955665183914,60.9721656816883,15.));
#1163=CARTESIAN_POINT('Ctrl Pts',(163.27203432512,60.927809002684,15.0000000000667));
#1164=CARTESIAN_POINT('Ctrl Pts',(163.612056569779,60.8580753063772,14.9852830764609));
#1165=CARTESIAN_POINT('Ctrl Pts',(164.947259627209,60.4977374816643,14.8478067367037));
#1166=CARTESIAN_POINT('Ctrl Pts',(165.951404008523,60.0790561003026,14.6018056578813));
#1167=CARTESIAN_POINT('Ctrl Pts',(167.914165937169,59.2526620308887,13.748414186021));
#1168=CARTESIAN_POINT('Ctrl Pts',(168.886178796421,58.8405578498329,13.1430962183755));
#1169=CARTESIAN_POINT('Ctrl Pts',(169.776154436724,58.5000000000027,12.3130654571827));
#1170=CARTESIAN_POINT('Origin',(-10.8893726784477,55.5,5.));
#1171=CARTESIAN_POINT('',(232.860627321552,55.5,5.));
#1172=CARTESIAN_POINT('Origin',(242.860627321552,55.5,5.));
#1173=CARTESIAN_POINT('',(242.860627321552,60.8842703731949,15.));
#1174=CARTESIAN_POINT('',(242.860627321552,55.5,15.));
#1175=CARTESIAN_POINT('Ctrl Pts',(236.667483896799,58.5,12.8514313676189));
#1176=CARTESIAN_POINT('Ctrl Pts',(237.420557502515,58.7720953924112,13.4454495321073));
#1177=CARTESIAN_POINT('Ctrl Pts',(238.240393803943,59.0996306659846,13.9175382899701));
#1178=CARTESIAN_POINT('Ctrl Pts',(240.340250398249,59.9759821174099,14.7686262023368));
#1179=CARTESIAN_POINT('Ctrl Pts',(241.556853246841,60.5157372501347,14.9761867711398));
#1180=CARTESIAN_POINT('Ctrl Pts',(242.730034449121,60.849265150103,14.9993717488573));
#1181=CARTESIAN_POINT('Ctrl Pts',(242.795883953179,60.8672745636584,15.));
#1182=CARTESIAN_POINT('Ctrl Pts',(242.860627321553,60.8842703731952,15.));
#1183=CARTESIAN_POINT('Origin',(232.860627321552,55.5,15.));
#1184=CARTESIAN_POINT('',(244.205665183914,60.9721656816883,15.));
#1185=CARTESIAN_POINT('',(244.205665186021,55.5,15.));
#1186=CARTESIAN_POINT('Ctrl Pts',(242.860627321552,60.8842703731949,15.));
#1187=CARTESIAN_POINT('Ctrl Pts',(243.155660550248,60.9617196732213,15.));
#1188=CARTESIAN_POINT('Ctrl Pts',(243.453316707188,61.0043524048923,15.));
#1189=CARTESIAN_POINT('Ctrl Pts',(243.75,61.0043524048923,15.));
#1190=CARTESIAN_POINT('Ctrl Pts',(243.901832740891,61.0043524048923,15.));
#1191=CARTESIAN_POINT('Ctrl Pts',(244.053880992501,60.9934466530726,15.));
#1192=CARTESIAN_POINT('Ctrl Pts',(244.205665183914,60.9721656816883,15.));
#1193=CARTESIAN_POINT('Origin',(244.205665186021,55.5,5.));
#1194=CARTESIAN_POINT('Ctrl Pts',(244.205665183914,60.9721656816883,15.));
#1195=CARTESIAN_POINT('Ctrl Pts',(244.52203432512,60.927809002684,15.0000000000667));
#1196=CARTESIAN_POINT('Ctrl Pts',(244.862056569779,60.8580753063772,14.9852830764609));
#1197=CARTESIAN_POINT('Ctrl Pts',(246.197259627209,60.4977374816643,14.8478067367037));
#1198=CARTESIAN_POINT('Ctrl Pts',(247.201404008523,60.0790561003026,14.6018056578813));
#1199=CARTESIAN_POINT('Ctrl Pts',(249.164165937169,59.2526620308887,13.748414186021));
#1200=CARTESIAN_POINT('Ctrl Pts',(250.136178796421,58.8405578498329,13.1430962183755));
#1201=CARTESIAN_POINT('Ctrl Pts',(251.026154436724,58.5000000000027,12.3130654571827));
#1202=CARTESIAN_POINT('Origin',(243.75,122.5,10.));
#1203=CARTESIAN_POINT('',(247.55,122.5,10.));
#1204=CARTESIAN_POINT('Origin',(243.75,122.5,10.));
#1205=CARTESIAN_POINT('Origin',(243.75,55.5,10.));
#1206=CARTESIAN_POINT('',(247.55,65.1044292610706,10.));
#1207=CARTESIAN_POINT('',(247.55,55.5,10.));
#1208=CARTESIAN_POINT('',(243.75,65.1044292610706,6.2));
#1209=CARTESIAN_POINT('Origin',(243.75,65.1044292610706,10.));
#1210=CARTESIAN_POINT('Origin',(243.75,65.1044292610706,10.));
#1211=CARTESIAN_POINT('Origin',(243.75,65.1044292610706,10.));
#1212=CARTESIAN_POINT('Origin',(243.75,65.1044292610706,-1.40442926107062));
#1213=CARTESIAN_POINT('Origin',(162.5,122.5,10.));
#1214=CARTESIAN_POINT('',(166.3,122.5,10.));
#1215=CARTESIAN_POINT('Origin',(162.5,122.5,10.));
#1216=CARTESIAN_POINT('Origin',(162.5,55.5,10.));
#1217=CARTESIAN_POINT('',(166.3,65.1044292610706,10.));
#1218=CARTESIAN_POINT('',(166.3,55.5,10.));
#1219=CARTESIAN_POINT('',(162.5,65.1044292610706,6.2));
#1220=CARTESIAN_POINT('Origin',(162.5,65.1044292610706,10.));
#1221=CARTESIAN_POINT('Origin',(162.5,65.1044292610706,10.));
#1222=CARTESIAN_POINT('Origin',(162.5,65.1044292610706,10.));
#1223=CARTESIAN_POINT('Origin',(162.5,65.1044292610706,-1.40442926107062));
#1224=CARTESIAN_POINT('Origin',(81.25,122.5,10.));
#1225=CARTESIAN_POINT('',(85.05,122.5,10.));
#1226=CARTESIAN_POINT('Origin',(81.25,122.5,10.));
#1227=CARTESIAN_POINT('Origin',(80.3606273215523,55.5,5.));
#1228=CARTESIAN_POINT('Ctrl Pts',(74.1674838967985,58.5,12.8514313676189));
#1229=CARTESIAN_POINT('Ctrl Pts',(74.9205575025152,58.7720953924112,13.4454495321073));
#1230=CARTESIAN_POINT('Ctrl Pts',(75.7403938039431,59.0996306659846,13.9175382899701));
#1231=CARTESIAN_POINT('Ctrl Pts',(77.8402503982491,59.9759821174099,14.7686262023368));
#1232=CARTESIAN_POINT('Ctrl Pts',(79.0568532468407,60.5157372501347,14.9761867711398));
#1233=CARTESIAN_POINT('Ctrl Pts',(80.2300344491211,60.849265150103,14.9993717488573));
#1234=CARTESIAN_POINT('Ctrl Pts',(80.2958839531792,60.8672745636584,15.));
#1235=CARTESIAN_POINT('Ctrl Pts',(80.3606273215534,60.8842703731952,15.));
#1236=CARTESIAN_POINT('',(70.3606273215523,55.5,5.));
#1237=CARTESIAN_POINT('Origin',(81.25,55.5,10.));
#1238=CARTESIAN_POINT('',(85.05,65.1044292610706,10.));
#1239=CARTESIAN_POINT('',(85.05,55.5,10.));
#1240=CARTESIAN_POINT('',(81.25,65.1044292610706,6.2));
#1241=CARTESIAN_POINT('Origin',(81.25,65.1044292610706,10.));
#1242=CARTESIAN_POINT('Origin',(81.25,65.1044292610706,10.));
#1243=CARTESIAN_POINT('Origin',(81.25,65.1044292610706,10.));
#1244=CARTESIAN_POINT('Origin',(81.25,65.1044292610706,-1.40442926107062));
#1245=CARTESIAN_POINT('Origin',(-10.8893726784477,55.5,5.));
#1246=CARTESIAN_POINT('',(10.455665186021,57.5,5.));
#1247=CARTESIAN_POINT('Origin',(-10.8893726784477,55.5,-5.));
#1248=CARTESIAN_POINT('',(-10.8893726784477,55.5,5.));
#1249=CARTESIAN_POINT('Origin',(-10.8893726784477,55.5,15.));
#1250=CARTESIAN_POINT('',(0.455665183914245,60.9721656816883,15.));
#1251=CARTESIAN_POINT('',(0.455665186021039,55.5,15.));
#1252=CARTESIAN_POINT('',(-0.889372678447745,60.8842703731949,15.));
#1253=CARTESIAN_POINT('Ctrl Pts',(-0.889372678447754,60.8842703731949,15.));
#1254=CARTESIAN_POINT('Ctrl Pts',(-0.594339449751679,60.9617196732213,15.));
#1255=CARTESIAN_POINT('Ctrl Pts',(-0.296683292811538,61.0043524048923,15.));
#1256=CARTESIAN_POINT('Ctrl Pts',(0.,61.0043524048923,15.));
#1257=CARTESIAN_POINT('Ctrl Pts',(0.151832740891239,61.0043524048923,15.));
#1258=CARTESIAN_POINT('Ctrl Pts',(0.303880992501235,60.9934466530726,15.));
#1259=CARTESIAN_POINT('Ctrl Pts',(0.45566518391421,60.9721656816883,15.));
#1260=CARTESIAN_POINT('',(-0.889372678447737,55.5,15.));
#1261=CARTESIAN_POINT('Origin',(0.,122.5,10.));
#1262=CARTESIAN_POINT('',(3.8,122.5,10.));
#1263=CARTESIAN_POINT('Origin',(0.,122.5,10.));
#1264=CARTESIAN_POINT('Origin',(-0.889372678447737,55.5,5.));
#1265=CARTESIAN_POINT('Ctrl Pts',(-7.08251610320147,58.5,12.8514313676189));
#1266=CARTESIAN_POINT('Ctrl Pts',(-6.32944249748477,58.7720953924112,13.4454495321073));
#1267=CARTESIAN_POINT('Ctrl Pts',(-5.50960619605687,59.0996306659846,13.9175382899701));
#1268=CARTESIAN_POINT('Ctrl Pts',(-3.40974960175094,59.9759821174099,14.7686262023368));
#1269=CARTESIAN_POINT('Ctrl Pts',(-2.19314675315934,60.5157372501347,14.9761867711398));
#1270=CARTESIAN_POINT('Ctrl Pts',(-1.01996555087893,60.849265150103,14.9993717488573));
#1271=CARTESIAN_POINT('Ctrl Pts',(-0.954116046820802,60.8672745636584,15.));
#1272=CARTESIAN_POINT('Ctrl Pts',(-0.889372678446632,60.8842703731952,15.));
#1273=CARTESIAN_POINT('Origin',(0.,55.5,10.));
#1274=CARTESIAN_POINT('',(3.8,65.1044292610706,10.));
#1275=CARTESIAN_POINT('',(3.8,55.5,10.));
#1276=CARTESIAN_POINT('',(-4.65365783675994E-16,65.1044292610706,6.2));
#1277=CARTESIAN_POINT('Origin',(0.,65.1044292610706,10.));
#1278=CARTESIAN_POINT('Origin',(0.,65.1044292610706,10.));
#1279=CARTESIAN_POINT('Origin',(0.,65.1044292610706,10.));
#1280=CARTESIAN_POINT('Origin',(-1.39663977906726E-15,65.1044292610706,
-1.40442926107062));
#1281=CARTESIAN_POINT('Ctrl Pts',(0.455665183914246,60.9721656816883,15.));
#1282=CARTESIAN_POINT('Ctrl Pts',(0.772034325119741,60.927809002684,15.0000000000667));
#1283=CARTESIAN_POINT('Ctrl Pts',(1.11205656977896,60.8580753063772,14.9852830764609));
#1284=CARTESIAN_POINT('Ctrl Pts',(2.44725962720903,60.4977374816643,14.8478067367037));
#1285=CARTESIAN_POINT('Ctrl Pts',(3.45140400852324,60.0790561003026,14.6018056578813));
#1286=CARTESIAN_POINT('Ctrl Pts',(5.41416593716921,59.2526620308887,13.748414186021));
#1287=CARTESIAN_POINT('Ctrl Pts',(6.38617879642095,58.8405578498329,13.1430962183755));
#1288=CARTESIAN_POINT('Ctrl Pts',(7.27615443672448,58.5000000000027,12.3130654571827));
#1289=CARTESIAN_POINT('Origin',(0.455665186021039,55.5,5.));
#1290=UNCERTAINTY_MEASURE_WITH_UNIT(LENGTH_MEASURE(0.01),#1294,
'DISTANCE_ACCURACY_VALUE',
'Maximum model space distance between geometric entities at asserted c
onnectivities');
#1291=UNCERTAINTY_MEASURE_WITH_UNIT(LENGTH_MEASURE(0.01),#1294,
'DISTANCE_ACCURACY_VALUE',
'Maximum model space distance between geometric entities at asserted c
onnectivities');
#1292=(
GEOMETRIC_REPRESENTATION_CONTEXT(3)
GLOBAL_UNCERTAINTY_ASSIGNED_CONTEXT((#1290))
GLOBAL_UNIT_ASSIGNED_CONTEXT((#1294,#1296,#1297))
REPRESENTATION_CONTEXT('','3D')
);
#1293=(
GEOMETRIC_REPRESENTATION_CONTEXT(3)
GLOBAL_UNCERTAINTY_ASSIGNED_CONTEXT((#1291))
GLOBAL_UNIT_ASSIGNED_CONTEXT((#1294,#1296,#1297))
REPRESENTATION_CONTEXT('','3D')
);
#1294=(
LENGTH_UNIT()
NAMED_UNIT(*)
SI_UNIT(.MILLI.,.METRE.)
);
#1295=(
LENGTH_UNIT()
NAMED_UNIT(*)
SI_UNIT($,.METRE.)
);
#1296=(
NAMED_UNIT(*)
PLANE_ANGLE_UNIT()
SI_UNIT($,.RADIAN.)
);
#1297=(
NAMED_UNIT(*)
SI_UNIT($,.STERADIAN.)
SOLID_ANGLE_UNIT()
);
#1298=SHAPE_DEFINITION_REPRESENTATION(#1299,#1300);
#1299=PRODUCT_DEFINITION_SHAPE('',$,#1302);
#1300=SHAPE_REPRESENTATION('',(#706),#1292);
#1301=PRODUCT_DEFINITION_CONTEXT('part definition',#1306,'design');
#1302=PRODUCT_DEFINITION('2026-08-27-15-00-18-060','Roller Holder V2',#1303,
#1301);
#1303=PRODUCT_DEFINITION_FORMATION('',$,#1308);
#1304=PRODUCT_RELATED_PRODUCT_CATEGORY('Roller Holder V2',
'Roller Holder V2',(#1308));
#1305=APPLICATION_PROTOCOL_DEFINITION('international standard',
'automotive_design',2009,#1306);
#1306=APPLICATION_CONTEXT(
'Core Data for Automotive Mechanical Design Process');
#1307=PRODUCT_CONTEXT('part definition',#1306,'mechanical');
#1308=PRODUCT('2026-08-27-15-00-18-060','Roller Holder V2',$,(#1307));
#1309=PRESENTATION_STYLE_ASSIGNMENT((#1311));
#1310=PRESENTATION_STYLE_ASSIGNMENT((#1312));
#1311=SURFACE_STYLE_USAGE(.BOTH.,#1313);
#1312=SURFACE_STYLE_USAGE(.BOTH.,#1314);
#1313=SURFACE_SIDE_STYLE('',(#1315));
#1314=SURFACE_SIDE_STYLE('',(#1316));
#1315=SURFACE_STYLE_FILL_AREA(#1317);
#1316=SURFACE_STYLE_FILL_AREA(#1318);
#1317=FILL_AREA_STYLE('Steel - Satin',(#1319));
#1318=FILL_AREA_STYLE('Opaque(160,160,160)',(#1320));
#1319=FILL_AREA_STYLE_COLOUR('Steel - Satin',#1321);
#1320=FILL_AREA_STYLE_COLOUR('Opaque(160,160,160)',#1322);
#1321=COLOUR_RGB('Steel - Satin',0.627450980392157,0.627450980392157,0.627450980392157);
#1322=COLOUR_RGB('Opaque(160,160,160)',0.627450980392157,0.627450980392157,
0.627450980392157);
ENDSEC;
END-ISO-10303-21;
