ISO-10303-21;
HEADER;
/* Generated by software containing ST-Developer
 * from STEP Tools, Inc. (www.steptools.com) 
 */

FILE_DESCRIPTION(
/* description */ (''),
/* implementation_level */ '2;1');

FILE_NAME(
/* name */ 'Roller Sprocket.step',
/* time_stamp */ '2026-08-27T11:16:38-05:00',
/* author */ (''),
/* organization */ (''),
/* preprocessor_version */ 'ST-DEVELOPER v20.1',
/* originating_system */ 'Autodesk Translation Framework v15.8.0.0',
/* authorisation */ '');

FILE_SCHEMA (('AUTOMOTIVE_DESIGN { 1 0 10303 214 3 1 1 }'));
ENDSEC;

DATA;
#10=MECHANICAL_DESIGN_GEOMETRIC_PRESENTATION_REPRESENTATION('',(#13),#1132);
#11=SHAPE_REPRESENTATION_RELATIONSHIP('SRR','None',#1139,#12);
#12=ADVANCED_BREP_SHAPE_REPRESENTATION('',(#14),#1131);
#13=STYLED_ITEM('',(#1149),#14);
#14=MANIFOLD_SOLID_BREP('Body1',#656);
#15=FACE_BOUND('',#74,.T.);
#16=FACE_BOUND('',#77,.T.);
#17=FACE_BOUND('',#79,.T.);
#18=FACE_BOUND('',#82,.T.);
#19=PLANE('',#673);
#20=PLANE('',#691);
#21=PLANE('',#692);
#22=PLANE('',#710);
#23=PLANE('',#711);
#24=PLANE('',#713);
#25=PLANE('',#715);
#26=PLANE('',#717);
#27=PLANE('',#719);
#28=PLANE('',#721);
#29=PLANE('',#723);
#30=PLANE('',#725);
#31=PLANE('',#727);
#32=PLANE('',#729);
#33=PLANE('',#731);
#34=PLANE('',#733);
#35=PLANE('',#735);
#36=PLANE('',#737);
#37=FACE_OUTER_BOUND('',#72,.T.);
#38=FACE_OUTER_BOUND('',#73,.T.);
#39=FACE_OUTER_BOUND('',#75,.T.);
#40=FACE_OUTER_BOUND('',#76,.T.);
#41=FACE_OUTER_BOUND('',#78,.T.);
#42=FACE_OUTER_BOUND('',#80,.T.);
#43=FACE_OUTER_BOUND('',#81,.T.);
#44=FACE_OUTER_BOUND('',#83,.T.);
#45=FACE_OUTER_BOUND('',#84,.T.);
#46=FACE_OUTER_BOUND('',#85,.T.);
#47=FACE_OUTER_BOUND('',#86,.T.);
#48=FACE_OUTER_BOUND('',#87,.T.);
#49=FACE_OUTER_BOUND('',#88,.T.);
#50=FACE_OUTER_BOUND('',#89,.T.);
#51=FACE_OUTER_BOUND('',#90,.T.);
#52=FACE_OUTER_BOUND('',#91,.T.);
#53=FACE_OUTER_BOUND('',#92,.T.);
#54=FACE_OUTER_BOUND('',#93,.T.);
#55=FACE_OUTER_BOUND('',#94,.T.);
#56=FACE_OUTER_BOUND('',#95,.T.);
#57=FACE_OUTER_BOUND('',#96,.T.);
#58=FACE_OUTER_BOUND('',#97,.T.);
#59=FACE_OUTER_BOUND('',#98,.T.);
#60=FACE_OUTER_BOUND('',#99,.T.);
#61=FACE_OUTER_BOUND('',#100,.T.);
#62=FACE_OUTER_BOUND('',#101,.T.);
#63=FACE_OUTER_BOUND('',#102,.T.);
#64=FACE_OUTER_BOUND('',#103,.T.);
#65=FACE_OUTER_BOUND('',#104,.T.);
#66=FACE_OUTER_BOUND('',#105,.T.);
#67=FACE_OUTER_BOUND('',#106,.T.);
#68=FACE_OUTER_BOUND('',#107,.T.);
#69=FACE_OUTER_BOUND('',#108,.T.);
#70=FACE_OUTER_BOUND('',#109,.T.);
#71=FACE_OUTER_BOUND('',#110,.T.);
#72=EDGE_LOOP('',(#418,#419,#420,#421));
#73=EDGE_LOOP('',(#422));
#74=EDGE_LOOP('',(#423,#424,#425,#426,#427,#428,#429,#430,#431,#432,#433,
#434,#435,#436,#437,#438,#439,#440,#441,#442,#443,#444,#445,#446,#447,#448,
#449,#450));
#75=EDGE_LOOP('',(#451,#452,#453,#454));
#76=EDGE_LOOP('',(#455));
#77=EDGE_LOOP('',(#456));
#78=EDGE_LOOP('',(#457));
#79=EDGE_LOOP('',(#458,#459,#460,#461,#462,#463,#464,#465,#466,#467,#468,
#469,#470,#471,#472,#473,#474,#475,#476,#477,#478,#479,#480,#481,#482,#483,
#484,#485));
#80=EDGE_LOOP('',(#486,#487,#488,#489));
#81=EDGE_LOOP('',(#490));
#82=EDGE_LOOP('',(#491));
#83=EDGE_LOOP('',(#492,#493,#494,#495));
#84=EDGE_LOOP('',(#496,#497,#498,#499));
#85=EDGE_LOOP('',(#500,#501,#502,#503));
#86=EDGE_LOOP('',(#504,#505,#506,#507));
#87=EDGE_LOOP('',(#508,#509,#510,#511));
#88=EDGE_LOOP('',(#512,#513,#514,#515));
#89=EDGE_LOOP('',(#516,#517,#518,#519));
#90=EDGE_LOOP('',(#520,#521,#522,#523));
#91=EDGE_LOOP('',(#524,#525,#526,#527));
#92=EDGE_LOOP('',(#528,#529,#530,#531));
#93=EDGE_LOOP('',(#532,#533,#534,#535));
#94=EDGE_LOOP('',(#536,#537,#538,#539));
#95=EDGE_LOOP('',(#540,#541,#542,#543));
#96=EDGE_LOOP('',(#544,#545,#546,#547));
#97=EDGE_LOOP('',(#548,#549,#550,#551));
#98=EDGE_LOOP('',(#552,#553,#554,#555));
#99=EDGE_LOOP('',(#556,#557,#558,#559));
#100=EDGE_LOOP('',(#560,#561,#562,#563));
#101=EDGE_LOOP('',(#564,#565,#566,#567));
#102=EDGE_LOOP('',(#568,#569,#570,#571));
#103=EDGE_LOOP('',(#572,#573,#574,#575));
#104=EDGE_LOOP('',(#576,#577,#578,#579));
#105=EDGE_LOOP('',(#580,#581,#582,#583));
#106=EDGE_LOOP('',(#584,#585,#586,#587));
#107=EDGE_LOOP('',(#588,#589,#590,#591));
#108=EDGE_LOOP('',(#592,#593,#594,#595));
#109=EDGE_LOOP('',(#596,#597,#598,#599));
#110=EDGE_LOOP('',(#600,#601,#602,#603));
#111=LINE('',#943,#170);
#112=LINE('',#950,#171);
#113=LINE('',#954,#172);
#114=LINE('',#958,#173);
#115=LINE('',#962,#174);
#116=LINE('',#966,#175);
#117=LINE('',#970,#176);
#118=LINE('',#974,#177);
#119=LINE('',#978,#178);
#120=LINE('',#982,#179);
#121=LINE('',#986,#180);
#122=LINE('',#990,#181);
#123=LINE('',#994,#182);
#124=LINE('',#998,#183);
#125=LINE('',#1002,#184);
#126=LINE('',#1007,#185);
#127=LINE('',#1014,#186);
#128=LINE('',#1018,#187);
#129=LINE('',#1022,#188);
#130=LINE('',#1026,#189);
#131=LINE('',#1030,#190);
#132=LINE('',#1034,#191);
#133=LINE('',#1038,#192);
#134=LINE('',#1042,#193);
#135=LINE('',#1046,#194);
#136=LINE('',#1050,#195);
#137=LINE('',#1054,#196);
#138=LINE('',#1058,#197);
#139=LINE('',#1062,#198);
#140=LINE('',#1066,#199);
#141=LINE('',#1071,#200);
#142=LINE('',#1074,#201);
#143=LINE('',#1075,#202);
#144=LINE('',#1077,#203);
#145=LINE('',#1079,#204);
#146=LINE('',#1081,#205);
#147=LINE('',#1083,#206);
#148=LINE('',#1085,#207);
#149=LINE('',#1087,#208);
#150=LINE('',#1089,#209);
#151=LINE('',#1091,#210);
#152=LINE('',#1093,#211);
#153=LINE('',#1095,#212);
#154=LINE('',#1097,#213);
#155=LINE('',#1099,#214);
#156=LINE('',#1101,#215);
#157=LINE('',#1103,#216);
#158=LINE('',#1105,#217);
#159=LINE('',#1107,#218);
#160=LINE('',#1109,#219);
#161=LINE('',#1111,#220);
#162=LINE('',#1113,#221);
#163=LINE('',#1115,#222);
#164=LINE('',#1117,#223);
#165=LINE('',#1119,#224);
#166=LINE('',#1121,#225);
#167=LINE('',#1123,#226);
#168=LINE('',#1125,#227);
#169=LINE('',#1127,#228);
#170=VECTOR('',#745,11.1);
#171=VECTOR('',#752,9.99999999999999);
#172=VECTOR('',#755,10.);
#173=VECTOR('',#758,10.);
#174=VECTOR('',#761,10.);
#175=VECTOR('',#764,10.);
#176=VECTOR('',#767,10.);
#177=VECTOR('',#770,10.);
#178=VECTOR('',#773,10.);
#179=VECTOR('',#776,10.);
#180=VECTOR('',#779,10.);
#181=VECTOR('',#782,10.);
#182=VECTOR('',#785,10.);
#183=VECTOR('',#788,10.);
#184=VECTOR('',#791,10.);
#185=VECTOR('',#798,27.5);
#186=VECTOR('',#805,9.99999999999999);
#187=VECTOR('',#808,10.);
#188=VECTOR('',#811,10.);
#189=VECTOR('',#814,10.);
#190=VECTOR('',#817,10.);
#191=VECTOR('',#820,10.);
#192=VECTOR('',#823,10.);
#193=VECTOR('',#826,10.);
#194=VECTOR('',#829,10.);
#195=VECTOR('',#832,10.);
#196=VECTOR('',#835,10.);
#197=VECTOR('',#838,10.);
#198=VECTOR('',#841,10.);
#199=VECTOR('',#844,10.);
#200=VECTOR('',#851,27.5);
#201=VECTOR('',#856,10.);
#202=VECTOR('',#857,10.);
#203=VECTOR('',#860,10.);
#204=VECTOR('',#863,10.);
#205=VECTOR('',#866,10.);
#206=VECTOR('',#869,10.);
#207=VECTOR('',#872,10.);
#208=VECTOR('',#875,10.);
#209=VECTOR('',#878,10.);
#210=VECTOR('',#881,10.);
#211=VECTOR('',#884,10.);
#212=VECTOR('',#887,10.);
#213=VECTOR('',#890,10.);
#214=VECTOR('',#893,10.);
#215=VECTOR('',#896,10.);
#216=VECTOR('',#899,10.);
#217=VECTOR('',#902,10.);
#218=VECTOR('',#905,10.);
#219=VECTOR('',#908,10.);
#220=VECTOR('',#911,10.);
#221=VECTOR('',#914,10.);
#222=VECTOR('',#917,10.);
#223=VECTOR('',#920,10.);
#224=VECTOR('',#923,10.);
#225=VECTOR('',#926,10.);
#226=VECTOR('',#929,10.);
#227=VECTOR('',#932,10.);
#228=VECTOR('',#935,10.);
#229=CIRCLE('',#671,11.1);
#230=CIRCLE('',#672,11.1);
#231=CIRCLE('',#674,27.5);
#232=CIRCLE('',#675,22.5);
#233=CIRCLE('',#676,17.5);
#234=CIRCLE('',#677,22.5);
#235=CIRCLE('',#678,17.5);
#236=CIRCLE('',#679,22.5);
#237=CIRCLE('',#680,17.5);
#238=CIRCLE('',#681,22.5);
#239=CIRCLE('',#682,17.5);
#240=CIRCLE('',#683,22.5);
#241=CIRCLE('',#684,17.5);
#242=CIRCLE('',#685,22.5);
#243=CIRCLE('',#686,17.5);
#244=CIRCLE('',#687,22.5);
#245=CIRCLE('',#688,17.5);
#246=CIRCLE('',#690,27.5);
#247=CIRCLE('',#693,27.5);
#248=CIRCLE('',#694,17.5);
#249=CIRCLE('',#695,22.5);
#250=CIRCLE('',#696,17.5);
#251=CIRCLE('',#697,22.5);
#252=CIRCLE('',#698,17.5);
#253=CIRCLE('',#699,22.5);
#254=CIRCLE('',#700,17.5);
#255=CIRCLE('',#701,22.5);
#256=CIRCLE('',#702,17.5);
#257=CIRCLE('',#703,22.5);
#258=CIRCLE('',#704,17.5);
#259=CIRCLE('',#705,22.5);
#260=CIRCLE('',#706,17.5);
#261=CIRCLE('',#707,22.5);
#262=CIRCLE('',#709,27.5);
#263=VERTEX_POINT('',#940);
#264=VERTEX_POINT('',#942);
#265=VERTEX_POINT('',#946);
#266=VERTEX_POINT('',#948);
#267=VERTEX_POINT('',#949);
#268=VERTEX_POINT('',#951);
#269=VERTEX_POINT('',#953);
#270=VERTEX_POINT('',#955);
#271=VERTEX_POINT('',#957);
#272=VERTEX_POINT('',#959);
#273=VERTEX_POINT('',#961);
#274=VERTEX_POINT('',#963);
#275=VERTEX_POINT('',#965);
#276=VERTEX_POINT('',#967);
#277=VERTEX_POINT('',#969);
#278=VERTEX_POINT('',#971);
#279=VERTEX_POINT('',#973);
#280=VERTEX_POINT('',#975);
#281=VERTEX_POINT('',#977);
#282=VERTEX_POINT('',#979);
#283=VERTEX_POINT('',#981);
#284=VERTEX_POINT('',#983);
#285=VERTEX_POINT('',#985);
#286=VERTEX_POINT('',#987);
#287=VERTEX_POINT('',#989);
#288=VERTEX_POINT('',#991);
#289=VERTEX_POINT('',#993);
#290=VERTEX_POINT('',#995);
#291=VERTEX_POINT('',#997);
#292=VERTEX_POINT('',#999);
#293=VERTEX_POINT('',#1001);
#294=VERTEX_POINT('',#1005);
#295=VERTEX_POINT('',#1010);
#296=VERTEX_POINT('',#1012);
#297=VERTEX_POINT('',#1013);
#298=VERTEX_POINT('',#1015);
#299=VERTEX_POINT('',#1017);
#300=VERTEX_POINT('',#1019);
#301=VERTEX_POINT('',#1021);
#302=VERTEX_POINT('',#1023);
#303=VERTEX_POINT('',#1025);
#304=VERTEX_POINT('',#1027);
#305=VERTEX_POINT('',#1029);
#306=VERTEX_POINT('',#1031);
#307=VERTEX_POINT('',#1033);
#308=VERTEX_POINT('',#1035);
#309=VERTEX_POINT('',#1037);
#310=VERTEX_POINT('',#1039);
#311=VERTEX_POINT('',#1041);
#312=VERTEX_POINT('',#1043);
#313=VERTEX_POINT('',#1045);
#314=VERTEX_POINT('',#1047);
#315=VERTEX_POINT('',#1049);
#316=VERTEX_POINT('',#1051);
#317=VERTEX_POINT('',#1053);
#318=VERTEX_POINT('',#1055);
#319=VERTEX_POINT('',#1057);
#320=VERTEX_POINT('',#1059);
#321=VERTEX_POINT('',#1061);
#322=VERTEX_POINT('',#1063);
#323=VERTEX_POINT('',#1065);
#324=VERTEX_POINT('',#1069);
#325=EDGE_CURVE('',#263,#263,#229,.T.);
#326=EDGE_CURVE('',#263,#264,#111,.T.);
#327=EDGE_CURVE('',#264,#264,#230,.T.);
#328=EDGE_CURVE('',#265,#265,#231,.T.);
#329=EDGE_CURVE('',#266,#267,#112,.T.);
#330=EDGE_CURVE('',#268,#267,#232,.T.);
#331=EDGE_CURVE('',#269,#268,#113,.T.);
#332=EDGE_CURVE('',#270,#269,#233,.T.);
#333=EDGE_CURVE('',#270,#271,#114,.T.);
#334=EDGE_CURVE('',#272,#271,#234,.T.);
#335=EDGE_CURVE('',#273,#272,#115,.T.);
#336=EDGE_CURVE('',#274,#273,#235,.T.);
#337=EDGE_CURVE('',#274,#275,#116,.T.);
#338=EDGE_CURVE('',#276,#275,#236,.T.);
#339=EDGE_CURVE('',#277,#276,#117,.T.);
#340=EDGE_CURVE('',#278,#277,#237,.T.);
#341=EDGE_CURVE('',#278,#279,#118,.T.);
#342=EDGE_CURVE('',#280,#279,#238,.T.);
#343=EDGE_CURVE('',#281,#280,#119,.T.);
#344=EDGE_CURVE('',#282,#281,#239,.T.);
#345=EDGE_CURVE('',#282,#283,#120,.T.);
#346=EDGE_CURVE('',#284,#283,#240,.T.);
#347=EDGE_CURVE('',#285,#284,#121,.T.);
#348=EDGE_CURVE('',#286,#285,#241,.T.);
#349=EDGE_CURVE('',#286,#287,#122,.T.);
#350=EDGE_CURVE('',#288,#287,#242,.T.);
#351=EDGE_CURVE('',#289,#288,#123,.T.);
#352=EDGE_CURVE('',#290,#289,#243,.T.);
#353=EDGE_CURVE('',#290,#291,#124,.T.);
#354=EDGE_CURVE('',#292,#291,#244,.T.);
#355=EDGE_CURVE('',#293,#292,#125,.T.);
#356=EDGE_CURVE('',#266,#293,#245,.T.);
#357=EDGE_CURVE('',#294,#294,#246,.T.);
#358=EDGE_CURVE('',#294,#265,#126,.T.);
#359=EDGE_CURVE('',#295,#295,#247,.T.);
#360=EDGE_CURVE('',#296,#297,#127,.T.);
#361=EDGE_CURVE('',#297,#298,#248,.T.);
#362=EDGE_CURVE('',#298,#299,#128,.T.);
#363=EDGE_CURVE('',#299,#300,#249,.T.);
#364=EDGE_CURVE('',#300,#301,#129,.T.);
#365=EDGE_CURVE('',#301,#302,#250,.T.);
#366=EDGE_CURVE('',#302,#303,#130,.T.);
#367=EDGE_CURVE('',#303,#304,#251,.T.);
#368=EDGE_CURVE('',#304,#305,#131,.T.);
#369=EDGE_CURVE('',#305,#306,#252,.T.);
#370=EDGE_CURVE('',#306,#307,#132,.T.);
#371=EDGE_CURVE('',#307,#308,#253,.T.);
#372=EDGE_CURVE('',#308,#309,#133,.T.);
#373=EDGE_CURVE('',#309,#310,#254,.T.);
#374=EDGE_CURVE('',#310,#311,#134,.T.);
#375=EDGE_CURVE('',#311,#312,#255,.T.);
#376=EDGE_CURVE('',#312,#313,#135,.T.);
#377=EDGE_CURVE('',#313,#314,#256,.T.);
#378=EDGE_CURVE('',#314,#315,#136,.T.);
#379=EDGE_CURVE('',#315,#316,#257,.T.);
#380=EDGE_CURVE('',#316,#317,#137,.T.);
#381=EDGE_CURVE('',#317,#318,#258,.T.);
#382=EDGE_CURVE('',#318,#319,#138,.T.);
#383=EDGE_CURVE('',#319,#320,#259,.T.);
#384=EDGE_CURVE('',#320,#321,#139,.T.);
#385=EDGE_CURVE('',#321,#322,#260,.T.);
#386=EDGE_CURVE('',#322,#323,#140,.T.);
#387=EDGE_CURVE('',#323,#296,#261,.T.);
#388=EDGE_CURVE('',#324,#324,#262,.T.);
#389=EDGE_CURVE('',#324,#295,#141,.T.);
#390=EDGE_CURVE('',#266,#297,#142,.T.);
#391=EDGE_CURVE('',#267,#296,#143,.T.);
#392=EDGE_CURVE('',#268,#323,#144,.T.);
#393=EDGE_CURVE('',#269,#322,#145,.T.);
#394=EDGE_CURVE('',#270,#321,#146,.T.);
#395=EDGE_CURVE('',#271,#320,#147,.T.);
#396=EDGE_CURVE('',#272,#319,#148,.T.);
#397=EDGE_CURVE('',#273,#318,#149,.T.);
#398=EDGE_CURVE('',#274,#317,#150,.T.);
#399=EDGE_CURVE('',#275,#316,#151,.T.);
#400=EDGE_CURVE('',#276,#315,#152,.T.);
#401=EDGE_CURVE('',#277,#314,#153,.T.);
#402=EDGE_CURVE('',#278,#313,#154,.T.);
#403=EDGE_CURVE('',#279,#312,#155,.T.);
#404=EDGE_CURVE('',#280,#311,#156,.T.);
#405=EDGE_CURVE('',#281,#310,#157,.T.);
#406=EDGE_CURVE('',#282,#309,#158,.T.);
#407=EDGE_CURVE('',#283,#308,#159,.T.);
#408=EDGE_CURVE('',#284,#307,#160,.T.);
#409=EDGE_CURVE('',#285,#306,#161,.T.);
#410=EDGE_CURVE('',#286,#305,#162,.T.);
#411=EDGE_CURVE('',#287,#304,#163,.T.);
#412=EDGE_CURVE('',#288,#303,#164,.T.);
#413=EDGE_CURVE('',#289,#302,#165,.T.);
#414=EDGE_CURVE('',#290,#301,#166,.T.);
#415=EDGE_CURVE('',#291,#300,#167,.T.);
#416=EDGE_CURVE('',#292,#299,#168,.T.);
#417=EDGE_CURVE('',#293,#298,#169,.T.);
#418=ORIENTED_EDGE('',*,*,#325,.F.);
#419=ORIENTED_EDGE('',*,*,#326,.T.);
#420=ORIENTED_EDGE('',*,*,#327,.F.);
#421=ORIENTED_EDGE('',*,*,#326,.F.);
#422=ORIENTED_EDGE('',*,*,#328,.T.);
#423=ORIENTED_EDGE('',*,*,#329,.T.);
#424=ORIENTED_EDGE('',*,*,#330,.F.);
#425=ORIENTED_EDGE('',*,*,#331,.F.);
#426=ORIENTED_EDGE('',*,*,#332,.F.);
#427=ORIENTED_EDGE('',*,*,#333,.T.);
#428=ORIENTED_EDGE('',*,*,#334,.F.);
#429=ORIENTED_EDGE('',*,*,#335,.F.);
#430=ORIENTED_EDGE('',*,*,#336,.F.);
#431=ORIENTED_EDGE('',*,*,#337,.T.);
#432=ORIENTED_EDGE('',*,*,#338,.F.);
#433=ORIENTED_EDGE('',*,*,#339,.F.);
#434=ORIENTED_EDGE('',*,*,#340,.F.);
#435=ORIENTED_EDGE('',*,*,#341,.T.);
#436=ORIENTED_EDGE('',*,*,#342,.F.);
#437=ORIENTED_EDGE('',*,*,#343,.F.);
#438=ORIENTED_EDGE('',*,*,#344,.F.);
#439=ORIENTED_EDGE('',*,*,#345,.T.);
#440=ORIENTED_EDGE('',*,*,#346,.F.);
#441=ORIENTED_EDGE('',*,*,#347,.F.);
#442=ORIENTED_EDGE('',*,*,#348,.F.);
#443=ORIENTED_EDGE('',*,*,#349,.T.);
#444=ORIENTED_EDGE('',*,*,#350,.F.);
#445=ORIENTED_EDGE('',*,*,#351,.F.);
#446=ORIENTED_EDGE('',*,*,#352,.F.);
#447=ORIENTED_EDGE('',*,*,#353,.T.);
#448=ORIENTED_EDGE('',*,*,#354,.F.);
#449=ORIENTED_EDGE('',*,*,#355,.F.);
#450=ORIENTED_EDGE('',*,*,#356,.F.);
#451=ORIENTED_EDGE('',*,*,#357,.F.);
#452=ORIENTED_EDGE('',*,*,#358,.T.);
#453=ORIENTED_EDGE('',*,*,#328,.F.);
#454=ORIENTED_EDGE('',*,*,#358,.F.);
#455=ORIENTED_EDGE('',*,*,#357,.T.);
#456=ORIENTED_EDGE('',*,*,#327,.T.);
#457=ORIENTED_EDGE('',*,*,#359,.F.);
#458=ORIENTED_EDGE('',*,*,#360,.T.);
#459=ORIENTED_EDGE('',*,*,#361,.T.);
#460=ORIENTED_EDGE('',*,*,#362,.T.);
#461=ORIENTED_EDGE('',*,*,#363,.T.);
#462=ORIENTED_EDGE('',*,*,#364,.T.);
#463=ORIENTED_EDGE('',*,*,#365,.T.);
#464=ORIENTED_EDGE('',*,*,#366,.T.);
#465=ORIENTED_EDGE('',*,*,#367,.T.);
#466=ORIENTED_EDGE('',*,*,#368,.T.);
#467=ORIENTED_EDGE('',*,*,#369,.T.);
#468=ORIENTED_EDGE('',*,*,#370,.T.);
#469=ORIENTED_EDGE('',*,*,#371,.T.);
#470=ORIENTED_EDGE('',*,*,#372,.T.);
#471=ORIENTED_EDGE('',*,*,#373,.T.);
#472=ORIENTED_EDGE('',*,*,#374,.T.);
#473=ORIENTED_EDGE('',*,*,#375,.T.);
#474=ORIENTED_EDGE('',*,*,#376,.T.);
#475=ORIENTED_EDGE('',*,*,#377,.T.);
#476=ORIENTED_EDGE('',*,*,#378,.T.);
#477=ORIENTED_EDGE('',*,*,#379,.T.);
#478=ORIENTED_EDGE('',*,*,#380,.T.);
#479=ORIENTED_EDGE('',*,*,#381,.T.);
#480=ORIENTED_EDGE('',*,*,#382,.T.);
#481=ORIENTED_EDGE('',*,*,#383,.T.);
#482=ORIENTED_EDGE('',*,*,#384,.T.);
#483=ORIENTED_EDGE('',*,*,#385,.T.);
#484=ORIENTED_EDGE('',*,*,#386,.T.);
#485=ORIENTED_EDGE('',*,*,#387,.T.);
#486=ORIENTED_EDGE('',*,*,#388,.F.);
#487=ORIENTED_EDGE('',*,*,#389,.T.);
#488=ORIENTED_EDGE('',*,*,#359,.T.);
#489=ORIENTED_EDGE('',*,*,#389,.F.);
#490=ORIENTED_EDGE('',*,*,#388,.T.);
#491=ORIENTED_EDGE('',*,*,#325,.T.);
#492=ORIENTED_EDGE('',*,*,#329,.F.);
#493=ORIENTED_EDGE('',*,*,#390,.T.);
#494=ORIENTED_EDGE('',*,*,#360,.F.);
#495=ORIENTED_EDGE('',*,*,#391,.F.);
#496=ORIENTED_EDGE('',*,*,#330,.T.);
#497=ORIENTED_EDGE('',*,*,#391,.T.);
#498=ORIENTED_EDGE('',*,*,#387,.F.);
#499=ORIENTED_EDGE('',*,*,#392,.F.);
#500=ORIENTED_EDGE('',*,*,#331,.T.);
#501=ORIENTED_EDGE('',*,*,#392,.T.);
#502=ORIENTED_EDGE('',*,*,#386,.F.);
#503=ORIENTED_EDGE('',*,*,#393,.F.);
#504=ORIENTED_EDGE('',*,*,#332,.T.);
#505=ORIENTED_EDGE('',*,*,#393,.T.);
#506=ORIENTED_EDGE('',*,*,#385,.F.);
#507=ORIENTED_EDGE('',*,*,#394,.F.);
#508=ORIENTED_EDGE('',*,*,#333,.F.);
#509=ORIENTED_EDGE('',*,*,#394,.T.);
#510=ORIENTED_EDGE('',*,*,#384,.F.);
#511=ORIENTED_EDGE('',*,*,#395,.F.);
#512=ORIENTED_EDGE('',*,*,#334,.T.);
#513=ORIENTED_EDGE('',*,*,#395,.T.);
#514=ORIENTED_EDGE('',*,*,#383,.F.);
#515=ORIENTED_EDGE('',*,*,#396,.F.);
#516=ORIENTED_EDGE('',*,*,#335,.T.);
#517=ORIENTED_EDGE('',*,*,#396,.T.);
#518=ORIENTED_EDGE('',*,*,#382,.F.);
#519=ORIENTED_EDGE('',*,*,#397,.F.);
#520=ORIENTED_EDGE('',*,*,#336,.T.);
#521=ORIENTED_EDGE('',*,*,#397,.T.);
#522=ORIENTED_EDGE('',*,*,#381,.F.);
#523=ORIENTED_EDGE('',*,*,#398,.F.);
#524=ORIENTED_EDGE('',*,*,#337,.F.);
#525=ORIENTED_EDGE('',*,*,#398,.T.);
#526=ORIENTED_EDGE('',*,*,#380,.F.);
#527=ORIENTED_EDGE('',*,*,#399,.F.);
#528=ORIENTED_EDGE('',*,*,#338,.T.);
#529=ORIENTED_EDGE('',*,*,#399,.T.);
#530=ORIENTED_EDGE('',*,*,#379,.F.);
#531=ORIENTED_EDGE('',*,*,#400,.F.);
#532=ORIENTED_EDGE('',*,*,#339,.T.);
#533=ORIENTED_EDGE('',*,*,#400,.T.);
#534=ORIENTED_EDGE('',*,*,#378,.F.);
#535=ORIENTED_EDGE('',*,*,#401,.F.);
#536=ORIENTED_EDGE('',*,*,#340,.T.);
#537=ORIENTED_EDGE('',*,*,#401,.T.);
#538=ORIENTED_EDGE('',*,*,#377,.F.);
#539=ORIENTED_EDGE('',*,*,#402,.F.);
#540=ORIENTED_EDGE('',*,*,#341,.F.);
#541=ORIENTED_EDGE('',*,*,#402,.T.);
#542=ORIENTED_EDGE('',*,*,#376,.F.);
#543=ORIENTED_EDGE('',*,*,#403,.F.);
#544=ORIENTED_EDGE('',*,*,#342,.T.);
#545=ORIENTED_EDGE('',*,*,#403,.T.);
#546=ORIENTED_EDGE('',*,*,#375,.F.);
#547=ORIENTED_EDGE('',*,*,#404,.F.);
#548=ORIENTED_EDGE('',*,*,#343,.T.);
#549=ORIENTED_EDGE('',*,*,#404,.T.);
#550=ORIENTED_EDGE('',*,*,#374,.F.);
#551=ORIENTED_EDGE('',*,*,#405,.F.);
#552=ORIENTED_EDGE('',*,*,#344,.T.);
#553=ORIENTED_EDGE('',*,*,#405,.T.);
#554=ORIENTED_EDGE('',*,*,#373,.F.);
#555=ORIENTED_EDGE('',*,*,#406,.F.);
#556=ORIENTED_EDGE('',*,*,#345,.F.);
#557=ORIENTED_EDGE('',*,*,#406,.T.);
#558=ORIENTED_EDGE('',*,*,#372,.F.);
#559=ORIENTED_EDGE('',*,*,#407,.F.);
#560=ORIENTED_EDGE('',*,*,#346,.T.);
#561=ORIENTED_EDGE('',*,*,#407,.T.);
#562=ORIENTED_EDGE('',*,*,#371,.F.);
#563=ORIENTED_EDGE('',*,*,#408,.F.);
#564=ORIENTED_EDGE('',*,*,#347,.T.);
#565=ORIENTED_EDGE('',*,*,#408,.T.);
#566=ORIENTED_EDGE('',*,*,#370,.F.);
#567=ORIENTED_EDGE('',*,*,#409,.F.);
#568=ORIENTED_EDGE('',*,*,#348,.T.);
#569=ORIENTED_EDGE('',*,*,#409,.T.);
#570=ORIENTED_EDGE('',*,*,#369,.F.);
#571=ORIENTED_EDGE('',*,*,#410,.F.);
#572=ORIENTED_EDGE('',*,*,#349,.F.);
#573=ORIENTED_EDGE('',*,*,#410,.T.);
#574=ORIENTED_EDGE('',*,*,#368,.F.);
#575=ORIENTED_EDGE('',*,*,#411,.F.);
#576=ORIENTED_EDGE('',*,*,#350,.T.);
#577=ORIENTED_EDGE('',*,*,#411,.T.);
#578=ORIENTED_EDGE('',*,*,#367,.F.);
#579=ORIENTED_EDGE('',*,*,#412,.F.);
#580=ORIENTED_EDGE('',*,*,#351,.T.);
#581=ORIENTED_EDGE('',*,*,#412,.T.);
#582=ORIENTED_EDGE('',*,*,#366,.F.);
#583=ORIENTED_EDGE('',*,*,#413,.F.);
#584=ORIENTED_EDGE('',*,*,#352,.T.);
#585=ORIENTED_EDGE('',*,*,#413,.T.);
#586=ORIENTED_EDGE('',*,*,#365,.F.);
#587=ORIENTED_EDGE('',*,*,#414,.F.);
#588=ORIENTED_EDGE('',*,*,#353,.F.);
#589=ORIENTED_EDGE('',*,*,#414,.T.);
#590=ORIENTED_EDGE('',*,*,#364,.F.);
#591=ORIENTED_EDGE('',*,*,#415,.F.);
#592=ORIENTED_EDGE('',*,*,#354,.T.);
#593=ORIENTED_EDGE('',*,*,#415,.T.);
#594=ORIENTED_EDGE('',*,*,#363,.F.);
#595=ORIENTED_EDGE('',*,*,#416,.F.);
#596=ORIENTED_EDGE('',*,*,#355,.T.);
#597=ORIENTED_EDGE('',*,*,#416,.T.);
#598=ORIENTED_EDGE('',*,*,#362,.F.);
#599=ORIENTED_EDGE('',*,*,#417,.F.);
#600=ORIENTED_EDGE('',*,*,#356,.T.);
#601=ORIENTED_EDGE('',*,*,#417,.T.);
#602=ORIENTED_EDGE('',*,*,#361,.F.);
#603=ORIENTED_EDGE('',*,*,#390,.F.);
#604=CYLINDRICAL_SURFACE('',#670,11.1);
#605=CYLINDRICAL_SURFACE('',#689,27.5);
#606=CYLINDRICAL_SURFACE('',#708,27.5);
#607=CYLINDRICAL_SURFACE('',#712,22.5);
#608=CYLINDRICAL_SURFACE('',#714,17.5);
#609=CYLINDRICAL_SURFACE('',#716,22.5);
#610=CYLINDRICAL_SURFACE('',#718,17.5);
#611=CYLINDRICAL_SURFACE('',#720,22.5);
#612=CYLINDRICAL_SURFACE('',#722,17.5);
#613=CYLINDRICAL_SURFACE('',#724,22.5);
#614=CYLINDRICAL_SURFACE('',#726,17.5);
#615=CYLINDRICAL_SURFACE('',#728,22.5);
#616=CYLINDRICAL_SURFACE('',#730,17.5);
#617=CYLINDRICAL_SURFACE('',#732,22.5);
#618=CYLINDRICAL_SURFACE('',#734,17.5);
#619=CYLINDRICAL_SURFACE('',#736,22.5);
#620=CYLINDRICAL_SURFACE('',#738,17.5);
#621=ADVANCED_FACE('',(#37),#604,.F.);
#622=ADVANCED_FACE('',(#38,#15),#19,.T.);
#623=ADVANCED_FACE('',(#39),#605,.T.);
#624=ADVANCED_FACE('',(#40,#16),#20,.F.);
#625=ADVANCED_FACE('',(#41,#17),#21,.F.);
#626=ADVANCED_FACE('',(#42),#606,.T.);
#627=ADVANCED_FACE('',(#43,#18),#22,.T.);
#628=ADVANCED_FACE('',(#44),#23,.T.);
#629=ADVANCED_FACE('',(#45),#607,.T.);
#630=ADVANCED_FACE('',(#46),#24,.T.);
#631=ADVANCED_FACE('',(#47),#608,.T.);
#632=ADVANCED_FACE('',(#48),#25,.T.);
#633=ADVANCED_FACE('',(#49),#609,.T.);
#634=ADVANCED_FACE('',(#50),#26,.T.);
#635=ADVANCED_FACE('',(#51),#610,.T.);
#636=ADVANCED_FACE('',(#52),#27,.T.);
#637=ADVANCED_FACE('',(#53),#611,.T.);
#638=ADVANCED_FACE('',(#54),#28,.T.);
#639=ADVANCED_FACE('',(#55),#612,.T.);
#640=ADVANCED_FACE('',(#56),#29,.T.);
#641=ADVANCED_FACE('',(#57),#613,.T.);
#642=ADVANCED_FACE('',(#58),#30,.T.);
#643=ADVANCED_FACE('',(#59),#614,.T.);
#644=ADVANCED_FACE('',(#60),#31,.T.);
#645=ADVANCED_FACE('',(#61),#615,.T.);
#646=ADVANCED_FACE('',(#62),#32,.T.);
#647=ADVANCED_FACE('',(#63),#616,.T.);
#648=ADVANCED_FACE('',(#64),#33,.T.);
#649=ADVANCED_FACE('',(#65),#617,.T.);
#650=ADVANCED_FACE('',(#66),#34,.T.);
#651=ADVANCED_FACE('',(#67),#618,.T.);
#652=ADVANCED_FACE('',(#68),#35,.T.);
#653=ADVANCED_FACE('',(#69),#619,.T.);
#654=ADVANCED_FACE('',(#70),#36,.T.);
#655=ADVANCED_FACE('',(#71),#620,.T.);
#656=CLOSED_SHELL('',(#621,#622,#623,#624,#625,#626,#627,#628,#629,#630,
#631,#632,#633,#634,#635,#636,#637,#638,#639,#640,#641,#642,#643,#644,#645,
#646,#647,#648,#649,#650,#651,#652,#653,#654,#655));
#657=DERIVED_UNIT_ELEMENT(#659,1.);
#658=DERIVED_UNIT_ELEMENT(#1134,-3.);
#659=(
MASS_UNIT()
NAMED_UNIT(*)
SI_UNIT(.KILO.,.GRAM.)
);
#660=DERIVED_UNIT((#657,#658));
#661=MEASURE_REPRESENTATION_ITEM('density measure',
POSITIVE_RATIO_MEASURE(7850.),#660);
#662=PROPERTY_DEFINITION_REPRESENTATION(#667,#664);
#663=PROPERTY_DEFINITION_REPRESENTATION(#668,#665);
#664=REPRESENTATION('material name',(#666),#1131);
#665=REPRESENTATION('density',(#661),#1131);
#666=DESCRIPTIVE_REPRESENTATION_ITEM('Steel','Steel');
#667=PROPERTY_DEFINITION('material property','material name',#1141);
#668=PROPERTY_DEFINITION('material property','density of part',#1141);
#669=AXIS2_PLACEMENT_3D('',#938,#739,#740);
#670=AXIS2_PLACEMENT_3D('',#939,#741,#742);
#671=AXIS2_PLACEMENT_3D('',#941,#743,#744);
#672=AXIS2_PLACEMENT_3D('',#944,#746,#747);
#673=AXIS2_PLACEMENT_3D('',#945,#748,#749);
#674=AXIS2_PLACEMENT_3D('',#947,#750,#751);
#675=AXIS2_PLACEMENT_3D('',#952,#753,#754);
#676=AXIS2_PLACEMENT_3D('',#956,#756,#757);
#677=AXIS2_PLACEMENT_3D('',#960,#759,#760);
#678=AXIS2_PLACEMENT_3D('',#964,#762,#763);
#679=AXIS2_PLACEMENT_3D('',#968,#765,#766);
#680=AXIS2_PLACEMENT_3D('',#972,#768,#769);
#681=AXIS2_PLACEMENT_3D('',#976,#771,#772);
#682=AXIS2_PLACEMENT_3D('',#980,#774,#775);
#683=AXIS2_PLACEMENT_3D('',#984,#777,#778);
#684=AXIS2_PLACEMENT_3D('',#988,#780,#781);
#685=AXIS2_PLACEMENT_3D('',#992,#783,#784);
#686=AXIS2_PLACEMENT_3D('',#996,#786,#787);
#687=AXIS2_PLACEMENT_3D('',#1000,#789,#790);
#688=AXIS2_PLACEMENT_3D('',#1003,#792,#793);
#689=AXIS2_PLACEMENT_3D('',#1004,#794,#795);
#690=AXIS2_PLACEMENT_3D('',#1006,#796,#797);
#691=AXIS2_PLACEMENT_3D('',#1008,#799,#800);
#692=AXIS2_PLACEMENT_3D('',#1009,#801,#802);
#693=AXIS2_PLACEMENT_3D('',#1011,#803,#804);
#694=AXIS2_PLACEMENT_3D('',#1016,#806,#807);
#695=AXIS2_PLACEMENT_3D('',#1020,#809,#810);
#696=AXIS2_PLACEMENT_3D('',#1024,#812,#813);
#697=AXIS2_PLACEMENT_3D('',#1028,#815,#816);
#698=AXIS2_PLACEMENT_3D('',#1032,#818,#819);
#699=AXIS2_PLACEMENT_3D('',#1036,#821,#822);
#700=AXIS2_PLACEMENT_3D('',#1040,#824,#825);
#701=AXIS2_PLACEMENT_3D('',#1044,#827,#828);
#702=AXIS2_PLACEMENT_3D('',#1048,#830,#831);
#703=AXIS2_PLACEMENT_3D('',#1052,#833,#834);
#704=AXIS2_PLACEMENT_3D('',#1056,#836,#837);
#705=AXIS2_PLACEMENT_3D('',#1060,#839,#840);
#706=AXIS2_PLACEMENT_3D('',#1064,#842,#843);
#707=AXIS2_PLACEMENT_3D('',#1067,#845,#846);
#708=AXIS2_PLACEMENT_3D('',#1068,#847,#848);
#709=AXIS2_PLACEMENT_3D('',#1070,#849,#850);
#710=AXIS2_PLACEMENT_3D('',#1072,#852,#853);
#711=AXIS2_PLACEMENT_3D('',#1073,#854,#855);
#712=AXIS2_PLACEMENT_3D('',#1076,#858,#859);
#713=AXIS2_PLACEMENT_3D('',#1078,#861,#862);
#714=AXIS2_PLACEMENT_3D('',#1080,#864,#865);
#715=AXIS2_PLACEMENT_3D('',#1082,#867,#868);
#716=AXIS2_PLACEMENT_3D('',#1084,#870,#871);
#717=AXIS2_PLACEMENT_3D('',#1086,#873,#874);
#718=AXIS2_PLACEMENT_3D('',#1088,#876,#877);
#719=AXIS2_PLACEMENT_3D('',#1090,#879,#880);
#720=AXIS2_PLACEMENT_3D('',#1092,#882,#883);
#721=AXIS2_PLACEMENT_3D('',#1094,#885,#886);
#722=AXIS2_PLACEMENT_3D('',#1096,#888,#889);
#723=AXIS2_PLACEMENT_3D('',#1098,#891,#892);
#724=AXIS2_PLACEMENT_3D('',#1100,#894,#895);
#725=AXIS2_PLACEMENT_3D('',#1102,#897,#898);
#726=AXIS2_PLACEMENT_3D('',#1104,#900,#901);
#727=AXIS2_PLACEMENT_3D('',#1106,#903,#904);
#728=AXIS2_PLACEMENT_3D('',#1108,#906,#907);
#729=AXIS2_PLACEMENT_3D('',#1110,#909,#910);
#730=AXIS2_PLACEMENT_3D('',#1112,#912,#913);
#731=AXIS2_PLACEMENT_3D('',#1114,#915,#916);
#732=AXIS2_PLACEMENT_3D('',#1116,#918,#919);
#733=AXIS2_PLACEMENT_3D('',#1118,#921,#922);
#734=AXIS2_PLACEMENT_3D('',#1120,#924,#925);
#735=AXIS2_PLACEMENT_3D('',#1122,#927,#928);
#736=AXIS2_PLACEMENT_3D('',#1124,#930,#931);
#737=AXIS2_PLACEMENT_3D('',#1126,#933,#934);
#738=AXIS2_PLACEMENT_3D('',#1128,#936,#937);
#739=DIRECTION('axis',(0.,0.,1.));
#740=DIRECTION('refdir',(1.,0.,0.));
#741=DIRECTION('center_axis',(0.,-1.,0.));
#742=DIRECTION('ref_axis',(-1.,0.,0.));
#743=DIRECTION('center_axis',(0.,-1.,0.));
#744=DIRECTION('ref_axis',(-1.,0.,0.));
#745=DIRECTION('',(0.,-1.,0.));
#746=DIRECTION('center_axis',(0.,1.,0.));
#747=DIRECTION('ref_axis',(-1.,0.,0.));
#748=DIRECTION('center_axis',(0.,1.,0.));
#749=DIRECTION('ref_axis',(-1.,0.,0.));
#750=DIRECTION('center_axis',(0.,1.,0.));
#751=DIRECTION('ref_axis',(-1.,0.,0.));
#752=DIRECTION('',(-0.525047315608277,0.,-0.851073038212668));
#753=DIRECTION('center_axis',(0.,1.,0.));
#754=DIRECTION('ref_axis',(-1.,0.,0.));
#755=DIRECTION('',(-0.336625737649757,0.,-0.941638525524395));
#756=DIRECTION('center_axis',(0.,1.,0.));
#757=DIRECTION('ref_axis',(0.338034048379315,0.,-0.941133881090406));
#758=DIRECTION('',(0.338034048379316,0.,-0.941133881090406));
#759=DIRECTION('center_axis',(0.,1.,0.));
#760=DIRECTION('ref_axis',(-1.,0.,0.));
#761=DIRECTION('',(0.52631992989195,0.,-0.850286617205359));
#762=DIRECTION('center_axis',(0.,1.,0.));
#763=DIRECTION('ref_axis',(0.946568879299328,0.,-0.322501715874528));
#764=DIRECTION('',(0.946568879299328,0.,-0.322501715874528));
#765=DIRECTION('center_axis',(0.,1.,0.));
#766=DIRECTION('ref_axis',(-1.,0.,0.));
#767=DIRECTION('',(0.992935955255026,0.,-0.118651543444611));
#768=DIRECTION('center_axis',(0.,1.,0.));
#769=DIRECTION('ref_axis',(0.842318037620647,0.,0.538980819230983));
#770=DIRECTION('',(0.842318037620647,0.,0.538980819230983));
#771=DIRECTION('center_axis',(0.,1.,0.));
#772=DIRECTION('ref_axis',(-1.,0.,0.));
#773=DIRECTION('',(0.711850954108789,0.,0.702330562580333));
#774=DIRECTION('center_axis',(0.,1.,0.));
#775=DIRECTION('ref_axis',(0.103784533456941,0.,0.994599804250496));
#776=DIRECTION('',(0.103784533456941,0.,0.994599804250496));
#777=DIRECTION('center_axis',(0.,1.,0.));
#778=DIRECTION('ref_axis',(-1.,0.,0.));
#779=DIRECTION('',(-0.105272334594549,0.,0.9944434300497));
#780=DIRECTION('center_axis',(0.,1.,0.));
#781=DIRECTION('ref_axis',(-0.712900841218508,0.,0.70126485053077));
#782=DIRECTION('',(-0.712900841218507,0.,0.701264850530771));
#783=DIRECTION('center_axis',(0.,1.,0.));
#784=DIRECTION('ref_axis',(-1.,0.,0.));
#785=DIRECTION('',(-0.843123408183911,0.,0.537720111742481));
#786=DIRECTION('center_axis',(0.,1.,0.));
#787=DIRECTION('ref_axis',(-0.992757341929446,0.,-0.120136838834647));
#788=DIRECTION('',(-0.992757341929446,0.,-0.120136838834647));
#789=DIRECTION('center_axis',(0.,1.,0.));
#790=DIRECTION('ref_axis',(-1.,0.,0.));
#791=DIRECTION('',(-0.946085358827546,0.,-0.323917418198149));
#792=DIRECTION('center_axis',(0.,1.,0.));
#793=DIRECTION('ref_axis',(-0.525047315608278,0.,-0.851073038212668));
#794=DIRECTION('center_axis',(0.,-1.,0.));
#795=DIRECTION('ref_axis',(-1.,0.,0.));
#796=DIRECTION('center_axis',(0.,-1.,0.));
#797=DIRECTION('ref_axis',(-1.,0.,0.));
#798=DIRECTION('',(0.,1.,0.));
#799=DIRECTION('center_axis',(0.,1.,0.));
#800=DIRECTION('ref_axis',(-1.,0.,0.));
#801=DIRECTION('center_axis',(0.,1.,0.));
#802=DIRECTION('ref_axis',(-1.,0.,0.));
#803=DIRECTION('center_axis',(0.,1.,0.));
#804=DIRECTION('ref_axis',(-1.,0.,0.));
#805=DIRECTION('',(0.525047315608277,0.,0.851073038212668));
#806=DIRECTION('center_axis',(0.,1.,0.));
#807=DIRECTION('ref_axis',(-0.525047315608278,0.,-0.851073038212668));
#808=DIRECTION('',(-0.946085358827546,0.,-0.323917418198149));
#809=DIRECTION('center_axis',(0.,1.,0.));
#810=DIRECTION('ref_axis',(-1.,0.,0.));
#811=DIRECTION('',(0.992757341929446,0.,0.120136838834647));
#812=DIRECTION('center_axis',(0.,1.,0.));
#813=DIRECTION('ref_axis',(-0.992757341929446,0.,-0.120136838834647));
#814=DIRECTION('',(-0.843123408183911,0.,0.537720111742481));
#815=DIRECTION('center_axis',(0.,1.,0.));
#816=DIRECTION('ref_axis',(-1.,0.,0.));
#817=DIRECTION('',(0.712900841218507,0.,-0.701264850530771));
#818=DIRECTION('center_axis',(0.,1.,0.));
#819=DIRECTION('ref_axis',(-0.712900841218508,0.,0.70126485053077));
#820=DIRECTION('',(-0.105272334594549,0.,0.9944434300497));
#821=DIRECTION('center_axis',(0.,1.,0.));
#822=DIRECTION('ref_axis',(-1.,0.,0.));
#823=DIRECTION('',(-0.103784533456941,0.,-0.994599804250496));
#824=DIRECTION('center_axis',(0.,1.,0.));
#825=DIRECTION('ref_axis',(0.103784533456941,0.,0.994599804250496));
#826=DIRECTION('',(0.711850954108789,0.,0.702330562580333));
#827=DIRECTION('center_axis',(0.,1.,0.));
#828=DIRECTION('ref_axis',(-1.,0.,0.));
#829=DIRECTION('',(-0.842318037620647,0.,-0.538980819230983));
#830=DIRECTION('center_axis',(0.,1.,0.));
#831=DIRECTION('ref_axis',(0.842318037620647,0.,0.538980819230983));
#832=DIRECTION('',(0.992935955255026,0.,-0.118651543444611));
#833=DIRECTION('center_axis',(0.,1.,0.));
#834=DIRECTION('ref_axis',(-1.,0.,0.));
#835=DIRECTION('',(-0.946568879299328,0.,0.322501715874528));
#836=DIRECTION('center_axis',(0.,1.,0.));
#837=DIRECTION('ref_axis',(0.946568879299328,0.,-0.322501715874528));
#838=DIRECTION('',(0.52631992989195,0.,-0.850286617205359));
#839=DIRECTION('center_axis',(0.,1.,0.));
#840=DIRECTION('ref_axis',(-1.,0.,0.));
#841=DIRECTION('',(-0.338034048379316,0.,0.941133881090406));
#842=DIRECTION('center_axis',(0.,1.,0.));
#843=DIRECTION('ref_axis',(0.338034048379315,0.,-0.941133881090406));
#844=DIRECTION('',(-0.336625737649757,0.,-0.941638525524395));
#845=DIRECTION('center_axis',(0.,1.,0.));
#846=DIRECTION('ref_axis',(-1.,0.,0.));
#847=DIRECTION('center_axis',(0.,1.,0.));
#848=DIRECTION('ref_axis',(-1.,0.,0.));
#849=DIRECTION('center_axis',(0.,1.,0.));
#850=DIRECTION('ref_axis',(-1.,0.,0.));
#851=DIRECTION('',(0.,-1.,0.));
#852=DIRECTION('center_axis',(0.,1.,0.));
#853=DIRECTION('ref_axis',(-1.,0.,0.));
#854=DIRECTION('center_axis',(-0.851073038212669,0.,0.525047315608277));
#855=DIRECTION('ref_axis',(0.525047315608277,0.,0.851073038212669));
#856=DIRECTION('',(0.,1.,0.));
#857=DIRECTION('',(0.,1.,0.));
#858=DIRECTION('center_axis',(0.,1.,0.));
#859=DIRECTION('ref_axis',(-1.,0.,0.));
#860=DIRECTION('',(0.,1.,0.));
#861=DIRECTION('center_axis',(0.941638525524395,0.,-0.336625737649757));
#862=DIRECTION('ref_axis',(-0.336625737649757,0.,-0.941638525524395));
#863=DIRECTION('',(0.,1.,0.));
#864=DIRECTION('center_axis',(0.,1.,0.));
#865=DIRECTION('ref_axis',(0.338034048379315,0.,-0.941133881090406));
#866=DIRECTION('',(0.,1.,0.));
#867=DIRECTION('center_axis',(-0.941133881090406,0.,-0.338034048379316));
#868=DIRECTION('ref_axis',(-0.338034048379316,0.,0.941133881090406));
#869=DIRECTION('',(0.,1.,0.));
#870=DIRECTION('center_axis',(0.,1.,0.));
#871=DIRECTION('ref_axis',(-1.,0.,0.));
#872=DIRECTION('',(0.,1.,0.));
#873=DIRECTION('center_axis',(0.850286617205359,0.,0.52631992989195));
#874=DIRECTION('ref_axis',(0.52631992989195,0.,-0.850286617205359));
#875=DIRECTION('',(0.,1.,0.));
#876=DIRECTION('center_axis',(0.,1.,0.));
#877=DIRECTION('ref_axis',(0.946568879299328,0.,-0.322501715874528));
#878=DIRECTION('',(0.,1.,0.));
#879=DIRECTION('center_axis',(-0.322501715874528,0.,-0.946568879299328));
#880=DIRECTION('ref_axis',(-0.946568879299328,0.,0.322501715874528));
#881=DIRECTION('',(0.,1.,0.));
#882=DIRECTION('center_axis',(0.,1.,0.));
#883=DIRECTION('ref_axis',(-1.,0.,0.));
#884=DIRECTION('',(0.,1.,0.));
#885=DIRECTION('center_axis',(0.118651543444611,0.,0.992935955255026));
#886=DIRECTION('ref_axis',(0.992935955255026,0.,-0.118651543444611));
#887=DIRECTION('',(0.,1.,0.));
#888=DIRECTION('center_axis',(0.,1.,0.));
#889=DIRECTION('ref_axis',(0.842318037620647,0.,0.538980819230983));
#890=DIRECTION('',(0.,1.,0.));
#891=DIRECTION('center_axis',(0.538980819230983,0.,-0.842318037620647));
#892=DIRECTION('ref_axis',(-0.842318037620647,0.,-0.538980819230983));
#893=DIRECTION('',(0.,1.,0.));
#894=DIRECTION('center_axis',(0.,1.,0.));
#895=DIRECTION('ref_axis',(-1.,0.,0.));
#896=DIRECTION('',(0.,1.,0.));
#897=DIRECTION('center_axis',(-0.702330562580333,0.,0.711850954108789));
#898=DIRECTION('ref_axis',(0.711850954108789,0.,0.702330562580333));
#899=DIRECTION('',(0.,1.,0.));
#900=DIRECTION('center_axis',(0.,1.,0.));
#901=DIRECTION('ref_axis',(0.103784533456941,0.,0.994599804250496));
#902=DIRECTION('',(0.,1.,0.));
#903=DIRECTION('center_axis',(0.994599804250496,0.,-0.103784533456941));
#904=DIRECTION('ref_axis',(-0.103784533456941,0.,-0.994599804250496));
#905=DIRECTION('',(0.,1.,0.));
#906=DIRECTION('center_axis',(0.,1.,0.));
#907=DIRECTION('ref_axis',(-1.,0.,0.));
#908=DIRECTION('',(0.,1.,0.));
#909=DIRECTION('center_axis',(-0.9944434300497,0.,-0.105272334594549));
#910=DIRECTION('ref_axis',(-0.105272334594549,0.,0.9944434300497));
#911=DIRECTION('',(0.,1.,0.));
#912=DIRECTION('center_axis',(0.,1.,0.));
#913=DIRECTION('ref_axis',(-0.712900841218508,0.,0.70126485053077));
#914=DIRECTION('',(0.,1.,0.));
#915=DIRECTION('center_axis',(0.701264850530771,0.,0.712900841218507));
#916=DIRECTION('ref_axis',(0.712900841218507,0.,-0.701264850530771));
#917=DIRECTION('',(0.,1.,0.));
#918=DIRECTION('center_axis',(0.,1.,0.));
#919=DIRECTION('ref_axis',(-1.,0.,0.));
#920=DIRECTION('',(0.,1.,0.));
#921=DIRECTION('center_axis',(-0.537720111742481,0.,-0.843123408183911));
#922=DIRECTION('ref_axis',(-0.843123408183911,0.,0.537720111742481));
#923=DIRECTION('',(0.,1.,0.));
#924=DIRECTION('center_axis',(0.,1.,0.));
#925=DIRECTION('ref_axis',(-0.992757341929446,0.,-0.120136838834647));
#926=DIRECTION('',(0.,1.,0.));
#927=DIRECTION('center_axis',(-0.120136838834647,0.,0.992757341929446));
#928=DIRECTION('ref_axis',(0.992757341929446,0.,0.120136838834647));
#929=DIRECTION('',(0.,1.,0.));
#930=DIRECTION('center_axis',(0.,1.,0.));
#931=DIRECTION('ref_axis',(-1.,0.,0.));
#932=DIRECTION('',(0.,1.,0.));
#933=DIRECTION('center_axis',(0.323917418198149,0.,-0.946085358827545));
#934=DIRECTION('ref_axis',(-0.946085358827545,0.,-0.323917418198149));
#935=DIRECTION('',(0.,1.,0.));
#936=DIRECTION('center_axis',(0.,1.,0.));
#937=DIRECTION('ref_axis',(-0.525047315608278,0.,-0.851073038212668));
#938=CARTESIAN_POINT('',(0.,0.,0.));
#939=CARTESIAN_POINT('Origin',(60.,94.5,0.));
#940=CARTESIAN_POINT('',(71.1,94.5,-1.35935794705356E-15));
#941=CARTESIAN_POINT('Origin',(60.,94.5,0.));
#942=CARTESIAN_POINT('',(71.1,53.5,-1.35935794705356E-15));
#943=CARTESIAN_POINT('',(71.1,94.5,1.35935794705356E-15));
#944=CARTESIAN_POINT('Origin',(60.,53.5,0.));
#945=CARTESIAN_POINT('Origin',(60.0000008940697,55.5,0.));
#946=CARTESIAN_POINT('',(87.5000008940697,55.5,-3.36777869765522E-15));
#947=CARTESIAN_POINT('Origin',(60.0000008940697,55.5,0.));
#948=CARTESIAN_POINT('',(50.8116719768551,55.5,-14.8937781687217));
#949=CARTESIAN_POINT('',(48.1864353988137,55.5,-19.149143359785));
#950=CARTESIAN_POINT('',(50.8116719768551,55.5,-14.8937781687217));
#951=CARTESIAN_POINT('',(52.4259209028804,55.5,-21.1868668242989));
#952=CARTESIAN_POINT('Origin',(60.,55.5,0.));
#953=CARTESIAN_POINT('',(54.1090495911292,55.5,-16.4786741966769));
#954=CARTESIAN_POINT('',(54.1090495911292,55.5,-16.4786741966769));
#955=CARTESIAN_POINT('',(65.915595846638,55.5,-16.4698429190821));
#956=CARTESIAN_POINT('Origin',(60.,55.5,0.));
#957=CARTESIAN_POINT('',(67.6057660885346,55.5,-21.1755123245342));
#958=CARTESIAN_POINT('',(65.915595846638,55.5,-16.4698429190821));
#959=CARTESIAN_POINT('',(71.8421984225689,55.5,-19.1314488871206));
#960=CARTESIAN_POINT('Origin',(60.,55.5,0.));
#961=CARTESIAN_POINT('',(69.2105987731091,55.5,-14.8800158010938));
#962=CARTESIAN_POINT('',(69.2105987731091,55.5,-14.8800158010938));
#963=CARTESIAN_POINT('',(76.5649553877382,55.5,-5.64378002780425));
#964=CARTESIAN_POINT('Origin',(60.,55.5,0.));
#965=CARTESIAN_POINT('',(81.2977997842349,55.5,-7.2562886071769));
#966=CARTESIAN_POINT('',(76.5649553877382,55.5,-5.64378002780425));
#967=CARTESIAN_POINT('',(82.3410589932381,55.5,-2.66965972750374));
#968=CARTESIAN_POINT('Origin',(60.,55.5,0.));
#969=CARTESIAN_POINT('',(77.376379216963,55.5,-2.07640201028069));
#970=CARTESIAN_POINT('',(77.376379216963,55.5,-2.07640201028069));
#971=CARTESIAN_POINT('',(74.7405656583613,55.5,9.43216433654221));
#972=CARTESIAN_POINT('Origin',(60.,55.5,0.));
#973=CARTESIAN_POINT('',(78.9521558464646,55.5,12.1270684326971));
#974=CARTESIAN_POINT('',(74.7405656583613,55.5,9.43216433654221));
#975=CARTESIAN_POINT('',(76.0166464674478,55.5,15.8024376580575));
#976=CARTESIAN_POINT('Origin',(60.,55.5,0.));
#977=CARTESIAN_POINT('',(72.4573916969038,55.5,12.2907848451558));
#978=CARTESIAN_POINT('',(72.4573916969038,55.5,12.2907848451558));
#979=CARTESIAN_POINT('',(61.8162293354965,55.5,17.4054965743837));
#980=CARTESIAN_POINT('Origin',(60.,55.5,0.));
#981=CARTESIAN_POINT('',(62.3351520027812,55.5,22.3784955956362));
#982=CARTESIAN_POINT('',(61.8162293354965,55.5,17.4054965743837));
#983=CARTESIAN_POINT('',(57.6313724716227,55.5,22.3749771761183));
#984=CARTESIAN_POINT('Origin',(60.,55.5,0.));
#985=CARTESIAN_POINT('',(58.1577341445954,55.5,17.4027600258698));
#986=CARTESIAN_POINT('',(58.1577341445954,55.5,17.4027600258698));
#987=CARTESIAN_POINT('',(47.5242352786761,55.5,12.2721348842885));
#988=CARTESIAN_POINT('Origin',(60.,55.5,0.));
#989=CARTESIAN_POINT('',(43.9597310725836,55.5,15.7784591369423));
#990=CARTESIAN_POINT('',(47.5242352786761,55.5,12.2721348842885));
#991=CARTESIAN_POINT('',(41.029723315862,55.5,12.0987025142058));
#992=CARTESIAN_POINT('Origin',(60.,55.5,0.));
#993=CARTESIAN_POINT('',(45.2453403567816,55.5,9.41010195549342));
#994=CARTESIAN_POINT('',(45.2453403567816,55.5,9.41010195549342));
#995=CARTESIAN_POINT('',(42.6267465162347,55.5,-2.10239467960632));
#996=CARTESIAN_POINT('Origin',(60.,55.5,0.));
#997=CARTESIAN_POINT('',(37.6629598065875,55.5,-2.70307887377956));
#998=CARTESIAN_POINT('',(42.6267465162347,55.5,-2.10239467960632));
#999=CARTESIAN_POINT('',(38.7130794263802,55.5,-7.28814190945836));
#1000=CARTESIAN_POINT('Origin',(60.,55.5,0.));
#1001=CARTESIAN_POINT('',(43.443506220518,55.5,-5.66855481846762));
#1002=CARTESIAN_POINT('',(43.443506220518,55.5,-5.66855481846761));
#1003=CARTESIAN_POINT('Origin',(60.,55.5,0.));
#1004=CARTESIAN_POINT('Origin',(60.0000008940697,55.5,0.));
#1005=CARTESIAN_POINT('',(87.5000008940697,53.5,-3.36777869765522E-15));
#1006=CARTESIAN_POINT('Origin',(60.0000008940697,53.5,0.));
#1007=CARTESIAN_POINT('',(87.5000008940697,55.5,3.36777869765522E-15));
#1008=CARTESIAN_POINT('Origin',(60.0000008940697,53.5,0.));
#1009=CARTESIAN_POINT('Origin',(60.,92.5,0.));
#1010=CARTESIAN_POINT('',(87.5,92.5,-3.36777869765522E-15));
#1011=CARTESIAN_POINT('Origin',(60.,92.5,0.));
#1012=CARTESIAN_POINT('',(48.1864353988137,92.5,-19.149143359785));
#1013=CARTESIAN_POINT('',(50.8116719768551,92.5,-14.8937781687217));
#1014=CARTESIAN_POINT('',(50.8116719768551,92.5,-14.8937781687217));
#1015=CARTESIAN_POINT('',(43.443506220518,92.5,-5.66855481846762));
#1016=CARTESIAN_POINT('Origin',(60.,92.5,0.));
#1017=CARTESIAN_POINT('',(38.7130794263802,92.5,-7.28814190945836));
#1018=CARTESIAN_POINT('',(43.443506220518,92.5,-5.66855481846761));
#1019=CARTESIAN_POINT('',(37.6629598065875,92.5,-2.70307887377956));
#1020=CARTESIAN_POINT('Origin',(60.,92.5,0.));
#1021=CARTESIAN_POINT('',(42.6267465162347,92.5,-2.10239467960633));
#1022=CARTESIAN_POINT('',(42.6267465162347,92.5,-2.10239467960632));
#1023=CARTESIAN_POINT('',(45.2453403567816,92.5,9.41010195549342));
#1024=CARTESIAN_POINT('Origin',(60.,92.5,0.));
#1025=CARTESIAN_POINT('',(41.029723315862,92.5,12.0987025142058));
#1026=CARTESIAN_POINT('',(45.2453403567816,92.5,9.41010195549342));
#1027=CARTESIAN_POINT('',(43.9597310725836,92.5,15.7784591369423));
#1028=CARTESIAN_POINT('Origin',(60.,92.5,0.));
#1029=CARTESIAN_POINT('',(47.5242352786761,92.5,12.2721348842885));
#1030=CARTESIAN_POINT('',(47.5242352786761,92.5,12.2721348842885));
#1031=CARTESIAN_POINT('',(58.1577341445954,92.5,17.4027600258698));
#1032=CARTESIAN_POINT('Origin',(60.,92.5,0.));
#1033=CARTESIAN_POINT('',(57.6313724716227,92.5,22.3749771761183));
#1034=CARTESIAN_POINT('',(58.1577341445954,92.5,17.4027600258698));
#1035=CARTESIAN_POINT('',(62.3351520027812,92.5,22.3784955956362));
#1036=CARTESIAN_POINT('Origin',(60.,92.5,0.));
#1037=CARTESIAN_POINT('',(61.8162293354965,92.5,17.4054965743837));
#1038=CARTESIAN_POINT('',(61.8162293354965,92.5,17.4054965743837));
#1039=CARTESIAN_POINT('',(72.4573916969038,92.5,12.2907848451558));
#1040=CARTESIAN_POINT('Origin',(60.,92.5,0.));
#1041=CARTESIAN_POINT('',(76.0166464674478,92.5,15.8024376580575));
#1042=CARTESIAN_POINT('',(72.4573916969038,92.5,12.2907848451558));
#1043=CARTESIAN_POINT('',(78.9521558464646,92.5,12.1270684326971));
#1044=CARTESIAN_POINT('Origin',(60.,92.5,0.));
#1045=CARTESIAN_POINT('',(74.7405656583613,92.5,9.43216433654221));
#1046=CARTESIAN_POINT('',(74.7405656583613,92.5,9.43216433654221));
#1047=CARTESIAN_POINT('',(77.376379216963,92.5,-2.07640201028068));
#1048=CARTESIAN_POINT('Origin',(60.,92.5,0.));
#1049=CARTESIAN_POINT('',(82.3410589932381,92.5,-2.66965972750374));
#1050=CARTESIAN_POINT('',(77.376379216963,92.5,-2.07640201028069));
#1051=CARTESIAN_POINT('',(81.2977997842349,92.5,-7.2562886071769));
#1052=CARTESIAN_POINT('Origin',(60.,92.5,0.));
#1053=CARTESIAN_POINT('',(76.5649553877382,92.5,-5.64378002780425));
#1054=CARTESIAN_POINT('',(76.5649553877382,92.5,-5.64378002780425));
#1055=CARTESIAN_POINT('',(69.2105987731091,92.5,-14.8800158010938));
#1056=CARTESIAN_POINT('Origin',(60.,92.5,0.));
#1057=CARTESIAN_POINT('',(71.8421984225689,92.5,-19.1314488871206));
#1058=CARTESIAN_POINT('',(69.2105987731091,92.5,-14.8800158010938));
#1059=CARTESIAN_POINT('',(67.6057660885346,92.5,-21.1755123245342));
#1060=CARTESIAN_POINT('Origin',(60.,92.5,0.));
#1061=CARTESIAN_POINT('',(65.915595846638,92.5,-16.4698429190821));
#1062=CARTESIAN_POINT('',(65.915595846638,92.5,-16.4698429190821));
#1063=CARTESIAN_POINT('',(54.1090495911292,92.5,-16.4786741966769));
#1064=CARTESIAN_POINT('Origin',(60.,92.5,0.));
#1065=CARTESIAN_POINT('',(52.4259209028804,92.5,-21.1868668242989));
#1066=CARTESIAN_POINT('',(54.1090495911292,92.5,-16.4786741966769));
#1067=CARTESIAN_POINT('Origin',(60.,92.5,0.));
#1068=CARTESIAN_POINT('Origin',(60.,92.5,0.));
#1069=CARTESIAN_POINT('',(87.5,94.5,-3.36777869765522E-15));
#1070=CARTESIAN_POINT('Origin',(60.,94.5,0.));
#1071=CARTESIAN_POINT('',(87.5,92.5,-3.36777869765522E-15));
#1072=CARTESIAN_POINT('Origin',(60.,94.5,0.));
#1073=CARTESIAN_POINT('Origin',(48.1864353988137,55.5,-19.149143359785));
#1074=CARTESIAN_POINT('',(50.8116719768551,55.5,-14.8937781687217));
#1075=CARTESIAN_POINT('',(48.1864353988137,55.5,-19.149143359785));
#1076=CARTESIAN_POINT('Origin',(60.,55.5,0.));
#1077=CARTESIAN_POINT('',(52.4259209028804,55.5,-21.1868668242989));
#1078=CARTESIAN_POINT('Origin',(54.1090495911292,55.5,-16.4786741966769));
#1079=CARTESIAN_POINT('',(54.1090495911292,55.5,-16.4786741966769));
#1080=CARTESIAN_POINT('Origin',(60.,55.5,0.));
#1081=CARTESIAN_POINT('',(65.915595846638,55.5,-16.4698429190821));
#1082=CARTESIAN_POINT('Origin',(67.6057660885346,55.5,-21.1755123245342));
#1083=CARTESIAN_POINT('',(67.6057660885346,55.5,-21.1755123245342));
#1084=CARTESIAN_POINT('Origin',(60.,55.5,0.));
#1085=CARTESIAN_POINT('',(71.8421984225689,55.5,-19.1314488871206));
#1086=CARTESIAN_POINT('Origin',(69.2105987731091,55.5,-14.8800158010938));
#1087=CARTESIAN_POINT('',(69.2105987731091,55.5,-14.8800158010938));
#1088=CARTESIAN_POINT('Origin',(60.,55.5,0.));
#1089=CARTESIAN_POINT('',(76.5649553877382,55.5,-5.64378002780425));
#1090=CARTESIAN_POINT('Origin',(81.2977997842349,55.5,-7.2562886071769));
#1091=CARTESIAN_POINT('',(81.2977997842349,55.5,-7.2562886071769));
#1092=CARTESIAN_POINT('Origin',(60.,55.5,0.));
#1093=CARTESIAN_POINT('',(82.3410589932381,55.5,-2.66965972750374));
#1094=CARTESIAN_POINT('Origin',(77.376379216963,55.5,-2.07640201028069));
#1095=CARTESIAN_POINT('',(77.376379216963,55.5,-2.07640201028069));
#1096=CARTESIAN_POINT('Origin',(60.,55.5,0.));
#1097=CARTESIAN_POINT('',(74.7405656583613,55.5,9.43216433654221));
#1098=CARTESIAN_POINT('Origin',(78.9521558464646,55.5,12.1270684326971));
#1099=CARTESIAN_POINT('',(78.9521558464646,55.5,12.1270684326971));
#1100=CARTESIAN_POINT('Origin',(60.,55.5,0.));
#1101=CARTESIAN_POINT('',(76.0166464674478,55.5,15.8024376580575));
#1102=CARTESIAN_POINT('Origin',(72.4573916969038,55.5,12.2907848451558));
#1103=CARTESIAN_POINT('',(72.4573916969038,55.5,12.2907848451558));
#1104=CARTESIAN_POINT('Origin',(60.,55.5,0.));
#1105=CARTESIAN_POINT('',(61.8162293354965,55.5,17.4054965743837));
#1106=CARTESIAN_POINT('Origin',(62.3351520027812,55.5,22.3784955956362));
#1107=CARTESIAN_POINT('',(62.3351520027812,55.5,22.3784955956362));
#1108=CARTESIAN_POINT('Origin',(60.,55.5,0.));
#1109=CARTESIAN_POINT('',(57.6313724716227,55.5,22.3749771761183));
#1110=CARTESIAN_POINT('Origin',(58.1577341445954,55.5,17.4027600258698));
#1111=CARTESIAN_POINT('',(58.1577341445954,55.5,17.4027600258698));
#1112=CARTESIAN_POINT('Origin',(60.,55.5,0.));
#1113=CARTESIAN_POINT('',(47.5242352786761,55.5,12.2721348842885));
#1114=CARTESIAN_POINT('Origin',(43.9597310725836,55.5,15.7784591369423));
#1115=CARTESIAN_POINT('',(43.9597310725836,55.5,15.7784591369423));
#1116=CARTESIAN_POINT('Origin',(60.,55.5,0.));
#1117=CARTESIAN_POINT('',(41.029723315862,55.5,12.0987025142058));
#1118=CARTESIAN_POINT('Origin',(45.2453403567816,55.5,9.41010195549342));
#1119=CARTESIAN_POINT('',(45.2453403567816,55.5,9.41010195549342));
#1120=CARTESIAN_POINT('Origin',(60.,55.5,0.));
#1121=CARTESIAN_POINT('',(42.6267465162347,55.5,-2.10239467960632));
#1122=CARTESIAN_POINT('Origin',(37.6629598065875,55.5,-2.70307887377956));
#1123=CARTESIAN_POINT('',(37.6629598065875,55.5,-2.70307887377956));
#1124=CARTESIAN_POINT('Origin',(60.,55.5,0.));
#1125=CARTESIAN_POINT('',(38.7130794263802,55.5,-7.28814190945836));
#1126=CARTESIAN_POINT('Origin',(43.443506220518,55.5,-5.66855481846761));
#1127=CARTESIAN_POINT('',(43.443506220518,55.5,-5.66855481846762));
#1128=CARTESIAN_POINT('Origin',(60.,55.5,0.));
#1129=UNCERTAINTY_MEASURE_WITH_UNIT(LENGTH_MEASURE(0.01),#1133,
'DISTANCE_ACCURACY_VALUE',
'Maximum model space distance between geometric entities at asserted c
onnectivities');
#1130=UNCERTAINTY_MEASURE_WITH_UNIT(LENGTH_MEASURE(0.01),#1133,
'DISTANCE_ACCURACY_VALUE',
'Maximum model space distance between geometric entities at asserted c
onnectivities');
#1131=(
GEOMETRIC_REPRESENTATION_CONTEXT(3)
GLOBAL_UNCERTAINTY_ASSIGNED_CONTEXT((#1129))
GLOBAL_UNIT_ASSIGNED_CONTEXT((#1133,#1135,#1136))
REPRESENTATION_CONTEXT('','3D')
);
#1132=(
GEOMETRIC_REPRESENTATION_CONTEXT(3)
GLOBAL_UNCERTAINTY_ASSIGNED_CONTEXT((#1130))
GLOBAL_UNIT_ASSIGNED_CONTEXT((#1133,#1135,#1136))
REPRESENTATION_CONTEXT('','3D')
);
#1133=(
LENGTH_UNIT()
NAMED_UNIT(*)
SI_UNIT(.MILLI.,.METRE.)
);
#1134=(
LENGTH_UNIT()
NAMED_UNIT(*)
SI_UNIT($,.METRE.)
);
#1135=(
NAMED_UNIT(*)
PLANE_ANGLE_UNIT()
SI_UNIT($,.RADIAN.)
);
#1136=(
NAMED_UNIT(*)
SI_UNIT($,.STERADIAN.)
SOLID_ANGLE_UNIT()
);
#1137=SHAPE_DEFINITION_REPRESENTATION(#1138,#1139);
#1138=PRODUCT_DEFINITION_SHAPE('',$,#1141);
#1139=SHAPE_REPRESENTATION('',(#669),#1131);
#1140=PRODUCT_DEFINITION_CONTEXT('part definition',#1145,'design');
#1141=PRODUCT_DEFINITION('2026-08-27-15-00-25-169','Roller Sprocket',#1142,
#1140);
#1142=PRODUCT_DEFINITION_FORMATION('',$,#1147);
#1143=PRODUCT_RELATED_PRODUCT_CATEGORY('Roller Sprocket',
'Roller Sprocket',(#1147));
#1144=APPLICATION_PROTOCOL_DEFINITION('international standard',
'automotive_design',2009,#1145);
#1145=APPLICATION_CONTEXT(
'Core Data for Automotive Mechanical Design Process');
#1146=PRODUCT_CONTEXT('part definition',#1145,'mechanical');
#1147=PRODUCT('2026-08-27-15-00-25-169','Roller Sprocket',$,(#1146));
#1148=PRESENTATION_STYLE_ASSIGNMENT((#1150));
#1149=PRESENTATION_STYLE_ASSIGNMENT((#1151));
#1150=SURFACE_STYLE_USAGE(.BOTH.,#1152);
#1151=SURFACE_STYLE_USAGE(.BOTH.,#1153);
#1152=SURFACE_SIDE_STYLE('',(#1154));
#1153=SURFACE_SIDE_STYLE('',(#1155));
#1154=SURFACE_STYLE_FILL_AREA(#1156);
#1155=SURFACE_STYLE_FILL_AREA(#1157);
#1156=FILL_AREA_STYLE('Steel - Satin',(#1158));
#1157=FILL_AREA_STYLE('Opaque(160,160,160)',(#1159));
#1158=FILL_AREA_STYLE_COLOUR('Steel - Satin',#1160);
#1159=FILL_AREA_STYLE_COLOUR('Opaque(160,160,160)',#1161);
#1160=COLOUR_RGB('Steel - Satin',0.627450980392157,0.627450980392157,0.627450980392157);
#1161=COLOUR_RGB('Opaque(160,160,160)',0.627450980392157,0.627450980392157,
0.627450980392157);
ENDSEC;
END-ISO-10303-21;
