ISO-10303-21;
HEADER;
/* Generated by software containing ST-Developer
 * from STEP Tools, Inc. (www.steptools.com) 
 */

FILE_DESCRIPTION(
/* description */ (''),
/* implementation_level */ '2;1');

FILE_NAME(
/* name */ 'Tread LInk.step',
/* time_stamp */ '2026-08-27T11:16:52-05:00',
/* author */ (''),
/* organization */ (''),
/* preprocessor_version */ 'ST-DEVELOPER v20.1',
/* originating_system */ 'Autodesk Translation Framework v15.8.0.0',
/* authorisation */ '');

FILE_SCHEMA (('AUTOMOTIVE_DESIGN { 1 0 10303 214 3 1 1 }'));
ENDSEC;

DATA;
#10=MECHANICAL_DESIGN_GEOMETRIC_PRESENTATION_REPRESENTATION('',(#13),#1250);
#11=SHAPE_REPRESENTATION_RELATIONSHIP('SRR','None',#1257,#12);
#12=ADVANCED_BREP_SHAPE_REPRESENTATION('',(#14),#1249);
#13=STYLED_ITEM('',(#1267),#14);
#14=MANIFOLD_SOLID_BREP('Body2',#738);
#15=FACE_BOUND('',#107,.T.);
#16=FACE_BOUND('',#108,.T.);
#17=FACE_BOUND('',#111,.T.);
#18=ELLIPSE('',#763,2.82842712474619,2.);
#19=ELLIPSE('',#764,3.53553390593274,2.5);
#20=ELLIPSE('',#774,3.53553390593274,2.5);
#21=ELLIPSE('',#778,2.82842712474619,2.);
#22=B_SPLINE_CURVE_WITH_KNOTS('',3,(#1020,#1021,#1022,#1023,#1024,#1025),
 .UNSPECIFIED.,.F.,.F.,(4,2,4),(0.558847282872695,0.608050146709696,0.668851841783976),
 .UNSPECIFIED.);
#23=B_SPLINE_CURVE_WITH_KNOTS('',3,(#1027,#1028,#1029,#1030,#1031,#1032,
#1033,#1034,#1035,#1036,#1037,#1038,#1039,#1040),.UNSPECIFIED.,.F.,.F.,
(4,2,2,2,2,2,4),(-0.324444872514696,-0.31543259100166,-0.261098197405101,
-0.206763803808541,-0.143699146611215,-0.0718495733056076,-0.065287546581725),
 .UNSPECIFIED.);
#24=B_SPLINE_CURVE_WITH_KNOTS('',3,(#1141,#1142,#1143,#1144,#1145,#1146,
#1147,#1148,#1149,#1150,#1151,#1152,#1153,#1154),.UNSPECIFIED.,.F.,.F.,
(4,2,2,2,2,2,4),(-0.324444872514696,-0.31543259100166,-0.261098197405101,
-0.206763803808541,-0.143699146611215,-0.0718495733056076,-0.065287546581725),
 .UNSPECIFIED.);
#25=B_SPLINE_CURVE_WITH_KNOTS('',3,(#1204,#1205,#1206,#1207,#1208,#1209),
 .UNSPECIFIED.,.F.,.F.,(4,2,4),(0.558847282872695,0.608050146709696,0.668851841783976),
 .UNSPECIFIED.);
#26=PLANE('',#755);
#27=PLANE('',#759);
#28=PLANE('',#760);
#29=PLANE('',#762);
#30=PLANE('',#765);
#31=PLANE('',#766);
#32=PLANE('',#767);
#33=PLANE('',#769);
#34=PLANE('',#770);
#35=PLANE('',#772);
#36=PLANE('',#779);
#37=PLANE('',#782);
#38=PLANE('',#785);
#39=PLANE('',#786);
#40=PLANE('',#791);
#41=PLANE('',#793);
#42=PLANE('',#794);
#43=PLANE('',#795);
#44=PLANE('',#796);
#45=PLANE('',#797);
#46=PLANE('',#798);
#47=PLANE('',#799);
#48=PLANE('',#800);
#49=PLANE('',#801);
#50=PLANE('',#802);
#51=PLANE('',#803);
#52=PLANE('',#804);
#53=PLANE('',#805);
#54=FACE_OUTER_BOUND('',#90,.T.);
#55=FACE_OUTER_BOUND('',#91,.T.);
#56=FACE_OUTER_BOUND('',#92,.T.);
#57=FACE_OUTER_BOUND('',#93,.T.);
#58=FACE_OUTER_BOUND('',#94,.T.);
#59=FACE_OUTER_BOUND('',#95,.T.);
#60=FACE_OUTER_BOUND('',#96,.T.);
#61=FACE_OUTER_BOUND('',#97,.T.);
#62=FACE_OUTER_BOUND('',#98,.T.);
#63=FACE_OUTER_BOUND('',#99,.T.);
#64=FACE_OUTER_BOUND('',#100,.T.);
#65=FACE_OUTER_BOUND('',#101,.T.);
#66=FACE_OUTER_BOUND('',#102,.T.);
#67=FACE_OUTER_BOUND('',#103,.T.);
#68=FACE_OUTER_BOUND('',#104,.T.);
#69=FACE_OUTER_BOUND('',#105,.T.);
#70=FACE_OUTER_BOUND('',#106,.T.);
#71=FACE_OUTER_BOUND('',#109,.T.);
#72=FACE_OUTER_BOUND('',#110,.T.);
#73=FACE_OUTER_BOUND('',#112,.T.);
#74=FACE_OUTER_BOUND('',#113,.T.);
#75=FACE_OUTER_BOUND('',#114,.T.);
#76=FACE_OUTER_BOUND('',#115,.T.);
#77=FACE_OUTER_BOUND('',#116,.T.);
#78=FACE_OUTER_BOUND('',#117,.T.);
#79=FACE_OUTER_BOUND('',#118,.T.);
#80=FACE_OUTER_BOUND('',#119,.T.);
#81=FACE_OUTER_BOUND('',#120,.T.);
#82=FACE_OUTER_BOUND('',#121,.T.);
#83=FACE_OUTER_BOUND('',#122,.T.);
#84=FACE_OUTER_BOUND('',#123,.T.);
#85=FACE_OUTER_BOUND('',#124,.T.);
#86=FACE_OUTER_BOUND('',#125,.T.);
#87=FACE_OUTER_BOUND('',#126,.T.);
#88=FACE_OUTER_BOUND('',#127,.T.);
#89=FACE_OUTER_BOUND('',#128,.T.);
#90=EDGE_LOOP('',(#484,#485,#486,#487));
#91=EDGE_LOOP('',(#488,#489,#490,#491));
#92=EDGE_LOOP('',(#492,#493,#494,#495,#496,#497));
#93=EDGE_LOOP('',(#498,#499,#500,#501));
#94=EDGE_LOOP('',(#502,#503,#504,#505,#506));
#95=EDGE_LOOP('',(#507,#508,#509,#510,#511,#512));
#96=EDGE_LOOP('',(#513,#514,#515,#516));
#97=EDGE_LOOP('',(#517,#518,#519,#520));
#98=EDGE_LOOP('',(#521,#522,#523,#524,#525));
#99=EDGE_LOOP('',(#526,#527,#528,#529));
#100=EDGE_LOOP('',(#530,#531,#532,#533,#534));
#101=EDGE_LOOP('',(#535,#536,#537,#538));
#102=EDGE_LOOP('',(#539,#540,#541,#542,#543,#544,#545,#546,#547,#548));
#103=EDGE_LOOP('',(#549,#550,#551,#552));
#104=EDGE_LOOP('',(#553,#554,#555,#556,#557,#558,#559,#560));
#105=EDGE_LOOP('',(#561,#562,#563,#564));
#106=EDGE_LOOP('',(#565,#566,#567,#568,#569,#570,#571,#572,#573,#574,#575,
#576,#577,#578,#579,#580,#581,#582,#583,#584));
#107=EDGE_LOOP('',(#585,#586,#587,#588));
#108=EDGE_LOOP('',(#589,#590,#591,#592));
#109=EDGE_LOOP('',(#593,#594,#595,#596));
#110=EDGE_LOOP('',(#597,#598,#599,#600,#601,#602,#603,#604,#605,#606));
#111=EDGE_LOOP('',(#607,#608,#609,#610));
#112=EDGE_LOOP('',(#611,#612,#613,#614,#615,#616));
#113=EDGE_LOOP('',(#617,#618,#619,#620));
#114=EDGE_LOOP('',(#621,#622,#623,#624));
#115=EDGE_LOOP('',(#625,#626,#627,#628,#629,#630));
#116=EDGE_LOOP('',(#631,#632,#633,#634));
#117=EDGE_LOOP('',(#635,#636,#637,#638,#639));
#118=EDGE_LOOP('',(#640,#641,#642,#643,#644,#645));
#119=EDGE_LOOP('',(#646,#647,#648,#649));
#120=EDGE_LOOP('',(#650,#651,#652,#653));
#121=EDGE_LOOP('',(#654,#655,#656,#657,#658));
#122=EDGE_LOOP('',(#659,#660,#661,#662));
#123=EDGE_LOOP('',(#663,#664,#665,#666,#667));
#124=EDGE_LOOP('',(#668,#669,#670,#671));
#125=EDGE_LOOP('',(#672,#673,#674,#675));
#126=EDGE_LOOP('',(#676,#677,#678,#679));
#127=EDGE_LOOP('',(#680,#681,#682,#683,#684,#685,#686,#687,#688,#689));
#128=EDGE_LOOP('',(#690,#691,#692,#693));
#129=LINE('',#1005,#212);
#130=LINE('',#1008,#213);
#131=LINE('',#1011,#214);
#132=LINE('',#1013,#215);
#133=LINE('',#1014,#216);
#134=LINE('',#1018,#217);
#135=LINE('',#1044,#218);
#136=LINE('',#1049,#219);
#137=LINE('',#1051,#220);
#138=LINE('',#1053,#221);
#139=LINE('',#1054,#222);
#140=LINE('',#1057,#223);
#141=LINE('',#1059,#224);
#142=LINE('',#1062,#225);
#143=LINE('',#1069,#226);
#144=LINE('',#1071,#227);
#145=LINE('',#1072,#228);
#146=LINE('',#1074,#229);
#147=LINE('',#1075,#230);
#148=LINE('',#1078,#231);
#149=LINE('',#1080,#232);
#150=LINE('',#1081,#233);
#151=LINE('',#1083,#234);
#152=LINE('',#1085,#235);
#153=LINE('',#1090,#236);
#154=LINE('',#1092,#237);
#155=LINE('',#1094,#238);
#156=LINE('',#1095,#239);
#157=LINE('',#1099,#240);
#158=LINE('',#1101,#241);
#159=LINE('',#1103,#242);
#160=LINE('',#1106,#243);
#161=LINE('',#1109,#244);
#162=LINE('',#1111,#245);
#163=LINE('',#1112,#246);
#164=LINE('',#1115,#247);
#165=LINE('',#1121,#248);
#166=LINE('',#1124,#249);
#167=LINE('',#1125,#250);
#168=LINE('',#1128,#251);
#169=LINE('',#1132,#252);
#170=LINE('',#1136,#253);
#171=LINE('',#1137,#254);
#172=LINE('',#1140,#255);
#173=LINE('',#1157,#256);
#174=LINE('',#1159,#257);
#175=LINE('',#1161,#258);
#176=LINE('',#1163,#259);
#177=LINE('',#1165,#260);
#178=LINE('',#1167,#261);
#179=LINE('',#1171,#262);
#180=LINE('',#1173,#263);
#181=LINE('',#1175,#264);
#182=LINE('',#1178,#265);
#183=LINE('',#1179,#266);
#184=LINE('',#1181,#267);
#185=LINE('',#1183,#268);
#186=LINE('',#1184,#269);
#187=LINE('',#1187,#270);
#188=LINE('',#1188,#271);
#189=LINE('',#1191,#272);
#190=LINE('',#1192,#273);
#191=LINE('',#1194,#274);
#192=LINE('',#1195,#275);
#193=LINE('',#1197,#276);
#194=LINE('',#1198,#277);
#195=LINE('',#1201,#278);
#196=LINE('',#1214,#279);
#197=LINE('',#1215,#280);
#198=LINE('',#1218,#281);
#199=LINE('',#1219,#282);
#200=LINE('',#1221,#283);
#201=LINE('',#1222,#284);
#202=LINE('',#1224,#285);
#203=LINE('',#1226,#286);
#204=LINE('',#1228,#287);
#205=LINE('',#1232,#288);
#206=LINE('',#1233,#289);
#207=LINE('',#1235,#290);
#208=LINE('',#1237,#291);
#209=LINE('',#1239,#292);
#210=LINE('',#1240,#293);
#211=LINE('',#1245,#294);
#212=VECTOR('',#812,10.);
#213=VECTOR('',#815,10.);
#214=VECTOR('',#818,10.);
#215=VECTOR('',#819,10.);
#216=VECTOR('',#820,10.);
#217=VECTOR('',#823,10.);
#218=VECTOR('',#826,10.);
#219=VECTOR('',#831,10.);
#220=VECTOR('',#832,10.);
#221=VECTOR('',#833,10.);
#222=VECTOR('',#834,10.);
#223=VECTOR('',#837,10.);
#224=VECTOR('',#838,10.);
#225=VECTOR('',#841,10.);
#226=VECTOR('',#848,10.);
#227=VECTOR('',#849,10.);
#228=VECTOR('',#850,10.);
#229=VECTOR('',#853,10.);
#230=VECTOR('',#854,10.);
#231=VECTOR('',#857,10.);
#232=VECTOR('',#858,10.);
#233=VECTOR('',#859,10.);
#234=VECTOR('',#862,10.);
#235=VECTOR('',#863,10.);
#236=VECTOR('',#868,10.);
#237=VECTOR('',#869,10.);
#238=VECTOR('',#870,10.);
#239=VECTOR('',#871,10.);
#240=VECTOR('',#874,10.);
#241=VECTOR('',#875,10.);
#242=VECTOR('',#876,10.);
#243=VECTOR('',#879,10.);
#244=VECTOR('',#882,10.);
#245=VECTOR('',#883,10.);
#246=VECTOR('',#884,10.);
#247=VECTOR('',#887,2.5);
#248=VECTOR('',#892,2.5);
#249=VECTOR('',#895,10.);
#250=VECTOR('',#896,2.5);
#251=VECTOR('',#899,10.);
#252=VECTOR('',#904,10.);
#253=VECTOR('',#907,10.);
#254=VECTOR('',#908,10.);
#255=VECTOR('',#911,2.5);
#256=VECTOR('',#914,10.);
#257=VECTOR('',#915,10.);
#258=VECTOR('',#916,10.);
#259=VECTOR('',#917,10.);
#260=VECTOR('',#918,10.);
#261=VECTOR('',#919,10.);
#262=VECTOR('',#922,10.);
#263=VECTOR('',#923,10.);
#264=VECTOR('',#924,10.);
#265=VECTOR('',#927,10.);
#266=VECTOR('',#928,10.);
#267=VECTOR('',#929,10.);
#268=VECTOR('',#930,10.);
#269=VECTOR('',#931,10.);
#270=VECTOR('',#934,10.);
#271=VECTOR('',#935,10.);
#272=VECTOR('',#938,10.);
#273=VECTOR('',#939,10.);
#274=VECTOR('',#940,10.);
#275=VECTOR('',#941,10.);
#276=VECTOR('',#942,10.);
#277=VECTOR('',#943,10.);
#278=VECTOR('',#946,2.5);
#279=VECTOR('',#953,10.);
#280=VECTOR('',#954,10.);
#281=VECTOR('',#957,10.);
#282=VECTOR('',#958,10.);
#283=VECTOR('',#961,10.);
#284=VECTOR('',#962,10.);
#285=VECTOR('',#965,10.);
#286=VECTOR('',#968,10.);
#287=VECTOR('',#971,10.);
#288=VECTOR('',#976,10.);
#289=VECTOR('',#977,10.);
#290=VECTOR('',#980,10.);
#291=VECTOR('',#983,10.);
#292=VECTOR('',#986,10.);
#293=VECTOR('',#987,10.);
#294=VECTOR('',#996,10.);
#295=CIRCLE('',#753,3.5);
#296=CIRCLE('',#754,3.5);
#297=CIRCLE('',#757,3.5);
#298=CIRCLE('',#758,3.5);
#299=CIRCLE('',#761,2.5);
#300=CIRCLE('',#768,2.5);
#301=CIRCLE('',#771,2.5);
#302=CIRCLE('',#775,2.5);
#303=CIRCLE('',#776,2.5);
#304=CIRCLE('',#780,3.5);
#305=CIRCLE('',#783,3.5);
#306=CIRCLE('',#784,3.5);
#307=CIRCLE('',#788,2.5);
#308=CIRCLE('',#790,3.5);
#309=VERTEX_POINT('',#1001);
#310=VERTEX_POINT('',#1002);
#311=VERTEX_POINT('',#1004);
#312=VERTEX_POINT('',#1006);
#313=VERTEX_POINT('',#1010);
#314=VERTEX_POINT('',#1012);
#315=VERTEX_POINT('',#1016);
#316=VERTEX_POINT('',#1017);
#317=VERTEX_POINT('',#1019);
#318=VERTEX_POINT('',#1026);
#319=VERTEX_POINT('',#1041);
#320=VERTEX_POINT('',#1043);
#321=VERTEX_POINT('',#1047);
#322=VERTEX_POINT('',#1048);
#323=VERTEX_POINT('',#1050);
#324=VERTEX_POINT('',#1052);
#325=VERTEX_POINT('',#1056);
#326=VERTEX_POINT('',#1058);
#327=VERTEX_POINT('',#1060);
#328=VERTEX_POINT('',#1064);
#329=VERTEX_POINT('',#1065);
#330=VERTEX_POINT('',#1068);
#331=VERTEX_POINT('',#1070);
#332=VERTEX_POINT('',#1077);
#333=VERTEX_POINT('',#1079);
#334=VERTEX_POINT('',#1084);
#335=VERTEX_POINT('',#1088);
#336=VERTEX_POINT('',#1089);
#337=VERTEX_POINT('',#1091);
#338=VERTEX_POINT('',#1093);
#339=VERTEX_POINT('',#1097);
#340=VERTEX_POINT('',#1098);
#341=VERTEX_POINT('',#1100);
#342=VERTEX_POINT('',#1102);
#343=VERTEX_POINT('',#1104);
#344=VERTEX_POINT('',#1108);
#345=VERTEX_POINT('',#1110);
#346=VERTEX_POINT('',#1114);
#347=VERTEX_POINT('',#1116);
#348=VERTEX_POINT('',#1118);
#349=VERTEX_POINT('',#1120);
#350=VERTEX_POINT('',#1122);
#351=VERTEX_POINT('',#1127);
#352=VERTEX_POINT('',#1131);
#353=VERTEX_POINT('',#1133);
#354=VERTEX_POINT('',#1135);
#355=VERTEX_POINT('',#1139);
#356=VERTEX_POINT('',#1156);
#357=VERTEX_POINT('',#1158);
#358=VERTEX_POINT('',#1160);
#359=VERTEX_POINT('',#1162);
#360=VERTEX_POINT('',#1164);
#361=VERTEX_POINT('',#1166);
#362=VERTEX_POINT('',#1168);
#363=VERTEX_POINT('',#1170);
#364=VERTEX_POINT('',#1172);
#365=VERTEX_POINT('',#1174);
#366=VERTEX_POINT('',#1177);
#367=VERTEX_POINT('',#1180);
#368=VERTEX_POINT('',#1182);
#369=VERTEX_POINT('',#1186);
#370=VERTEX_POINT('',#1190);
#371=VERTEX_POINT('',#1193);
#372=VERTEX_POINT('',#1196);
#373=VERTEX_POINT('',#1200);
#374=VERTEX_POINT('',#1202);
#375=VERTEX_POINT('',#1211);
#376=VERTEX_POINT('',#1212);
#377=VERTEX_POINT('',#1217);
#378=VERTEX_POINT('',#1231);
#379=EDGE_CURVE('',#309,#310,#295,.T.);
#380=EDGE_CURVE('',#311,#309,#129,.T.);
#381=EDGE_CURVE('',#312,#311,#296,.T.);
#382=EDGE_CURVE('',#310,#312,#130,.T.);
#383=EDGE_CURVE('',#309,#313,#131,.F.);
#384=EDGE_CURVE('',#314,#313,#132,.T.);
#385=EDGE_CURVE('',#314,#311,#133,.T.);
#386=EDGE_CURVE('',#315,#316,#134,.T.);
#387=EDGE_CURVE('',#317,#315,#22,.F.);
#388=EDGE_CURVE('',#318,#317,#23,.T.);
#389=EDGE_CURVE('',#319,#318,#297,.T.);
#390=EDGE_CURVE('',#320,#319,#135,.T.);
#391=EDGE_CURVE('',#316,#320,#298,.T.);
#392=EDGE_CURVE('',#321,#322,#136,.T.);
#393=EDGE_CURVE('',#323,#321,#137,.T.);
#394=EDGE_CURVE('',#324,#323,#138,.T.);
#395=EDGE_CURVE('',#322,#324,#139,.T.);
#396=EDGE_CURVE('',#324,#325,#140,.T.);
#397=EDGE_CURVE('',#325,#326,#141,.T.);
#398=EDGE_CURVE('',#327,#326,#299,.F.);
#399=EDGE_CURVE('',#327,#322,#142,.T.);
#400=EDGE_CURVE('',#328,#329,#18,.T.);
#401=EDGE_CURVE('',#329,#326,#19,.T.);
#402=EDGE_CURVE('',#330,#325,#143,.T.);
#403=EDGE_CURVE('',#331,#330,#144,.T.);
#404=EDGE_CURVE('',#331,#328,#145,.T.);
#405=EDGE_CURVE('',#319,#331,#146,.T.);
#406=EDGE_CURVE('',#330,#320,#147,.F.);
#407=EDGE_CURVE('',#332,#314,#148,.F.);
#408=EDGE_CURVE('',#313,#333,#149,.T.);
#409=EDGE_CURVE('',#333,#332,#150,.T.);
#410=EDGE_CURVE('',#316,#332,#151,.T.);
#411=EDGE_CURVE('',#333,#334,#152,.T.);
#412=EDGE_CURVE('',#315,#334,#300,.F.);
#413=EDGE_CURVE('',#335,#336,#153,.F.);
#414=EDGE_CURVE('',#337,#336,#154,.F.);
#415=EDGE_CURVE('',#337,#338,#155,.T.);
#416=EDGE_CURVE('',#338,#335,#156,.T.);
#417=EDGE_CURVE('',#339,#340,#157,.F.);
#418=EDGE_CURVE('',#341,#340,#158,.F.);
#419=EDGE_CURVE('',#341,#342,#159,.T.);
#420=EDGE_CURVE('',#342,#343,#301,.T.);
#421=EDGE_CURVE('',#343,#339,#160,.T.);
#422=EDGE_CURVE('',#344,#338,#161,.T.);
#423=EDGE_CURVE('',#344,#345,#162,.T.);
#424=EDGE_CURVE('',#335,#345,#163,.T.);
#425=EDGE_CURVE('',#329,#346,#164,.T.);
#426=EDGE_CURVE('',#346,#347,#20,.T.);
#427=EDGE_CURVE('',#348,#347,#302,.F.);
#428=EDGE_CURVE('',#348,#349,#165,.T.);
#429=EDGE_CURVE('',#349,#350,#303,.T.);
#430=EDGE_CURVE('',#343,#350,#166,.F.);
#431=EDGE_CURVE('',#327,#342,#167,.T.);
#432=EDGE_CURVE('',#328,#351,#168,.T.);
#433=EDGE_CURVE('',#351,#346,#21,.T.);
#434=EDGE_CURVE('',#318,#352,#169,.F.);
#435=EDGE_CURVE('',#353,#352,#304,.T.);
#436=EDGE_CURVE('',#353,#354,#170,.T.);
#437=EDGE_CURVE('',#354,#351,#171,.T.);
#438=EDGE_CURVE('',#355,#317,#172,.T.);
#439=EDGE_CURVE('',#352,#355,#24,.T.);
#440=EDGE_CURVE('',#356,#312,#173,.T.);
#441=EDGE_CURVE('',#323,#357,#174,.T.);
#442=EDGE_CURVE('',#358,#357,#175,.T.);
#443=EDGE_CURVE('',#358,#359,#176,.T.);
#444=EDGE_CURVE('',#360,#359,#177,.T.);
#445=EDGE_CURVE('',#360,#361,#178,.F.);
#446=EDGE_CURVE('',#362,#361,#305,.T.);
#447=EDGE_CURVE('',#362,#363,#179,.T.);
#448=EDGE_CURVE('',#363,#364,#180,.F.);
#449=EDGE_CURVE('',#364,#365,#181,.T.);
#450=EDGE_CURVE('',#356,#365,#306,.T.);
#451=EDGE_CURVE('',#345,#366,#182,.F.);
#452=EDGE_CURVE('',#366,#336,#183,.T.);
#453=EDGE_CURVE('',#367,#340,#184,.T.);
#454=EDGE_CURVE('',#339,#368,#185,.T.);
#455=EDGE_CURVE('',#368,#367,#186,.F.);
#456=EDGE_CURVE('',#369,#321,#187,.F.);
#457=EDGE_CURVE('',#357,#369,#188,.T.);
#458=EDGE_CURVE('',#341,#370,#189,.T.);
#459=EDGE_CURVE('',#370,#349,#190,.T.);
#460=EDGE_CURVE('',#348,#371,#191,.T.);
#461=EDGE_CURVE('',#369,#371,#192,.T.);
#462=EDGE_CURVE('',#337,#372,#193,.T.);
#463=EDGE_CURVE('',#372,#344,#194,.T.);
#464=EDGE_CURVE('',#334,#373,#195,.T.);
#465=EDGE_CURVE('',#374,#373,#307,.F.);
#466=EDGE_CURVE('',#355,#374,#25,.F.);
#467=EDGE_CURVE('',#375,#376,#308,.T.);
#468=EDGE_CURVE('',#376,#356,#196,.T.);
#469=EDGE_CURVE('',#365,#375,#197,.T.);
#470=EDGE_CURVE('',#364,#377,#198,.T.);
#471=EDGE_CURVE('',#375,#377,#199,.F.);
#472=EDGE_CURVE('',#374,#362,#200,.T.);
#473=EDGE_CURVE('',#361,#353,#201,.T.);
#474=EDGE_CURVE('',#371,#358,#202,.T.);
#475=EDGE_CURVE('',#359,#347,#203,.T.);
#476=EDGE_CURVE('',#354,#360,#204,.T.);
#477=EDGE_CURVE('',#378,#363,#205,.T.);
#478=EDGE_CURVE('',#377,#378,#206,.T.);
#479=EDGE_CURVE('',#378,#373,#207,.T.);
#480=EDGE_CURVE('',#372,#366,#208,.F.);
#481=EDGE_CURVE('',#350,#368,#209,.T.);
#482=EDGE_CURVE('',#370,#367,#210,.F.);
#483=EDGE_CURVE('',#310,#376,#211,.F.);
#484=ORIENTED_EDGE('',*,*,#379,.F.);
#485=ORIENTED_EDGE('',*,*,#380,.F.);
#486=ORIENTED_EDGE('',*,*,#381,.F.);
#487=ORIENTED_EDGE('',*,*,#382,.F.);
#488=ORIENTED_EDGE('',*,*,#380,.T.);
#489=ORIENTED_EDGE('',*,*,#383,.T.);
#490=ORIENTED_EDGE('',*,*,#384,.F.);
#491=ORIENTED_EDGE('',*,*,#385,.T.);
#492=ORIENTED_EDGE('',*,*,#386,.F.);
#493=ORIENTED_EDGE('',*,*,#387,.F.);
#494=ORIENTED_EDGE('',*,*,#388,.F.);
#495=ORIENTED_EDGE('',*,*,#389,.F.);
#496=ORIENTED_EDGE('',*,*,#390,.F.);
#497=ORIENTED_EDGE('',*,*,#391,.F.);
#498=ORIENTED_EDGE('',*,*,#392,.F.);
#499=ORIENTED_EDGE('',*,*,#393,.F.);
#500=ORIENTED_EDGE('',*,*,#394,.F.);
#501=ORIENTED_EDGE('',*,*,#395,.F.);
#502=ORIENTED_EDGE('',*,*,#395,.T.);
#503=ORIENTED_EDGE('',*,*,#396,.T.);
#504=ORIENTED_EDGE('',*,*,#397,.T.);
#505=ORIENTED_EDGE('',*,*,#398,.F.);
#506=ORIENTED_EDGE('',*,*,#399,.T.);
#507=ORIENTED_EDGE('',*,*,#400,.T.);
#508=ORIENTED_EDGE('',*,*,#401,.T.);
#509=ORIENTED_EDGE('',*,*,#397,.F.);
#510=ORIENTED_EDGE('',*,*,#402,.F.);
#511=ORIENTED_EDGE('',*,*,#403,.F.);
#512=ORIENTED_EDGE('',*,*,#404,.T.);
#513=ORIENTED_EDGE('',*,*,#390,.T.);
#514=ORIENTED_EDGE('',*,*,#405,.T.);
#515=ORIENTED_EDGE('',*,*,#403,.T.);
#516=ORIENTED_EDGE('',*,*,#406,.T.);
#517=ORIENTED_EDGE('',*,*,#407,.T.);
#518=ORIENTED_EDGE('',*,*,#384,.T.);
#519=ORIENTED_EDGE('',*,*,#408,.T.);
#520=ORIENTED_EDGE('',*,*,#409,.T.);
#521=ORIENTED_EDGE('',*,*,#386,.T.);
#522=ORIENTED_EDGE('',*,*,#410,.T.);
#523=ORIENTED_EDGE('',*,*,#409,.F.);
#524=ORIENTED_EDGE('',*,*,#411,.T.);
#525=ORIENTED_EDGE('',*,*,#412,.F.);
#526=ORIENTED_EDGE('',*,*,#413,.T.);
#527=ORIENTED_EDGE('',*,*,#414,.F.);
#528=ORIENTED_EDGE('',*,*,#415,.T.);
#529=ORIENTED_EDGE('',*,*,#416,.T.);
#530=ORIENTED_EDGE('',*,*,#417,.T.);
#531=ORIENTED_EDGE('',*,*,#418,.F.);
#532=ORIENTED_EDGE('',*,*,#419,.T.);
#533=ORIENTED_EDGE('',*,*,#420,.T.);
#534=ORIENTED_EDGE('',*,*,#421,.T.);
#535=ORIENTED_EDGE('',*,*,#422,.F.);
#536=ORIENTED_EDGE('',*,*,#423,.T.);
#537=ORIENTED_EDGE('',*,*,#424,.F.);
#538=ORIENTED_EDGE('',*,*,#416,.F.);
#539=ORIENTED_EDGE('',*,*,#425,.T.);
#540=ORIENTED_EDGE('',*,*,#426,.T.);
#541=ORIENTED_EDGE('',*,*,#427,.F.);
#542=ORIENTED_EDGE('',*,*,#428,.T.);
#543=ORIENTED_EDGE('',*,*,#429,.T.);
#544=ORIENTED_EDGE('',*,*,#430,.F.);
#545=ORIENTED_EDGE('',*,*,#420,.F.);
#546=ORIENTED_EDGE('',*,*,#431,.F.);
#547=ORIENTED_EDGE('',*,*,#398,.T.);
#548=ORIENTED_EDGE('',*,*,#401,.F.);
#549=ORIENTED_EDGE('',*,*,#432,.T.);
#550=ORIENTED_EDGE('',*,*,#433,.T.);
#551=ORIENTED_EDGE('',*,*,#425,.F.);
#552=ORIENTED_EDGE('',*,*,#400,.F.);
#553=ORIENTED_EDGE('',*,*,#434,.T.);
#554=ORIENTED_EDGE('',*,*,#435,.F.);
#555=ORIENTED_EDGE('',*,*,#436,.T.);
#556=ORIENTED_EDGE('',*,*,#437,.T.);
#557=ORIENTED_EDGE('',*,*,#432,.F.);
#558=ORIENTED_EDGE('',*,*,#404,.F.);
#559=ORIENTED_EDGE('',*,*,#405,.F.);
#560=ORIENTED_EDGE('',*,*,#389,.T.);
#561=ORIENTED_EDGE('',*,*,#438,.F.);
#562=ORIENTED_EDGE('',*,*,#439,.F.);
#563=ORIENTED_EDGE('',*,*,#434,.F.);
#564=ORIENTED_EDGE('',*,*,#388,.T.);
#565=ORIENTED_EDGE('',*,*,#440,.T.);
#566=ORIENTED_EDGE('',*,*,#381,.T.);
#567=ORIENTED_EDGE('',*,*,#385,.F.);
#568=ORIENTED_EDGE('',*,*,#407,.F.);
#569=ORIENTED_EDGE('',*,*,#410,.F.);
#570=ORIENTED_EDGE('',*,*,#391,.T.);
#571=ORIENTED_EDGE('',*,*,#406,.F.);
#572=ORIENTED_EDGE('',*,*,#402,.T.);
#573=ORIENTED_EDGE('',*,*,#396,.F.);
#574=ORIENTED_EDGE('',*,*,#394,.T.);
#575=ORIENTED_EDGE('',*,*,#441,.T.);
#576=ORIENTED_EDGE('',*,*,#442,.F.);
#577=ORIENTED_EDGE('',*,*,#443,.T.);
#578=ORIENTED_EDGE('',*,*,#444,.F.);
#579=ORIENTED_EDGE('',*,*,#445,.T.);
#580=ORIENTED_EDGE('',*,*,#446,.F.);
#581=ORIENTED_EDGE('',*,*,#447,.T.);
#582=ORIENTED_EDGE('',*,*,#448,.T.);
#583=ORIENTED_EDGE('',*,*,#449,.T.);
#584=ORIENTED_EDGE('',*,*,#450,.F.);
#585=ORIENTED_EDGE('',*,*,#424,.T.);
#586=ORIENTED_EDGE('',*,*,#451,.T.);
#587=ORIENTED_EDGE('',*,*,#452,.T.);
#588=ORIENTED_EDGE('',*,*,#413,.F.);
#589=ORIENTED_EDGE('',*,*,#453,.T.);
#590=ORIENTED_EDGE('',*,*,#417,.F.);
#591=ORIENTED_EDGE('',*,*,#454,.T.);
#592=ORIENTED_EDGE('',*,*,#455,.T.);
#593=ORIENTED_EDGE('',*,*,#456,.F.);
#594=ORIENTED_EDGE('',*,*,#457,.F.);
#595=ORIENTED_EDGE('',*,*,#441,.F.);
#596=ORIENTED_EDGE('',*,*,#393,.T.);
#597=ORIENTED_EDGE('',*,*,#458,.T.);
#598=ORIENTED_EDGE('',*,*,#459,.T.);
#599=ORIENTED_EDGE('',*,*,#428,.F.);
#600=ORIENTED_EDGE('',*,*,#460,.T.);
#601=ORIENTED_EDGE('',*,*,#461,.F.);
#602=ORIENTED_EDGE('',*,*,#456,.T.);
#603=ORIENTED_EDGE('',*,*,#392,.T.);
#604=ORIENTED_EDGE('',*,*,#399,.F.);
#605=ORIENTED_EDGE('',*,*,#431,.T.);
#606=ORIENTED_EDGE('',*,*,#419,.F.);
#607=ORIENTED_EDGE('',*,*,#422,.T.);
#608=ORIENTED_EDGE('',*,*,#415,.F.);
#609=ORIENTED_EDGE('',*,*,#462,.T.);
#610=ORIENTED_EDGE('',*,*,#463,.T.);
#611=ORIENTED_EDGE('',*,*,#464,.T.);
#612=ORIENTED_EDGE('',*,*,#465,.F.);
#613=ORIENTED_EDGE('',*,*,#466,.F.);
#614=ORIENTED_EDGE('',*,*,#438,.T.);
#615=ORIENTED_EDGE('',*,*,#387,.T.);
#616=ORIENTED_EDGE('',*,*,#412,.T.);
#617=ORIENTED_EDGE('',*,*,#467,.T.);
#618=ORIENTED_EDGE('',*,*,#468,.T.);
#619=ORIENTED_EDGE('',*,*,#450,.T.);
#620=ORIENTED_EDGE('',*,*,#469,.T.);
#621=ORIENTED_EDGE('',*,*,#469,.F.);
#622=ORIENTED_EDGE('',*,*,#449,.F.);
#623=ORIENTED_EDGE('',*,*,#470,.T.);
#624=ORIENTED_EDGE('',*,*,#471,.F.);
#625=ORIENTED_EDGE('',*,*,#472,.T.);
#626=ORIENTED_EDGE('',*,*,#446,.T.);
#627=ORIENTED_EDGE('',*,*,#473,.T.);
#628=ORIENTED_EDGE('',*,*,#435,.T.);
#629=ORIENTED_EDGE('',*,*,#439,.T.);
#630=ORIENTED_EDGE('',*,*,#466,.T.);
#631=ORIENTED_EDGE('',*,*,#461,.T.);
#632=ORIENTED_EDGE('',*,*,#474,.T.);
#633=ORIENTED_EDGE('',*,*,#442,.T.);
#634=ORIENTED_EDGE('',*,*,#457,.T.);
#635=ORIENTED_EDGE('',*,*,#474,.F.);
#636=ORIENTED_EDGE('',*,*,#460,.F.);
#637=ORIENTED_EDGE('',*,*,#427,.T.);
#638=ORIENTED_EDGE('',*,*,#475,.F.);
#639=ORIENTED_EDGE('',*,*,#443,.F.);
#640=ORIENTED_EDGE('',*,*,#433,.F.);
#641=ORIENTED_EDGE('',*,*,#437,.F.);
#642=ORIENTED_EDGE('',*,*,#476,.T.);
#643=ORIENTED_EDGE('',*,*,#444,.T.);
#644=ORIENTED_EDGE('',*,*,#475,.T.);
#645=ORIENTED_EDGE('',*,*,#426,.F.);
#646=ORIENTED_EDGE('',*,*,#473,.F.);
#647=ORIENTED_EDGE('',*,*,#445,.F.);
#648=ORIENTED_EDGE('',*,*,#476,.F.);
#649=ORIENTED_EDGE('',*,*,#436,.F.);
#650=ORIENTED_EDGE('',*,*,#448,.F.);
#651=ORIENTED_EDGE('',*,*,#477,.F.);
#652=ORIENTED_EDGE('',*,*,#478,.F.);
#653=ORIENTED_EDGE('',*,*,#470,.F.);
#654=ORIENTED_EDGE('',*,*,#472,.F.);
#655=ORIENTED_EDGE('',*,*,#465,.T.);
#656=ORIENTED_EDGE('',*,*,#479,.F.);
#657=ORIENTED_EDGE('',*,*,#477,.T.);
#658=ORIENTED_EDGE('',*,*,#447,.F.);
#659=ORIENTED_EDGE('',*,*,#451,.F.);
#660=ORIENTED_EDGE('',*,*,#423,.F.);
#661=ORIENTED_EDGE('',*,*,#463,.F.);
#662=ORIENTED_EDGE('',*,*,#480,.T.);
#663=ORIENTED_EDGE('',*,*,#455,.F.);
#664=ORIENTED_EDGE('',*,*,#481,.F.);
#665=ORIENTED_EDGE('',*,*,#429,.F.);
#666=ORIENTED_EDGE('',*,*,#459,.F.);
#667=ORIENTED_EDGE('',*,*,#482,.T.);
#668=ORIENTED_EDGE('',*,*,#430,.T.);
#669=ORIENTED_EDGE('',*,*,#481,.T.);
#670=ORIENTED_EDGE('',*,*,#454,.F.);
#671=ORIENTED_EDGE('',*,*,#421,.F.);
#672=ORIENTED_EDGE('',*,*,#453,.F.);
#673=ORIENTED_EDGE('',*,*,#482,.F.);
#674=ORIENTED_EDGE('',*,*,#458,.F.);
#675=ORIENTED_EDGE('',*,*,#418,.T.);
#676=ORIENTED_EDGE('',*,*,#452,.F.);
#677=ORIENTED_EDGE('',*,*,#480,.F.);
#678=ORIENTED_EDGE('',*,*,#462,.F.);
#679=ORIENTED_EDGE('',*,*,#414,.T.);
#680=ORIENTED_EDGE('',*,*,#483,.T.);
#681=ORIENTED_EDGE('',*,*,#467,.F.);
#682=ORIENTED_EDGE('',*,*,#471,.T.);
#683=ORIENTED_EDGE('',*,*,#478,.T.);
#684=ORIENTED_EDGE('',*,*,#479,.T.);
#685=ORIENTED_EDGE('',*,*,#464,.F.);
#686=ORIENTED_EDGE('',*,*,#411,.F.);
#687=ORIENTED_EDGE('',*,*,#408,.F.);
#688=ORIENTED_EDGE('',*,*,#383,.F.);
#689=ORIENTED_EDGE('',*,*,#379,.T.);
#690=ORIENTED_EDGE('',*,*,#440,.F.);
#691=ORIENTED_EDGE('',*,*,#468,.F.);
#692=ORIENTED_EDGE('',*,*,#483,.F.);
#693=ORIENTED_EDGE('',*,*,#382,.T.);
#694=CYLINDRICAL_SURFACE('',#752,3.5);
#695=CYLINDRICAL_SURFACE('',#756,3.5);
#696=CYLINDRICAL_SURFACE('',#773,2.5);
#697=CYLINDRICAL_SURFACE('',#777,2.);
#698=CYLINDRICAL_SURFACE('',#781,2.);
#699=CYLINDRICAL_SURFACE('',#787,2.5);
#700=CYLINDRICAL_SURFACE('',#789,3.5);
#701=CYLINDRICAL_SURFACE('',#792,3.5);
#702=ADVANCED_FACE('',(#54),#694,.T.);
#703=ADVANCED_FACE('',(#55),#26,.F.);
#704=ADVANCED_FACE('',(#56),#695,.F.);
#705=ADVANCED_FACE('',(#57),#27,.F.);
#706=ADVANCED_FACE('',(#58),#28,.F.);
#707=ADVANCED_FACE('',(#59),#29,.F.);
#708=ADVANCED_FACE('',(#60),#30,.T.);
#709=ADVANCED_FACE('',(#61),#31,.T.);
#710=ADVANCED_FACE('',(#62),#32,.T.);
#711=ADVANCED_FACE('',(#63),#33,.T.);
#712=ADVANCED_FACE('',(#64),#34,.T.);
#713=ADVANCED_FACE('',(#65),#35,.F.);
#714=ADVANCED_FACE('',(#66),#696,.F.);
#715=ADVANCED_FACE('',(#67),#697,.T.);
#716=ADVANCED_FACE('',(#68),#36,.T.);
#717=ADVANCED_FACE('',(#69),#698,.T.);
#718=ADVANCED_FACE('',(#70,#15,#16),#37,.F.);
#719=ADVANCED_FACE('',(#71),#38,.T.);
#720=ADVANCED_FACE('',(#72,#17),#39,.T.);
#721=ADVANCED_FACE('',(#73),#699,.F.);
#722=ADVANCED_FACE('',(#74),#700,.T.);
#723=ADVANCED_FACE('',(#75),#40,.T.);
#724=ADVANCED_FACE('',(#76),#701,.F.);
#725=ADVANCED_FACE('',(#77),#41,.T.);
#726=ADVANCED_FACE('',(#78),#42,.T.);
#727=ADVANCED_FACE('',(#79),#43,.T.);
#728=ADVANCED_FACE('',(#80),#44,.F.);
#729=ADVANCED_FACE('',(#81),#45,.F.);
#730=ADVANCED_FACE('',(#82),#46,.F.);
#731=ADVANCED_FACE('',(#83),#47,.F.);
#732=ADVANCED_FACE('',(#84),#48,.F.);
#733=ADVANCED_FACE('',(#85),#49,.F.);
#734=ADVANCED_FACE('',(#86),#50,.F.);
#735=ADVANCED_FACE('',(#87),#51,.F.);
#736=ADVANCED_FACE('',(#88),#52,.T.);
#737=ADVANCED_FACE('',(#89),#53,.T.);
#738=CLOSED_SHELL('',(#702,#703,#704,#705,#706,#707,#708,#709,#710,#711,
#712,#713,#714,#715,#716,#717,#718,#719,#720,#721,#722,#723,#724,#725,#726,
#727,#728,#729,#730,#731,#732,#733,#734,#735,#736,#737));
#739=DERIVED_UNIT_ELEMENT(#741,1.);
#740=DERIVED_UNIT_ELEMENT(#1252,-3.);
#741=(
MASS_UNIT()
NAMED_UNIT(*)
SI_UNIT(.KILO.,.GRAM.)
);
#742=DERIVED_UNIT((#739,#740));
#743=MEASURE_REPRESENTATION_ITEM('density measure',
POSITIVE_RATIO_MEASURE(7850.),#742);
#744=PROPERTY_DEFINITION_REPRESENTATION(#749,#746);
#745=PROPERTY_DEFINITION_REPRESENTATION(#750,#747);
#746=REPRESENTATION('material name',(#748),#1249);
#747=REPRESENTATION('density',(#743),#1249);
#748=DESCRIPTIVE_REPRESENTATION_ITEM('Steel','Steel');
#749=PROPERTY_DEFINITION('material property','material name',#1259);
#750=PROPERTY_DEFINITION('material property','density of part',#1259);
#751=AXIS2_PLACEMENT_3D('',#999,#806,#807);
#752=AXIS2_PLACEMENT_3D('',#1000,#808,#809);
#753=AXIS2_PLACEMENT_3D('',#1003,#810,#811);
#754=AXIS2_PLACEMENT_3D('',#1007,#813,#814);
#755=AXIS2_PLACEMENT_3D('',#1009,#816,#817);
#756=AXIS2_PLACEMENT_3D('',#1015,#821,#822);
#757=AXIS2_PLACEMENT_3D('',#1042,#824,#825);
#758=AXIS2_PLACEMENT_3D('',#1045,#827,#828);
#759=AXIS2_PLACEMENT_3D('',#1046,#829,#830);
#760=AXIS2_PLACEMENT_3D('',#1055,#835,#836);
#761=AXIS2_PLACEMENT_3D('',#1061,#839,#840);
#762=AXIS2_PLACEMENT_3D('',#1063,#842,#843);
#763=AXIS2_PLACEMENT_3D('',#1066,#844,#845);
#764=AXIS2_PLACEMENT_3D('',#1067,#846,#847);
#765=AXIS2_PLACEMENT_3D('',#1073,#851,#852);
#766=AXIS2_PLACEMENT_3D('',#1076,#855,#856);
#767=AXIS2_PLACEMENT_3D('',#1082,#860,#861);
#768=AXIS2_PLACEMENT_3D('',#1086,#864,#865);
#769=AXIS2_PLACEMENT_3D('',#1087,#866,#867);
#770=AXIS2_PLACEMENT_3D('',#1096,#872,#873);
#771=AXIS2_PLACEMENT_3D('',#1105,#877,#878);
#772=AXIS2_PLACEMENT_3D('',#1107,#880,#881);
#773=AXIS2_PLACEMENT_3D('',#1113,#885,#886);
#774=AXIS2_PLACEMENT_3D('',#1117,#888,#889);
#775=AXIS2_PLACEMENT_3D('',#1119,#890,#891);
#776=AXIS2_PLACEMENT_3D('',#1123,#893,#894);
#777=AXIS2_PLACEMENT_3D('',#1126,#897,#898);
#778=AXIS2_PLACEMENT_3D('',#1129,#900,#901);
#779=AXIS2_PLACEMENT_3D('',#1130,#902,#903);
#780=AXIS2_PLACEMENT_3D('',#1134,#905,#906);
#781=AXIS2_PLACEMENT_3D('',#1138,#909,#910);
#782=AXIS2_PLACEMENT_3D('',#1155,#912,#913);
#783=AXIS2_PLACEMENT_3D('',#1169,#920,#921);
#784=AXIS2_PLACEMENT_3D('',#1176,#925,#926);
#785=AXIS2_PLACEMENT_3D('',#1185,#932,#933);
#786=AXIS2_PLACEMENT_3D('',#1189,#936,#937);
#787=AXIS2_PLACEMENT_3D('',#1199,#944,#945);
#788=AXIS2_PLACEMENT_3D('',#1203,#947,#948);
#789=AXIS2_PLACEMENT_3D('',#1210,#949,#950);
#790=AXIS2_PLACEMENT_3D('',#1213,#951,#952);
#791=AXIS2_PLACEMENT_3D('',#1216,#955,#956);
#792=AXIS2_PLACEMENT_3D('',#1220,#959,#960);
#793=AXIS2_PLACEMENT_3D('',#1223,#963,#964);
#794=AXIS2_PLACEMENT_3D('',#1225,#966,#967);
#795=AXIS2_PLACEMENT_3D('',#1227,#969,#970);
#796=AXIS2_PLACEMENT_3D('',#1229,#972,#973);
#797=AXIS2_PLACEMENT_3D('',#1230,#974,#975);
#798=AXIS2_PLACEMENT_3D('',#1234,#978,#979);
#799=AXIS2_PLACEMENT_3D('',#1236,#981,#982);
#800=AXIS2_PLACEMENT_3D('',#1238,#984,#985);
#801=AXIS2_PLACEMENT_3D('',#1241,#988,#989);
#802=AXIS2_PLACEMENT_3D('',#1242,#990,#991);
#803=AXIS2_PLACEMENT_3D('',#1243,#992,#993);
#804=AXIS2_PLACEMENT_3D('',#1244,#994,#995);
#805=AXIS2_PLACEMENT_3D('',#1246,#997,#998);
#806=DIRECTION('axis',(0.,0.,1.));
#807=DIRECTION('refdir',(1.,0.,0.));
#808=DIRECTION('center_axis',(0.,0.,-1.));
#809=DIRECTION('ref_axis',(-0.707106781186547,0.707106781186548,0.));
#810=DIRECTION('center_axis',(0.,0.,1.));
#811=DIRECTION('ref_axis',(-0.707106781186547,0.707106781186548,0.));
#812=DIRECTION('',(0.,0.,1.));
#813=DIRECTION('center_axis',(0.,0.,-1.));
#814=DIRECTION('ref_axis',(-0.707106781186547,0.707106781186548,0.));
#815=DIRECTION('',(0.,0.,-1.));
#816=DIRECTION('center_axis',(0.,-1.,0.));
#817=DIRECTION('ref_axis',(1.,0.,0.));
#818=DIRECTION('',(-1.,0.,0.));
#819=DIRECTION('',(0.,0.,1.));
#820=DIRECTION('',(-1.,0.,0.));
#821=DIRECTION('center_axis',(0.,0.,1.));
#822=DIRECTION('ref_axis',(0.707106781186547,-0.707106781186548,0.));
#823=DIRECTION('',(0.,0.,-1.));
#824=DIRECTION('center_axis',(0.,0.,-1.));
#825=DIRECTION('ref_axis',(0.707106781186547,-0.707106781186548,0.));
#826=DIRECTION('',(0.,0.,1.));
#827=DIRECTION('center_axis',(0.,0.,1.));
#828=DIRECTION('ref_axis',(0.707106781186547,-0.707106781186548,0.));
#829=DIRECTION('center_axis',(-0.707106781186548,-0.707106781186547,0.));
#830=DIRECTION('ref_axis',(0.,0.,-1.));
#831=DIRECTION('',(-0.707106781186547,0.707106781186548,0.));
#832=DIRECTION('',(0.,0.,1.));
#833=DIRECTION('',(0.707106781186547,-0.707106781186548,0.));
#834=DIRECTION('',(0.,0.,-1.));
#835=DIRECTION('center_axis',(0.,-1.,0.));
#836=DIRECTION('ref_axis',(1.,0.,0.));
#837=DIRECTION('',(-1.,0.,0.));
#838=DIRECTION('',(0.,0.,1.));
#839=DIRECTION('center_axis',(0.,-1.,0.));
#840=DIRECTION('ref_axis',(0.,0.,1.));
#841=DIRECTION('',(1.,0.,0.));
#842=DIRECTION('center_axis',(0.707106781186548,-0.707106781186547,0.));
#843=DIRECTION('ref_axis',(0.,0.,1.));
#844=DIRECTION('center_axis',(-0.707106781186548,0.707106781186547,0.));
#845=DIRECTION('ref_axis',(0.707106781186547,0.707106781186548,0.));
#846=DIRECTION('center_axis',(0.707106781186548,-0.707106781186547,0.));
#847=DIRECTION('ref_axis',(0.707106781186547,0.707106781186548,0.));
#848=DIRECTION('',(0.707106781186547,0.707106781186548,0.));
#849=DIRECTION('',(0.,0.,-1.));
#850=DIRECTION('',(0.707106781186547,0.707106781186548,0.));
#851=DIRECTION('center_axis',(-1.,0.,0.));
#852=DIRECTION('ref_axis',(0.,1.,0.));
#853=DIRECTION('',(0.,1.,0.));
#854=DIRECTION('',(0.,1.,0.));
#855=DIRECTION('center_axis',(1.,0.,0.));
#856=DIRECTION('ref_axis',(0.,-1.,0.));
#857=DIRECTION('',(0.,-1.,0.));
#858=DIRECTION('',(0.,-1.,0.));
#859=DIRECTION('',(0.,0.,-1.));
#860=DIRECTION('center_axis',(0.,1.,0.));
#861=DIRECTION('ref_axis',(1.,0.,0.));
#862=DIRECTION('',(-1.,0.,0.));
#863=DIRECTION('',(1.,0.,0.));
#864=DIRECTION('center_axis',(0.,-1.,0.));
#865=DIRECTION('ref_axis',(0.,0.,1.));
#866=DIRECTION('center_axis',(0.,-1.,0.));
#867=DIRECTION('ref_axis',(-1.,0.,0.));
#868=DIRECTION('',(-1.,0.,0.));
#869=DIRECTION('',(0.,0.,1.));
#870=DIRECTION('',(-1.,0.,0.));
#871=DIRECTION('',(0.,0.,-1.));
#872=DIRECTION('center_axis',(0.,-1.,0.));
#873=DIRECTION('ref_axis',(-1.,0.,0.));
#874=DIRECTION('',(-1.,0.,0.));
#875=DIRECTION('',(0.,0.,1.));
#876=DIRECTION('',(-1.,0.,0.));
#877=DIRECTION('center_axis',(0.,1.,0.));
#878=DIRECTION('ref_axis',(0.,0.,1.));
#879=DIRECTION('',(0.,0.,-1.));
#880=DIRECTION('center_axis',(-1.,0.,0.));
#881=DIRECTION('ref_axis',(0.,1.,0.));
#882=DIRECTION('',(0.,1.,0.));
#883=DIRECTION('',(0.,0.,-1.));
#884=DIRECTION('',(0.,-1.,0.));
#885=DIRECTION('center_axis',(0.,1.,0.));
#886=DIRECTION('ref_axis',(0.,0.,1.));
#887=DIRECTION('',(0.,-1.,0.));
#888=DIRECTION('center_axis',(-0.707106781186548,-0.707106781186547,0.));
#889=DIRECTION('ref_axis',(0.707106781186547,-0.707106781186548,0.));
#890=DIRECTION('center_axis',(0.,-1.,0.));
#891=DIRECTION('ref_axis',(0.,0.,1.));
#892=DIRECTION('',(0.,1.,0.));
#893=DIRECTION('center_axis',(0.,1.,0.));
#894=DIRECTION('ref_axis',(0.,0.,1.));
#895=DIRECTION('',(0.,1.,0.));
#896=DIRECTION('',(0.,-1.,0.));
#897=DIRECTION('center_axis',(0.,1.,0.));
#898=DIRECTION('ref_axis',(0.707106781186548,0.,0.707106781186548));
#899=DIRECTION('',(0.,-1.,0.));
#900=DIRECTION('center_axis',(0.707106781186548,0.707106781186547,0.));
#901=DIRECTION('ref_axis',(0.707106781186547,-0.707106781186548,0.));
#902=DIRECTION('center_axis',(0.,0.,1.));
#903=DIRECTION('ref_axis',(1.,0.,0.));
#904=DIRECTION('',(0.,1.,0.));
#905=DIRECTION('center_axis',(0.,0.,1.));
#906=DIRECTION('ref_axis',(0.707106781186547,0.707106781186548,0.));
#907=DIRECTION('',(0.,-1.,0.));
#908=DIRECTION('',(0.707106781186547,-0.707106781186548,0.));
#909=DIRECTION('center_axis',(0.,-1.,0.));
#910=DIRECTION('ref_axis',(-0.707106781186548,0.,0.707106781186548));
#911=DIRECTION('',(0.,1.,0.));
#912=DIRECTION('center_axis',(0.,0.,1.));
#913=DIRECTION('ref_axis',(1.,0.,0.));
#914=DIRECTION('',(0.,1.,0.));
#915=DIRECTION('',(0.,-1.,0.));
#916=DIRECTION('',(0.707106781186547,0.707106781186548,0.));
#917=DIRECTION('',(-1.,0.,0.));
#918=DIRECTION('',(0.707106781186547,-0.707106781186548,0.));
#919=DIRECTION('',(0.,-1.,0.));
#920=DIRECTION('center_axis',(0.,0.,-1.));
#921=DIRECTION('ref_axis',(0.707106781186547,0.707106781186548,0.));
#922=DIRECTION('',(-1.,0.,0.));
#923=DIRECTION('',(0.,1.,0.));
#924=DIRECTION('',(-1.,0.,0.));
#925=DIRECTION('center_axis',(0.,0.,1.));
#926=DIRECTION('ref_axis',(-0.707106781186547,-0.707106781186548,0.));
#927=DIRECTION('',(-1.,0.,0.));
#928=DIRECTION('',(0.,1.,0.));
#929=DIRECTION('',(0.,1.,0.));
#930=DIRECTION('',(0.,-1.,0.));
#931=DIRECTION('',(-1.,0.,0.));
#932=DIRECTION('center_axis',(1.,0.,0.));
#933=DIRECTION('ref_axis',(0.,1.,0.));
#934=DIRECTION('',(0.,-1.,0.));
#935=DIRECTION('',(0.,0.,1.));
#936=DIRECTION('center_axis',(0.,0.,1.));
#937=DIRECTION('ref_axis',(1.,0.,0.));
#938=DIRECTION('',(0.,-1.,0.));
#939=DIRECTION('',(-1.,0.,0.));
#940=DIRECTION('',(1.,0.,0.));
#941=DIRECTION('',(-0.707106781186547,-0.707106781186548,0.));
#942=DIRECTION('',(0.,-1.,0.));
#943=DIRECTION('',(-1.,0.,0.));
#944=DIRECTION('center_axis',(0.,-1.,0.));
#945=DIRECTION('ref_axis',(0.,0.,1.));
#946=DIRECTION('',(0.,-1.,0.));
#947=DIRECTION('center_axis',(0.,-1.,0.));
#948=DIRECTION('ref_axis',(0.,0.,1.));
#949=DIRECTION('center_axis',(0.,0.,1.));
#950=DIRECTION('ref_axis',(-0.707106781186547,-0.707106781186548,0.));
#951=DIRECTION('center_axis',(0.,0.,-1.));
#952=DIRECTION('ref_axis',(-0.707106781186547,-0.707106781186548,0.));
#953=DIRECTION('',(0.,0.,-1.));
#954=DIRECTION('',(0.,0.,1.));
#955=DIRECTION('center_axis',(0.,-1.,0.));
#956=DIRECTION('ref_axis',(1.,0.,0.));
#957=DIRECTION('',(0.,0.,1.));
#958=DIRECTION('',(-1.,0.,0.));
#959=DIRECTION('center_axis',(0.,0.,-1.));
#960=DIRECTION('ref_axis',(0.707106781186547,0.707106781186548,0.));
#961=DIRECTION('',(0.,0.,-1.));
#962=DIRECTION('',(0.,0.,1.));
#963=DIRECTION('center_axis',(0.707106781186548,-0.707106781186547,0.));
#964=DIRECTION('ref_axis',(0.,0.,-1.));
#965=DIRECTION('',(0.,0.,-1.));
#966=DIRECTION('center_axis',(0.,-1.,0.));
#967=DIRECTION('ref_axis',(1.,0.,0.));
#968=DIRECTION('',(0.,0.,1.));
#969=DIRECTION('center_axis',(-0.707106781186548,-0.707106781186547,0.));
#970=DIRECTION('ref_axis',(0.,0.,1.));
#971=DIRECTION('',(0.,0.,-1.));
#972=DIRECTION('center_axis',(1.,0.,0.));
#973=DIRECTION('ref_axis',(0.,-1.,0.));
#974=DIRECTION('center_axis',(-1.,0.,0.));
#975=DIRECTION('ref_axis',(0.,1.,0.));
#976=DIRECTION('',(0.,0.,-1.));
#977=DIRECTION('',(0.,1.,0.));
#978=DIRECTION('center_axis',(0.,1.,0.));
#979=DIRECTION('ref_axis',(1.,0.,0.));
#980=DIRECTION('',(1.,0.,0.));
#981=DIRECTION('center_axis',(0.,-1.,0.));
#982=DIRECTION('ref_axis',(-1.,0.,0.));
#983=DIRECTION('',(0.,0.,1.));
#984=DIRECTION('center_axis',(0.,-1.,0.));
#985=DIRECTION('ref_axis',(-1.,0.,0.));
#986=DIRECTION('',(0.,0.,-1.));
#987=DIRECTION('',(0.,0.,1.));
#988=DIRECTION('center_axis',(-1.,0.,0.));
#989=DIRECTION('ref_axis',(0.,1.,0.));
#990=DIRECTION('center_axis',(1.,0.,0.));
#991=DIRECTION('ref_axis',(0.,-1.,0.));
#992=DIRECTION('center_axis',(1.,0.,0.));
#993=DIRECTION('ref_axis',(0.,-1.,0.));
#994=DIRECTION('center_axis',(0.,0.,1.));
#995=DIRECTION('ref_axis',(1.,0.,0.));
#996=DIRECTION('',(0.,1.,0.));
#997=DIRECTION('center_axis',(-1.,0.,0.));
#998=DIRECTION('ref_axis',(0.,-1.,0.));
#999=CARTESIAN_POINT('',(0.,0.,0.));
#1000=CARTESIAN_POINT('Origin',(-30.5,-29.,0.));
#1001=CARTESIAN_POINT('',(-30.5,-25.5,3.));
#1002=CARTESIAN_POINT('',(-34.,-29.,3.));
#1003=CARTESIAN_POINT('Origin',(-30.5,-29.,3.));
#1004=CARTESIAN_POINT('',(-30.5,-25.5,0.));
#1005=CARTESIAN_POINT('',(-30.5,-25.5,0.));
#1006=CARTESIAN_POINT('',(-34.,-29.,0.));
#1007=CARTESIAN_POINT('Origin',(-30.5,-29.,0.));
#1008=CARTESIAN_POINT('',(-34.,-29.,0.));
#1009=CARTESIAN_POINT('Origin',(-30.,-25.5,0.));
#1010=CARTESIAN_POINT('',(-27.9999999701977,-25.5,3.));
#1011=CARTESIAN_POINT('',(-15.,-25.5,3.));
#1012=CARTESIAN_POINT('',(-27.9999999701977,-25.5,0.));
#1013=CARTESIAN_POINT('',(-27.9999999701977,-25.5,1.5));
#1014=CARTESIAN_POINT('',(-15.,-25.5,0.));
#1015=CARTESIAN_POINT('Origin',(-10.5000001490116,-25.4999998509884,3.));
#1016=CARTESIAN_POINT('',(-10.5000001490116,-28.9999998509884,3.70745885759772));
#1017=CARTESIAN_POINT('',(-10.5000001490116,-28.9999998509884,0.));
#1018=CARTESIAN_POINT('',(-10.5000001490116,-28.9999998509884,3.));
#1019=CARTESIAN_POINT('',(-9.88561814276877,-28.9456543244382,4.66666666666667));
#1020=CARTESIAN_POINT('Ctrl Pts',(-10.5000001490112,-28.9999998509884,3.70745885759809));
#1021=CARTESIAN_POINT('Ctrl Pts',(-10.3741795351555,-28.9999998509884,3.82977689234078));
#1022=CARTESIAN_POINT('Ctrl Pts',(-10.2631769561539,-28.9931935890728,3.96424369029938));
#1023=CARTESIAN_POINT('Ctrl Pts',(-10.0581108701285,-28.9738586497401,4.26760757932372));
#1024=CARTESIAN_POINT('Ctrl Pts',(-9.95820885069493,-28.9585977072162,4.4613491393637));
#1025=CARTESIAN_POINT('Ctrl Pts',(-9.88561814276875,-28.9456543244382,4.66666666666666));
#1026=CARTESIAN_POINT('',(-8.00000005960927,-27.9494895025257,6.));
#1027=CARTESIAN_POINT('Ctrl Pts',(-8.00000005960927,-27.9494895025257,6.));
#1028=CARTESIAN_POINT('Ctrl Pts',(-8.02112716308577,-27.9710522637919,5.99999999999995));
#1029=CARTESIAN_POINT('Ctrl Pts',(-8.04248130249544,-27.9922885781604,5.99966519318497));
#1030=CARTESIAN_POINT('Ctrl Pts',(-8.19406244240327,-28.1392111830317,5.99480857613276));
#1031=CARTESIAN_POINT('Ctrl Pts',(-8.34617706073423,-28.2654565109863,5.97651177673513));
#1032=CARTESIAN_POINT('Ctrl Pts',(-8.66089334341201,-28.4840223728455,5.89463914271984));
#1033=CARTESIAN_POINT('Ctrl Pts',(-8.82321404173777,-28.5764704433617,5.83032570369963));
#1034=CARTESIAN_POINT('Ctrl Pts',(-9.13821284157763,-28.7296968863727,5.65586449117336));
#1035=CARTESIAN_POINT('Ctrl Pts',(-9.32959123578052,-28.8017396307181,5.5081533913258));
#1036=CARTESIAN_POINT('Ctrl Pts',(-9.62826219433127,-28.8937847193335,5.18478652006838));
#1037=CARTESIAN_POINT('Ctrl Pts',(-9.76834736355723,-28.9239768644774,4.96821688645991));
#1038=CARTESIAN_POINT('Ctrl Pts',(-9.86976842943025,-28.9428013962793,4.71028462138844));
#1039=CARTESIAN_POINT('Ctrl Pts',(-9.87788401647779,-28.9442752807576,4.68854207925428));
#1040=CARTESIAN_POINT('Ctrl Pts',(-9.88561814276876,-28.9456543244383,4.66666666666667));
#1041=CARTESIAN_POINT('',(-7.00000014901161,-25.4999998509884,6.));
#1042=CARTESIAN_POINT('Origin',(-10.5000001490116,-25.4999998509884,6.));
#1043=CARTESIAN_POINT('',(-7.00000014901161,-25.4999998509884,0.));
#1044=CARTESIAN_POINT('',(-7.00000014901161,-25.4999998509884,3.));
#1045=CARTESIAN_POINT('Origin',(-10.5000001490116,-25.4999998509884,0.));
#1046=CARTESIAN_POINT('Origin',(25.5,-23.,0.));
#1047=CARTESIAN_POINT('',(27.,-24.5,3.));
#1048=CARTESIAN_POINT('',(24.,-21.5,3.));
#1049=CARTESIAN_POINT('',(21.875,-19.375,3.));
#1050=CARTESIAN_POINT('',(27.,-24.5,0.));
#1051=CARTESIAN_POINT('',(27.,-24.5,0.));
#1052=CARTESIAN_POINT('',(24.,-21.5,0.));
#1053=CARTESIAN_POINT('',(21.875,-19.375,0.));
#1054=CARTESIAN_POINT('',(24.,-21.5,0.));
#1055=CARTESIAN_POINT('Origin',(-30.,-21.5,0.));
#1056=CARTESIAN_POINT('',(-4.00000014901162,-21.5,0.));
#1057=CARTESIAN_POINT('',(30.,-21.5,0.));
#1058=CARTESIAN_POINT('',(-4.00000014901161,-21.5,4.39520918338485));
#1059=CARTESIAN_POINT('',(-4.00000014901161,-21.5,1.5));
#1060=CARTESIAN_POINT('',(-1.75735946189233,-21.5,3.));
#1061=CARTESIAN_POINT('Origin',(-1.75735946189233,-21.5,5.5));
#1062=CARTESIAN_POINT('',(30.,-21.5,3.));
#1063=CARTESIAN_POINT('Origin',(-5.50000014901161,-23.,1.5));
#1064=CARTESIAN_POINT('',(-6.00000014901162,-23.5,6.));
#1065=CARTESIAN_POINT('',(-4.11438206584749,-21.6143819168359,4.66666666666667));
#1066=CARTESIAN_POINT('Origin',(-6.00000014901162,-23.5,4.));
#1067=CARTESIAN_POINT('Origin',(-1.75735946189233,-19.2573593128807,5.5));
#1068=CARTESIAN_POINT('',(-7.00000014901161,-24.5,0.));
#1069=CARTESIAN_POINT('',(-6.87500011175871,-24.3749999627471,0.));
#1070=CARTESIAN_POINT('',(-7.00000014901161,-24.5,6.));
#1071=CARTESIAN_POINT('',(-7.00000014901161,-24.5,1.5));
#1072=CARTESIAN_POINT('',(-7.00000014901161,-24.5,6.));
#1073=CARTESIAN_POINT('Origin',(-7.00000014901161,-28.9999998509884,3.));
#1074=CARTESIAN_POINT('',(-7.00000014901161,-28.9999998509884,6.));
#1075=CARTESIAN_POINT('',(-7.00000014901161,-31.4999999254942,0.));
#1076=CARTESIAN_POINT('Origin',(-27.9999999701977,-21.5,3.));
#1077=CARTESIAN_POINT('',(-27.9999999701977,-28.9999998509884,0.));
#1078=CARTESIAN_POINT('',(-27.9999999701977,-27.75,0.));
#1079=CARTESIAN_POINT('',(-27.9999999701977,-28.9999998509884,3.));
#1080=CARTESIAN_POINT('',(-27.9999999701977,-27.75,3.));
#1081=CARTESIAN_POINT('',(-27.9999999701977,-28.9999998509884,3.));
#1082=CARTESIAN_POINT('Origin',(-17.9999999701977,-28.9999998509884,3.));
#1083=CARTESIAN_POINT('',(-8.99999998509884,-28.9999998509884,0.));
#1084=CARTESIAN_POINT('',(-12.2426407467239,-28.9999998509884,3.));
#1085=CARTESIAN_POINT('',(-8.99999998509884,-28.9999998509884,3.));
#1086=CARTESIAN_POINT('Origin',(-12.2426407467239,-28.9999998509884,5.5));
#1087=CARTESIAN_POINT('Origin',(22.0000003278255,-27.9999998509884,3.));
#1088=CARTESIAN_POINT('',(18.0000002682209,-27.9999998509884,0.));
#1089=CARTESIAN_POINT('',(22.0000003278255,-27.9999998509884,0.));
#1090=CARTESIAN_POINT('',(11.0000001639128,-27.9999998509884,0.));
#1091=CARTESIAN_POINT('',(22.0000003278255,-27.9999998509884,3.));
#1092=CARTESIAN_POINT('',(22.0000003278255,-27.9999998509884,3.));
#1093=CARTESIAN_POINT('',(18.0000002682209,-27.9999998509884,3.));
#1094=CARTESIAN_POINT('',(11.0000001639128,-27.9999998509884,3.));
#1095=CARTESIAN_POINT('',(18.0000002682209,-27.9999998509884,3.));
#1096=CARTESIAN_POINT('Origin',(2.00000002980232,-27.9999998509884,3.));
#1097=CARTESIAN_POINT('',(-2.00000002980232,-27.9999998509884,0.));
#1098=CARTESIAN_POINT('',(2.00000002980232,-27.9999998509884,0.));
#1099=CARTESIAN_POINT('',(1.00000001490116,-27.9999998509884,0.));
#1100=CARTESIAN_POINT('',(2.00000002980232,-27.9999998509884,3.));
#1101=CARTESIAN_POINT('',(2.00000002980232,-27.9999998509884,3.));
#1102=CARTESIAN_POINT('',(-1.75735946189233,-27.9999998509884,3.));
#1103=CARTESIAN_POINT('',(1.00000001490116,-27.9999998509884,3.));
#1104=CARTESIAN_POINT('',(-2.00000002980232,-27.9999998509884,3.01180275002075));
#1105=CARTESIAN_POINT('Origin',(-1.75735946189233,-27.9999998509884,5.5));
#1106=CARTESIAN_POINT('',(-2.00000002980232,-27.9999998509884,3.));
#1107=CARTESIAN_POINT('Origin',(18.0000002682209,-39.0000001490116,3.));
#1108=CARTESIAN_POINT('',(18.0000002682209,-50.0000001490116,3.));
#1109=CARTESIAN_POINT('',(18.0000002682209,-34.0000000745058,3.));
#1110=CARTESIAN_POINT('',(18.0000002682209,-50.0000001490116,0.));
#1111=CARTESIAN_POINT('',(18.0000002682209,-50.0000001490116,3.));
#1112=CARTESIAN_POINT('',(18.0000002682209,-49.0000000745058,0.));
#1113=CARTESIAN_POINT('Origin',(-1.75735946189233,-35.25,5.5));
#1114=CARTESIAN_POINT('',(-4.11438206584749,-56.3856180831641,4.66666666666667));
#1115=CARTESIAN_POINT('',(-4.11438206584749,-50.25,4.66666666666667));
#1116=CARTESIAN_POINT('',(-4.00000014901161,-56.5,4.39520918338485));
#1117=CARTESIAN_POINT('Origin',(-1.75735946189233,-58.7426406871193,5.5));
#1118=CARTESIAN_POINT('',(-1.75735946189233,-56.5,3.));
#1119=CARTESIAN_POINT('Origin',(-1.75735946189233,-56.5,5.5));
#1120=CARTESIAN_POINT('',(-1.75735946189233,-50.0000001490116,3.));
#1121=CARTESIAN_POINT('',(-1.75735946189233,-50.25,3.));
#1122=CARTESIAN_POINT('',(-2.00000002980232,-50.0000001490116,3.01180275002075));
#1123=CARTESIAN_POINT('Origin',(-1.75735946189233,-50.0000001490116,5.5));
#1124=CARTESIAN_POINT('',(-2.00000002980232,-50.25,3.01180275002075));
#1125=CARTESIAN_POINT('',(-1.75735946189233,-27.75,3.));
#1126=CARTESIAN_POINT('Origin',(-6.00000014901162,-35.25,4.));
#1127=CARTESIAN_POINT('',(-6.00000014901162,-54.5,6.));
#1128=CARTESIAN_POINT('',(-6.00000014901162,-50.25,6.));
#1129=CARTESIAN_POINT('Origin',(-6.00000014901162,-54.5,4.));
#1130=CARTESIAN_POINT('Origin',(-7.00000010430813,-29.,6.));
#1131=CARTESIAN_POINT('',(-8.00000005960927,-50.0505104974743,6.));
#1132=CARTESIAN_POINT('',(-8.00000005960464,-51.5000000372529,6.));
#1133=CARTESIAN_POINT('',(-7.00000014901161,-52.5000001490116,6.));
#1134=CARTESIAN_POINT('Origin',(-10.5000001490116,-52.5000001490116,6.));
#1135=CARTESIAN_POINT('',(-7.00000014901161,-53.5,6.));
#1136=CARTESIAN_POINT('',(-7.00000014901161,-49.0000001490116,6.));
#1137=CARTESIAN_POINT('',(-7.00000014901161,-53.5,6.));
#1138=CARTESIAN_POINT('Origin',(-8.00000005960464,-26.4999999627471,4.));
#1139=CARTESIAN_POINT('',(-9.88561814276877,-49.0543456755618,4.66666666666667));
#1140=CARTESIAN_POINT('',(-9.88561814276877,-26.4999999627471,4.66666666666667));
#1141=CARTESIAN_POINT('Ctrl Pts',(-8.00000005960927,-50.0505104974743,6.));
#1142=CARTESIAN_POINT('Ctrl Pts',(-8.02112716308577,-50.0289477362082,5.99999999999995));
#1143=CARTESIAN_POINT('Ctrl Pts',(-8.04248130249544,-50.0077114218396,5.99966519318497));
#1144=CARTESIAN_POINT('Ctrl Pts',(-8.19406244240327,-49.8607888169683,5.99480857613276));
#1145=CARTESIAN_POINT('Ctrl Pts',(-8.34617706073423,-49.7345434890137,5.97651177673513));
#1146=CARTESIAN_POINT('Ctrl Pts',(-8.66089334341201,-49.5159776271546,5.89463914271984));
#1147=CARTESIAN_POINT('Ctrl Pts',(-8.82321404173777,-49.4235295566383,5.83032570369963));
#1148=CARTESIAN_POINT('Ctrl Pts',(-9.13821284157763,-49.2703031136273,5.65586449117336));
#1149=CARTESIAN_POINT('Ctrl Pts',(-9.32959123578052,-49.1982603692819,5.5081533913258));
#1150=CARTESIAN_POINT('Ctrl Pts',(-9.62826219433127,-49.1062152806665,5.18478652006838));
#1151=CARTESIAN_POINT('Ctrl Pts',(-9.76834736355723,-49.0760231355226,4.96821688645991));
#1152=CARTESIAN_POINT('Ctrl Pts',(-9.86976842943025,-49.0571986037207,4.71028462138844));
#1153=CARTESIAN_POINT('Ctrl Pts',(-9.87788401647779,-49.0557247192424,4.68854207925428));
#1154=CARTESIAN_POINT('Ctrl Pts',(-9.88561814276876,-49.0543456755618,4.66666666666667));
#1155=CARTESIAN_POINT('Origin',(0.,-29.,0.));
#1156=CARTESIAN_POINT('',(-34.,-49.,0.));
#1157=CARTESIAN_POINT('',(-34.,-37.75,0.));
#1158=CARTESIAN_POINT('',(27.,-53.5,0.));
#1159=CARTESIAN_POINT('',(27.,-50.25,0.));
#1160=CARTESIAN_POINT('',(24.,-56.5,0.));
#1161=CARTESIAN_POINT('',(21.875,-58.625,0.));
#1162=CARTESIAN_POINT('',(-4.00000014901162,-56.5,0.));
#1163=CARTESIAN_POINT('',(30.,-56.5,0.));
#1164=CARTESIAN_POINT('',(-7.00000014901161,-53.5,0.));
#1165=CARTESIAN_POINT('',(-6.87500011175871,-53.6250000372529,0.));
#1166=CARTESIAN_POINT('',(-7.00000014901161,-52.5000001490116,0.));
#1167=CARTESIAN_POINT('',(-7.00000014901161,-46.5000000745058,0.));
#1168=CARTESIAN_POINT('',(-10.5000001490116,-49.0000001490116,0.));
#1169=CARTESIAN_POINT('Origin',(-10.5000001490116,-52.5000001490116,0.));
#1170=CARTESIAN_POINT('',(-27.9999999701977,-49.0000001490116,0.));
#1171=CARTESIAN_POINT('',(-8.99999998509884,-49.0000001490116,0.));
#1172=CARTESIAN_POINT('',(-27.9999999701977,-52.5,0.));
#1173=CARTESIAN_POINT('',(-27.9999999701977,-50.25,0.));
#1174=CARTESIAN_POINT('',(-30.5,-52.5,0.));
#1175=CARTESIAN_POINT('',(-15.,-52.5,0.));
#1176=CARTESIAN_POINT('Origin',(-30.5,-49.,0.));
#1177=CARTESIAN_POINT('',(22.0000003278255,-50.0000001490116,0.));
#1178=CARTESIAN_POINT('',(11.0000001639128,-50.0000001490116,0.));
#1179=CARTESIAN_POINT('',(22.0000003278255,-38.9999999254942,0.));
#1180=CARTESIAN_POINT('',(2.00000002980232,-50.0000001490116,0.));
#1181=CARTESIAN_POINT('',(2.00000002980232,-38.9999999254942,0.));
#1182=CARTESIAN_POINT('',(-2.00000002980232,-50.0000001490116,0.));
#1183=CARTESIAN_POINT('',(-2.00000002980232,-34.0000000745058,0.));
#1184=CARTESIAN_POINT('',(1.00000001490116,-50.0000001490116,0.));
#1185=CARTESIAN_POINT('Origin',(27.,-41.5,0.));
#1186=CARTESIAN_POINT('',(27.,-53.5,3.));
#1187=CARTESIAN_POINT('',(27.,-35.25,3.));
#1188=CARTESIAN_POINT('',(27.,-53.5,0.));
#1189=CARTESIAN_POINT('Origin',(0.,-29.,3.));
#1190=CARTESIAN_POINT('',(2.00000002980232,-50.0000001490116,3.));
#1191=CARTESIAN_POINT('',(2.00000002980232,-23.9999999254942,3.));
#1192=CARTESIAN_POINT('',(1.00000001490116,-50.0000001490116,3.));
#1193=CARTESIAN_POINT('',(24.,-56.5,3.));
#1194=CARTESIAN_POINT('',(30.,-56.5,3.));
#1195=CARTESIAN_POINT('',(21.875,-58.625,3.));
#1196=CARTESIAN_POINT('',(22.0000003278255,-50.0000001490116,3.));
#1197=CARTESIAN_POINT('',(22.0000003278255,-38.9999999254942,3.));
#1198=CARTESIAN_POINT('',(11.0000001639128,-50.0000001490116,3.));
#1199=CARTESIAN_POINT('Origin',(-12.2426407467239,-26.4999999627471,5.5));
#1200=CARTESIAN_POINT('',(-12.2426407467239,-49.0000001490116,3.));
#1201=CARTESIAN_POINT('',(-12.2426407467239,-26.4999999627471,3.));
#1202=CARTESIAN_POINT('',(-10.5000001490116,-49.0000001490116,3.70745885759772));
#1203=CARTESIAN_POINT('Origin',(-12.2426407467239,-49.0000001490116,5.5));
#1204=CARTESIAN_POINT('Ctrl Pts',(-10.5000001490112,-49.0000001490116,3.70745885759809));
#1205=CARTESIAN_POINT('Ctrl Pts',(-10.3741795351555,-49.0000001490116,3.82977689234078));
#1206=CARTESIAN_POINT('Ctrl Pts',(-10.2631769561539,-49.0068064109272,3.96424369029938));
#1207=CARTESIAN_POINT('Ctrl Pts',(-10.0581108701285,-49.0261413502599,4.26760757932372));
#1208=CARTESIAN_POINT('Ctrl Pts',(-9.95820885069493,-49.0414022927838,4.4613491393637));
#1209=CARTESIAN_POINT('Ctrl Pts',(-9.88561814276875,-49.0543456755617,4.66666666666666));
#1210=CARTESIAN_POINT('Origin',(-30.5,-49.,0.));
#1211=CARTESIAN_POINT('',(-30.5,-52.5,3.));
#1212=CARTESIAN_POINT('',(-34.,-49.,3.));
#1213=CARTESIAN_POINT('Origin',(-30.5,-49.,3.));
#1214=CARTESIAN_POINT('',(-34.,-49.,0.));
#1215=CARTESIAN_POINT('',(-30.5,-52.5,0.));
#1216=CARTESIAN_POINT('Origin',(-30.,-52.5,0.));
#1217=CARTESIAN_POINT('',(-27.9999999701977,-52.5,3.));
#1218=CARTESIAN_POINT('',(-27.9999999701977,-52.5,1.5));
#1219=CARTESIAN_POINT('',(-15.,-52.5,3.));
#1220=CARTESIAN_POINT('Origin',(-10.5000001490116,-52.5000001490116,3.));
#1221=CARTESIAN_POINT('',(-10.5000001490116,-49.0000001490116,3.));
#1222=CARTESIAN_POINT('',(-7.00000014901161,-52.5000001490116,3.));
#1223=CARTESIAN_POINT('Origin',(25.5,-55.,0.));
#1224=CARTESIAN_POINT('',(24.,-56.5,0.));
#1225=CARTESIAN_POINT('Origin',(-30.,-56.5,0.));
#1226=CARTESIAN_POINT('',(-4.00000014901161,-56.5,1.5));
#1227=CARTESIAN_POINT('Origin',(-5.50000014901161,-55.,1.5));
#1228=CARTESIAN_POINT('',(-7.00000014901161,-53.5,1.5));
#1229=CARTESIAN_POINT('Origin',(-7.00000014901161,-49.0000001490116,3.));
#1230=CARTESIAN_POINT('Origin',(-27.9999999701977,-56.5,3.));
#1231=CARTESIAN_POINT('',(-27.9999999701977,-49.0000001490116,3.));
#1232=CARTESIAN_POINT('',(-27.9999999701977,-49.0000001490116,3.));
#1233=CARTESIAN_POINT('',(-27.9999999701977,-50.25,3.));
#1234=CARTESIAN_POINT('Origin',(-17.9999999701977,-49.0000001490116,3.));
#1235=CARTESIAN_POINT('',(-8.99999998509884,-49.0000001490116,3.));
#1236=CARTESIAN_POINT('Origin',(22.0000003278255,-50.0000001490116,3.));
#1237=CARTESIAN_POINT('',(22.0000003278255,-50.0000001490116,3.));
#1238=CARTESIAN_POINT('Origin',(2.00000002980232,-50.0000001490116,3.));
#1239=CARTESIAN_POINT('',(-2.00000002980232,-50.0000001490116,3.));
#1240=CARTESIAN_POINT('',(2.00000002980232,-50.0000001490116,3.));
#1241=CARTESIAN_POINT('Origin',(-2.00000002980232,-39.0000001490116,3.));
#1242=CARTESIAN_POINT('Origin',(2.00000002980232,-18.9999998509884,3.));
#1243=CARTESIAN_POINT('Origin',(22.0000003278255,-18.9999998509884,3.));
#1244=CARTESIAN_POINT('Origin',(0.,-29.,3.));
#1245=CARTESIAN_POINT('',(-34.,-37.75,3.));
#1246=CARTESIAN_POINT('Origin',(-34.,-16.5,0.));
#1247=UNCERTAINTY_MEASURE_WITH_UNIT(LENGTH_MEASURE(0.01),#1251,
'DISTANCE_ACCURACY_VALUE',
'Maximum model space distance between geometric entities at asserted c
onnectivities');
#1248=UNCERTAINTY_MEASURE_WITH_UNIT(LENGTH_MEASURE(0.01),#1251,
'DISTANCE_ACCURACY_VALUE',
'Maximum model space distance between geometric entities at asserted c
onnectivities');
#1249=(
GEOMETRIC_REPRESENTATION_CONTEXT(3)
GLOBAL_UNCERTAINTY_ASSIGNED_CONTEXT((#1247))
GLOBAL_UNIT_ASSIGNED_CONTEXT((#1251,#1253,#1254))
REPRESENTATION_CONTEXT('','3D')
);
#1250=(
GEOMETRIC_REPRESENTATION_CONTEXT(3)
GLOBAL_UNCERTAINTY_ASSIGNED_CONTEXT((#1248))
GLOBAL_UNIT_ASSIGNED_CONTEXT((#1251,#1253,#1254))
REPRESENTATION_CONTEXT('','3D')
);
#1251=(
LENGTH_UNIT()
NAMED_UNIT(*)
SI_UNIT(.MILLI.,.METRE.)
);
#1252=(
LENGTH_UNIT()
NAMED_UNIT(*)
SI_UNIT($,.METRE.)
);
#1253=(
NAMED_UNIT(*)
PLANE_ANGLE_UNIT()
SI_UNIT($,.RADIAN.)
);
#1254=(
NAMED_UNIT(*)
SI_UNIT($,.STERADIAN.)
SOLID_ANGLE_UNIT()
);
#1255=SHAPE_DEFINITION_REPRESENTATION(#1256,#1257);
#1256=PRODUCT_DEFINITION_SHAPE('',$,#1259);
#1257=SHAPE_REPRESENTATION('',(#751),#1249);
#1258=PRODUCT_DEFINITION_CONTEXT('part definition',#1263,'design');
#1259=PRODUCT_DEFINITION('2025-12-04-19-23-09-022','Tread LInk',#1260,#1258);
#1260=PRODUCT_DEFINITION_FORMATION('',$,#1265);
#1261=PRODUCT_RELATED_PRODUCT_CATEGORY('Tread LInk','Tread LInk',(#1265));
#1262=APPLICATION_PROTOCOL_DEFINITION('international standard',
'automotive_design',2009,#1263);
#1263=APPLICATION_CONTEXT(
'Core Data for Automotive Mechanical Design Process');
#1264=PRODUCT_CONTEXT('part definition',#1263,'mechanical');
#1265=PRODUCT('2025-12-04-19-23-09-022','Tread LInk',$,(#1264));
#1266=PRESENTATION_STYLE_ASSIGNMENT((#1268));
#1267=PRESENTATION_STYLE_ASSIGNMENT((#1269));
#1268=SURFACE_STYLE_USAGE(.BOTH.,#1270);
#1269=SURFACE_STYLE_USAGE(.BOTH.,#1271);
#1270=SURFACE_SIDE_STYLE('',(#1272));
#1271=SURFACE_SIDE_STYLE('',(#1273));
#1272=SURFACE_STYLE_FILL_AREA(#1274);
#1273=SURFACE_STYLE_FILL_AREA(#1275);
#1274=FILL_AREA_STYLE('Plate',(#1276));
#1275=FILL_AREA_STYLE('Opaque(160,160,160)',(#1277));
#1276=FILL_AREA_STYLE_COLOUR('Plate',#1278);
#1277=FILL_AREA_STYLE_COLOUR('Opaque(160,160,160)',#1279);
#1278=COLOUR_RGB('Plate',0.6,0.6,0.6);
#1279=COLOUR_RGB('Opaque(160,160,160)',0.627450980392157,0.627450980392157,
0.627450980392157);
ENDSEC;
END-ISO-10303-21;
